<svg version="1.1" xmlns="http://www.w3.org/2000/svg" xmlns:xlink="http://www.w3.org/1999/xlink" width="137.08366" height="292.64917" viewBox="0,0,137.08366,292.64917"><defs><linearGradient x1="214.66755" y1="103.56556" x2="214.66755" y2="119.85941" gradientUnits="userSpaceOnUse" id="color-1"><stop offset="0" stop-color="#e384d2"/><stop offset="1" stop-color="#b36aa5"/></linearGradient><linearGradient x1="259.94564" y1="103.25222" x2="259.94564" y2="119.54605" gradientUnits="userSpaceOnUse" id="color-2"><stop offset="0" stop-color="#e384d2"/><stop offset="1" stop-color="#b36aa5"/></linearGradient><linearGradient x1="236.53701" y1="90.61616" x2="236.53701" y2="127.61616" gradientUnits="userSpaceOnUse" id="color-3"><stop offset="0" stop-color="#0f0b0f"/><stop offset="1" stop-color="#0f0b0f" stop-opacity="0"/></linearGradient></defs><g transform="translate(-171.45817,-33.67542)"><g data-paper-data="{&quot;isPaintingLayer&quot;:true}" fill-rule="nonzero" stroke-linejoin="miter" stroke-miterlimit="10" stroke-dasharray="" stroke-dashoffset="0" style="mix-blend-mode: normal"><g stroke="#000000" stroke-linecap="butt"><path d="M236.74622,257.93825c-10.76112,-11.04002 -4.60807,-34.4473 10.40476,-49.02062c15.01282,-14.57332 59.98381,-19.40744 59.98381,-19.40744c0,0 -4.63019,43.48238 -21.01435,59.38689c-16.38416,15.90452 -38.6131,20.08119 -49.37421,9.04116z" data-paper-data="{&quot;index&quot;:null}" fill="#e35fcb" stroke-width="0"/><path d="M307.13478,189.5102c0,0 -1.67392,25.71572 -11.66184,45.01175c-0.81964,-2.40076 -2.0921,-4.78119 -2.83869,-7.36569c-1.2721,-4.40375 -1.82028,-8.58791 -1.82028,-8.58791c0,0 -5.94676,1.55835 -8.72541,2.20532c-2.46429,0.57378 -7.1169,1.48334 -7.1169,1.48334c0,0 0.68099,-5.34849 1.10835,-8.05204c0.44943,-2.84322 1.52534,-8.60937 1.52534,-8.60937c0,0 -3.01461,-0.72767 -6.36332,-1.97126c-3.07837,-1.1432 -6.39549,-2.76645 -8.86844,-3.69446c19.03248,-7.654 44.76119,-10.41969 44.76119,-10.41969z" data-paper-data="{&quot;index&quot;:null}" fill="#e987d7" stroke-width="0"/><path d="M236.74623,257.93826c-10.76112,-11.04002 -4.60807,-34.4473 10.40476,-49.02062c0.80162,-0.77815 1.68865,-1.52853 2.64968,-2.2519c-5.67187,11.06784 -2.74311,26.0799 6.14228,34.81047c8.03646,7.89643 21.26551,10.33086 31.61447,5.92367c-0.46863,0.52241 -0.94756,1.02211 -1.43698,1.4972c-16.38416,15.90452 -38.6131,20.08119 -49.37421,9.04116z" data-paper-data="{&quot;index&quot;:null}" fill="#ca55b5" stroke-width="0"/><path d="M236.74622,257.93825c-10.76112,-11.04002 -4.60807,-34.4473 10.40476,-49.02062c15.01282,-14.57332 59.98381,-19.40744 59.98381,-19.40744c0,0 -4.63019,43.48238 -21.01435,59.38689c-16.38416,15.90452 -38.6131,20.08119 -49.37421,9.04116z" data-paper-data="{&quot;index&quot;:null}" fill="none" stroke-width="2.5"/></g><path d="M260.90646,168.34606c2.82549,-0.73923 4.99846,0.29756 7.82026,4.74265c5.76306,9.07835 16.08526,38.82105 18.18935,41.15119c2.11016,2.33686 5.25782,3.86639 9.10809,8.47404c4.05937,4.8579 6.17767,11.39166 4.4145,14.01227c-2.64948,3.93799 -8.47309,-1.28378 -8.47309,-1.28378c0,0 0.94263,8.50452 -3.40175,9.8928c-4.31583,1.37917 -8.68196,-4.88701 -8.68196,-4.88701c0,0 -1.92516,7.71006 -7.01428,6.12734c-4.38186,-1.36276 -3.0249,-12.4686 -3.0249,-12.4686c0,0 -6.36581,2.36458 -8.46188,-1.28895c-1.97159,-3.43656 3.87199,-9.09331 6.1913,-11.94691c1.90476,-2.34354 -9.87635,-34.56351 -10.32178,-43.43511c-0.25754,-5.12925 0.49604,-8.26316 3.65614,-9.08994z" data-paper-data="{&quot;index&quot;:null}" fill="#e35fcb" stroke="#000000" stroke-width="2.5" stroke-linecap="butt"/><path d="M215.21346,176.42255c-0.24233,8.87945 -11.28309,41.36057 -9.32523,43.65991c2.38398,2.79979 8.35546,8.32134 6.46303,11.80212c-2.01191,3.70054 -8.43016,1.48223 -8.43016,1.48223c0,0 1.61072,11.07188 -2.73881,12.53454c-5.05157,1.69875 -7.15265,-5.96523 -7.15265,-5.96523c0,0 -4.22161,6.36443 -8.56787,5.08439c-4.37499,-1.28851 -3.62722,-9.81236 -3.62722,-9.81236c0,0 -5.70258,5.35366 -8.44149,1.47732c-1.82267,-2.57959 0.14558,-9.16011 4.09273,-14.10962c3.74383,-4.69457 6.85568,-6.29569 8.91181,-8.68022c2.05023,-2.37769 11.68914,-32.34877 17.24298,-41.55662c2.71935,-4.50849 4.86802,-5.59473 7.70968,-4.92034c3.1782,0.75426 4.0033,3.8701 3.86319,9.0039z" data-paper-data="{&quot;index&quot;:null}" fill="#e35fcb" stroke="#000000" stroke-width="2.5" stroke-linecap="butt"/><g data-paper-data="{&quot;index&quot;:null}" stroke="#000000" stroke-linecap="butt"><path d="M254.21326,324.97548c-7.12077,0.54381 -14.45542,0.32247 -15.70054,-0.75193c-1.52555,-1.31639 0,-96.43664 0,-96.43664h27.63161c0,0 0.92525,22.97176 1.30086,36.57334c0.26592,9.62908 1.49219,32.69525 2.00297,45.62665c0.39952,10.11458 0.2484,11.47332 -0.39524,12.26185c-0.70542,0.86421 -7.82717,2.19121 -14.83966,2.72674z" fill="#e35fcb" stroke-width="0"/><path d="M266.65507,241.00474c0.05147,1.37707 0.15805,4.27943 0.15805,4.27943c0,0 -7.77388,6.44541 -13.31281,9.52178c-5.53894,3.07638 -15.2567,4.46595 -15.2567,4.46595l0.2691,-31.485h27.63161c0,0 0.23196,5.75929 0.51076,13.21785z" fill="#ca55b5" stroke-width="0"/><path d="M254.21326,324.97548c-7.12077,0.54381 -14.45542,0.32247 -15.70054,-0.75193c-0.44485,-0.38386 -0.66972,-27.28933 -0.66972,-27.28933c0,0 3.11749,2.3858 4.59138,3.39556c1.3688,0.93777 3.96001,2.46302 3.96001,2.46302c0,0 3.22673,-2.69987 4.54239,-3.89316c1.11968,-1.01554 2.85886,-2.81971 2.85886,-2.81971c0,0 2.83231,1.18423 4.12327,1.61004c1.14314,0.37706 3.23308,0.81642 3.23308,0.81642c0,0 1.66862,-2.8179 2.59191,-4.65189c1.33619,-2.65416 4.65488,-9.74289 4.65488,-9.74289c0,0 0.86879,21.30325 1.04939,25.87529c0.39952,10.11458 0.2484,11.47332 -0.39524,12.26185c-0.70542,0.86421 -7.82717,2.19121 -14.83966,2.72674z" fill="#e987d7" stroke-width="0"/><path d="M254.21326,324.97548c-7.12077,0.54381 -14.45542,0.32247 -15.70054,-0.75193c-1.52555,-1.31639 0,-96.43664 0,-96.43664h27.63161c0,0 0.92525,22.97176 1.30086,36.57334c0.26592,9.62908 1.49219,32.69525 2.00297,45.62665c0.39952,10.11458 0.2484,11.47332 -0.39524,12.26185c-0.70542,0.86421 -7.82717,2.19121 -14.83966,2.72674z" fill="none" stroke-width="2.5"/></g><g stroke="#000000" stroke-linecap="butt"><path d="M204.92248,321.93539c-0.64364,-0.78852 -0.79476,-2.14726 -0.39524,-12.26184c0.51078,-12.9314 1.73706,-35.99757 2.00298,-45.62665c0.37562,-13.60158 1.30086,-36.57334 1.30086,-36.57334h27.63161c0,0 1.52555,95.12026 0,96.43665c-1.24511,1.07441 -8.57977,1.29573 -15.70054,0.75192c-7.01249,-0.53553 -14.13425,-1.86253 -14.83966,-2.72674z" fill="#e35fcb" stroke-width="0"/><path d="M207.83108,227.47355h27.63161l0.2691,31.485c0,0 -9.71777,-1.38957 -15.2567,-4.46595c-5.53894,-3.07638 -13.31282,-9.52178 -13.31282,-9.52178c0,0 0.10657,-2.90235 0.15805,-4.27943c0.2788,-7.45856 0.51076,-13.21785 0.51076,-13.21785z" fill="#ca55b5" stroke-width="0"/><path d="M204.92248,321.93539c-0.64364,-0.78852 -0.79476,-2.14726 -0.39524,-12.26184c0.1806,-4.57204 1.04937,-25.87529 1.04937,-25.87529c0,0 3.01964,5.58995 4.44529,8.02731c1.19238,2.03855 3.53448,5.61532 3.53448,5.61532c0,0 2.76967,-1.36608 3.92761,-1.99388c1.03634,-0.56187 2.69576,-1.5971 2.69576,-1.5971c0,0 2.87025,2.65531 4.26412,3.84149c1.20262,1.02342 3.61035,2.85963 3.61035,2.85963c0,0 2.30986,-1.00215 3.50005,-1.5812c1.45065,-0.70576 4.57812,-2.34896 4.57812,-2.34896c0,0 -0.22487,26.90548 -0.66972,27.28934c-1.24511,1.07441 -8.57977,1.29574 -15.70054,0.75193c-7.01249,-0.53553 -14.13425,-1.86253 -14.83966,-2.72674z" fill="#e987d7" stroke-width="0"/><path d="M204.92248,321.93539c-0.64364,-0.78852 -0.79476,-2.14726 -0.39524,-12.26184c0.51078,-12.9314 1.73706,-35.99757 2.00298,-45.62665c0.37562,-13.60158 1.30086,-36.57334 1.30086,-36.57334h27.63161c0,0 1.52555,95.12026 0,96.43665c-1.24511,1.07441 -8.57977,1.29573 -15.70054,0.75192c-7.01249,-0.53553 -14.13425,-1.86253 -14.83966,-2.72674z" fill="none" stroke-width="2.5"/></g><g stroke="#000000" stroke-linecap="butt"><path d="M273.89633,202.96968c0,28.94338 -16.75076,49.11653 -37.41387,49.11653c-20.66311,0 -36.49686,-19.23312 -37.41387,-48.1765c-0.91651,-28.92812 16.75076,-56.63677 37.41387,-56.63677c20.66311,0 37.41387,26.75336 37.41387,55.69674z" fill="#ca55b5" stroke-width="0"/><path d="M267.93583,194.72756c0,24.66028 -13.97149,41.84817 -31.20618,41.84817c-17.23469,0 -30.44133,-16.38697 -31.20619,-41.04725c-0.21879,-7.05428 3.76498,-20.37838 3.76498,-20.37838c0,0 16.28192,6.59069 27.44119,6.43391c11.15928,-0.15678 27.05968,-7.22537 27.05968,-7.22537c0,0 4.14651,13.25672 4.14651,20.36892z" fill="#e35fcb" stroke-width="0"/><path d="M273.89633,202.96968c0,28.94338 -16.75076,49.11653 -37.41387,49.11653c-20.66311,0 -36.49686,-19.23312 -37.41387,-48.1765c-0.91651,-28.92812 16.75076,-56.63677 37.41387,-56.63677c20.66311,0 37.41387,26.75336 37.41387,55.69674z" fill="none" stroke-width="2.5"/></g><g data-paper-data="{&quot;index&quot;:null}" stroke="#000000" stroke-linecap="butt"><path d="M293.04876,35.61028c0,0 2.62536,40.5167 -2.39543,50.75753c-5.16205,10.52896 -45.81712,-14.07303 -39.94514,-22.66232c7.75537,-11.34421 42.34057,-28.09521 42.34057,-28.09521z" fill="#e35fcb" stroke-width="0"/><path d="M250.70819,63.70549c0.87122,-1.27436 2.081,-2.61696 3.54229,-3.99637c0.85785,-0.80979 2.81598,-2.46107 2.81598,-2.46107c0,0 9.6053,8.31999 16.7573,11.3143c7.152,2.99431 19.45882,3.84821 19.45882,3.84821c0,0 -0.1727,2.16728 -0.27905,3.20014c-0.47224,4.58643 -1.21619,8.44406 -2.35022,10.75712c-5.16204,10.52896 -45.81711,-14.07303 -39.94513,-22.66232z" fill="#ca55b5" stroke-width="0"/><path d="M284.20199,50.12549c0,0 1.81161,27.95835 -1.65296,35.02498c-3.56205,7.26546 -31.61587,-9.71102 -27.56394,-15.63802c5.35155,-7.82801 29.2169,-19.38696 29.2169,-19.38696z" fill="#e987d7" stroke-width="0"/><path d="M293.04875,35.61028c0,0 2.62536,40.5167 -2.39543,50.75753c-5.16205,10.52896 -45.81712,-14.07303 -39.94514,-22.66232c7.75537,-11.34421 42.34057,-28.09521 42.34057,-28.09521z" fill="none" stroke-width="2.5"/></g><g stroke="#000000" stroke-linecap="butt"><path d="M223.82311,64.03883c5.87199,8.58929 -34.78309,33.19127 -39.94514,22.66231c-5.02079,-10.24083 -2.39543,-50.75752 -2.39543,-50.75752c0,0 34.5852,16.751 42.34057,28.09521z" fill="#e35fcb" stroke-width="0"/><path d="M223.82311,64.03883c5.87199,8.58929 -34.78309,33.19127 -39.94513,22.66231c-1.13403,-2.31306 -1.87799,-6.17068 -2.35022,-10.75712c-0.10635,-1.03286 -0.27905,-3.20013 -0.27905,-3.20013c0,0 12.30682,-0.85391 19.45882,-3.84821c7.152,-2.99431 16.7573,-11.31429 16.7573,-11.31429c0,0 1.95813,1.65128 2.81598,2.46107c1.4613,1.37941 2.67108,2.72201 3.54229,3.99637z" fill="#ca55b5" stroke-width="0"/><path d="M219.54621,69.84578c4.05193,5.927 -24.00189,22.90347 -27.56394,15.63802c-3.46457,-7.06663 -1.65295,-35.02497 -1.65295,-35.02497c0,0 23.86534,11.55894 29.2169,19.38696z" fill="#e987d7" stroke-width="0"/><path d="M223.82312,64.03883c5.87199,8.58929 -34.78309,33.19127 -39.94514,22.66231c-5.02079,-10.24083 -2.39543,-50.75752 -2.39543,-50.75752c0,0 34.5852,16.751 42.34057,28.09521z" fill="none" stroke-width="2.5"/></g><g stroke-linecap="butt"><g><g stroke="#000000"><path d="M294.2105,115.66118c0,31.40942 -25.56758,56.87178 -57.10679,56.87178c-31.53921,0 -57.10678,-25.46236 -57.10678,-56.87178c0,-31.40942 25.56758,-56.87177 57.10679,-56.87177c31.53921,0 57.10679,25.46236 57.10679,56.87178z" fill="#ca55b5" stroke-width="0"/><path d="M289.04034,109.78599c0,27.38589 -23.3489,49.58655 -52.15125,49.58655c-28.80233,0 -52.15124,-22.20066 -52.15124,-49.58655c0,-27.3859 23.3489,-49.58655 52.15124,-49.58655c28.80233,0 52.15125,22.20065 52.15125,49.58655z" fill="#e35fcb" stroke-width="0"/><path d="M294.2105,115.66118c0,31.40942 -25.56758,56.87178 -57.10679,56.87178c-31.53921,0 -57.10678,-25.46236 -57.10678,-56.87178c0,-31.40942 25.56758,-56.87177 57.10679,-56.87177c31.53921,0 57.10679,25.46236 57.10679,56.87178z" fill="none" stroke-width="2.5"/></g><path d="M210.46393,130.73613c2.73739,5.86582 1.06945,12.87733 -3.72544,15.66065c-4.79489,2.78332 -10.90101,0.28448 -13.63841,-5.58134c-2.73739,-5.86582 -1.06946,-12.87733 3.72543,-15.66065c4.79489,-2.78332 10.90102,-0.28448 13.63842,5.58134z" fill="#a74695" stroke="none" stroke-width="0"/><path d="M278.41572,125.62481c4.79489,2.78332 6.46283,9.79485 3.72543,15.66066c-2.73739,5.86582 -8.84351,8.36466 -13.6384,5.58134c-4.79489,-2.78332 -6.46283,-9.79484 -3.72543,-15.66065c2.73739,-5.86582 8.84351,-8.36467 13.6384,-5.58134z" data-paper-data="{&quot;index&quot;:null}" fill="#a74695" stroke="none" stroke-width="0"/></g><path d="M229.96942,115.52762c-2.39429,11.08591 -12.25227,18.36292 -22.01844,16.25366c-9.76615,-2.10925 -15.74223,-12.80605 -13.34795,-23.89195c2.39429,-11.0859 12.25227,-18.36292 22.01844,-16.25366c9.76615,2.10926 15.74223,12.80605 13.34795,23.89195z" fill="#ffffff" stroke="#000000" stroke-width="2.5"/><g stroke="none"><g><path d="M206.52063,111.71248c0,-4.49942 3.6475,-8.14693 8.14692,-8.14693c4.49942,0 8.14693,3.64751 8.14693,8.14693c0,4.49942 -3.64751,8.14692 -8.14693,8.14692c-4.49942,0 -8.14692,-3.6475 -8.14692,-8.14692z" fill="url(#color-1)" stroke-width="0.5"/><path d="M215.97475,119.72152l-0.76008,-3.95233l1.8663,-0.62826l2.06359,3.34009c0,0 -0.84777,0.63232 -1.53736,0.84304c-0.67499,0.20626 -1.63244,0.39748 -1.63244,0.39748z" fill="#a9629b" stroke-width="0"/><path d="M220.25675,117.61917l-2.59819,-2.93979l1.01418,-0.95403l2.92407,2.18928c0,0 -0.34263,0.59353 -0.61266,0.937c-0.27003,0.34347 -0.72741,0.76753 -0.72741,0.76753z" fill="#a9629b" stroke-width="0"/></g><path d="M209.94233,111.71248c0,-2.60967 2.11555,-4.72522 4.72522,-4.72522c2.60967,0 4.72522,2.11555 4.72522,4.72522c0,2.60967 -2.11555,4.72521 -4.72522,4.72521c-2.60967,0 -4.72522,-2.11554 -4.72522,-4.72521z" fill="#000000" stroke-width="0.5"/><path d="M213.64926,110.06006c-1.20529,1.17977 -3.01243,1.28813 -4.03639,0.24203c-1.02396,-1.04609 -0.87694,-2.85051 0.32834,-4.03028c1.20529,-1.17977 3.01244,-1.28813 4.03639,-0.24203c1.02396,1.04609 0.87694,2.85051 -0.32835,4.03028z" fill="#ffffff" stroke-width="0"/><path d="M210.1539,111.3319c0.24212,0.32627 0.21661,0.73883 -0.05696,0.92146c-0.27357,0.18263 -0.69161,0.06617 -0.93373,-0.2601c-0.24212,-0.32627 -0.21661,-0.73882 0.05696,-0.92145c0.27357,-0.18263 0.69161,-0.06618 0.93373,0.2601z" fill="#ffffff" stroke-width="0"/></g><path d="M258.00754,91.47899c9.76617,-2.10926 19.62415,5.16776 22.01844,16.25366c2.39429,11.0859 -3.58179,21.7827 -13.34795,23.89195c-9.76617,2.10925 -19.62415,-5.16776 -22.01844,-16.25366c-2.39428,-11.0859 3.58179,-21.7827 13.34795,-23.89195z" data-paper-data="{&quot;index&quot;:null}" fill="#ffffff" stroke="#000000" stroke-width="2.5"/><g stroke="none"><g><path d="M251.79871,111.39914c0,-4.49942 3.64751,-8.14692 8.14693,-8.14692c4.49942,0 8.14692,3.6475 8.14692,8.14692c0,4.49942 -3.6475,8.14691 -8.14692,8.14691c-4.49942,0 -8.14693,-3.6475 -8.14693,-8.14691z" fill="url(#color-2)" stroke-width="0.5"/><path d="M261.25283,119.40817l-0.76009,-3.95235l1.86631,-0.62826l2.06359,3.34009c0,0 -0.84778,0.63232 -1.53737,0.84304c-0.67499,0.20626 -1.63245,0.39748 -1.63245,0.39748z" fill="#a9629b" stroke-width="0"/><path d="M265.53482,117.30583l-2.59819,-2.93979l1.01418,-0.95401l2.92406,2.18928c0,0 -0.34262,0.59352 -0.61266,0.93699c-0.27004,0.34347 -0.7274,0.76753 -0.7274,0.76753z" fill="#a9629b" stroke-width="0"/></g><path d="M255.22042,111.39914c0,-2.60967 2.11556,-4.72522 4.72522,-4.72522c2.60967,0 4.7252,2.11555 4.7252,4.72522c0,2.60967 -2.11555,4.72521 -4.7252,4.72521c-2.60967,0 -4.72522,-2.11554 -4.72522,-4.72521z" fill="#000000" stroke-width="0.5"/><path d="M258.92735,109.74672c-1.20529,1.17977 -3.01243,1.28813 -4.03638,0.24203c-1.02396,-1.0461 -0.87694,-2.85052 0.32834,-4.03028c1.20529,-1.17977 3.01244,-1.28813 4.03638,-0.24203c1.02395,1.0461 0.87694,2.85052 -0.32835,4.03028z" fill="#ffffff" stroke-width="0"/><path d="M255.43197,111.01856c0.24212,0.32627 0.2166,0.73882 -0.05697,0.92145c-0.27357,0.18263 -0.69162,0.06618 -0.93372,-0.2601c-0.2421,-0.32627 -0.2166,-0.73882 0.05696,-0.92145c0.27357,-0.18263 0.69162,-0.06618 0.93372,0.2601z" fill="#ffffff" stroke-width="0"/></g></g><path d="M218.40587,78.36427c0.27622,0.85389 -1.10016,1.85653 -3.07423,2.23944c-1.97407,0.38291 -6.32138,0.49052 -6.5976,-0.36337c-0.27622,-0.85389 3.62326,-2.34594 5.59733,-2.72885c1.97407,-0.38291 3.79829,-0.00111 4.07451,0.85278z" fill="#000000" stroke="none" stroke-width="0" stroke-linecap="butt"/><path d="M259.518,77.19815c1.97407,0.38292 5.87354,1.87495 5.59732,2.72885c-0.27622,0.85389 -4.62354,0.74629 -6.5976,0.36338c-1.97407,-0.38292 -3.35046,-1.38555 -3.07423,-2.23944c0.27622,-0.85389 2.10045,-1.2357 4.07452,-0.85278z" data-paper-data="{&quot;index&quot;:null}" fill="#000000" stroke="none" stroke-width="0" stroke-linecap="butt"/><path d="M248.83811,143.68013c0,0 -3.05683,1.84335 -5.24879,2.12863c-2.19196,0.28528 -5.91821,-0.67525 -5.91821,-0.67525c0,0 -3.63496,0.94273 -5.95528,0.65467c-2.32031,-0.28806 -5.75176,-2.10805 -5.75176,-2.10805" fill="none" stroke="#000000" stroke-width="2.5" stroke-linecap="round"/><g stroke-width="0" stroke-linecap="butt"><g stroke="#000000"><path d="M177.85428,125.34826l-0.56272,-37.81957l7.73645,-3.25212l103.90448,-0.32521l6.92145,3.25212l-0.87554,38.17437l-2.86339,11.97013c0,0 -12.95469,-2.41569 -39.37915,-3.38009c-1.64514,-0.79787 -3.39095,-1.42068 -5.21322,-1.84422c-1.28103,-0.34297 -2.60262,-0.58673 -3.95605,-0.72254c-1.65463,-0.34481 -3.36927,-0.52606 -5.12624,-0.52606c-0.10014,0 -0.20014,0.00059 -0.3,0.00176c-0.09986,-0.00117 -0.19986,-0.00176 -0.3,-0.00176c-0.03335,0 -0.06668,0.00007 -0.1,0.0002c-0.03332,-0.00013 -0.06665,-0.0002 -0.1,-0.0002c-0.13358,0 -0.26692,0.00105 -0.4,0.00314c-0.13308,-0.00209 -0.26642,-0.00314 -0.4,-0.00314c-0.16705,0 -0.33373,0.00164 -0.5,0.0049c-0.16627,-0.00326 -0.33295,-0.0049 -0.5,-0.0049c-1.58659,0 -3.13865,0.1478 -4.64318,0.43037c-3.37788,0.16542 -6.57959,1.00125 -9.47487,2.37725c-27.36346,0.56625 -39.33082,3.33727 -39.34292,3.34007z" fill="#372834"/><path d="M182.37937,137.02277c0,0 0,0 0.00001,0v0z" fill="#372834"/><path d="M182.37938,137.02277l-4.53289,-11.6988c0,0 36.27373,3.00931 59.29897,2.47941c22.75174,-0.52361 57.89018,-2.69228 57.89018,-2.69228l-2.92062,12.23688c0,0 -12.95469,-2.41569 -39.37916,-3.38009c-1.64514,-0.79787 -3.39095,-1.42068 -5.21322,-1.84422c-1.28103,-0.34297 -2.60262,-0.58673 -3.95605,-0.72254c-1.65463,-0.34481 -3.36927,-0.52606 -5.12624,-0.52606c-0.10014,0 -0.20014,0.00059 -0.3,0.00176c-0.09986,-0.00117 -0.19986,-0.00176 -0.3,-0.00176c-0.03335,0 -0.06668,0.00007 -0.1,0.0002c-0.03332,-0.00013 -0.06665,-0.0002 -0.1,-0.0002c-0.13358,0 -0.26692,0.00105 -0.4,0.00314c-0.13308,-0.00209 -0.26642,-0.00314 -0.4,-0.00314c-0.16705,0 -0.33373,0.00164 -0.5,0.0049c-0.16627,-0.00326 -0.33295,-0.0049 -0.5,-0.0049c-1.58659,0 -3.13865,0.1478 -4.64318,0.43037c-3.37788,0.16542 -6.57959,1.00125 -9.47487,2.37725c-27.3773,0.56654 -39.34292,3.34007 -39.34292,3.34007z" fill="#271d25"/><path d="M177.29156,87.5287l7.73645,-3.25212l103.90448,-0.32521l6.92145,3.25213c0,0 -36.05792,0.88707 -58.29958,0.94928c-22.24166,0.06221 -60.26281,-0.62407 -60.26281,-0.62407z" fill="#4f394a"/></g><path d="M187.09566,127.61616v-37h100v37z" fill="#020202" stroke="none"/><path d="M222.02381,127.61616l-26.79477,-37h53.3958l29.22014,37z" fill="url(#color-3)" stroke="none"/></g><path d="" data-paper-data="{&quot;index&quot;:null}" fill="#ca55b5" stroke="#000000" stroke-width="0" stroke-linecap="butt"/><path d="M255.7741,207.02851c0,12.88664 -8.58121,23.33333 -19.16667,23.33333c-10.58546,0 -19.16667,-10.44669 -19.16667,-23.33333c0,-12.88664 8.58121,-23.33333 19.16667,-23.33333c10.58546,0 19.16667,10.44669 19.16667,23.33333z" fill="#e987d7" stroke="none" stroke-width="0" stroke-linecap="butt"/><path d="M222.51502,134.5877c0,-2.67398 6.40233,-5.84167 14.3,-5.84167c7.89767,0 14.3,3.16769 14.3,5.84167" fill="#e35fcb" stroke="#000000" stroke-width="2.5" stroke-linecap="butt"/><path d="M240.37052,131.65271c0,0.66274 -1.38792,1.8 -3.1,1.8c-1.71208,0 -3.1,-1.13726 -3.1,-1.8c0,-0.66274 1.38792,-0.6 3.1,-0.6c1.71208,0 3.1,-0.06274 3.1,0.6z" fill="#000000" stroke="none" stroke-width="NaN" stroke-linecap="butt"/><path d="M213.30213,313.60186l-0.6,9" fill="none" stroke="#000000" stroke-width="2.5" stroke-linecap="round"/><path d="M223.50543,315.09511l0.24339,9.0135" fill="none" stroke="#000000" stroke-width="2.5" stroke-linecap="round"/><path d="M260.70213,314.35186l0.6,9" data-paper-data="{&quot;index&quot;:null}" fill="none" stroke="#000000" stroke-width="2.5" stroke-linecap="round"/><path d="M250.74882,315.59512l-0.24339,9.0135" data-paper-data="{&quot;index&quot;:null}" fill="none" stroke="#000000" stroke-width="2.5" stroke-linecap="round"/></g></g></svg>