<svg version="1.1" xmlns="http://www.w3.org/2000/svg" xmlns:xlink="http://www.w3.org/1999/xlink" width="129.23793" height="196.98125" viewBox="0,0,129.23793,196.98125"><defs><linearGradient x1="245.90421" y1="181.15487" x2="274.01354" y2="213.03143" gradientUnits="userSpaceOnUse" id="color-1"><stop offset="0" stop-color="#175f20"/><stop offset="1" stop-color="#249433"/></linearGradient><linearGradient x1="237.12568" y1="180.15487" x2="209.01635" y2="212.03143" gradientUnits="userSpaceOnUse" id="color-2"><stop offset="0" stop-color="#175f20"/><stop offset="1" stop-color="#249433"/></linearGradient><linearGradient x1="269.06122" y1="165.30259" x2="222.46005" y2="303.66562" gradientUnits="userSpaceOnUse" id="color-3"><stop offset="0" stop-color="#175f20"/><stop offset="1" stop-color="#249433"/></linearGradient><radialGradient cx="250.86382" cy="208.28924" r="23.17144" gradientUnits="userSpaceOnUse" id="color-4"><stop offset="0" stop-color="#30c735"/><stop offset="1" stop-color="#37e63d"/></radialGradient><radialGradient cx="233.20401" cy="145.20789" r="23.17144" gradientUnits="userSpaceOnUse" id="color-5"><stop offset="0" stop-color="#c7306a"/><stop offset="1" stop-color="#e6377a"/></radialGradient><radialGradient cx="210.48953" cy="185.21167" r="23.14748" gradientUnits="userSpaceOnUse" id="color-6"><stop offset="0" stop-color="#8430c7"/><stop offset="1" stop-color="#9837e6"/></radialGradient><radialGradient cx="272.42978" cy="167.26301" r="23.14748" gradientUnits="userSpaceOnUse" id="color-7"><stop offset="0" stop-color="#c78530"/><stop offset="1" stop-color="#e69437"/></radialGradient><radialGradient cx="226.81977" cy="205.26708" r="24.05317" gradientUnits="userSpaceOnUse" id="color-8"><stop offset="0" stop-color="#303cc7"/><stop offset="1" stop-color="#373ce6"/></radialGradient><radialGradient cx="257.39178" cy="146.93792" r="24.05317" gradientUnits="userSpaceOnUse" id="color-9"><stop offset="0" stop-color="#c73030"/><stop offset="1" stop-color="#e63737"/></radialGradient><radialGradient cx="269.19695" cy="192.72011" r="24.0522" gradientUnits="userSpaceOnUse" id="color-10"><stop offset="0" stop-color="#c6c730"/><stop offset="1" stop-color="#dae637"/></radialGradient><radialGradient cx="213.31638" cy="160.48802" r="24.05221" gradientUnits="userSpaceOnUse" id="color-11"><stop offset="0" stop-color="#c7309d"/><stop offset="1" stop-color="#e637b5"/></radialGradient><radialGradient cx="225.2311" cy="169.17095" r="8.625" gradientUnits="userSpaceOnUse" id="color-12"><stop offset="0" stop-color="#92868b"/><stop offset="1" stop-color="#92868b" stop-opacity="0"/></radialGradient><radialGradient cx="256.82557" cy="186.94494" r="8.625" gradientUnits="userSpaceOnUse" id="color-13"><stop offset="0" stop-color="#92868b"/><stop offset="1" stop-color="#92868b" stop-opacity="0"/></radialGradient></defs><g transform="translate(-177.38103,-110.87235)"><g data-paper-data="{&quot;isPaintingLayer&quot;:true}" fill-rule="nonzero" stroke-linejoin="miter" stroke-miterlimit="10" stroke-dasharray="" stroke-dashoffset="0" style="mix-blend-mode: normal"><path d="M245.90421,181.15487c6.10995,-5.38787 17.35553,-2.61979 25.11771,6.18268c7.76218,8.80247 9.93628,33.56927 9.93628,33.56927c0,0 -24.30019,-5.25561 -32.06237,-14.05808c-7.76218,-8.80247 -9.10157,-20.306 -2.99162,-25.69387z" data-paper-data="{&quot;index&quot;:null}" fill="url(#color-1)" stroke="#000000" stroke-width="2.5" stroke-linecap="butt"/><path d="M234.13406,205.84874c-7.76218,8.80247 -32.06237,14.05808 -32.06237,14.05808c0,0 2.1741,-24.76679 9.93628,-33.56926c7.76218,-8.80247 19.00776,-11.57055 25.11771,-6.18268c6.10995,5.38787 4.77056,16.8914 -2.99162,25.69387z" fill="url(#color-2)" stroke="#000000" stroke-width="2.5" stroke-linecap="butt"/><path d="M214.16775,300.87274c0,0 42.00518,-30.72808 49.33191,-52.4818c8.12441,-24.1221 -48.69701,-49.65828 -48.69701,-49.65828l30.22082,-6.70464c0,0 40.73175,38.8452 32.52704,63.20569c-7.19644,21.36687 -46.79816,51.22479 -46.79816,51.22479z" fill="url(#color-3)" stroke="#000000" stroke-width="2.5" stroke-linecap="butt"/><g><g fill="none" stroke="#000000" stroke-width="5" stroke-linecap="butt"><path d="M271.69249,204.67399c1.24866,2.08095 2.21165,4.31116 2.81269,6.61176c3.14844,12.05129 -4.06875,24.37311 -16.12004,27.52155c-12.05129,3.14844 -24.37312,-4.06874 -27.52155,-16.12003c-0.77891,-2.98144 -0.96981,-6.15707 -0.63349,-9.29602"/><path d="M212.26734,147.43852c-1.22918,-2.06175 -2.17796,-4.26875 -2.77254,-6.54462c-3.14844,-12.05129 4.06876,-24.37311 16.12004,-27.52155c10.91301,-2.85106 22.04788,2.79785 26.39186,12.83924"/><path d="M215.35279,206.13465c-2.28478,1.61076 -4.79463,2.8666 -7.41383,3.64771c-11.93629,3.55968 -24.49825,-3.2309 -28.05793,-15.16719c-3.55968,-11.93629 3.2309,-24.49825 15.16718,-28.05794c2.42544,-0.72332 4.99541,-1.05469 7.5809,-1.02337"/><path d="M272.87087,143.60374c1.03914,-0.47792 2.10527,-0.8829 3.19015,-1.20645c11.93629,-3.55968 24.49825,3.2309 28.05794,15.16718c3.55968,11.9363 -3.23089,24.49826 -15.16718,28.05794c-1.83226,0.54643 -3.747,0.86916 -5.68861,0.98083"/><path d="M243.97968,216.32264c-0.50857,2.7056 -1.41418,5.31574 -2.71798,7.67121c-6.03212,10.8977 -19.75645,14.84203 -30.65415,8.8099c-10.8977,-6.03212 -14.84204,-19.75645 -8.80992,-30.65415c1.25688,-2.27069 2.9108,-4.35345 4.84031,-6.17344"/><path d="M243.84954,126.38071c6.48512,-9.51207 19.26991,-12.69114 29.54287,-7.00482c10.8977,6.03212 14.84204,19.75644 8.80992,30.65415c-0.35601,0.64316 -0.74387,1.27126 -1.16083,1.88257"/><path d="M285.75503,176.01883c1.43704,0.51336 2.81946,1.14977 4.11941,1.90882c10.75634,6.28072 14.38456,20.09198 8.10385,30.84832c-6.28072,10.75634 -20.09198,14.38456 -30.84832,8.10385c-1.75333,-1.02378 -3.38611,-2.28786 -4.86384,-3.73326"/><path d="M201.07086,176.99675c-2.45523,-0.5832 -4.81137,-1.49876 -6.94531,-2.74479c-10.75634,-6.28072 -14.38456,-20.09198 -8.10384,-30.84832c6.28072,-10.75634 20.09197,-14.38457 30.84831,-8.10386c1.56885,0.91607 3.04117,2.02451 4.39226,3.2831"/></g><g stroke="none" stroke-width="0.5" stroke-linecap="butt"><path d="M230.86359,222.68727c-3.14844,-12.05129 3.31044,-27.27569 15.36174,-30.42413c12.05129,-3.14844 25.13142,6.97132 28.27986,19.02262c3.14844,12.05129 -4.06875,24.37311 -16.12004,27.52155c-12.05129,3.14844 -24.37312,-4.06874 -27.52155,-16.12003z" fill="url(#color-4)"/><path d="M209.4948,140.8939c-3.14844,-12.05129 4.06875,-24.37311 16.12004,-27.52155c12.05129,-3.14844 24.37312,4.06874 27.52155,16.12003c3.14844,12.05129 -3.31044,27.27569 -15.36174,30.42413c-12.05129,3.14844 -25.13142,-6.97132 -28.27986,-19.02262z" fill="url(#color-5)"/></g><g data-paper-data="{&quot;index&quot;:null}" stroke="none" stroke-width="0.5" stroke-linecap="butt"><path d="M179.88101,194.61516c-3.55968,-11.93629 3.2309,-24.49825 15.16718,-28.05794c11.93629,-3.55968 27.37313,2.37354 30.93281,14.30983c3.55968,11.93629 -6.10578,25.35561 -18.04206,28.9153c-11.93629,3.55968 -24.49825,-3.2309 -28.05793,-15.16719z" fill="url(#color-6)"/><path d="M258.01896,171.31257c-3.55968,-11.93629 6.10578,-25.35561 18.04206,-28.9153c11.93629,-3.55968 24.49825,3.2309 28.05793,15.16719c3.55968,11.93629 -3.2309,24.49825 -15.16718,28.05794c-11.93629,3.55968 -27.37313,-2.37354 -30.93281,-14.30983z" fill="url(#color-7)"/></g><g stroke="none" stroke-width="0.5" stroke-linecap="butt"><path d="M201.79766,202.14959c6.03212,-10.8977 21.2093,-17.46676 32.10699,-11.43464c10.8977,6.03212 13.38918,22.38118 7.35706,33.27888c-6.03212,10.8977 -19.75645,14.84203 -30.65414,8.80991c-10.8977,-6.03212 -14.84203,-19.75645 -8.80991,-30.65414z" fill="url(#color-8)"/><path d="M242.73827,128.18581c6.03212,-10.8977 19.75645,-14.84203 30.65414,-8.80991c10.8977,6.03212 14.84203,19.75645 8.80991,30.65414c-6.03212,10.8977 -21.2093,17.46676 -32.10699,11.43464c-10.8977,-6.03212 -13.38918,-22.38118 -7.35706,-33.27888z" fill="url(#color-9)"/></g><g stroke="none" stroke-width="0.5" stroke-linecap="butt"><path d="M267.12997,216.87982c-10.75634,-6.28072 -16.97525,-21.60471 -10.69454,-32.36105c6.28072,-10.75634 22.68267,-12.87184 33.43901,-6.59112c10.75634,6.28072 14.38456,20.09198 8.10384,30.84832c-6.28072,10.75634 -20.09197,14.38457 -30.84832,8.10384z" fill="url(#color-10)"/><path d="M194.12553,174.25199c-10.75634,-6.28072 -14.38456,-20.09198 -8.10384,-30.84832c6.28072,-10.75634 20.09197,-14.38457 30.84832,-8.10384c10.75634,6.28072 16.97525,21.60471 10.69454,32.36105c-6.28072,10.75634 -22.68267,12.87184 -33.43901,6.59112z" fill="url(#color-11)"/></g><path d="M215.53393,161.44024c8.09073,-14.6168 26.49883,-19.90724 41.11563,-11.81651c14.6168,8.09073 19.90724,26.49883 11.81651,41.11563c-8.09073,14.6168 -26.49883,19.90724 -41.11563,11.81651c-14.6168,-8.09073 -19.90724,-26.49883 -11.81651,-41.11563z" fill="#c7b8be" stroke="none" stroke-width="0.5" stroke-linecap="butt"/><path d="M224.12655,159.33861c5.95103,-10.75121 20.07844,-14.31728 31.55444,-7.96506c11.476,6.35222 15.95488,20.21729 10.00385,30.9685c-5.95103,10.75121 -20.07844,14.31728 -31.55444,7.96506c-11.476,-6.35222 -15.95488,-20.21729 -10.00385,-30.9685z" fill="#e0ced5" stroke="none" stroke-width="0.5" stroke-linecap="butt"/><path d="M233.65534,162.66096c1.33943,-2.02149 3.60225,-2.91745 5.05417,-2.00117c1.45192,0.91628 1.54311,3.29781 0.20368,5.3193c-1.33943,2.02149 -3.60225,2.91745 -5.05417,2.00117c-1.45192,-0.91628 -1.54311,-3.29781 -0.20368,-5.3193z" fill="#000000" stroke="none" stroke-width="0.5" stroke-linecap="butt"/><path d="M253.12029,178.93124c-1.53991,-0.75914 -1.95841,-3.15664 -0.93474,-5.35495c1.02367,-2.19832 3.10186,-3.365 4.64176,-2.60586c1.53991,0.75914 1.95841,3.15664 0.93474,5.35495c-1.02367,2.19832 -3.10186,3.365 -4.64176,2.60586z" data-paper-data="{&quot;index&quot;:null}" fill="#000000" stroke="none" stroke-width="0.5" stroke-linecap="butt"/><path d="M217.68499,164.99401c2.30686,-4.1676 7.55546,-5.67603 11.72305,-3.36917c4.1676,2.30686 5.67603,7.55546 3.36917,11.72305c-2.30686,4.1676 -7.55546,5.67603 -11.72305,3.36917c-4.1676,-2.30686 -5.67603,-7.55546 -3.36917,-11.72305z" fill="url(#color-12)" stroke="none" stroke-width="0.5" stroke-linecap="butt"/><path d="M249.27946,182.768c2.30686,-4.1676 7.55546,-5.67603 11.72305,-3.36917c4.16761,2.30686 5.67603,7.55546 3.36917,11.72305c-2.30686,4.1676 -7.55545,5.67603 -11.72305,3.36917c-4.1676,-2.30686 -5.67603,-7.55546 -3.36917,-11.72305z" fill="url(#color-13)" stroke="none" stroke-width="0.5" stroke-linecap="butt"/><path d="M278.92015,197.76262c0,0 -38.11989,-13.87499 -44.36464,-17.3316c-6.24475,-3.45661 -21.91808,-29.07264 -21.91808,-29.07264" fill="#000000" stroke="#000000" stroke-width="2.5" stroke-linecap="round"/></g></g></g></svg>