<svg version="1.1" xmlns="http://www.w3.org/2000/svg" xmlns:xlink="http://www.w3.org/1999/xlink" width="45.43376" height="110.73517" viewBox="0,0,45.43376,110.73517"><g transform="translate(-217.29692,-124.63575)"><g data-paper-data="{&quot;isPaintingLayer&quot;:true}" fill-rule="nonzero" stroke="#ff0000" stroke-linejoin="miter" stroke-miterlimit="10" stroke-dasharray="" stroke-dashoffset="0" style="mix-blend-mode: normal"><g data-paper-data="{&quot;index&quot;:null}" fill="#000000" stroke-linecap="butt"><path d="M229.10301,158.74458c-1.0955,1.10633 -3.60841,1.16938 -6.45362,0.03796c-2.84522,-1.13142 -4.49797,-6.99854 -4.02097,-7.16183c0.8754,-0.29968 4.84704,0.96074 7.69226,2.09216c2.84521,1.13142 3.85458,3.94885 2.78233,5.0317z" stroke-width="0"/><path d="M226.85394,158.89814c-0.6888,0.73513 -2.41844,0.62886 -4.44953,-0.36272c-2.03109,-0.99158 -3.52595,-5.34135 -3.20678,-5.43079c0.58575,-0.16414 3.40167,0.98899 5.43276,1.98057c2.03109,0.99158 2.89773,3.09341 2.22355,3.81294z" stroke-width="0"/><path d="M229.10301,158.74458c-1.0955,1.10633 -3.60841,1.16938 -6.45362,0.03796c-2.84522,-1.13142 -4.49797,-6.99854 -4.02097,-7.16183c0.87539,-0.29968 4.84704,0.96075 7.69226,2.09216c2.84521,1.13142 3.85459,3.94885 2.78233,5.0317z" stroke-width="2.5"/></g><g data-paper-data="{&quot;index&quot;:null}" fill="#000000" stroke-linecap="butt"><path d="M253.44575,154.03605c2.84521,-1.13142 6.81686,-2.39184 7.69226,-2.09216c0.477,0.16329 -1.17575,6.03041 -4.02097,7.16183c-2.84521,1.13142 -5.35812,1.06836 -6.45362,-0.03797c-1.07225,-1.08285 -0.06288,-3.90028 2.78233,-5.0317z" stroke-width="0"/><path d="M255.13603,155.40838c2.03109,-0.99158 4.84701,-2.14471 5.43276,-1.98057c0.31917,0.08944 -1.17569,4.43921 -3.20678,5.43078c-2.03109,0.99158 -3.76073,1.09785 -4.44953,0.36272c-0.67419,-0.71953 0.19246,-2.82136 2.22354,-3.81294z" stroke-width="0"/><path d="M253.44575,154.03605c2.84521,-1.13142 6.81686,-2.39184 7.69226,-2.09216c0.477,0.16329 -1.17575,6.03041 -4.02097,7.16183c-2.84521,1.13142 -5.35812,1.06836 -6.45362,-0.03797c-1.07225,-1.08285 -0.06288,-3.90028 2.78233,-5.0317z" stroke-width="2.5"/></g><g data-paper-data="{&quot;index&quot;:null}" stroke-width="2.5" stroke-linecap="butt"><path d="M255.46772,133.08576c0,0 0.01892,0.02898 0.03398,0.0729c1.62576,1.54482 2.53358,3.50351 3.04899,5.54445c0,0 0.01016,0.04027 0.00682,0.09367c0.03898,0.05559 0.07773,0.11176 0.11626,0.16854c0.16449,-0.07989 0.3314,-0.16313 0.50297,-0.25029l0.09737,-0.04947c0,0 0.2804,-0.14245 0.45237,0.12089c0.17196,0.26334 -0.10844,0.40579 -0.10844,0.40579l-0.09736,0.04946c-0.22612,0.11487 -0.44589,0.22369 -0.66344,0.32744c-0.01166,0.08598 -0.06339,0.23002 -0.27791,0.24421c0.0351,0.11014 -0.01437,0.2139 -0.01437,0.2139c-1.15196,2.39636 -3.87608,2.50645 -6.36053,2.90838c-0.16923,0.01415 -0.36383,0.00975 -0.5664,-0.01128c-0.06187,0.01143 -0.12308,0.02204 -0.18358,0.03183l0.00012,0.01794c0,0 -0.2804,0.14245 -0.45236,-0.12089c-0.01208,-0.01851 -0.02193,-0.03642 -0.0298,-0.05373c-0.931,-0.25632 -1.62362,-0.83019 -0.30503,-1.52734c1.07044,-0.56594 2.42393,-0.23444 3.56537,-0.58895c0.09703,-0.03014 0.19405,-0.0621 0.29105,-0.09543c-1.04216,-0.98227 -2.55291,-1.37316 -3.35451,-2.66248c-0.01652,-1.07995 0.87623,-1.43319 1.87295,-0.69107c1.48922,1.10883 2.16271,2.42941 4.15141,2.15564c0.20077,-0.2266 0.37156,-0.46125 0.50505,-0.7023c-1.2532,-1.5856 -2.85016,-2.6887 -4.16431,-4.27121c-0.01047,-0.0126 -0.02082,-0.02522 -0.03103,-0.03784c-0.48127,-0.42513 -0.94238,-0.86214 -1.33708,-1.33718c-0.40854,-0.46838 -1.26989,-1.30225 -1.35843,-1.91483c-0.13033,-0.90168 0.93149,-1.13568 1.69958,-0.80085c1.12947,0.49236 2.32857,1.80678 2.96032,2.76011z" fill="#000000"/><path d="M259.64371,132.60222c1.40447,2.34098 2.62993,6.32259 1.19606,8.63259c-1.40898,3.47226 -3.64205,6.05013 -5.8693,9.04116c-1.75715,2.47768 -2.2255,4.57283 -2.97109,7.40928c0,0 -0.04559,0.17059 -0.21309,0.20952c-0.05441,0.04026 -0.13388,0.07422 -0.23753,0.05472l-0.31332,0.05633c-2.01969,-1.06092 -1.33911,-3.21854 -0.8749,-4.93566c0.52819,-1.11478 0.87687,-2.29448 1.33848,-3.42887c0.16368,-0.40223 0.55323,-0.72826 0.24718,-1.18873c-0.62864,-0.94583 -1.88557,-0.79561 -2.84381,-1.04737c-1.62351,-0.43645 -3.56853,0.18569 -5.02905,-0.83464c-2.25541,-1.57566 1.81258,-2.66796 2.98888,-2.57894c1.33585,-0.0607 3.18108,0.15961 4.49867,0.51172c1.06717,0.28519 1.98711,1.0587 2.84719,0.4419c-0.09966,-0.37159 0.39453,-0.4181 0.71399,-0.64388c2.66465,-2.10537 3.06564,-5.04067 2.56443,-8.14442c-0.26415,-1.02727 -0.32554,-2.09162 -0.66264,-3.09173c-0.35123,-0.56172 -0.71659,-1.11206 -1.17237,-1.64044c-0.6964,-1.38073 -2.29184,-3.10194 -2.46658,-4.628c-0.22212,-1.93989 2.15493,-0.25214 2.73474,0.22869c1.14439,1.75254 2.98914,3.52225 3.52406,5.57677z" fill="#ff0000"/></g><g stroke-width="2.5" stroke-linecap="butt"><path d="M224.53229,133.08574c0.63176,-0.95333 1.83085,-2.26776 2.96032,-2.76011c0.76809,-0.33483 1.82992,-0.10082 1.69958,0.80085c-0.08854,0.61258 -0.94989,1.44645 -1.35843,1.91483c-0.3947,0.47505 -0.85581,0.91205 -1.33708,1.33718c-0.01021,0.01263 -0.02056,0.02524 -0.03103,0.03785c-1.31415,1.58251 -2.91111,2.68561 -4.16431,4.27121c0.13349,0.24105 0.30427,0.47571 0.50504,0.7023c1.9887,0.27377 2.66218,-1.0468 4.15141,-2.15564c0.99671,-0.74212 1.88947,-0.38887 1.87295,0.69108c-0.80159,1.28932 -2.31235,1.68021 -3.35451,2.66248c0.097,0.03333 0.19402,0.06528 0.29105,0.09543c1.14143,0.35451 2.49493,0.02301 3.56537,0.58895c1.3186,0.69715 0.62597,1.27102 -0.30503,1.52734c-0.00787,0.01731 -0.01773,0.03522 -0.0298,0.05373c-0.17196,0.26334 -0.45236,0.12089 -0.45236,0.12089l0.00012,-0.01794c-0.0605,-0.00979 -0.12171,-0.02041 -0.18358,-0.03184c-0.20257,0.02103 -0.39717,0.02542 -0.5664,0.01128c-2.48445,-0.40193 -5.20857,-0.51201 -6.36053,-2.90838c0,0 -0.04947,-0.10376 -0.01437,-0.2139c-0.21453,-0.01418 -0.26625,-0.15822 -0.27791,-0.24421c-0.21755,-0.10375 -0.43732,-0.21257 -0.66344,-0.32744l-0.09736,-0.04946c0,0 -0.28041,-0.14245 -0.10844,-0.40579c0.17196,-0.26334 0.45236,-0.12089 0.45236,-0.12089l0.09737,0.04947c0.17157,0.08715 0.33848,0.17039 0.50297,0.25029c0.03853,-0.05678 0.07728,-0.11295 0.11626,-0.16854c-0.00335,-0.0534 0.00682,-0.09367 0.00682,-0.09367c0.51541,-2.04094 1.42323,-3.99963 3.04899,-5.54445c0.01505,-0.04392 0.03398,-0.0729 0.03398,-0.0729z" fill="#000000"/><path d="M223.88035,127.02547c0.57981,-0.48083 2.95686,-2.16858 2.73474,-0.22869c-0.17475,1.52606 -1.77018,3.24726 -2.46658,4.628c-0.45578,0.52838 -0.82115,1.07871 -1.17237,1.64044c-0.3371,1.00011 -0.39849,2.06447 -0.66264,3.09173c-0.50121,3.10375 -0.10023,6.03905 2.56443,8.14442c0.31946,0.22578 0.81364,0.27229 0.71399,0.64388c0.86008,0.61679 1.78002,-0.15671 2.84719,-0.4419c1.31759,-0.35211 3.16281,-0.57242 4.49867,-0.51172c1.1763,-0.08902 5.24429,1.00328 2.98888,2.57894c-1.46053,1.02033 -3.40554,0.3982 -5.02905,0.83464c-0.95824,0.25176 -2.21516,0.10154 -2.84381,1.04737c-0.30605,0.46047 0.0835,0.7865 0.24718,1.18874c0.46161,1.13438 0.81029,2.31408 1.33848,3.42887c0.46421,1.71712 1.14479,3.87474 -0.8749,4.93566l-0.31332,-0.05633c-0.10365,0.0195 -0.18312,-0.01446 -0.23753,-0.05472c-0.1675,-0.03893 -0.21309,-0.20952 -0.21309,-0.20952c-0.74559,-2.83645 -1.21393,-4.9316 -2.97108,-7.40928c-2.22724,-2.99102 -4.46032,-5.56889 -5.8693,-9.04116c-1.43387,-2.31 -0.20841,-6.29162 1.19606,-8.63259c0.53492,-2.05452 2.37966,-3.82423 3.52406,-5.57677z" fill="#ff0000"/></g><path d="M247.28724,183.40331c0.91312,-0.2389 1.61537,0.09616 2.5273,1.5327c1.86247,2.93388 5.19833,12.54594 5.87832,13.29898c0.68195,0.75521 1.69919,1.24952 2.94349,2.73859c1.31188,1.56995 1.99646,3.68148 1.42665,4.5284c-0.85624,1.27265 -2.73828,-0.41488 -2.73828,-0.41488c0,0 0.30463,2.74844 -1.09936,3.19709c-1.39476,0.44571 -2.80578,-1.57935 -2.80578,-1.57935c0,0 -0.62216,2.49169 -2.26683,1.98019c-1.4161,-0.44041 -0.97757,-4.02952 -0.97757,-4.02952c0,0 -2.05726,0.76417 -2.73466,-0.41655c-0.63717,-1.11061 1.25133,-2.93872 2.00086,-3.86093c0.61557,-0.75737 -3.19178,-11.17002 -3.33573,-14.03708c-0.08323,-1.65764 0.16031,-2.67044 1.18157,-2.93763z" data-paper-data="{&quot;index&quot;:null}" fill="#000000" stroke-width="2.5" stroke-linecap="butt"/><path d="M232.52046,186.01342c-0.07831,2.8696 -3.6464,13.36665 -3.01367,14.10973c0.77044,0.90482 2.70026,2.68924 2.08868,3.81413c-0.6502,1.19592 -2.72441,0.47902 -2.72441,0.47902c0,0 0.52054,3.57814 -0.88511,4.05083c-1.63253,0.54899 -2.31155,-1.92781 -2.31155,-1.92781c0,0 -1.36431,2.05682 -2.76891,1.64314c-1.41388,-0.41641 -1.17222,-3.1711 -1.17222,-3.1711c0,0 -1.84292,1.73016 -2.72807,0.47743c-0.58904,-0.83366 0.04705,-2.96031 1.32266,-4.55986c1.20991,-1.51716 2.21558,-2.0346 2.88006,-2.80522c0.66258,-0.76841 3.77762,-10.45427 5.57248,-13.43c0.87882,-1.45703 1.57322,-1.80807 2.49157,-1.59012c1.02711,0.24376 1.29376,1.25071 1.24848,2.90982z" data-paper-data="{&quot;index&quot;:null}" fill="#000000" stroke-width="2.5" stroke-linecap="butt"/><g data-paper-data="{&quot;index&quot;:null}" fill="#000000" stroke-linecap="butt"><path d="M245.12417,234.02181c-2.30125,0.17575 -4.67161,0.10421 -5.074,-0.243c-0.49302,-0.42542 0,-31.16578 0,-31.16578h8.92981c0,0 0.29902,7.42387 0.4204,11.81954c0.08594,3.11186 0.48224,10.56624 0.64731,14.74533c0.12911,3.26877 0.08028,3.70787 -0.12773,3.96271c-0.22797,0.27929 -2.52954,0.70814 -4.79579,0.88121z" stroke-width="0"/><path d="M249.14503,206.88468c0.01663,0.44503 0.05108,1.383 0.05108,1.383c0,0 -2.51231,2.08299 -4.30235,3.07719c-1.79004,0.9942 -4.93056,1.44328 -4.93056,1.44328l0.08697,-10.17512h8.92981c0,0 0.07496,1.86125 0.16506,4.27166z" stroke-width="0"/><path d="M245.12417,234.02181c-2.30125,0.17575 -4.67161,0.10421 -5.074,-0.243c-0.14376,-0.12405 -0.21644,-8.81919 -0.21644,-8.81919c0,0 2.52093,3.26306 5.47865,2.55169c3.21013,-0.77208 4.39618,-6.69561 4.39618,-6.69561c0,0 0.28077,6.88465 0.33914,8.36221c0.12911,3.26877 0.08028,3.70787 -0.12773,3.96271c-0.22797,0.27929 -2.52954,0.70814 -4.79579,0.88121z" stroke-width="0"/><path d="M245.12417,234.02181c-2.30125,0.17575 -4.67161,0.10421 -5.074,-0.243c-0.49302,-0.42542 0,-31.16578 0,-31.16578h8.92981c0,0 0.29902,7.42387 0.4204,11.81954c0.08594,3.11186 0.48224,10.56624 0.64731,14.74533c0.12911,3.26877 0.08028,3.70787 -0.12773,3.96271c-0.22797,0.27929 -2.52954,0.70814 -4.79579,0.88121z" stroke-width="2.5"/></g><g fill="#000000" stroke-linecap="butt"><path d="M229.19469,233.03934c-0.20801,-0.25483 -0.25685,-0.69394 -0.12773,-3.9627c0.16507,-4.17909 0.56137,-11.63347 0.64731,-14.74533c0.12139,-4.39567 0.4204,-11.81954 0.4204,-11.81954h8.92981c0,0 0.49302,30.74036 0,31.16578c-0.40239,0.34722 -2.77276,0.41875 -5.074,0.243c-2.26625,-0.17307 -4.56782,-0.60192 -4.79579,-0.88121z" stroke-width="0"/><path d="M230.13467,202.51176h8.92981l0.08697,10.17512c0,0 -3.14053,-0.44907 -4.93056,-1.44328c-1.79004,-0.9942 -4.30235,-3.07719 -4.30235,-3.07719c0,0 0.03444,-0.93796 0.05108,-1.383c0.0901,-2.41041 0.16506,-4.27166 0.16506,-4.27166z" stroke-width="0"/><path d="M229.19469,233.03934c-0.20801,-0.25483 -0.25685,-0.69394 -0.12773,-3.9627c0.05837,-1.47756 0.33913,-8.36221 0.33913,-8.36221c0,0 1.18604,5.92354 4.39618,6.69561c2.95771,0.71137 5.47865,-2.55169 5.47865,-2.55169c0,0 -0.07267,8.69514 -0.21644,8.8192c-0.40239,0.34722 -2.77276,0.41875 -5.074,0.243c-2.26625,-0.17307 -4.56782,-0.60192 -4.79579,-0.88121z" stroke-width="0"/><path d="M229.19469,233.03934c-0.20801,-0.25483 -0.25685,-0.69394 -0.12773,-3.9627c0.16507,-4.17909 0.56137,-11.63347 0.64731,-14.74533c0.12139,-4.39567 0.4204,-11.81954 0.4204,-11.81954h8.92981c0,0 0.49302,30.74036 0,31.16578c-0.40239,0.34722 -2.77276,0.41875 -5.074,0.243c-2.26625,-0.17307 -4.56782,-0.60192 -4.79579,-0.88121z" stroke-width="2.5"/></g><g fill="#000000" stroke-linecap="butt"><path d="M251.48522,194.59275c0,9.35374 -5.4134,15.87317 -12.09118,15.87317c-6.67777,0 -11.79482,-6.21564 -12.09118,-15.56938c-0.29619,-9.34881 5.4134,-18.30351 12.09118,-18.30351c6.67777,0 12.09118,8.64598 12.09118,17.99972z" stroke-width="0"/><path d="M249.55894,191.92912c0,7.96955 -4.51522,13.52423 -10.08501,13.52423c-5.5698,0 -9.83784,-5.29584 -10.08502,-13.26539c-0.07071,-2.27976 1.21674,-6.58576 1.21674,-6.58576c0,0 5.26189,2.12994 8.86827,2.07927c3.60639,-0.05067 8.74498,-2.33505 8.74498,-2.33505c0,0 1.34004,4.28422 1.34004,6.5827z" stroke-width="0"/><path d="M251.48522,194.59275c0,9.35374 -5.4134,15.87317 -12.09118,15.87317c-6.67777,0 -11.79482,-6.21564 -12.09118,-15.56938c-0.29619,-9.34881 5.4134,-18.30351 12.09118,-18.30351c6.67777,0 12.09118,8.64598 12.09118,17.99972z" stroke-width="2.5"/></g><path d="M245.06455,196.58476c0,0 0.09453,-3.7184 0.09453,-5.41009c0,-0.90321 -0.11794,-2.30506 -0.14145,-3.48577c-0.02375,-1.19238 0.04692,-2.15925 0.04692,-2.15925h4.15949c0,0 -0.04477,1.22191 0.0037,2.67777c0.046,1.38176 0.18537,2.80499 0.18537,3.76357c0,1.58915 -0.18907,4.39268 -0.18907,4.39268c0,0 -0.9683,-0.03317 -1.55248,-0.00212c-0.75702,0.04024 -2.60701,0.22322 -2.60701,0.22322z" fill="#ff0000" stroke-width="2.5" stroke-linecap="butt"/><path d="M241.94777,197.54863c0,0 0.10772,-3.65854 0.10772,-5.58629c0,-1.02923 -0.13439,-2.62669 -0.16119,-3.97216c-0.02706,-1.35876 0.05347,-2.46054 0.05347,-2.46054h4.73988c0,0 -0.05101,1.39241 0.00422,3.05141c0.05242,1.57457 0.21123,3.38929 0.21123,4.48162c0,1.81089 -0.21545,4.90916 -0.21545,4.90916z" fill="#ff0000" stroke-width="2.5" stroke-linecap="butt"/><g stroke-linecap="butt"><g fill="#000000" stroke-width="0"><path d="M228.47009,186.88766c0,0 -0.41921,-0.82668 -0.52061,-1.84322c-0.05183,-0.51962 0.0702,-1.08885 0.101,-1.62263c0.03658,-0.63388 -0.01129,-1.21776 -0.01129,-1.60921c0,-0.92481 0.4309,-2.32645 0.4309,-2.32645h21.86808c0,0 0.13068,0.69166 0.1554,1.56854c0.01443,0.51177 -0.186,1.19456 -0.17458,1.83965c0.01139,0.64385 0.23463,1.25014 0.23463,1.61138c0,1.05176 -0.21545,2.38194 -0.21545,2.38194c0,0 -1.85745,-0.34562 -4.19413,-0.17055c-1.93944,0.14531 -4.20901,0.81689 -6.0207,0.81689c-2.06124,0 -5.09824,-0.81846 -7.55509,-0.98505c-2.30424,-0.15625 -4.09817,0.33871 -4.09817,0.33871z"/><path d="M250.33817,179.48616c0,0 0.13068,0.69166 0.1554,1.56853c0.01443,0.51176 -0.186,1.19456 -0.17458,1.83965c0.01139,0.64385 0.23463,1.25014 0.23463,1.61138c0,1.05176 -0.21545,2.38194 -0.21545,2.38194c0,0 -1.85745,-0.34562 -4.19413,-0.17055c-0.5433,0.04071 -1.11251,0.12271 -1.69031,0.21968c1.63714,-1.08485 2.71667,-2.94376 2.71667,-5.05481c0,-0.85098 -0.17542,-1.66099 -0.49207,-2.39583z"/><path d="M228.47009,186.88766c0,0 -0.41921,-0.82668 -0.52061,-1.84322c-0.05183,-0.51962 0.0702,-1.08885 0.101,-1.62263c0.03658,-0.63388 -0.01129,-1.21776 -0.01129,-1.60921c0,-0.92481 0.4309,-2.32645 0.4309,-2.32645h4.27254c-0.31665,0.73485 -0.49207,1.54485 -0.49207,2.39583c0,2.03699 1.00512,3.83923 2.54646,4.9378c-0.76625,-0.12091 -1.52154,-0.22288 -2.22876,-0.27084c-2.30424,-0.15624 -4.09816,0.33871 -4.09816,0.33871z"/></g><path d="M228.47009,186.88767c0,0 -0.41921,-0.82668 -0.52061,-1.84322c-0.05183,-0.51962 0.0702,-1.08885 0.101,-1.62263c0.03658,-0.63388 -0.01129,-1.21776 -0.01129,-1.60921c0,-0.92481 0.4309,-2.32645 0.4309,-2.32645h21.86808c0,0 0.13068,0.69166 0.1554,1.56853c0.01443,0.51176 -0.186,1.19456 -0.17458,1.83965c0.01139,0.64385 0.23463,1.25014 0.23463,1.61138c0,1.05176 -0.21545,2.38194 -0.21545,2.38194c0,0 -1.85745,-0.34562 -4.19413,-0.17055c-1.93944,0.14531 -4.20901,0.81689 -6.0207,0.81689c-2.06124,0 -5.09824,-0.81846 -7.55509,-0.98505c-2.30424,-0.15624 -4.09816,0.33871 -4.09816,0.33871z" fill="#ff0000" stroke-width="2.5"/></g><g stroke-linecap="butt"><g fill="#000000"><path d="M258.05022,166.37695c0,10.1507 -8.26277,18.37946 -18.45541,18.37946c-10.19264,0 -18.45541,-8.22876 -18.45541,-18.37946c0,-10.1507 8.26277,-18.37946 18.45541,-18.37946c10.19264,0 18.45541,8.22876 18.45541,18.37946z" stroke-width="0"/><path d="M256.37936,164.47824c0,8.8504 -7.54575,16.02507 -16.85391,16.02507c-9.30815,0 -16.85391,-7.17467 -16.85391,-16.02507c0,-8.8504 7.54575,-16.02507 16.85391,-16.02507c9.30815,0 16.85391,7.17466 16.85391,16.02507z" stroke-width="0"/><path d="M258.05022,166.37695c0,10.1507 -8.26277,18.37946 -18.45541,18.37946c-10.19264,0 -18.45541,-8.22876 -18.45541,-18.37946c0,-10.1507 8.26277,-18.37946 18.45541,-18.37946c10.19264,0 18.45541,8.22876 18.45541,18.37946z" stroke-width="2.5"/></g><path d="M230.98554,171.24878c0.88465,1.89568 0.34562,4.16161 -1.20396,5.06111c-1.54958,0.8995 -3.52292,0.09194 -4.40757,-1.80374c-0.88465,-1.89568 -0.34562,-4.16161 1.20396,-5.06111c1.54958,-0.8995 3.52292,-0.09194 4.40758,1.80374z" fill="#ff0000" stroke-width="0"/><path d="M252.94577,169.59693c1.54958,0.8995 2.08862,3.16544 1.20396,5.06111c-0.88465,1.89568 -2.85799,2.70324 -4.40757,1.80374c-1.54958,-0.8995 -2.08862,-3.16543 -1.20396,-5.06111c0.88465,-1.89568 2.85799,-2.70324 4.40757,-1.80374z" data-paper-data="{&quot;index&quot;:null}" fill="#ff0000" stroke-width="0"/></g><path d="M244.81037,171.76044c0,0 -2.05532,-1.37349 -5.52088,-1.37349c-3.46556,0 -5.30544,1.75052 -5.30544,1.75052c0,0 1.89373,-2.55846 5.3593,-2.55846c3.46556,0 5.46702,2.18142 5.46702,2.18142z" fill="#000000" stroke-width="0" stroke-linecap="butt"/><path d="M237.2892,166.33378c-0.77377,3.58267 -3.95961,5.93441 -7.11578,5.25275c-3.15616,-0.68165 -5.08747,-4.13858 -4.31371,-7.72125c0.77377,-3.58267 3.95961,-5.93441 7.11578,-5.25275c3.15616,0.68166 5.08747,4.13858 4.31371,7.72125z" fill="#ff0000" stroke-width="2.5" stroke-linecap="butt"/><path d="M246.35038,158.5619c3.15617,-0.68166 6.34201,1.67008 7.11578,5.25275c0.77377,3.58267 -1.15754,7.03959 -4.31371,7.72125c-3.15617,0.68165 -6.34201,-1.67008 -7.11578,-5.25275c-0.77377,-3.58267 1.15754,-7.03959 4.31371,-7.72125z" data-paper-data="{&quot;index&quot;:null}" fill="#ff0000" stroke-width="2.5" stroke-linecap="butt"/><path d="M233.55217,154.0004c0.08927,0.27595 -0.35554,0.59998 -0.99351,0.72373c-0.63797,0.12375 -2.0429,0.15852 -2.13217,-0.11743c-0.08927,-0.27595 1.17094,-0.75815 1.80891,-0.88189c0.63797,-0.12375 1.22751,-0.00036 1.31677,0.2756z" fill="#ff0000" stroke-width="0" stroke-linecap="butt"/><path d="M246.83852,153.62354c0.63797,0.12375 1.89817,0.60593 1.80891,0.88189c-0.08927,0.27595 -1.49421,0.24118 -2.13217,0.11743c-0.63797,-0.12375 -1.08278,-0.44777 -0.99351,-0.72373c0.08927,-0.27595 0.67881,-0.39935 1.31678,-0.2756z" data-paper-data="{&quot;index&quot;:null}" fill="#ff0000" stroke-width="0" stroke-linecap="butt"/><path d="M243.38706,175.43193c0,0 -2.0342,0.40506 -3.54425,0.40506c-1.51005,0 -3.84804,-0.40506 -3.84804,-0.40506" fill="#000000" stroke-width="2.5" stroke-linecap="round"/><g stroke-linecap="butt"><path d="M242.75642,170.51038c0,0.95104 -1.83756,2.71694 -3.12909,2.71694c-1.14599,0 -3.12909,-1.7659 -3.12909,-2.71694c0,-0.95104 1.40094,-1.722 3.12909,-1.722c1.72815,0 3.12909,0.77097 3.12909,1.722z" fill="#ff0000" stroke-width="NaN"/><path d="M238.07391,171.45362c0.49107,0.57209 0.80329,1.06622 0.72408,1.13422c-0.07921,0.068 -0.66616,-0.32208 -1.15723,-0.89418c-0.49107,-0.57209 -0.70031,-1.10957 -0.62109,-1.17756c0.07921,-0.068 0.56317,0.36543 1.05424,0.93753z" fill="#000000" stroke-width="0"/><path d="M242.21016,170.51609c0.07921,0.068 -0.13003,0.60547 -0.6211,1.17756c-0.49107,0.57209 -1.13994,0.99713 -1.15723,0.89418c-0.0238,-0.14175 0.47391,-0.83077 0.88988,-1.33052c0.39219,-0.47118 0.81859,-0.80119 0.88845,-0.74123z" data-paper-data="{&quot;index&quot;:null}" fill="#000000" stroke-width="0"/></g><path d="M237.30271,154.72899c0,0 -2.94412,-0.39938 -4.2307,-1.07723c-2.30316,-1.21345 -3.60626,-3.20482 -3.60626,-3.20482c0,0 1.10505,-0.03127 1.654,-0.15795c0.49598,-0.11446 1.49695,-0.56919 1.49695,-0.56919c0,0 -0.74046,-1.06555 -0.9046,-1.58534c-0.15886,-0.50304 -0.06492,-1.48481 -0.06492,-1.48481c0,0 1.91453,0.69876 2.93765,0.90831c1.18756,0.24324 3.7682,0.46518 3.7682,0.46518c0,0 -0.64635,-0.83255 -0.64635,-1.29269c0,-0.52716 0.64635,-1.69666 0.64635,-1.69666c0,0 1.22959,1.609 2.33081,2.29864c0.64789,0.40575 2.9662,0.33805 4.08726,0.85658c1.40795,0.65122 1.58048,1.85397 1.58048,1.85397" fill="#000000" stroke-width="2.5" stroke-linecap="round"/></g></g></svg>