<svg version="1.1" xmlns="http://www.w3.org/2000/svg" xmlns:xlink="http://www.w3.org/1999/xlink" width="116.71358" height="153.60539" viewBox="0,0,116.71358,153.60539"><defs><linearGradient x1="222.78134" y1="115.31451" x2="222.78134" y2="131.60836" gradientUnits="userSpaceOnUse" id="color-1"><stop offset="0" stop-color="#c25f46"/><stop offset="1" stop-color="#b15b45"/></linearGradient><linearGradient x1="268.05942" y1="115.00117" x2="268.05942" y2="131.29499" gradientUnits="userSpaceOnUse" id="color-2"><stop offset="0" stop-color="#c25f46"/><stop offset="1" stop-color="#b25c45"/></linearGradient><linearGradient x1="237.56581" y1="136.90176" x2="237.56581" y2="143.23509" gradientUnits="userSpaceOnUse" id="color-3"><stop offset="0" stop-color="#000000"/><stop offset="1" stop-color="#c27461"/></linearGradient><linearGradient x1="252.56581" y1="136.90176" x2="252.56581" y2="143.23509" gradientUnits="userSpaceOnUse" id="color-4"><stop offset="0" stop-color="#000000"/><stop offset="1" stop-color="#c27461"/></linearGradient></defs><g transform="translate(-186.8607,-31.92651)"><g data-paper-data="{&quot;isPaintingLayer&quot;:true}" fill-rule="nonzero" stroke-linejoin="miter" stroke-miterlimit="10" stroke-dasharray="" stroke-dashoffset="0" style="mix-blend-mode: normal"><g><path d="M263.9079,56.24318c-0.43577,7.438 -3.43263,13.36425 -8.66971,16.80793c-2.77487,1.82464 -6.17865,0.85873 -10.16362,0.85873c-4.20318,0 -7.62632,0.7161 -10.35968,-1.41963c-4.74904,-3.71071 -7.41583,-9.65951 -8.47365,-16.24703c-1.05401,-6.56375 1.04525,-13.87146 6.57729,-17.17473c3.60358,-2.15176 7.3348,0.57796 12.25605,0.8414c4.92124,0.26344 8.97758,-2.10934 12.72417,0.16246c4.93249,2.99088 6.48617,9.73578 6.10916,16.17088z" fill="#ee3c3c" stroke="#000000" stroke-width="2.5" stroke-linecap="butt"/><path d="M258.44124,46.7765c0,1.09434 -1.4832,3.08605 -3.88647,3.80826c-2.44817,0.7357 -5.85111,0.19174 -9.61353,0.19174c-4.08071,0 -7.73855,0.06354 -10.214,-0.78435c-2.04743,-0.70128 -3.286,-2.21561 -3.286,-3.21565c0,-1.19118 1.35728,-4.26075 4.14562,-4.99352c2.38288,-0.62622 5.91875,0.99352 9.35438,0.99352c3.20606,0 7.7511,-1.26886 10.06678,-0.71572c3.06953,0.73322 3.43322,3.45652 3.43322,4.71572z" fill="#f77676" stroke="none" stroke-width="0" stroke-linecap="butt"/><path d="M234.27882,53.40431c0.28563,1.23772 -0.39895,2.45251 -1.52904,2.7133c-1.1301,0.26079 -2.27777,-0.53117 -2.5634,-1.7689c-0.28563,-1.23772 0.39895,-2.45251 1.52904,-2.7133c1.1301,-0.26079 2.27777,0.53117 2.5634,1.7689z" fill="#f77676" stroke="none" stroke-width="0" stroke-linecap="butt"/><path d="M260.16981,53.35609c-0.4754,0.93547 -1.45949,1.38957 -2.19802,1.01425c-0.73853,-0.37532 -0.95184,-1.43792 -0.47644,-2.3734c0.4754,-0.93547 1.4595,-1.38957 2.19803,-1.01425c0.73853,0.37532 0.95184,1.43793 0.47643,2.3734z" fill="#f77676" stroke="none" stroke-width="0" stroke-linecap="butt"/><path d="M245.5326,41.17652c0,0 0.01105,-2.74034 0.2132,-4.08802c0.19775,-1.31834 0.9868,-3.91198 0.9868,-3.91198" fill="none" stroke="#000000" stroke-width="2.5" stroke-linecap="round"/></g><g stroke-linecap="butt"><g stroke="#000000"><path d="M302.32428,127.41013c0,31.40942 -25.56758,56.87178 -57.10679,56.87178c-31.53921,0 -57.10678,-25.46236 -57.10678,-56.87178c0,-31.40942 25.56758,-56.87177 57.10679,-56.87177c31.53921,0 57.10679,25.46236 57.10679,56.87178z" fill="#e08670" stroke-width="0"/><path d="M297.15413,121.53494c0,27.38589 -23.3489,49.58655 -52.15125,49.58655c-28.80233,0 -52.15124,-22.20066 -52.15124,-49.58655c0,-27.3859 23.3489,-49.58655 52.15124,-49.58655c28.80233,0 52.15125,22.20065 52.15125,49.58655z" fill="#f19078" stroke-width="0"/><path d="M302.32428,127.41013c0,31.40942 -25.56758,56.87178 -57.10679,56.87178c-31.53921,0 -57.10678,-25.46236 -57.10678,-56.87178c0,-31.40942 25.56758,-56.87177 57.10679,-56.87177c31.53921,0 57.10679,25.46236 57.10679,56.87178z" fill="none" stroke-width="2.5"/></g><path d="M218.57772,142.48509c2.73739,5.86582 1.06945,12.87733 -3.72544,15.66065c-4.79489,2.78332 -10.90101,0.28448 -13.63841,-5.58134c-2.73739,-5.86582 -1.06946,-12.87733 3.72543,-15.66065c4.79489,-2.78332 10.90102,-0.28448 13.63842,5.58134z" fill="#c27461" stroke="none" stroke-width="0"/><path d="M286.5295,137.37375c4.79489,2.78332 6.46283,9.79485 3.72543,15.66066c-2.73739,5.86582 -8.84351,8.36466 -13.6384,5.58134c-4.79489,-2.78332 -6.46283,-9.79484 -3.72543,-15.66065c2.73739,-5.86582 8.84351,-8.36467 13.6384,-5.58134z" data-paper-data="{&quot;index&quot;:null}" fill="#c27461" stroke="none" stroke-width="0"/></g><path d="M238.08321,127.27657c-2.39429,11.08591 -12.25227,18.36292 -22.01844,16.25366c-9.76615,-2.10925 -15.74223,-12.80605 -13.34795,-23.89195c2.39429,-11.0859 12.25227,-18.36292 22.01844,-16.25366c9.76615,2.10926 15.74223,12.80605 13.34795,23.89195z" fill="#ffffff" stroke="#000000" stroke-width="2.5" stroke-linecap="butt"/><g stroke="none" stroke-linecap="butt"><g><path d="M214.63442,123.46143c0,-4.49942 3.6475,-8.14693 8.14692,-8.14693c4.49942,0 8.14693,3.64751 8.14693,8.14693c0,4.49942 -3.64751,8.14692 -8.14693,8.14692c-4.49942,0 -8.14692,-3.6475 -8.14692,-8.14692z" fill="url(#color-1)" stroke-width="0.5"/><path d="M224.08854,131.47046l-0.76008,-3.95233l1.8663,-0.62826l2.06359,3.34009c0,0 -0.84777,0.63232 -1.53736,0.84304c-0.67499,0.20626 -1.63244,0.39748 -1.63244,0.39748z" fill="#a6513c" stroke-width="0"/><path d="M228.37054,129.36811l-2.59819,-2.93979l1.01418,-0.95403l2.92407,2.18928c0,0 -0.34263,0.59353 -0.61266,0.937c-0.27003,0.34347 -0.72741,0.76753 -0.72741,0.76753z" fill="#a6513c" stroke-width="0"/></g><path d="M218.05612,123.46143c0,-2.60967 2.11555,-4.72522 4.72522,-4.72522c2.60967,0 4.72522,2.11555 4.72522,4.72522c0,2.60967 -2.11555,4.72521 -4.72522,4.72521c-2.60967,0 -4.72522,-2.11554 -4.72522,-4.72521z" fill="#000000" stroke-width="0.5"/><path d="M221.76305,121.80901c-1.20529,1.17977 -3.01243,1.28813 -4.03639,0.24203c-1.02396,-1.04609 -0.87694,-2.85051 0.32834,-4.03028c1.20529,-1.17977 3.01244,-1.28813 4.03639,-0.24203c1.02396,1.04609 0.87694,2.85051 -0.32835,4.03028z" fill="#ffffff" stroke-width="0"/><path d="M218.26769,123.08085c0.24212,0.32627 0.21661,0.73883 -0.05696,0.92146c-0.27357,0.18263 -0.69161,0.06617 -0.93373,-0.2601c-0.24212,-0.32627 -0.21661,-0.73882 0.05696,-0.92145c0.27357,-0.18263 0.69161,-0.06618 0.93373,0.2601z" fill="#ffffff" stroke-width="0"/></g><path d="M266.12133,103.22794c9.76617,-2.10926 19.62415,5.16776 22.01844,16.25366c2.39429,11.0859 -3.58179,21.7827 -13.34795,23.89195c-9.76617,2.10925 -19.62415,-5.16776 -22.01844,-16.25366c-2.39428,-11.0859 3.58179,-21.7827 13.34795,-23.89195z" data-paper-data="{&quot;index&quot;:null}" fill="#ffffff" stroke="#000000" stroke-width="2.5" stroke-linecap="butt"/><g stroke="none" stroke-linecap="butt"><g><path d="M259.9125,123.14809c0,-4.49942 3.64751,-8.14692 8.14693,-8.14692c4.49942,0 8.14692,3.6475 8.14692,8.14692c0,4.49942 -3.6475,8.14691 -8.14692,8.14691c-4.49942,0 -8.14693,-3.6475 -8.14693,-8.14691z" fill="url(#color-2)" stroke-width="0.5"/><path d="M269.36662,131.15713l-0.76009,-3.95235l1.86631,-0.62826l2.06359,3.34009c0,0 -0.84778,0.63232 -1.53737,0.84304c-0.67499,0.20626 -1.63245,0.39748 -1.63245,0.39748z" fill="#a6513c" stroke-width="0"/><path d="M273.6486,129.05478l-2.59819,-2.93979l1.01418,-0.95401l2.92406,2.18928c0,0 -0.34262,0.59352 -0.61266,0.93699c-0.27004,0.34347 -0.7274,0.76753 -0.7274,0.76753z" fill="#a6513c" stroke-width="0"/></g><path d="M263.33421,123.14809c0,-2.60967 2.11556,-4.72522 4.72522,-4.72522c2.60967,0 4.7252,2.11555 4.7252,4.72522c0,2.60967 -2.11555,4.72521 -4.7252,4.72521c-2.60967,0 -4.72522,-2.11554 -4.72522,-4.72521z" fill="#000000" stroke-width="0.5"/><path d="M267.04114,121.49567c-1.20529,1.17977 -3.01243,1.28813 -4.03638,0.24203c-1.02396,-1.0461 -0.87694,-2.85052 0.32834,-4.03028c1.20529,-1.17977 3.01244,-1.28813 4.03638,-0.24203c1.02395,1.0461 0.87694,2.85052 -0.32835,4.03028z" fill="#ffffff" stroke-width="0"/><path d="M263.54576,122.76751c0.24212,0.32627 0.2166,0.73882 -0.05697,0.92145c-0.27357,0.18263 -0.69162,0.06618 -0.93372,-0.2601c-0.2421,-0.32627 -0.2166,-0.73882 0.05696,-0.92145c0.27357,-0.18263 0.69162,-0.06618 0.93372,0.2601z" fill="#ffffff" stroke-width="0"/></g><path d="M226.51966,90.11322c0.27622,0.85389 -1.10016,1.85653 -3.07423,2.23944c-1.97407,0.38291 -6.32138,0.49052 -6.5976,-0.36337c-0.27622,-0.85389 3.62326,-2.34594 5.59733,-2.72885c1.97407,-0.38291 3.79829,-0.00111 4.07451,0.85278z" fill="#000000" stroke="none" stroke-width="0" stroke-linecap="butt"/><path d="M267.63176,88.9471c1.97407,0.38292 5.87354,1.87495 5.59732,2.72885c-0.27622,0.85389 -4.62354,0.74629 -6.5976,0.36338c-1.97407,-0.38292 -3.35046,-1.38555 -3.07423,-2.23944c0.27622,-0.85389 2.10045,-1.2357 4.07452,-0.85278z" data-paper-data="{&quot;index&quot;:null}" fill="#000000" stroke="none" stroke-width="0" stroke-linecap="butt"/><path d="M240.98135,74.29466c0,0 4.79963,-3.97601 7.21753,-6.85844c2.4179,-2.88244 6.48194,-9.47302 6.48194,-9.47302c0,0 1.51085,7.48886 1.27352,10.62633c-0.19378,2.56176 -2.59354,6.8239 -2.59354,6.8239" fill="#f19078" stroke="#000000" stroke-width="2.5" stroke-linecap="butt"/><path d="M194.45004,92.58407c0,0 6.14315,-7.25437 10.23895,-10.23522c4.0958,-2.98085 12.60124,-6.38747 12.60124,-6.38747c0,0 -5.38963,9.68578 -7.55175,14.18323c-1.92742,4.00928 -4.79793,11.5056 -4.79793,11.5056c0,0 -4.2204,-2.82437 -6.07734,-4.42917c-1.60218,-1.38464 -4.41317,-4.63697 -4.41317,-4.63697z" fill="#f19078" stroke="#000000" stroke-width="2.5" stroke-linecap="butt"/><path d="M291.87706,97.55438c-1.85693,1.6048 -6.07734,4.42917 -6.07734,4.42917c0,0 -2.87051,-7.49632 -4.79793,-11.5056c-2.16211,-4.49746 -7.55174,-14.18323 -7.55174,-14.18323c0,0 8.50544,3.40663 12.60124,6.38747c4.0958,2.98085 10.23895,10.23522 10.23895,10.23522c0,0 -2.81099,3.25233 -4.41317,4.63697z" data-paper-data="{&quot;index&quot;:null}" fill="#f19078" stroke="#000000" stroke-width="2.5" stroke-linecap="butt"/><path d="M261.56579,145.3112c0,6.53537 -7.46192,11.83333 -16.66667,11.83333c-9.20475,0 -16.66667,-5.29796 -16.66667,-11.83333c0,-6.53537 7.46192,-11.83333 16.66667,-11.83333c9.20475,0 16.66667,5.29796 16.66667,11.83333z" fill="#e08670" stroke="none" stroke-width="0" stroke-linecap="butt"/><path d="M261.2247,140.34841c0,5.77567 -7.38557,10.45778 -16.49612,10.45778c-9.11056,0 -16.49612,-4.68211 -16.49612,-10.45778c0,-5.77567 7.38557,-10.45778 16.49612,-10.45778c9.11056,0 16.49612,4.68211 16.49612,10.45778z" fill="#f19078" stroke="#000000" stroke-width="2.5" stroke-linecap="butt"/><path d="M239.89914,140.06841c0,1.7489 -1.04467,3.16667 -2.33333,3.16667c-1.28866,0 -2.33333,-1.41776 -2.33333,-3.16667c0,-1.7489 1.04467,-3.16667 2.33333,-3.16667c1.28866,0 2.33333,1.41776 2.33333,3.16667z" fill="url(#color-3)" stroke="none" stroke-width="0" stroke-linecap="butt"/><path d="M254.89914,140.06841c0,1.7489 -1.04467,3.16666 -2.33334,3.16666c-1.28867,0 -2.33333,-1.41777 -2.33333,-3.16666c0,-1.7489 1.04467,-3.16666 2.33333,-3.16666c1.28867,0 2.33334,1.41777 2.33334,3.16666z" fill="url(#color-4)" stroke="none" stroke-width="0" stroke-linecap="butt"/><path d="M256.28522,157.09572c0,0 -6.29445,1.25338 -10.967,1.25338c-4.67255,0 -11.90704,-1.25338 -11.90704,-1.25338" fill="none" stroke="#000000" stroke-width="2.5" stroke-linecap="round"/></g></g></svg>