<svg version="1.1" xmlns="http://www.w3.org/2000/svg" xmlns:xlink="http://www.w3.org/1999/xlink" width="116.71358" height="139.13655" viewBox="0,0,116.71358,139.13655"><defs><linearGradient x1="232.78134" y1="130.81451" x2="232.78134" y2="147.10835" gradientUnits="userSpaceOnUse" id="color-1"><stop offset="0" stop-color="#c25f46"/><stop offset="1" stop-color="#b15b45"/></linearGradient><linearGradient x1="278.05942" y1="130.50117" x2="278.05942" y2="146.79499" gradientUnits="userSpaceOnUse" id="color-2"><stop offset="0" stop-color="#c25f46"/><stop offset="1" stop-color="#b25c45"/></linearGradient><linearGradient x1="247.56581" y1="152.40176" x2="247.56581" y2="158.73509" gradientUnits="userSpaceOnUse" id="color-3"><stop offset="0" stop-color="#000000"/><stop offset="1" stop-color="#c27461"/></linearGradient><linearGradient x1="262.56581" y1="152.40176" x2="262.56581" y2="158.73509" gradientUnits="userSpaceOnUse" id="color-4"><stop offset="0" stop-color="#000000"/><stop offset="1" stop-color="#c27461"/></linearGradient></defs><g transform="translate(-196.8607,-61.89536)"><g data-paper-data="{&quot;isPaintingLayer&quot;:true}" fill-rule="nonzero" stroke-linejoin="miter" stroke-miterlimit="10" stroke-dasharray="" stroke-dashoffset="0" style="mix-blend-mode: normal"><g><path d="M265.88516,77.55794c2.53601,7.00588 2.12214,13.63388 -1.33005,18.86535c-1.82915,2.7719 -5.33778,3.2282 -8.99907,4.80139c-3.86178,1.65934 -6.72417,3.66866 -10.07866,2.78549c-5.82822,-1.53448 -10.62687,-5.94728 -14.1994,-11.58213c-3.55964,-5.61451 -4.51585,-13.1574 -0.73721,-18.37631c2.4614,-3.39961 6.9672,-2.36463 11.59272,-4.0654c4.62551,-1.70077 7.41565,-5.48219 11.75479,-4.874c5.71259,0.80069 9.80284,6.38437 11.99691,12.44562z" fill="#ee3c3c" stroke="#000000" stroke-width="2.5" stroke-linecap="butt"/><path d="M257.12526,71.01833c0.43203,1.00545 -0.14441,3.42093 -2.06736,5.03324c-1.95888,1.64243 -5.30016,2.48608 -8.75698,3.97141c-3.74925,1.61099 -7.0849,3.11341 -9.69402,3.31166c-2.15798,0.16397 -3.89378,-0.7384 -4.28857,-1.65721c-0.47026,-1.09443 -0.43503,-4.4505 1.83754,-6.22454c1.94211,-1.51607 5.83022,-1.42379 8.98679,-2.78011c2.94565,-1.26569 6.6206,-4.22579 8.96655,-4.63176c3.10967,-0.53813 4.51893,1.82039 5.01604,2.97731z" fill="#f77676" stroke="none" stroke-width="0" stroke-linecap="butt"/><path d="M237.54196,86.64667c0.75106,1.02442 0.60166,2.4108 -0.33368,3.09655c-0.93535,0.68575 -2.30245,0.4112 -3.05352,-0.61324c-0.75106,-1.02442 -0.60166,-2.4108 0.33368,-3.09655c0.93535,-0.68575 2.30245,-0.4112 3.05352,0.61324z" fill="#f77676" stroke="none" stroke-width="0" stroke-linecap="butt"/><path d="M261.31093,76.38108c-0.06748,1.04717 -0.79237,1.85288 -1.61908,1.79961c-0.82671,-0.05328 -1.44219,-0.94536 -1.37472,-1.99253c0.06748,-1.04717 0.79238,-1.85289 1.61909,-1.79961c0.82671,0.05328 1.44219,0.94537 1.37471,1.99254z" fill="#f77676" stroke="none" stroke-width="0" stroke-linecap="butt"/><path d="M243.05435,70.96929c0,0 -1.07168,-2.52212 -1.41799,-3.84014c-0.33877,-1.28933 -0.63773,-3.9838 -0.63773,-3.9838" fill="none" stroke="#000000" stroke-width="2.5" stroke-linecap="round"/></g><g stroke-linecap="butt"><g stroke="#000000"><path d="M312.32428,142.91013c0,31.40942 -25.56758,56.87178 -57.10679,56.87178c-31.53921,0 -57.10678,-25.46236 -57.10678,-56.87178c0,-31.40942 25.56758,-56.87177 57.10679,-56.87177c31.53921,0 57.10679,25.46236 57.10679,56.87178z" fill="#e08670" stroke-width="0"/><path d="M307.15413,137.03493c0,27.38589 -23.3489,49.58655 -52.15125,49.58655c-28.80233,0 -52.15124,-22.20066 -52.15124,-49.58655c0,-27.3859 23.3489,-49.58655 52.15124,-49.58655c28.80233,0 52.15125,22.20065 52.15125,49.58655z" fill="#f19078" stroke-width="0"/><path d="M312.32428,142.91013c0,31.40942 -25.56758,56.87178 -57.10679,56.87178c-31.53921,0 -57.10678,-25.46236 -57.10678,-56.87178c0,-31.40942 25.56758,-56.87177 57.10679,-56.87177c31.53921,0 57.10679,25.46236 57.10679,56.87178z" fill="none" stroke-width="2.5"/></g><path d="M228.57772,157.98509c2.73739,5.86582 1.06945,12.87733 -3.72544,15.66065c-4.79489,2.78332 -10.90101,0.28448 -13.63841,-5.58134c-2.73739,-5.86582 -1.06946,-12.87733 3.72543,-15.66065c4.79489,-2.78332 10.90102,-0.28448 13.63842,5.58134z" fill="#c27461" stroke="none" stroke-width="0"/><path d="M296.5295,152.87375c4.79489,2.78332 6.46283,9.79485 3.72543,15.66066c-2.73739,5.86582 -8.84351,8.36466 -13.6384,5.58134c-4.79489,-2.78332 -6.46283,-9.79484 -3.72543,-15.66065c2.73739,-5.86582 8.84351,-8.36467 13.6384,-5.58134z" data-paper-data="{&quot;index&quot;:null}" fill="#c27461" stroke="none" stroke-width="0"/></g><path d="M248.08321,142.77657c-2.39429,11.08591 -12.25227,18.36292 -22.01844,16.25366c-9.76615,-2.10925 -15.74223,-12.80605 -13.34795,-23.89195c2.39429,-11.0859 12.25227,-18.36292 22.01844,-16.25366c9.76615,2.10926 15.74223,12.80605 13.34795,23.89195z" fill="#ffffff" stroke="#000000" stroke-width="2.5" stroke-linecap="butt"/><g stroke="none" stroke-linecap="butt"><g><path d="M224.63442,138.96143c0,-4.49942 3.6475,-8.14693 8.14692,-8.14693c4.49942,0 8.14693,3.64751 8.14693,8.14693c0,4.49942 -3.64751,8.14692 -8.14693,8.14692c-4.49942,0 -8.14692,-3.6475 -8.14692,-8.14692z" fill="url(#color-1)" stroke-width="0.5"/><path d="M234.08854,146.97046l-0.76008,-3.95233l1.8663,-0.62826l2.06359,3.34009c0,0 -0.84777,0.63232 -1.53736,0.84304c-0.67499,0.20626 -1.63244,0.39748 -1.63244,0.39748z" fill="#a6513c" stroke-width="0"/><path d="M238.37054,144.86811l-2.59819,-2.93979l1.01418,-0.95403l2.92407,2.18928c0,0 -0.34263,0.59353 -0.61266,0.937c-0.27003,0.34347 -0.72741,0.76753 -0.72741,0.76753z" fill="#a6513c" stroke-width="0"/></g><path d="M228.05612,138.96143c0,-2.60967 2.11555,-4.72522 4.72522,-4.72522c2.60967,0 4.72522,2.11555 4.72522,4.72522c0,2.60967 -2.11555,4.72521 -4.72522,4.72521c-2.60967,0 -4.72522,-2.11554 -4.72522,-4.72521z" fill="#000000" stroke-width="0.5"/><path d="M231.76305,137.30901c-1.20529,1.17977 -3.01243,1.28813 -4.03639,0.24203c-1.02396,-1.04609 -0.87694,-2.85051 0.32834,-4.03028c1.20529,-1.17977 3.01244,-1.28813 4.03639,-0.24203c1.02396,1.04609 0.87694,2.85051 -0.32835,4.03028z" fill="#ffffff" stroke-width="0"/><path d="M228.26769,138.58085c0.24212,0.32627 0.21661,0.73883 -0.05696,0.92146c-0.27357,0.18263 -0.69161,0.06617 -0.93373,-0.2601c-0.24212,-0.32627 -0.21661,-0.73882 0.05696,-0.92145c0.27357,-0.18263 0.69161,-0.06618 0.93373,0.2601z" fill="#ffffff" stroke-width="0"/></g><path d="M276.12133,118.72794c9.76617,-2.10926 19.62415,5.16776 22.01844,16.25366c2.39429,11.0859 -3.58179,21.7827 -13.34795,23.89195c-9.76617,2.10925 -19.62415,-5.16776 -22.01844,-16.25366c-2.39428,-11.0859 3.58179,-21.7827 13.34795,-23.89195z" data-paper-data="{&quot;index&quot;:null}" fill="#ffffff" stroke="#000000" stroke-width="2.5" stroke-linecap="butt"/><g stroke="none" stroke-linecap="butt"><g><path d="M269.91249,138.64809c0,-4.49942 3.64751,-8.14692 8.14693,-8.14692c4.49942,0 8.14692,3.6475 8.14692,8.14692c0,4.49942 -3.6475,8.14691 -8.14692,8.14691c-4.49942,0 -8.14693,-3.6475 -8.14693,-8.14691z" fill="url(#color-2)" stroke-width="0.5"/><path d="M279.36662,146.65713l-0.76009,-3.95235l1.86631,-0.62826l2.06359,3.34009c0,0 -0.84778,0.63232 -1.53737,0.84304c-0.67499,0.20626 -1.63245,0.39748 -1.63245,0.39748z" fill="#a6513c" stroke-width="0"/><path d="M283.6486,144.55478l-2.59819,-2.93979l1.01418,-0.95401l2.92406,2.18928c0,0 -0.34262,0.59352 -0.61266,0.93699c-0.27004,0.34347 -0.7274,0.76753 -0.7274,0.76753z" fill="#a6513c" stroke-width="0"/></g><path d="M273.33421,138.64809c0,-2.60967 2.11556,-4.72522 4.72522,-4.72522c2.60967,0 4.7252,2.11555 4.7252,4.72522c0,2.60967 -2.11555,4.72521 -4.7252,4.72521c-2.60967,0 -4.72522,-2.11554 -4.72522,-4.72521z" fill="#000000" stroke-width="0.5"/><path d="M277.04114,136.99567c-1.20529,1.17977 -3.01243,1.28813 -4.03638,0.24203c-1.02396,-1.0461 -0.87694,-2.85052 0.32834,-4.03028c1.20529,-1.17977 3.01244,-1.28813 4.03638,-0.24203c1.02395,1.0461 0.87694,2.85052 -0.32835,4.03028z" fill="#ffffff" stroke-width="0"/><path d="M273.54576,138.26751c0.24212,0.32627 0.2166,0.73882 -0.05697,0.92145c-0.27357,0.18263 -0.69162,0.06618 -0.93372,-0.2601c-0.2421,-0.32627 -0.2166,-0.73882 0.05696,-0.92145c0.27357,-0.18263 0.69162,-0.06618 0.93372,0.2601z" fill="#ffffff" stroke-width="0"/></g><path d="M236.51966,105.61322c0.27622,0.85389 -1.10016,1.85653 -3.07423,2.23944c-1.97407,0.38291 -6.32138,0.49052 -6.5976,-0.36337c-0.27622,-0.85389 3.62326,-2.34594 5.59733,-2.72885c1.97407,-0.38291 3.79829,-0.00111 4.07451,0.85278z" fill="#000000" stroke="none" stroke-width="0" stroke-linecap="butt"/><path d="M277.63176,104.4471c1.97407,0.38292 5.87354,1.87495 5.59732,2.72885c-0.27622,0.85389 -4.62354,0.74629 -6.5976,0.36338c-1.97407,-0.38292 -3.35046,-1.38555 -3.07423,-2.23944c0.27622,-0.85389 2.10045,-1.2357 4.07452,-0.85278z" data-paper-data="{&quot;index&quot;:null}" fill="#000000" stroke="none" stroke-width="0" stroke-linecap="butt"/><path d="M250.98135,89.79466c0,0 4.79963,-3.97601 7.21753,-6.85844c2.4179,-2.88244 6.48194,-9.47302 6.48194,-9.47302c0,0 1.51085,7.48886 1.27352,10.62633c-0.19378,2.56176 -2.59354,6.8239 -2.59354,6.8239" fill="#f19078" stroke="#000000" stroke-width="2.5" stroke-linecap="butt"/><path d="M204.45004,108.08407c0,0 6.14315,-7.25437 10.23895,-10.23522c4.0958,-2.98085 12.60124,-6.38747 12.60124,-6.38747c0,0 -5.38963,9.68578 -7.55175,14.18323c-1.92742,4.00928 -4.79793,11.5056 -4.79793,11.5056c0,0 -4.2204,-2.82437 -6.07734,-4.42917c-1.60218,-1.38464 -4.41317,-4.63697 -4.41317,-4.63697z" fill="#f19078" stroke="#000000" stroke-width="2.5" stroke-linecap="butt"/><path d="M301.87706,113.05438c-1.85693,1.6048 -6.07734,4.42917 -6.07734,4.42917c0,0 -2.87051,-7.49632 -4.79793,-11.5056c-2.16211,-4.49746 -7.55174,-14.18323 -7.55174,-14.18323c0,0 8.50544,3.40663 12.60124,6.38747c4.0958,2.98085 10.23895,10.23522 10.23895,10.23522c0,0 -2.81099,3.25233 -4.41317,4.63697z" data-paper-data="{&quot;index&quot;:null}" fill="#f19078" stroke="#000000" stroke-width="2.5" stroke-linecap="butt"/><path d="M271.56579,160.8112c0,6.53537 -7.46192,11.83333 -16.66667,11.83333c-9.20475,0 -16.66667,-5.29796 -16.66667,-11.83333c0,-6.53537 7.46192,-11.83333 16.66667,-11.83333c9.20475,0 16.66667,5.29796 16.66667,11.83333z" fill="#e08670" stroke="none" stroke-width="0" stroke-linecap="butt"/><path d="M271.2247,155.84841c0,5.77567 -7.38557,10.45778 -16.49612,10.45778c-9.11056,0 -16.49612,-4.68211 -16.49612,-10.45778c0,-5.77567 7.38557,-10.45778 16.49612,-10.45778c9.11056,0 16.49612,4.68211 16.49612,10.45778z" fill="#f19078" stroke="#000000" stroke-width="2.5" stroke-linecap="butt"/><path d="M249.89914,155.56841c0,1.7489 -1.04467,3.16667 -2.33333,3.16667c-1.28866,0 -2.33333,-1.41776 -2.33333,-3.16667c0,-1.7489 1.04467,-3.16667 2.33333,-3.16667c1.28866,0 2.33333,1.41776 2.33333,3.16667z" fill="url(#color-3)" stroke="none" stroke-width="0" stroke-linecap="butt"/><path d="M264.89914,155.56841c0,1.7489 -1.04467,3.16666 -2.33334,3.16666c-1.28867,0 -2.33333,-1.41777 -2.33333,-3.16666c0,-1.7489 1.04467,-3.16666 2.33333,-3.16666c1.28867,0 2.33334,1.41777 2.33334,3.16666z" fill="url(#color-4)" stroke="none" stroke-width="0" stroke-linecap="butt"/><path d="M264.28523,172.04884c0,0 -6.29445,12.84714 -10.967,12.84714c-4.67255,0 -11.90704,-12.84714 -11.90704,-12.84714" fill="#000000" stroke="none" stroke-width="0" stroke-linecap="round"/></g></g></svg>