<svg version="1.1" xmlns="http://www.w3.org/2000/svg" xmlns:xlink="http://www.w3.org/1999/xlink" width="472.92606" height="875.63814" viewBox="0,0,472.92606,875.63814"><defs><linearGradient x1="149.03803" y1="114.65606" x2="149.03803" y2="167.78112" gradientUnits="userSpaceOnUse" id="color-1"><stop offset="0" stop-color="#f58845"/><stop offset="1" stop-color="#cf7740"/></linearGradient><linearGradient x1="296.66433" y1="113.63446" x2="296.66433" y2="166.75946" gradientUnits="userSpaceOnUse" id="color-2"><stop offset="0" stop-color="#f58845"/><stop offset="1" stop-color="#d17840"/></linearGradient></defs><g transform="translate(10.28815,32.58374)"><g data-paper-data="{&quot;isPaintingLayer&quot;:true}" fill-rule="nonzero" stroke-linejoin="miter" stroke-miterlimit="10" stroke-dasharray="" stroke-dashoffset="0" style="mix-blend-mode: normal"><g><g stroke="#000000"><g stroke-linecap="butt"><path d="M101.70193,821.55045c-1.75804,-2.81473 -1.68894,-7.27161 3.75672,-39.82294c6.96217,-41.61657 20.40026,-115.7199 25.21439,-146.75574c6.80018,-43.83977 19.22582,-117.76139 19.22582,-117.76139l89.37377,11.34648c0,0 -34.12515,308.2905 -39.60007,311.92189c-4.46851,2.96387 -28.28313,0.66788 -51.09177,-4.01508c-22.46183,-4.61171 -44.95205,-11.82833 -46.87883,-14.91322z" fill="#f5af82" stroke-width="0"/><path d="M149.89883,517.21043l89.37375,11.34645l-12.05838,101.94793c0,0 -30.86129,-8.48499 -47.51354,-20.70992c-16.65229,-12.22494 -39.15,-36.26463 -39.15,-36.26463c0,0 1.53646,-9.34384 2.26845,-13.77683c3.96446,-24.01007 7.07973,-42.54306 7.07973,-42.54306z" fill="#e4a279" stroke-width="0"/><path d="M101.70193,821.55045c-1.75804,-2.81473 -1.68894,-7.27161 3.75672,-39.82294c2.46158,-14.71399 18.94702,-122.07577 18.94702,-122.07577c0,0 15.95429,34.56868 24.97695,39.39137c9.03669,4.83017 29.20122,-10.4327 29.20122,-10.4327c0,0 8.03518,28.11241 13.48422,33.77444c6.97761,7.25035 26.69065,-6.63711 26.69065,-6.63711c0,0 -17.71892,123.82411 -19.0862,124.731c-4.46851,2.96387 -28.28313,0.6679 -51.09177,-4.01506c-22.46183,-4.61171 -44.95201,-11.82834 -46.8788,-14.91324z" fill="#ca8f6b" stroke-width="0"/><path d="M101.70193,821.55045c-1.75804,-2.81473 -1.68894,-7.27161 3.75672,-39.82294c6.96217,-41.61657 20.40026,-115.7199 25.21439,-146.75574c6.80018,-43.83977 19.22582,-117.76139 19.22582,-117.76139l89.37377,11.34648c0,0 -34.12515,308.2905 -39.60007,311.92189c-4.46851,2.96387 -28.28313,0.66788 -51.09177,-4.01508c-22.46183,-4.61171 -44.95205,-11.82833 -46.87883,-14.91322z" fill="none" stroke-width="2.5"/></g><path d="M124.98409,828.77101l3.40507,-18.19182" fill="none" stroke-width="2.5" stroke-linecap="round"/><path d="M164.96964,818.49616l-1.91621,18.40826" fill="none" stroke-width="2.5" stroke-linecap="round"/></g><g stroke="#000000" stroke-linecap="butt"><path d="M444.64316,429.77575c28.91231,23.15265 -42.01421,104.52591 -100.22843,127.02925c-58.21421,22.50334 -110.49711,27.57606 -116.7771,11.33021c-6.27999,-16.24581 35.82101,-47.65819 94.03523,-70.16156c58.21421,-22.50334 94.79944,-90.75683 122.9703,-68.19793z" fill="#f5af82" stroke-width="0"/><path d="M444.64316,429.77575c13.60838,10.89746 5.0987,34.69297 -13.79302,59.17715c-4.64149,-18.92592 -15.89251,-35.25575 -31.16661,-46.40302c17.56244,-14.49072 32.1332,-23.04542 44.95963,-12.77413z" fill="#ca8f6b" stroke-width="0"/><path d="M444.64316,429.77575c28.91231,23.15265 -42.01421,104.52591 -100.22843,127.02925c-58.21421,22.50334 -110.49711,27.57606 -116.7771,11.33021c-6.27999,-16.24581 35.82101,-47.65819 94.03523,-70.16156c58.21421,-22.50334 94.79944,-90.75683 122.9703,-68.19793z" fill="none" stroke-width="2.5"/></g><g data-paper-data="{&quot;index&quot;:null}" stroke="#000000" stroke-linecap="butt"><path d="M298.11187,353.28849c-0.45682,-16.73843 2.23337,-26.89743 12.59569,-29.35665c9.26505,-2.19881 16.27065,1.34288 25.13692,16.04249c18.10794,30.02161 49.535,127.74042 56.21964,135.49272c6.70388,7.77458 16.84984,12.99499 29.05639,28.30131c12.86943,16.13756 19.28679,37.59293 13.34409,46.00352c-8.93004,12.63859 -27.52294,-4.81668 -27.52294,-4.81668c0,0 2.43806,27.79147 -11.82632,31.99261c-14.17067,4.17349 -27.935,-16.57733 -27.935,-16.57733c0,0 -6.85044,24.98792 -23.32076,19.44925c-14.18137,-4.76891 -8.92972,-40.86807 -8.92972,-40.86807c0,0 -20.9263,7.23266 -27.486,-4.83272c-6.17015,-11.34886 13.29948,-29.35156 21.0723,-38.48006c6.38351,-7.49685 -29.61422,-113.39948 -30.40432,-142.35037z" data-paper-data="{&quot;index&quot;:null}" fill="#f5af82" stroke-width="0"/><path d="M325.57205,469.86657c4.74006,0.62496 11.25059,7.32164 15.96153,4.78153c6.57588,-3.54566 10.67607,-16.84237 10.67607,-16.84237c0,0 10.56786,13.24324 19.88537,12.53654c4.45327,-0.33778 7.78237,-12.24763 11.10792,-14.58918c4.07369,10.45231 7.21642,17.80648 8.86118,19.71397c6.70388,7.77458 16.84984,12.99499 29.05639,28.30131c12.86943,16.13756 19.28679,37.59293 13.34409,46.00352c-8.93004,12.63859 -27.52294,-4.81668 -27.52294,-4.81668c0,0 2.43806,27.79147 -11.82632,31.99261c-14.17067,4.17349 -27.935,-16.57733 -27.935,-16.57733c0,0 -6.85044,24.98792 -23.32076,19.44925c-14.18137,-4.76891 -8.92972,-40.86807 -8.92972,-40.86807c0,0 -20.9263,7.23266 -27.486,-4.83272c-6.17015,-11.34886 13.29948,-29.35156 21.0723,-38.48006c1.79516,-2.1083 0.2386,-11.99909 -2.94411,-25.77232z" data-paper-data="{&quot;index&quot;:null}" fill="#ca8f6b" stroke-width="0"/><path d="M298.1119,353.28845c-0.45682,-16.73843 2.23337,-26.89743 12.59569,-29.35665c9.26505,-2.19881 16.27065,1.34288 25.13692,16.04249c18.10794,30.02161 49.535,127.74042 56.21964,135.49272c6.70388,7.77458 16.84984,12.99499 29.05639,28.30131c12.86943,16.13756 19.28679,37.59293 13.34409,46.00352c-8.93004,12.63859 -27.52294,-4.81668 -27.52294,-4.81668c0,0 2.43806,27.79147 -11.82632,31.99261c-14.17067,4.17349 -27.935,-16.57733 -27.935,-16.57733c0,0 -6.85044,24.98792 -23.32076,19.44925c-14.18137,-4.76891 -8.92972,-40.86807 -8.92972,-40.86807c0,0 -20.9263,7.23266 -27.486,-4.83272c-6.17015,-11.34886 13.29948,-29.35156 21.0723,-38.48006c6.38351,-7.49685 -29.61422,-113.39948 -30.40432,-142.35037z" data-paper-data="{&quot;index&quot;:null}" fill="none" stroke-width="2.5"/></g><g stroke="#000000" stroke-linecap="butt"><path d="M144.29709,353.28852c-0.7901,28.95088 -36.78783,134.85352 -30.40432,142.35037c7.77282,9.12851 27.24245,27.1312 21.0723,38.48006c-6.5597,12.06538 -27.486,4.83272 -27.486,4.83272c0,0 5.25165,36.09916 -8.92972,40.86807c-16.47032,5.53867 -23.32076,-19.44925 -23.32076,-19.44925c0,0 -13.76432,20.75082 -27.935,16.57733c-14.26438,-4.20114 -11.82632,-31.99261 -11.82632,-31.99261c0,0 -18.5929,17.45527 -27.52294,4.81668c-5.9427,-8.41059 0.47465,-29.86596 13.34409,-46.00352c12.20655,-15.30632 22.35251,-20.52673 29.05639,-28.30131c6.68464,-7.75231 38.1117,-105.47111 56.21964,-135.49272c8.86627,-14.69961 15.87187,-18.2413 25.13692,-16.04249c10.36232,2.45922 13.05251,12.61822 12.59569,29.35665z" data-paper-data="{&quot;index&quot;:null}" fill="#f5af82" stroke-width="0"/><path d="M113.89277,495.63889c7.77282,9.12851 27.24245,27.1312 21.0723,38.48006c-6.5597,12.06538 -27.486,4.83272 -27.486,4.83272c0,0 5.25165,36.09916 -8.92972,40.86807c-16.47032,5.53867 -23.32076,-19.44925 -23.32076,-19.44925c0,0 -13.76432,20.75082 -27.935,16.57733c-14.26438,-4.20114 -11.82632,-31.99261 -11.82632,-31.99261c0,0 -18.5929,17.45527 -27.52294,4.81668c-5.9427,-8.41059 0.47465,-29.86596 13.34409,-46.00352c12.20655,-15.30632 22.35251,-20.52673 29.05639,-28.30131c1.64476,-1.90749 4.78749,-9.26166 8.86118,-19.71397c3.32555,2.34155 6.65465,14.2514 11.10792,14.58918c9.31751,0.7067 19.88537,-12.53654 19.88537,-12.53654c0,0 4.10019,13.29671 10.67607,16.84237c4.71094,2.54011 11.22148,-4.15657 15.96153,-4.78153c-3.18271,13.77323 -4.73927,23.66402 -2.94411,25.77232z" data-paper-data="{&quot;index&quot;:null}" fill="#ca8f6b" stroke-width="0"/><path d="M144.29706,353.28849c-0.7901,28.95088 -36.78783,134.85352 -30.40432,142.35037c7.77282,9.12851 27.24245,27.1312 21.0723,38.48006c-6.5597,12.06538 -27.486,4.83272 -27.486,4.83272c0,0 5.25165,36.09916 -8.92972,40.86807c-16.47032,5.53867 -23.32076,-19.44925 -23.32076,-19.44925c0,0 -13.76432,20.75082 -27.935,16.57733c-14.26438,-4.20114 -11.82632,-31.99261 -11.82632,-31.99261c0,0 -18.5929,17.45527 -27.52294,4.81668c-5.9427,-8.41059 0.47465,-29.86596 13.34409,-46.00352c12.20655,-15.30632 22.35251,-20.52673 29.05639,-28.30131c6.68464,-7.75231 38.1117,-105.47111 56.21964,-135.49272c8.86627,-14.69961 15.87187,-18.2413 25.13692,-16.04249c10.36232,2.45922 13.05251,12.61822 12.59569,29.35665z" data-paper-data="{&quot;index&quot;:null}" fill="none" stroke-width="2.5"/></g><g data-paper-data="{&quot;index&quot;:null}" stroke="#000000" stroke-linecap="butt"><path d="M302.16655,-13.3704c0,0 57.43239,11.6306 84.6098,19.79685c25.26969,7.59304 73.14835,27.60631 73.14835,27.60631c0,0 -26.96251,16.83817 -38.94725,25.32306c-10.27416,7.27387 -28.62292,22.51501 -28.62292,22.51501z" fill="#f5af82" stroke-width="2.5"/><path d="M357.59397,25.66753c0,0 23.40583,4.73989 34.48163,8.06795c10.29832,3.09445 29.81069,11.25059 29.81069,11.25059c0,0 -10.98823,6.86218 -15.87246,10.32006c-4.18712,2.96436 -21.44621,17.87019 -21.44621,17.87019z" fill="#ca8f6b" stroke-width="0"/></g><g stroke="#000000" stroke-linecap="butt"><path d="M59.99524,78.6104c0,0 -18.34876,-15.24114 -28.62292,-22.51501c-11.98475,-8.48489 -38.94725,-25.32306 -38.94725,-25.32306c0,0 47.87866,-20.01328 73.14835,-27.60631c27.1774,-8.16625 84.6098,-19.79685 84.6098,-19.79685z" fill="#f5af82" stroke-width="2.5"/><path d="M67.78217,69.91589c0,0 -17.25912,-14.90584 -21.44621,-17.87019c-4.88423,-3.45792 -15.87246,-10.3201 -15.87246,-10.3201c0,0 19.51234,-8.15615 29.81066,-11.25059c11.0758,-3.32806 34.48163,-8.06795 34.48163,-8.06795z" fill="#ca8f6b" stroke-width="0"/></g><g data-paper-data="{&quot;index&quot;:null}" stroke="#000000" stroke-linecap="butt"><path d="M277.97431,836.54909c-23.21682,1.77306 -47.13098,1.05143 -51.19062,-2.45162c-4.97396,-4.29201 0,-314.42558 0,-314.42558h90.09111c0,0 3.01669,74.89793 4.24137,119.24506c0.86702,31.395 4.86519,106.60079 6.53059,148.7628c1.30261,32.97795 0.80986,37.40803 -1.28865,39.97898c-2.29998,2.8177 -25.51999,7.1443 -48.38377,8.89036z" fill="#f5af82" stroke-width="0"/><path d="M318.54004,562.76782c0.16785,4.48985 0.51531,13.95281 0.51531,13.95281c0,0 -25.34624,21.01485 -43.40561,31.04516c-18.05936,10.03034 -49.7435,14.56095 -49.7435,14.56095l0.87738,-102.65485h90.09111c0,0 0.75629,18.7778 1.6653,43.09596z" fill="#e4a279" stroke-width="0"/><path d="M277.97431,836.54909c-23.21682,1.77306 -47.13098,1.05143 -51.19062,-2.45162c-1.45041,-1.25155 -3.27038,-119.40586 -3.27038,-119.40586c0,0 21.08818,5.80495 29.92165,1.41011c8.0733,-4.01663 21.00412,-26.74683 21.00412,-26.74683c0,0 16.34203,21.20696 24.68095,20.43374c7.86665,-0.72942 24.0185,-24.94942 24.0185,-24.94942c0,0 3.9194,87.93375 4.50824,102.84059c1.30261,32.97795 0.80986,37.40803 -1.28865,39.97898c-2.29998,2.8177 -25.51999,7.1443 -48.38377,8.89036z" fill="#ca8f6b" stroke-width="0"/><path d="M277.97431,836.54909c-23.21682,1.77306 -47.13098,1.05143 -51.19062,-2.45162c-4.97396,-4.29201 0,-314.42558 0,-314.42558h90.09111c0,0 3.01669,74.89793 4.24137,119.24506c0.86702,31.395 4.86519,106.60079 6.53059,148.7628c1.30261,32.97795 0.80986,37.40803 -1.28865,39.97898c-2.29998,2.8177 -25.51999,7.1443 -48.38377,8.89036z" fill="none" stroke-width="2.5"/></g><g stroke="#000000" stroke-linecap="butt"><path d="M342.14971,438.75689c0,94.36806 -54.61479,160.14133 -121.98552,160.14133c-67.37076,0 -118.9957,-62.70837 -121.98552,-157.07646c-2.98822,-94.31833 54.61479,-184.6606 121.98552,-184.6606c67.37076,0 121.98552,87.22763 121.98552,181.59569z" fill="#e4a279" stroke-width="0"/><path d="M322.71584,411.88398c0,80.40328 -45.55316,136.4433 -101.74577,136.4433c-56.19265,0 -99.25203,-53.42868 -101.74577,-133.83196c-0.71335,-23.00003 12.27548,-66.44242 12.27548,-66.44242c0,0 53.08617,21.48853 89.47029,20.97736c36.38412,-0.51117 88.22637,-23.55786 88.22637,-23.55786c0,0 13.51943,43.22269 13.51943,66.41157z" fill="#f5af82" stroke-width="0"/><path d="M342.14971,438.75689c0,94.36806 -54.61479,160.14133 -121.98552,160.14133c-67.37076,0 -118.9957,-62.70837 -121.98552,-157.07646c-2.98822,-94.31833 54.61479,-184.6606 121.98552,-184.6606c67.37076,0 121.98552,87.22763 121.98552,181.59569z" fill="none" stroke-width="2.5"/></g><g stroke-linecap="butt"><g stroke="#000000"><path d="M408.38274,154.09309c0,102.40842 -83.36147,185.42683 -186.19304,185.42683c-80.52705,0 -149.11421,-50.91018 -175.07925,-122.17459c-7.19184,-19.73894 -11.11378,-41.03947 -11.11378,-63.25224c0,-102.40842 83.36147,-185.42683 186.19304,-185.42683c102.83159,0 186.19304,83.01841 186.19304,185.42683z" fill="#e4a279" stroke-width="0"/><path d="M391.52576,134.93741c0,89.28996 -76.12761,161.6738 -170.03581,161.6738c-21.75468,0 -42.55515,-3.88455 -61.67602,-10.96394c-63.418,-23.4801 -108.35979,-82.10474 -108.35979,-150.70987c0,-89.28996 76.12761,-161.6738 170.03581,-161.6738c93.90817,0 170.03581,72.38381 170.03581,161.6738z" fill="#f5af82" stroke-width="0"/><path d="M408.38274,154.09309c0,102.40842 -83.36147,185.42683 -186.19304,185.42683c-102.83159,0 -186.19304,-83.01841 -186.19304,-185.42683c0,-102.40842 83.36147,-185.42683 186.19304,-185.42683c102.83159,0 186.19304,83.01841 186.19304,185.42683z" fill="none" stroke-width="2.5"/></g><path d="M135.33239,203.24401c8.92509,19.12513 3.48687,41.98572 -12.14656,51.06056c-15.63343,9.07484 -35.54205,0.92753 -44.46717,-18.19761c-8.92509,-19.12513 -3.48691,-41.98572 12.14653,-51.06056c15.63343,-9.07484 35.54208,-0.92753 44.4672,18.19761z" fill="#ca8f6b" stroke="none" stroke-width="0"/><path d="M356.88496,186.57888c15.63343,9.07484 21.07161,31.93545 12.14653,51.06056c-8.92509,19.12513 -28.8337,27.27244 -44.46717,18.19761c-15.63343,-9.07484 -21.07161,-31.93545 -12.14653,-51.06056c8.92509,-19.12513 28.8337,-27.27244 44.46717,-18.19761z" data-paper-data="{&quot;index&quot;:null}" fill="#ca8f6b" stroke="none" stroke-width="0"/></g><path d="M381.35864,123.74117c9.24833,46.76017 -16.0061,91.57344 -56.40735,100.09319c-40.40124,8.51975 -80.65016,-22.48022 -89.89849,-69.24042c-9.24833,-46.76017 16.0061,-91.57344 56.40735,-100.09319c40.40124,-8.51975 80.65016,22.48022 89.89849,69.24042z" fill="#ca8f6b" stroke="none" stroke-width="0" stroke-linecap="butt"/><path d="M198.92877,153.65763c-7.80643,36.14491 -39.94778,59.87114 -71.78973,52.99403c-31.84191,-6.87711 -51.32654,-41.75331 -43.52014,-77.89822c7.80643,-36.14491 39.94778,-59.87114 71.78973,-52.99403c31.84191,6.87711 51.32654,41.75331 43.52014,77.89822z" fill="#ffffff" stroke="#000000" stroke-width="2.5" stroke-linecap="butt"/><g stroke="none" stroke-linecap="butt"><g><path d="M122.47548,141.21861c0,-14.67007 11.89244,-26.56252 26.56252,-26.56252c14.67007,0 26.56252,11.89244 26.56252,26.56252c0,14.67007 -11.89244,26.56252 -26.56252,26.56252c-14.67007,0 -26.56252,-11.89244 -26.56252,-26.56252z" fill="url(#color-1)" stroke-width="0.5"/><path d="M153.30004,167.33157l-2.47819,-12.88632l6.08499,-2.0484l6.7282,10.89012c0,0 -2.7641,2.06164 -5.01246,2.74868c-2.20079,0.6725 -5.3225,1.29596 -5.3225,1.29596z" fill="#bd6935" stroke-width="0"/><path d="M167.26126,160.47699l-8.4712,-9.585l3.3067,-3.11055l9.53371,7.13801c0,0 -1.11712,1.93517 -1.99751,3.055c-0.88038,1.11986 -2.37164,2.50248 -2.37164,2.50248z" fill="#bd6935" stroke-width="0"/></g><path d="M133.63175,141.21861c0,-8.50863 6.89762,-15.40628 15.40628,-15.40628c8.50863,0 15.40628,6.89762 15.40628,15.40628c0,8.50863 -6.89762,15.40628 -15.40628,15.40628c-8.50863,0 -15.40628,-6.89762 -15.40628,-15.40628z" fill="#000000" stroke-width="0.5"/><path d="M145.71796,135.831c-3.92977,3.84657 -9.82187,4.19987 -13.16039,0.78912c-3.33856,-3.41071 -2.85921,-9.29394 1.07053,-13.14047c3.92977,-3.84657 9.82187,-4.19987 13.16039,-0.78912c3.33856,3.41071 2.85921,9.29394 -1.07053,13.14047z" fill="#ffffff" stroke-width="0"/><path d="M134.32152,139.97775c0.78938,1.06378 0.70624,2.40891 -0.18575,3.00433c-0.89199,0.59545 -2.25498,0.21578 -3.04437,-0.84804c-0.78938,-1.06378 -0.70624,-2.40891 0.18575,-3.00433c0.89199,-0.59545 2.25498,-0.21578 3.04437,0.84804z" fill="#ffffff" stroke-width="0"/></g><path d="M290.34531,75.24859c31.84195,-6.87711 63.9833,16.84915 71.78973,52.99403c7.8064,36.14491 -11.6782,71.02111 -43.52014,77.89822c-31.84195,6.87711 -63.9833,-16.84915 -71.78973,-52.99403c-7.8064,-36.14491 11.6782,-71.02111 43.52014,-77.89822z" data-paper-data="{&quot;index&quot;:null}" fill="#ffffff" stroke="#000000" stroke-width="2.5" stroke-linecap="butt"/><g stroke="none" stroke-linecap="butt"><g><path d="M270.10182,140.19698c0,-14.67007 11.89244,-26.56252 26.56252,-26.56252c14.67007,0 26.56252,11.89244 26.56252,26.56252c0,14.67007 -11.89244,26.56248 -26.56252,26.56248c-14.67007,0 -26.56252,-11.89244 -26.56252,-26.56248z" fill="url(#color-2)" stroke-width="0.5"/><path d="M300.92638,166.30995l-2.47823,-12.88635l6.08499,-2.0484l6.7282,10.89012c0,0 -2.7641,2.06164 -5.0125,2.74868c-2.20076,0.6725 -5.3225,1.29593 -5.3225,1.29593z" fill="#bd6935" stroke-width="0"/><path d="M314.88753,159.45537l-8.47123,-9.585l3.3067,-3.11052l9.53371,7.13801c0,0 -1.11712,1.93517 -1.99754,3.055c-0.88042,1.11986 -2.37164,2.50248 -2.37164,2.50248z" fill="#bd6935" stroke-width="0"/></g><path d="M281.25809,140.19698c0,-8.50863 6.89762,-15.40628 15.40628,-15.40628c8.50863,0 15.40625,6.89762 15.40625,15.40628c0,8.50863 -6.89762,15.40625 -15.40625,15.40625c-8.50863,0 -15.40628,-6.89762 -15.40628,-15.40625z" fill="#000000" stroke-width="0.5"/><path d="M293.3443,134.80937c-3.92977,3.84657 -9.82187,4.19987 -13.16036,0.78912c-3.33856,-3.41074 -2.85921,-9.29394 1.07053,-13.14047c3.92977,-3.84657 9.82187,-4.19987 13.16036,-0.78912c3.33852,3.41074 2.85921,9.29394 -1.07053,13.14047z" fill="#ffffff" stroke-width="0"/><path d="M281.94783,138.95612c0.78938,1.06378 0.70621,2.40891 -0.18575,3.00433c-0.89196,0.59545 -2.25498,0.21578 -3.04433,-0.84804c-0.78935,-1.06378 -0.70621,-2.40891 0.18575,-3.00433c0.89196,-0.59545 2.25498,-0.21578 3.04433,0.84804z" fill="#ffffff" stroke-width="0"/></g><path d="M161.22658,32.48888c0.9006,2.78405 -3.587,6.0531 -10.02333,7.30155c-6.43633,1.24845 -20.61046,1.59931 -21.51106,-1.18478c-0.9006,-2.78405 11.81341,-7.64879 18.24974,-8.89724c6.43633,-1.24845 12.38408,-0.00362 13.28468,2.78047z" fill="#000000" stroke="none" stroke-width="0" stroke-linecap="butt"/><path d="M295.27007,28.68676c6.43633,1.24849 19.1503,6.11316 18.24971,8.89727c-0.9006,2.78405 -15.07473,2.43323 -21.51109,1.18478c-6.43633,-1.24849 -10.92393,-4.5175 -10.02333,-7.30155c0.9006,-2.78405 6.84838,-4.02895 13.28471,-2.78047z" data-paper-data="{&quot;index&quot;:null}" fill="#000000" stroke="none" stroke-width="0" stroke-linecap="butt"/><path d="M260.44897,245.44707c0,0 -9.45227,7.23347 -17.43323,8.14558c-7.98096,0.91211 -19.13909,-4.05902 -19.13909,-4.05902c0,0 -12.51727,4.43762 -20.39041,3.60885c-7.87314,-0.82877 -17.61663,-7.69541 -17.61663,-7.69541" fill="none" stroke="#000000" stroke-width="2.5" stroke-linecap="round"/><path d="M112.00931,374.15818c0,0 0.69601,-4.53334 1.55291,-7.10407c1.01735,-3.05203 4.15285,-10.01322 4.15285,-10.01322c0,0 11.40458,10.8374 17.88222,15.60393c7.7077,5.67169 25.31856,16.18533 25.31856,16.18533c0,0 -14.89185,-2.02222 -22.73718,-4.37583c-8.41665,-2.52501 -26.16937,-10.29613 -26.16937,-10.29613z" fill="#ca8f6b" stroke="none" stroke-width="0" stroke-linecap="butt"/><path d="M302.65897,383.63921c-7.84533,2.35361 -22.73718,4.37583 -22.73718,4.37583c0,0 17.61089,-10.5136 25.31856,-16.18533c6.47764,-4.76656 17.88222,-15.60393 17.88222,-15.60393c0,0 3.1355,6.96116 4.15282,10.01319c0.85691,2.57072 1.55295,7.1041 1.55295,7.1041c0,0 -17.75272,7.77112 -26.16937,10.29613z" data-paper-data="{&quot;index&quot;:null}" fill="#ca8f6b" stroke="none" stroke-width="0" stroke-linecap="butt"/><path d="M102.60817,429.6293c0,0 0.50498,-9.90067 1.08563,-14.25551c0.49109,-3.68325 2.17481,-10.19777 2.17481,-10.19777c0,0 7.03407,6.95904 11.04819,10.00005c4.80804,3.64243 15.85042,10.37768 15.85042,10.37768c0,0 -10.74568,3.08235 -15.90164,3.77907c-4.88211,0.65975 -14.2574,0.29647 -14.2574,0.29647z" fill="#ca8f6b" stroke="none" stroke-width="0" stroke-linecap="butt"/><path d="M323.10224,427.70264c-5.15596,-0.69676 -15.90164,-3.77911 -15.90164,-3.77911c0,0 11.04238,-6.73521 15.85042,-10.37768c4.01415,-3.04101 11.04819,-10.00005 11.04819,-10.00005c0,0 1.68372,6.51452 2.17481,10.19777c0.58065,4.35483 1.08563,14.25551 1.08563,14.25551c0,0 -9.37529,0.36328 -14.2574,-0.29644z" data-paper-data="{&quot;index&quot;:null}" fill="#ca8f6b" stroke="none" stroke-width="0" stroke-linecap="butt"/><path d="" fill="#ca8f6b" stroke="#000000" stroke-width="0" stroke-linecap="butt"/><g stroke="none" stroke-linecap="butt"><g fill="#996d51" stroke-width="0.5"><path d="M95.04174,212.53257c-0.65157,-2.10041 0.65427,-4.46445 2.91666,-5.28031c2.26238,-0.81583 4.6246,0.22549 5.27614,2.3259c0.65157,2.10041 -0.65427,4.46445 -2.91666,5.28031c-2.26238,0.81583 -4.6246,-0.22549 -5.27614,-2.3259z"/><path d="M88.17575,231.24607c-0.65157,-2.10041 0.65427,-4.46445 2.91666,-5.28031c2.26238,-0.81583 4.6246,0.22549 5.27614,2.3259c0.65157,2.10041 -0.65427,4.46445 -2.91666,5.28031c-2.26238,0.81583 -4.6246,-0.22549 -5.27614,-2.3259z"/><path d="M110.30459,223.49168c-0.65157,-2.10041 0.65427,-4.46445 2.91666,-5.28031c2.26238,-0.81583 4.6246,0.22549 5.27614,2.3259c0.65157,2.10041 -0.65427,4.46445 -2.91666,5.28031c-2.26238,0.81583 -4.6246,-0.22549 -5.27614,-2.3259z"/></g><path d="M37.96265,207.29774c0,0 17.44288,-5.62468 29.27438,-4.78616c11.8315,0.83852 34.07309,8.3132 31.86845,9.11954c-1.96024,0.71694 -21.25185,-3.29598 -31.63243,-4.03169c-9.98499,-0.70768 -29.51041,-0.30169 -29.51041,-0.30169z" fill="#000000" stroke-width="0"/><path d="M39.99295,258.45827c0,0 11.84732,-13.9833 22.33944,-19.51531c10.49212,-5.53202 33.32877,-10.92142 31.88172,-9.07298c-1.28663,1.64352 -19.79062,8.41639 -28.99611,13.27001c-8.85463,4.66862 -25.22508,15.31828 -25.22508,15.31828z" fill="#000000" stroke-width="0"/><path d="M53.89695,228.56326c0,0 16.2059,-8.5592 28.00396,-9.78137c11.79805,-1.22217 34.99775,2.28958 32.96598,3.46539c-1.80654,1.04546 -21.5016,0.43253 -31.85284,1.50482c-9.95675,1.03144 -29.11713,4.81117 -29.11713,4.81117z" fill="#000000" stroke-width="0"/></g><g data-paper-data="{&quot;index&quot;:null}" stroke="none" stroke-linecap="butt"><g fill="#996d51" stroke-width="0.5"><path d="M343.22813,216.48869c-2.26238,-0.81586 -3.56819,-3.1799 -2.91666,-5.28031c0.65157,-2.10037 3.01375,-3.14172 5.27614,-2.3259c2.26238,0.81586 3.56819,3.17994 2.91666,5.28031c-0.65157,2.10037 -3.01375,3.14172 -5.27614,2.32587z"/><path d="M350.09415,235.20219c-2.26238,-0.81586 -3.56819,-3.17994 -2.91666,-5.28031c0.65157,-2.10037 3.01378,-3.14172 5.27617,-2.32587c2.26238,0.81586 3.56819,3.1799 2.91662,5.28031c-0.65157,2.10037 -3.01375,3.14172 -5.27614,2.3259z"/><path d="M327.96531,227.44776c-2.26238,-0.81586 -3.56819,-3.1799 -2.91666,-5.28031c0.65157,-2.10037 3.01375,-3.14172 5.27614,-2.3259c2.26238,0.81586 3.56822,3.1799 2.91666,5.28031c-0.65157,2.10037 -3.01378,3.14172 -5.27617,2.3259z"/></g><path d="M376.07302,209.22965c-10.38058,0.73568 -29.67219,4.74866 -31.63243,4.03169c-2.20464,-0.80634 20.03695,-8.28102 31.86845,-9.11954c11.8315,-0.83852 29.27438,4.78616 29.27438,4.78616c0,0 -19.52539,-0.40599 -29.51037,0.30169z" fill="#000000" stroke-width="0"/><path d="M378.32803,244.77024c-9.20545,-4.85358 -27.70944,-11.62649 -28.99607,-13.27001c-1.44705,-1.84844 21.38961,3.54096 31.88176,9.07298c10.49212,5.53202 22.33944,19.51528 22.33944,19.51528c0,0 -16.37046,-10.64963 -25.22508,-15.31825z" fill="#000000" stroke-width="0"/><path d="M360.53198,225.38231c-10.35123,-1.07229 -30.04629,-0.45936 -31.85284,-1.50482c-2.03177,-1.17578 21.16793,-4.68756 32.96598,-3.46539c11.79805,1.22217 28.00396,9.78137 28.00396,9.78137c0,0 -19.16038,-3.77973 -29.11713,-4.81117z" fill="#000000" stroke-width="0"/></g><path d="M235.40927,191.34788c0,2.26242 -12.87455,11.11894 -12.87455,11.11894c0,0 -12.87455,-9.07203 -12.87455,-11.11894c0,-2.26242 5.76413,-4.09645 12.87455,-4.09645c7.11043,0 12.87455,1.83403 12.87455,4.09645z" fill="#996d51" stroke="none" stroke-width="0" stroke-linecap="butt"/><path d="M222.54907,171.20262c13.05498,0 23.63817,9.37376 23.63817,9.37376c0,0 -10.58318,-3.81132 -23.63817,-3.81132c-13.05498,0 -23.63817,3.81132 -23.63817,3.81132c0,0 10.58318,-9.37376 23.63817,-9.37376z" fill="#e4a279" stroke="none" stroke-width="0" stroke-linecap="butt"/><path d="M205.76349,-25.57591c0,0 9.97433,-1.0868 15.21538,-1.0868c5.6029,0 17.38898,1.0868 17.38898,1.0868c0,0 -5.09495,15.76535 -7.45196,25.03627c-2.94502,11.58368 -8.85023,39.08566 -8.85023,39.08566c0,0 -5.66563,-26.55958 -8.58629,-38.0475c-2.41784,-9.51011 -7.71589,-26.0744 -7.71589,-26.0744z" fill="#ca8f6b" stroke="none" stroke-width="0" stroke-linecap="butt"/><path d="M261.15502,834.14182l0.41747,-18.50301" data-paper-data="{&quot;index&quot;:null}" fill="none" stroke="#000000" stroke-width="2.5" stroke-linecap="round"/><path d="M298.85877,812.39197l1.08683,18.47582" data-paper-data="{&quot;index&quot;:null}" fill="none" stroke="#000000" stroke-width="2.5" stroke-linecap="round"/></g></g></g></svg>