<svg version="1.1" xmlns="http://www.w3.org/2000/svg" xmlns:xlink="http://www.w3.org/1999/xlink" width="158.15454" height="286.55983" viewBox="0,0,158.15454,286.55983"><defs><linearGradient x1="206.443" y1="100.52087" x2="206.443" y2="116.81472" gradientUnits="userSpaceOnUse" id="color-1"><stop offset="0" stop-color="#323232"/><stop offset="1" stop-color="#232323"/></linearGradient><linearGradient x1="251.72108" y1="100.20754" x2="251.72108" y2="116.50137" gradientUnits="userSpaceOnUse" id="color-2"><stop offset="0" stop-color="#323232"/><stop offset="1" stop-color="#232323"/></linearGradient></defs><g transform="translate(-160.92272,-36.72008)"><g data-paper-data="{&quot;isPaintingLayer&quot;:true}" fill-rule="nonzero" stroke-linejoin="miter" stroke-miterlimit="10" stroke-dasharray="" stroke-dashoffset="0" style="mix-blend-mode: normal"><path d="M317.62872,164.3428c0,0 -4.8758,74.8996 -32.64232,90.13581c-26.31539,14.43995 -50.78984,5.23244 -58.07609,-12.11745c-8.34245,-19.86489 8.34986,-33.23794 36.65792,-43.2195c25.85146,-9.11536 54.06049,-34.79886 54.06049,-34.79886z" fill="#666666" stroke="#000000" stroke-width="2.5" stroke-linecap="butt"/><g data-paper-data="{&quot;index&quot;:null}" stroke="#000000" stroke-linecap="butt"><path d="M296.16276,37.97008c2.82981,1.07668 -7.49255,50.9981 -11.48911,54.07061c-3.36398,2.5862 -13.74107,-0.12867 -23.93513,-7.97568c-10.19407,-7.84701 -14.89312,-17.448 -12.98084,-20.44086c1.87451,-2.93375 44.4299,-27.16654 48.40509,-25.65407z" fill="#646464" stroke-width="0"/><path d="M259.65919,55.68641c1.42509,6.30342 5.12422,12.31134 10.8909,16.75031c5.71536,4.39947 12.47471,6.49809 19.00231,6.39886c-1.84639,6.95521 -3.65778,12.26644 -4.87875,13.20511c-3.36398,2.5862 -13.74107,-0.12868 -23.93513,-7.97569c-10.19407,-7.84701 -14.89312,-17.44799 -12.98084,-20.44085c0.60621,-0.94876 5.46696,-4.12504 11.90152,-7.93774z" fill="#515151" stroke-width="0"/><path d="M290.35616,45.9449c1.77141,0.61574 -6.43701,33.58069 -9.08778,35.71445c-2.2312,1.79603 -8.76707,0.34459 -15.01964,-4.4684c-6.25257,-4.81299 -8.94063,-10.94433 -7.62289,-12.96098c1.29171,-1.97682 29.24191,-19.15002 31.73031,-18.28507z" fill="#323232" stroke-width="0"/><path d="M296.16276,37.97008c2.82981,1.07669 -7.49254,50.99809 -11.48911,54.07061c-3.36398,2.5862 -13.74107,-0.12867 -23.93513,-7.97568c-10.19407,-7.84701 -14.89313,-17.44799 -12.98084,-20.44086c1.87452,-2.93376 44.42989,-27.16654 48.40509,-25.65407z" fill="none" stroke-width="2.5"/></g><g stroke="#000000" stroke-linecap="butt"><path d="M211.06218,63.95748c1.91228,2.99286 -2.78677,12.59385 -12.98084,20.44086c-10.19406,7.84701 -20.57115,10.56188 -23.93514,7.97568c-3.99656,-3.07251 -14.31891,-52.99393 -11.48911,-54.07061c3.97519,-1.51247 46.53057,22.72032 48.40508,25.65407z" fill="#646464" stroke-width="0"/><path d="M211.06218,63.95748c1.91228,2.99286 -2.78677,12.59385 -12.98084,20.44086c-10.19406,7.84701 -20.57115,10.56188 -23.93514,7.97568c-1.22097,-0.93867 -3.03235,-6.2499 -4.87874,-13.20511c6.5276,0.09923 13.28694,-1.99939 19.0023,-6.39886c5.76667,-4.43897 9.46582,-10.44689 10.8909,-16.75031c6.43456,3.8127 11.29531,6.98898 11.90151,7.93774z" fill="#515151" stroke-width="0"/><path d="M200.19401,64.56329c1.31774,2.01665 -1.37033,8.14799 -7.62289,12.96098c-6.25256,4.81299 -12.78844,6.26444 -15.01964,4.4684c-2.65077,-2.13376 -10.85918,-35.09871 -9.08777,-35.71444c2.48839,-0.86496 30.4386,16.30824 31.73031,18.28506z" fill="#323232" stroke-width="0"/><path d="M211.06218,63.95748c1.91229,2.99286 -2.78677,12.59385 -12.98084,20.44086c-10.19406,7.84701 -20.57115,10.56188 -23.93514,7.97568c-3.99657,-3.07252 -14.31892,-52.99392 -11.48911,-54.07061c3.9752,-1.51248 46.53057,22.72031 48.40508,25.65407z" fill="none" stroke-width="2.5"/></g><path d="M252.6819,165.30138c2.82549,-0.73923 4.99846,0.29756 7.82026,4.74265c5.76306,9.07835 16.08526,38.82105 18.18935,41.15119c2.11016,2.33686 5.25782,3.86639 9.10809,8.47404c4.05937,4.8579 6.17767,11.39166 4.4145,14.01227c-2.64948,3.93799 -8.47309,-1.28378 -8.47309,-1.28378c0,0 0.94263,8.50452 -3.40175,9.8928c-4.31583,1.37917 -8.68196,-4.88701 -8.68196,-4.88701c0,0 -1.92516,7.71006 -7.01428,6.12734c-4.38186,-1.36276 -3.0249,-12.4686 -3.0249,-12.4686c0,0 -6.36581,2.36458 -8.46188,-1.28895c-1.97159,-3.43656 3.87199,-9.09331 6.1913,-11.94691c1.90476,-2.34354 -9.87635,-34.56351 -10.32178,-43.43511c-0.25754,-5.12925 0.49604,-8.26316 3.65614,-9.08994z" data-paper-data="{&quot;index&quot;:null}" fill="#666666" stroke="#000000" stroke-width="2.5" stroke-linecap="butt"/><path d="M206.9889,173.37787c-0.24233,8.87945 -11.28309,41.36057 -9.32523,43.65991c2.38398,2.79979 8.35546,8.32134 6.46303,11.80212c-2.01191,3.70054 -8.43016,1.48223 -8.43016,1.48223c0,0 1.61072,11.07188 -2.73881,12.53454c-5.05157,1.69875 -7.15265,-5.96523 -7.15265,-5.96523c0,0 -4.22161,6.36443 -8.56787,5.08439c-4.37499,-1.28851 -3.62722,-9.81236 -3.62722,-9.81236c0,0 -5.70258,5.35366 -8.44149,1.47732c-1.82267,-2.57959 0.14558,-9.16011 4.09273,-14.10962c3.74383,-4.69457 6.85568,-6.29569 8.91181,-8.68022c2.05023,-2.37769 11.68914,-32.34877 17.24298,-41.55662c2.71935,-4.50849 4.86802,-5.59473 7.70968,-4.92034c3.1782,0.75426 4.0033,3.8701 3.86319,9.0039z" data-paper-data="{&quot;index&quot;:null}" fill="#666666" stroke="#000000" stroke-width="2.5" stroke-linecap="butt"/><g data-paper-data="{&quot;index&quot;:null}" stroke="#000000" stroke-linecap="butt"><path d="M245.9887,321.9308c-7.12077,0.54381 -14.45542,0.32247 -15.70054,-0.75193c-1.52555,-1.31639 0,-96.43664 0,-96.43664h27.63161c0,0 0.92525,22.97176 1.30086,36.57334c0.26592,9.62908 1.49219,32.69525 2.00297,45.62665c0.39952,10.11458 0.2484,11.47332 -0.39524,12.26185c-0.70542,0.86421 -7.82717,2.19121 -14.83966,2.72674z" fill="#666666" stroke-width="0"/><path d="M258.43051,237.96006c0.05147,1.37707 0.15805,4.27943 0.15805,4.27943c0,0 -7.77388,6.44541 -13.31281,9.52178c-5.53894,3.07638 -15.2567,4.46595 -15.2567,4.46595l0.2691,-31.485h27.63161c0,0 0.23196,5.75929 0.51076,13.21785z" fill="#4c4c4c" stroke-width="0"/><path d="M245.9887,321.9308c-7.12077,0.54381 -14.45542,0.32247 -15.70054,-0.75193c-0.44485,-0.38386 -0.66972,-27.28933 -0.66972,-27.28933c0,0 7.80055,10.09692 16.95264,7.89571c9.93315,-2.38905 13.60314,-20.71832 13.60314,-20.71832c0,0 0.86879,21.30325 1.04939,25.87529c0.39952,10.11458 0.2484,11.47332 -0.39524,12.26185c-0.70542,0.86421 -7.82717,2.19121 -14.83966,2.72674z" fill="#4c4c4c" stroke-width="0"/><path d="M245.9887,321.9308c-7.12077,0.54381 -14.45542,0.32247 -15.70054,-0.75193c-1.52555,-1.31639 0,-96.43664 0,-96.43664h27.63161c0,0 0.92525,22.97176 1.30086,36.57334c0.26592,9.62908 1.49219,32.69525 2.00297,45.62665c0.39952,10.11458 0.2484,11.47332 -0.39524,12.26185c-0.70542,0.86421 -7.82717,2.19121 -14.83966,2.72674z" fill="none" stroke-width="2.5"/></g><g stroke="#000000" stroke-linecap="butt"><path d="M196.69792,318.89071c-0.64364,-0.78852 -0.79476,-2.14726 -0.39524,-12.26184c0.51078,-12.9314 1.73706,-35.99757 2.00298,-45.62665c0.37562,-13.60158 1.30086,-36.57334 1.30086,-36.57334h27.63161c0,0 1.52555,95.12026 0,96.43665c-1.24511,1.07441 -8.57977,1.29573 -15.70054,0.75192c-7.01249,-0.53553 -14.13425,-1.86253 -14.83966,-2.72674z" fill="#666666" stroke-width="0"/><path d="M199.60652,224.42887h27.63161l0.2691,31.485c0,0 -9.71777,-1.38957 -15.2567,-4.46595c-5.53894,-3.07638 -13.31282,-9.52178 -13.31282,-9.52178c0,0 0.10657,-2.90235 0.15805,-4.27943c0.2788,-7.45856 0.51076,-13.21785 0.51076,-13.21785z" fill="#4c4c4c" stroke-width="0"/><path d="M196.69792,318.89071c-0.64364,-0.78852 -0.79476,-2.14726 -0.39524,-12.26184c0.1806,-4.57204 1.04937,-25.87529 1.04937,-25.87529c0,0 3.66999,18.32927 13.60314,20.71832c9.15208,2.2012 16.95264,-7.89571 16.95264,-7.89571c0,0 -0.22487,26.90548 -0.66972,27.28934c-1.24511,1.07441 -8.57977,1.29574 -15.70054,0.75193c-7.01249,-0.53553 -14.13425,-1.86253 -14.83966,-2.72674z" fill="#4c4c4c" stroke-width="0"/><path d="M196.69792,318.89071c-0.64364,-0.78852 -0.79476,-2.14726 -0.39524,-12.26184c0.51078,-12.9314 1.73706,-35.99757 2.00298,-45.62665c0.37562,-13.60158 1.30086,-36.57334 1.30086,-36.57334h27.63161c0,0 1.52555,95.12026 0,96.43665c-1.24511,1.07441 -8.57977,1.29573 -15.70054,0.75192c-7.01249,-0.53553 -14.13425,-1.86253 -14.83966,-2.72674z" fill="none" stroke-width="2.5"/></g><g stroke="#000000" stroke-linecap="butt"><path d="M265.67177,199.925c0,28.94338 -16.75076,49.11653 -37.41387,49.11653c-20.66311,0 -36.49686,-19.23312 -37.41387,-48.1765c-0.91651,-28.92812 16.75076,-56.63677 37.41387,-56.63677c20.66311,0 37.41387,26.75336 37.41387,55.69674z" fill="#4c4c4c" stroke-width="0"/><path d="M259.71127,191.68288c0,24.66028 -13.97149,41.84817 -31.20618,41.84817c-17.23469,0 -30.44133,-16.38697 -31.20619,-41.04725c-0.21879,-7.05428 3.76498,-20.37838 3.76498,-20.37838c0,0 16.28192,6.59069 27.44119,6.43391c11.15928,-0.15678 27.05968,-7.22537 27.05968,-7.22537c0,0 4.14651,13.25672 4.14651,20.36892z" fill="#666666" stroke-width="0"/><path d="M265.67177,199.925c0,28.94338 -16.75076,49.11653 -37.41387,49.11653c-20.66311,0 -36.49686,-19.23312 -37.41387,-48.1765c-0.91651,-28.92812 16.75076,-56.63677 37.41387,-56.63677c20.66311,0 37.41387,26.75336 37.41387,55.69674z" fill="none" stroke-width="2.5"/></g><g stroke-linecap="butt"><g stroke="#000000"><path d="M285.98594,112.6165c0,31.40942 -25.56758,56.87178 -57.10679,56.87178c-31.53921,0 -57.10678,-25.46236 -57.10678,-56.87178c0,-31.40942 25.56758,-56.87177 57.10679,-56.87177c31.53921,0 57.10679,25.46236 57.10679,56.87178z" fill="#4c4c4c" stroke-width="0"/><path d="M280.81578,106.74131c0,27.38589 -23.3489,49.58655 -52.15125,49.58655c-28.80233,0 -52.15124,-22.20066 -52.15124,-49.58655c0,-27.3859 23.3489,-49.58655 52.15124,-49.58655c28.80233,0 52.15125,22.20065 52.15125,49.58655z" fill="#646464" stroke-width="0"/><path d="M285.98594,112.6165c0,31.40942 -25.56758,56.87178 -57.10679,56.87178c-31.53921,0 -57.10678,-25.46236 -57.10678,-56.87178c0,-31.40942 25.56758,-56.87177 57.10679,-56.87177c31.53921,0 57.10679,25.46236 57.10679,56.87178z" fill="none" stroke-width="2.5"/></g><path d="M202.23937,127.69146c2.73739,5.86582 1.06945,12.87733 -3.72544,15.66065c-4.79489,2.78332 -10.90101,0.28448 -13.63841,-5.58134c-2.73739,-5.86582 -1.06946,-12.87733 3.72543,-15.66065c4.79489,-2.78332 10.90102,-0.28448 13.63842,5.58134z" fill="#323232" stroke="none" stroke-width="0"/><path d="M270.19116,122.58013c4.79489,2.78332 6.46283,9.79485 3.72543,15.66066c-2.73739,5.86582 -8.84351,8.36466 -13.6384,5.58134c-4.79489,-2.78332 -6.46283,-9.79484 -3.72543,-15.66065c2.73739,-5.86582 8.84351,-8.36467 13.6384,-5.58134z" data-paper-data="{&quot;index&quot;:null}" fill="#323232" stroke="none" stroke-width="0"/></g><path d="M221.74486,112.48294c-2.39429,11.08591 -12.25227,18.36292 -22.01844,16.25366c-9.76615,-2.10925 -15.74223,-12.80605 -13.34795,-23.89195c2.39429,-11.0859 12.25227,-17.36292 22.01844,-15.25366c9.76615,2.10926 15.74223,11.80605 13.34795,22.89195z" fill="#ffffff" stroke="#000000" stroke-width="2.5" stroke-linecap="butt"/><g stroke="none" stroke-linecap="butt"><g><path d="M198.29607,108.6678c0,-4.49942 3.6475,-8.14693 8.14692,-8.14693c4.49942,0 8.14693,3.64751 8.14693,8.14693c0,4.49942 -3.64751,8.14692 -8.14693,8.14692c-4.49942,0 -8.14692,-3.6475 -8.14692,-8.14692z" fill="url(#color-1)" stroke-width="0.5"/><path d="M207.75019,116.67684l-0.76008,-3.95233l1.8663,-0.62826l2.06359,3.34009c0,0 -0.84777,0.63232 -1.53736,0.84304c-0.67499,0.20626 -1.63244,0.39748 -1.63244,0.39748z" fill="#121212" stroke-width="0"/><path d="M212.03219,114.57449l-2.59819,-2.93979l1.01418,-0.95403l2.92407,2.18928c0,0 -0.34263,0.59353 -0.61266,0.937c-0.27003,0.34347 -0.72741,0.76753 -0.72741,0.76753z" fill="#121212" stroke-width="0"/></g><path d="M201.71777,108.6678c0,-2.60967 2.11555,-4.72522 4.72522,-4.72522c2.60967,0 4.72522,2.11555 4.72522,4.72522c0,2.60967 -2.11555,4.72521 -4.72522,4.72521c-2.60967,0 -4.72522,-2.11554 -4.72522,-4.72521z" fill="#000000" stroke-width="0.5"/><path d="M205.4247,107.01538c-1.20529,1.17977 -3.01243,1.28813 -4.03639,0.24203c-1.02396,-1.04609 -0.87694,-2.85051 0.32834,-4.03028c1.20529,-1.17977 3.01244,-1.28813 4.03639,-0.24203c1.02396,1.04609 0.87694,2.85051 -0.32835,4.03028z" fill="#ffffff" stroke-width="0"/><path d="M201.92934,108.28722c0.24212,0.32627 0.21661,0.73883 -0.05696,0.92146c-0.27357,0.18263 -0.69161,0.06617 -0.93373,-0.2601c-0.24212,-0.32627 -0.21661,-0.73882 0.05696,-0.92145c0.27357,-0.18263 0.69161,-0.06618 0.93373,0.2601z" fill="#ffffff" stroke-width="0"/></g><path d="M249.78298,89.43431c9.76617,-2.10926 19.62415,4.16776 22.01844,15.25366c2.39429,11.0859 -3.58179,21.7827 -13.34795,23.89195c-9.76617,2.10925 -19.62415,-5.16776 -22.01844,-16.25366c-2.39428,-11.0859 3.58179,-20.7827 13.34795,-22.89195z" data-paper-data="{&quot;index&quot;:null}" fill="#ffffff" stroke="#000000" stroke-width="2.5" stroke-linecap="butt"/><g stroke="none" stroke-linecap="butt"><g><path d="M243.57415,108.35446c0,-4.49942 3.64751,-8.14692 8.14693,-8.14692c4.49942,0 8.14692,3.6475 8.14692,8.14692c0,4.49942 -3.6475,8.14691 -8.14692,8.14691c-4.49942,0 -8.14693,-3.6475 -8.14693,-8.14691z" fill="url(#color-2)" stroke-width="0.5"/><path d="M253.02827,116.3635l-0.76009,-3.95235l1.86631,-0.62826l2.06359,3.34009c0,0 -0.84778,0.63232 -1.53737,0.84304c-0.67499,0.20626 -1.63245,0.39748 -1.63245,0.39748z" fill="#121212" stroke-width="0"/><path d="M257.31026,114.26115l-2.59819,-2.93979l1.01418,-0.95401l2.92406,2.18928c0,0 -0.34262,0.59352 -0.61266,0.93699c-0.27004,0.34347 -0.7274,0.76753 -0.7274,0.76753z" fill="#121212" stroke-width="0"/></g><path d="M246.99586,108.35446c0,-2.60967 2.11556,-4.72522 4.72522,-4.72522c2.60967,0 4.7252,2.11555 4.7252,4.72522c0,2.60967 -2.11555,4.72521 -4.7252,4.72521c-2.60967,0 -4.72522,-2.11554 -4.72522,-4.72521z" fill="#000000" stroke-width="0.5"/><path d="M250.70279,106.70204c-1.20529,1.17977 -3.01243,1.28813 -4.03638,0.24203c-1.02396,-1.0461 -0.87694,-2.85052 0.32834,-4.03028c1.20529,-1.17977 3.01244,-1.28813 4.03638,-0.24203c1.02395,1.0461 0.87694,2.85052 -0.32835,4.03028z" fill="#ffffff" stroke-width="0"/><path d="M247.20741,107.97388c0.24212,0.32627 0.2166,0.73882 -0.05697,0.92145c-0.27357,0.18263 -0.69162,0.06618 -0.93372,-0.2601c-0.2421,-0.32627 -0.2166,-0.73882 0.05696,-0.92145c0.27357,-0.18263 0.69162,-0.06618 0.93372,0.2601z" fill="#ffffff" stroke-width="0"/></g><path d="M212.22254,78.50852c0.06163,0.89534 -1.51628,1.53556 -3.52437,1.42996c-2.00809,-0.1056 -10.7525,-1.30197 -10.81414,-2.19731c-0.06163,-0.89534 8.58286,-1.1506 10.59095,-1.045c2.00809,0.1056 3.68593,0.91701 3.74757,1.81235z" fill="#000000" stroke="none" stroke-width="0" stroke-linecap="butt"/><path d="M248.94991,76.64871c2.00978,-0.06612 10.63475,-0.05315 10.55554,0.84081c-0.07921,0.89395 -8.83262,2.33037 -10.84239,2.3965c-2.00978,0.06612 -3.57482,-0.60497 -3.4956,-1.49892c0.07921,-0.89395 1.77268,-1.67226 3.78246,-1.73838z" data-paper-data="{&quot;index&quot;:null}" fill="#000000" stroke="none" stroke-width="0" stroke-linecap="butt"/><path d="M217.73951,140.63545c0,0 3.92921,9.36711 6.10671,9.22925c1.5663,-0.09916 5.01105,8.23906 5.01105,8.23906c0,0 8.25344,-11.61361 10.17389,-11.483c1.73694,0.11813 1.58239,-5.98531 1.58239,-5.98531" fill="none" stroke="#000000" stroke-width="2.5" stroke-linecap="round"/><path d="M217.13601,138.68005l5.61423,8.9449l-3.57143,6.42857z" fill="#ffffff" stroke="#000000" stroke-width="2.5" stroke-linecap="butt"/><path d="M238.86528,155.55379l-3.57143,-6.42857l3.67095,-5.05833z" data-paper-data="{&quot;index&quot;:null}" fill="#ffffff" stroke="#000000" stroke-width="2.5" stroke-linecap="butt"/><path d="M210.01723,130.28285c0,-5.83844 8.37867,-11.57143 18.71429,-11.57143c10.33561,0 18.71429,5.73299 18.71429,11.57143" fill="#646464" stroke="#000000" stroke-width="2.5" stroke-linecap="butt"/><path d="M233.47926,121.58218c0,0.66911 -2.09651,3.28846 -4.68269,3.28846c-2.58618,0 -4.68269,-2.61935 -4.68269,-3.28846c0,-0.66911 2.09651,-1.21154 4.68269,-1.21154c2.58618,0 4.68269,0.54242 4.68269,1.21154z" fill="#000000" stroke="none" stroke-width="0" stroke-linecap="butt"/><path d="M223.67077,59.16465c0,0 3.62795,-4.47816 2.33166,-8.16341c-1.09942,-3.12556 -6.67834,-7.40659 -6.67834,-7.40659c0,0 10.57873,0.35207 14.1228,4.24712c3.54407,3.89506 1.66493,11.63968 1.66493,11.63968" fill="#646464" stroke="#000000" stroke-width="2.5" stroke-linecap="round"/><path d="M204.83601,319.95129c0,0 -0.10477,-1.96061 -0.02626,-3.02046c0.08724,-1.1777 0.52626,-3.72954 0.52626,-3.72954" fill="none" stroke="#000000" stroke-width="2.5" stroke-linecap="round"/><path d="M253.03057,312.95129c0,0 0.43902,2.55184 0.52626,3.72954c0.0785,1.05985 -0.02626,3.02046 -0.02626,3.02046" data-paper-data="{&quot;index&quot;:null}" fill="none" stroke="#000000" stroke-width="2.5" stroke-linecap="round"/><path d="M242.87314,314.20129c0,0 0.29268,2.55184 0.35084,3.72954c0.05234,1.05985 -0.01751,3.02046 -0.01751,3.02046" data-paper-data="{&quot;index&quot;:null}" fill="none" stroke="#000000" stroke-width="2.5" stroke-linecap="round"/><path d="M215.1601,320.70129c0,0 -0.06984,-1.96061 -0.01751,-3.02046c0.05815,-1.1777 0.35084,-3.72954 0.35084,-3.72954" data-paper-data="{&quot;index&quot;:null}" fill="none" stroke="#000000" stroke-width="2.5" stroke-linecap="round"/></g></g></svg>