<svg version="1.1" xmlns="http://www.w3.org/2000/svg" xmlns:xlink="http://www.w3.org/1999/xlink" width="118.87641" height="282.11399" viewBox="0,0,118.87641,282.11399"><defs><linearGradient x1="288.95987" y1="56.49724" x2="288.95987" y2="72.79109" gradientUnits="userSpaceOnUse" id="color-1"><stop offset="0" stop-color="#3d1775"/><stop offset="1" stop-color="#30125e"/></linearGradient><linearGradient x1="215.07034" y1="56.49724" x2="215.07034" y2="72.79109" gradientUnits="userSpaceOnUse" id="color-2"><stop offset="0" stop-color="#3d1775"/><stop offset="1" stop-color="#30125e"/></linearGradient></defs><g transform="translate(-178.23038,-38.94301)"><g data-paper-data="{&quot;isPaintingLayer&quot;:true}" fill-rule="nonzero" stroke-linejoin="miter" stroke-miterlimit="10" stroke-dasharray="" stroke-dashoffset="0" style="mix-blend-mode: normal"><path d="M191.28572,180.72182c0,-17.96611 -0.48552,-39.21359 7.49789,-51.14001c8.26099,-12.34109 25.20779,-15.05211 37.98105,-15.05211c11.55247,0 28.40292,0.86575 36.42487,11.19415c9.41932,12.12754 9.05407,35.25506 9.05407,54.99796c0,19.74289 -2.78674,39.71841 -12.20607,51.84595c-8.02195,10.3284 -21.72039,14.34616 -33.27286,14.34616c-10.04985,0 -25.19206,-4.2941 -32.71955,-12.32795c-11.28577,-12.04494 -12.75939,-31.93428 -12.75939,-53.86417z" data-paper-data="{&quot;index&quot;:null}" fill="#3a166f" stroke="#000000" stroke-width="2.5" stroke-linecap="butt"/><g data-paper-data="{&quot;index&quot;:null}" stroke="#000000" stroke-linecap="butt"><path d="M219.47763,319.7079c-7.01249,-0.53553 -14.13424,-1.86253 -14.83966,-2.72674c-0.64364,-0.78853 -0.79476,-2.14727 -0.39524,-12.26185c0.51078,-12.9314 1.73705,-35.99757 2.00297,-45.62665c0.37561,-13.60158 1.30086,-36.57334 1.30086,-36.57334h27.63161c0,0 1.52555,95.12025 0,96.43664c-1.24512,1.0744 -8.57977,1.29574 -15.70054,0.75193z" fill="#702bd6" stroke-width="0"/><path d="M207.03581,235.73716c0.2788,-7.45856 0.51076,-13.21785 0.51076,-13.21785h27.63161l0.2691,31.485c0,0 -9.71776,-1.38957 -15.2567,-4.46595c-5.53893,-3.07637 -13.31281,-9.52178 -13.31281,-9.52178c0,0 0.10658,-2.90236 0.15805,-4.27943z" fill="#6025b9" stroke-width="0"/><path d="M219.47762,319.7079c-7.01249,-0.53553 -14.13424,-1.86253 -14.83966,-2.72674c-0.64364,-0.78853 -0.79476,-2.14727 -0.39524,-12.26185c0.1806,-4.57204 1.04939,-25.87529 1.04939,-25.87529c0,0 3.66999,18.32927 13.60314,20.71832c9.15209,2.20121 16.95264,-7.89571 16.95264,-7.89571c0,0 -0.22487,26.90547 -0.66972,27.28933c-1.24512,1.0744 -8.57977,1.29574 -15.70054,0.75193z" fill="#6025b9" stroke-width="0"/><path d="M219.47763,319.7079c-7.01249,-0.53553 -14.13424,-1.86253 -14.83966,-2.72674c-0.64364,-0.78853 -0.79476,-2.14727 -0.39524,-12.26185c0.51078,-12.9314 1.73705,-35.99757 2.00297,-45.62665c0.37561,-13.60158 1.30086,-36.57334 1.30086,-36.57334h27.63161c0,0 1.52555,95.12025 0,96.43664c-1.24512,1.0744 -8.57977,1.29574 -15.70054,0.75193z" fill="none" stroke-width="2.5"/></g><g data-paper-data="{&quot;index&quot;:null}" stroke="#000000" stroke-linecap="butt"><path d="M268.7684,316.6678c-0.70541,0.86421 -7.82717,2.19121 -14.83966,2.72674c-7.12077,0.54381 -14.45543,0.32249 -15.70054,-0.75192c-1.52555,-1.31639 0,-96.43665 0,-96.43665h27.63161c0,0 0.92524,22.97176 1.30086,36.57334c0.26592,9.62908 1.4922,32.69525 2.00298,45.62665c0.39952,10.11458 0.2484,11.47332 -0.39524,12.26184z" fill="#702bd6" stroke-width="0"/><path d="M265.85981,222.20595c0,0 0.23196,5.75929 0.51076,13.21785c0.05148,1.37708 0.15805,4.27943 0.15805,4.27943c0,0 -7.77388,6.4454 -13.31282,9.52178c-5.53893,3.07638 -15.2567,4.46595 -15.2567,4.46595l0.2691,-31.485h27.63161z" fill="#6025b9" stroke-width="0"/><path d="M268.76842,316.66781c-0.70541,0.86421 -7.82717,2.19121 -14.83966,2.72674c-7.12077,0.54381 -14.45543,0.32248 -15.70054,-0.75193c-0.44485,-0.38386 -0.66972,-27.28934 -0.66972,-27.28934c0,0 7.80056,10.09691 16.95264,7.89571c9.93315,-2.38905 13.60314,-20.71832 13.60314,-20.71832c0,0 0.86877,21.30325 1.04937,25.87529c0.39952,10.11458 0.2484,11.47332 -0.39524,12.26184z" fill="#6025b9" stroke-width="0"/><path d="M268.7684,316.6678c-0.70541,0.86421 -7.82717,2.19121 -14.83966,2.72674c-7.12077,0.54381 -14.45543,0.32249 -15.70054,-0.75192c-1.52555,-1.31639 0,-96.43665 0,-96.43665h27.63161c0,0 0.92524,22.97176 1.30086,36.57334c0.26592,9.62908 1.4922,32.69525 2.00298,45.62665c0.39952,10.11458 0.2484,11.47332 -0.39524,12.26184z" fill="none" stroke-width="2.5"/></g><g data-paper-data="{&quot;index&quot;:null}" stroke="#000000" stroke-linecap="butt"><path d="M237.20843,142.00535c20.66311,0 38.33038,27.70865 37.41387,56.63677c-0.91701,28.94338 -16.75076,48.1765 -37.41387,48.1765c-20.66311,0 -37.41387,-20.17315 -37.41387,-49.11653c0,-28.94338 16.75076,-55.69674 37.41387,-55.69674z" fill="#6025b9" stroke-width="0"/><path d="M205.75507,189.45997c0,-7.1122 4.14651,-20.36892 4.14651,-20.36892c0,0 15.9004,7.06859 27.05968,7.22537c11.15927,0.15678 27.44119,-6.43391 27.44119,-6.43391c0,0 3.98377,13.3241 3.76498,20.37838c-0.76486,24.66028 -13.9715,41.04725 -31.20619,41.04725c-17.23469,0 -31.20618,-17.18789 -31.20618,-41.84817z" fill="#702bd6" stroke-width="0"/><path d="M237.20843,142.00535c20.66311,0 38.33038,27.70865 37.41387,56.63677c-0.91701,28.94338 -16.75076,48.1765 -37.41387,48.1765c-20.66311,0 -37.41387,-20.17315 -37.41387,-49.11653c0,-28.94338 16.75076,-55.69674 37.41387,-55.69674z" fill="none" stroke-width="2.5"/></g><g data-paper-data="{&quot;index&quot;:null}" stroke-linecap="butt"><g stroke="#000000"><path d="M179.48038,110.3936c0,-31.40942 25.56758,-56.87178 57.10679,-56.87178c31.53921,0 57.10679,25.46235 57.10679,56.87177c0,31.40942 -25.56757,56.87178 -57.10678,56.87178c-31.53921,0 -57.10679,-25.46236 -57.10679,-56.87178z" fill="#6025b9" stroke-width="0"/><path d="M236.8018,54.93185c28.80234,0 52.15124,22.20065 52.15124,49.58655c0,27.38589 -23.34891,49.58655 -52.15124,49.58655c-28.80235,0 -52.15125,-22.20066 -52.15125,-49.58655c0,-27.3859 23.34892,-49.58655 52.15125,-49.58655z" fill="#702bd6" stroke-width="0"/><path d="M179.48038,110.3936c0,-31.40942 25.56758,-56.87178 57.10679,-56.87178c31.53921,0 57.10679,25.46235 57.10679,56.87177c0,31.40942 -25.56757,56.87178 -57.10678,56.87178c-31.53921,0 -57.10679,-25.46236 -57.10679,-56.87178z" fill="none" stroke-width="2.5"/></g><path d="M276.86538,119.88721c4.79489,2.78332 6.46282,9.79483 3.72543,15.66065c-2.7374,5.86582 -8.84352,8.36466 -13.63841,5.58134c-4.79489,-2.78332 -6.46283,-9.79483 -3.72544,-15.66065c2.7374,-5.86582 8.84353,-8.36466 13.63842,-5.58134z" fill="#511f9b" stroke="none" stroke-width="0"/><path d="M195.27517,120.35723c4.79489,-2.78333 10.90101,-0.28448 13.6384,5.58134c2.7374,5.86581 1.06946,12.87733 -3.72543,15.66065c-4.79489,2.78332 -10.90101,0.28448 -13.6384,-5.58134c-2.7374,-5.86581 -1.06946,-12.87734 3.72543,-15.66066z" data-paper-data="{&quot;index&quot;:null}" fill="#511f9b" stroke="none" stroke-width="0"/></g><path d="M273.92029,40.05575c0.31186,-0.84153 2.15052,-1.14632 4.10675,-0.68078c1.95623,0.46554 5.78955,2.12016 5.47769,2.96169c-0.31186,0.84153 -4.65081,0.5513 -6.60704,0.08576c-1.95623,-0.46554 -3.28925,-1.52514 -2.97739,-2.36667z" data-paper-data="{&quot;index&quot;:null}" fill="#000000" stroke="none" stroke-width="0" stroke-linecap="butt"/><path d="M199.06122,39.09177c1.97407,-0.38292 3.7983,-0.00111 4.07452,0.85278c0.27623,0.85389 -1.10016,1.85652 -3.07423,2.23944c-1.97406,0.38291 -6.32138,0.49051 -6.5976,-0.36338c-0.27622,-0.8539 3.62325,-2.34593 5.59732,-2.72885z" data-paper-data="{&quot;index&quot;:null}" fill="#000000" stroke="none" stroke-width="0" stroke-linecap="butt"/><path d="M247.72682,138.41254c0,0 -7.23449,1.25338 -11.90704,1.25338c-4.67255,0 -10.967,-1.25338 -10.967,-1.25338" data-paper-data="{&quot;index&quot;:null}" fill="none" stroke="#000000" stroke-width="2.5" stroke-linecap="round"/><g data-paper-data="{&quot;index&quot;:null}" stroke-linecap="butt"><path d="M261.25709,108.91293c0,0 -3.47773,0.20229 -5.41412,-0.94079c-1.93639,-1.14308 -2.89523,-3.96434 -2.89523,-3.96434c0,0 5.4261,-8.34057 7.84513,-13.27753c4.60429,-9.39681 9.88982,-25.26434 9.88982,-25.26434l8.79069,3.94603c0,0 -5.86767,18.46023 -9.49706,25.8674c-2.16177,4.41192 -8.71923,13.63357 -8.71923,13.63357z" fill="#5d24b2" stroke="none" stroke-width="0"/><path d="M252.87743,104.1116c2.37213,-3.49844 5.47234,-8.39525 7.91544,-13.38133c4.60429,-9.39681 9.88982,-25.26434 9.88982,-25.26434l8.79069,3.94603c0,0 -5.86767,18.46023 -9.49706,25.8674c-2.23168,4.55461 -6.2315,10.26586 -8.98125,13.98927" fill="none" stroke="#000000" stroke-width="2.5"/></g><path d="M275.34771,82.73894c-9.84405,0 -17.82422,-7.98017 -17.82422,-17.82422c0,-9.84405 7.98017,-17.82423 17.82422,-17.82423c9.84405,0 17.82423,7.98018 17.82423,17.82423c0,9.84405 -7.98018,17.82422 -17.82423,17.82422z" data-paper-data="{&quot;index&quot;:null}" fill="#ffffff" stroke="#000000" stroke-width="2.5" stroke-linecap="butt"/><g data-paper-data="{&quot;index&quot;:null}" stroke="none" stroke-linecap="butt"><g><path d="M288.95987,72.79109c-4.49942,0 -8.14693,-3.6475 -8.14693,-8.14692c0,-4.49942 3.64751,-8.14693 8.14693,-8.14693c4.49942,0 8.14692,3.64751 8.14692,8.14693c0,4.49942 -3.6475,8.14692 -8.14692,8.14692z" fill="url(#color-1)" stroke-width="0.5"/><path d="M287.65266,72.65323c0,0 -0.95745,-0.19122 -1.63244,-0.39748c-0.68959,-0.21072 -1.53736,-0.84304 -1.53736,-0.84304l2.06359,-3.34009l1.8663,0.62826l-0.76008,3.95233z" fill="#230d43" stroke-width="0"/><path d="M283.37068,70.55085c0,0 -0.45738,-0.42406 -0.72741,-0.76753c-0.27003,-0.34347 -0.61266,-0.937 -0.61266,-0.937l2.92407,-2.18928l1.01418,0.95403l-2.59819,2.93979z" fill="#230d43" stroke-width="0"/></g><path d="M288.95987,69.36938c-2.60967,0 -4.72522,-2.11554 -4.72522,-4.72521c0,-2.60967 2.11555,-4.72522 4.72522,-4.72522c2.60967,0 4.72522,2.11555 4.72522,4.72522c0,2.60967 -2.11555,4.72521 -4.72522,4.72521z" fill="#000000" stroke-width="0.5"/><path d="M289.97817,62.99175c-1.20529,-1.17977 -1.35231,-2.98419 -0.32835,-4.03028c1.02395,-1.0461 2.8311,-0.93774 4.03639,0.24203c1.20528,1.17977 1.3523,2.98419 0.32834,4.03028c-1.02396,1.0461 -2.8311,0.93774 -4.03639,-0.24203z" fill="#ffffff" stroke-width="0"/><path d="M293.47352,64.2636c0.24212,-0.32628 0.66016,-0.44273 0.93373,-0.2601c0.27357,0.18263 0.29908,0.59518 0.05696,0.92145c-0.24212,0.32627 -0.66016,0.44273 -0.93373,0.2601c-0.27357,-0.18263 -0.29908,-0.59519 -0.05696,-0.92146z" fill="#ffffff" stroke-width="0"/></g><g data-paper-data="{&quot;index&quot;:null}" stroke-linecap="butt"><path d="M214.71562,109.49414c0,0 -6.55746,-9.22165 -8.71923,-13.63357c-3.6294,-7.40718 -9.49707,-25.86741 -9.49707,-25.86741l8.79069,-3.94602c0,0 5.28553,15.86752 9.88982,25.26434c2.41902,4.93696 7.84513,13.27753 7.84513,13.27753c0,0 -0.95884,2.82126 -2.89524,3.96434c-1.93639,1.14308 -5.41411,0.94079 -5.41411,0.94079z" fill="#5d24b2" stroke="none" stroke-width="0"/><path d="M214.97764,109.84985c-2.74975,-3.72341 -6.74957,-9.43466 -8.98125,-13.98927c-3.6294,-7.40718 -9.49707,-25.86741 -9.49707,-25.86741l8.79069,-3.94602c0,0 5.28553,15.86752 9.88982,25.26434c2.44309,4.98608 5.54331,9.88288 7.91544,13.38132" fill="none" stroke="#000000" stroke-width="2.5"/></g><path d="M201.83319,82.48894c-9.77502,0 -17.69922,-7.92421 -17.69922,-17.69922c0,-9.77502 7.92421,-17.69923 17.69922,-17.69923c9.77501,0 17.69923,7.92422 17.69923,17.69923c0,9.77501 -7.92422,17.69922 -17.69923,17.69922z" data-paper-data="{&quot;index&quot;:null}" fill="#ffffff" stroke="#000000" stroke-width="2.5" stroke-linecap="butt"/><g data-paper-data="{&quot;index&quot;:null}" stroke="none" stroke-linecap="butt"><g><path d="M215.07035,72.79109c-4.49942,0 -8.14693,-3.6475 -8.14693,-8.14692c0,-4.49942 3.64751,-8.14693 8.14693,-8.14693c4.49942,0 8.14692,3.64751 8.14692,8.14693c0,4.49942 -3.6475,8.14692 -8.14692,8.14692z" fill="url(#color-2)" stroke-width="0.5"/><path d="M213.76314,72.65323c0,0 -0.95745,-0.19122 -1.63244,-0.39748c-0.68959,-0.21072 -1.53736,-0.84304 -1.53736,-0.84304l2.06359,-3.34009l1.8663,0.62826l-0.76008,3.95233z" fill="#230d43" stroke-width="0"/><path d="M209.48116,70.55085c0,0 -0.45738,-0.42406 -0.72741,-0.76753c-0.27003,-0.34347 -0.61266,-0.937 -0.61266,-0.937l2.92407,-2.18928l1.01418,0.95403l-2.59819,2.93979z" fill="#230d43" stroke-width="0"/></g><path d="M215.07035,69.36938c-2.60967,0 -4.72522,-2.11554 -4.72522,-4.72521c0,-2.60967 2.11555,-4.72522 4.72522,-4.72522c2.60967,0 4.72522,2.11555 4.72522,4.72522c0,2.60967 -2.11555,4.72521 -4.72522,4.72521z" fill="#000000" stroke-width="0.5"/><path d="M216.08865,62.99175c-1.20529,-1.17977 -1.35231,-2.98419 -0.32835,-4.03028c1.02395,-1.0461 2.8311,-0.93774 4.03639,0.24203c1.20528,1.17977 1.3523,2.98419 0.32834,4.03028c-1.02396,1.0461 -2.8311,0.93774 -4.03639,-0.24203z" fill="#ffffff" stroke-width="0"/><path d="M219.584,64.2636c0.24212,-0.32628 0.66016,-0.44273 0.93373,-0.2601c0.27357,0.18263 0.29908,0.59518 0.05696,0.92145c-0.24212,0.32627 -0.66016,0.44273 -0.93373,0.2601c-0.27357,-0.18263 -0.29908,-0.59519 -0.05696,-0.92146z" fill="#ffffff" stroke-width="0"/></g><g data-paper-data="{&quot;index&quot;:null}"><path d="M210.83963,244.30892v-88h53v88z" fill="#3b2a52" stroke="#000000" stroke-width="2.5" stroke-linecap="butt"/><g><path d="M237.57341,198.80893c-7.83647,0 -14.18919,-6.35272 -14.18919,-14.18919c0,-7.83647 6.35272,-14.18919 14.18919,-14.18919c7.83647,0 14.18919,6.35272 14.18919,14.18919c0,7.83647 -6.35272,14.18919 -14.18919,14.18919z" fill="#291c38" stroke="none" stroke-width="0.5" stroke-linecap="butt"/><path d="M237.57341,194.1873c-7.83647,0 -14.18919,-6.35272 -14.18919,-14.18919c0,-7.83647 6.35272,-14.18919 14.18919,-14.18919c7.83647,0 14.18919,6.35272 14.18919,14.18919c0,7.83647 -6.35272,14.18919 -14.18919,14.18919z" fill="#9267ca" stroke="#000000" stroke-width="2.5" stroke-linecap="butt"/><path d="M227.28404,188.7096c0,0 6.76775,-6.45256 10.24677,-9.25897c3.61068,-2.91262 11.03701,-7.90995 11.03701,-7.90995" fill="none" stroke="#000000" stroke-width="2.5" stroke-linecap="round"/><path d="M233.24349,192.82446c0,0 5.53866,-5.20315 8.42847,-7.47372c3.05991,-2.40422 9.44991,-6.57358 9.44991,-6.57358" fill="none" stroke="#000000" stroke-width="2.5" stroke-linecap="round"/><path d="M224.02051,180.76365c0,0 6.812,-5.85391 9.97263,-8.175c2.86418,-2.10338 8.18954,-5.16284 8.18954,-5.16284" fill="none" stroke="#000000" stroke-width="2.5" stroke-linecap="round"/><path d="M229.6962,168.56095c0,0 6.02706,7.15382 8.76488,10.74131c2.74862,3.60165 7.69458,10.82626 7.69458,10.82626" fill="none" stroke="#000000" stroke-width="2.5" stroke-linecap="round"/><path d="M236.22322,166.85824c0,0 4.75184,5.4593 6.92402,8.39286c2.39405,3.2332 6.83949,10.19498 6.83949,10.19498" fill="none" stroke="#000000" stroke-width="2.5" stroke-linecap="round"/><path d="M224.72998,174.37851c0,0 5.33524,6.3569 7.73595,9.55784c2.42341,3.23121 6.73703,9.73946 6.73703,9.73946" fill="none" stroke="#000000" stroke-width="2.5" stroke-linecap="round"/></g><g><path d="M237.57341,234.80893c-7.83648,0 -14.18919,-6.35271 -14.18919,-14.18919c0,-7.83648 6.35271,-14.18919 14.18919,-14.18919c7.83648,0 14.18919,6.35271 14.18919,14.18919c0,7.83648 -6.35272,14.18919 -14.18919,14.18919z" fill="#291c38" stroke="none" stroke-width="0.5" stroke-linecap="butt"/><path d="M237.57341,230.18731c-7.83648,0 -14.18919,-6.35271 -14.18919,-14.18919c0,-7.83648 6.35271,-14.18919 14.18919,-14.18919c7.83648,0 14.18919,6.35271 14.18919,14.18919c0,7.83647 -6.35272,14.18919 -14.18919,14.18919z" fill="#9267ca" stroke="#000000" stroke-width="2.5" stroke-linecap="butt"/><path d="M227.28404,224.7096c0,0 6.76775,-6.45257 10.24677,-9.25898c3.61068,-2.91261 11.03701,-7.90994 11.03701,-7.90994" fill="none" stroke="#000000" stroke-width="2.5" stroke-linecap="round"/><path d="M233.24349,228.82446c0,0 5.53866,-5.20315 8.42847,-7.47372c3.05992,-2.40422 9.44991,-6.57358 9.44991,-6.57358" fill="none" stroke="#000000" stroke-width="2.5" stroke-linecap="round"/><path d="M224.02051,216.76365c0,0 6.812,-5.85391 9.97263,-8.175c2.86418,-2.10337 8.18954,-5.16284 8.18954,-5.16284" fill="none" stroke="#000000" stroke-width="2.5" stroke-linecap="round"/><path d="M229.6962,204.56095c0,0 6.02706,7.15382 8.76488,10.74131c2.74863,3.60164 7.69457,10.82626 7.69457,10.82626" fill="none" stroke="#000000" stroke-width="2.5" stroke-linecap="round"/><path d="M236.22322,202.85825c0,0 4.75185,5.4593 6.92402,8.39286c2.39405,3.2332 6.83949,10.19498 6.83949,10.19498" fill="none" stroke="#000000" stroke-width="2.5" stroke-linecap="round"/><path d="M224.72998,210.37852c0,0 5.33524,6.3569 7.73595,9.55784c2.42341,3.23121 6.73703,9.73946 6.73703,9.73946" fill="none" stroke="#000000" stroke-width="2.5" stroke-linecap="round"/></g></g><path d="M270.37784,191.16542c0,0 -1.44388,-4.77135 -2.54648,-11.84414c-0.52192,-3.34798 -0.96738,-8.56953 -1.14701,-11.53143c-0.05861,-0.96633 0.83203,-2.76957 0.83203,-2.76957c0,0 18.16495,11.49375 18.34247,20.30306c0.24512,12.1643 -3.63211,28.46797 -6.07236,30.44333c-2.44727,1.98104 -4.14431,5.04164 -8.95295,8.63778c-5.06977,3.79144 -7.95827,5.55426 -10.47998,3.65231c-3.78936,-2.85804 -2.01108,-8.39151 -2.01108,-8.39151c0,0 -3.79297,0.48254 -4.94491,-3.93038c-1.14437,-4.38394 1.34817,-7.65574 1.34817,-7.65574c0,0 -3.34499,-3.08822 -1.49009,-8.08456c1.59711,-4.30198 7.61359,-2.34799 7.61359,-2.34799c0,0 3.2322,-10.98408 4.24347,-11.63003c0.01444,-0.20317 1.94237,0.85223 3.23633,2.37334c2.10294,2.4721 4.17268,6.1743 5.85926,7.70331z" data-paper-data="{&quot;index&quot;:null}" fill="#702bd6" stroke="#000000" stroke-width="2.5" stroke-linecap="butt"/><path d="M203.357,196.09322c1.68658,-1.52901 3.75632,-5.23121 5.85926,-7.70331c1.29396,-1.52112 3.22188,-2.57651 3.23632,-2.37334c1.01127,0.64595 4.24348,11.63003 4.24348,11.63003c0,0 6.01648,-1.95399 7.61359,2.34799c1.8549,4.99634 -1.49009,8.08456 -1.49009,8.08456c0,0 2.49253,3.2718 1.34817,7.65574c-1.15194,4.41291 -4.94491,3.93037 -4.94491,3.93037c0,0 1.77827,5.53347 -2.01109,8.39151c-2.5217,1.90195 -5.4102,0.13914 -10.47998,-3.65231c-4.80863,-3.59615 -6.50568,-6.65674 -8.95295,-8.63778c-2.44025,-1.97536 -6.31749,-18.27903 -6.07236,-30.44333c0.17751,-8.80931 18.34247,-20.30306 18.34247,-20.30306c0,0 0.89064,1.80324 0.83203,2.76957c-0.17963,2.96191 -0.62508,8.18345 -1.14701,11.53143c-1.10259,7.07279 -2.54648,11.84414 -2.54648,11.84414z" data-paper-data="{&quot;index&quot;:null}" fill="#702bd6" stroke="#000000" stroke-width="2.5" stroke-linecap="butt"/></g></g></svg>