<svg version="1.1" xmlns="http://www.w3.org/2000/svg" xmlns:xlink="http://www.w3.org/1999/xlink" width="472.92606" height="875.63813" viewBox="0,0,472.92606,875.63813"><defs><linearGradient x1="169.03803" y1="-447.25345" x2="169.03803" y2="-394.12839" gradientUnits="userSpaceOnUse" id="color-1"><stop offset="0" stop-color="#f58845"/><stop offset="1" stop-color="#cf7740"/></linearGradient><linearGradient x1="316.66434" y1="-448.27504" x2="316.66434" y2="-395.15004" gradientUnits="userSpaceOnUse" id="color-2"><stop offset="0" stop-color="#f58845"/><stop offset="1" stop-color="#d17840"/></linearGradient></defs><g transform="translate(-9.71186,594.49325)"><g data-paper-data="{&quot;isPaintingLayer&quot;:true}" fill-rule="nonzero" stroke-linejoin="miter" stroke-miterlimit="10" stroke-dasharray="" stroke-dashoffset="0" style="mix-blend-mode: normal"><g stroke="#000000"><g stroke-linecap="butt"><path d="M121.70193,259.64094c-1.75804,-2.81474 -1.68894,-7.27161 3.75672,-39.82294c6.96218,-41.61657 20.40026,-115.7199 25.21439,-146.75574c6.80018,-43.83976 19.22582,-117.76139 19.22582,-117.76139l89.37377,11.34648c0,0 -34.12515,308.2905 -39.60008,311.92189c-4.46851,2.96387 -28.28313,0.66788 -51.09177,-4.01508c-22.46183,-4.61171 -44.95205,-11.82833 -46.87884,-14.91322z" fill="#f5af82" stroke-width="0"/><path d="M169.89883,-44.69908l89.37375,11.34645l-12.05838,101.94793c0,0 -30.86129,-8.48499 -47.51354,-20.70992c-16.65229,-12.22494 -39.15001,-36.26463 -39.15001,-36.26463c0,0 1.53646,-9.34384 2.26845,-13.77683c3.96446,-24.01006 7.07973,-42.54306 7.07973,-42.54306z" fill="#e4a279" stroke-width="0"/><path d="M121.70193,259.64094c-1.75804,-2.81474 -1.68894,-7.27161 3.75672,-39.82294c2.46158,-14.71399 18.94701,-122.07576 18.94701,-122.07576c0,0 15.9543,34.56868 24.97695,39.39137c9.03669,4.83018 29.20122,-10.43269 29.20122,-10.43269c0,0 8.03518,28.11242 13.48422,33.77444c6.97761,7.25035 26.69065,-6.63711 26.69065,-6.63711c0,0 -17.71892,123.82411 -19.0862,124.731c-4.46851,2.96387 -28.28313,0.66791 -51.09177,-4.01506c-22.46183,-4.61171 -44.95201,-11.82835 -46.8788,-14.91324z" fill="#ca8f6b" stroke-width="0"/><path d="M121.70193,259.64094c-1.75804,-2.81474 -1.68894,-7.27161 3.75672,-39.82294c6.96218,-41.61657 20.40026,-115.7199 25.21439,-146.75574c6.80018,-43.83976 19.22582,-117.76139 19.22582,-117.76139l89.37377,11.34648c0,0 -34.12515,308.2905 -39.60008,311.92189c-4.46851,2.96387 -28.28313,0.66788 -51.09177,-4.01508c-22.46183,-4.61171 -44.95205,-11.82833 -46.87884,-14.91322z" fill="none" stroke-width="2.5"/></g><path d="M144.98409,266.86151l3.40507,-18.19182" fill="none" stroke-width="2.5" stroke-linecap="round"/><path d="M184.96965,256.58665l-1.91621,18.40826" fill="none" stroke-width="2.5" stroke-linecap="round"/></g><g stroke="#000000" stroke-linecap="butt"><path d="M464.64316,-132.13375c28.91231,23.15265 -42.01421,104.52591 -100.22843,127.02925c-58.21422,22.50334 -110.49711,27.57605 -116.7771,11.33021c-6.27999,-16.24581 35.82101,-47.65819 94.03523,-70.16156c58.21422,-22.50334 94.79945,-90.75683 122.9703,-68.19794z" fill="#f5af82" stroke-width="0"/><path d="M464.64316,-132.13375c13.60838,10.89745 5.0987,34.69296 -13.79302,59.17715c-4.64149,-18.92592 -15.89251,-35.25575 -31.16661,-46.40302c17.56244,-14.49072 32.1332,-23.04542 44.95963,-12.77413z" fill="#ca8f6b" stroke-width="0"/><path d="M464.64316,-132.13375c28.91231,23.15265 -42.01421,104.52591 -100.22843,127.02925c-58.21422,22.50334 -110.49711,27.57605 -116.7771,11.33021c-6.27999,-16.24581 35.82101,-47.65819 94.03523,-70.16156c58.21422,-22.50334 94.79945,-90.75683 122.9703,-68.19794z" fill="none" stroke-width="2.5"/></g><g data-paper-data="{&quot;index&quot;:null}" stroke="#000000" stroke-linecap="butt"><path d="M318.11187,-208.62102c-0.45682,-16.73843 2.23336,-26.89743 12.59569,-29.35664c9.26505,-2.1988 16.27065,1.34287 25.13692,16.04249c18.10794,30.02161 49.535,127.74042 56.21964,135.49272c6.70388,7.77458 16.84984,12.995 29.0564,28.30131c12.86943,16.13756 19.28679,37.59293 13.34409,46.00352c-8.93004,12.6386 -27.52294,-4.81668 -27.52294,-4.81668c0,0 2.43805,27.79147 -11.82632,31.99261c-14.17068,4.17349 -27.935,-16.57733 -27.935,-16.57733c0,0 -6.85044,24.98791 -23.32076,19.44925c-14.18136,-4.76891 -8.92971,-40.86807 -8.92971,-40.86807c0,0 -20.9263,7.23266 -27.486,-4.83272c-6.17015,-11.34886 13.29949,-29.35155 21.0723,-38.48006c6.38351,-7.49685 -29.61423,-113.39949 -30.40433,-142.35037z" data-paper-data="{&quot;index&quot;:null}" fill="#f5af82" stroke-width="0"/><path d="M345.57205,-92.04294c4.74005,0.62496 11.25059,7.32164 15.96153,4.78153c6.57587,-3.54566 10.67608,-16.84238 10.67608,-16.84238c0,0 10.56786,13.24325 19.88537,12.53654c4.45326,-0.33778 7.78236,-12.24764 11.10791,-14.58918c4.07369,10.45231 7.21642,17.80648 8.86118,19.71397c6.70388,7.77458 16.84984,12.995 29.0564,28.30131c12.86943,16.13756 19.28679,37.59293 13.34409,46.00352c-8.93004,12.6386 -27.52294,-4.81668 -27.52294,-4.81668c0,0 2.43805,27.79147 -11.82632,31.99261c-14.17068,4.17349 -27.935,-16.57733 -27.935,-16.57733c0,0 -6.85044,24.98791 -23.32076,19.44925c-14.18136,-4.76891 -8.92971,-40.86807 -8.92971,-40.86807c0,0 -20.9263,7.23266 -27.486,-4.83272c-6.17015,-11.34886 13.29949,-29.35155 21.0723,-38.48006c1.79516,-2.10829 0.2386,-11.9991 -2.94411,-25.77232z" data-paper-data="{&quot;index&quot;:null}" fill="#ca8f6b" stroke-width="0"/><path d="M318.1119,-208.62105c-0.45682,-16.73843 2.23336,-26.89743 12.59569,-29.35665c9.26505,-2.1988 16.27065,1.34288 25.13692,16.04249c18.10794,30.02161 49.535,127.74042 56.21965,135.49272c6.70388,7.77458 16.84983,12.99499 29.05639,28.30131c12.86943,16.13756 19.28679,37.59293 13.34409,46.00352c-8.93004,12.6386 -27.52294,-4.81667 -27.52294,-4.81667c0,0 2.43805,27.79147 -11.82632,31.99261c-14.17068,4.17349 -27.935,-16.57733 -27.935,-16.57733c0,0 -6.85044,24.98792 -23.32076,19.44925c-14.18137,-4.76891 -8.92971,-40.86807 -8.92971,-40.86807c0,0 -20.9263,7.23266 -27.486,-4.83272c-6.17015,-11.34886 13.29949,-29.35156 21.0723,-38.48007c6.38351,-7.49685 -29.61422,-113.39948 -30.40432,-142.35037z" data-paper-data="{&quot;index&quot;:null}" fill="none" stroke-width="2.5"/></g><g stroke="#000000" stroke-linecap="butt"><path d="M164.29709,-208.62099c-0.7901,28.95089 -36.78783,134.85352 -30.40432,142.35037c7.77282,9.12851 27.24245,27.1312 21.0723,38.48006c-6.55971,12.06538 -27.486,4.83272 -27.486,4.83272c0,0 5.25165,36.09916 -8.92972,40.86807c-16.47033,5.53866 -23.32076,-19.44925 -23.32076,-19.44925c0,0 -13.76432,20.75082 -27.935,16.57733c-14.26437,-4.20114 -11.82632,-31.99261 -11.82632,-31.99261c0,0 -18.59291,17.45527 -27.52294,4.81668c-5.9427,-8.41059 0.47466,-29.86596 13.34409,-46.00352c12.20656,-15.30631 22.35251,-20.52673 29.05639,-28.30131c6.68465,-7.7523 38.1117,-105.47111 56.21965,-135.49272c8.86627,-14.69961 15.87187,-18.24129 25.13692,-16.04249c10.36232,2.45922 13.0525,12.61822 12.59569,29.35665z" data-paper-data="{&quot;index&quot;:null}" fill="#f5af82" stroke-width="0"/><path d="M133.89277,-66.27062c7.77282,9.12851 27.24245,27.1312 21.0723,38.48006c-6.55971,12.06538 -27.486,4.83272 -27.486,4.83272c0,0 5.25165,36.09916 -8.92972,40.86807c-16.47033,5.53866 -23.32076,-19.44925 -23.32076,-19.44925c0,0 -13.76432,20.75082 -27.935,16.57733c-14.26437,-4.20114 -11.82632,-31.99261 -11.82632,-31.99261c0,0 -18.59291,17.45527 -27.52294,4.81668c-5.9427,-8.41059 0.47466,-29.86596 13.34409,-46.00352c12.20656,-15.30631 22.35251,-20.52673 29.05639,-28.30131c1.64476,-1.90749 4.7875,-9.26166 8.86118,-19.71397c3.32555,2.34155 6.65466,14.2514 11.10792,14.58918c9.31752,0.7067 19.88537,-12.53654 19.88537,-12.53654c0,0 4.10019,13.29672 10.67607,16.84238c4.71094,2.54011 11.22147,-4.15657 15.96153,-4.78153c-3.18271,13.77323 -4.73927,23.66403 -2.9441,25.77232z" data-paper-data="{&quot;index&quot;:null}" fill="#ca8f6b" stroke-width="0"/><path d="M164.29706,-208.62102c-0.7901,28.95089 -36.78783,134.85352 -30.40432,142.35037c7.77282,9.12851 27.24245,27.13121 21.0723,38.48007c-6.55971,12.06538 -27.486,4.83272 -27.486,4.83272c0,0 5.25165,36.09916 -8.92972,40.86807c-16.47033,5.53866 -23.32076,-19.44925 -23.32076,-19.44925c0,0 -13.76432,20.75082 -27.93499,16.57733c-14.26437,-4.20114 -11.82632,-31.99261 -11.82632,-31.99261c0,0 -18.5929,17.45527 -27.52294,4.81667c-5.9427,-8.41059 0.47465,-29.86595 13.34408,-46.00352c12.20656,-15.30631 22.35252,-20.52673 29.0564,-28.30131c6.68465,-7.7523 38.11169,-105.47111 56.21964,-135.49272c8.86627,-14.69961 15.87187,-18.24129 25.13692,-16.04249c10.36232,2.45921 13.0525,12.61822 12.59569,29.35665z" data-paper-data="{&quot;index&quot;:null}" fill="none" stroke-width="2.5"/></g><g data-paper-data="{&quot;index&quot;:null}" stroke="#000000" stroke-linecap="butt"><path d="M322.16655,-575.27991c0,0 57.4324,11.63059 84.6098,19.79685c25.26969,7.59304 73.14835,27.60632 73.14835,27.60632c0,0 -26.96251,16.83816 -38.94725,25.32306c-10.27416,7.27387 -28.62291,22.51501 -28.62291,22.51501z" fill="#f5af82" stroke-width="2.5"/><path d="M377.59397,-536.24198c0,0 23.40583,4.73989 34.48163,8.06795c10.29832,3.09445 29.81069,11.25059 29.81069,11.25059c0,0 -10.98822,6.86218 -15.87246,10.32007c-4.18712,2.96436 -21.4462,17.87019 -21.4462,17.87019z" fill="#ca8f6b" stroke-width="0"/></g><g stroke="#000000" stroke-linecap="butt"><path d="M79.99524,-483.29911c0,0 -18.34876,-15.24114 -28.62291,-22.51501c-11.98474,-8.48489 -38.94725,-25.32307 -38.94725,-25.32307c0,0 47.87866,-20.01328 73.14835,-27.60631c27.1774,-8.16626 84.6098,-19.79685 84.6098,-19.79685z" fill="#f5af82" stroke-width="2.5"/><path d="M87.78218,-491.99362c0,0 -17.25912,-14.90584 -21.4462,-17.87019c-4.88423,-3.45792 -15.87246,-10.3201 -15.87246,-10.3201c0,0 19.51234,-8.15614 29.81066,-11.25059c11.0758,-3.32806 34.48163,-8.06795 34.48163,-8.06795z" fill="#ca8f6b" stroke-width="0"/></g><g data-paper-data="{&quot;index&quot;:null}" stroke="#000000" stroke-linecap="butt"><path d="M297.97431,274.63959c-23.21682,1.77306 -47.13098,1.05143 -51.19062,-2.45162c-4.97396,-4.29201 0,-314.42558 0,-314.42558h90.09111c0,0 3.01669,74.89794 4.24138,119.24506c0.86701,31.395 4.86519,106.60078 6.53059,148.76279c1.30261,32.97794 0.80986,37.40803 -1.28866,39.97898c-2.29998,2.8177 -25.51999,7.14431 -48.38377,8.89036z" fill="#f5af82" stroke-width="0"/><path d="M338.54004,0.85831c0.16784,4.48985 0.51531,13.95281 0.51531,13.95281c0,0 -25.34624,21.01485 -43.4056,31.04516c-18.05937,10.03034 -49.7435,14.56095 -49.7435,14.56095l0.87739,-102.65485h90.09111c0,0 0.75629,18.77781 1.6653,43.09597z" fill="#e4a279" stroke-width="0"/><path d="M297.97431,274.63959c-23.21682,1.77306 -47.13098,1.05143 -51.19062,-2.45162c-1.4504,-1.25155 -3.27038,-119.40586 -3.27038,-119.40586c0,0 21.08818,5.80495 29.92165,1.41011c8.07329,-4.01663 21.00412,-26.74683 21.00412,-26.74683c0,0 16.34202,21.20696 24.68095,20.43375c7.86665,-0.72942 24.0185,-24.94942 24.0185,-24.94942c0,0 3.9194,87.93375 4.50824,102.8406c1.30261,32.97794 0.80986,37.40803 -1.28866,39.97898c-2.29998,2.8177 -25.51999,7.14431 -48.38377,8.89037z" fill="#ca8f6b" stroke-width="0"/><path d="M297.97431,274.63959c-23.21682,1.77306 -47.13098,1.05143 -51.19062,-2.45162c-4.97396,-4.29201 0,-314.42558 0,-314.42558h90.09111c0,0 3.01669,74.89794 4.24138,119.24506c0.86701,31.395 4.86519,106.60078 6.53059,148.76279c1.30261,32.97794 0.80986,37.40803 -1.28866,39.97898c-2.29998,2.8177 -25.51999,7.14431 -48.38377,8.89036z" fill="none" stroke-width="2.5"/></g><g stroke="#000000" stroke-linecap="butt"><path d="M362.14971,-123.15262c0,94.36806 -54.61479,160.14133 -121.98551,160.14133c-67.37076,0 -118.9957,-62.70837 -121.98552,-157.07646c-2.98822,-94.31833 54.6148,-184.6606 121.98552,-184.6606c67.37076,0 121.98552,87.22764 121.98552,181.59569z" fill="#e4a279" stroke-width="0"/><path d="M342.71584,-150.02553c0,80.40328 -45.55315,136.4433 -101.74577,136.4433c-56.19264,0 -99.25202,-53.42868 -101.74577,-133.83196c-0.71335,-23.00004 12.27548,-66.44241 12.27548,-66.44241c0,0 53.08616,21.48852 89.47029,20.97735c36.38413,-0.51117 88.22637,-23.55786 88.22637,-23.55786c0,0 13.51943,43.2227 13.51943,66.41158z" fill="#f5af82" stroke-width="0"/><path d="M362.14971,-123.15262c0,94.36806 -54.61479,160.14133 -121.98551,160.14133c-67.37076,0 -118.9957,-62.70837 -121.98552,-157.07646c-2.98822,-94.31833 54.6148,-184.6606 121.98552,-184.6606c67.37076,0 121.98552,87.22764 121.98552,181.59569z" fill="none" stroke-width="2.5"/></g><g stroke-linecap="butt"><g stroke="#000000"><path d="M428.38274,-407.81642c0,102.40842 -83.36148,185.42683 -186.19304,185.42683c-80.52705,0 -149.11421,-50.91018 -175.07925,-122.17459c-7.19184,-19.73894 -11.11378,-41.03947 -11.11378,-63.25224c0,-102.40842 83.36147,-185.42683 186.19303,-185.42683c102.8316,0 186.19304,83.01841 186.19304,185.42683z" fill="#e4a279" stroke-width="0"/><path d="M411.52576,-426.9721c0,89.28996 -76.12761,161.6738 -170.03581,161.6738c-21.75467,0 -42.55515,-3.88455 -61.67602,-10.96393c-63.418,-23.4801 -108.35979,-82.10474 -108.35979,-150.70987c0,-89.28996 76.12761,-161.67381 170.03581,-161.67381c93.90817,0 170.03582,72.38382 170.03582,161.67381z" fill="#f5af82" stroke-width="0"/><path d="M428.38274,-407.81642c0,102.40842 -83.36148,185.42683 -186.19304,185.42683c-102.83159,0 -186.19303,-83.01841 -186.19303,-185.42683c0,-102.40842 83.36147,-185.42683 186.19303,-185.42683c102.8316,0 186.19304,83.01841 186.19304,185.42683z" fill="none" stroke-width="2.5"/></g><path d="M155.33239,-358.6655c8.92508,19.12514 3.48687,41.98572 -12.14656,51.06056c-15.63344,9.07484 -35.54206,0.92753 -44.46718,-18.19761c-8.92508,-19.12513 -3.48691,-41.98571 12.14653,-51.06055c15.63344,-9.07484 35.54209,-0.92753 44.46721,18.19761z" fill="#ca8f6b" stroke="none" stroke-width="0"/><path d="M376.88496,-375.33063c15.63344,9.07484 21.07162,31.93545 12.14653,51.06056c-8.92509,19.12514 -28.8337,27.27245 -44.46717,18.19761c-15.63344,-9.07484 -21.07162,-31.93546 -12.14653,-51.06056c8.92509,-19.12513 28.83371,-27.27245 44.46717,-18.19761z" data-paper-data="{&quot;index&quot;:null}" fill="#ca8f6b" stroke="none" stroke-width="0"/></g><path d="M401.35864,-438.16834c9.24833,46.76017 -16.0061,91.57344 -56.40734,100.09319c-40.40125,8.51975 -80.65016,-22.48021 -89.89849,-69.24042c-9.24832,-46.76017 16.0061,-91.57344 56.40734,-100.09319c40.40125,-8.51975 80.65016,22.48022 89.89849,69.24043z" fill="#ca8f6b" stroke="none" stroke-width="0" stroke-linecap="butt"/><path d="M218.92877,-408.25188c-7.80643,36.1449 -39.94778,59.87114 -71.78973,52.99403c-31.84191,-6.87711 -51.32654,-41.75331 -43.52014,-77.89822c7.80643,-36.1449 39.94778,-59.87113 71.78973,-52.99402c31.84192,6.87711 51.32654,41.75331 43.52014,77.89822z" fill="#ffffff" stroke="#000000" stroke-width="2.5" stroke-linecap="butt"/><g stroke="none" stroke-linecap="butt"><g><path d="M142.47547,-420.6909c0,-14.67007 11.89245,-26.56251 26.56252,-26.56251c14.67007,0 26.56252,11.89244 26.56252,26.56251c0,14.67008 -11.89244,26.56252 -26.56252,26.56252c-14.67007,0 -26.56252,-11.89244 -26.56252,-26.56252z" fill="url(#color-1)" stroke-width="0.5"/><path d="M173.30004,-394.57793l-2.47819,-12.88632l6.08499,-2.0484l6.7282,10.89012c0,0 -2.76409,2.06164 -5.01246,2.74867c-2.20079,0.6725 -5.3225,1.29596 -5.3225,1.29596z" fill="#bd6935" stroke-width="0"/><path d="M187.26126,-401.43251l-8.4712,-9.585l3.3067,-3.11056l9.53371,7.13801c0,0 -1.11712,1.93516 -1.9975,3.055c-0.88038,1.11986 -2.37164,2.50248 -2.37164,2.50248z" fill="#bd6935" stroke-width="0"/></g><path d="M153.63175,-420.6909c0,-8.50863 6.89762,-15.40628 15.40628,-15.40628c8.50863,0 15.40628,6.89761 15.40628,15.40628c0,8.50863 -6.89762,15.40628 -15.40628,15.40628c-8.50863,0 -15.40628,-6.89761 -15.40628,-15.40628z" fill="#000000" stroke-width="0.5"/><path d="M165.71795,-426.07851c-3.92977,3.84656 -9.82187,4.19987 -13.16039,0.78913c-3.33856,-3.41071 -2.85921,-9.29394 1.07054,-13.14047c3.92977,-3.84656 9.82187,-4.19987 13.16039,-0.78912c3.33856,3.41071 2.85921,9.29394 -1.07053,13.14047z" fill="#ffffff" stroke-width="0"/><path d="M154.32153,-421.93176c0.78939,1.06378 0.70624,2.40891 -0.18575,3.00433c-0.89199,0.59546 -2.25498,0.21578 -3.04436,-0.84804c-0.78939,-1.06378 -0.70624,-2.40891 0.18574,-3.00433c0.89199,-0.59546 2.25499,-0.21578 3.04437,0.84804z" fill="#ffffff" stroke-width="0"/></g><path d="M310.34532,-486.66091c31.84195,-6.87711 63.9833,16.84915 71.78972,52.99403c7.8064,36.1449 -11.6782,71.02111 -43.52015,77.89822c-31.84195,6.87711 -63.98329,-16.84915 -71.78972,-52.99403c-7.8064,-36.14491 11.6782,-71.02111 43.52015,-77.89822z" data-paper-data="{&quot;index&quot;:null}" fill="#ffffff" stroke="#000000" stroke-width="2.5" stroke-linecap="butt"/><g stroke="none" stroke-linecap="butt"><g><path d="M290.10182,-421.71253c0,-14.67007 11.89244,-26.56252 26.56252,-26.56252c14.67007,0 26.56252,11.89244 26.56252,26.56252c0,14.67007 -11.89244,26.56248 -26.56252,26.56248c-14.67007,0 -26.56252,-11.89245 -26.56252,-26.56248z" fill="url(#color-2)" stroke-width="0.5"/><path d="M320.92638,-395.59956l-2.47823,-12.88636l6.08499,-2.04841l6.72821,10.89012c0,0 -2.7641,2.06164 -5.0125,2.74868c-2.20076,0.6725 -5.3225,1.29593 -5.3225,1.29593z" fill="#bd6935" stroke-width="0"/><path d="M334.88754,-402.45414l-8.47124,-9.585l3.3067,-3.11052l9.53371,7.13801c0,0 -1.11712,1.93517 -1.99754,3.055c-0.88042,1.11986 -2.37164,2.50248 -2.37164,2.50248z" fill="#bd6935" stroke-width="0"/></g><path d="M301.25809,-421.71253c0,-8.50863 6.89761,-15.40628 15.40628,-15.40628c8.50863,0 15.40625,6.89762 15.40625,15.40628c0,8.50863 -6.89762,15.40625 -15.40625,15.40625c-8.50863,0 -15.40628,-6.89762 -15.40628,-15.40625z" fill="#000000" stroke-width="0.5"/><path d="M313.3443,-427.10014c-3.92977,3.84656 -9.82187,4.19987 -13.16036,0.78912c-3.33855,-3.41074 -2.85921,-9.29394 1.07053,-13.14047c3.92977,-3.84656 9.82188,-4.19986 13.16037,-0.78912c3.33853,3.41074 2.8592,9.29393 -1.07054,13.14047z" fill="#ffffff" stroke-width="0"/><path d="M301.94783,-422.95338c0.78938,1.06378 0.70621,2.40891 -0.18574,3.00433c-0.89196,0.59546 -2.25498,0.21578 -3.04433,-0.84804c-0.78935,-1.06378 -0.70621,-2.40891 0.18574,-3.00433c0.89196,-0.59545 2.25498,-0.21577 3.04433,0.84804z" fill="#ffffff" stroke-width="0"/></g><path d="M181.22658,-529.42063c0.9006,2.78406 -3.587,6.0531 -10.02333,7.30156c-6.43633,1.24846 -20.61046,1.5993 -21.51106,-1.18478c-0.9006,-2.78405 11.81341,-7.64878 18.24974,-8.89724c6.43633,-1.24846 12.38409,-0.00362 13.28468,2.78046z" fill="#000000" stroke="none" stroke-width="0" stroke-linecap="butt"/><path d="M315.27008,-533.22275c6.43633,1.24848 19.15031,6.11315 18.24971,8.89727c-0.9006,2.78405 -15.07472,2.43324 -21.51109,1.18478c-6.43633,-1.24848 -10.92393,-4.5175 -10.02333,-7.30156c0.9006,-2.78405 6.84839,-4.02895 13.28472,-2.78047z" data-paper-data="{&quot;index&quot;:null}" fill="#000000" stroke="none" stroke-width="0" stroke-linecap="butt"/><path d="M132.00931,-187.75132c0,0 0.69601,-4.53334 1.55292,-7.10407c1.01736,-3.05203 4.15285,-10.01323 4.15285,-10.01323c0,0 11.40458,10.8374 17.88222,15.60393c7.70771,5.67169 25.31856,16.18533 25.31856,16.18533c0,0 -14.89185,-2.02222 -22.73718,-4.37583c-8.41665,-2.52501 -26.16937,-10.29613 -26.16937,-10.29613z" fill="#ca8f6b" stroke="none" stroke-width="0" stroke-linecap="butt"/><path d="M322.65898,-178.2703c-7.84533,2.35361 -22.73718,4.37583 -22.73718,4.37583c0,0 17.6109,-10.5136 25.31857,-16.18533c6.47764,-4.76657 17.88222,-15.60393 17.88222,-15.60393c0,0 3.1355,6.96116 4.15282,10.01319c0.85691,2.57073 1.55295,7.1041 1.55295,7.1041c0,0 -17.75272,7.77112 -26.16937,10.29613z" data-paper-data="{&quot;index&quot;:null}" fill="#ca8f6b" stroke="none" stroke-width="0" stroke-linecap="butt"/><path d="M122.60817,-132.28021c0,0 0.50497,-9.90068 1.08562,-14.25551c0.49108,-3.68325 2.17481,-10.19777 2.17481,-10.19777c0,0 7.03406,6.95904 11.04818,10.00005c4.80803,3.64243 15.85042,10.37768 15.85042,10.37768c0,0 -10.74569,3.08235 -15.90164,3.77908c-4.88211,0.65975 -14.2574,0.29647 -14.2574,0.29647z" fill="#ca8f6b" stroke="none" stroke-width="0" stroke-linecap="butt"/><path d="M343.10224,-134.20687c-5.15596,-0.69675 -15.90163,-3.77911 -15.90163,-3.77911c0,0 11.04238,-6.73521 15.85041,-10.37768c4.01415,-3.04101 11.04818,-10.00005 11.04818,-10.00005c0,0 1.68372,6.51452 2.17481,10.19777c0.58065,4.35483 1.08563,14.25551 1.08563,14.25551c0,0 -9.37529,0.36328 -14.2574,-0.29644z" data-paper-data="{&quot;index&quot;:null}" fill="#ca8f6b" stroke="none" stroke-width="0" stroke-linecap="butt"/><path d="" fill="#ca8f6b" stroke="#000000" stroke-width="0" stroke-linecap="butt"/><g stroke="none" stroke-linecap="butt"><g fill="#996d51" stroke-width="0.5"><path d="M115.04174,-349.37694c-0.65157,-2.1004 0.65427,-4.46445 2.91665,-5.28031c2.26238,-0.81582 4.6246,0.2255 5.27614,2.3259c0.65157,2.10041 -0.65427,4.46445 -2.91666,5.28031c-2.26238,0.81583 -4.6246,-0.2255 -5.27613,-2.3259z"/><path d="M108.17575,-330.66343c-0.65157,-2.10041 0.65427,-4.46445 2.91666,-5.28031c2.26238,-0.81583 4.6246,0.2255 5.27613,2.3259c0.65157,2.10041 -0.65427,4.46445 -2.91665,5.2803c-2.26238,0.81583 -4.6246,-0.22549 -5.27614,-2.32589z"/><path d="M130.3046,-338.41783c-0.65157,-2.1004 0.65427,-4.46445 2.91665,-5.28031c2.26238,-0.81583 4.6246,0.2255 5.27614,2.3259c0.65157,2.10041 -0.65427,4.46445 -2.91666,5.28031c-2.26238,0.81583 -4.6246,-0.2255 -5.27613,-2.3259z"/></g><path d="M57.96265,-354.61176c0,0 17.44288,-5.62468 29.27439,-4.78616c11.8315,0.83852 34.07309,8.3132 31.86845,9.11954c-1.96024,0.71694 -21.25185,-3.29597 -31.63243,-4.0317c-9.98499,-0.70768 -29.5104,-0.30168 -29.5104,-0.30168z" fill="#000000" stroke-width="0"/><path d="M59.99295,-303.45124c0,0 11.84732,-13.98329 22.33944,-19.51531c10.49212,-5.53202 33.32877,-10.92142 31.88173,-9.07298c-1.28664,1.64352 -19.79062,8.4164 -28.9961,13.27001c-8.85463,4.66862 -25.22509,15.31828 -25.22509,15.31828z" fill="#000000" stroke-width="0"/><path d="M73.89696,-333.34625c0,0 16.2059,-8.5592 28.00395,-9.78138c11.79806,-1.22217 34.99776,2.28958 32.96598,3.46539c-1.80654,1.04546 -21.5016,0.43253 -31.85284,1.50482c-9.95676,1.03144 -29.11714,4.81117 -29.11714,4.81117z" fill="#000000" stroke-width="0"/></g><g data-paper-data="{&quot;index&quot;:null}" stroke="none" stroke-linecap="butt"><g fill="#996d51" stroke-width="0.5"><path d="M363.22813,-345.42082c-2.26238,-0.81586 -3.56819,-3.1799 -2.91666,-5.28031c0.65157,-2.10037 3.01375,-3.14172 5.27614,-2.32589c2.26238,0.81586 3.56819,3.17994 2.91665,5.28031c-0.65157,2.10037 -3.01375,3.14172 -5.27613,2.32587z"/><path d="M370.09415,-326.70732c-2.26238,-0.81586 -3.56819,-3.17994 -2.91665,-5.28031c0.65157,-2.10037 3.01378,-3.14173 5.27617,-2.32587c2.26238,0.81586 3.56819,3.1799 2.91663,5.28031c-0.65157,2.10037 -3.01376,3.14173 -5.27614,2.3259z"/><path d="M347.96531,-334.46174c-2.26238,-0.81586 -3.5682,-3.17991 -2.91666,-5.28031c0.65157,-2.10038 3.01376,-3.14173 5.27614,-2.3259c2.26238,0.81586 3.56822,3.1799 2.91665,5.28031c-0.65157,2.10037 -3.01378,3.14173 -5.27617,2.3259z"/></g><path d="M396.07302,-352.67986c-10.38058,0.73568 -29.67219,4.74866 -31.63243,4.0317c-2.20464,-0.80634 20.03695,-8.28102 31.86845,-9.11954c11.8315,-0.83852 29.27438,4.78616 29.27438,4.78616c0,0 -19.52538,-0.40599 -29.51037,0.30169z" fill="#000000" stroke-width="0"/><path d="M398.32804,-317.13927c-9.20545,-4.85358 -27.70944,-11.62649 -28.99608,-13.27001c-1.44705,-1.84844 21.38961,3.54096 31.88176,9.07298c10.49212,5.53202 22.33944,19.51528 22.33944,19.51528c0,0 -16.37046,-10.64963 -25.22509,-15.31825z" fill="#000000" stroke-width="0"/><path d="M380.53199,-336.5272c-10.35123,-1.07229 -30.04629,-0.45936 -31.85284,-1.50482c-2.03177,-1.17578 21.16793,-4.68757 32.96598,-3.46539c11.79805,1.22217 28.00396,9.78137 28.00396,9.78137c0,0 -19.16038,-3.77972 -29.11714,-4.81116z" fill="#000000" stroke-width="0"/></g><path d="M255.40928,-370.56162c0,2.26242 -12.87456,11.11894 -12.87456,11.11894c0,0 -12.87455,-9.07203 -12.87455,-11.11894c0,-2.26241 5.76413,-4.09644 12.87455,-4.09644c7.11042,0 12.87456,1.83403 12.87456,4.09644z" fill="#996d51" stroke="none" stroke-width="0" stroke-linecap="butt"/><path d="M242.54907,-390.70688c13.05498,0 23.63816,9.37376 23.63816,9.37376c0,0 -10.58318,-3.81132 -23.63816,-3.81132c-13.05498,0 -23.63817,3.81132 -23.63817,3.81132c0,0 10.58319,-9.37376 23.63817,-9.37376z" fill="#e4a279" stroke="none" stroke-width="0" stroke-linecap="butt"/><path d="M225.76349,-587.48541c0,0 9.97433,-1.08681 15.21538,-1.08681c5.60289,0 17.38899,1.08681 17.38899,1.08681c0,0 -5.09496,15.76535 -7.45196,25.03627c-2.94502,11.58368 -8.85022,39.08566 -8.85022,39.08566c0,0 -5.66563,-26.55958 -8.5863,-38.0475c-2.41784,-9.51011 -7.71589,-26.0744 -7.71589,-26.0744z" fill="#ca8f6b" stroke="none" stroke-width="0" stroke-linecap="butt"/><path d="M281.15502,272.23231l0.41747,-18.50301" data-paper-data="{&quot;index&quot;:null}" fill="none" stroke="#000000" stroke-width="2.5" stroke-linecap="round"/><path d="M318.85877,250.48246l1.08684,18.47582" data-paper-data="{&quot;index&quot;:null}" fill="none" stroke="#000000" stroke-width="2.5" stroke-linecap="round"/><path d="M390.05858,-362.52461c0,0 -37.02139,107.20128 -68.28015,120.71883c-12.41403,5.36831 -26.79073,63.74264 -39.61322,51.68369c-19.46479,-18.30564 -35.34821,43.92852 -35.34821,43.92852c0,0 -49.02597,-90.00129 -79.86244,-102.2838c-30.83647,-12.28251 -68.99847,-114.04724 -68.99847,-114.04724" fill="#000000" stroke="#000000" stroke-width="2.5" stroke-linecap="round"/></g></g></svg>