<svg version="1.1" xmlns="http://www.w3.org/2000/svg" xmlns:xlink="http://www.w3.org/1999/xlink" width="113.20792" height="180.30165" viewBox="0,0,113.20792,180.30165"><g transform="translate(-192.22014,-152.77189)"><g data-paper-data="{&quot;isPaintingLayer&quot;:true}" fill-rule="nonzero" stroke="#000000" stroke-linejoin="miter" stroke-miterlimit="10" stroke-dasharray="" stroke-dashoffset="0" style="mix-blend-mode: normal"><path d="M299.31152,260.02979c1.41422,1.41422 0,2.82843 0,2.82843l-1.0972,1.09094c-3.61175,3.15942 -7.72966,6.83474 -12.62682,7.79609c-1.58078,0.31032 -4.13329,-0.13545 -5.67721,-0.32707c-3.20106,-0.64007 -6.704,-1.18484 -9.73802,-2.44356c-2.54748,-1.05687 -4.64563,-2.45098 -6.19809,-4.22354c-6.96641,0.9776 -14.30382,-1.10715 -18.74655,-6.87276c-0.26326,-0.34166 -1.27713,-3.75068 -1.52831,-4.37778c-0.71288,-1.77974 -1.5517,-3.50652 -2.30696,-5.2687c0,0 -0.78784,-1.83829 1.05045,-2.62613c1.83829,-0.78784 2.62613,1.05045 2.62613,1.05045c0.77352,1.80497 1.63121,3.57436 2.35971,5.39796c0.46952,1.17532 0.34366,2.63719 1.13835,3.62222c3.20138,3.96819 8.19478,5.57254 13.1569,5.29098c-0.53267,-1.44938 -0.81664,-3.06465 -0.82658,-4.85666c-0.0045,-0.81127 -0.01961,-4.64339 0.11946,-5.01419c0.37597,-1.00247 1.32461,-1.68276 1.96416,-2.54142c1.81486,-2.43663 3.21859,-5.26895 6.45688,-6.05756c5.3904,-1.3127 11.50314,2.94852 11.45923,8.64648c-0.00858,1.11264 -0.5928,2.14493 -0.8892,3.21739c-1.78784,2.29857 -3.87768,5.10538 -6.3226,6.73876c-1.6026,1.07065 -3.35789,1.9303 -5.19669,2.56586c0.0505,0.03161 0.10162,0.06273 0.15334,0.09333c3.60827,2.13463 7.85076,2.89863 11.90912,3.71049c6.38887,0.80521 10.37328,-2.45583 15.02929,-6.53098l0.9028,-0.90906c0,0 1.41421,-1.41422 2.82842,0zM265.69094,260.33876c2.06072,-0.54067 4.02568,-1.40346 5.75177,-2.55086c1.90443,-1.26596 3.54243,-3.50696 5.01073,-5.26125c1.13356,-3.69896 -3.82748,-8.63515 -7.3144,-5.51479c-1.25294,1.12122 -3.75655,3.94116 -4.3612,5.44636c-0.45407,1.13036 0.1273,2.43436 0.11946,3.65248c-0.00931,1.44636 0.22936,2.91492 0.79364,4.22806z" fill="#e08670" stroke-width="2" stroke-linecap="butt"/><path d="M264.02024,175.09502c2.82549,-0.73923 4.99846,0.29756 7.82026,4.74265c5.76306,9.07835 16.08526,38.82105 18.18935,41.15119c2.11016,2.33686 5.25782,3.86639 9.10809,8.47404c4.05937,4.8579 6.17767,11.39166 4.4145,14.01227c-2.64948,3.93799 -8.47309,-1.28378 -8.47309,-1.28378c0,0 0.94263,8.50452 -3.40175,9.8928c-4.31583,1.37917 -8.68196,-4.88701 -8.68196,-4.88701c0,0 -1.92516,7.71006 -7.01428,6.12734c-4.38186,-1.36276 -3.0249,-12.4686 -3.0249,-12.4686c0,0 -6.36581,2.36458 -8.46188,-1.28895c-1.97159,-3.43656 3.87199,-9.09331 6.1913,-11.94691c1.90476,-2.34354 -9.87635,-34.56351 -10.32178,-43.43511c-0.25754,-5.12925 0.49604,-8.26316 3.65614,-9.08994z" data-paper-data="{&quot;index&quot;:null}" fill="#f19078" stroke-width="2.5" stroke-linecap="butt"/><g data-paper-data="{&quot;index&quot;:null}" stroke-linecap="butt"><path d="M257.32704,331.72443c-7.12077,0.54381 -14.45542,0.32247 -15.70054,-0.75193c-1.52555,-1.31639 0,-96.43664 0,-96.43664h27.63161c0,0 0.92525,22.97176 1.30086,36.57334c0.26592,9.62908 1.49219,32.69525 2.00297,45.62665c0.39952,10.11458 0.2484,11.47332 -0.39524,12.26185c-0.70542,0.86421 -7.82717,2.19121 -14.83966,2.72674z" fill="#f19078" stroke-width="0"/><path d="M269.76884,247.7537c0.05147,1.37707 0.15805,4.27943 0.15805,4.27943c0,0 -7.77388,6.44541 -13.31281,9.52178c-5.53894,3.07638 -15.2567,4.46595 -15.2567,4.46595l0.2691,-31.485h27.63161c0,0 0.23196,5.75929 0.51076,13.21785z" fill="#e08670" stroke-width="0"/><path d="M257.32704,331.72443c-7.12077,0.54381 -14.45542,0.32247 -15.70054,-0.75193c-0.44485,-0.38386 -0.66972,-27.28933 -0.66972,-27.28933c0,0 7.80055,10.09692 16.95264,7.89571c9.93315,-2.38905 13.60314,-20.71832 13.60314,-20.71832c0,0 0.86879,21.30325 1.04939,25.87529c0.39952,10.11458 0.2484,11.47332 -0.39524,12.26185c-0.70542,0.86421 -7.82717,2.19121 -14.83966,2.72674z" fill="#e08670" stroke-width="0"/><path d="M257.32704,331.72443c-7.12077,0.54381 -14.45542,0.32247 -15.70054,-0.75193c-1.52555,-1.31639 0,-96.43664 0,-96.43664h27.63161c0,0 0.92525,22.97176 1.30086,36.57334c0.26592,9.62908 1.49219,32.69525 2.00297,45.62665c0.39952,10.11458 0.2484,11.47332 -0.39524,12.26185c-0.70542,0.86421 -7.82717,2.19121 -14.83966,2.72674z" fill="none" stroke-width="2.5"/></g><g stroke-linecap="butt"><path d="M208.03626,328.68433c-0.64364,-0.78852 -0.79476,-2.14726 -0.39524,-12.26184c0.51078,-12.9314 1.73706,-35.99757 2.00298,-45.62665c0.37562,-13.60158 1.30086,-36.57334 1.30086,-36.57334h27.63161c0,0 1.52555,95.12026 0,96.43665c-1.24511,1.07441 -8.57977,1.29573 -15.70054,0.75192c-7.01249,-0.53553 -14.13425,-1.86253 -14.83966,-2.72674z" fill="#f19078" stroke-width="0"/><path d="M210.94486,234.22251h27.63161l0.2691,31.485c0,0 -9.71777,-1.38957 -15.2567,-4.46595c-5.53894,-3.07638 -13.31282,-9.52178 -13.31282,-9.52178c0,0 0.10657,-2.90235 0.15805,-4.27943c0.2788,-7.45856 0.51076,-13.21785 0.51076,-13.21785z" fill="#e08670" stroke-width="0"/><path d="M208.03626,328.68433c-0.64364,-0.78852 -0.79476,-2.14726 -0.39524,-12.26184c0.1806,-4.57204 1.04937,-25.87529 1.04937,-25.87529c0,0 3.66999,18.32927 13.60314,20.71832c9.15208,2.2012 16.95264,-7.89571 16.95264,-7.89571c0,0 -0.22487,26.90548 -0.66972,27.28934c-1.24511,1.07441 -8.57977,1.29574 -15.70054,0.75193c-7.01249,-0.53553 -14.13425,-1.86253 -14.83966,-2.72674z" fill="#e08670" stroke-width="0"/><path d="M208.03626,328.68433c-0.64364,-0.78852 -0.79476,-2.14726 -0.39524,-12.26184c0.51078,-12.9314 1.73706,-35.99757 2.00298,-45.62665c0.37562,-13.60158 1.30086,-36.57334 1.30086,-36.57334h27.63161c0,0 1.52555,95.12026 0,96.43665c-1.24511,1.07441 -8.57977,1.29573 -15.70054,0.75192c-7.01249,-0.53553 -14.13425,-1.86253 -14.83966,-2.72674z" fill="none" stroke-width="2.5"/></g><g stroke-linecap="butt"><path d="M277.01011,209.71863c0,28.94338 -16.75076,49.11653 -37.41387,49.11653c-20.66311,0 -36.49686,-19.23312 -37.41387,-48.1765c-0.91651,-28.92812 16.75076,-56.63677 37.41387,-56.63677c20.66311,0 37.41387,26.75336 37.41387,55.69674z" fill="#e08670" stroke-width="0"/><path d="M271.04961,201.47651c0,24.66028 -13.97149,41.84817 -31.20618,41.84817c-17.23469,0 -30.44133,-16.38697 -31.20619,-41.04725c-0.21879,-7.05428 3.76498,-20.37838 3.76498,-20.37838c0,0 16.28192,6.59069 27.44119,6.43391c11.15928,-0.15678 27.05968,-7.22537 27.05968,-7.22537c0,0 4.14651,13.25672 4.14651,20.36892z" fill="#f19078" stroke-width="0"/><path d="M277.01011,209.71863c0,28.94338 -16.75076,49.11653 -37.41387,49.11653c-20.66311,0 -36.49686,-19.23312 -37.41387,-48.1765c-0.91651,-28.92812 16.75076,-56.63677 37.41387,-56.63677c20.66311,0 37.41387,26.75336 37.41387,55.69674z" fill="none" stroke-width="2.5"/></g><path d="M220.68166,325.2589l0.33334,5" fill="none" stroke-width="2.5" stroke-linecap="round"/><path d="M258.34831,330.92555l0.33333,-5.33333" fill="none" stroke-width="2.5" stroke-linecap="round"/><path d="M200.67307,191.28952c8.4531,-2.72919 42.75695,-3.13815 44.27283,-5.7501c1.84582,-3.18044 5.063,-10.65009 8.97535,-10.02516c4.15938,0.66439 4.20561,7.45503 4.20561,7.45503c0,0 9.90309,-5.2067 12.73102,-1.59276c3.28438,4.19725 -3.24209,8.73117 -3.24209,8.73117c0,0 7.40717,1.86058 7.64794,6.38502c0.24235,4.55434 -8.04381,6.68851 -8.04381,6.68851c0,0 6.94742,3.59367 4.20475,7.46734c-1.82516,2.57783 -8.68551,2.91391 -14.66714,0.8408c-5.67352,-1.96631 -8.21975,-4.36713 -11.15299,-5.51157c-2.92483,-1.14116 -34.39503,-0.24647 -44.927,-2.41608c-5.15682,-1.06231 -6.89674,-2.72646 -7.2074,-5.63048c-0.34745,-3.24794 2.31562,-5.06379 7.20292,-6.64171z" data-paper-data="{&quot;index&quot;:null}" fill="#f19078" stroke-width="2.5" stroke-linecap="butt"/></g></g></svg>