<svg version="1.1" xmlns="http://www.w3.org/2000/svg" xmlns:xlink="http://www.w3.org/1999/xlink" width="194.80148" height="268.78518" viewBox="0,0,194.80148,268.78518"><defs><linearGradient x1="217.46221" y1="91.63356" x2="217.46221" y2="107.92741" gradientUnits="userSpaceOnUse" id="color-1"><stop offset="0" stop-color="#a968d5"/><stop offset="1" stop-color="#7c5099"/></linearGradient><linearGradient x1="262.74028" y1="91.32023" x2="262.74028" y2="107.61406" gradientUnits="userSpaceOnUse" id="color-2"><stop offset="0" stop-color="#a968d5"/><stop offset="1" stop-color="#7c5099"/></linearGradient><radialGradient cx="169.61938" cy="94.51278" r="18.43689" gradientUnits="userSpaceOnUse" id="color-3"><stop offset="0" stop-color="#7223a6"/><stop offset="1" stop-color="#7223a6" stop-opacity="0"/></radialGradient><linearGradient x1="189.66443" y1="98.30737" x2="194.27795" y2="99.65676" gradientUnits="userSpaceOnUse" id="color-4"><stop offset="0" stop-color="#7223a6"/><stop offset="1" stop-color="#7223a6" stop-opacity="0"/></linearGradient><radialGradient cx="167.96239" cy="116.86596" r="18.30153" gradientUnits="userSpaceOnUse" id="color-5"><stop offset="0" stop-color="#7223a6"/><stop offset="1" stop-color="#7223a6" stop-opacity="0"/></radialGradient><linearGradient x1="187.97697" y1="113.66602" x2="192.72936" y2="113.38296" gradientUnits="userSpaceOnUse" id="color-6"><stop offset="0" stop-color="#7223a6"/><stop offset="1" stop-color="#7223a6" stop-opacity="0"/></linearGradient><radialGradient cx="175.14889" cy="139.04047" r="18.39741" gradientUnits="userSpaceOnUse" id="color-7"><stop offset="0" stop-color="#7223a6"/><stop offset="1" stop-color="#7223a6" stop-opacity="0"/></radialGradient><linearGradient x1="192.81937" y1="128.85842" x2="197.16874" y2="126.89225" gradientUnits="userSpaceOnUse" id="color-8"><stop offset="0" stop-color="#7223a6"/><stop offset="1" stop-color="#7223a6" stop-opacity="0"/></linearGradient><radialGradient cx="306.06621" cy="61.08519" r="18.43689" gradientUnits="userSpaceOnUse" id="color-9"><stop offset="0" stop-color="#7223a6"/><stop offset="1" stop-color="#7223a6" stop-opacity="0"/></radialGradient><linearGradient x1="287.4582" y1="69.44847" x2="283.2864" y2="71.83627" gradientUnits="userSpaceOnUse" id="color-10"><stop offset="0" stop-color="#7223a6"/><stop offset="1" stop-color="#7223a6" stop-opacity="0"/></linearGradient><radialGradient cx="312.88891" cy="82.43609" r="18.30153" gradientUnits="userSpaceOnUse" id="color-11"><stop offset="0" stop-color="#7223a6"/><stop offset="1" stop-color="#7223a6" stop-opacity="0"/></radialGradient><linearGradient x1="292.67983" y1="83.99048" x2="287.99241" y2="84.82318" gradientUnits="userSpaceOnUse" id="color-12"><stop offset="0" stop-color="#7223a6"/><stop offset="1" stop-color="#7223a6" stop-opacity="0"/></linearGradient><radialGradient cx="311.07016" cy="105.675" r="18.39741" gradientUnits="userSpaceOnUse" id="color-13"><stop offset="0" stop-color="#7223a6"/><stop offset="1" stop-color="#7223a6" stop-opacity="0"/></radialGradient><linearGradient x1="291.51279" y1="99.89319" x2="286.8249" y2="98.99519" gradientUnits="userSpaceOnUse" id="color-14"><stop offset="0" stop-color="#7223a6"/><stop offset="1" stop-color="#7223a6" stop-opacity="0"/></linearGradient></defs><g transform="translate(-136.05401,-45.60741)"><g data-paper-data="{&quot;isPaintingLayer&quot;:true}" fill-rule="nonzero" stroke-linejoin="miter" stroke-miterlimit="10" stroke-dasharray="" stroke-dashoffset="0" style="mix-blend-mode: normal"><g stroke="#000000" stroke-width="2.5" stroke-linecap="butt"><path d="M204.99659,287.89126c-15.14774,7.35082 -27.84332,6.15491 -29.61649,3.31555c-1.12136,-1.79561 0.13938,-19.93421 12.38104,-33.67843c12.31055,-13.82156 33.33457,-16.08719 38.33476,-9.70895c5.00019,6.37824 -4.44738,31.99106 -21.09931,40.07183z" fill="#7223a6"/><path d="M178.54453,289.50406c0,0 22.96138,-29.14414 29.44694,-41.4288c5.61982,-10.64483 8.11443,-32.13546 8.11443,-32.13546l29.54687,1.32971c0,0 -11.03218,33.30522 -24.56713,47.23448c-13.53495,13.92926 -42.5411,25.00009 -42.5411,25.00009z" fill="#9c30e4"/></g><path d="M260.80993,163.20538c-0.03877,-5.13557 0.84766,-8.23451 4.04013,-8.9259c2.85441,-0.61818 4.98123,0.51025 7.61108,5.07153c5.37105,9.31566 14.41661,39.47112 16.41951,41.88881c2.00867,2.42464 5.08832,4.08686 8.73877,8.8544c3.8487,5.02644 5.75653,18.50315 4.10409,19.99982c-1.65244,1.49667 -8.7013,-7.4558 -8.7013,-7.4558c0,0 -0.90253,15.51946 -3.23894,16.42287c-2.33641,0.90341 -9.04708,-11.93648 -9.04708,-11.93648c0,0 -4.02979,12.75244 -6.10654,11.63509c-1.84766,-0.9941 -3.65335,-18.39833 -3.65335,-18.39833c0,0 -10.81991,2.96305 -11.01474,0.67657c-0.95155,-1.7738 6.8714,-11.24495 9.31016,-13.99715c2.00286,-2.26026 -8.39475,-34.95293 -8.4618,-43.83544z" data-paper-data="{&quot;index&quot;:null}" fill="#9c30e4" stroke="#000000" stroke-width="2.5" stroke-linecap="butt"/><path d="M203.60013,165.95744c-8.32693,-3.09283 -35.51236,-24.01825 -38.32024,-22.90649c-3.419,1.35374 -14.99053,5.47694 -16.33338,3.97742c-2.0829,-0.96307 4.39309,-10.1234 4.39309,-10.1234c0,0 -15.74455,-7.63394 -16.0488,-9.70988c-0.34197,-2.33333 13.02023,-1.77162 13.02023,-1.77162c0,0 -9.78087,-10.68787 -8.1347,-12.57601c1.64617,-1.88814 16.54275,2.55711 16.54275,2.55711c0,0 -6.01121,-9.67979 -4.04067,-10.72262c1.97055,-1.04283 13.98828,5.34746 17.40049,10.67985c3.23646,5.05772 3.74853,8.51966 5.34261,11.2349c1.58951,2.70746 26.85107,21.49649 33.776,29.72297c3.3907,4.02797 3.726,6.41214 2.17126,8.88451c-1.73887,2.76518 -4.95433,2.5414 -9.76868,0.75323z" data-paper-data="{&quot;index&quot;:null}" fill="#9c30e4" stroke="#000000" stroke-width="2.5" stroke-linecap="butt"/><g data-paper-data="{&quot;index&quot;:null}" stroke="#000000" stroke-linecap="butt"><path d="M257.00791,313.04349c-7.12077,0.54381 -14.45542,0.32247 -15.70054,-0.75193c-1.52555,-1.31639 0,-96.43664 0,-96.43664h27.63161c0,0 0.92525,22.97176 1.30086,36.57334c0.26592,9.62908 1.49219,32.69525 2.00297,45.62665c0.39952,10.11458 0.2484,11.47332 -0.39524,12.26185c-0.70542,0.86421 -7.82717,2.19121 -14.83966,2.72674z" fill="#9c30e4" stroke-width="0"/><path d="M269.44972,229.07275c0.05147,1.37707 0.15805,4.27943 0.15805,4.27943c0,0 -7.77388,6.44541 -13.31281,9.52178c-5.53894,3.07638 -15.2567,4.46595 -15.2567,4.46595l0.2691,-31.485h27.63161c0,0 0.23196,5.75929 0.51076,13.21785z" fill="#882ac6" stroke-width="0"/><path d="M257.00791,313.04349c-7.12077,0.54381 -14.45542,0.32247 -15.70054,-0.75193c-0.44485,-0.38386 -0.66972,-27.28933 -0.66972,-27.28933c0,0 7.80055,10.09692 16.95264,7.89571c9.93315,-2.38905 13.60314,-20.71832 13.60314,-20.71832c0,0 0.86879,21.30325 1.04939,25.87529c0.39952,10.11458 0.2484,11.47332 -0.39524,12.26185c-0.70542,0.86421 -7.82717,2.19121 -14.83966,2.72674z" fill="#882ac6" stroke-width="0"/><path d="M257.00791,313.04349c-7.12077,0.54381 -14.45542,0.32247 -15.70054,-0.75193c-1.52555,-1.31639 0,-96.43664 0,-96.43664h27.63161c0,0 0.92525,22.97176 1.30086,36.57334c0.26592,9.62908 1.49219,32.69525 2.00297,45.62665c0.39952,10.11458 0.2484,11.47332 -0.39524,12.26185c-0.70542,0.86421 -7.82717,2.19121 -14.83966,2.72674z" fill="none" stroke-width="2.5"/></g><g stroke="#000000" stroke-linecap="butt"><path d="M207.71713,310.00338c-0.64364,-0.78852 -0.79476,-2.14726 -0.39524,-12.26184c0.51078,-12.9314 1.73706,-35.99757 2.00298,-45.62665c0.37562,-13.60158 1.30086,-36.57334 1.30086,-36.57334h27.63161c0,0 1.52555,95.12026 0,96.43665c-1.24511,1.07441 -8.57977,1.29573 -15.70054,0.75192c-7.01249,-0.53553 -14.13425,-1.86253 -14.83966,-2.72674z" fill="#9c30e4" stroke-width="0"/><path d="M210.62573,215.54156h27.63161l0.2691,31.485c0,0 -9.71777,-1.38957 -15.2567,-4.46595c-5.53894,-3.07638 -13.31282,-9.52178 -13.31282,-9.52178c0,0 0.10657,-2.90235 0.15805,-4.27943c0.2788,-7.45856 0.51076,-13.21785 0.51076,-13.21785z" fill="#882ac6" stroke-width="0"/><path d="M207.71713,310.00338c-0.64364,-0.78852 -0.79476,-2.14726 -0.39524,-12.26184c0.1806,-4.57204 1.04937,-25.87529 1.04937,-25.87529c0,0 3.66999,18.32927 13.60314,20.71832c9.15208,2.2012 16.95264,-7.89571 16.95264,-7.89571c0,0 -0.22487,26.90548 -0.66972,27.28934c-1.24511,1.07441 -8.57977,1.29574 -15.70054,0.75193c-7.01249,-0.53553 -14.13425,-1.86253 -14.83966,-2.72674z" fill="#882ac6" stroke-width="0"/><path d="M207.71713,310.00338c-0.64364,-0.78852 -0.79476,-2.14726 -0.39524,-12.26184c0.51078,-12.9314 1.73706,-35.99757 2.00298,-45.62665c0.37562,-13.60158 1.30086,-36.57334 1.30086,-36.57334h27.63161c0,0 1.52555,95.12026 0,96.43665c-1.24511,1.07441 -8.57977,1.29573 -15.70054,0.75192c-7.01249,-0.53553 -14.13425,-1.86253 -14.83966,-2.72674z" fill="none" stroke-width="2.5"/></g><g stroke="#000000" stroke-linecap="butt"><path d="M276.69097,191.03769c0,28.94338 -16.75076,49.11653 -37.41387,49.11653c-20.66311,0 -36.49686,-19.23312 -37.41387,-48.1765c-0.91651,-28.92812 16.75076,-56.63677 37.41387,-56.63677c20.66311,0 37.41387,26.75336 37.41387,55.69674z" fill="#882ac6" stroke-width="0"/><path d="M270.73048,182.79557c0,24.66028 -13.97149,41.84817 -31.20618,41.84817c-17.23469,0 -30.44133,-16.38697 -31.20619,-41.04725c-0.21879,-7.05428 3.76498,-20.37838 3.76498,-20.37838c0,0 16.28192,6.59069 27.44119,6.43391c11.15928,-0.15678 27.05968,-7.22537 27.05968,-7.22537c0,0 4.14651,13.25672 4.14651,20.36892z" fill="#9c30e4" stroke-width="0"/><path d="M276.69097,191.03769c0,28.94338 -16.75076,49.11653 -37.41387,49.11653c-20.66311,0 -36.49686,-19.23312 -37.41387,-48.1765c-0.91651,-28.92812 16.75076,-56.63677 37.41387,-56.63677c20.66311,0 37.41387,26.75336 37.41387,55.69674z" fill="none" stroke-width="2.5"/></g><g stroke-linecap="butt"><g stroke="#000000"><path d="M297.00515,103.72919c0,31.40942 -25.56758,56.87178 -57.10679,56.87178c-31.53921,0 -57.10678,-25.46236 -57.10678,-56.87178c0,-31.40942 25.56758,-56.87177 57.10679,-56.87177c31.53921,0 57.10679,25.46236 57.10679,56.87178z" fill="#882ac6" stroke-width="0"/><path d="M291.83499,97.854c0,27.38589 -23.3489,49.58655 -52.15125,49.58655c-28.80233,0 -52.15124,-22.20066 -52.15124,-49.58655c0,-27.3859 23.3489,-49.58655 52.15124,-49.58655c28.80233,0 52.15125,22.20065 52.15125,49.58655z" fill="#9c30e4" stroke-width="0"/><path d="M297.00515,103.72919c0,31.40942 -25.56758,56.87178 -57.10679,56.87178c-31.53921,0 -57.10678,-25.46236 -57.10678,-56.87178c0,-31.40942 25.56758,-56.87177 57.10679,-56.87177c31.53921,0 57.10679,25.46236 57.10679,56.87178z" fill="none" stroke-width="2.5"/></g><path d="M213.25858,118.80415c2.73739,5.86582 1.06945,12.87733 -3.72544,15.66065c-4.79489,2.78332 -10.90101,0.28448 -13.63841,-5.58134c-2.73739,-5.86582 -1.06946,-12.87733 3.72543,-15.66065c4.79489,-2.78332 10.90102,-0.28448 13.63842,5.58134z" fill="#7223a6" stroke="none" stroke-width="0"/><path d="M281.21037,113.69282c4.79489,2.78332 6.46283,9.79485 3.72543,15.66066c-2.73739,5.86582 -8.84351,8.36466 -13.6384,5.58134c-4.79489,-2.78332 -6.46283,-9.79484 -3.72543,-15.66065c2.73739,-5.86582 8.84351,-8.36467 13.6384,-5.58134z" data-paper-data="{&quot;index&quot;:null}" fill="#7223a6" stroke="none" stroke-width="0"/></g><path d="M232.76407,103.59563c-2.39429,11.08591 -12.25227,18.36292 -22.01844,16.25366c-9.76615,-2.10925 -15.74223,-12.80605 -13.34795,-23.89195c2.39429,-11.0859 12.25227,-18.36292 22.01844,-16.25366c9.76615,2.10926 15.74223,12.80605 13.34795,23.89195z" fill="#ffffff" stroke="#000000" stroke-width="2.5" stroke-linecap="butt"/><g stroke="none" stroke-linecap="butt"><g><path d="M209.31528,99.78049c0,-4.49942 3.6475,-8.14693 8.14692,-8.14693c4.49942,0 8.14693,3.64751 8.14693,8.14693c0,4.49942 -3.64751,8.14692 -8.14693,8.14692c-4.49942,0 -8.14692,-3.6475 -8.14692,-8.14692z" fill="url(#color-1)" stroke-width="0.5"/><path d="M218.7694,107.78953l-0.76008,-3.95233l1.8663,-0.62826l2.06359,3.34009c0,0 -0.84777,0.63232 -1.53736,0.84304c-0.67499,0.20626 -1.63244,0.39748 -1.63244,0.39748z" fill="#6c4287" stroke-width="0"/><path d="M223.0514,105.68718l-2.59819,-2.93979l1.01418,-0.95403l2.92407,2.18928c0,0 -0.34263,0.59353 -0.61266,0.937c-0.27003,0.34347 -0.72741,0.76753 -0.72741,0.76753z" fill="#6c4287" stroke-width="0"/></g><path d="M212.73698,99.78049c0,-2.60967 2.11555,-4.72522 4.72522,-4.72522c2.60967,0 4.72522,2.11555 4.72522,4.72522c0,2.60967 -2.11555,4.72521 -4.72522,4.72521c-2.60967,0 -4.72522,-2.11554 -4.72522,-4.72521z" fill="#000000" stroke-width="0.5"/><path d="M216.44391,98.12807c-1.20529,1.17977 -3.01243,1.28813 -4.03639,0.24203c-1.02396,-1.04609 -0.87694,-2.85051 0.32834,-4.03028c1.20529,-1.17977 3.01244,-1.28813 4.03639,-0.24203c1.02396,1.04609 0.87694,2.85051 -0.32835,4.03028z" fill="#ffffff" stroke-width="0"/><path d="M212.94855,99.39991c0.24212,0.32627 0.21661,0.73883 -0.05696,0.92146c-0.27357,0.18263 -0.69161,0.06617 -0.93373,-0.2601c-0.24212,-0.32627 -0.21661,-0.73882 0.05696,-0.92145c0.27357,-0.18263 0.69161,-0.06618 0.93373,0.2601z" fill="#ffffff" stroke-width="0"/></g><path d="M260.80219,79.547c9.76617,-2.10926 19.62415,5.16776 22.01844,16.25366c2.39429,11.0859 -3.58179,21.7827 -13.34795,23.89195c-9.76617,2.10925 -19.62415,-5.16776 -22.01844,-16.25366c-2.39428,-11.0859 3.58179,-21.7827 13.34795,-23.89195z" data-paper-data="{&quot;index&quot;:null}" fill="#ffffff" stroke="#000000" stroke-width="2.5" stroke-linecap="butt"/><g stroke="none" stroke-linecap="butt"><g><path d="M254.59336,99.46715c0,-4.49942 3.64751,-8.14692 8.14693,-8.14692c4.49942,0 8.14692,3.6475 8.14692,8.14692c0,4.49942 -3.6475,8.14691 -8.14692,8.14691c-4.49942,0 -8.14693,-3.6475 -8.14693,-8.14691z" fill="url(#color-2)" stroke-width="0.5"/><path d="M264.04748,107.47619l-0.76009,-3.95235l1.86631,-0.62826l2.06359,3.34009c0,0 -0.84778,0.63232 -1.53737,0.84304c-0.67499,0.20626 -1.63245,0.39748 -1.63245,0.39748z" fill="#6c4287" stroke-width="0"/><path d="M268.32947,105.37384l-2.59819,-2.93979l1.01418,-0.95401l2.92406,2.18928c0,0 -0.34262,0.59352 -0.61266,0.93699c-0.27004,0.34347 -0.7274,0.76753 -0.7274,0.76753z" fill="#6c4287" stroke-width="0"/></g><path d="M258.01507,99.46715c0,-2.60967 2.11556,-4.72522 4.72522,-4.72522c2.60967,0 4.7252,2.11555 4.7252,4.72522c0,2.60967 -2.11555,4.72521 -4.7252,4.72521c-2.60967,0 -4.72522,-2.11554 -4.72522,-4.72521z" fill="#000000" stroke-width="0.5"/><path d="M261.722,97.81473c-1.20529,1.17977 -3.01243,1.28813 -4.03638,0.24203c-1.02396,-1.0461 -0.87694,-2.85052 0.32834,-4.03028c1.20529,-1.17977 3.01244,-1.28813 4.03638,-0.24203c1.02395,1.0461 0.87694,2.85052 -0.32835,4.03028z" fill="#ffffff" stroke-width="0"/><path d="M258.22661,99.08657c0.24212,0.32627 0.2166,0.73882 -0.05697,0.92145c-0.27357,0.18263 -0.69162,0.06618 -0.93372,-0.2601c-0.2421,-0.32627 -0.2166,-0.73882 0.05696,-0.92145c0.27357,-0.18263 0.69162,-0.06618 0.93372,0.2601z" fill="#ffffff" stroke-width="0"/></g><path d="M221.20052,66.43228c0.27622,0.85389 -1.10016,1.85653 -3.07423,2.23944c-1.97407,0.38291 -6.32138,0.49052 -6.5976,-0.36337c-0.27622,-0.85389 3.62326,-2.34594 5.59733,-2.72885c1.97407,-0.38291 3.79829,-0.00111 4.07451,0.85278z" fill="#000000" stroke="none" stroke-width="0" stroke-linecap="butt"/><path d="M262.31264,65.26614c1.97407,0.38292 5.87354,1.87495 5.59732,2.72885c-0.27622,0.85389 -4.62354,0.74629 -6.5976,0.36338c-1.97407,-0.38292 -3.35046,-1.38555 -3.07423,-2.23944c0.27622,-0.85389 2.10045,-1.2357 4.07452,-0.85278z" data-paper-data="{&quot;index&quot;:null}" fill="#000000" stroke="none" stroke-width="0" stroke-linecap="butt"/><path d="M228.75872,131.74813c0,0 4.4351,-0.24278 6.43295,-0.48305c1.74236,-0.20955 4.89287,-0.87905 4.89287,-0.87905c0,0 3.88389,0.74871 5.81543,0.97653c1.91777,0.2262 5.73279,0.38557 5.73279,0.38557" fill="none" stroke="#000000" stroke-width="2.5" stroke-linecap="round"/><g stroke-linecap="butt"><g><path d="M184.69103,102.10447c0.55741,-0.02197 0.78591,0.33425 0.8787,0.60086c0.12636,-0.03364 0.26263,-0.0384 0.40048,-0.00854c0.48157,0.10428 0.80025,0.59132 0.7118,1.08784l-0.20605,1.15661l-0.7775,0.64494l-0.32268,0.49448c-0.13465,0.21706 -0.35556,0.36354 -0.60501,0.39973l-0.17226,0.56029c-0.1282,0.43919 -0.56017,0.70888 -1.00906,0.61169c-0.44889,-0.0972 -0.75625,-0.52699 -0.72426,-0.98702l0.0127,-0.22896c-0.07631,0.00452 -0.1547,-0.00124 -0.23362,-0.01832c-0.42256,-0.0915 -0.7197,-0.47769 -0.72643,-0.90641l-0.0248,-0.69457c-0.23724,0.19846 -0.4914,0.5283 -0.68728,0.36864c-0.20806,-0.16959 -0.08793,-0.49012 -0.01306,-0.79969c-0.00563,-0.00061 -0.01126,-0.00128 -0.01689,-0.002c-0.09977,-0.0127 -0.19285,-0.04605 -0.2814,-0.09345c-0.03705,0.11155 -0.07958,0.21315 -0.13334,0.26982c-0.4603,0.48533 -2.10777,1.29412 -2.64892,0.78208c-0.46196,-0.43713 -0.26565,-1.21844 -0.2626,-1.89871c-0.12334,0.11191 -0.25306,0.17271 -0.39846,0.10792c-0.38506,-0.17158 -0.10202,-0.87251 -0.2828,-1.26469c-0.06563,-0.14238 0.03341,0.36975 -0.08948,0.45708c-0.42213,0.29996 -0.9227,0.7776 -1.42046,0.61584c-0.45353,-0.14738 -0.62777,-0.81928 -0.89786,-1.26945c-0.26213,-0.05152 -0.55839,-0.16255 -0.91234,-0.36554c-0.74429,0.2128 -1.6569,0.97779 -2.28864,0.50571c-0.45461,-0.33971 0.18914,-1.18742 -0.02616,-1.72171c-0.09427,-0.23394 -0.18502,0.57704 -0.4259,0.59983c-0.62136,0.05882 -1.37768,0.05455 -1.8485,-0.38451c-0.27845,-0.25967 0.49593,-0.83408 0.23891,-1.11651c-0.25905,-0.28466 -0.83625,0.44504 -1.1025,0.16759c-0.23396,-0.2438 -0.0871,-0.63525 -0.03128,-1.00357c-0.01745,-0.0195 -0.03451,-0.03945 -0.05119,-0.05983c-0.01366,0.04197 -0.03117,0.07658 -0.05397,0.09342c-0.4306,0.318 -0.91623,0.98735 -1.40964,0.75949c-0.63023,-0.29103 -0.75239,-1.18591 -1.08614,-1.82932c-0.07412,0.04748 -0.15046,0.05007 -0.23038,-0.01949c-0.23354,-0.20325 -0.34936,-0.48585 -0.41962,-0.79914l-0.31322,0.21553c-0.18677,0.12853 -0.42269,0.18195 -0.66348,0.12981c-0.4441,-0.09616 -0.74967,-0.51784 -0.72517,-0.97228l0.00403,-0.10503c-0.0802,0.00376 -0.16463,0.00653 -0.25348,0.00824c-0.89648,0.01732 -0.1218,-1.93567 -0.61857,-0.40741l-0.27546,0.31286c0,0 -0.61693,0.6433 -1.25361,-0.01249c-0.33329,-0.3433 -0.32305,-0.68318 -0.2376,-0.92914c-0.03004,-0.00328 -0.06025,-0.00817 -0.09055,-0.01473c-0.43949,-0.09517 -0.74332,-0.50912 -0.72582,-0.95815c-0.13683,0.04341 -0.28668,0.05248 -0.43848,0.01962c-0.1052,-0.02278 -0.20263,-0.06383 -0.28975,-0.11926l-0.11395,0.11882c-0.19941,0.21424 -0.49893,0.31979 -0.8064,0.25321c-0.48157,-0.10428 -0.80025,-0.59132 -0.7118,-1.08784c0.0244,-0.13697 0.07724,-0.26036 0.15108,-0.36504l0.06425,-0.09561c-0.14255,-0.19563 -0.21172,-0.44665 -0.17417,-0.70208c-0.16088,0.1054 -0.3308,0.21965 -0.51371,0.34781l-0.75876,0.52211c-0.18677,0.12853 -0.42269,0.18195 -0.66348,0.12981c-0.48157,-0.10428 -0.80025,-0.59132 -0.7118,-1.08784c0.0211,-0.11843 0.06345,-0.22671 0.12227,-0.32152l0.04626,-0.07865c-0.03817,-0.13485 -0.04735,-0.28001 -0.02135,-0.42598c0.03365,-0.18891 0.1214,-0.35198 0.24372,-0.47577l0.61288,-0.63907c-0.74522,-0.13587 -1.51975,-0.32638 -2.3976,-0.51918l-0.05897,-0.0554l-0.01083,0.03076l-0.91839,-0.36795c-0.40883,-0.15538 -0.66472,-0.59881 -0.58433,-1.05006c0.08368,-0.4697 0.50174,-0.77963 0.95433,-0.72344l1.62222,0.1807l-0.0201,0.25283c0.61326,0.01716 1.17665,0.10715 1.78204,0.26199c0.13018,-0.43595 0.56042,-0.70299 1.00743,-0.6062c0.10356,0.02242 0.19958,0.06254 0.28565,0.11666l0.88454,0.52785l-0.00345,0.0064c0.00591,0.00077 0.01184,0.00154 0.01775,0.00232l0.01159,0.01334l0.00256,-0.00436l1.17599,0.7618c0.06697,0.0412 0.12803,0.09084 0.18205,0.14717c-0.00902,-0.22396 -0.01536,-0.44797 -0.01992,-0.67186l-0.06222,0.00745l-0.21295,-1.56987c-0.0162,-0.10219 -0.01601,-0.20851 0.00301,-0.31529c0.08845,-0.49651 0.55054,-0.81449 1.03212,-0.71021c0.36669,0.0794 0.63894,0.38073 0.70891,0.73919l0.25813,1.18459c0.16025,-0.07236 0.34408,-0.09543 0.53085,-0.05499c0.14645,0.03171 0.27784,0.09883 0.38729,0.19084l0.54621,0.44029l-0.02921,-0.21529c-0.0162,-0.10219 -0.01601,-0.20851 0.00301,-0.31529c0.08845,-0.49651 0.55054,-0.81449 1.03212,-0.71021c0.2322,0.05028 0.42654,0.18955 0.55561,0.37597c0.11953,-0.02809 0.24731,-0.0305 0.37649,-0.00252c0.22556,0.04884 0.41539,0.18166 0.54438,0.3601c0.15108,-0.39847 0.56106,-0.63554 0.98622,-0.54347c0.1873,0.04055 0.34995,0.13901 0.4736,0.2734c0.1958,-0.26251 0.52669,-0.4 0.86732,-0.32625c0.30746,0.06657 0.54853,0.28919 0.65963,0.57066l0.2247,0.54683c0.18322,-0.27594 0.42331,-0.59303 0.74192,-0.93694l0.69242,1.89455c0.04108,-0.06808 0.08365,-0.13534 0.12755,-0.20183l-0.11897,-0.07707l0.7056,-1.19963c0.18123,-0.32539 0.55003,-0.50717 0.93101,-0.42467c0.32318,0.06998 0.57301,0.31236 0.67564,0.6143l0.32788,0.91434c0.10786,0.30807 0.2475,0.56813 0.29333,0.84962l0.36315,-0.67352c0.17503,-0.34364 0.55434,-0.53883 0.94658,-0.45389c0.34808,0.07538 0.61108,0.35073 0.69671,0.6851l0.16033,0.57749l0.32469,-0.55203c0.18123,-0.32539 0.55003,-0.50717 0.93101,-0.42467c0.31721,0.06869 0.56374,0.30344 0.6698,0.59758l0.26824,0.70891c0.00737,0.00001 0.01478,0.00004 0.02225,0.00006c0.01277,-0.07478 0.03153,-0.14086 0.05774,-0.17931c0.00782,-0.01148 0.01568,-0.02292 0.02359,-0.03433l-0.00466,-0.00278l0.84549,-1.56808c0.17503,-0.34364 0.55434,-0.53883 0.94658,-0.45389c0.37428,0.08104 0.65017,0.3933 0.713,0.76152l0.27685,1.4304c0.05525,-0.19743 0.14528,-0.38835 0.2598,-0.5716l-0.28209,-0.25393l0.83597,-1.00446c0.19773,-0.2469 0.51872,-0.37388 0.84886,-0.30238c0.29977,0.06491 0.53643,0.27814 0.65105,0.54965c0.19925,-0.20354 0.49148,-0.30225 0.79125,-0.23734c0.32318,0.06998 0.57301,0.31236 0.67564,0.6143l0.27405,0.76424c0.43368,-0.22556 0.8678,-0.44615 1.32906,-0.36061c0.13347,0.02476 0.16246,0.17818 0.16351,0.36339c0.1824,-0.24158 0.4798,-0.37583 0.79302,-0.33452l0.07584,-0.42572c0.08845,-0.49651 0.55054,-0.81449 1.03212,-0.71021c0.36669,0.0794 0.63894,0.38073 0.70891,0.73919l0.2702,1.23996l-0.04315,0.00902l0.06142,0.11065c-0.01307,0.03929 -0.02613,0.07858 -0.0392,0.11787l0.04223,0.00285l-0.04518,1.17554c-0.0011,0.04795 -0.00585,0.09633 -0.01449,0.14481c-0.08845,0.49651 -0.55054,0.81449 -1.03212,0.71021c-0.04239,-0.00918 -0.08351,-0.02133 -0.12322,-0.03618c-0.16404,0.07832 -0.35407,0.10443 -0.54724,0.06261c-0.21672,-0.04693 -0.40046,-0.17138 -0.52895,-0.33933c-0.0992,0.03347 -0.20006,0.06801 -0.3024,0.10324c-0.00391,0.00148 -0.00789,0.00285 -0.01193,0.0041c-1.53664,0.52899 -3.40456,1.20618 -4.97976,0.68312c-0.19065,-0.06331 -0.33626,-0.21555 -0.4757,-0.37991c-0.42985,0.08672 -0.78375,-0.22997 -1.12447,-0.61672c-0.95011,-0.02879 -2.33412,0.3958 -3.35243,0.47907c-0.17673,0.33887 -0.55332,0.53054 -0.94264,0.44624c-0.21441,-0.04643 -0.39654,-0.16874 -0.52482,-0.33398l-0.46125,-0.58586c-0.14641,0.08318 -0.36852,0.13051 -0.69222,0.12557c-0.29842,0.24802 -0.60294,0.46967 -0.93241,0.40037c-0.48336,-0.10166 -0.57516,-0.98458 -1.05802,-1.08911c-0.19913,-0.0431 -0.37119,0.10461 -0.54082,0.26628l-0.00806,0.02291c-0.13963,0.41982 -0.56121,0.67382 -0.99888,0.57905c-0.23003,-0.04981 -0.4229,-0.18696 -0.55198,-0.37076c-0.33169,-0.05047 -0.66246,-0.1842 -0.95964,-0.37515c-0.57889,0.09805 -1.06354,-0.58542 -1.58212,-0.98756l-0.01298,0.81421c0.00007,0.0554 -0.00473,0.11147 -0.01474,0.16766c-0.08845,0.49651 -0.55054,0.81449 -1.03212,0.71021c-0.24078,-0.05214 -0.44085,-0.19997 -0.56965,-0.39683l-0.21823,-0.33353c-0.17446,0.09742 -0.3831,0.13359 -0.59553,0.08758c-0.08338,-0.01806 -0.16187,-0.04758 -0.23422,-0.08665c-0.08038,0.00599 -0.16317,0.0006 -0.24654,-0.01745c-0.18178,-0.03937 -0.34035,-0.13326 -0.46257,-0.26162l-0.57865,-0.59032l-0.04185,0.75452c-0.00175,0.04224 -0.00634,0.08478 -0.01393,0.12741c-0.00141,0.00792 -0.00292,0.0158 -0.00452,0.02362c0.15484,0.04679 0.32616,0.12338 0.51604,0.23511c0.44635,0.26264 -0.17024,1.18884 0.12836,1.59235l0.21268,-0.24455c0.1986,-0.23671 0.51301,-0.35691 0.83619,-0.28692c0.48157,0.10428 0.80025,0.59132 0.7118,1.08784l-0.00085,0.00476c0.19941,-0.21201 0.49743,-0.31613 0.8033,-0.24989c0.38341,0.08303 0.66358,0.40869 0.71721,0.78858c0.75383,-0.12024 1.57215,-0.08631 1.99951,0.57743c0.25415,0.39474 0.08591,1.11086 0.09029,1.63024c0.10615,0.04686 0.21799,0.10385 0.33571,0.17215c0.1522,0.0883 0.16622,0.26209 0.14053,0.46342c1.24139,0.18066 2.03203,-0.08932 3.26857,0.77526c0.67606,0.4727 1.04927,1.15528 1.57544,1.64833c0.02499,0.00334 0.04991,0.00719 0.07478,0.01158c0.31975,0.05631 0.58274,0.25444 0.8112,0.51521c0.07432,0.02204 0.15205,0.04058 0.23361,0.05524c1.00171,0.18002 2.04952,-0.4484 3.0293,-0.15759c0.65588,0.19467 0.99082,1.02019 1.6023,1.33933c0.3681,0.09934 0.68088,0.3479 0.97719,0.61594c0.17189,-0.04609 0.34986,-0.06967 0.53094,-0.0622c0.49405,-0.28606 1.05549,-0.74902 1.58841,-0.54881c0.35077,0.13177 -0.0883,0.86519 0.09168,1.17559l0.02282,-0.02624c0.13928,-0.166 0.33551,-0.27471 0.55179,-0.30069c0.0823,-0.09996 0.16529,-0.17423 0.24949,-0.16085c0.12229,-0.11063 0.2974,-0.19135 0.54799,-0.20122zM167.62403,96.85899c-0.00223,-0.01306 -0.00444,-0.0261 -0.00662,-0.03914l-0.00966,0.05425c0.00534,-0.00508 0.01077,-0.01012 0.01628,-0.01511zM172.60128,100.65167c-0.03699,-0.04885 -0.07334,-0.09796 -0.10947,-0.1471c0.00149,0.07279 0.0108,0.14302 0.03102,0.20944c0.02443,0.08021 0.04813,0.03301 0.07845,-0.06234zM170.9583,99.22596c-0.07254,-0.01768 -0.14629,-0.02925 -0.22096,-0.0362c-0.05329,0.13857 -0.10102,0.27728 -0.10674,0.40666c-0.00489,0.11048 0.03216,-0.26577 0.13343,-0.29856c0.06306,-0.02041 0.128,-0.04496 0.19427,-0.0719z" fill="url(#color-3)" stroke="none" stroke-width="0.5"/><g><path d="M188.10452,103.75347l3.11982,-10.8922l4.61352,1.34939l-3.11982,10.8922z" fill="url(#color-4)" stroke="none" stroke-width="0"/><path d="M188.46469,104.83167c0,0 -8.15239,-2.45374 -13.07808,-4.82088c-4.92568,-2.36715 -16.26252,-9.27936 -16.26252,-9.27936c0,0 11.19053,1.8364 18.40033,2.16448c7.20979,0.32809 14.47499,-0.66847 14.47499,-0.66847" fill="#5e1d89" stroke="#000000" stroke-width="2.5"/></g></g><g><path d="M184.46328,118.97359c0.51749,-0.21042 0.84156,0.05121 1.01052,0.27362c0.10853,-0.075 0.23522,-0.12585 0.37403,-0.14429c0.48486,-0.06438 0.93382,0.2912 1.0028,0.79422l0.16066,1.17174l-0.53357,0.87864l-0.15193,0.5807c-0.06012,0.25255 -0.22298,0.46716 -0.44649,0.58643l0.00969,0.59225c0.01403,0.46193 -0.30958,0.86567 -0.76153,0.92568c-0.45195,0.06001 -0.87273,-0.24488 -0.98362,-0.69394l-0.05823,-0.2224c-0.07038,0.03024 -0.14587,0.05142 -0.22532,0.06197c-0.42543,0.05649 -0.82325,-0.21036 -0.96095,-0.61642l-0.23619,-0.65316c-0.1623,0.26969 -0.30026,0.67028 -0.5334,0.58479c-0.24764,-0.0908 -0.23289,-0.43696 -0.25734,-0.75729c-0.00548,0.00133 -0.01098,0.00261 -0.0165,0.00384c-0.09772,0.02182 -0.19549,0.0217 -0.29328,0.00666c-0.00066,0.11886 -0.00952,0.23008 -0.04271,0.30234c-0.28417,0.61876 -1.58571,1.94923 -2.25156,1.64546c-0.56842,-0.25933 -0.62323,-1.07029 -0.82882,-1.71931c-0.0817,0.14853 -0.18507,0.25053 -0.34167,0.23825c-0.41472,-0.03253 -0.36334,-0.79641 -0.65354,-1.10851c-0.10536,-0.11331 0.14474,0.34084 0.05592,0.4658c-0.30508,0.42922 -0.62947,1.05436 -1.14717,1.0695c-0.4717,0.01379 -0.84146,-0.56697 -1.23342,-0.90395c-0.26231,0.04004 -0.57497,0.035 -0.97005,-0.03803c-0.63476,0.45573 -1.25861,1.49464 -1.99742,1.25974c-0.53164,-0.16904 -0.18601,-1.19534 -0.55221,-1.63107c-0.16035,-0.19078 0.00282,0.61254 -0.21673,0.71615c-0.56634,0.26727 -1.27895,0.5203 -1.85629,0.26214c-0.34145,-0.15268 0.2108,-0.96308 -0.11746,-1.14472c-0.33087,-0.18308 -0.65008,0.70819 -0.9855,0.53442c-0.29474,-0.15269 -0.27659,-0.57548 -0.33697,-0.94529c-0.02238,-0.01264 -0.04454,-0.02585 -0.06648,-0.03959c0.00001,0.04463 -0.00585,0.08353 -0.02213,0.10733c-0.30752,0.44928 -0.55911,1.25195 -1.09297,1.20265c-0.6819,-0.06297 -1.07103,-0.87383 -1.58208,-1.37323c-0.05515,0.07042 -0.12616,0.09884 -0.22263,0.05976c-0.28193,-0.11422 -0.47745,-0.34402 -0.63954,-0.61854l-0.22853,0.31179c-0.13627,0.18591 -0.34177,0.31701 -0.5842,0.34919c-0.44713,0.05937 -0.86373,-0.2384 -0.97995,-0.67959l-0.02839,-0.10142c-0.07428,0.03085 -0.15283,0.06218 -0.23587,0.09402c-0.83779,0.32125 -0.70774,-1.80237 -0.70659,-0.1778l-0.16319,0.39165c0,0 -0.38306,0.82249 -1.1828,0.41427c-0.41866,-0.21369 -0.51317,-0.54093 -0.50819,-0.80425c-0.02926,0.00709 -0.05918,0.01271 -0.08967,0.01676c-0.44248,0.05876 -0.85508,-0.23227 -0.97624,-0.66591c-0.11539,0.08785 -0.25354,0.14745 -0.40636,0.16775c-0.10592,0.01406 -0.21013,0.00808 -0.30904,-0.0151l-0.07075,0.15192c-0.12189,0.27186 -0.37124,0.47423 -0.6808,0.51533c-0.48486,0.06438 -0.93382,-0.2912 -1.0028,-0.79422c-0.01903,-0.13877 -0.00715,-0.27426 0.03021,-0.39907l0.03112,-0.11292c-0.19401,-0.13788 -0.336,-0.35347 -0.37896,-0.60955c-0.119,0.15509 -0.24379,0.32168 -0.37654,0.50594l-0.55359,0.75528c-0.13627,0.18591 -0.34177,0.31701 -0.5842,0.34919c-0.48486,0.06438 -0.93382,-0.2912 -1.0028,-0.79422c-0.01646,-0.11998 -0.0098,-0.23752 0.01645,-0.34782l0.0194,-0.09064c-0.07723,-0.11548 -0.13035,-0.25062 -0.15062,-0.39849c-0.02624,-0.19139 0.00631,-0.37654 0.08341,-0.53604l0.38055,-0.81708c-0.7425,0.12392 -1.52929,0.20576 -2.41396,0.32055l-0.07244,-0.03272l-0.00076,0.03298l-0.97648,-0.03827c-0.4321,-0.00902 -0.80866,-0.3444 -0.87133,-0.80156c-0.06525,-0.47585 0.23294,-0.91318 0.67581,-1.01354l1.58102,-0.37936l0.05857,0.24766c0.58201,-0.19214 1.13945,-0.29795 1.75624,-0.35626c-0.01117,-0.45951 0.31163,-0.86013 0.7617,-0.9199c0.10426,-0.01385 0.20686,-0.00827 0.30439,0.01402l0.99363,0.20208l-0.00128,0.00727c0.0058,-0.00128 0.01159,-0.00255 0.0174,-0.00382l0.01499,0.00877l0.00107,-0.00502l1.33944,0.32586c0.07561,0.01649 0.14824,0.043 0.21631,0.0783c-0.07711,-0.21026 -0.15174,-0.42149 -0.22463,-0.63319l-0.05623,0.02825l-0.68137,-1.42295c-0.04655,-0.09183 -0.07895,-0.19318 -0.09379,-0.30134c-0.06897,-0.50302 0.26816,-0.96298 0.75302,-1.02737c0.36919,-0.04902 0.71757,0.14544 0.89323,0.4631l0.60579,1.0406c0.12853,-0.12341 0.29436,-0.20787 0.4824,-0.23284c0.14745,-0.01958 0.29158,-0.00032 0.42271,0.05012l0.64862,0.2337l-0.09344,-0.19514c-0.04655,-0.09183 -0.07895,-0.19318 -0.09379,-0.30135c-0.06897,-0.50302 0.26816,-0.96298 0.75302,-1.02737c0.23379,-0.03104 0.45923,0.03555 0.63775,0.16924c0.10381,-0.06739 0.22324,-0.11312 0.35329,-0.1304c0.2271,-0.03016 0.44633,0.03182 0.62232,0.15794c0.01998,-0.43092 0.3329,-0.7961 0.76097,-0.85294c0.18858,-0.02504 0.37172,0.01344 0.52919,0.09942c0.1037,-0.31661 0.37275,-0.56007 0.7157,-0.60561c0.30957,-0.0411 0.60449,0.08898 0.79524,0.31933l0.37891,0.44449c0.08775,-0.32513 0.21638,-0.70878 0.41062,-1.14467l1.23178,1.56921c0.01777,-0.07882 0.0372,-0.15736 0.0581,-0.23561l-0.1355,-0.03296l0.29596,-1.38255c0.07074,-0.37155 0.36187,-0.67007 0.74545,-0.72101c0.32539,-0.04321 0.63462,0.10273 0.82368,0.35544l0.58857,0.75947c0.19584,0.25679 0.40687,0.45702 0.53623,0.70957l0.13513,-0.765c0.05929,-0.38682 0.35622,-0.70171 0.75114,-0.75414c0.35047,-0.04654 0.68218,0.12635 0.86518,0.41573l0.32777,0.49557l0.13619,-0.6362c0.07074,-0.37155 0.36186,-0.67007 0.74545,-0.72101c0.31937,-0.04241 0.62317,0.09739 0.81305,0.34152l0.46951,0.58407c0.00693,-0.00248 0.01391,-0.00499 0.02094,-0.00751c-0.01091,-0.07557 -0.01351,-0.14489 -0.00066,-0.19043c0.00384,-0.01359 0.00772,-0.02717 0.01166,-0.04073l-0.00523,-0.00106l0.31462,-1.78106c0.05929,-0.38682 0.35622,-0.70171 0.75114,-0.75414c0.37684,-0.05004 0.73199,0.15361 0.90392,0.48298l0.69872,1.26837c-0.00854,-0.20684 0.01762,-0.4193 0.06916,-0.63278l-0.34312,-0.14598l0.47838,-1.24098c0.11029,-0.3024 0.37326,-0.53246 0.70566,-0.5766c0.30182,-0.04008 0.58973,0.08258 0.78074,0.30224c0.12501,-0.26161 0.36959,-0.45498 0.67141,-0.49506c0.32539,-0.04321 0.63462,0.10273 0.82368,0.35544l0.49194,0.63479c0.33874,-0.36229 0.67942,-0.71999 1.13943,-0.79531c0.13311,-0.02179 0.20739,0.11449 0.26514,0.29056c0.09752,-0.29213 0.33606,-0.5211 0.6433,-0.58823l-0.05914,-0.4313c-0.06897,-0.50302 0.26817,-0.96299 0.75303,-1.02737c0.36919,-0.04902 0.71757,0.14545 0.89323,0.4631l0.6341,1.08924l-0.03782,0.02326l0.09167,0.08451c-0.00025,0.04186 -0.00049,0.08373 -0.00074,0.12559l0.04058,-0.01164l0.31775,1.1351c0.01365,0.04605 0.02401,0.09375 0.03074,0.14286c0.06897,0.50302 -0.26816,0.96298 -0.75302,1.02737c-0.04268,0.00567 -0.08508,0.00808 -0.12697,0.00743c-0.13028,0.13036 -0.301,0.21985 -0.49548,0.24567c-0.21821,0.02897 -0.42915,-0.02712 -0.60145,-0.14341c-0.08303,0.06561 -0.16731,0.1328 -0.25276,0.20113c-0.00323,0.00274 -0.00654,0.00539 -0.00996,0.00797c-1.28305,1.02626 -2.83224,2.30631 -4.47396,2.34357c-0.1987,0.00451 -0.38229,-0.091 -0.5638,-0.20015c-0.37768,0.22873 -0.80757,0.04739 -1.24651,-0.20517c-0.90238,0.29557 -2.07387,1.1705 -3.00604,1.596c-0.06236,0.38287 -0.3578,0.69346 -0.74977,0.74551c-0.21587,0.02867 -0.42465,-0.02592 -0.59592,-0.13971l-0.61333,-0.40125c-0.11221,0.129 -0.30658,0.24959 -0.61252,0.35493c-0.20465,0.3377 -0.42311,0.65234 -0.7542,0.69835c-0.48574,0.06749 -0.84264,-0.74231 -1.32879,-0.67772c-0.20048,0.02663 -0.31704,0.22584 -0.42703,0.4375l-0.00056,0.02456c-0.00267,0.44736 -0.32131,0.83262 -0.76196,0.89114c-0.2316,0.03075 -0.45502,-0.03432 -0.63274,-0.1655c-0.32741,0.06467 -0.67947,0.04975 -1.01747,-0.03111c-0.51438,0.2902 -1.17963,-0.19608 -1.79057,-0.40284l0.23731,0.77998c0.01704,0.05275 0.02971,0.10779 0.03751,0.16471c0.06897,0.50302 -0.26817,0.96299 -0.75303,1.02737c-0.24242,0.0322 -0.47588,-0.04061 -0.65735,-0.18434l-0.30745,-0.24351c-0.13421,0.1521 -0.31935,0.25748 -0.53324,0.28588c-0.08394,0.01115 -0.16681,0.00971 -0.24683,-0.0029c-0.07375,0.03303 -0.15327,0.05604 -0.23722,0.06719c-0.18302,0.0243 -0.36092,-0.01123 -0.5152,-0.09195l-0.72511,-0.36558l0.19188,0.73292c0.0113,0.04083 0.02002,0.08292 0.02594,0.1261c0.0011,0.00802 0.0021,0.01604 0.003,0.02403c0.15996,-0.00807 0.34454,0.00665 0.55737,0.04851c0.50026,0.09843 0.20423,1.19028 0.60869,1.47312l0.12507,-0.30524c0.11423,-0.29299 0.3731,-0.51436 0.69849,-0.55757c0.48486,-0.06438 0.93382,0.2912 1.0028,0.79422l0.00066,0.00483c0.12256,-0.26974 0.37093,-0.47023 0.6789,-0.51112c0.38604,-0.05126 0.74931,0.1637 0.91617,0.50733c0.6721,-0.3708 1.4521,-0.61667 2.05742,-0.12973c0.35999,0.28959 0.42122,1.02892 0.5845,1.52216c0.1142,0.00855 0.23683,0.02482 0.36849,0.04985c0.1702,0.03236 0.23665,0.19314 0.27418,0.39365c1.22285,-0.24992 1.88369,-0.77589 3.31156,-0.37272c0.78067,0.22043 1.34085,0.74373 1.98679,1.0345c0.02452,-0.00531 0.04915,-0.01012 0.07387,-0.0144c0.31797,-0.05507 0.62602,0.04426 0.92079,0.21498c0.07665,-0.00427 0.15542,-0.01303 0.23662,-0.0268c0.99725,-0.16906 1.79009,-1.12385 2.80066,-1.17992c0.67649,-0.03754 1.24447,0.63491 1.91736,0.73104c0.37662,-0.03052 0.74696,0.09991 1.10777,0.2545c0.14753,-0.10235 0.30768,-0.18529 0.48027,-0.23975c0.37698,-0.44043 0.76312,-1.07228 1.32567,-1.06274c0.37027,0.00628 0.18211,0.85412 0.44649,1.08861l0.01341,-0.03275c0.08011,-0.20547 0.23135,-0.37572 0.42679,-0.474c0.04677,-0.1232 0.10205,-0.22214 0.18535,-0.23802c0.0811,-0.14696 0.22106,-0.28337 0.4537,-0.37796zM166.80482,119.77912c-0.0061,-0.01168 -0.01217,-0.02336 -0.01821,-0.03503l0.00754,0.05496c0.00347,-0.00665 0.00703,-0.0133 0.01068,-0.01993zM172.64805,121.69971c-0.04976,-0.03396 -0.09899,-0.06838 -0.14804,-0.10289c0.02371,0.06883 0.05398,0.13256 0.09336,0.18894c0.04756,0.0681 0.05538,0.01507 0.05468,-0.08605zM170.66597,120.90023c-0.07364,0.00782 -0.14654,0.02187 -0.2189,0.04063c-0.00765,0.15011 -0.01003,0.29845 0.02424,0.42364c0.02926,0.10689 -0.05119,-0.26408 0.034,-0.32974c0.05305,-0.04088 0.1066,-0.08634 0.16067,-0.13454z" fill="url(#color-5)" stroke="none" stroke-width="0.5"/><g><path d="M188.17889,119.38387l-0.40385,-11.4357l4.7524,-0.28306l0.40385,11.4357z" fill="url(#color-6)" stroke="none" stroke-width="0"/><path d="M188.84804,120.28844c0,0 -8.41901,0.43418 -13.77688,-0.14606c-5.35786,-0.58026 -18.13805,-3.31032 -18.13805,-3.31032c0,0 11.08709,-2.05505 17.96821,-4.19354c6.88113,-2.13849 13.4084,-5.55757 13.4084,-5.55757" fill="#5e1d89" stroke="#000000" stroke-width="2.5"/></g></g><g><path d="M191.24585,135.14048c0.41576,-0.38419 0.80282,-0.25221 1.03234,-0.10195c0.07725,-0.10981 0.17926,-0.20323 0.30301,-0.27028c0.43231,-0.23422 0.96633,-0.05788 1.1928,0.39386l0.52755,1.0523l-0.21554,1.02277l0.04509,0.60425c0.02517,0.26065 -0.05787,0.5221 -0.2283,0.71493l0.19982,0.55742c0.16189,0.43245 -0.01043,0.93045 -0.4134,1.14877c-0.40296,0.21832 -0.89434,0.07993 -1.1426,-0.30574l-0.12604,-0.18983c-0.05602,0.05379 -0.11974,0.10081 -0.19058,0.1392c-0.37932,0.20552 -0.83698,0.09495 -1.09645,-0.24042l-0.43107,-0.53418c-0.06478,0.31341 -0.06465,0.74208 -0.31003,0.74442c-0.26064,0.00249 -0.35835,-0.33061 -0.48439,-0.62524c-0.00469,0.00322 -0.00942,0.00639 -0.01417,0.00954c-0.08427,0.05558 -0.17567,0.0904 -0.27189,0.1111c0.03767,0.1128 0.06521,0.22131 0.05748,0.3016c-0.06622,0.68755 -0.8538,2.41263 -1.5738,2.36285c-0.61464,-0.04248 -0.92707,-0.79093 -1.32823,-1.33212c-0.02849,0.16986 -0.09223,0.3034 -0.24251,0.34772c-0.39798,0.11738 -0.59602,-0.62442 -0.96771,-0.81631c-0.13494,-0.06966 0.24502,0.27108 0.20228,0.42117c-0.14681,0.51551 -0.24856,1.22345 -0.7274,1.42277c-0.4363,0.18161 -0.96886,-0.23628 -1.44365,-0.41537c-0.23221,0.13164 -0.52597,0.23859 -0.91864,0.3106c-0.44632,0.65841 -0.69459,1.86522 -1.46058,1.90674c-0.5512,0.02988 -0.55883,-1.06559 -1.04136,-1.3474c-0.21128,-0.12339 0.19994,0.57909 0.02816,0.75568c-0.44309,0.45548 -1.02743,0.94974 -1.65004,0.91155c-0.36822,-0.0226 -0.11324,-0.98741 -0.47848,-1.04214c-0.36812,-0.05516 -0.37931,0.90299 -0.7487,0.85827c-0.32458,-0.03929 -0.4438,-0.44618 -0.61933,-0.77483c-0.02499,-0.00397 -0.04994,-0.00856 -0.07488,-0.01374c0.01439,0.04226 0.02144,0.0812 0.01389,0.10955c-0.14262,0.53538 -0.11916,1.38545 -0.63387,1.52952c-0.65743,0.18402 -1.28221,-0.44487 -1.92058,-0.73523c-0.02885,0.08641 -0.08605,0.13869 -0.18877,0.13614c-0.30022,-0.00743 -0.55693,-0.15521 -0.79681,-0.35728l-0.1131,0.37693c-0.06745,0.22477 -0.21723,0.42234 -0.43339,0.53945c-0.39866,0.21599 -0.88384,0.08285 -1.13455,-0.29346l-0.0592,-0.08591c-0.05946,0.05576 -0.12277,0.1135 -0.1901,0.17333c-0.67934,0.6036 -1.24185,-1.45406 -0.71749,0.0841l-0.02633,0.42922c0,0 -0.093,0.91582 -0.97175,0.81497c-0.46001,-0.05279 -0.65373,-0.32892 -0.73389,-0.58009c-0.02506,0.01717 -0.0512,0.03317 -0.07839,0.04791c-0.39453,0.21376 -0.87379,0.08557 -1.12667,-0.28183c-0.07951,0.12444 -0.1894,0.23024 -0.32567,0.30406c-0.09444,0.05117 -0.19373,0.08274 -0.29362,0.09613l-0.01718,0.16916c-0.02632,0.30102 -0.19413,0.58177 -0.47014,0.73131c-0.43231,0.23422 -0.96633,0.05788 -1.1928,-0.39386c-0.06247,-0.12462 -0.09503,-0.25718 -0.10031,-0.38874l-0.00729,-0.11805c-0.22569,-0.06126 -0.4278,-0.2147 -0.55042,-0.44187c-0.06123,0.18939 -0.12418,0.39176 -0.18887,0.61369l-0.27398,0.91309c-0.06745,0.22477 -0.21723,0.42233 -0.43339,0.53944c-0.43231,0.23422 -0.96634,0.05789 -1.19281,-0.39385c-0.05402,-0.10776 -0.08566,-0.22144 -0.09665,-0.33529l-0.01106,-0.09278c-0.10935,-0.08177 -0.20252,-0.19077 -0.26909,-0.32358c-0.08616,-0.17187 -0.11539,-0.35885 -0.09472,-0.53746l0.09239,-0.90979c-0.65386,0.38267 -1.36266,0.74131 -2.1523,1.16613l-0.07822,-0.00512l0.00992,0.03151l-0.92473,0.31267c-0.40665,0.14586 -0.86652,-0.03722 -1.07234,-0.44778c-0.21424,-0.42734 -0.07648,-0.94808 0.305,-1.20135l1.35508,-0.9242l0.13451,0.21362c0.48193,-0.38993 0.9687,-0.68932 1.52624,-0.96494c-0.15844,-0.43119 0.01412,-0.92594 0.41541,-1.14335c0.09296,-0.05037 0.19063,-0.08174 0.28893,-0.09549l0.99353,-0.16365l0.00114,0.00734c0.00501,-0.00328 0.01002,-0.00657 0.01503,-0.00985l0.01683,0.00295l-0.00061,-0.00514l1.3565,-0.17c0.07595,-0.0114 0.15236,-0.01225 0.22734,-0.00315c-0.13978,-0.17157 -0.27754,-0.34495 -0.41385,-0.5194l-0.04344,0.04685l-1.09499,-1.10414c-0.07308,-0.07032 -0.136,-0.15474 -0.18469,-0.25188c-0.22647,-0.45174 -0.05961,-1.00781 0.37269,-1.24204c0.32917,-0.17835 0.71733,-0.11866 0.98378,0.1194l0.90121,0.76905c0.08035,-0.1628 0.20809,-0.30205 0.37575,-0.39289c0.13147,-0.07123 0.27234,-0.10449 0.41112,-0.10358l0.68133,-0.01043l-0.15017,-0.15142c-0.07308,-0.07032 -0.136,-0.15474 -0.1847,-0.25188c-0.22647,-0.45174 -0.05961,-1.00781 0.37269,-1.24204c0.20844,-0.11294 0.44055,-0.13042 0.65041,-0.0676c0.0753,-0.10092 0.17215,-0.1869 0.28811,-0.24973c0.20248,-0.10971 0.42729,-0.12934 0.63235,-0.07279c-0.12013,-0.41525 0.05463,-0.8729 0.4363,-1.07969c0.16813,-0.0911 0.35165,-0.12009 0.52649,-0.09493c-0.00509,-0.33691 0.1679,-0.6636 0.47367,-0.82927c0.27601,-0.14954 0.59348,-0.13172 0.84591,0.01827l0.49722,0.28556c-0.02273,-0.33927 -0.02612,-0.74857 0.01497,-1.23079l1.6564,1.04598c-0.00878,-0.08099 -0.01593,-0.16232 -0.0216,-0.2439l-0.13722,0.01721l-0.16879,-1.4151c-0.05358,-0.37715 0.12229,-0.76389 0.46429,-0.94919c0.29012,-0.15719 0.62607,-0.12947 0.88412,0.04231l0.79457,0.50895c0.2657,0.17321 0.52738,0.28744 0.7296,0.4804l-0.12015,-0.77278c-0.06919,-0.38753 0.10682,-0.79183 0.45893,-0.9826c0.31248,-0.16931 0.67811,-0.1241 0.94232,0.08457l0.46588,0.35222l-0.07767,-0.65119c-0.05358,-0.37715 0.12229,-0.7639 0.46428,-0.9492c0.28475,-0.15428 0.61364,-0.13043 0.8697,0.03293l0.62683,0.38538c0.00567,-0.00483 0.01139,-0.00969 0.01715,-0.01459c-0.03454,-0.06767 -0.0593,-0.13239 -0.06195,-0.18012c-0.00079,-0.01424 -0.00153,-0.02849 -0.00223,-0.04273l-0.00523,0.00086l-0.2797,-1.79918c-0.06919,-0.38753 0.10682,-0.79183 0.45893,-0.9826c0.33599,-0.18204 0.73343,-0.11609 1.00017,0.13443l1.06142,0.95155c-0.07459,-0.19284 -0.1186,-0.4034 -0.1392,-0.62399l-0.36762,-0.01565l0.04727,-1.34621c0.00565,-0.3258 0.17726,-0.63765 0.47363,-0.79822c0.2691,-0.1458 0.57764,-0.13251 0.82686,0.00727c0.03254,-0.29243 0.19878,-0.56296 0.46788,-0.70876c0.29012,-0.15719 0.62607,-0.12947 0.88412,0.04231l0.66413,0.4254c0.19982,-0.46414 0.40292,-0.92463 0.80849,-1.16034c0.11735,-0.06821 0.23065,0.03432 0.34133,0.18044c-0.00297,-0.3115 0.14616,-0.61358 0.41161,-0.78695l-0.19417,-0.38733c-0.22647,-0.45174 -0.05961,-1.00781 0.37269,-1.24204c0.32917,-0.17835 0.71734,-0.11866 0.98378,0.11941l0.94333,0.805l-0.02784,0.03554l0.11287,0.04728c0.01325,0.03974 0.02651,0.07947 0.03976,0.11922l0.03417,-0.02553l0.66252,0.96147c0.02759,0.03873 0.05263,0.0802 0.07474,0.12431c0.22647,0.45174 0.05961,1.00781 -0.37269,1.24204c-0.03805,0.02062 -0.07689,0.03805 -0.11625,0.0524c-0.07974,0.17002 -0.21043,0.31576 -0.38383,0.40971c-0.19456,0.10541 -0.40972,0.12766 -0.60817,0.07909c-0.05645,0.0918 -0.11355,0.18555 -0.17139,0.2808c-0.00213,0.00375 -0.00437,0.00745 -0.00674,0.0111c-0.86829,1.43038 -1.90352,3.19621 -3.42551,3.81811c-0.18421,0.07527 -0.38652,0.05041 -0.59128,0.0119c-0.27922,0.35157 -0.73931,0.33344 -1.23081,0.25109c-0.74796,0.60236 -1.56076,1.84956 -2.2947,2.58561c0.06505,0.38488 -0.11096,0.78459 -0.46044,0.97395c-0.19248,0.10429 -0.40512,0.12718 -0.60182,0.08062l-0.70232,-0.16085c-0.06328,0.16227 -0.20607,0.34593 -0.45801,0.555c-0.08244,0.39294 -0.18523,0.76899 -0.47977,0.93085c-0.43212,0.23748 -1.02645,-0.40192 -1.45989,-0.16704c-0.17874,0.09686 -0.22349,0.32716 -0.25808,0.56692l0.00738,0.02347c0.14161,0.42463 -0.03204,0.90334 -0.42492,1.11621c-0.2065,0.11189 -0.43621,0.13008 -0.64452,0.06934c-0.28509,0.17824 -0.61887,0.2899 -0.96072,0.3341c-0.38715,0.45863 -1.16538,0.23581 -1.80282,0.25829l0.47297,0.65388c0.03292,0.04388 0.06249,0.09146 0.08811,0.14259c0.22647,0.45174 0.0596,1.00782 -0.37269,1.24204c-0.21615,0.11711 -0.45773,0.13158 -0.67359,0.0603l-0.36571,-0.12076c-0.07641,0.192 -0.21546,0.35796 -0.40616,0.46127c-0.07485,0.04056 -0.15274,0.0688 -0.23157,0.08544c-0.05827,0.05764 -0.12517,0.10783 -0.20002,0.14839c-0.16318,0.08841 -0.34085,0.11832 -0.51101,0.09701l-0.79528,-0.08713l0.41536,0.62555c0.02372,0.03463 0.04542,0.07138 0.06486,0.11015c0.00361,0.00721 0.00712,0.01444 0.01054,0.02169c0.14686,-0.06479 0.32407,-0.11682 0.53642,-0.15321c0.49914,-0.08554 0.57421,1.05428 1.04325,1.17763l0.01855,-0.33377c0.01236,-0.31829 0.18294,-0.62045 0.47306,-0.77764c0.43231,-0.23422 0.96633,-0.05788 1.1928,0.39386l0.00217,0.00434c0.02764,-0.29925 0.19513,-0.57787 0.46972,-0.72664c0.34419,-0.18648 0.75287,-0.11272 1.01947,0.1531c0.50857,-0.59132 1.15819,-1.10288 1.88063,-0.85801c0.42965,0.14563 0.725,0.82393 1.03644,1.23271c0.10946,-0.03271 0.22929,-0.06112 0.36036,-0.08445c0.16946,-0.03017 0.28333,0.09836 0.38298,0.27484c1.06211,-0.67364 1.51015,-1.40788 2.9742,-1.53626c0.80044,-0.0702 1.49243,0.22525 2.18963,0.26982c0.0212,-0.01379 0.04266,-0.02714 0.06438,-0.04003c0.27937,-0.16577 0.5992,-0.18178 0.92962,-0.12542c0.07024,-0.03143 0.14103,-0.06789 0.21247,-0.10993c0.87735,-0.51645 1.31063,-1.70397 2.23682,-2.11818c0.62,-0.27727 1.36732,0.15663 2.02701,0.00723c0.34208,-0.16348 0.73012,-0.17227 1.11704,-0.15479c0.10488,-0.14964 0.22781,-0.28543 0.37153,-0.39866c0.21037,-0.55181 0.36766,-1.28817 0.89636,-1.48015c0.34799,-0.12636 0.44526,0.74383 0.76783,0.87143l0.00199,-0.03581c0.00867,-0.22321 0.09514,-0.43849 0.2461,-0.6014c0.00401,-0.13338 0.02381,-0.24685 0.09651,-0.29165c0.02845,-0.16816 0.11529,-0.34735 0.30219,-0.52006zM175.00563,142.21301c-0.00946,-0.00888 -0.01889,-0.01777 -0.0283,-0.02667l0.02475,0.04936c0.00109,-0.00754 0.00228,-0.01511 0.00355,-0.02268zM181.08403,141.94403c-0.05742,-0.01438 -0.11452,-0.02938 -0.17147,-0.04455c0.04432,0.05671 0.09314,0.10624 0.14809,0.14558c0.06637,0.0475 0.05661,-0.00551 0.02337,-0.10102zM178.97451,141.89512c-0.06628,0.03372 -0.12988,0.07307 -0.19145,0.1167c0.0412,0.1449 0.08676,0.28623 0.1591,0.39255c0.06177,0.09079 -0.1329,-0.23181 -0.07444,-0.32444c0.0364,-0.05767 0.07179,-0.11986 0.10678,-0.18482z" fill="url(#color-7)" stroke="none" stroke-width="0.5"/><g><path d="M194.84979,134.20138l-4.06083,-10.68592l4.34936,-1.96618l4.06083,10.68592z" fill="url(#color-8)" stroke="none" stroke-width="0"/><path d="M195.76639,134.81897c0,0 -7.7267,3.41945 -12.91988,4.78437c-5.19317,1.36492 -18.01407,3.34596 -18.01407,3.34596c0,0 9.6976,-5.90784 15.43836,-10.39185c5.74076,-4.484 10.73841,-10.05436 10.73841,-10.05436" fill="#5e1d89" stroke="#000000" stroke-width="2.5"/></g></g></g><g data-paper-data="{&quot;index&quot;:null}" stroke-linecap="butt"><g><path d="M293.75959,72.04937c0.07876,-0.03265 0.17676,0.02023 0.2801,0.09825c0.21638,-0.02515 0.43256,0.0348 0.60669,0.16376l0.02831,0.0202c0.10266,-0.34381 -0.4953,-0.95465 -0.18492,-1.16457c0.47156,-0.31893 1.12547,0.00038 1.6726,0.16336c0.17435,-0.04948 0.35291,-0.06804 0.53081,-0.06329c0.22565,-0.32975 0.47186,-0.64437 0.80665,-0.82679c0.52023,-0.45292 0.65348,-1.33376 1.2459,-1.67598c0.88498,-0.51122 2.05041,-0.1444 2.98256,-0.553c0.07589,-0.03327 0.14717,-0.06941 0.21429,-0.10818c0.16136,-0.30685 0.37091,-0.56083 0.66872,-0.69013c0.02316,-0.01005 0.04651,-0.01962 0.07002,-0.02869c0.39672,-0.60214 0.60051,-1.35291 1.14774,-1.9702c1.0009,-1.12904 1.8327,-1.05082 2.99776,-1.51592c-0.07192,-0.18979 -0.0988,-0.36206 0.02862,-0.48341c0.09856,-0.09386 0.19402,-0.17535 0.28632,-0.24567c-0.11683,-0.50609 -0.4474,-1.16326 -0.29227,-1.60637c0.26083,-0.74508 1.04869,-0.96885 1.80978,-1.02767c-0.03641,-0.38193 0.16011,-0.76393 0.5136,-0.93406c0.282,-0.13572 0.59608,-0.10395 0.83942,0.05573l-0.00194,-0.00444c-0.20177,-0.46222 -0.00541,-1.01013 0.43857,-1.2238c0.29796,-0.1434 0.63174,-0.09983 0.88004,0.08406l0.26383,0.18823c0.19629,-0.46201 -0.61924,-1.21894 -0.24642,-1.5784c0.1586,-0.15292 0.30735,-0.26735 0.44701,-0.34894c-0.00338,-0.00724 -0.00668,-0.01455 -0.0099,-0.02192c-0.01732,-0.03968 -0.0317,-0.07998 -0.04325,-0.12065l-0.2166,-0.72397l-0.42507,0.70897c-0.08893,0.15332 -0.22124,0.2816 -0.38883,0.36225c-0.07687,0.037 -0.15613,0.06155 -0.23568,0.07446c-0.06124,0.05486 -0.13069,0.10187 -0.20756,0.13887c-0.19585,0.09426 -0.40719,0.10773 -0.59954,0.05367l-0.13447,0.37522c-0.07936,0.22146 -0.23945,0.41186 -0.46144,0.5187c-0.44398,0.21367 -0.96748,0.0122 -1.16925,-0.45001c-0.02283,-0.05231 -0.04057,-0.10571 -0.05342,-0.1596l-0.20245,-0.78876c-0.41053,0.51197 -0.72248,1.2896 -1.30828,1.32921c-0.24446,0.25497 -0.53494,0.46213 -0.84572,0.58854c-0.08267,0.20883 -0.23825,0.38716 -0.45033,0.48923c-0.40351,0.19419 -0.87269,0.04548 -1.10635,-0.33022l-0.01319,-0.0204c-0.20265,-0.11767 -0.40441,-0.22119 -0.588,-0.13285c-0.44519,0.21421 -0.32862,1.09421 -0.77495,1.30576c-0.30424,0.14419 -0.65204,-0.00035 -1.00006,-0.17196c-0.31363,0.08027 -0.54064,0.08603 -0.70242,0.03927l-0.31196,0.67725c-0.08621,0.1906 -0.2348,0.35199 -0.43249,0.44713c-0.35894,0.17275 -0.76984,0.07416 -1.0207,-0.21417c-1.00967,0.15643 -2.45452,0.0662 -3.37174,0.3157c-0.24116,0.45553 -0.51148,0.84601 -0.94969,0.86189c-0.09728,0.19234 -0.20338,0.37433 -0.37402,0.48034c-1.40985,0.87589 -3.38418,0.65284 -5.0018,0.49668c-0.00422,-0.00028 -0.0084,-0.00068 -0.01255,-0.00121c-0.10773,-0.01039 -0.21387,-0.02047 -0.31814,-0.02989c-0.08578,0.19328 -0.23544,0.35714 -0.43525,0.45331c-0.17809,0.08571 -0.36898,0.10462 -0.54676,0.0667c-0.03514,0.0237 -0.07231,0.0451 -0.11139,0.06391c-0.44398,0.21367 -0.96748,0.0122 -1.16925,-0.45002c-0.0197,-0.04512 -0.0356,-0.09107 -0.04785,-0.13744l-0.318,-1.13262l0.04039,-0.01261c-0.02186,-0.03516 -0.04373,-0.07031 -0.06559,-0.10547l0.03393,-0.12192l-0.04406,0.00129l-0.02633,-1.26878c-0.01553,-0.36489 0.17897,-0.72138 0.51704,-0.88409c0.44398,-0.21367 0.96748,-0.0122 1.16925,0.45001l0.17301,0.39632c0.29496,-0.1132 0.61545,-0.05197 0.84915,0.14042c-0.04216,-0.18037 -0.04974,-0.33632 0.07428,-0.39151c0.42861,-0.19073 0.9022,-0.07742 1.37651,0.04082l0.08833,-0.80707c0.02942,-0.31754 0.21585,-0.61149 0.51382,-0.75489c0.27638,-0.13301 0.58356,-0.10515 0.82478,0.04633c0.04816,-0.29075 0.22858,-0.55328 0.50496,-0.68629c0.30439,-0.14649 0.64613,-0.09786 0.89597,0.09614l1.04712,0.7819l-0.21511,0.3127c0.15408,0.1515 0.28613,0.31617 0.38589,0.49528l-0.06425,-1.45553c-0.02475,-0.37271 0.17074,-0.74069 0.51581,-0.90676c0.36163,-0.17404 0.776,-0.07266 1.02632,0.2207l1.18777,1.32775l-0.00388,0.00379c0.01034,0.00926 0.02065,0.01856 0.03093,0.0279c0.03445,0.03128 0.0681,0.09117 0.09795,0.16092c0.00725,-0.00176 0.01446,-0.00351 0.02162,-0.00525l0.09557,-0.75191c0.03456,-0.31077 0.21957,-0.59653 0.51202,-0.73727c0.35125,-0.16904 0.75225,-0.07825 1.00436,0.19591l0.44445,0.46112l0.02128,-0.59896c0.00533,-0.34512 0.19687,-0.6742 0.51779,-0.82865c0.36163,-0.17404 0.776,-0.07266 1.02632,0.2207l0.51018,0.5703c-0.02107,-0.28441 0.0541,-0.56986 0.08717,-0.89459l0.10568,-0.96559c0.02941,-0.31754 0.21584,-0.61149 0.51381,-0.75489c0.35125,-0.16904 0.75226,-0.07825 1.00437,0.19591l0.96584,1.00207l-0.09772,0.10268c0.05819,0.05442 0.11526,0.10989 0.17109,0.16652l0.23165,-2.00377c0.39001,0.26015 0.69741,0.51252 0.93991,0.73815l0.09102,-0.58415c0.04242,-0.29963 0.22494,-0.57229 0.50841,-0.70872c0.31404,-0.15114 0.66787,-0.09457 0.91948,0.11505c0.08891,-0.15951 0.22412,-0.29317 0.3968,-0.37628c0.39198,-0.18864 0.84593,-0.05371 1.08575,0.29856c0.08384,-0.20359 0.23747,-0.377 0.44543,-0.47709c0.11909,-0.05732 0.24391,-0.08476 0.3667,-0.08532c0.08207,-0.21137 0.23856,-0.39211 0.45265,-0.49514c0.44398,-0.21367 0.96748,-0.0122 1.16925,0.45002c0.04339,0.0994 0.06837,0.20275 0.07644,0.3059l0.02179,0.21617l0.4285,-0.5555c0.08498,-0.11499 0.19711,-0.21089 0.33213,-0.27587c0.17219,-0.08287 0.35633,-0.1033 0.52904,-0.07028l-0.02516,-1.21213c-0.01552,-0.36489 0.17897,-0.72138 0.51705,-0.88409c0.44398,-0.21367 0.96747,-0.0122 1.16925,0.45002c0.04339,0.0994 0.06837,0.20275 0.07644,0.3059l0.15891,1.57626l-0.06224,0.00726c0.04775,0.21878 0.09382,0.4381 0.13726,0.65799c0.0394,-0.06738 0.0872,-0.12987 0.14272,-0.18556l0.96598,-1.01498l0.0035,0.00364l0.00816,-0.01567c0.00557,-0.00213 0.01114,-0.00426 0.01672,-0.00639l-0.00484,-0.00542l0.7371,-0.71953c0.07108,-0.07269 0.1551,-0.13409 0.25058,-0.18004c0.41213,-0.19835 0.89277,-0.03897 1.121,0.35462c0.5526,-0.29171 1.07949,-0.51057 1.67185,-0.67023l-0.07849,-0.24118l1.53539,-0.55392c0.42703,-0.16015 0.90582,0.04377 1.09669,0.48103c0.18338,0.42007 0.03791,0.91094 -0.32343,1.15735l-0.8073,0.57192l-0.01771,-0.02738l-0.04442,0.06762c-0.80872,0.39214 -1.51748,0.75796 -2.21049,1.06383l0.74498,0.47857c0.14781,0.09186 0.27115,0.22998 0.34792,0.40584c0.05932,0.13589 0.08423,0.27919 0.07855,0.41922l0.06332,0.0657c0.0793,0.07849 0.14573,0.1739 0.19386,0.28415c0.20177,0.46222 0.00542,1.01014 -0.43857,1.22381c-0.22199,0.10684 -0.46386,0.10989 -0.67546,0.02845l-0.85958,-0.33083c-0.20776,-0.08199 -0.39962,-0.15347 -0.58064,-0.21846c0.09606,0.23964 0.08731,0.49987 -0.0057,0.72334l0.08477,0.07801c0.0962,0.08458 0.17635,0.19224 0.23201,0.31976c0.20177,0.46222 0.00542,1.01014 -0.43856,1.22381c-0.28347,0.13643 -0.59935,0.10362 -0.84321,-0.05823l-0.13851,-0.08898c-0.07179,0.07421 -0.15696,0.13684 -0.25396,0.18351c-0.13995,0.06735 -0.28779,0.09346 -0.43097,0.08315c0.12169,0.43257 -0.07725,0.90596 -0.48244,1.10097c-0.02793,0.01344 -0.05617,0.02523 -0.08462,0.03543c0.14043,0.21926 0.22964,0.54738 -0.01443,0.95893c-0.46624,0.78615 -1.21615,0.30441 -1.21615,0.30441l-0.34081,-0.24001c-0.83937,-1.37033 0.36927,0.34824 -0.50653,0.5404c-0.08679,0.01905 -0.16955,0.03605 -0.24842,0.05108l0.02841,0.1012c0.12977,0.4362 -0.06907,0.91749 -0.47851,1.11454c-0.22199,0.10684 -0.46386,0.10989 -0.67545,0.02846l-0.35484,-0.13657c0.00471,0.32104 -0.04204,0.62284 -0.22175,0.87494c-0.0615,0.08626 -0.13634,0.10155 -0.21949,0.07266c-0.17455,0.70349 -0.08472,1.60218 -0.62973,2.03213c-0.42669,0.33661 -1.05499,-0.20108 -1.54786,-0.40993c-0.0261,-0.01106 -0.0512,-0.04062 -0.07426,-0.07825c-0.01147,0.02371 -0.02341,0.04709 -0.03583,0.07013c0.14015,0.34516 0.37422,0.69158 0.20355,0.9832c-0.19422,0.33188 -0.92563,-0.24314 -1.11118,0.09407c-0.1841,0.33456 0.70286,0.71261 0.49262,1.03004c-0.35548,0.53673 -1.08997,0.71721 -1.70792,0.80487c-0.23957,0.03398 -0.51689,-0.73349 -0.55401,-0.48401c-0.0848,0.56975 0.73883,1.24403 0.37596,1.68036c-0.50428,0.60635 -1.57008,0.0752 -2.34347,0.04179c-0.29686,0.27992 -0.55909,0.45696 -0.80198,0.56817c-0.15769,0.50074 -0.17048,1.19474 -0.57715,1.44379c-0.44634,0.27334 -1.04446,-0.07443 -1.5249,-0.26771c-0.13987,-0.05627 -0.16295,-0.57738 -0.19358,-0.42362c-0.08437,0.42351 0.35429,1.03915 0.01983,1.29577c-0.12628,0.0969 -0.2666,0.06802 -0.41263,-0.01205c0.16156,0.66081 0.53463,1.37484 0.1873,1.90762c-0.40686,0.62409 -2.1975,0.22168 -2.75826,-0.14296c-0.06549,-0.04259 -0.13053,-0.13147 -0.19257,-0.23131c-0.07506,0.06673 -0.1578,0.12087 -0.25186,0.15648c-0.00531,0.00201 -0.01063,0.00397 -0.01596,0.00588c0.14498,0.28359 0.33653,0.56728 0.17374,0.78069c-0.15326,0.20092 -0.47731,-0.06057 -0.75429,-0.19825l0.13781,0.68121c0.0934,0.41846 -0.10551,0.8633 -0.49509,1.05079c-0.07276,0.03502 -0.14765,0.05888 -0.2229,0.07228l0.06572,0.21969c0.13837,0.43989 -0.06033,0.92948 -0.47419,1.12866c-0.41386,0.19918 -0.89681,0.03763 -1.12386,-0.35957l-0.29814,-0.50469c-0.25102,0.02297 -0.49998,-0.06797 -0.68154,-0.24766l-0.42906,-0.40563l-0.90643,-0.4459l-0.47002,-1.0767c-0.20177,-0.46222 -0.00541,-1.01013 0.43857,-1.2238c0.1271,-0.06117 0.26072,-0.08832 0.39144,-0.08507c0.02807,-0.2809 0.16723,-0.68057 0.7144,-0.78916c0.24598,-0.04882 0.43509,-0.01116 0.5798,0.06791zM308.57292,62.91245l-0.02204,-0.05049c0.00092,0.01318 0.00182,0.02638 0.0027,0.0396c0.00652,0.00357 0.01297,0.0072 0.01935,0.0109zM304.68852,67.79243c0.00419,-0.0693 -0.00315,-0.13976 -0.01866,-0.21089c-0.02369,0.05621 -0.04759,0.11245 -0.07217,0.16857c0.05171,0.08564 0.08577,0.12602 0.09082,0.04232zM306.0687,66.00528c0.10612,0.00827 0.22987,0.36552 0.19936,0.25922c-0.03573,-0.12449 -0.11448,-0.24824 -0.19861,-0.37057c-0.071,0.02416 -0.14001,0.05263 -0.20643,0.08672c0.07072,0.01075 0.1396,0.01948 0.20568,0.02463z" fill="url(#color-9)" stroke="none" stroke-width="0.5"/><g><path d="M286.07301,76.76862l-5.57323,-9.86469l4.1718,-2.38779l5.57323,9.8647z" fill="url(#color-10)" stroke="none" stroke-width="0"/><path d="M283.7701,64.08047c0,0 7.29732,-0.72469 14.23195,-2.72462c6.93464,-1.99993 17.38866,-6.39465 17.38866,-6.39465c0,0 -9.41294,9.36478 -13.65102,12.81506c-4.23808,3.45028 -11.59377,7.73703 -11.59377,7.73703" fill="#5e1d89" stroke="#000000" stroke-width="2.5"/></g></g><g><path d="M297.86341,88.59438c0.0847,-0.00398 0.16152,0.07935 0.23573,0.18825c0.21297,0.05 0.39973,0.18031 0.52553,0.36144l0.02069,0.02872c0.20243,-0.28966 -0.17822,-1.07028 0.18039,-1.16271c0.54482,-0.14042 1.06763,0.38398 1.5369,0.72439c0.18053,0.01272 0.35561,0.05604 0.52294,0.12117c0.31483,-0.23445 0.64454,-0.44763 1.0179,-0.50576c0.63193,-0.25035 1.02749,-1.03669 1.69409,-1.1579c0.99579,-0.18108 1.98938,0.56257 2.99856,0.49448c0.08217,-0.00554 0.16082,-0.01538 0.23636,-0.02911c0.24685,-0.23475 0.52325,-0.40316 0.8453,-0.42373c0.02505,-0.0016 0.05011,-0.00266 0.07519,-0.00322c0.56035,-0.43336 0.98309,-1.07283 1.69086,-1.46919c1.29453,-0.72495 2.05978,-0.36754 3.3072,-0.4096c-0.01024,-0.20373 0.01688,-0.37557 0.17485,-0.44672c0.12219,-0.05503 0.23765,-0.09944 0.34671,-0.13438c0.04379,-0.51771 -0.06903,-1.25094 0.21353,-1.61648c0.47511,-0.61465 1.29094,-0.55741 2.03097,-0.35352c0.08215,-0.37306 0.3853,-0.66679 0.77265,-0.70694c0.30901,-0.03203 0.59728,0.10502 0.77935,0.33876l-0.00048,-0.00485c-0.0502,-0.50523 0.30349,-0.95569 0.78999,-1.00612c0.32649,-0.03384 0.62984,0.12108 0.80923,0.37936l0.19279,0.26767c0.32738,-0.36935 -0.21505,-1.36209 0.24848,-1.57444c0.19719,-0.09033 0.37327,-0.14768 0.5307,-0.17712c-0.00099,-0.00799 -0.00189,-0.01602 -0.00269,-0.02408c-0.00431,-0.04336 -0.00565,-0.08633 -0.00418,-0.12867l0.01572,-0.75746l-0.61989,0.52456c-0.13121,0.11446 -0.29593,0.19049 -0.47957,0.20953c-0.08423,0.00873 -0.16693,0.0049 -0.24635,-0.01003c-0.07486,0.03092 -0.15511,0.05165 -0.23935,0.06038c-0.21461,0.02224 -0.41922,-0.03707 -0.58519,-0.15368l-0.24221,0.30848c-0.14297,0.18207 -0.353,0.30729 -0.59626,0.33251c-0.4865,0.05043 -0.9216,-0.31827 -0.97179,-0.8235c-0.00568,-0.05718 -0.00619,-0.11365 -0.00192,-0.16892l0.04893,-0.81381c-0.5459,0.3435 -1.07945,0.97147 -1.64731,0.80919c-0.30983,0.15743 -0.64871,0.25402 -0.98217,0.26746c-0.14224,0.169 -0.34433,0.28437 -0.57672,0.30846c-0.44215,0.04583 -0.84183,-0.25452 -0.94872,-0.68894l-0.00627,-0.02375c-0.15631,-0.18019 -0.3161,-0.34673 -0.51726,-0.32588c-0.48781,0.05052 -0.64608,0.92122 -1.13417,0.96883c-0.33269,0.03245 -0.61849,-0.22258 -0.89623,-0.50326c-0.32207,-0.03111 -0.53921,-0.10305 -0.67839,-0.20234l-0.50288,0.53318c-0.14003,0.15059 -0.33032,0.25234 -0.54693,0.27479c-0.39331,0.04077 -0.75302,-0.19239 -0.90292,-0.55017c-1.00568,-0.19645 -2.34887,-0.77415 -3.29529,-0.8512c-0.36798,0.34794 -0.74373,0.62451 -1.16433,0.49013c-0.15106,0.14846 -0.30733,0.28415 -0.5016,0.32609c-1.60517,0.34651 -3.4101,-0.5371 -4.89705,-1.23595c-0.00392,-0.0017 -0.00777,-0.00351 -0.01155,-0.00543c-0.09904,-0.04654 -0.19665,-0.09223 -0.29269,-0.13666c-0.14044,0.15327 -0.33249,0.25699 -0.55144,0.27969c-0.19515,0.02023 -0.38202,-0.02698 -0.5391,-0.12339c-0.04058,0.01041 -0.08238,0.01794 -0.1252,0.02238c-0.4865,0.05043 -0.92159,-0.31826 -0.97179,-0.8235c-0.0049,-0.04932 -0.00595,-0.09813 -0.00341,-0.1461l0.04436,-1.1779l0.04219,0.00186c-0.01,-0.04065 -0.02,-0.08131 -0.03,-0.12196l0.06944,-0.10355l-0.04219,-0.0138l0.36268,-1.20706c0.09676,-0.34985 0.39021,-0.62018 0.76065,-0.65858c0.4865,-0.05043 0.92159,0.31826 0.97179,0.82349l0.04305,0.43321c0.31442,-0.00635 0.59978,0.16071 0.76271,0.42204c0.01511,-0.18469 0.05557,-0.33454 0.19009,-0.34437c0.4649,-0.034 0.87958,0.23443 1.29345,0.50776l0.33039,-0.73199c0.12493,-0.28982 0.39162,-0.50383 0.71812,-0.53768c0.30285,-0.03139 0.58577,0.09963 0.76833,0.32489c0.13452,-0.25813 0.3859,-0.44453 0.68876,-0.47592c0.33353,-0.03458 0.64289,0.12784 0.82065,0.39619l0.75452,1.09526l-0.29963,0.22195c0.09989,0.19558 0.17486,0.39608 0.21479,0.59922l0.38376,-1.39633c0.0904,-0.36038 0.38829,-0.64121 0.76641,-0.68041c0.39626,-0.04108 0.75842,0.1959 0.90626,0.55824l0.72118,1.65863l-0.00484,0.00225c0.00698,0.01226 0.01393,0.02457 0.02083,0.03689c0.02313,0.04129 0.03675,0.1093 0.04376,0.18533c0.00742,0.00081 0.01479,0.00162 0.02211,0.00242l0.3204,-0.67744c0.12773,-0.28167 0.39057,-0.48844 0.71103,-0.52166c0.38488,-0.0399 0.73758,0.18253 0.89299,0.52735l0.28077,0.58692l0.2032,-0.55833c0.1105,-0.32407 0.39277,-0.56952 0.74442,-0.60598c0.39626,-0.04108 0.75841,0.1959 0.90625,0.55824l0.30977,0.71242c0.06692,-0.27575 0.22545,-0.51967 0.35603,-0.81503l0.39529,-0.87576c0.12493,-0.28982 0.39161,-0.50383 0.71811,-0.53768c0.38488,-0.0399 0.73759,0.18253 0.893,0.52735l0.61013,1.27545l-0.12408,0.06364c0.03857,0.07122 0.07578,0.14306 0.11143,0.21556l0.83201,-1.81314c0.29051,0.3786 0.50504,0.72169 0.66617,1.0174l0.26484,-0.52057c0.13178,-0.26847 0.38826,-0.46373 0.69888,-0.49593c0.34412,-0.03567 0.66251,0.13835 0.83717,0.42206c0.13309,-0.12032 0.30222,-0.20044 0.49143,-0.22006c0.42952,-0.04452 0.81895,0.23764 0.93884,0.65202c0.14174,-0.16366 0.34048,-0.27505 0.56835,-0.29866c0.1305,-0.01353 0.2573,0.00311 0.37396,0.04444c0.14244,-0.17162 0.34615,-0.28894 0.58072,-0.31326c0.48651,-0.05043 0.92159,0.31826 0.97179,0.8235c0.01079,0.10864 0.00291,0.21476 -0.02095,0.3149l-0.04537,0.21156l0.57625,-0.37848c0.11576,-0.07962 0.25143,-0.13195 0.39939,-0.14729c0.18868,-0.01956 0.36963,0.02392 0.52339,0.11396l0.34649,-1.15315c0.09676,-0.34985 0.39021,-0.62018 0.76066,-0.65858c0.4865,-0.05043 0.92159,0.31826 0.97179,0.8235c0.0108,0.10864 0.00292,0.21476 -0.02094,0.3149l-0.33085,1.54259l-0.06127,-0.01436c-0.02154,0.22286 -0.04485,0.44567 -0.07083,0.66811c0.05796,-0.05019 0.12241,-0.09292 0.1921,-0.12657l1.22656,-0.62915l0.00221,0.00463l0.01253,-0.01201c0.00594,-0.00011 0.01187,-0.00023 0.01781,-0.00034l-0.00294,-0.00677l0.91914,-0.42818c0.08964,-0.04441 0.18812,-0.07375 0.29273,-0.08459c0.4516,-0.04681 0.8589,0.26752 0.95517,0.71697c0.61339,-0.0871 1.18013,-0.11415 1.7909,-0.063l-0.00077,-0.2545l1.6259,0.00031c0.45406,-0.00566 0.84599,0.35009 0.89348,0.82805c0.04563,0.45918 -0.24235,0.8731 -0.66045,0.98261l-0.94065,0.26487l-0.00843,-0.03189l-0.06281,0.0487c-0.88705,0.09462 -1.67124,0.19848 -2.42217,0.25108l0.56055,0.70584c0.11217,0.13714 0.18698,0.3096 0.20608,0.50182c0.01476,0.14853 -0.00539,0.29234 -0.05357,0.42264l0.04,0.08362c0.05125,0.10114 0.08512,0.21389 0.0971,0.3344c0.0502,0.50523 -0.30349,0.95568 -0.79,1.00611c-0.24326,0.02522 -0.47365,-0.05434 -0.64951,-0.20337l-0.71441,-0.6054c-0.17205,-0.14823 -0.33225,-0.28114 -0.48412,-0.40421c0.01792,0.25903 -0.06988,0.50178 -0.2264,0.68109l0.05659,0.10255c0.06543,0.11266 0.10856,0.24165 0.12241,0.38103c0.0502,0.50523 -0.30349,0.95568 -0.79,1.00611c-0.31061,0.0322 -0.60028,-0.10645 -0.78218,-0.3424l-0.10422,-0.13124c-0.09078,0.0456 -0.19071,0.07571 -0.297,0.08673c-0.15335,0.0159 -0.30158,-0.00985 -0.43427,-0.06839c-0.01671,0.44994 -0.3501,0.82913 -0.79409,0.87516c-0.0306,0.00317 -0.061,0.00468 -0.09111,0.00462c0.06624,0.25491 0.05061,0.59516 -0.30669,0.90057c-0.68253,0.58342 -1.24679,-0.12709 -1.24679,-0.12709l-0.25,-0.34282c-0.37763,-1.58008 0.24393,0.45471 -0.64567,0.33763c-0.08817,-0.01161 -0.17187,-0.02376 -0.25129,-0.03645l-0.00396,0.10524c-0.01016,0.45613 -0.34586,0.84283 -0.79451,0.88933c-0.24326,0.02522 -0.47365,-0.05435 -0.64951,-0.20337l-0.29492,-0.24992c-0.09362,0.30475 -0.23019,0.57381 -0.47771,0.7506c-0.0847,0.0605 -0.16038,0.04942 -0.23043,-0.00621c-0.38054,0.60479 -0.5699,1.48403 -1.21833,1.70423c-0.50765,0.1724 -0.93945,-0.54948 -1.34324,-0.9147c-0.02138,-0.01934 -0.03616,-0.0558 -0.04654,-0.0992c-0.01813,0.01848 -0.0366,0.0365 -0.05542,0.05401c0.0275,0.37369 0.14372,0.78059 -0.1073,0.99779c-0.28566,0.24718 -0.80387,-0.54511 -1.08294,-0.28994c-0.27688,0.25316 0.44909,0.91248 0.15265,1.14056c-0.50125,0.38564 -1.25321,0.30572 -1.86626,0.17785c-0.23766,-0.04957 -0.26627,-0.86881 -0.37772,-0.64589c-0.25454,0.5091 0.32084,1.42655 -0.15674,1.71487c-0.66368,0.40067 -1.51254,-0.46417 -2.23606,-0.75935c-0.36716,0.16312 -0.67003,0.24092 -0.93445,0.26314c-0.3026,0.41908 -0.52678,1.07005 -0.9887,1.16661c-0.50696,0.10597 -0.96815,-0.42631 -1.36489,-0.77258c-0.11551,-0.10081 0.02182,-0.60076 -0.05422,-0.46601c-0.20945,0.37116 0.01861,1.10201 -0.3771,1.23033c-0.14941,0.04845 -0.27371,-0.02664 -0.38779,-0.15203c-0.04863,0.67906 0.08714,1.48046 -0.40516,1.86516c-0.57667,0.45064 -2.15253,-0.53973 -2.57313,-1.07519c-0.04912,-0.06253 -0.08366,-0.16863 -0.11202,-0.28405c-0.0916,0.03743 -0.18664,0.06034 -0.28676,0.0619c-0.00565,0.00008 -0.0113,0.00012 -0.01693,0.00011c0.0509,0.31721 0.14595,0.65039 -0.07369,0.79642c-0.20679,0.13748 -0.43433,-0.2199 -0.65504,-0.44432l-0.07739,0.69022c-0.03924,0.42699 -0.36388,0.77922 -0.79076,0.82347c-0.07972,0.00826 -0.15806,0.00527 -0.23356,-0.00773l-0.00477,0.22985c-0.00314,0.46254 -0.34124,0.85713 -0.79473,0.90414c-0.45349,0.047 -0.86231,-0.27016 -0.95636,-0.72263l-0.12865,-0.57818c-0.24516,-0.06387 -0.45357,-0.23461 -0.57091,-0.46618l-0.28313,-0.52928l-0.7237,-0.73003l-0.11694,-1.17691c-0.0502,-0.50523 0.30349,-0.95569 0.78999,-1.00612c0.13927,-0.01444 0.27433,0.00548 0.39736,0.05311c0.11246,-0.25567 0.3666,-0.58564 0.91888,-0.50167c0.24828,0.03775 0.41619,0.13777 0.52931,0.26177zM314.70877,85.016l-0.00549,-0.0552c-0.00315,0.01276 -0.00633,0.02554 -0.00954,0.03831c0.00509,0.00559 0.0101,0.01122 0.01503,0.01689zM309.53254,88.29997c0.02515,-0.06401 0.03973,-0.13304 0.04674,-0.2055c-0.03964,0.04501 -0.0795,0.08996 -0.11997,0.13457c0.02289,0.0985 0.04286,0.14824 0.07323,0.07093zM311.38798,87.08288c0.09815,0.04399 0.1064,0.4235 0.10994,0.31273c0.00413,-0.12973 -0.03276,-0.27343 -0.0752,-0.41762c-0.07474,-0.00138 -0.14891,0.00197 -0.22234,0.01152c0.06381,0.03426 0.12649,0.06598 0.1876,0.09337z" fill="url(#color-11)" stroke="none" stroke-width="0.5"/><g><path d="M289.12908,90.43055l-2.27337,-11.21474l4.68743,-0.8327l2.27337,11.21473z" fill="url(#color-12)" stroke="none" stroke-width="0"/><path d="M290.82101,77.66444c0,0 7.14452,1.80311 14.33459,2.27842c7.19007,0.47531 18.45075,-0.11109 18.45075,-0.11109c0,0 -11.79153,5.63438 -16.86647,7.44776c-5.07494,1.81338 -13.36318,3.35395 -13.36318,3.35395" fill="#5e1d89" stroke="#000000" stroke-width="2.5"/></g></g><g><path d="M294.92265,106.07056c0.08114,0.02661 0.12684,0.13233 0.16184,0.2611c0.18478,0.12322 0.31907,0.31241 0.37954,0.52745l0.01028,0.03437c0.28393,-0.19929 0.17565,-1.06819 0.54351,-1.02643c0.55889,0.06343 0.88352,0.74283 1.21675,1.23039c0.16616,0.07661 0.31736,0.17999 0.45425,0.30105c0.37219,-0.10721 0.75158,-0.18912 1.12235,-0.1099c0.67634,-0.00851 1.30191,-0.60469 1.96947,-0.4796c0.99724,0.18685 1.69543,1.24065 2.669,1.53832c0.07927,0.02424 0.15661,0.04318 0.23224,0.05737c0.30817,-0.13184 0.62292,-0.19085 0.93324,-0.09477c0.02414,0.00747 0.04811,0.01545 0.07195,0.02392c0.6676,-0.20589 1.27163,-0.65451 2.06639,-0.77287c1.45362,-0.21648 2.06052,0.39307 3.2504,0.80052c0.05577,-0.19484 0.13653,-0.34638 0.30836,-0.35655c0.1329,-0.00786 0.25604,-0.00817 0.37011,-0.00189c0.20756,-0.47012 0.33663,-1.19858 0.72049,-1.44037c0.64544,-0.40656 1.39643,-0.06054 2.02884,0.39592c0.19728,-0.32064 0.57749,-0.48766 0.95567,-0.38655c0.3017,0.08065 0.52953,0.31255 0.62618,0.5971l0.0011,-0.00473c0.11491,-0.49209 0.59312,-0.78807 1.06812,-0.66109c0.31877,0.08522 0.55509,0.33928 0.64131,0.64592l0.09586,0.32024c0.42735,-0.2293 0.23461,-1.35521 0.73994,-1.3884c0.21498,-0.01412 0.39944,-0.00485 0.55736,0.02393c0.00163,-0.00785 0.00336,-0.01571 0.00519,-0.02356c0.00986,-0.04224 0.0224,-0.08303 0.03739,-0.12223l0.25807,-0.70515l-0.75305,0.27015c-0.1605,0.0604 -0.34025,0.07273 -0.51955,0.0248c-0.08224,-0.02199 -0.15899,-0.05521 -0.2291,-0.09767c-0.08053,0.00219 -0.16286,-0.00711 -0.24511,-0.0291c-0.20954,-0.05602 -0.38344,-0.18498 -0.50252,-0.35387l-0.32748,0.20268c-0.19329,0.11964 -0.43158,0.16189 -0.66908,0.0984c-0.47499,-0.12698 -0.76691,-0.62884 -0.65199,-1.12092c0.01301,-0.05569 0.03066,-0.10886 0.05244,-0.1592l0.30749,-0.74613c-0.62512,0.12676 -1.32995,0.52486 -1.81336,0.16913c-0.34274,0.03672 -0.69335,0.00595 -1.01214,-0.10091c-0.18842,0.10763 -0.41604,0.14349 -0.64293,0.08283c-0.43168,-0.11541 -0.71215,-0.54045 -0.67345,-0.98639l0.00172,-0.02453c-0.08954,-0.22509 -0.18675,-0.43861 -0.38315,-0.49113c-0.47626,-0.12736 -0.90513,0.63299 -1.38072,0.50279c-0.32416,-0.08874 -0.51179,-0.43046 -0.68357,-0.79335c-0.29374,-0.14458 -0.4754,-0.28989 -0.57477,-0.43293l-0.64547,0.32015c-0.18042,0.09114 -0.39254,0.11844 -0.60403,0.06191c-0.384,-0.10266 -0.64835,-0.45033 -0.67482,-0.83976c-0.88532,-0.54465 -1.9665,-1.56799 -2.83427,-1.97937c-0.45876,0.19467 -0.90194,0.31956 -1.25543,0.04278c-0.19014,0.08519 -0.38108,0.15654 -0.57775,0.12628c-1.62504,-0.24993 -3.04342,-1.72576 -4.22125,-2.91429c-0.00315,-0.003 -0.0062,-0.00608 -0.00914,-0.00923c-0.07845,-0.07914 -0.15584,-0.157 -0.23214,-0.23311c-0.18167,0.0935 -0.39608,0.12203 -0.60985,0.06489c-0.19052,-0.05093 -0.3516,-0.16219 -0.46877,-0.30894c-0.04161,-0.00477 -0.08344,-0.01267 -0.12525,-0.02385c-0.475,-0.12698 -0.7669,-0.62884 -0.65199,-1.12093c0.01122,-0.04805 0.0259,-0.09422 0.0437,-0.13831l0.42011,-1.08943l0.03918,0.01686c0.00362,-0.04173 0.00725,-0.08346 0.01087,-0.12519l0.09874,-0.07229l-0.03536,-0.02807l0.72966,-1.00274c0.2036,-0.29363 0.56715,-0.44216 0.92884,-0.34547c0.47499,0.12698 0.7669,0.62883 0.65199,1.12092l-0.09852,0.42193c0.29855,0.1067 0.514,0.36569 0.58374,0.6693c0.07356,-0.1679 0.15983,-0.29401 0.28985,-0.25504c0.44934,0.13466 0.7542,0.53512 1.05672,0.93988l0.54665,-0.56852c0.21089,-0.2272 0.53112,-0.33249 0.84989,-0.24727c0.29568,0.07904 0.52041,0.30335 0.62023,0.58015c0.20976,-0.19403 0.50669,-0.27888 0.80237,-0.19984c0.32564,0.08706 0.56523,0.3503 0.64668,0.6658l0.35982,1.29809l-0.35385,0.10093c0.0314,0.21932 0.0377,0.43433 0.01012,0.63925l0.81032,-1.1728c0.20098,-0.30579 0.5721,-0.46258 0.94127,-0.36389c0.38689,0.10342 0.6523,0.45556 0.67537,0.84854l0.14746,1.81481l-0.00529,0.00038c0.00265,0.01401 0.00523,0.02803 0.00779,0.04207c0.00856,0.04703 -0.00044,0.11575 -0.01825,0.1896c0.00674,0.00342 0.01343,0.00681 0.02008,0.01019l0.51971,-0.5209c0.21092,-0.21855 0.52519,-0.31842 0.83806,-0.23478c0.37577,0.10046 0.63697,0.43555 0.67278,0.8148l0.07629,0.65135l0.37092,-0.45113c0.20828,-0.26451 0.5533,-0.39371 0.89664,-0.30192c0.38689,0.10342 0.65231,0.45556 0.67537,0.84853l0.06334,0.7795c0.15166,-0.23478 0.37949,-0.40688 0.59749,-0.63726l0.65402,-0.68017c0.21089,-0.22721 0.53112,-0.33249 0.84989,-0.24727c0.37577,0.10046 0.63696,0.43554 0.67278,0.81479l0.16578,1.41546l-0.13745,0.01526c0.01351,0.08065 0.02551,0.1614 0.03585,0.24221l1.36691,-1.40334c0.15239,0.45935 0.24452,0.85817 0.3015,1.19338l0.41694,-0.39361c0.2105,-0.20471 0.51508,-0.29605 0.81834,-0.21498c0.33598,0.08982 0.58035,0.36719 0.65395,0.69599c0.16415,-0.06522 0.34937,-0.07981 0.53411,-0.03043c0.41935,0.1121 0.696,0.5164 0.67598,0.94822c0.18624,-0.1028 0.40942,-0.13611 0.63191,-0.07664c0.12741,0.03406 0.24165,0.0951 0.33839,0.17568c0.18944,-0.11002 0.41923,-0.14713 0.64826,-0.0859c0.475,0.12698 0.7669,0.62883 0.65199,1.12092c-0.02471,0.10582 -0.06622,0.20257 -0.12089,0.288l-0.11073,0.18225l0.66499,-0.1487c0.13474,-0.03324 0.27949,-0.03373 0.42394,0.00488c0.18421,0.04924 0.3409,0.15488 0.45698,0.29445l0.69709,-0.95796c0.2036,-0.29363 0.56714,-0.44217 0.92883,-0.34548c0.47499,0.12698 0.7669,0.62883 0.65199,1.12092c-0.02471,0.10582 -0.06622,0.20257 -0.12089,0.28799l-0.8074,1.329l-0.05316,-0.03542c-0.09188,0.20141 -0.18542,0.40213 -0.28135,0.60156c0.07079,-0.02633 0.14529,-0.04332 0.2218,-0.04994l1.35876,-0.15095l0.0006,0.00514l0.01568,-0.00678c0.00563,0.00202 0.01127,0.00405 0.01691,0.00606l-0.0006,-0.0074l1.00431,-0.07249c0.09879,-0.00955 0.20108,-0.00181 0.30323,0.0255c0.44092,0.11787 0.72407,0.55876 0.67052,1.015c0.60643,0.13804 1.14959,0.31569 1.70915,0.58252l0.08099,-0.2391l1.53321,0.58281c0.43002,0.15736 0.68538,0.63162 0.57667,1.09714c-0.10444,0.44723 -0.50894,0.73248 -0.9384,0.68545l-0.97214,-0.08846l0.0023,-0.03296l-0.07487,0.02321c-0.86692,-0.22902 -1.63981,-0.41253 -2.36487,-0.63221l0.30195,0.86318c0.06174,0.16887 0.07691,0.3575 0.03319,0.54473c-0.03378,0.14468 -0.09896,0.2724 -0.18624,0.37741l0.01087,0.0928c0.01585,0.11327 0.01158,0.2312 -0.01583,0.34858c-0.11491,0.49209 -0.59312,0.78806 -1.06811,0.66108c-0.2375,-0.06349 -0.42923,-0.2207 -0.54721,-0.42354l-0.47931,-0.82405c-0.11465,-0.20074 -0.22303,-0.38285 -0.32674,-0.55275c-0.06628,0.24949 -0.22705,0.44583 -0.43224,0.55802l0.02044,0.11651c0.02552,0.12916 0.02477,0.26566 -0.00693,0.40141c-0.11491,0.49209 -0.59312,0.78806 -1.06811,0.66108c-0.30327,-0.08107 -0.5319,-0.31496 -0.62768,-0.60154l-0.05614,-0.16049c-0.10025,0.01027 -0.20417,0.00271 -0.30794,-0.02503c-0.14972,-0.04003 -0.28125,-0.11729 -0.38759,-0.21976c-0.16026,0.41624 -0.59642,0.65262 -1.02991,0.53673c-0.02988,-0.00799 -0.05903,-0.01745 -0.0874,-0.02831c-0.0194,0.26294 -0.1434,0.57662 -0.57843,0.7352c-0.83102,0.30293 -1.13497,-0.56597 -1.13497,-0.56597l-0.12567,-0.41125c0.1513,-1.61802 0.08401,0.51409 -0.71733,0.08549c-0.07942,-0.04247 -0.15444,-0.08387 -0.22527,-0.12423l-0.03753,0.09734c-0.15607,0.42438 -0.59683,0.66697 -1.03487,0.54987c-0.2375,-0.06349 -0.42923,-0.2207 -0.54721,-0.42354l-0.19786,-0.34018c-0.18616,0.25243 -0.40135,0.45598 -0.69156,0.5332c-0.09931,0.02643 -0.16712,-0.01109 -0.21532,-0.08839c-0.55309,0.43119 -1.01403,1.18841 -1.69624,1.16273c-0.53411,-0.0201 -0.70948,-0.85221 -0.97299,-1.33958c-0.01395,-0.02581 -0.01618,-0.06532 -0.01204,-0.10977c-0.02304,0.01085 -0.04624,0.02113 -0.06961,0.03082c-0.09408,0.36052 -0.11515,0.78399 -0.42163,0.89787c-0.34877,0.12961 -0.58303,-0.79952 -0.92816,-0.66007c-0.34241,0.13837 0.13049,1.01716 -0.22233,1.12498c-0.59654,0.1823 -1.28002,-0.16212 -1.81709,-0.50174c-0.2082,-0.13166 0.0279,-0.91067 -0.14878,-0.74142c-0.40353,0.38654 -0.15555,1.45359 -0.69853,1.55304c-0.75456,0.1382 -1.27733,-0.97747 -1.86486,-1.51368c-0.39864,0.02152 -0.70925,-0.01398 -0.96574,-0.08787c-0.41995,0.28485 -0.84041,0.81538 -1.30703,0.74049c-0.51213,-0.0822 -0.77612,-0.74691 -1.03906,-1.21399c-0.07655,-0.13599 0.2135,-0.55592 0.09852,-0.45671c-0.31671,0.27325 -0.33635,1.04077 -0.75072,1.01941c-0.15647,-0.00806 -0.24957,-0.12306 -0.31689,-0.2816c-0.26393,0.6198 -0.39326,1.42046 -0.98107,1.60507c-0.68855,0.21625 -1.85662,-1.27768 -2.0813,-1.93084c-0.02624,-0.07628 -0.02476,-0.18821 -0.01443,-0.30669c-0.0984,0.00231 -0.19538,-0.01024 -0.2903,-0.04465c-0.00536,-0.00195 -0.01069,-0.00393 -0.01601,-0.00597c-0.05387,0.3159 -0.07123,0.6626 -0.32527,0.72094c-0.23917,0.05493 -0.33898,-0.36196 -0.47505,-0.65163l-0.29465,0.61996c-0.17413,0.38662 -0.5934,0.60084 -1.01018,0.48942c-0.07784,-0.02081 -0.15076,-0.05167 -0.21778,-0.09092l-0.07831,0.21397c-0.1515,0.43292 -0.59706,0.68206 -1.03982,0.5637c-0.44276,-0.11837 -0.72644,-0.56246 -0.66983,-1.02074l0.06436,-0.58865c-0.21069,-0.14778 -0.3524,-0.38265 -0.38869,-0.642l-0.09703,-0.5981l-0.44804,-0.94434l0.26767,-1.14629c0.11491,-0.49209 0.59312,-0.78806 1.06812,-0.66108c0.13597,0.03635 0.25695,0.10342 0.35767,0.19219c0.18815,-0.19962 0.5338,-0.41822 1.02766,-0.14155c0.22202,0.12437 0.34824,0.27839 0.41511,0.43528zM311.95786,108.74795l0.01256,-0.05376c-0.00707,0.01084 -0.01418,0.02169 -0.02131,0.03253c0.003,0.00707 0.00592,0.01416 0.00875,0.02124zM306.02179,109.97505c0.04427,-0.05106 0.08018,-0.11062 0.11007,-0.1761c-0.05184,0.02803 -0.10386,0.05593 -0.15635,0.0833c-0.01005,0.10063 -0.00719,0.15446 0.04628,0.0928zM308.16242,109.49771c0.07844,0.07644 -0.03566,0.43554 0.00324,0.33285c0.04556,-0.12025 0.05692,-0.26832 0.0632,-0.41883c-0.07004,-0.02807 -0.14106,-0.05151 -0.21338,-0.06885c0.04918,0.05501 0.0981,0.10723 0.14694,0.15483z" fill="url(#color-13)" stroke="none" stroke-width="0.5"/><g><path d="M286.09607,104.66429l1.45764,-11.3382l4.6879,0.898l-1.45764,11.33819z" fill="url(#color-14)" stroke="none" stroke-width="0"/><path d="M291.79139,93.29098c0,0 6.1586,4.25172 12.78656,7.27377c6.62795,3.02205 17.43567,6.50621 17.43567,6.50621c0,0 -12.92945,1.06257 -18.29774,0.94599c-5.36829,-0.11658 -13.67927,-1.64042 -13.67927,-1.64042" fill="#5e1d89" stroke="#000000" stroke-width="2.5"/></g></g></g><path d="M216.57618,305.38284l-0.29061,5.23096" fill="none" stroke="#000000" stroke-width="2.5" stroke-linecap="round"/><path d="M226.88082,311.44617l0.02052,-5.23898" fill="none" stroke="#000000" stroke-width="2.5" stroke-linecap="round"/><path d="M253.34675,311.44615l-0.02052,-5.23898" data-paper-data="{&quot;index&quot;:null}" fill="none" stroke="#000000" stroke-width="2.5" stroke-linecap="round"/><path d="M262.95986,305.34802l0.51463,5.21368" data-paper-data="{&quot;index&quot;:null}" fill="none" stroke="#000000" stroke-width="2.5" stroke-linecap="round"/></g></g></svg>