<svg version="1.1" xmlns="http://www.w3.org/2000/svg" xmlns:xlink="http://www.w3.org/1999/xlink" width="184.57894" height="286.10088" viewBox="0,0,184.57894,286.10088"><defs><linearGradient x1="217.46221" y1="91.63356" x2="217.46221" y2="107.92741" gradientUnits="userSpaceOnUse" id="color-1"><stop offset="0" stop-color="#a968d5"/><stop offset="1" stop-color="#7c5099"/></linearGradient><linearGradient x1="262.74028" y1="91.32023" x2="262.74028" y2="107.61406" gradientUnits="userSpaceOnUse" id="color-2"><stop offset="0" stop-color="#a968d5"/><stop offset="1" stop-color="#7c5099"/></linearGradient><radialGradient cx="196.7882" cy="44.58277" r="18.43689" gradientUnits="userSpaceOnUse" id="color-3"><stop offset="0" stop-color="#7223a6"/><stop offset="1" stop-color="#7223a6" stop-opacity="0"/></radialGradient><linearGradient x1="209.79843" y1="60.297" x2="212.48902" y2="64.28024" gradientUnits="userSpaceOnUse" id="color-4"><stop offset="0" stop-color="#7223a6"/><stop offset="1" stop-color="#7223a6" stop-opacity="0"/></linearGradient><radialGradient cx="181.24657" cy="60.73419" r="18.30153" gradientUnits="userSpaceOnUse" id="color-5"><stop offset="0" stop-color="#7223a6"/><stop offset="1" stop-color="#7223a6" stop-opacity="0"/></radialGradient><linearGradient x1="198.6973" y1="71.04413" x2="202.53665" y2="73.85922" gradientUnits="userSpaceOnUse" id="color-6"><stop offset="0" stop-color="#7223a6"/><stop offset="1" stop-color="#7223a6" stop-opacity="0"/></linearGradient><radialGradient cx="172.62725" cy="82.39203" r="18.39741" gradientUnits="userSpaceOnUse" id="color-7"><stop offset="0" stop-color="#7223a6"/><stop offset="1" stop-color="#7223a6" stop-opacity="0"/></radialGradient><linearGradient x1="192.72938" y1="85.83067" x2="197.33263" y2="87.09278" gradientUnits="userSpaceOnUse" id="color-8"><stop offset="0" stop-color="#7223a6"/><stop offset="1" stop-color="#7223a6" stop-opacity="0"/></linearGradient><radialGradient cx="300.06621" cy="70.25186" r="18.43689" gradientUnits="userSpaceOnUse" id="color-9"><stop offset="0" stop-color="#7223a6"/><stop offset="1" stop-color="#7223a6" stop-opacity="0"/></radialGradient><linearGradient x1="281.4582" y1="78.61513" x2="277.2864" y2="81.00294" gradientUnits="userSpaceOnUse" id="color-10"><stop offset="0" stop-color="#7223a6"/><stop offset="1" stop-color="#7223a6" stop-opacity="0"/></linearGradient><radialGradient cx="306.88891" cy="91.60276" r="18.30153" gradientUnits="userSpaceOnUse" id="color-11"><stop offset="0" stop-color="#7223a6"/><stop offset="1" stop-color="#7223a6" stop-opacity="0"/></radialGradient><linearGradient x1="286.67983" y1="93.15715" x2="281.99241" y2="93.98985" gradientUnits="userSpaceOnUse" id="color-12"><stop offset="0" stop-color="#7223a6"/><stop offset="1" stop-color="#7223a6" stop-opacity="0"/></linearGradient><radialGradient cx="305.07016" cy="114.84167" r="18.39741" gradientUnits="userSpaceOnUse" id="color-13"><stop offset="0" stop-color="#7223a6"/><stop offset="1" stop-color="#7223a6" stop-opacity="0"/></radialGradient><linearGradient x1="285.51279" y1="109.05986" x2="280.8249" y2="108.16186" gradientUnits="userSpaceOnUse" id="color-14"><stop offset="0" stop-color="#7223a6"/><stop offset="1" stop-color="#7223a6" stop-opacity="0"/></linearGradient></defs><g transform="translate(-140.27655,-28.29171)"><g data-paper-data="{&quot;isPaintingLayer&quot;:true}" fill-rule="nonzero" stroke-linejoin="miter" stroke-miterlimit="10" stroke-dasharray="" stroke-dashoffset="0" style="mix-blend-mode: normal"><g stroke="#000000" stroke-width="2.5" stroke-linecap="butt"><path d="M204.99659,287.89126c-15.14774,7.35082 -27.84332,6.15491 -29.61649,3.31555c-1.12136,-1.79561 0.13938,-19.93421 12.38104,-33.67843c12.31055,-13.82156 33.33457,-16.08719 38.33476,-9.70895c5.00019,6.37824 -4.44738,31.99106 -21.09931,40.07183z" fill="#7223a6"/><path d="M178.54453,289.50406c0,0 22.96138,-29.14414 29.44694,-41.4288c5.61982,-10.64483 8.11443,-32.13546 8.11443,-32.13546l29.54687,1.32971c0,0 -11.03218,33.30522 -24.56713,47.23448c-13.53495,13.92926 -42.5411,25.00009 -42.5411,25.00009z" fill="#9c30e4"/></g><path d="M260.80993,163.20538c-0.03877,-5.13557 0.84766,-8.23451 4.04013,-8.9259c2.85441,-0.61818 4.98123,0.51025 7.61108,5.07153c5.37105,9.31566 14.41661,39.47112 16.41951,41.88881c2.00867,2.42464 5.08832,4.08686 8.73877,8.8544c3.8487,5.02644 5.75653,18.50315 4.10409,19.99982c-1.65244,1.49667 -8.7013,-7.4558 -8.7013,-7.4558c0,0 -0.90253,15.51946 -3.23894,16.42287c-2.33641,0.90341 -9.04708,-11.93648 -9.04708,-11.93648c0,0 -4.02979,12.75244 -6.10654,11.63509c-1.84766,-0.9941 -3.65335,-18.39833 -3.65335,-18.39833c0,0 -10.81991,2.96305 -11.01474,0.67657c-0.95155,-1.7738 6.8714,-11.24495 9.31016,-13.99715c2.00286,-2.26026 -8.39475,-34.95293 -8.4618,-43.83544z" data-paper-data="{&quot;index&quot;:null}" fill="#9c30e4" stroke="#000000" stroke-width="2.5" stroke-linecap="butt"/><path d="M201.9436,169.74304c-7.82854,-4.19729 -31.91324,-28.62778 -34.8463,-27.90848c-3.57143,0.87585 -15.59644,3.38588 -16.72271,1.71755c-1.93245,-1.23757 5.72994,-9.43135 5.72994,-9.43135c0,0 -14.55913,-9.70563 -14.57803,-11.80367c-0.02123,-2.35816 13.1402,0.01683 13.1402,0.01683c0,0 -8.23533,-11.91954 -6.3475,-13.56609c1.88782,-1.64654 16.04084,4.78466 16.04084,4.78466c0,0 -4.63794,-10.40781 -2.5438,-11.17277c2.09413,-0.76495 13.13039,7.20141 15.78515,12.94857c2.51803,5.45113 2.55419,8.95054 3.76391,11.85747c1.20625,2.89859 23.67572,24.95073 29.41666,34.0431c2.81097,4.45194 2.81869,6.85956 0.94194,9.09734c-2.09901,2.5028 -5.2541,1.8435 -9.7803,-0.58323z" data-paper-data="{&quot;index&quot;:null}" fill="#9c30e4" stroke="#000000" stroke-width="2.5" stroke-linecap="butt"/><g data-paper-data="{&quot;index&quot;:null}" stroke="#000000" stroke-linecap="butt"><path d="M257.00791,313.04349c-7.12077,0.54381 -14.45542,0.32247 -15.70054,-0.75193c-1.52555,-1.31639 0,-96.43664 0,-96.43664h27.63161c0,0 0.92525,22.97176 1.30086,36.57334c0.26592,9.62908 1.49219,32.69525 2.00297,45.62665c0.39952,10.11458 0.2484,11.47332 -0.39524,12.26185c-0.70542,0.86421 -7.82717,2.19121 -14.83966,2.72674z" fill="#9c30e4" stroke-width="0"/><path d="M269.44972,229.07275c0.05147,1.37707 0.15805,4.27943 0.15805,4.27943c0,0 -7.77388,6.44541 -13.31281,9.52178c-5.53894,3.07638 -15.2567,4.46595 -15.2567,4.46595l0.2691,-31.485h27.63161c0,0 0.23196,5.75929 0.51076,13.21785z" fill="#882ac6" stroke-width="0"/><path d="M257.00791,313.04349c-7.12077,0.54381 -14.45542,0.32247 -15.70054,-0.75193c-0.44485,-0.38386 -0.66972,-27.28933 -0.66972,-27.28933c0,0 7.80055,10.09692 16.95264,7.89571c9.93315,-2.38905 13.60314,-20.71832 13.60314,-20.71832c0,0 0.86879,21.30325 1.04939,25.87529c0.39952,10.11458 0.2484,11.47332 -0.39524,12.26185c-0.70542,0.86421 -7.82717,2.19121 -14.83966,2.72674z" fill="#882ac6" stroke-width="0"/><path d="M257.00791,313.04349c-7.12077,0.54381 -14.45542,0.32247 -15.70054,-0.75193c-1.52555,-1.31639 0,-96.43664 0,-96.43664h27.63161c0,0 0.92525,22.97176 1.30086,36.57334c0.26592,9.62908 1.49219,32.69525 2.00297,45.62665c0.39952,10.11458 0.2484,11.47332 -0.39524,12.26185c-0.70542,0.86421 -7.82717,2.19121 -14.83966,2.72674z" fill="none" stroke-width="2.5"/></g><g stroke="#000000" stroke-linecap="butt"><path d="M207.71713,310.00338c-0.64364,-0.78852 -0.79476,-2.14726 -0.39524,-12.26184c0.51078,-12.9314 1.73706,-35.99757 2.00298,-45.62665c0.37562,-13.60158 1.30086,-36.57334 1.30086,-36.57334h27.63161c0,0 1.52555,95.12026 0,96.43665c-1.24511,1.07441 -8.57977,1.29573 -15.70054,0.75192c-7.01249,-0.53553 -14.13425,-1.86253 -14.83966,-2.72674z" fill="#9c30e4" stroke-width="0"/><path d="M210.62573,215.54156h27.63161l0.2691,31.485c0,0 -9.71777,-1.38957 -15.2567,-4.46595c-5.53894,-3.07638 -13.31282,-9.52178 -13.31282,-9.52178c0,0 0.10657,-2.90235 0.15805,-4.27943c0.2788,-7.45856 0.51076,-13.21785 0.51076,-13.21785z" fill="#882ac6" stroke-width="0"/><path d="M207.71713,310.00338c-0.64364,-0.78852 -0.79476,-2.14726 -0.39524,-12.26184c0.1806,-4.57204 1.04937,-25.87529 1.04937,-25.87529c0,0 3.66999,18.32927 13.60314,20.71832c9.15208,2.2012 16.95264,-7.89571 16.95264,-7.89571c0,0 -0.22487,26.90548 -0.66972,27.28934c-1.24511,1.07441 -8.57977,1.29574 -15.70054,0.75193c-7.01249,-0.53553 -14.13425,-1.86253 -14.83966,-2.72674z" fill="#882ac6" stroke-width="0"/><path d="M207.71713,310.00338c-0.64364,-0.78852 -0.79476,-2.14726 -0.39524,-12.26184c0.51078,-12.9314 1.73706,-35.99757 2.00298,-45.62665c0.37562,-13.60158 1.30086,-36.57334 1.30086,-36.57334h27.63161c0,0 1.52555,95.12026 0,96.43665c-1.24511,1.07441 -8.57977,1.29573 -15.70054,0.75192c-7.01249,-0.53553 -14.13425,-1.86253 -14.83966,-2.72674z" fill="none" stroke-width="2.5"/></g><g stroke="#000000" stroke-linecap="butt"><path d="M276.69097,191.03769c0,28.94338 -16.75076,49.11653 -37.41387,49.11653c-20.66311,0 -36.49686,-19.23312 -37.41387,-48.1765c-0.91651,-28.92812 16.75076,-56.63677 37.41387,-56.63677c20.66311,0 37.41387,26.75336 37.41387,55.69674z" fill="#882ac6" stroke-width="0"/><path d="M270.73048,182.79557c0,24.66028 -13.97149,41.84817 -31.20618,41.84817c-17.23469,0 -30.44133,-16.38697 -31.20619,-41.04725c-0.21879,-7.05428 3.76498,-20.37838 3.76498,-20.37838c0,0 16.28192,6.59069 27.44119,6.43391c11.15928,-0.15678 27.05968,-7.22537 27.05968,-7.22537c0,0 4.14651,13.25672 4.14651,20.36892z" fill="#9c30e4" stroke-width="0"/><path d="M276.69097,191.03769c0,28.94338 -16.75076,49.11653 -37.41387,49.11653c-20.66311,0 -36.49686,-19.23312 -37.41387,-48.1765c-0.91651,-28.92812 16.75076,-56.63677 37.41387,-56.63677c20.66311,0 37.41387,26.75336 37.41387,55.69674z" fill="none" stroke-width="2.5"/></g><g stroke-linecap="butt"><g stroke="#000000"><path d="M297.00515,103.72919c0,31.40942 -25.56758,56.87178 -57.10679,56.87178c-31.53921,0 -57.10678,-25.46236 -57.10678,-56.87178c0,-31.40942 25.56758,-56.87177 57.10679,-56.87177c31.53921,0 57.10679,25.46236 57.10679,56.87178z" fill="#882ac6" stroke-width="0"/><path d="M291.83499,97.854c0,27.38589 -23.3489,49.58655 -52.15125,49.58655c-28.80233,0 -52.15124,-22.20066 -52.15124,-49.58655c0,-27.3859 23.3489,-49.58655 52.15124,-49.58655c28.80233,0 52.15125,22.20065 52.15125,49.58655z" fill="#9c30e4" stroke-width="0"/><path d="M297.00515,103.72919c0,31.40942 -25.56758,56.87178 -57.10679,56.87178c-31.53921,0 -57.10678,-25.46236 -57.10678,-56.87178c0,-31.40942 25.56758,-56.87177 57.10679,-56.87177c31.53921,0 57.10679,25.46236 57.10679,56.87178z" fill="none" stroke-width="2.5"/></g><path d="M213.25858,118.80415c2.73739,5.86582 1.06945,12.87733 -3.72544,15.66065c-4.79489,2.78332 -10.90101,0.28448 -13.63841,-5.58134c-2.73739,-5.86582 -1.06946,-12.87733 3.72543,-15.66065c4.79489,-2.78332 10.90102,-0.28448 13.63842,5.58134z" fill="#7223a6" stroke="none" stroke-width="0"/><path d="M281.21037,113.69282c4.79489,2.78332 6.46283,9.79485 3.72543,15.66066c-2.73739,5.86582 -8.84351,8.36466 -13.6384,5.58134c-4.79489,-2.78332 -6.46283,-9.79484 -3.72543,-15.66065c2.73739,-5.86582 8.84351,-8.36467 13.6384,-5.58134z" data-paper-data="{&quot;index&quot;:null}" fill="#7223a6" stroke="none" stroke-width="0"/></g><path d="M232.76407,103.59563c-2.39429,11.08591 -12.25227,18.36292 -22.01844,16.25366c-9.76615,-2.10925 -15.74223,-12.80605 -13.34795,-23.89195c2.39429,-11.0859 12.25227,-18.36292 22.01844,-16.25366c9.76615,2.10926 15.74223,12.80605 13.34795,23.89195z" fill="#ffffff" stroke="#000000" stroke-width="2.5" stroke-linecap="butt"/><g stroke="none" stroke-linecap="butt"><g><path d="M209.31528,99.78049c0,-4.49942 3.6475,-8.14693 8.14692,-8.14693c4.49942,0 8.14693,3.64751 8.14693,8.14693c0,4.49942 -3.64751,8.14692 -8.14693,8.14692c-4.49942,0 -8.14692,-3.6475 -8.14692,-8.14692z" fill="url(#color-1)" stroke-width="0.5"/><path d="M218.7694,107.78953l-0.76008,-3.95233l1.8663,-0.62826l2.06359,3.34009c0,0 -0.84777,0.63232 -1.53736,0.84304c-0.67499,0.20626 -1.63244,0.39748 -1.63244,0.39748z" fill="#6c4287" stroke-width="0"/><path d="M223.0514,105.68718l-2.59819,-2.93979l1.01418,-0.95403l2.92407,2.18928c0,0 -0.34263,0.59353 -0.61266,0.937c-0.27003,0.34347 -0.72741,0.76753 -0.72741,0.76753z" fill="#6c4287" stroke-width="0"/></g><path d="M212.73698,99.78049c0,-2.60967 2.11555,-4.72522 4.72522,-4.72522c2.60967,0 4.72522,2.11555 4.72522,4.72522c0,2.60967 -2.11555,4.72521 -4.72522,4.72521c-2.60967,0 -4.72522,-2.11554 -4.72522,-4.72521z" fill="#000000" stroke-width="0.5"/><path d="M216.44391,98.12807c-1.20529,1.17977 -3.01243,1.28813 -4.03639,0.24203c-1.02396,-1.04609 -0.87694,-2.85051 0.32834,-4.03028c1.20529,-1.17977 3.01244,-1.28813 4.03639,-0.24203c1.02396,1.04609 0.87694,2.85051 -0.32835,4.03028z" fill="#ffffff" stroke-width="0"/><path d="M212.94855,99.39991c0.24212,0.32627 0.21661,0.73883 -0.05696,0.92146c-0.27357,0.18263 -0.69161,0.06617 -0.93373,-0.2601c-0.24212,-0.32627 -0.21661,-0.73882 0.05696,-0.92145c0.27357,-0.18263 0.69161,-0.06618 0.93373,0.2601z" fill="#ffffff" stroke-width="0"/></g><path d="M260.80219,79.547c9.76617,-2.10926 19.62415,5.16776 22.01844,16.25366c2.39429,11.0859 -3.58179,21.7827 -13.34795,23.89195c-9.76617,2.10925 -19.62415,-5.16776 -22.01844,-16.25366c-2.39428,-11.0859 3.58179,-21.7827 13.34795,-23.89195z" data-paper-data="{&quot;index&quot;:null}" fill="#ffffff" stroke="#000000" stroke-width="2.5" stroke-linecap="butt"/><g stroke="none" stroke-linecap="butt"><g><path d="M254.59336,99.46715c0,-4.49942 3.64751,-8.14692 8.14693,-8.14692c4.49942,0 8.14692,3.6475 8.14692,8.14692c0,4.49942 -3.6475,8.14691 -8.14692,8.14691c-4.49942,0 -8.14693,-3.6475 -8.14693,-8.14691z" fill="url(#color-2)" stroke-width="0.5"/><path d="M264.04748,107.47619l-0.76009,-3.95235l1.86631,-0.62826l2.06359,3.34009c0,0 -0.84778,0.63232 -1.53737,0.84304c-0.67499,0.20626 -1.63245,0.39748 -1.63245,0.39748z" fill="#6c4287" stroke-width="0"/><path d="M268.32947,105.37384l-2.59819,-2.93979l1.01418,-0.95401l2.92406,2.18928c0,0 -0.34262,0.59352 -0.61266,0.93699c-0.27004,0.34347 -0.7274,0.76753 -0.7274,0.76753z" fill="#6c4287" stroke-width="0"/></g><path d="M258.01507,99.46715c0,-2.60967 2.11556,-4.72522 4.72522,-4.72522c2.60967,0 4.7252,2.11555 4.7252,4.72522c0,2.60967 -2.11555,4.72521 -4.7252,4.72521c-2.60967,0 -4.72522,-2.11554 -4.72522,-4.72521z" fill="#000000" stroke-width="0.5"/><path d="M261.722,97.81473c-1.20529,1.17977 -3.01243,1.28813 -4.03638,0.24203c-1.02396,-1.0461 -0.87694,-2.85052 0.32834,-4.03028c1.20529,-1.17977 3.01244,-1.28813 4.03638,-0.24203c1.02395,1.0461 0.87694,2.85052 -0.32835,4.03028z" fill="#ffffff" stroke-width="0"/><path d="M258.22661,99.08657c0.24212,0.32627 0.2166,0.73882 -0.05697,0.92145c-0.27357,0.18263 -0.69162,0.06618 -0.93372,-0.2601c-0.2421,-0.32627 -0.2166,-0.73882 0.05696,-0.92145c0.27357,-0.18263 0.69162,-0.06618 0.93372,0.2601z" fill="#ffffff" stroke-width="0"/></g><path d="M221.20052,66.43228c0.27622,0.85389 -1.10016,1.85653 -3.07423,2.23944c-1.97407,0.38291 -6.32138,0.49052 -6.5976,-0.36337c-0.27622,-0.85389 3.62326,-2.34594 5.59733,-2.72885c1.97407,-0.38291 3.79829,-0.00111 4.07451,0.85278z" fill="#000000" stroke="none" stroke-width="0" stroke-linecap="butt"/><path d="M262.31264,65.26614c1.97407,0.38292 5.87354,1.87495 5.59732,2.72885c-0.27622,0.85389 -4.62354,0.74629 -6.5976,0.36338c-1.97407,-0.38292 -3.35046,-1.38555 -3.07423,-2.23944c0.27622,-0.85389 2.10045,-1.2357 4.07452,-0.85278z" data-paper-data="{&quot;index&quot;:null}" fill="#000000" stroke="none" stroke-width="0" stroke-linecap="butt"/><path d="M228.75872,131.74813c0,0 4.4351,-0.24278 6.43295,-0.48305c1.74236,-0.20955 4.89287,-0.87905 4.89287,-0.87905c0,0 3.88389,0.74871 5.81543,0.97653c1.91777,0.2262 5.73279,0.38557 5.73279,0.38557" fill="none" stroke="#000000" stroke-width="2.5" stroke-linecap="round"/><g stroke-linecap="butt"><g><path d="M203.54624,60.04619c0.44315,0.33883 0.39172,0.75891 0.293,1.02337c0.11875,0.05475 0.22669,0.13805 0.31377,0.24901c0.30419,0.38763 0.2387,0.96596 -0.14628,1.29177l-0.89679,0.75893l-1.01017,0.00031l-0.564,0.17475c-0.2422,0.08117 -0.50575,0.05296 -0.72088,-0.07839l-0.4902,0.32141c-0.37899,0.2563 -0.88367,0.18824 -1.16722,-0.17307c-0.28355,-0.36132 -0.24588,-0.88836 0.07234,-1.2221l0.1559,-0.16816c-0.06163,-0.04523 -0.11831,-0.09968 -0.16816,-0.1632c-0.26692,-0.34012 -0.2492,-0.82708 0.01923,-1.16142l0.42418,-0.55055c-0.3093,0.00138 -0.71548,0.0931 -0.76439,-0.15483c-0.05195,-0.26334 0.2451,-0.43344 0.50032,-0.62399c-0.00394,-0.00407 -0.00785,-0.00817 -0.01173,-0.01232c-0.0687,-0.07345 -0.11908,-0.15853 -0.157,-0.25154c-0.09972,0.06223 -0.1973,0.11331 -0.27485,0.12263c-0.6641,0.07987 -2.44862,-0.3489 -2.53844,-1.08847c-0.07667,-0.63135 0.57311,-1.10757 1.00961,-1.62934c-0.16637,0.00744 -0.30504,-0.02854 -0.37564,-0.17122c-0.18694,-0.37784 0.4783,-0.73682 0.58942,-1.15412c0.04034,-0.1515 -0.21025,0.30598 -0.3606,0.29478c-0.51642,-0.03848 -1.20662,0.00978 -1.48659,-0.43243c-0.2551,-0.4029 0.03957,-1.03138 0.11894,-1.55032c-0.16893,-0.20696 -0.32615,-0.48151 -0.46909,-0.86368c-0.70881,-0.31119 -1.89962,-0.30468 -2.08469,-1.07129c-0.13318,-0.55166 0.90343,-0.79344 1.07867,-1.34217c0.07673,-0.24026 -0.51071,0.32616 -0.71071,0.18998c-0.5159,-0.35127 -1.09544,-0.83725 -1.1777,-1.47575c-0.04865,-0.37762 0.91412,-0.32563 0.89649,-0.70708c-0.01776,-0.38448 -0.92783,-0.19108 -0.95573,-0.5746c-0.02452,-0.33701 0.33837,-0.54464 0.6164,-0.79258c-0.00099,-0.02615 -0.00139,-0.0524 -0.00122,-0.07873c-0.0373,0.02359 -0.07287,0.03906 -0.10117,0.03747c-0.53445,-0.02999 -1.3355,0.17538 -1.56994,-0.31494c-0.29945,-0.62627 0.17762,-1.39317 0.3313,-2.10151c-0.08737,-0.01075 -0.14779,-0.05748 -0.16493,-0.16203c-0.05008,-0.30553 0.04112,-0.597 0.18697,-0.88304l-0.37869,-0.03397c-0.22582,-0.02025 -0.44153,-0.12969 -0.59363,-0.3235c-0.28052,-0.35746 -0.24665,-0.87711 0.06224,-1.21133l0.07014,-0.07829c-0.06415,-0.04829 -0.13091,-0.10004 -0.20041,-0.15543c-0.70122,-0.5588 1.1416,-1.56794 -0.2162,-0.70843l-0.41174,0.06506c0,0 -0.88551,0.10152 -0.95714,-0.80968c-0.03749,-0.477 0.18731,-0.73213 0.41007,-0.86695c-0.02104,-0.0217 -0.04118,-0.04474 -0.06031,-0.06913c-0.27761,-0.35375 -0.24733,-0.86635 0.05271,-1.20087c-0.13304,-0.05391 -0.2542,-0.14256 -0.35009,-0.26474c-0.06645,-0.08468 -0.11527,-0.17846 -0.14696,-0.27673l-0.16356,0.01875c-0.29025,0.03768 -0.5882,-0.07223 -0.78242,-0.31971c-0.30419,-0.38763 -0.2387,-0.96596 0.14628,-1.29177c0.1062,-0.08988 0.22563,-0.15115 0.34928,-0.18461l0.11048,-0.03261c0.01511,-0.24158 0.12205,-0.47898 0.31399,-0.65166c-0.19112,-0.02153 -0.39485,-0.04201 -0.61746,-0.06009l-0.91736,-0.08229c-0.22582,-0.02025 -0.44153,-0.12969 -0.59363,-0.3235c-0.30419,-0.38763 -0.2387,-0.96596 0.14628,-1.29177c0.09183,-0.07771 0.19354,-0.13404 0.29933,-0.16949l0.08581,-0.03103c0.05667,-0.12817 0.14225,-0.24579 0.25543,-0.34157c0.14647,-0.12396 0.31809,-0.1935 0.49127,-0.21074l0.87969,-0.10085c-0.487,-0.58021 -0.9617,-1.22119 -1.51448,-1.92986l-0.01004,-0.08028l-0.02797,0.01677l-0.47221,-0.86939c-0.21558,-0.38054 -0.12958,-0.88523 0.2203,-1.18132c0.36419,-0.3082 0.88383,-0.28 1.19641,0.0521l1.13357,1.17443l-0.17683,0.18182c0.46118,0.4046 0.83748,0.83344 1.20472,1.33901c0.37845,-0.25254 0.8801,-0.18354 1.16247,0.17626c0.06542,0.08336 0.11373,0.17552 0.14546,0.27212l0.3441,0.97089l-0.00674,0.00272c0.00406,0.00437 0.00813,0.00874 0.01219,0.01311l0.00041,0.01766l0.00476,-0.00172l0.41916,1.33701c0.02526,0.07446 0.04059,0.15164 0.04623,0.22949c0.13599,-0.17818 0.27407,-0.35468 0.41345,-0.52996l-0.05265,-0.03397l0.83796,-1.3445c0.05275,-0.08901 0.12075,-0.17075 0.20354,-0.24081c0.38497,-0.3258 0.94366,-0.27568 1.24785,0.11194c0.23162,0.29515 0.24891,0.70089 0.07401,1.0215l-0.55729,1.07671c0.16955,0.04656 0.3258,0.14613 0.44377,0.29646c0.09251,0.11788 0.15082,0.2534 0.17637,0.39409l0.13951,0.68756l0.11492,-0.18439c0.05275,-0.08901 0.12075,-0.17075 0.20354,-0.24081c0.38497,-0.3258 0.94366,-0.27568 1.24785,0.11194c0.14667,0.1869 0.2074,0.41815 0.1878,0.64404c0.10995,0.05466 0.20986,0.13436 0.29145,0.23833c0.14248,0.18155 0.20385,0.40496 0.18928,0.62466c0.37062,-0.21035 0.83755,-0.1312 1.10611,0.21102c0.11831,0.15075 0.1807,0.33036 0.19012,0.51274c0.31828,-0.07714 0.66076,0.02819 0.87594,0.30236c0.19422,0.24748 0.23773,0.57271 0.14362,0.86031l-0.17601,0.56439c0.31716,-0.0955 0.70437,-0.1864 1.16914,-0.24782l-0.67604,1.90045c0.07508,-0.0262 0.15078,-0.05081 0.22701,-0.07398l-0.0424,-0.13526l1.30883,-0.47323c0.34719,-0.13484 0.74712,-0.03942 0.98778,0.26724c0.20414,0.26013 0.24179,0.60617 0.1281,0.90413l-0.33112,0.91318c-0.11358,0.30601 -0.17204,0.59534 -0.31641,0.84129l0.70943,-0.28676c0.35406,-0.15285 0.77065,-0.06104 1.01842,0.25468c0.21987,0.28018 0.24661,0.66001 0.09914,0.97208l-0.24513,0.54692l0.60228,-0.21777c0.34719,-0.13484 0.74712,-0.03942 0.98778,0.26724c0.20037,0.25533 0.24034,0.59339 0.13427,0.88753l-0.24593,0.71695c0.00566,0.00471 0.01135,0.00946 0.01709,0.01424c0.05755,-0.04942 0.11417,-0.08832 0.15889,-0.1012c0.01335,-0.00385 0.0267,-0.00764 0.04007,-0.01138l-0.00181,-0.00511l1.65167,-0.66761c0.35406,-0.15285 0.77065,-0.06104 1.01842,0.25468c0.23642,0.30126 0.24954,0.71773 0.0629,1.04131l-0.69976,1.2779c0.16854,-0.11673 0.3597,-0.20626 0.56481,-0.27425l-0.05511,-0.37553l1.28464,-0.23978c0.3098,-0.06389 0.63795,0.04322 0.84649,0.30896c0.18936,0.24129 0.23546,0.55648 0.15042,0.83866c0.28329,-0.02954 0.57127,0.08097 0.76063,0.32226c0.20414,0.26013 0.24179,0.60617 0.1281,0.90413l-0.27676,0.76326c0.47783,0.10313 0.95282,0.21036 1.25334,0.5706c0.08695,0.10424 0.01136,0.24085 -0.10604,0.38412c0.29461,-0.06957 0.60924,0.01688 0.82401,0.24858l0.33008,-0.27935c0.38497,-0.3258 0.94366,-0.27568 1.24785,0.11194c0.23162,0.29515 0.24891,0.70089 0.07401,1.0215l-0.58334,1.12704l-0.03897,-0.02059l-0.02333,0.12438c-0.03514,0.02191 -0.07027,0.04382 -0.1054,0.06572l0.03069,0.02915l-0.78502,0.87617c-0.03145,0.03621 -0.06598,0.07042 -0.10357,0.10224c-0.38497,0.3258 -0.94366,0.27568 -1.24785,-0.11194c-0.02677,-0.03412 -0.05068,-0.06972 -0.07177,-0.10649c-0.17627,-0.04439 -0.33924,-0.14557 -0.46126,-0.30106c-0.1369,-0.17444 -0.19892,-0.38752 -0.19065,-0.59882c-0.09773,-0.03754 -0.19742,-0.07532 -0.2987,-0.11352c-0.00396,-0.00136 -0.00789,-0.00284 -0.01181,-0.00445c-1.5206,-0.57345 -3.39084,-1.24422 -4.26971,-2.65222c-0.10637,-0.17041 -0.12131,-0.38054 -0.12376,-0.59607c-0.38627,-0.20757 -0.45662,-0.67724 -0.47209,-1.19243c-0.71309,-0.62853 -2.04956,-1.18494 -2.88666,-1.77073c-0.35232,0.1481 -0.76457,0.05531 -1.0105,-0.25805c-0.13544,-0.17259 -0.19759,-0.38298 -0.19089,-0.59206l0.0188,-0.7454c-0.1658,-0.02941 -0.367,-0.13471 -0.61306,-0.34511c-0.38803,0.00049 -0.76393,-0.02322 -0.97335,-0.28684c-0.30724,-0.38675 0.18557,-1.12507 -0.11945,-1.5137c-0.12579,-0.16027 -0.35253,-0.15636 -0.5863,-0.14015l-0.02083,0.01249c-0.37543,0.23409 -0.86209,0.16058 -1.13855,-0.1917c-0.1453,-0.18516 -0.20626,-0.41383 -0.18833,-0.63771c-0.22314,-0.25054 -0.39244,-0.5646 -0.49937,-0.90126c-0.50825,-0.29397 -0.44516,-1.12945 -0.58774,-1.77001l-0.52963,0.61855c-0.0353,0.04269 -0.07479,0.0828 -0.11835,0.11967c-0.38497,0.3258 -0.94366,0.27568 -1.24785,-0.11194c-0.15209,-0.19381 -0.21177,-0.4353 -0.1853,-0.66906l0.04485,-0.39605c-0.19648,-0.03634 -0.38019,-0.14166 -0.51438,-0.31264c-0.05266,-0.06712 -0.09425,-0.13994 -0.12501,-0.21619c-0.06571,-0.04668 -0.126,-0.10368 -0.17867,-0.17078c-0.11482,-0.14632 -0.17697,-0.31981 -0.18915,-0.49662l-0.06874,-0.82377l-0.51376,0.55417c-0.02831,0.0314 -0.05899,0.06123 -0.09204,0.0892c-0.00614,0.00519 -0.01233,0.0103 -0.01855,0.0153c0.08934,0.13484 0.17236,0.30314 0.24723,0.51035c0.17601,0.48706 -0.88979,0.8066 -0.91744,1.30781l0.31981,-0.05254c0.30396,-0.05549 0.62273,0.05264 0.82687,0.31277c0.30419,0.38763 0.2387,0.96596 -0.14628,1.29177l-0.0037,0.00312c0.28882,-0.03596 0.58471,0.07408 0.77791,0.32028c0.24219,0.30862 0.25004,0.73813 0.04888,1.06483c0.65708,0.38853 1.26542,0.93692 1.17083,1.72065c-0.05626,0.46609 -0.64282,0.91004 -0.97092,1.31269c0.05181,0.10382 0.10154,0.21907 0.14859,0.34678c0.06082,0.16511 -0.0393,0.30786 -0.18757,0.44646c0.8404,0.93135 1.62139,1.22809 2.02158,2.68287c0.2188,0.79538 0.07049,1.55906 0.1609,2.27445c0.01711,0.01852 0.03384,0.03739 0.05018,0.05664c0.21023,0.24741 0.28624,0.56779 0.2957,0.91435c0.04315,0.0644 0.09116,0.12828 0.14459,0.19162c0.65629,0.7779 1.86402,0.96281 2.43272,1.812c0.3807,0.56846 0.1117,1.41775 0.37878,2.0537c0.21999,0.3114 0.30215,0.70238 0.3592,1.09784c0.16175,0.07422 0.3138,0.16965 0.44845,0.29097c0.56292,0.09509 1.29061,0.09698 1.57312,0.59123c0.18594,0.32531 -0.62014,0.60973 -0.67969,0.96356l0.03432,-0.00564c0.21317,-0.03891 0.43362,0.00264 0.61671,0.12067c0.12716,-0.02443 0.23844,-0.02864 0.29472,0.03539c0.16475,-0.00712 0.35108,0.04249 0.5503,0.19482zM193.75468,45.11559c0.00662,-0.01148 0.01324,-0.02293 0.01988,-0.03435l-0.04206,0.0356c0.00735,-0.0005 0.01475,-0.00092 0.02217,-0.00125zM195.16597,51.21196c0.0027,-0.06122 0.00606,-0.12222 0.0096,-0.18311c-0.04531,0.05699 -0.08296,0.117 -0.10978,0.18104c-0.03238,0.07735 0.01599,0.05613 0.10018,0.00208zM194.81099,49.06579c-0.04457,-0.0599 -0.09396,-0.11588 -0.147,-0.16889c-0.12947,0.07267 -0.25473,0.149 -0.34171,0.24495c-0.07427,0.08194 0.19438,-0.18408 0.29327,-0.14469c0.06157,0.02453 0.12723,0.04707 0.19545,0.06863z" fill="url(#color-3)" stroke="none" stroke-width="0.5"/><g><path d="M205.12176,63.49421l9.35332,-6.39442l2.6906,3.98323l-9.35332,6.39442z" fill="url(#color-4)" stroke="none" stroke-width="0"/><path d="M204.71093,64.55415c0,0 -4.71024,-7.09196 -6.99162,-12.05796c-2.28138,-4.96599 -6.59778,-17.52271 -6.59778,-17.52271c0,0 7.44319,8.55566 12.78436,13.40959c5.34118,4.85393 11.5704,8.72342 11.5704,8.72342" fill="#5e1d89" stroke="#000000" stroke-width="2.5"/></g></g><g><path d="M192.60491,72.88777c0.53269,0.16828 0.6152,0.57652 0.60333,0.85557c0.13141,0.01152 0.26141,0.05324 0.38004,0.12763c0.41437,0.25988 0.53307,0.82015 0.26514,1.25143l-0.62412,1.00462l-0.97153,0.3359l-0.48758,0.3501c-0.20746,0.15606 -0.46981,0.21734 -0.71801,0.16652l-0.37052,0.46214c-0.28401,0.36458 -0.79081,0.46887 -1.17705,0.22663c-0.38624,-0.24224 -0.5156,-0.74551 -0.31437,-1.162l0.09711,-0.20838c-0.07348,-0.02163 -0.14512,-0.05351 -0.21302,-0.09609c-0.36358,-0.22802 -0.49954,-0.68735 -0.3464,-1.08785l0.23502,-0.65358c-0.29706,0.10404 -0.65894,0.3244 -0.78386,0.10979c-0.1327,-0.22795 0.09958,-0.48503 0.28519,-0.74725c-0.00507,-0.00247 -0.01012,-0.005 -0.01515,-0.00757c-0.08915,-0.04556 -0.16435,-0.10805 -0.23003,-0.18205c-0.07636,0.09109 -0.15417,0.17105 -0.22584,0.2055c-0.61367,0.295 -2.46479,0.48863 -2.78354,-0.17018c-0.2721,-0.56242 0.20326,-1.22172 0.45919,-1.8526c-0.15769,0.06221 -0.30237,0.07476 -0.41509,-0.03464c-0.29852,-0.28972 0.22856,-0.84501 0.20433,-1.2705c-0.0088,-0.15447 -0.10609,0.35477 -0.25423,0.39429c-0.5088,0.13574 -1.1575,0.40998 -1.56573,0.09124c-0.37195,-0.29043 -0.28597,-0.97351 -0.37266,-1.4831c-0.2275,-0.13659 -0.46499,-0.34001 -0.72253,-0.64837c-0.77953,-0.05426 -1.92284,0.34741 -2.34172,-0.30494c-0.30141,-0.46944 0.61968,-1.03896 0.61584,-1.60813c-0.00169,-0.24921 -0.38875,0.47338 -0.62391,0.41302c-0.60657,-0.15568 -1.31668,-0.41568 -1.59639,-0.98288c-0.16542,-0.33546 0.77693,-0.60691 0.64014,-0.95624c-0.13788,-0.35211 -0.95245,0.13033 -1.09978,-0.21752c-0.12946,-0.30566 0.15434,-0.61956 0.34387,-0.9428c-0.00917,-0.02402 -0.0178,-0.04833 -0.02591,-0.07291c-0.02847,0.03437 -0.05781,0.06058 -0.08553,0.0685c-0.52348,0.14963 -1.22944,0.607 -1.60898,0.22834c-0.48478,-0.48367 -0.26686,-1.35627 -0.34158,-2.06689c-0.0874,0.01901 -0.16021,-0.00443 -0.20954,-0.09608c-0.14415,-0.26786 -0.14802,-0.56956 -0.0976,-0.88435l-0.37492,0.09419c-0.22356,0.05616 -0.46543,0.02593 -0.67261,-0.10401c-0.38212,-0.23966 -0.51281,-0.73478 -0.32071,-1.14861l0.04287,-0.09619c-0.07687,-0.02366 -0.15735,-0.04967 -0.24159,-0.07815c-0.85001,-0.28736 0.60542,-1.83927 -0.43051,-0.58783l-0.37559,0.19737c0,0 -0.81983,0.38873 -1.17499,-0.43594c-0.18593,-0.43171 -0.04985,-0.74395 0.12205,-0.9435c-0.02705,-0.01322 -0.05367,-0.02799 -0.07973,-0.04433c-0.37815,-0.23716 -0.51006,-0.72454 -0.32658,-1.13571c-0.1449,-0.00601 -0.2893,-0.04829 -0.4199,-0.1302c-0.09052,-0.05677 -0.16693,-0.12788 -0.22828,-0.20885l-0.15143,0.0718c-0.26734,0.1315 -0.58846,0.12816 -0.85301,-0.03776c-0.41437,-0.25988 -0.53307,-0.82015 -0.26514,-1.25143c0.07392,-0.11898 0.16953,-0.21571 0.27795,-0.28795l0.09602,-0.06707c-0.06137,-0.22997 -0.03309,-0.48656 0.09727,-0.71112c-0.19059,0.04345 -0.39299,0.09206 -0.61278,0.14919l-0.90821,0.22815c-0.22356,0.05616 -0.46543,0.02593 -0.67261,-0.10401c-0.41437,-0.25988 -0.53307,-0.82015 -0.26514,-1.25143c0.0639,-0.10287 0.14405,-0.18911 0.23465,-0.25727l0.07279,-0.0574c0.01424,-0.13819 0.05959,-0.27613 0.13836,-0.40292c0.10194,-0.16409 0.24517,-0.28586 0.40632,-0.35944l0.81443,-0.38617c-0.65071,-0.37847 -1.30866,-0.8176 -2.063,-1.29383l-0.03488,-0.07142l-0.02163,0.0249l-0.72733,-0.65266c-0.3269,-0.28271 -0.40276,-0.78123 -0.15925,-1.17318c0.25346,-0.40798 0.76213,-0.55436 1.16713,-0.34898l1.45928,0.71697l-0.11296,0.22805c0.5707,0.22352 1.06737,0.49782 1.57943,0.84657c0.28467,-0.36089 0.78886,-0.4633 1.17349,-0.22208c0.08911,0.05588 0.16453,0.12566 0.22539,0.20506l0.63599,0.78972l-0.00562,0.00478c0.00528,0.00272 0.01056,0.00543 0.01583,0.00816l0.00594,0.01631l0.00403,-0.00318l0.82322,1.10571c0.04768,0.06095 0.08668,0.12772 0.11656,0.19833c0.07482,-0.21108 0.15218,-0.42133 0.23117,-0.63083l-0.06132,-0.01414l0.38358,-1.53033c0.02277,-0.1004 0.0625,-0.19911 0.12011,-0.29185c0.26793,-0.43128 0.82103,-0.57022 1.2354,-0.31035c0.31552,0.19788 0.45961,0.56993 0.39211,0.92659l-0.19775,1.18774c0.17771,-0.01298 0.35928,0.02783 0.51998,0.12861c0.12601,0.07903 0.22468,0.18584 0.29344,0.30837l0.3502,0.59387l0.05261,-0.20987c0.02277,-0.1004 0.0625,-0.19911 0.12012,-0.29185c0.26793,-0.43128 0.82103,-0.57022 1.2354,-0.31035c0.19979,0.12531 0.33086,0.32046 0.38297,0.53731c0.12293,0.01437 0.24406,0.05538 0.35521,0.12509c0.19408,0.12172 0.3233,0.30935 0.37831,0.51876c0.2904,-0.319 0.76437,-0.40043 1.1302,-0.171c0.16116,0.10107 0.27759,0.24758 0.34396,0.41427c0.2819,-0.17756 0.6444,-0.19328 0.9375,-0.00947c0.26456,0.16592 0.40859,0.4543 0.40843,0.75337l0.00803,0.58402c0.27505,-0.1943 0.61893,-0.40757 1.04666,-0.61918l-0.05317,1.99421c0.06399,-0.04933 0.12907,-0.0974 0.1951,-0.14431l-0.08328,-0.11185l1.1102,-0.87549c0.29158,-0.2409 0.70624,-0.28491 1.03405,-0.07933c0.27809,0.1744 0.42301,0.4841 0.40727,0.79932l-0.03158,0.96032c-0.01311,0.32268 0.02156,0.61151 -0.04002,0.8885l0.59226,-0.5027c0.29252,-0.25996 0.72208,-0.31287 1.05957,-0.1012c0.29951,0.18784 0.44454,0.53264 0.40075,0.87222l-0.06394,0.59071l0.51088,-0.40287c0.29158,-0.2409 0.70623,-0.28492 1.03405,-0.07933c0.27294,0.17118 0.4176,0.47269 0.40797,0.78182l-0.0113,0.7493c0.00692,0.00251 0.01389,0.00504 0.02091,0.00758c0.03983,-0.06514 0.08207,-0.12017 0.12103,-0.14703c0.01163,-0.00801 0.02328,-0.01599 0.03497,-0.02392l-0.00335,-0.00415l1.3789,-1.17038c0.29252,-0.25996 0.72208,-0.31287 1.05957,-0.1012c0.32205,0.20197 0.4655,0.58542 0.38765,0.94872l-0.27157,1.4224c0.12543,-0.16469 0.28117,-0.31156 0.45709,-0.44302l-0.17099,-0.33136l1.16029,-0.65007c0.2779,-0.16242 0.62718,-0.17171 0.91125,0.00645c0.25794,0.16177 0.40131,0.43994 0.40817,0.73096c0.26321,-0.12162 0.57491,-0.1144 0.83285,0.04737c0.27809,0.1744 0.42301,0.4841 0.40727,0.79932l-0.0264,0.80266c0.492,-0.06272 0.98256,-0.12068 1.38478,0.11491c0.11638,0.06817 0.08659,0.22049 0.01868,0.39291c0.26152,-0.16266 0.59129,-0.1867 0.87066,-0.0423l0.22973,-0.36978c0.26793,-0.43128 0.82104,-0.57022 1.23541,-0.31035c0.31552,0.19788 0.4596,0.56994 0.39211,0.92659l-0.207,1.24326l-0.04396,-0.00623l0.01664,0.12356c-0.02691,0.03207 -0.05382,0.06415 -0.08072,0.09622l0.03867,0.01694l-0.4798,1.07666c-0.01888,0.04416 -0.04135,0.08749 -0.06751,0.1296c-0.26793,0.43128 -0.82103,0.57022 -1.2354,0.31035c-0.03647,-0.02287 -0.07066,-0.04808 -0.10249,-0.07532c-0.1835,0.01722 -0.37204,-0.02284 -0.53824,-0.12708c-0.18648,-0.11696 -0.31308,-0.29476 -0.37151,-0.49426c-0.10579,-0.00248 -0.21356,-0.00454 -0.32296,-0.00647c-0.00423,0.00005 -0.00848,-0.00002 -0.01275,-0.00022c-1.64274,-0.02877 -3.65235,-0.03201 -4.94003,-1.05109c-0.15585,-0.12334 -0.23623,-0.31404 -0.30631,-0.51391c-0.43674,-0.06494 -0.65196,-0.47891 -0.8287,-0.95349c-0.88334,-0.34835 -2.34362,-0.42243 -3.33282,-0.68977c-0.29236,0.25496 -0.71803,0.30552 -1.05302,0.09543c-0.18449,-0.1157 -0.31037,-0.29097 -0.36962,-0.48788l-0.2161,-0.70034c-0.16872,0.0277 -0.39532,-0.00351 -0.69808,-0.11767c-0.37307,0.12937 -0.74207,0.23218 -1.02632,0.05629c-0.41703,-0.25804 -0.17497,-1.10926 -0.59046,-1.3698c-0.17134,-0.10744 -0.3882,-0.02847 -0.60797,0.06428l-0.0161,0.01855c-0.28756,0.3427 -0.77875,0.43595 -1.15534,0.19977c-0.19793,-0.12414 -0.3284,-0.31682 -0.3815,-0.53124c-0.29334,-0.15917 -0.55486,-0.39534 -0.76346,-0.6733c-0.58121,-0.10487 -0.78302,-0.9038 -1.1214,-1.45289l-0.31509,0.75193c-0.02055,0.05149 -0.04592,0.10195 -0.07624,0.15075c-0.26793,0.43128 -0.82104,0.57022 -1.23541,0.31035c-0.20718,-0.12993 -0.34044,-0.33498 -0.38843,-0.56144l-0.08129,-0.38369c-0.20039,0.03144 -0.41018,-0.00559 -0.59297,-0.12023c-0.07174,-0.04499 -0.13462,-0.09899 -0.18817,-0.15976c-0.07786,-0.02164 -0.15376,-0.05468 -0.22551,-0.09967c-0.15641,-0.0981 -0.27069,-0.23899 -0.33795,-0.3996l-0.32492,-0.74422l-0.32004,0.68671c-0.01736,0.03865 -0.0375,0.07661 -0.0605,0.11363c-0.00427,0.00688 -0.00862,0.01369 -0.01303,0.02041c0.1283,0.09587 0.26101,0.22501 0.39814,0.39307c0.32231,0.39505 -0.60242,1.04669 -0.47155,1.52258l0.2911,-0.15517c0.27493,-0.15266 0.6155,-0.15787 0.89358,0.01653c0.41437,0.25988 0.53307,0.82015 0.26514,1.25143l-0.00257,0.00414c0.2665,-0.12944 0.58567,-0.12528 0.84886,0.03978c0.32991,0.20691 0.4724,0.60424 0.38155,0.97528c0.75408,0.14348 1.51149,0.45199 1.66673,1.21319c0.09233,0.4527 -0.33239,1.06095 -0.52147,1.54489c0.08246,0.07947 0.16649,0.17026 0.25187,0.27354c0.11038,0.13354 0.05892,0.29972 -0.04015,0.47804c1.10093,0.58803 1.94536,0.60486 2.78732,1.82652c0.46033,0.66793 0.55762,1.42831 0.86933,2.06441c0.02227,0.01156 0.04429,0.02358 0.06606,0.03606c0.27994,0.16054 0.4537,0.43361 0.57168,0.75317c0.06173,0.04563 0.12797,0.08916 0.19927,0.13038c0.87564,0.50629 2.09537,0.27724 2.90917,0.87902c0.54476,0.40284 0.55286,1.28302 1.00955,1.78647c0.30942,0.21687 0.51129,0.55363 0.69041,0.90292c0.1789,0.01537 0.35512,0.05372 0.52275,0.12194c0.57131,-0.09849 1.27184,-0.33848 1.69883,0.02789c0.28105,0.24114 -0.40491,0.77378 -0.35102,1.12304l0.03123,-0.01665c0.1928,-0.10706 0.4179,-0.1416 0.63109,-0.09254c0.11463,-0.065 0.22034,-0.10589 0.2946,-0.06495c0.15623,-0.06138 0.35103,-0.07707 0.5905,-0.00142zM178.49619,62.23815c0.00276,-0.01289 0.00554,-0.02575 0.00834,-0.03859l-0.02927,0.04712c0.00692,-0.0029 0.0139,-0.00575 0.02094,-0.00853zM181.76895,67.44594c-0.01664,-0.0579 -0.03257,-0.11582 -0.0483,-0.17369c-0.02567,0.06812 -0.04304,0.1365 -0.04871,0.20504c-0.00685,0.08278 0.03301,0.04695 0.09701,-0.03135zM180.75325,65.56548c-0.06168,-0.04097 -0.12677,-0.07669 -0.19445,-0.10842c-0.10169,0.11068 -0.19819,0.22337 -0.25172,0.34162c-0.0457,0.10097 0.12913,-0.23598 0.23662,-0.23216c0.06693,0.00238 0.13717,0.00156 0.20956,-0.00103z" fill="url(#color-5)" stroke="none" stroke-width="0.5"/><g><path d="M195.20358,75.57496l6.98744,-9.06168l3.83935,2.8151l-6.98744,9.06168z" fill="url(#color-6)" stroke="none" stroke-width="0"/><path d="M195.14143,76.69841c0,0 -6.7586,-5.03882 -10.51311,-8.90496c-3.7545,-3.86615 -11.85116,-14.12434 -11.85116,-14.12434c0,0 9.8471,5.49376 16.50943,8.239c6.66233,2.74524 13.86953,4.27877 13.86953,4.27877" fill="#5e1d89" stroke="#000000" stroke-width="2.5"/></g></g><g><path d="M187.50873,89.66276c0.56527,-0.03043 0.77903,0.3182 0.85982,0.58036c0.12955,-0.03523 0.26771,-0.04206 0.40577,-0.0147c0.4823,0.09558 0.78089,0.57216 0.66693,1.06447l-0.26544,1.14681l-0.81868,0.64983l-0.35093,0.49396c-0.14697,0.21673 -0.37776,0.36501 -0.63204,0.40469l-0.20192,0.55667c-0.15136,0.43625 -0.60185,0.70966 -1.05142,0.62057c-0.44956,-0.0891 -0.73953,-0.50924 -0.68452,-0.96459l0.02412,-0.22658c-0.07746,0.00566 -0.15652,0.0012 -0.23556,-0.01447c-0.42319,-0.08386 -0.70496,-0.46107 -0.69067,-0.88485l0.00906,-0.68636c-0.24989,0.19994 -0.52338,0.53004 -0.71378,0.37524c-0.20225,-0.16442 -0.06488,-0.48323 0.02612,-0.79049c-0.00567,-0.00051 -0.01133,-0.00109 -0.01699,-0.0017c-0.10035,-0.011 -0.19293,-0.04252 -0.28022,-0.08799c-0.04299,0.11088 -0.09103,0.21199 -0.14823,0.26887c-0.48978,0.48705 -2.19707,1.31249 -2.7196,0.81467c-0.44608,-0.42498 -0.20894,-1.20057 -0.17239,-1.87324c-0.13034,0.11259 -0.26464,0.17472 -0.40861,0.11293c-0.3813,-0.16363 -0.06034,-0.8611 -0.22403,-1.24604c-0.05943,-0.13975 0.01563,0.36507 -0.11306,0.45334c-0.44203,0.30318 -0.97217,0.78326 -1.46803,0.63111c-0.4518,-0.13863 -0.5951,-0.80024 -0.84632,-1.24112c-0.26278,-0.04685 -0.55719,-0.152 -0.90546,-0.34717c-0.76381,0.22204 -1.72514,0.99268 -2.34134,0.53578c-0.44342,-0.32878 0.24985,-1.17701 0.05822,-1.70192c-0.08391,-0.22984 -0.21566,0.57343 -0.4606,0.59974c-0.63181,0.06788 -1.39712,0.07546 -1.85207,-0.3513c-0.26906,-0.2524 0.54299,-0.83244 0.29674,-1.10767c-0.2482,-0.2774 -0.86831,0.4531 -1.12415,0.18293c-0.22481,-0.2374 -0.05691,-0.62673 0.0177,-0.99178c-0.0167,-0.01901 -0.03298,-0.03847 -0.04887,-0.05837c-0.01589,0.04172 -0.03531,0.0762 -0.05922,0.09321c-0.45149,0.32115 -0.97594,0.99056 -1.46414,0.77298c-0.62358,-0.27791 -0.70321,-1.1608 -1.00936,-1.79176c-0.07736,0.04811 -0.15476,0.05186 -0.23222,-0.01567c-0.22638,-0.19732 -0.32971,-0.47492 -0.38542,-0.78359l-0.32763,0.21801c-0.19537,0.13 -0.43678,0.18651 -0.67793,0.13872c-0.44476,-0.08814 -0.73331,-0.50029 -0.68616,-0.95l0.00925,-0.10392c-0.08136,0.00498 -0.16695,0.00903 -0.25697,0.01211c-0.90822,0.03113 -0.02806,-1.91198 -0.60605,-0.39316l-0.2942,0.31363c0,0 -0.65608,0.6457 -1.26823,0.00724c-0.32046,-0.33422 -0.29336,-0.67043 -0.19478,-0.91496c-0.03025,-0.00277 -0.06058,-0.00714 -0.09092,-0.01315c-0.44015,-0.08722 -0.72731,-0.49178 -0.68752,-0.93602c-0.14063,0.04505 -0.29275,0.05638 -0.44477,0.02625c-0.10536,-0.02088 -0.20195,-0.05994 -0.2874,-0.11338l-0.12118,0.11926c-0.21237,0.21495 -0.52074,0.32399 -0.82867,0.26296c-0.4823,-0.09558 -0.78089,-0.57216 -0.66693,-1.06447c0.03144,-0.13581 0.09098,-0.25864 0.17087,-0.36329l0.06973,-0.09554c-0.13465,-0.1912 -0.19233,-0.43832 -0.14175,-0.69147c-0.16801,0.10673 -0.34562,0.22235 -0.53707,0.35192l-0.79367,0.52809c-0.19537,0.13 -0.43678,0.1865 -0.67793,0.13871c-0.4823,-0.09558 -0.7809,-0.57216 -0.66694,-1.06448c0.02718,-0.11743 0.07538,-0.22515 0.13957,-0.31981l0.05069,-0.07849c-0.032,-0.13274 -0.03416,-0.27612 -0.00065,-0.42085c0.04335,-0.18731 0.14018,-0.34991 0.27009,-0.47422l0.65176,-0.64145c-0.74761,-0.1227 -1.52217,-0.29896 -2.40121,-0.47586l-0.05695,-0.05386l-0.01247,0.03059l-0.91146,-0.34945c-0.40615,-0.14724 -0.64335,-0.58167 -0.53978,-1.0291c0.10779,-0.46572 0.54619,-0.7787 1.00152,-0.73022l1.63305,0.15331l-0.03278,0.2503c0.61988,0.00738 1.18569,0.08755 1.79083,0.23119c0.15321,-0.43308 0.60181,-0.70384 1.04951,-0.61511c0.10371,0.02055 0.19893,0.05873 0.28338,0.11088l0.86932,0.50809l-0.0038,0.00638c0.00595,0.00068 0.0119,0.00134 0.01785,0.00201l0.01108,0.01301l0.00281,-0.00435l1.15281,0.73485c0.06575,0.0397 0.12512,0.08781 0.17703,0.14267c0.00188,-0.22129 0.00648,-0.44269 0.01288,-0.66399l-0.06335,0.00834l-0.13832,-1.54887c-0.01138,-0.10078 -0.00595,-0.20592 0.01856,-0.31179c0.11395,-0.49231 0.5973,-0.81392 1.0796,-0.71834c0.36724,0.07278 0.62798,0.36646 0.68117,0.71978l0.203,1.16722c0.16576,-0.07405 0.35297,-0.09973 0.54002,-0.06267c0.14667,0.02906 0.27636,0.09337 0.38261,0.18264l0.53119,0.4268l-0.01897,-0.21241c-0.01138,-0.10078 -0.00595,-0.20592 0.01856,-0.31179c0.11395,-0.49231 0.5973,-0.81392 1.0796,-0.71834c0.23255,0.04608 0.4224,0.18076 0.54387,0.36306c0.12237,-0.02964 0.25182,-0.03402 0.38118,-0.00839c0.2259,0.04476 0.4115,0.17312 0.53328,0.34753c0.17253,-0.39635 0.59915,-0.63715 1.02496,-0.55277c0.18758,0.03717 0.34737,0.13197 0.46591,0.26292c0.2111,-0.26262 0.55277,-0.40373 0.89391,-0.33613c0.30793,0.06103 0.54097,0.27736 0.63958,0.55393l0.20054,0.53717c0.19902,-0.2757 0.45763,-0.59297 0.79702,-0.93798l0.60765,1.86239c0.04493,-0.06796 0.09133,-0.13513 0.13903,-0.20155l-0.11662,-0.07433l0.77319,-1.19716c0.19945,-0.32455 0.58167,-0.51005 0.96322,-0.43443c0.32367,0.06414 0.56461,0.29989 0.65365,0.59683l0.2869,0.89892c0.09401,0.30292 0.22256,0.55786 0.2551,0.83548l0.4007,-0.67162c0.19405,-0.3425 0.58759,-0.54143 0.98042,-0.46357c0.34862,0.06908 0.60126,0.33723 0.67149,0.6665l0.13388,0.56849l0.3558,-0.55089c0.19945,-0.32455 0.58167,-0.51006 0.96322,-0.43445c0.31768,0.06296 0.55566,0.29122 0.64854,0.5804l0.23662,0.69674c0.00745,-0.0001 0.01496,-0.00019 0.02252,-0.00029c0.0166,-0.07414 0.03884,-0.13977 0.06726,-0.17821c0.00848,-0.01147 0.017,-0.02291 0.02555,-0.03432l-0.00458,-0.00267l0.93292,-1.56363c0.19405,-0.3425 0.58759,-0.54143 0.98042,-0.46357c0.37484,0.07429 0.63873,0.37871 0.6842,0.74181l0.20986,1.40997c0.06565,-0.19607 0.16615,-0.38625 0.29107,-0.56923l-0.27303,-0.24666l0.89555,-1.00623c0.21228,-0.24721 0.54341,-0.37778 0.87406,-0.31225c0.30022,0.0595 0.52928,0.26664 0.63193,0.5333c0.21168,-0.20437 0.51232,-0.30654 0.81254,-0.24704c0.32367,0.06414 0.56461,0.29989 0.65365,0.59683l0.23979,0.75135c0.45005,-0.2298 0.9003,-0.4547 1.36297,-0.37732c0.13388,0.02238 0.15566,0.17363 0.14762,0.35676c0.19651,-0.24171 0.50412,-0.3791 0.81912,-0.34315l0.09771,-0.42212c0.11395,-0.49231 0.5973,-0.81392 1.07961,-0.71835c0.36724,0.07278 0.62799,0.36646 0.68117,0.71979l0.21248,1.22178l-0.04412,0.00959l0.05672,0.10843c-0.01516,0.03905 -0.03031,0.0781 -0.04548,0.11715l0.0426,0.00215l-0.10356,1.16302c-0.00348,0.04742 -0.01067,0.09533 -0.0218,0.1434c-0.11395,0.49231 -0.5973,0.81392 -1.07961,0.71835c-0.04245,-0.00841 -0.08348,-0.01977 -0.12293,-0.03385c-0.16989,0.08 -0.36353,0.10879 -0.55697,0.07045c-0.21706,-0.04301 -0.3969,-0.16321 -0.51868,-0.32725c-0.10205,0.03465 -0.20584,0.07038 -0.31116,0.1068c-0.00404,0.00153 -0.00812,0.00295 -0.01227,0.00424c-1.58134,0.54705 -3.50529,1.24581 -5.07392,0.75324c-0.18985,-0.05962 -0.32974,-0.20787 -0.4628,-0.3682c-0.43934,0.09246 -0.78197,-0.21513 -1.1078,-0.59221c-0.96026,-0.01362 -2.38197,0.42782 -3.41676,0.52607c-0.19555,0.33782 -0.58616,0.53321 -0.97606,0.45595c-0.21474,-0.04255 -0.39306,-0.16064 -0.51477,-0.32202l-0.43804,-0.57206c-0.15228,0.08453 -0.37942,0.1348 -0.70681,0.13497c-0.31425,0.24989 -0.63338,0.4738 -0.96344,0.41044c-0.48424,-0.09296 -0.53372,-0.96451 -1.01731,-1.06031c-0.19943,-0.03951 -0.38085,0.10924 -0.5605,0.27174l-0.00929,0.02278c-0.16198,0.41728 -0.60119,0.675 -1.0395,0.58815c-0.23038,-0.04565 -0.41884,-0.17825 -0.54045,-0.35796c-0.33323,-0.04473 -0.66146,-0.17178 -0.95285,-0.35593c-0.59076,0.106 -1.04768,-0.56221 -1.55277,-0.95172l-0.05319,0.80525c-0.00266,0.05479 -0.01027,0.11029 -0.02317,0.16601c-0.11395,0.49231 -0.59731,0.81392 -1.07961,0.71835c-0.24115,-0.04779 -0.43636,-0.19083 -0.55706,-0.38347l-0.20448,-0.32637c-0.18136,0.09904 -0.39433,0.13807 -0.60708,0.0959c-0.08351,-0.01654 -0.16149,-0.04452 -0.23281,-0.08201c-0.08165,0.00719 -0.16518,0.00313 -0.24869,-0.01341c-0.18205,-0.03608 -0.33792,-0.12644 -0.45532,-0.25145l-0.55665,-0.57463l-0.07947,0.74667c-0.00384,0.04179 -0.01058,0.08394 -0.02037,0.1262c-0.00182,0.00785 -0.00373,0.01566 -0.00573,0.02342c0.15442,0.04384 0.32405,0.11689 0.51075,0.2244c0.43886,0.25271 -0.23079,1.17812 0.05159,1.57242l0.22729,-0.24512c0.21266,-0.23715 0.53681,-0.36091 0.86049,-0.29676c0.4823,0.09558 0.78089,0.57216 0.66693,1.06447l-0.0011,0.00473c0.21227,-0.21274 0.51903,-0.32034 0.82537,-0.25964c0.38399,0.0761 0.65154,0.39371 0.68714,0.7685c0.76891,-0.13067 1.59552,-0.1099 1.99542,0.53968c0.23783,0.38633 0.03231,1.09701 0.0112,1.61048c0.10515,0.04468 0.21553,0.09928 0.33133,0.16497c0.14971,0.08492 0.15535,0.25654 0.11944,0.45601c1.2476,0.15923 2.06113,-0.12008 3.27018,0.71544c0.66103,0.45681 1.00521,1.12589 1.51352,1.60516c0.02512,0.00291 0.05016,0.00633 0.07511,0.01027c0.32087,0.05068 0.57732,0.24247 0.79572,0.49674c0.07413,0.02063 0.1519,0.03774 0.23373,0.05096c1.00504,0.16234 2.09649,-0.47537 3.07389,-0.20315c0.65427,0.18223 0.95268,0.99322 1.55591,1.29922c0.36769,0.09247 0.67204,0.33334 0.95876,0.59374c0.17625,-0.04826 0.35755,-0.07435 0.54046,-0.0698c0.51413,-0.29056 1.10517,-0.75707 1.63472,-0.56745c0.34855,0.12481 -0.13192,0.85682 0.03497,1.16092l0.02438,-0.0263c0.14913,-0.16631 0.3531,-0.27686 0.57328,-0.30593c0.08822,-0.10012 0.17587,-0.17485 0.26043,-0.16294c0.12922,-0.1113 0.31044,-0.19383 0.56455,-0.20752zM170.49222,84.74302c-0.00162,-0.01287 -0.0032,-0.02574 -0.00477,-0.03859l-0.01245,0.0538c0.00565,-0.00511 0.0114,-0.01018 0.01721,-0.0152zM175.34343,88.41522c-0.03503,-0.04772 -0.06941,-0.0957 -0.10358,-0.14373c-0.00207,0.07195 0.0039,0.14123 0.0211,0.20659c0.02078,0.07893 0.04709,0.03189 0.08247,-0.06286zM173.75059,87.03126c-0.07255,-0.01634 -0.14663,-0.02663 -0.22187,-0.03234c-0.06076,0.13784 -0.11588,0.27573 -0.12804,0.40375c-0.01039,0.10932 0.04563,-0.26328 0.14975,-0.29728c0.06483,-0.02117 0.13177,-0.04646 0.20016,-0.07413z" fill="url(#color-7)" stroke="none" stroke-width="0.5"/><g><path d="M190.88261,91.23985l3.69355,-10.81836l4.60325,1.2621l-3.69355,10.81836z" fill="url(#color-8)" stroke="none" stroke-width="0"/><path d="M191.19412,92.30029c0,0 -8.13083,-2.29872 -12.99997,-4.56225c-4.86914,-2.26352 -16.00381,-8.92078 -16.00381,-8.92078c0,0 11.23626,1.64085 18.5176,1.85257c7.28133,0.21173 14.68389,-0.88715 14.68389,-0.88715" fill="#5e1d89" stroke="#000000" stroke-width="2.5"/></g></g></g><g data-paper-data="{&quot;index&quot;:null}" stroke-linecap="butt"><g><path d="M287.75959,81.21604c0.07876,-0.03265 0.17676,0.02023 0.2801,0.09825c0.21638,-0.02515 0.43256,0.0348 0.60669,0.16376l0.02831,0.0202c0.10266,-0.34381 -0.4953,-0.95465 -0.18492,-1.16457c0.47156,-0.31893 1.12547,0.00038 1.6726,0.16336c0.17435,-0.04948 0.35291,-0.06804 0.53081,-0.06329c0.22565,-0.32975 0.47186,-0.64437 0.80665,-0.82679c0.52023,-0.45292 0.65348,-1.33376 1.2459,-1.67598c0.88498,-0.51122 2.05041,-0.1444 2.98256,-0.553c0.07589,-0.03327 0.14717,-0.06941 0.21429,-0.10818c0.16136,-0.30685 0.37091,-0.56083 0.66872,-0.69013c0.02316,-0.01005 0.04651,-0.01962 0.07002,-0.02869c0.39672,-0.60214 0.60051,-1.35291 1.14774,-1.9702c1.0009,-1.12904 1.8327,-1.05082 2.99776,-1.51592c-0.07192,-0.18979 -0.0988,-0.36206 0.02862,-0.48341c0.09856,-0.09386 0.19402,-0.17535 0.28632,-0.24567c-0.11683,-0.50609 -0.4474,-1.16326 -0.29227,-1.60637c0.26083,-0.74508 1.04869,-0.96885 1.80978,-1.02767c-0.03641,-0.38193 0.16011,-0.76393 0.5136,-0.93406c0.282,-0.13572 0.59608,-0.10395 0.83942,0.05573l-0.00194,-0.00444c-0.20177,-0.46222 -0.00541,-1.01013 0.43857,-1.2238c0.29796,-0.1434 0.63174,-0.09983 0.88004,0.08406l0.26383,0.18823c0.19629,-0.46201 -0.61924,-1.21894 -0.24642,-1.5784c0.1586,-0.15292 0.30735,-0.26735 0.44701,-0.34894c-0.00338,-0.00724 -0.00668,-0.01455 -0.0099,-0.02192c-0.01732,-0.03968 -0.0317,-0.07998 -0.04325,-0.12065l-0.2166,-0.72397l-0.42507,0.70897c-0.08893,0.15332 -0.22124,0.2816 -0.38883,0.36225c-0.07687,0.037 -0.15613,0.06155 -0.23568,0.07446c-0.06124,0.05486 -0.13069,0.10187 -0.20756,0.13887c-0.19585,0.09426 -0.40719,0.10773 -0.59954,0.05367l-0.13447,0.37522c-0.07936,0.22146 -0.23945,0.41186 -0.46144,0.5187c-0.44398,0.21367 -0.96748,0.0122 -1.16925,-0.45001c-0.02283,-0.05231 -0.04057,-0.10571 -0.05342,-0.1596l-0.20245,-0.78876c-0.41053,0.51197 -0.72248,1.2896 -1.30828,1.32921c-0.24446,0.25497 -0.53494,0.46213 -0.84572,0.58854c-0.08267,0.20883 -0.23825,0.38716 -0.45033,0.48923c-0.40351,0.19419 -0.87269,0.04548 -1.10635,-0.33022l-0.01319,-0.0204c-0.20265,-0.11767 -0.40441,-0.22119 -0.588,-0.13285c-0.44519,0.21421 -0.32862,1.09421 -0.77495,1.30576c-0.30424,0.14419 -0.65204,-0.00035 -1.00006,-0.17196c-0.31363,0.08027 -0.54064,0.08603 -0.70242,0.03927l-0.31196,0.67725c-0.08621,0.1906 -0.2348,0.35199 -0.43249,0.44713c-0.35894,0.17275 -0.76984,0.07416 -1.0207,-0.21417c-1.00967,0.15643 -2.45452,0.0662 -3.37174,0.3157c-0.24116,0.45553 -0.51148,0.84601 -0.94969,0.86189c-0.09728,0.19234 -0.20338,0.37433 -0.37402,0.48034c-1.40985,0.87589 -3.38418,0.65284 -5.0018,0.49668c-0.00422,-0.00028 -0.0084,-0.00068 -0.01255,-0.00121c-0.10773,-0.01039 -0.21387,-0.02047 -0.31814,-0.02989c-0.08578,0.19328 -0.23544,0.35714 -0.43525,0.45331c-0.17809,0.08571 -0.36898,0.10462 -0.54676,0.0667c-0.03514,0.0237 -0.07231,0.0451 -0.11139,0.06391c-0.44398,0.21367 -0.96748,0.0122 -1.16925,-0.45002c-0.0197,-0.04512 -0.0356,-0.09107 -0.04785,-0.13744l-0.318,-1.13262l0.04039,-0.01261c-0.02186,-0.03516 -0.04373,-0.07031 -0.06559,-0.10547l0.03393,-0.12192l-0.04406,0.00129l-0.02633,-1.26878c-0.01553,-0.36489 0.17897,-0.72138 0.51704,-0.88409c0.44398,-0.21367 0.96748,-0.0122 1.16925,0.45001l0.17301,0.39632c0.29496,-0.1132 0.61545,-0.05197 0.84915,0.14042c-0.04216,-0.18037 -0.04974,-0.33632 0.07428,-0.39151c0.42861,-0.19073 0.9022,-0.07742 1.37651,0.04082l0.08833,-0.80707c0.02942,-0.31754 0.21585,-0.61149 0.51382,-0.75489c0.27638,-0.13301 0.58356,-0.10515 0.82478,0.04633c0.04816,-0.29075 0.22858,-0.55328 0.50496,-0.68629c0.30439,-0.14649 0.64613,-0.09786 0.89597,0.09614l1.04712,0.7819l-0.21511,0.3127c0.15408,0.1515 0.28613,0.31617 0.38589,0.49528l-0.06425,-1.45553c-0.02475,-0.37271 0.17074,-0.74069 0.51581,-0.90676c0.36163,-0.17404 0.776,-0.07266 1.02632,0.2207l1.18777,1.32775l-0.00388,0.00379c0.01034,0.00926 0.02065,0.01856 0.03093,0.0279c0.03445,0.03128 0.0681,0.09117 0.09795,0.16092c0.00725,-0.00176 0.01446,-0.00351 0.02162,-0.00525l0.09557,-0.75191c0.03456,-0.31077 0.21957,-0.59653 0.51202,-0.73727c0.35125,-0.16904 0.75225,-0.07825 1.00436,0.19591l0.44445,0.46112l0.02128,-0.59896c0.00533,-0.34512 0.19687,-0.6742 0.51779,-0.82865c0.36163,-0.17404 0.776,-0.07266 1.02632,0.2207l0.51018,0.5703c-0.02107,-0.28441 0.0541,-0.56986 0.08717,-0.89459l0.10568,-0.96559c0.02941,-0.31754 0.21584,-0.61149 0.51381,-0.75489c0.35125,-0.16904 0.75226,-0.07825 1.00437,0.19591l0.96584,1.00207l-0.09772,0.10268c0.05819,0.05442 0.11526,0.10989 0.17109,0.16652l0.23165,-2.00377c0.39001,0.26015 0.69741,0.51252 0.93991,0.73815l0.09102,-0.58415c0.04242,-0.29963 0.22494,-0.57229 0.50841,-0.70872c0.31404,-0.15114 0.66787,-0.09457 0.91948,0.11505c0.08891,-0.15951 0.22412,-0.29317 0.3968,-0.37628c0.39198,-0.18864 0.84593,-0.05371 1.08575,0.29856c0.08384,-0.20359 0.23747,-0.377 0.44543,-0.47709c0.11909,-0.05732 0.24391,-0.08476 0.3667,-0.08532c0.08207,-0.21137 0.23856,-0.39211 0.45265,-0.49514c0.44398,-0.21367 0.96748,-0.0122 1.16925,0.45002c0.04339,0.0994 0.06837,0.20275 0.07644,0.3059l0.02179,0.21617l0.4285,-0.5555c0.08498,-0.11499 0.19711,-0.21089 0.33213,-0.27587c0.17219,-0.08287 0.35633,-0.1033 0.52904,-0.07028l-0.02516,-1.21213c-0.01552,-0.36489 0.17897,-0.72138 0.51705,-0.88409c0.44398,-0.21367 0.96747,-0.0122 1.16925,0.45002c0.04339,0.0994 0.06837,0.20275 0.07644,0.3059l0.15891,1.57626l-0.06224,0.00726c0.04775,0.21878 0.09382,0.4381 0.13726,0.65799c0.0394,-0.06738 0.0872,-0.12987 0.14272,-0.18556l0.96598,-1.01498l0.0035,0.00364l0.00816,-0.01567c0.00557,-0.00213 0.01114,-0.00426 0.01672,-0.00639l-0.00484,-0.00542l0.7371,-0.71953c0.07108,-0.07269 0.1551,-0.13409 0.25058,-0.18004c0.41213,-0.19835 0.89277,-0.03897 1.121,0.35462c0.5526,-0.29171 1.07949,-0.51057 1.67185,-0.67023l-0.07849,-0.24118l1.53539,-0.55392c0.42703,-0.16015 0.90582,0.04377 1.09669,0.48103c0.18338,0.42007 0.03791,0.91094 -0.32343,1.15735l-0.8073,0.57192l-0.01771,-0.02738l-0.04442,0.06762c-0.80872,0.39214 -1.51748,0.75796 -2.21049,1.06383l0.74498,0.47857c0.14781,0.09186 0.27115,0.22998 0.34792,0.40584c0.05932,0.13589 0.08423,0.27919 0.07855,0.41922l0.06332,0.0657c0.0793,0.07849 0.14573,0.1739 0.19386,0.28415c0.20177,0.46222 0.00542,1.01014 -0.43857,1.22381c-0.22199,0.10684 -0.46386,0.10989 -0.67546,0.02845l-0.85958,-0.33083c-0.20776,-0.08199 -0.39962,-0.15347 -0.58064,-0.21846c0.09606,0.23964 0.08731,0.49987 -0.0057,0.72334l0.08477,0.07801c0.0962,0.08458 0.17635,0.19224 0.23201,0.31976c0.20177,0.46222 0.00542,1.01014 -0.43856,1.22381c-0.28347,0.13643 -0.59935,0.10362 -0.84321,-0.05823l-0.13851,-0.08898c-0.07179,0.07421 -0.15696,0.13684 -0.25396,0.18351c-0.13995,0.06735 -0.28779,0.09346 -0.43097,0.08315c0.12169,0.43257 -0.07725,0.90596 -0.48244,1.10097c-0.02793,0.01344 -0.05617,0.02523 -0.08462,0.03543c0.14043,0.21926 0.22964,0.54738 -0.01443,0.95893c-0.46624,0.78615 -1.21615,0.30441 -1.21615,0.30441l-0.34081,-0.24001c-0.83937,-1.37033 0.36927,0.34824 -0.50653,0.5404c-0.08679,0.01905 -0.16955,0.03605 -0.24842,0.05108l0.02841,0.1012c0.12977,0.4362 -0.06907,0.91749 -0.47851,1.11454c-0.22199,0.10684 -0.46386,0.10989 -0.67545,0.02846l-0.35484,-0.13657c0.00471,0.32104 -0.04204,0.62284 -0.22175,0.87494c-0.0615,0.08626 -0.13634,0.10155 -0.21949,0.07266c-0.17455,0.70349 -0.08472,1.60218 -0.62973,2.03213c-0.42669,0.33661 -1.05499,-0.20108 -1.54786,-0.40993c-0.0261,-0.01106 -0.0512,-0.04062 -0.07426,-0.07825c-0.01147,0.02371 -0.02341,0.04709 -0.03583,0.07013c0.14015,0.34516 0.37422,0.69158 0.20355,0.9832c-0.19422,0.33188 -0.92563,-0.24314 -1.11118,0.09407c-0.1841,0.33456 0.70286,0.71261 0.49262,1.03004c-0.35548,0.53673 -1.08997,0.71721 -1.70792,0.80487c-0.23957,0.03398 -0.51689,-0.73349 -0.55401,-0.48401c-0.0848,0.56975 0.73883,1.24403 0.37596,1.68036c-0.50428,0.60635 -1.57008,0.0752 -2.34347,0.04179c-0.29686,0.27992 -0.55909,0.45696 -0.80198,0.56817c-0.15769,0.50074 -0.17048,1.19474 -0.57715,1.44379c-0.44634,0.27334 -1.04446,-0.07443 -1.5249,-0.26771c-0.13987,-0.05627 -0.16295,-0.57738 -0.19358,-0.42362c-0.08437,0.42351 0.35429,1.03915 0.01983,1.29577c-0.12628,0.0969 -0.2666,0.06802 -0.41263,-0.01205c0.16156,0.66081 0.53463,1.37484 0.1873,1.90762c-0.40686,0.62409 -2.1975,0.22168 -2.75826,-0.14296c-0.06549,-0.04259 -0.13053,-0.13147 -0.19257,-0.23131c-0.07506,0.06673 -0.1578,0.12087 -0.25186,0.15648c-0.00531,0.00201 -0.01063,0.00397 -0.01596,0.00588c0.14498,0.28359 0.33653,0.56728 0.17374,0.78069c-0.15326,0.20092 -0.47731,-0.06057 -0.75429,-0.19825l0.13781,0.68121c0.0934,0.41846 -0.10551,0.8633 -0.49509,1.05079c-0.07276,0.03502 -0.14765,0.05888 -0.2229,0.07228l0.06572,0.21969c0.13837,0.43989 -0.06033,0.92948 -0.47419,1.12866c-0.41386,0.19918 -0.89681,0.03763 -1.12386,-0.35957l-0.29814,-0.50469c-0.25102,0.02297 -0.49998,-0.06797 -0.68154,-0.24766l-0.42906,-0.40563l-0.90643,-0.4459l-0.47002,-1.0767c-0.20177,-0.46222 -0.00541,-1.01013 0.43857,-1.2238c0.1271,-0.06117 0.26072,-0.08832 0.39144,-0.08507c0.02807,-0.2809 0.16723,-0.68057 0.7144,-0.78916c0.24598,-0.04882 0.43509,-0.01116 0.5798,0.06791zM302.57292,72.07912l-0.02204,-0.05049c0.00092,0.01318 0.00182,0.02638 0.0027,0.0396c0.00652,0.00357 0.01297,0.0072 0.01935,0.0109zM298.68852,76.9591c0.00419,-0.0693 -0.00315,-0.13976 -0.01866,-0.21089c-0.02369,0.05621 -0.04759,0.11245 -0.07217,0.16857c0.05171,0.08564 0.08577,0.12602 0.09082,0.04232zM300.0687,75.17195c0.10612,0.00827 0.22987,0.36552 0.19936,0.25922c-0.03573,-0.12449 -0.11448,-0.24824 -0.19861,-0.37057c-0.071,0.02416 -0.14001,0.05263 -0.20643,0.08672c0.07072,0.01075 0.1396,0.01948 0.20568,0.02463z" fill="url(#color-9)" stroke="none" stroke-width="0.5"/><g><path d="M280.07301,85.93529l-5.57323,-9.86469l4.1718,-2.38779l5.57323,9.8647z" fill="url(#color-10)" stroke="none" stroke-width="0"/><path d="M277.7701,73.24714c0,0 7.29732,-0.72469 14.23195,-2.72462c6.93464,-1.99993 17.38866,-6.39465 17.38866,-6.39465c0,0 -9.41294,9.36478 -13.65102,12.81506c-4.23808,3.45028 -11.59377,7.73703 -11.59377,7.73703" fill="#5e1d89" stroke="#000000" stroke-width="2.5"/></g></g><g><path d="M291.86341,97.76105c0.0847,-0.00398 0.16152,0.07935 0.23573,0.18825c0.21297,0.05 0.39973,0.18031 0.52553,0.36144l0.02069,0.02872c0.20243,-0.28966 -0.17822,-1.07028 0.18039,-1.16271c0.54482,-0.14042 1.06763,0.38398 1.5369,0.72439c0.18053,0.01272 0.35561,0.05604 0.52294,0.12117c0.31483,-0.23445 0.64454,-0.44763 1.0179,-0.50576c0.63193,-0.25035 1.02749,-1.03669 1.69409,-1.1579c0.99579,-0.18108 1.98938,0.56257 2.99856,0.49448c0.08217,-0.00554 0.16082,-0.01538 0.23636,-0.02911c0.24685,-0.23475 0.52325,-0.40316 0.8453,-0.42373c0.02505,-0.0016 0.05011,-0.00266 0.07519,-0.00322c0.56035,-0.43336 0.98309,-1.07283 1.69086,-1.46919c1.29453,-0.72495 2.05978,-0.36754 3.3072,-0.4096c-0.01024,-0.20373 0.01688,-0.37557 0.17485,-0.44672c0.12219,-0.05503 0.23765,-0.09944 0.34671,-0.13438c0.04379,-0.51771 -0.06903,-1.25094 0.21353,-1.61648c0.47511,-0.61465 1.29094,-0.55741 2.03097,-0.35352c0.08215,-0.37306 0.3853,-0.66679 0.77265,-0.70694c0.30901,-0.03203 0.59728,0.10502 0.77935,0.33876l-0.00048,-0.00485c-0.0502,-0.50523 0.30349,-0.95569 0.78999,-1.00612c0.32649,-0.03384 0.62984,0.12108 0.80923,0.37936l0.19279,0.26767c0.32738,-0.36935 -0.21505,-1.36209 0.24848,-1.57444c0.19719,-0.09033 0.37327,-0.14768 0.5307,-0.17712c-0.00099,-0.00799 -0.00189,-0.01602 -0.00269,-0.02408c-0.00431,-0.04336 -0.00565,-0.08633 -0.00418,-0.12867l0.01572,-0.75746l-0.61989,0.52456c-0.13121,0.11446 -0.29593,0.19049 -0.47957,0.20953c-0.08423,0.00873 -0.16693,0.0049 -0.24635,-0.01003c-0.07486,0.03092 -0.15511,0.05165 -0.23935,0.06038c-0.21461,0.02224 -0.41922,-0.03707 -0.58519,-0.15368l-0.24221,0.30848c-0.14297,0.18207 -0.353,0.30729 -0.59626,0.33251c-0.4865,0.05043 -0.9216,-0.31827 -0.97179,-0.8235c-0.00568,-0.05718 -0.00619,-0.11365 -0.00192,-0.16892l0.04893,-0.81381c-0.5459,0.3435 -1.07945,0.97147 -1.64731,0.80919c-0.30983,0.15743 -0.64871,0.25402 -0.98217,0.26746c-0.14224,0.169 -0.34433,0.28437 -0.57672,0.30846c-0.44215,0.04583 -0.84183,-0.25452 -0.94872,-0.68894l-0.00627,-0.02375c-0.15631,-0.18019 -0.3161,-0.34673 -0.51726,-0.32588c-0.48781,0.05052 -0.64608,0.92122 -1.13417,0.96883c-0.33269,0.03245 -0.61849,-0.22258 -0.89623,-0.50326c-0.32207,-0.03111 -0.53921,-0.10305 -0.67839,-0.20234l-0.50288,0.53318c-0.14003,0.15059 -0.33032,0.25234 -0.54693,0.27479c-0.39331,0.04077 -0.75302,-0.19239 -0.90292,-0.55017c-1.00568,-0.19645 -2.34887,-0.77415 -3.29529,-0.8512c-0.36798,0.34794 -0.74373,0.62451 -1.16433,0.49013c-0.15106,0.14846 -0.30733,0.28415 -0.5016,0.32609c-1.60517,0.34651 -3.4101,-0.5371 -4.89705,-1.23595c-0.00392,-0.0017 -0.00777,-0.00351 -0.01155,-0.00543c-0.09904,-0.04654 -0.19665,-0.09223 -0.29269,-0.13666c-0.14044,0.15327 -0.33249,0.25699 -0.55144,0.27969c-0.19515,0.02023 -0.38202,-0.02698 -0.5391,-0.12339c-0.04058,0.01041 -0.08238,0.01794 -0.1252,0.02238c-0.4865,0.05043 -0.92159,-0.31826 -0.97179,-0.8235c-0.0049,-0.04932 -0.00595,-0.09813 -0.00341,-0.1461l0.04436,-1.1779l0.04219,0.00186c-0.01,-0.04065 -0.02,-0.08131 -0.03,-0.12196l0.06944,-0.10355l-0.04219,-0.0138l0.36268,-1.20706c0.09676,-0.34985 0.39021,-0.62018 0.76065,-0.65858c0.4865,-0.05043 0.92159,0.31826 0.97179,0.82349l0.04305,0.43321c0.31442,-0.00635 0.59978,0.16071 0.76271,0.42204c0.01511,-0.18469 0.05557,-0.33454 0.19009,-0.34437c0.4649,-0.034 0.87958,0.23443 1.29345,0.50776l0.33039,-0.73199c0.12493,-0.28982 0.39162,-0.50383 0.71812,-0.53768c0.30285,-0.03139 0.58577,0.09963 0.76833,0.32489c0.13452,-0.25813 0.3859,-0.44453 0.68876,-0.47592c0.33353,-0.03458 0.64289,0.12784 0.82065,0.39619l0.75452,1.09526l-0.29963,0.22195c0.09989,0.19558 0.17486,0.39608 0.21479,0.59922l0.38376,-1.39633c0.0904,-0.36038 0.38829,-0.64121 0.76641,-0.68041c0.39626,-0.04108 0.75842,0.1959 0.90626,0.55824l0.72118,1.65863l-0.00484,0.00225c0.00698,0.01226 0.01393,0.02457 0.02083,0.03689c0.02313,0.04129 0.03675,0.1093 0.04376,0.18533c0.00742,0.00081 0.01479,0.00162 0.02211,0.00242l0.3204,-0.67744c0.12773,-0.28167 0.39057,-0.48844 0.71103,-0.52166c0.38488,-0.0399 0.73758,0.18253 0.89299,0.52735l0.28077,0.58692l0.2032,-0.55833c0.1105,-0.32407 0.39277,-0.56952 0.74442,-0.60598c0.39626,-0.04108 0.75841,0.1959 0.90625,0.55824l0.30977,0.71242c0.06692,-0.27575 0.22545,-0.51967 0.35603,-0.81503l0.39529,-0.87576c0.12493,-0.28982 0.39161,-0.50383 0.71811,-0.53768c0.38488,-0.0399 0.73759,0.18253 0.893,0.52735l0.61013,1.27545l-0.12408,0.06364c0.03857,0.07122 0.07578,0.14306 0.11143,0.21556l0.83201,-1.81314c0.29051,0.3786 0.50504,0.72169 0.66617,1.0174l0.26484,-0.52057c0.13178,-0.26847 0.38826,-0.46373 0.69888,-0.49593c0.34412,-0.03567 0.66251,0.13835 0.83717,0.42206c0.13309,-0.12032 0.30222,-0.20044 0.49143,-0.22006c0.42952,-0.04452 0.81895,0.23764 0.93884,0.65202c0.14174,-0.16366 0.34048,-0.27505 0.56835,-0.29866c0.1305,-0.01353 0.2573,0.00311 0.37396,0.04444c0.14244,-0.17162 0.34615,-0.28894 0.58072,-0.31326c0.48651,-0.05043 0.92159,0.31826 0.97179,0.8235c0.01079,0.10864 0.00291,0.21476 -0.02095,0.3149l-0.04537,0.21156l0.57625,-0.37848c0.11576,-0.07962 0.25143,-0.13195 0.39939,-0.14729c0.18868,-0.01956 0.36963,0.02392 0.52339,0.11396l0.34649,-1.15315c0.09676,-0.34985 0.39021,-0.62018 0.76066,-0.65858c0.4865,-0.05043 0.92159,0.31826 0.97179,0.8235c0.0108,0.10864 0.00292,0.21476 -0.02094,0.3149l-0.33085,1.54259l-0.06127,-0.01436c-0.02154,0.22286 -0.04485,0.44567 -0.07083,0.66811c0.05796,-0.05019 0.12241,-0.09292 0.1921,-0.12657l1.22656,-0.62915l0.00221,0.00463l0.01253,-0.01201c0.00594,-0.00011 0.01187,-0.00023 0.01781,-0.00034l-0.00294,-0.00677l0.91914,-0.42818c0.08964,-0.04441 0.18812,-0.07375 0.29273,-0.08459c0.4516,-0.04681 0.8589,0.26752 0.95517,0.71697c0.61339,-0.0871 1.18013,-0.11415 1.7909,-0.063l-0.00077,-0.2545l1.6259,0.00031c0.45406,-0.00566 0.84599,0.35009 0.89348,0.82805c0.04563,0.45918 -0.24235,0.8731 -0.66045,0.98261l-0.94065,0.26487l-0.00843,-0.03189l-0.06281,0.0487c-0.88705,0.09462 -1.67124,0.19848 -2.42217,0.25108l0.56055,0.70584c0.11217,0.13714 0.18698,0.3096 0.20608,0.50182c0.01476,0.14853 -0.00539,0.29234 -0.05357,0.42264l0.04,0.08362c0.05125,0.10114 0.08512,0.21389 0.0971,0.3344c0.0502,0.50523 -0.30349,0.95568 -0.79,1.00611c-0.24326,0.02522 -0.47365,-0.05434 -0.64951,-0.20337l-0.71441,-0.6054c-0.17205,-0.14823 -0.33225,-0.28114 -0.48412,-0.40421c0.01792,0.25903 -0.06988,0.50178 -0.2264,0.68109l0.05659,0.10255c0.06543,0.11266 0.10856,0.24165 0.12241,0.38103c0.0502,0.50523 -0.30349,0.95568 -0.79,1.00611c-0.31061,0.0322 -0.60028,-0.10645 -0.78218,-0.3424l-0.10422,-0.13124c-0.09078,0.0456 -0.19071,0.07571 -0.297,0.08673c-0.15335,0.0159 -0.30158,-0.00985 -0.43427,-0.06839c-0.01671,0.44994 -0.3501,0.82913 -0.79409,0.87516c-0.0306,0.00317 -0.061,0.00468 -0.09111,0.00462c0.06624,0.25491 0.05061,0.59516 -0.30669,0.90057c-0.68253,0.58342 -1.24679,-0.12709 -1.24679,-0.12709l-0.25,-0.34282c-0.37763,-1.58008 0.24393,0.45471 -0.64567,0.33763c-0.08817,-0.01161 -0.17187,-0.02376 -0.25129,-0.03645l-0.00396,0.10524c-0.01016,0.45613 -0.34586,0.84283 -0.79451,0.88933c-0.24326,0.02522 -0.47365,-0.05435 -0.64951,-0.20337l-0.29492,-0.24992c-0.09362,0.30475 -0.23019,0.57381 -0.47771,0.7506c-0.0847,0.0605 -0.16038,0.04942 -0.23043,-0.00621c-0.38054,0.60479 -0.5699,1.48403 -1.21833,1.70423c-0.50765,0.1724 -0.93945,-0.54948 -1.34324,-0.9147c-0.02138,-0.01934 -0.03616,-0.0558 -0.04654,-0.0992c-0.01813,0.01848 -0.0366,0.0365 -0.05542,0.05401c0.0275,0.37369 0.14372,0.78059 -0.1073,0.99779c-0.28566,0.24718 -0.80387,-0.54511 -1.08294,-0.28994c-0.27688,0.25316 0.44909,0.91248 0.15265,1.14056c-0.50125,0.38564 -1.25321,0.30572 -1.86626,0.17785c-0.23766,-0.04957 -0.26627,-0.86881 -0.37772,-0.64589c-0.25454,0.5091 0.32084,1.42655 -0.15674,1.71487c-0.66368,0.40067 -1.51254,-0.46417 -2.23606,-0.75935c-0.36716,0.16312 -0.67003,0.24092 -0.93445,0.26314c-0.3026,0.41908 -0.52678,1.07005 -0.9887,1.16661c-0.50696,0.10597 -0.96815,-0.42631 -1.36489,-0.77258c-0.11551,-0.10081 0.02182,-0.60076 -0.05422,-0.46601c-0.20945,0.37116 0.01861,1.10201 -0.3771,1.23033c-0.14941,0.04845 -0.27371,-0.02664 -0.38779,-0.15203c-0.04863,0.67906 0.08714,1.48046 -0.40516,1.86516c-0.57667,0.45064 -2.15253,-0.53973 -2.57313,-1.07519c-0.04912,-0.06253 -0.08366,-0.16863 -0.11202,-0.28405c-0.0916,0.03743 -0.18664,0.06034 -0.28676,0.0619c-0.00565,0.00008 -0.0113,0.00012 -0.01693,0.00011c0.0509,0.31721 0.14595,0.65039 -0.07369,0.79642c-0.20679,0.13748 -0.43433,-0.2199 -0.65504,-0.44432l-0.07739,0.69022c-0.03924,0.42699 -0.36388,0.77922 -0.79076,0.82347c-0.07972,0.00826 -0.15806,0.00527 -0.23356,-0.00773l-0.00477,0.22985c-0.00314,0.46254 -0.34124,0.85713 -0.79473,0.90414c-0.45349,0.047 -0.86231,-0.27016 -0.95636,-0.72263l-0.12865,-0.57818c-0.24516,-0.06387 -0.45357,-0.23461 -0.57091,-0.46618l-0.28313,-0.52928l-0.7237,-0.73003l-0.11694,-1.17691c-0.0502,-0.50523 0.30349,-0.95569 0.78999,-1.00612c0.13927,-0.01444 0.27433,0.00548 0.39736,0.05311c0.11246,-0.25567 0.3666,-0.58564 0.91888,-0.50167c0.24828,0.03775 0.41619,0.13777 0.52931,0.26177zM308.70877,94.18267l-0.00549,-0.0552c-0.00315,0.01276 -0.00633,0.02554 -0.00954,0.03831c0.00509,0.00559 0.0101,0.01122 0.01503,0.01689zM303.53254,97.46664c0.02515,-0.06401 0.03973,-0.13304 0.04674,-0.2055c-0.03964,0.04501 -0.0795,0.08996 -0.11997,0.13457c0.02289,0.0985 0.04286,0.14824 0.07323,0.07093zM305.38798,96.24955c0.09815,0.04399 0.1064,0.4235 0.10994,0.31273c0.00413,-0.12973 -0.03276,-0.27343 -0.0752,-0.41762c-0.07474,-0.00138 -0.14891,0.00197 -0.22234,0.01152c0.06381,0.03426 0.12649,0.06598 0.1876,0.09337z" fill="url(#color-11)" stroke="none" stroke-width="0.5"/><g><path d="M283.12908,99.59722l-2.27337,-11.21474l4.68743,-0.8327l2.27337,11.21473z" fill="url(#color-12)" stroke="none" stroke-width="0"/><path d="M284.82101,86.83111c0,0 7.14452,1.80311 14.33459,2.27842c7.19007,0.47531 18.45075,-0.11109 18.45075,-0.11109c0,0 -11.79153,5.63438 -16.86647,7.44776c-5.07494,1.81338 -13.36318,3.35395 -13.36318,3.35395" fill="#5e1d89" stroke="#000000" stroke-width="2.5"/></g></g><g><path d="M288.92265,115.23723c0.08114,0.02661 0.12684,0.13233 0.16184,0.2611c0.18478,0.12322 0.31907,0.31241 0.37954,0.52745l0.01028,0.03437c0.28393,-0.19929 0.17565,-1.06819 0.54351,-1.02643c0.55889,0.06343 0.88352,0.74283 1.21675,1.23039c0.16616,0.07661 0.31736,0.17999 0.45425,0.30105c0.37219,-0.10721 0.75158,-0.18912 1.12235,-0.1099c0.67634,-0.00851 1.30191,-0.60469 1.96947,-0.4796c0.99724,0.18685 1.69543,1.24065 2.669,1.53832c0.07927,0.02424 0.15661,0.04318 0.23224,0.05737c0.30817,-0.13184 0.62292,-0.19085 0.93324,-0.09477c0.02414,0.00747 0.04811,0.01545 0.07195,0.02392c0.6676,-0.20589 1.27163,-0.65451 2.06639,-0.77287c1.45362,-0.21648 2.06052,0.39307 3.2504,0.80052c0.05577,-0.19484 0.13653,-0.34638 0.30836,-0.35655c0.1329,-0.00786 0.25604,-0.00817 0.37011,-0.00189c0.20756,-0.47012 0.33663,-1.19858 0.72049,-1.44037c0.64544,-0.40656 1.39643,-0.06054 2.02884,0.39592c0.19728,-0.32064 0.57749,-0.48766 0.95567,-0.38655c0.3017,0.08065 0.52953,0.31255 0.62618,0.5971l0.0011,-0.00473c0.11491,-0.49209 0.59312,-0.78807 1.06812,-0.66109c0.31877,0.08522 0.55509,0.33928 0.64131,0.64592l0.09586,0.32024c0.42735,-0.2293 0.23461,-1.35521 0.73994,-1.3884c0.21498,-0.01412 0.39944,-0.00485 0.55736,0.02393c0.00163,-0.00785 0.00336,-0.01571 0.00519,-0.02356c0.00986,-0.04224 0.0224,-0.08303 0.03739,-0.12223l0.25807,-0.70515l-0.75305,0.27015c-0.1605,0.0604 -0.34025,0.07273 -0.51955,0.0248c-0.08224,-0.02199 -0.15899,-0.05521 -0.2291,-0.09767c-0.08053,0.00219 -0.16286,-0.00711 -0.24511,-0.0291c-0.20954,-0.05602 -0.38344,-0.18498 -0.50252,-0.35387l-0.32748,0.20268c-0.19329,0.11964 -0.43158,0.16189 -0.66908,0.0984c-0.47499,-0.12698 -0.76691,-0.62884 -0.65199,-1.12092c0.01301,-0.05569 0.03066,-0.10886 0.05244,-0.1592l0.30749,-0.74613c-0.62512,0.12676 -1.32995,0.52486 -1.81336,0.16913c-0.34274,0.03672 -0.69335,0.00595 -1.01214,-0.10091c-0.18842,0.10763 -0.41604,0.14349 -0.64293,0.08283c-0.43168,-0.11541 -0.71215,-0.54045 -0.67345,-0.98639l0.00172,-0.02453c-0.08954,-0.22509 -0.18675,-0.43861 -0.38315,-0.49113c-0.47626,-0.12736 -0.90513,0.63299 -1.38072,0.50279c-0.32416,-0.08874 -0.51179,-0.43046 -0.68357,-0.79335c-0.29374,-0.14458 -0.4754,-0.28989 -0.57477,-0.43293l-0.64547,0.32015c-0.18042,0.09114 -0.39254,0.11844 -0.60403,0.06191c-0.384,-0.10266 -0.64835,-0.45033 -0.67482,-0.83976c-0.88532,-0.54465 -1.9665,-1.56799 -2.83427,-1.97937c-0.45876,0.19467 -0.90194,0.31956 -1.25543,0.04278c-0.19014,0.08519 -0.38108,0.15654 -0.57775,0.12628c-1.62504,-0.24993 -3.04342,-1.72576 -4.22125,-2.91429c-0.00315,-0.003 -0.0062,-0.00608 -0.00914,-0.00923c-0.07845,-0.07914 -0.15584,-0.157 -0.23214,-0.23311c-0.18167,0.0935 -0.39608,0.12203 -0.60985,0.06489c-0.19052,-0.05093 -0.3516,-0.16219 -0.46877,-0.30894c-0.04161,-0.00477 -0.08344,-0.01267 -0.12525,-0.02385c-0.475,-0.12698 -0.7669,-0.62884 -0.65199,-1.12093c0.01122,-0.04805 0.0259,-0.09422 0.0437,-0.13831l0.42011,-1.08943l0.03918,0.01686c0.00362,-0.04173 0.00725,-0.08346 0.01087,-0.12519l0.09874,-0.07229l-0.03536,-0.02807l0.72966,-1.00274c0.2036,-0.29363 0.56715,-0.44216 0.92884,-0.34547c0.47499,0.12698 0.7669,0.62883 0.65199,1.12092l-0.09852,0.42193c0.29855,0.1067 0.514,0.36569 0.58374,0.6693c0.07356,-0.1679 0.15983,-0.29401 0.28985,-0.25504c0.44934,0.13466 0.7542,0.53512 1.05672,0.93988l0.54665,-0.56852c0.21089,-0.2272 0.53112,-0.33249 0.84989,-0.24727c0.29568,0.07904 0.52041,0.30335 0.62023,0.58015c0.20976,-0.19403 0.50669,-0.27888 0.80237,-0.19984c0.32564,0.08706 0.56523,0.3503 0.64668,0.6658l0.35982,1.29809l-0.35385,0.10093c0.0314,0.21932 0.0377,0.43433 0.01012,0.63925l0.81032,-1.1728c0.20098,-0.30579 0.5721,-0.46258 0.94127,-0.36389c0.38689,0.10342 0.6523,0.45556 0.67537,0.84854l0.14746,1.81481l-0.00529,0.00038c0.00265,0.01401 0.00523,0.02803 0.00779,0.04207c0.00856,0.04703 -0.00044,0.11575 -0.01825,0.1896c0.00674,0.00342 0.01343,0.00681 0.02008,0.01019l0.51971,-0.5209c0.21092,-0.21855 0.52519,-0.31842 0.83806,-0.23478c0.37577,0.10046 0.63697,0.43555 0.67278,0.8148l0.07629,0.65135l0.37092,-0.45113c0.20828,-0.26451 0.5533,-0.39371 0.89664,-0.30192c0.38689,0.10342 0.65231,0.45556 0.67537,0.84853l0.06334,0.7795c0.15166,-0.23478 0.37949,-0.40688 0.59749,-0.63726l0.65402,-0.68017c0.21089,-0.22721 0.53112,-0.33249 0.84989,-0.24727c0.37577,0.10046 0.63696,0.43554 0.67278,0.81479l0.16578,1.41546l-0.13745,0.01526c0.01351,0.08065 0.02551,0.1614 0.03585,0.24221l1.36691,-1.40334c0.15239,0.45935 0.24452,0.85817 0.3015,1.19338l0.41694,-0.39361c0.2105,-0.20471 0.51508,-0.29605 0.81834,-0.21498c0.33598,0.08982 0.58035,0.36719 0.65395,0.69599c0.16415,-0.06522 0.34937,-0.07981 0.53411,-0.03043c0.41935,0.1121 0.696,0.5164 0.67598,0.94822c0.18624,-0.1028 0.40942,-0.13611 0.63191,-0.07664c0.12741,0.03406 0.24165,0.0951 0.33839,0.17568c0.18944,-0.11002 0.41923,-0.14713 0.64826,-0.0859c0.475,0.12698 0.7669,0.62883 0.65199,1.12092c-0.02471,0.10582 -0.06622,0.20257 -0.12089,0.288l-0.11073,0.18225l0.66499,-0.1487c0.13474,-0.03324 0.27949,-0.03373 0.42394,0.00488c0.18421,0.04924 0.3409,0.15488 0.45698,0.29445l0.69709,-0.95796c0.2036,-0.29363 0.56714,-0.44217 0.92883,-0.34548c0.47499,0.12698 0.7669,0.62883 0.65199,1.12092c-0.02471,0.10582 -0.06622,0.20257 -0.12089,0.28799l-0.8074,1.329l-0.05316,-0.03542c-0.09188,0.20141 -0.18542,0.40213 -0.28135,0.60156c0.07079,-0.02633 0.14529,-0.04332 0.2218,-0.04994l1.35876,-0.15095l0.0006,0.00514l0.01568,-0.00678c0.00563,0.00202 0.01127,0.00405 0.01691,0.00606l-0.0006,-0.0074l1.00431,-0.07249c0.09879,-0.00955 0.20108,-0.00181 0.30323,0.0255c0.44092,0.11787 0.72407,0.55876 0.67052,1.015c0.60643,0.13804 1.14959,0.31569 1.70915,0.58252l0.08099,-0.2391l1.53321,0.58281c0.43002,0.15736 0.68538,0.63162 0.57667,1.09714c-0.10444,0.44723 -0.50894,0.73248 -0.9384,0.68545l-0.97214,-0.08846l0.0023,-0.03296l-0.07487,0.02321c-0.86692,-0.22902 -1.63981,-0.41253 -2.36487,-0.63221l0.30195,0.86318c0.06174,0.16887 0.07691,0.3575 0.03319,0.54473c-0.03378,0.14468 -0.09896,0.2724 -0.18624,0.37741l0.01087,0.0928c0.01585,0.11327 0.01158,0.2312 -0.01583,0.34858c-0.11491,0.49209 -0.59312,0.78806 -1.06811,0.66108c-0.2375,-0.06349 -0.42923,-0.2207 -0.54721,-0.42354l-0.47931,-0.82405c-0.11465,-0.20074 -0.22303,-0.38285 -0.32674,-0.55275c-0.06628,0.24949 -0.22705,0.44583 -0.43224,0.55802l0.02044,0.11651c0.02552,0.12916 0.02477,0.26566 -0.00693,0.40141c-0.11491,0.49209 -0.59312,0.78806 -1.06811,0.66108c-0.30327,-0.08107 -0.5319,-0.31496 -0.62768,-0.60154l-0.05614,-0.16049c-0.10025,0.01027 -0.20417,0.00271 -0.30794,-0.02503c-0.14972,-0.04003 -0.28125,-0.11729 -0.38759,-0.21976c-0.16026,0.41624 -0.59642,0.65262 -1.02991,0.53673c-0.02988,-0.00799 -0.05903,-0.01745 -0.0874,-0.02831c-0.0194,0.26294 -0.1434,0.57662 -0.57843,0.7352c-0.83102,0.30293 -1.13497,-0.56597 -1.13497,-0.56597l-0.12567,-0.41125c0.1513,-1.61802 0.08401,0.51409 -0.71733,0.08549c-0.07942,-0.04247 -0.15444,-0.08387 -0.22527,-0.12423l-0.03753,0.09734c-0.15607,0.42438 -0.59683,0.66697 -1.03487,0.54987c-0.2375,-0.06349 -0.42923,-0.2207 -0.54721,-0.42354l-0.19786,-0.34018c-0.18616,0.25243 -0.40135,0.45598 -0.69156,0.5332c-0.09931,0.02643 -0.16712,-0.01109 -0.21532,-0.08839c-0.55309,0.43119 -1.01403,1.18841 -1.69624,1.16273c-0.53411,-0.0201 -0.70948,-0.85221 -0.97299,-1.33958c-0.01395,-0.02581 -0.01618,-0.06532 -0.01204,-0.10977c-0.02304,0.01085 -0.04624,0.02113 -0.06961,0.03082c-0.09408,0.36052 -0.11515,0.78399 -0.42163,0.89787c-0.34877,0.12961 -0.58303,-0.79952 -0.92816,-0.66007c-0.34241,0.13837 0.13049,1.01716 -0.22233,1.12498c-0.59654,0.1823 -1.28002,-0.16212 -1.81709,-0.50174c-0.2082,-0.13166 0.0279,-0.91067 -0.14878,-0.74142c-0.40353,0.38654 -0.15555,1.45359 -0.69853,1.55304c-0.75456,0.1382 -1.27733,-0.97747 -1.86486,-1.51368c-0.39864,0.02152 -0.70925,-0.01398 -0.96574,-0.08787c-0.41995,0.28485 -0.84041,0.81538 -1.30703,0.74049c-0.51213,-0.0822 -0.77612,-0.74691 -1.03906,-1.21399c-0.07655,-0.13599 0.2135,-0.55592 0.09852,-0.45671c-0.31671,0.27325 -0.33635,1.04077 -0.75072,1.01941c-0.15647,-0.00806 -0.24957,-0.12306 -0.31689,-0.2816c-0.26393,0.6198 -0.39326,1.42046 -0.98107,1.60507c-0.68855,0.21625 -1.85662,-1.27768 -2.0813,-1.93084c-0.02624,-0.07628 -0.02476,-0.18821 -0.01443,-0.30669c-0.0984,0.00231 -0.19538,-0.01024 -0.2903,-0.04465c-0.00536,-0.00195 -0.01069,-0.00393 -0.01601,-0.00597c-0.05387,0.3159 -0.07123,0.6626 -0.32527,0.72094c-0.23917,0.05493 -0.33898,-0.36196 -0.47505,-0.65163l-0.29465,0.61996c-0.17413,0.38662 -0.5934,0.60084 -1.01018,0.48942c-0.07784,-0.02081 -0.15076,-0.05167 -0.21778,-0.09092l-0.07831,0.21397c-0.1515,0.43292 -0.59706,0.68206 -1.03982,0.5637c-0.44276,-0.11837 -0.72644,-0.56246 -0.66983,-1.02074l0.06436,-0.58865c-0.21069,-0.14778 -0.3524,-0.38265 -0.38869,-0.642l-0.09703,-0.5981l-0.44804,-0.94434l0.26767,-1.14629c0.11491,-0.49209 0.59312,-0.78806 1.06812,-0.66108c0.13597,0.03635 0.25695,0.10342 0.35767,0.19219c0.18815,-0.19962 0.5338,-0.41822 1.02766,-0.14155c0.22202,0.12437 0.34824,0.27839 0.41511,0.43528zM305.95786,117.91462l0.01256,-0.05376c-0.00707,0.01084 -0.01418,0.02169 -0.02131,0.03253c0.003,0.00707 0.00592,0.01416 0.00875,0.02124zM300.02179,119.14172c0.04427,-0.05106 0.08018,-0.11062 0.11007,-0.1761c-0.05184,0.02803 -0.10386,0.05593 -0.15635,0.0833c-0.01005,0.10063 -0.00719,0.15446 0.04628,0.0928zM302.16242,118.66438c0.07844,0.07644 -0.03566,0.43554 0.00324,0.33285c0.04556,-0.12025 0.05692,-0.26832 0.0632,-0.41883c-0.07004,-0.02807 -0.14106,-0.05151 -0.21338,-0.06885c0.04918,0.05501 0.0981,0.10723 0.14694,0.15483z" fill="url(#color-13)" stroke="none" stroke-width="0.5"/><g><path d="M280.09607,113.83096l1.45764,-11.3382l4.6879,0.898l-1.45764,11.33819z" fill="url(#color-14)" stroke="none" stroke-width="0"/><path d="M285.79139,102.45765c0,0 6.1586,4.25172 12.78656,7.27377c6.62795,3.02205 17.43567,6.50621 17.43567,6.50621c0,0 -12.92945,1.06257 -18.29774,0.94599c-5.36829,-0.11658 -13.67927,-1.64042 -13.67927,-1.64042" fill="#5e1d89" stroke="#000000" stroke-width="2.5"/></g></g></g><path d="M216.57618,305.38284l-0.29061,5.23096" fill="none" stroke="#000000" stroke-width="2.5" stroke-linecap="round"/><path d="M226.88082,311.44617l0.02052,-5.23898" fill="none" stroke="#000000" stroke-width="2.5" stroke-linecap="round"/><path d="M253.34675,311.44615l-0.02052,-5.23898" data-paper-data="{&quot;index&quot;:null}" fill="none" stroke="#000000" stroke-width="2.5" stroke-linecap="round"/><path d="M262.95986,305.34802l0.51463,5.21368" data-paper-data="{&quot;index&quot;:null}" fill="none" stroke="#000000" stroke-width="2.5" stroke-linecap="round"/></g></g></svg>