<svg version="1.1" xmlns="http://www.w3.org/2000/svg" xmlns:xlink="http://www.w3.org/1999/xlink" width="186.8348" height="131.44778" viewBox="0,0,186.8348,131.44778"><defs><linearGradient x1="208.90421" y1="185.15487" x2="237.01354" y2="217.03143" gradientUnits="userSpaceOnUse" id="color-1"><stop offset="0" stop-color="#175f20"/><stop offset="1" stop-color="#249433"/></linearGradient><linearGradient x1="213.12568" y1="203.15487" x2="185.01635" y2="235.03143" gradientUnits="userSpaceOnUse" id="color-2"><stop offset="0" stop-color="#175f20"/><stop offset="1" stop-color="#249433"/></linearGradient><linearGradient x1="179.13774" y1="182.55997" x2="278.52541" y2="289.50898" gradientUnits="userSpaceOnUse" id="color-3"><stop offset="0" stop-color="#175f20"/><stop offset="1" stop-color="#249433"/></linearGradient><radialGradient cx="197.38825" cy="223.44304" r="23.17144" gradientUnits="userSpaceOnUse" id="color-4"><stop offset="0" stop-color="#30c735"/><stop offset="1" stop-color="#37e63d"/></radialGradient><radialGradient cx="133.93038" cy="239.69803" r="23.17144" gradientUnits="userSpaceOnUse" id="color-5"><stop offset="0" stop-color="#c7306a"/><stop offset="1" stop-color="#e6377a"/></radialGradient><radialGradient cx="173.42003" cy="263.29503" r="23.14748" gradientUnits="userSpaceOnUse" id="color-6"><stop offset="0" stop-color="#8430c7"/><stop offset="1" stop-color="#9837e6"/></radialGradient><radialGradient cx="156.85092" cy="200.97157" r="23.14748" gradientUnits="userSpaceOnUse" id="color-7"><stop offset="0" stop-color="#c78530"/><stop offset="1" stop-color="#e69437"/></radialGradient><radialGradient cx="193.83304" cy="247.41407" r="24.05317" gradientUnits="userSpaceOnUse" id="color-8"><stop offset="0" stop-color="#303cc7"/><stop offset="1" stop-color="#373ce6"/></radialGradient><radialGradient cx="136.19699" cy="215.55463" r="24.05317" gradientUnits="userSpaceOnUse" id="color-9"><stop offset="0" stop-color="#c73030"/><stop offset="1" stop-color="#e63737"/></radialGradient><radialGradient cx="182.22998" cy="204.76878" r="24.0522" gradientUnits="userSpaceOnUse" id="color-10"><stop offset="0" stop-color="#c6c730"/><stop offset="1" stop-color="#dae637"/></radialGradient><radialGradient cx="148.76523" cy="259.91999" r="24.05221" gradientUnits="userSpaceOnUse" id="color-11"><stop offset="0" stop-color="#c7309d"/><stop offset="1" stop-color="#e637b5"/></radialGradient><radialGradient cx="157.71054" cy="248.20097" r="8.625" gradientUnits="userSpaceOnUse" id="color-12"><stop offset="0" stop-color="#92868b"/><stop offset="1" stop-color="#92868b" stop-opacity="0"/></radialGradient><radialGradient cx="176.18157" cy="217.00889" r="8.625" gradientUnits="userSpaceOnUse" id="color-13"><stop offset="0" stop-color="#92868b"/><stop offset="1" stop-color="#92868b" stop-opacity="0"/></radialGradient></defs><g transform="translate(-99.43421,-166.57489)"><g data-paper-data="{&quot;isPaintingLayer&quot;:true}" fill-rule="nonzero" stroke-linejoin="miter" stroke-miterlimit="10" stroke-dasharray="" stroke-dashoffset="0" style="mix-blend-mode: normal"><path d="M208.90421,185.15487c6.10995,-5.38787 17.35553,-2.61979 25.11771,6.18268c7.76218,8.80247 9.93628,33.56927 9.93628,33.56927c0,0 -24.30019,-5.25561 -32.06237,-14.05808c-7.76218,-8.80247 -9.10157,-20.306 -2.99162,-25.69387z" data-paper-data="{&quot;index&quot;:null}" fill="url(#color-1)" stroke="#000000" stroke-width="2.5" stroke-linecap="butt"/><path d="M210.13406,228.84874c-7.76218,8.80247 -32.06237,14.05808 -32.06237,14.05808c0,0 2.1741,-24.76679 9.93628,-33.56926c7.76218,-8.80247 19.00776,-11.57055 25.11771,-6.18268c6.10995,5.38787 4.77056,16.8914 -2.99162,25.69387z" fill="url(#color-2)" stroke="#000000" stroke-width="2.5" stroke-linecap="butt"/><path d="M272.11579,295.46543c0,0 -6.97474,-51.57522 -22.60067,-68.38996c-17.32716,-18.6454 -66.87174,19.1184 -66.87174,19.1184l8.52018,-29.75998c0,0 53.56881,-17.27446 71.06722,1.55521c15.34806,16.51573 22.70425,65.56343 22.70425,65.56343z" fill="url(#color-3)" stroke="#000000" stroke-width="2.5" stroke-linecap="butt"/><g><g fill="none" stroke="#000000" stroke-width="5" stroke-linecap="butt"><path d="M194.23631,202.53923c2.10816,-1.20216 4.3592,-2.11539 6.67258,-2.66521c12.11821,-2.88012 24.27678,4.60885 27.15689,16.72707c2.88012,12.11821 -4.60884,24.27678 -16.72706,27.15689c-2.998,0.71253 -6.17708,0.83288 -9.3078,0.42695"/><path d="M135.69566,260.67906c-2.08853,1.1831 -4.31605,2.08265 -6.60456,2.62656c-12.11821,2.88012 -24.27677,-4.60886 -27.15689,-16.72707c-2.60808,-10.97362 3.28664,-21.98033 13.422,-26.10032"/><path d="M194.44582,258.89748c1.55963,2.31998 2.75945,4.85709 3.48221,7.49298c3.29381,12.01237 -3.77398,24.42049 -15.78637,27.71429c-12.01237,3.29381 -24.42049,-3.77398 -27.7143,-15.78636c-0.6693,-2.4409 -0.94353,-5.01759 -0.85482,-7.60175"/><path d="M133.20728,200.00534c-0.45473,-1.0495 -0.83595,-2.12435 -1.13532,-3.21615c-3.29381,-12.01237 3.77398,-24.42049 15.78636,-27.7143c12.01238,-3.29381 24.42049,3.77397 27.7143,15.78636c0.50562,1.84394 0.78576,3.76537 0.8543,5.70898"/><path d="M205.26684,230.50382c2.69364,0.56851 5.28304,1.53185 7.60897,2.88762c10.76109,6.27257 14.39976,20.08108 8.12718,30.84218c-6.27257,10.76109 -20.08109,14.39977 -30.84218,8.1272c-2.24223,-1.30698 -4.28775,-3.00673 -6.06446,-4.97617"/><path d="M115.34419,228.63714c-9.36575,-6.6947 -12.2602,-19.54691 -6.34722,-29.6911c6.27257,-10.76109 20.08108,-14.39977 30.84218,-8.1272c0.6351,0.3702 1.25443,0.77191 1.85633,1.20234"/><path d="M165.90042,187.84399c0.54513,-1.42529 1.21208,-2.79324 1.99981,-4.07602c6.51797,-10.61425 20.40637,-13.93496 31.02063,-7.41699c10.61425,6.51797 13.93496,20.40637 7.41699,31.02063c-1.06246,1.73017 -2.36247,3.33448 -3.84032,4.77975"/><path d="M164.99803,272.529c-0.63756,2.44168 -1.60521,4.77691 -2.89831,6.88267c-6.51797,10.61425 -20.40637,13.93496 -31.02063,7.41699c-10.61425,-6.51797 -13.93496,-20.40637 -7.417,-31.02062c0.95067,-1.54813 2.09153,-2.99547 3.3798,-4.31829"/></g><g stroke="none" stroke-width="0.5" stroke-linecap="butt"><path d="M211.33871,243.75799c-12.11822,2.88011 -27.19547,-3.91517 -30.07559,-16.0334c-2.88011,-12.11822 7.52754,-24.97046 19.64577,-27.85057c12.11822,-2.88011 24.27678,4.60885 27.15689,16.72707c2.88011,12.11822 -4.60884,24.27678 -16.72706,27.15689z" fill="url(#color-4)"/><path d="M129.09109,263.30563c-12.11822,2.88011 -24.27678,-4.60885 -27.15689,-16.72707c-2.88011,-12.11822 4.60884,-24.27678 16.72706,-27.15689c12.11822,-2.88011 27.19547,3.91517 30.07559,16.0334c2.88011,12.11822 -7.52754,24.97046 -19.64577,27.85057z" fill="url(#color-5)"/></g><g data-paper-data="{&quot;index&quot;:null}" stroke="none" stroke-width="0.5" stroke-linecap="butt"><path d="M182.14167,294.10477c-12.01237,3.29381 -24.42049,-3.77398 -27.7143,-15.78636c-3.29381,-12.01237 2.98066,-27.31369 14.99304,-30.6075c12.01237,-3.29381 25.21381,6.66719 28.50762,18.67956c3.29381,12.01237 -3.77398,24.42049 -15.78637,27.71429z" fill="url(#color-6)"/><path d="M160.57955,215.46875c-12.01237,3.29381 -25.21381,-6.66719 -28.50762,-18.67956c-3.29381,-12.01237 3.77398,-24.42049 15.78637,-27.71429c12.01237,-3.29381 24.42049,3.77398 27.7143,15.78636c3.29381,12.01237 -2.98066,27.31369 -14.99304,30.6075z" fill="url(#color-7)"/></g><g stroke="none" stroke-width="0.5" stroke-linecap="butt"><path d="M190.16081,272.3608c-10.76109,-6.27257 -16.99159,-21.59185 -10.71902,-32.35294c6.27257,-10.76109 22.67292,-12.889 33.43401,-6.61643c10.76109,6.27257 14.39976,20.08108 8.12719,30.84218c-6.27257,10.76109 -20.08108,14.39976 -30.84218,8.12719z" fill="url(#color-8)"/><path d="M117.12417,229.78822c-10.76109,-6.27257 -14.39976,-20.08108 -8.12719,-30.84218c6.27257,-10.76109 20.08108,-14.39976 30.84218,-8.12719c10.76109,6.27257 16.99159,21.59185 10.71902,32.35294c-6.27257,10.76109 -22.67292,12.889 -33.43401,6.61643z" fill="url(#color-9)"/></g><g stroke="none" stroke-width="0.5" stroke-linecap="butt"><path d="M206.33784,207.37162c-6.51797,10.61425 -21.97625,16.49142 -32.5905,9.97346c-10.61425,-6.51797 -12.36509,-22.96284 -5.84712,-33.57709c6.51797,-10.61425 20.40637,-13.93496 31.02063,-7.41698c10.61425,6.51797 13.93496,20.40637 7.41699,31.02063z" fill="url(#color-10)"/><path d="M162.09975,279.41169c-6.51797,10.61425 -20.40637,13.93496 -31.02063,7.41698c-10.61425,-6.51797 -13.93496,-20.40637 -7.41699,-31.02063c6.51797,-10.61425 21.97625,-16.49142 32.5905,-9.97346c10.61425,6.51797 12.36509,22.96284 5.84712,33.57709z" fill="url(#color-11)"/></g><path d="M149.76645,257.72413c-14.43358,-8.41324 -19.31403,-26.93425 -10.90079,-41.36783c8.41324,-14.43358 26.93425,-19.31403 41.36783,-10.90079c14.43358,8.41324 19.31403,26.93425 10.90079,41.36783c-8.41324,14.43358 -26.93425,19.31403 -41.36783,10.90079z" fill="#c7b8be" stroke="none" stroke-width="0.5" stroke-linecap="butt"/><path d="M147.8561,249.08697c-10.61644,-6.18825 -13.86799,-20.39135 -7.26256,-31.7235c6.60544,-11.33215 20.56652,-15.50211 31.18296,-9.31385c10.61644,6.18825 13.86799,20.39135 7.26256,31.7235c-6.60544,11.33215 -20.56652,15.50211 -31.18296,9.31385z" fill="#e0ced5" stroke="none" stroke-width="0.5" stroke-linecap="butt"/><path d="M151.38918,239.63428c-1.99126,-1.38398 -2.83676,-3.66613 -1.88847,-5.09736c0.94828,-1.43122 3.33126,-1.46952 5.32251,-0.08554c1.99126,1.38398 2.83676,3.66613 1.88847,5.09736c-0.94828,1.43122 -3.33126,1.46952 -5.32251,0.08554z" fill="#000000" stroke="none" stroke-width="0.5" stroke-linecap="butt"/><path d="M168.08759,220.53535c-0.79315,1.52268 -3.19934,1.88784 -5.37439,0.81563c-2.17505,-1.07222 -3.2953,-3.1758 -2.50216,-4.69847c0.79315,-1.52268 3.19934,-1.88784 5.37439,-0.81563c2.17505,1.07222 3.2953,3.1758 2.50216,4.69847z" data-paper-data="{&quot;index&quot;:null}" fill="#000000" stroke="none" stroke-width="0.5" stroke-linecap="butt"/><path d="M153.36709,255.65249c-4.11536,-2.39881 -5.50689,-7.67961 -3.10808,-11.79496c2.39881,-4.11536 7.67961,-5.50689 11.79496,-3.10808c4.11536,2.39881 5.50689,7.67961 3.10808,11.79496c-2.39881,4.11536 -7.67961,5.50689 -11.79496,3.10808z" fill="url(#color-12)" stroke="none" stroke-width="0.5" stroke-linecap="butt"/><path d="M171.83813,224.46041c-4.11536,-2.39881 -5.50689,-7.67961 -3.10808,-11.79496c2.39882,-4.11536 7.67961,-5.50689 11.79496,-3.10808c4.11536,2.39881 5.5069,7.6796 3.10808,11.79496c-2.39881,4.11536 -7.67961,5.50689 -11.79496,3.10808z" fill="url(#color-13)" stroke="none" stroke-width="0.5" stroke-linecap="butt"/><path d="M187.48711,195.15992c0,0 -14.71786,37.80246 -18.31226,43.96893c-3.5944,6.16647 -29.55207,21.26724 -29.55207,21.26724" fill="#000000" stroke="#000000" stroke-width="2.5" stroke-linecap="round"/></g></g></g></svg>