<svg version="1.1" xmlns="http://www.w3.org/2000/svg" xmlns:xlink="http://www.w3.org/1999/xlink" width="225.00371" height="309.37334" viewBox="0,0,225.00371,309.37334"><defs><radialGradient cx="354.29408" cy="120.88113" r="11.07706" gradientUnits="userSpaceOnUse" id="color-1"><stop offset="0" stop-color="#afafaf"/><stop offset="1" stop-color="#7d7d7d"/></radialGradient><linearGradient x1="219.09315" y1="99.31011" x2="219.09315" y2="115.60396" gradientUnits="userSpaceOnUse" id="color-2"><stop offset="0" stop-color="#323232"/><stop offset="1" stop-color="#1e1e1e"/></linearGradient><linearGradient x1="264.37123" y1="98.99677" x2="264.37123" y2="115.2906" gradientUnits="userSpaceOnUse" id="color-3"><stop offset="0" stop-color="#323232"/><stop offset="1" stop-color="#1e1e1e"/></linearGradient><linearGradient x1="241.70799" y1="121.48323" x2="241.70799" y2="133.98323" gradientUnits="userSpaceOnUse" id="color-4"><stop offset="0" stop-color="#121212"/><stop offset="1" stop-color="#121212" stop-opacity="0"/></linearGradient><radialGradient cx="165.4116" cy="225.19434" r="11.07706" gradientUnits="userSpaceOnUse" id="color-5"><stop offset="0" stop-color="#afafaf"/><stop offset="1" stop-color="#7d7d7d"/></radialGradient></defs><g transform="translate(-141.05503,-25.31333)"><g data-paper-data="{&quot;isPaintingLayer&quot;:true}" fill-rule="nonzero" stroke-linejoin="miter" stroke-miterlimit="10" stroke-dasharray="" stroke-dashoffset="0" style="mix-blend-mode: normal"><g data-paper-data="{&quot;index&quot;:null}"><g><path d="M269.32996,161.21274c0,0 15.46176,-3.70649 30.89684,-7.18257c13.01898,-2.93196 26.06416,-5.78491 29.34031,-5.2547c29.0884,4.70768 17.32626,72.83116 17.32626,72.83116c0,0 -6.25869,-7.3124 -11.95944,-8.00218c-5.70075,-0.68977 -15.49191,4.87837 -15.49191,4.87837c0,0 -6.27213,-9.25233 -11.92227,-10.70242c-5.65015,-1.45009 -16.29529,4.48016 -16.29529,4.48016c0,0 -18.36257,-12.73989 -22.00724,-16.15004c-3.62004,-3.38711 -12.77595,-6.87313 -12.77595,-6.87313z" fill="#2e2e2e" stroke="#000000" stroke-width="0" stroke-linecap="round"/><path d="M269.32996,161.21274c0,0 15.46176,-3.70649 30.89684,-7.18257c13.01898,-2.93196 26.06416,-5.78491 29.34031,-5.2547c29.0884,4.70768 17.32626,72.83116 17.32626,72.83116c0,0 -1.25522,-24.67462 -8.94895,-24.90772c-8.57072,-0.25967 -14.2986,15.91645 -16.62666,20.38051c0.00894,-0.04897 0.01828,-0.09612 0.02827,-0.14106c1.33508,-6.00779 3.95526,-24.556 -5.75646,-27.25239c-7.96193,-2.21057 -16.15625,12.89481 -19.81931,17.44588c-1.40625,1.74739 -3.06029,3.37091 -4.51784,5.11327c-0.0185,0.01019 -0.02796,0.01546 -0.02796,0.01546l-0.72967,-0.50774c0,0 12.18129,-24.34915 -1.04546,-26.86435c-12.36039,-2.35045 -13.36887,11.95209 -14.8646,15.47671c-2.41058,-1.79858 -4.40368,-3.35285 -5.36752,-4.25466c-3.62004,-3.38711 -12.77595,-6.87313 -12.77595,-6.87313z" fill="#232323" stroke="#000000" stroke-width="0" stroke-linecap="butt"/><path d="M338.57698,146.0234c0.37945,2.94202 0.85952,7.55225 0.85952,7.55225c0,0 0.61534,1.47731 1.18017,2.2292c2.78245,3.70389 5.26389,8.65834 6.3421,13.97566c4.36723,21.5375 -0.07429,52.18745 -0.07429,52.18745c0,0 0.32134,-27.22703 -3.60492,-47.29874c-2.09215,-10.6954 -6.29491,-17.24071 -10.5344,-19.12307c-5.05503,-2.24446 -22.5933,1.24685 -31.93146,3.79971c-6.36909,1.74118 -12.969,3.54455 -18.69218,4.87769c-9.66212,2.25066 -16.90567,3.52228 -16.90567,3.52228l4.11411,-6.53307c0,0 15.46176,-3.70649 30.89684,-7.18257c9.90414,-2.23048 20.39897,-5.15103 27.72084,-5.2137c1.01669,-0.0087 2.36838,0.04022 2.36838,0.04022c0,0 3.17109,-1.74187 4.69106,-3.84331c1.51996,-2.10144 5.36604,-4.644 5.36604,-4.644c0,0 -2.17559,2.712 -1.79614,5.65402z" fill="#121212" stroke="#000000" stroke-width="0" stroke-linecap="butt"/><path d="M330.73097,184.12917c-3.09969,10.94796 -10.71097,34.16591 -10.71097,34.16591c0,0 5.63406,-26.91197 7.83774,-38.48301c1.80119,-9.45768 3.85262,-26.78537 3.85262,-26.78537l6.18241,2.14249c0,0 -4.32772,18.95012 -7.1618,28.95998z" fill="#121212" stroke="none" stroke-width="0" stroke-linecap="butt"/><path d="M311.57012,181.66727c-6.02686,9.65105 -20.45571,30.45316 -20.45571,30.45316c0,0 13.55898,-24.90072 18.89888,-35.3998c4.36461,-8.58151 11.45954,-23.63368 11.45954,-23.63368l5.74842,-0.41066c0,0 -10.1407,20.1669 -15.65113,28.99098z" fill="#121212" stroke="none" stroke-width="0" stroke-linecap="butt"/><path d="M281.36195,158.36894c-0.03251,0.11498 -0.06194,0.23158 -0.0882,0.34969c-0.44045,1.98156 0.11282,3.95246 1.32866,5.39226c-0.16096,0.0379 -0.32126,0.07545 -0.48089,0.11263c-9.66212,2.25066 -16.90567,3.52228 -16.90567,3.52228l4.11411,-6.53307c0,0 4.94423,-1.18524 12.03198,-2.8438z" fill="#0a0a0a" stroke="#000000" stroke-width="0" stroke-linecap="butt"/><path d="M345.65232,192.16167c1.28111,-0.39817 2.41174,-1.20246 3.20695,-2.29522c0.26247,16.66261 -1.9748,32.1015 -1.9748,32.1015c0,0 0.16872,-14.29585 -1.23216,-29.80628z" fill="#0a0a0a" stroke="#000000" stroke-width="0" stroke-linecap="butt"/><path d="M325.85049,189.97759c0.44219,0.3655 0.97518,0.63467 1.57362,0.76769c0.45144,0.10035 0.90194,0.11473 1.33444,0.05403c-3.55379,11.67983 -8.73856,27.49578 -8.73856,27.49578c0,0 3.29463,-15.73732 5.83049,-28.31749z" fill="#0a0a0a" stroke="none" stroke-width="0" stroke-linecap="butt"/><path d="M304.75247,186.78497c0.51878,0.71862 1.29282,1.25715 2.22607,1.46459c0.10196,0.02266 0.20387,0.04094 0.30554,0.05496c-6.7929,10.29738 -16.16968,23.8159 -16.16968,23.8159c0,0 7.58085,-13.92204 13.63806,-25.33545z" fill="#0a0a0a" stroke="none" stroke-width="0" stroke-linecap="butt"/><path d="M269.32996,161.21274c0,0 15.46176,-3.70649 30.89684,-7.18257c13.01898,-2.93196 26.06416,-5.78491 29.34031,-5.2547c0.93519,0.15135 3.36328,-1.76037 4.77881,-3.67213c1.41553,-1.91177 5.80249,-5.29201 5.80249,-5.29201c0,0 -1.82031,3.36553 -1.34952,6.50945c0.47078,3.14392 0.26432,7.2904 0.91357,8.00035c15.81284,17.29153 7.18092,67.2855 7.18092,67.2855c0,0 -6.25869,-7.3124 -11.95944,-8.00218c-5.70075,-0.68977 -15.49191,4.87837 -15.49191,4.87837c0,0 -6.27213,-9.25233 -11.92227,-10.70242c-5.65015,-1.45009 -16.29529,4.48016 -16.29529,4.48016c0,0 -18.36257,-12.73989 -22.00724,-16.15004c-3.62004,-3.38711 -12.77595,-6.87313 -12.77595,-6.87313z" fill="none" stroke="#000000" stroke-width="2.5" stroke-linecap="round"/></g><g stroke-linecap="butt"><path d="M348.39119,135.11102c-5.68593,-2.25749 -8.46524,-8.69691 -6.20775,-14.38284c2.25749,-5.68594 8.69691,-8.46524 14.38284,-6.20775c5.68593,2.25749 8.46524,8.69691 6.20775,14.38285c-2.25749,5.68594 -8.69691,8.46524 -14.38284,6.20775z" fill="none" stroke="#000000" stroke-width="5"/><path d="M318.69426,201.09332l28.89646,-72.78145l6.38729,2.53595l-28.89646,72.78145z" fill="none" stroke="#000000" stroke-width="5"/><path d="M318.69426,201.09332l28.89646,-72.78145l6.38729,2.53595l-28.89646,72.78145z" fill="#373737" stroke="none" stroke-width="0"/><path d="M320.23506,201.70506l25.89336,-65.21756c0,0 1.03215,0.60438 1.63455,0.84355c0.6024,0.23917 1.60112,0.44111 1.60112,0.44111l-25.89337,65.21756z" fill="#4a4a4a" stroke="none" stroke-width="0"/><path d="M348.39119,135.11102c-5.68593,-2.25749 -8.46524,-8.69691 -6.20775,-14.38284c2.25749,-5.68594 8.69691,-8.46524 14.38284,-6.20775c5.68593,2.25749 8.46524,8.69691 6.20775,14.38285c-2.25749,5.68594 -8.69691,8.46524 -14.38284,6.20775z" fill="url(#color-1)" stroke="none" stroke-width="0.5"/><path d="M356.12368,115.57548c3.19555,1.26873 4.92676,4.46155 3.86676,7.13135c-1.05999,2.6698 -4.50979,3.8056 -7.70534,2.53687c-3.19555,-1.26873 -4.92676,-4.46155 -3.86676,-7.13135c1.05999,-2.6698 4.50979,-3.8056 7.70534,-2.53687z" fill="#b4b4b4" stroke="none" stroke-width="0"/></g><path d="M337.58406,154.62731c-1.17999,-0.99142 -2.47227,-3.45243 -2.47227,-3.45243l2.47687,-7.20174c0,0 0.54496,4.57108 1.30021,6.77355c0.73467,2.14244 3.17125,6.26615 3.17125,6.26615c0,0 -3.34174,-1.43249 -4.47605,-2.38554z" fill="#121212" stroke="none" stroke-width="0" stroke-linecap="butt"/><path d="M338.922,141.1398c0,0 -0.80377,4.36465 -0.3237,6.79295c0.55505,2.80749 3.46182,9.08009 3.46182,9.08009c0,0 -3.34174,-1.43249 -4.47605,-2.38554c-1.17999,-0.99142 -2.47227,-3.45243 -2.47227,-3.45243" fill="none" stroke="#000000" stroke-width="2.5" stroke-linecap="butt"/></g><g stroke="#000000" stroke-linecap="butt"><path d="M306.16781,26.57007c4.31806,0.28504 11.72805,28.92692 5.74766,44.90219c-0.16348,0.43672 -0.33784,0.87131 -0.52259,1.30344c-1.47938,0.07543 -2.94738,0.25838 -4.41578,0.68764c-1.12462,0.04049 -4.77875,-0.08163 -5.55398,0.83694c-0.7201,0.85325 0.59435,4.13688 0.7787,5.12043c0.31595,1.68456 0.79666,3.30702 1.33583,4.91276c-8.69013,8.98902 -21.05504,14.16678 -28.89481,9.73551c-11.12023,-6.28548 -13.78667,-23.48342 -6.1383,-38.51589c7.64501,-15.02586 32.1714,-29.34552 37.66326,-28.983z" fill="#232323" stroke-width="0"/><path d="M268.5919,55.38283c3.9896,12.69376 17.44561,23.20494 30.88421,23.00247c0.67451,-0.01016 1.48592,-0.08407 2.37649,-0.22138c0.15853,0.52939 0.29782,0.98251 0.34923,1.25678c0.31595,1.68455 0.79666,3.30702 1.33583,4.91275c-8.69013,8.98902 -21.05505,14.16679 -28.89481,9.73552c-11.12023,-6.28548 -13.78667,-23.48342 -6.1383,-38.51589c0.02888,-0.05675 0.05799,-0.1135 0.08735,-0.17024z" fill="#121212" stroke-width="0"/><path d="M305.5273,32.86173c3.37063,0.00984 8.56016,23.47103 3.5462,37.08964c-0.41537,1.12819 -0.90841,2.24544 -1.46826,3.34296c-0.20939,0.0516 -0.41876,0.10779 -0.62814,0.169c-1.12462,0.04049 -4.77875,-0.08163 -5.55398,0.83694c-0.7201,0.85325 0.59435,4.13688 0.7787,5.12043c0.08799,0.46913 0.18876,0.93345 0.30001,1.39393c-7.00046,8.11118 -16.9424,13.23482 -23.05211,9.91829c-8.56306,-4.6483 -10.28495,-18.82946 -3.98657,-31.75084c6.29561,-12.9157 25.77726,-26.13285 30.06414,-26.12035z" fill="#0a0a0a" stroke-width="0"/><path d="M303.53766,84.33345c-8.69013,8.98902 -21.05504,14.16678 -28.89481,9.73551c-11.12023,-6.28548 -13.78667,-23.48342 -6.1383,-38.51589c7.64501,-15.02585 32.1714,-29.34552 37.66326,-28.983c4.31806,0.28504 11.72805,28.92692 5.74766,44.90219c-0.16348,0.43672 -0.33784,0.87131 -0.52259,1.30344l-10.45607,1.20754z" fill="none" stroke-width="2.5"/><path d="M309.65568,68.17368c-0.19883,-0.40149 -0.42321,-0.79372 -0.67224,-1.17399c-2.73243,-5.70019 -6.78143,-10.42418 -11.63063,-13.33781c-4.92845,-2.96125 -10.68347,-4.05246 -16.72295,-2.3979c8.34951,-9.97826 21.47259,-18.41225 24.89743,-18.40226c3.22811,0.00942 8.12458,21.52904 4.12838,35.31196z" fill="#060606" stroke-width="0"/></g><g stroke="#000000" stroke-linecap="butt"><path d="M213.80237,56.05307c7.64837,15.03248 4.98193,32.23042 -6.1383,38.5159c-11.12023,6.28548 -31.34489,-6.76207 -37.27263,-22.59671c-5.98039,-15.97527 1.4296,-44.61714 5.74766,-44.90218c5.49186,-0.36252 30.01826,13.95714 37.66326,28.983z" fill="#232323" stroke-width="0"/><path d="M213.80237,56.05307c7.64837,15.03248 4.98193,32.23042 -6.1383,38.5159c-10.18009,5.75409 -27.99027,-4.69412 -35.47677,-18.65038c3.36462,1.93166 8.03101,2.92735 10.64351,2.96671c13.43859,0.20248 26.89461,-10.30871 30.88421,-23.00246c0.02936,0.05674 0.05847,0.11348 0.08735,0.17024z" fill="#121212" stroke-width="0"/><path d="M206.84376,59.48208c6.29838,12.92139 4.5765,27.10255 -3.98657,31.75084c-8.56306,4.6483 -24.65395,-7.28283 -29.62377,-20.78155c-5.01396,-13.61861 0.17558,-37.0798 3.5462,-37.08964c4.28688,-0.0125 23.76853,13.20465 30.06414,26.12035z" fill="#0a0a0a" stroke-width="0"/><path d="M213.80237,56.05307c7.64837,15.03248 4.98193,32.23042 -6.1383,38.5159c-11.12023,6.28548 -31.34489,-6.76207 -37.27263,-22.59671c-5.98039,-15.97527 1.4296,-44.61714 5.74766,-44.90218c5.49186,-0.36252 30.01826,13.95715 37.66326,28.983z" fill="none" stroke-width="2.5"/><path d="M176.77962,33.36173c3.42485,-0.00999 16.54792,8.42401 24.89744,18.40226c-6.03948,-1.65456 -11.7945,-0.56336 -16.72295,2.3979c-4.8492,2.91362 -8.89819,7.63761 -11.63062,13.33781c-0.24903,0.38027 -0.47341,0.7725 -0.67224,1.17399c-3.99621,-13.78292 0.90027,-35.30254 4.12838,-35.31196z" fill="#060606" stroke-width="0"/></g><g data-paper-data="{&quot;index&quot;:null}" stroke="#000000" stroke-linecap="butt"><path d="M258.63886,320.72003c-7.12077,0.54381 -14.45542,0.32247 -15.70054,-0.75193c-1.52555,-1.31639 0,-96.43664 0,-96.43664h27.63161c0,0 0.92525,22.97176 1.30086,36.57334c0.26592,9.62908 1.49219,32.69525 2.00297,45.62665c0.39952,10.11458 0.2484,11.47332 -0.39524,12.26185c-0.70542,0.86421 -7.82717,2.19121 -14.83966,2.72674z" fill="#232323" stroke-width="0"/><path d="M271.08066,236.74929c0.05147,1.37707 0.15805,4.27943 0.15805,4.27943c0,0 -7.77388,6.44541 -13.31281,9.52178c-5.53894,3.07638 -15.2567,4.46595 -15.2567,4.46595l0.2691,-31.485h27.63161c0,0 0.23196,5.75929 0.51076,13.21785z" fill="#121212" stroke-width="0"/><path d="M258.63886,320.72003c-7.12077,0.54381 -14.45542,0.32247 -15.70054,-0.75193c-0.44485,-0.38386 -0.66972,-27.28933 -0.66972,-27.28933c0,0 7.80055,10.09692 16.95264,7.89571c9.93315,-2.38905 13.60314,-20.71832 13.60314,-20.71832c0,0 0.86879,21.30325 1.04939,25.87529c0.39952,10.11458 0.2484,11.47332 -0.39524,12.26185c-0.70542,0.86421 -7.82717,2.19121 -14.83966,2.72674z" fill="#121212" stroke-width="0"/><path d="M258.63886,320.72003c-7.12077,0.54381 -14.45542,0.32247 -15.70054,-0.75193c-1.52555,-1.31639 0,-96.43664 0,-96.43664h27.63161c0,0 0.92525,22.97176 1.30086,36.57334c0.26592,9.62908 1.49219,32.69525 2.00297,45.62665c0.39952,10.11458 0.2484,11.47332 -0.39524,12.26185c-0.70542,0.86421 -7.82717,2.19121 -14.83966,2.72674z" fill="none" stroke-width="2.5"/></g><g stroke="#000000" stroke-linecap="butt"><path d="M209.34808,317.67994c-0.64364,-0.78852 -0.79476,-2.14726 -0.39524,-12.26184c0.51078,-12.9314 1.73706,-35.99757 2.00298,-45.62665c0.37562,-13.60158 1.30086,-36.57334 1.30086,-36.57334h27.63161c0,0 1.52555,95.12026 0,96.43665c-1.24511,1.07441 -8.57977,1.29573 -15.70054,0.75192c-7.01249,-0.53553 -14.13425,-1.86253 -14.83966,-2.72674z" fill="#232323" stroke-width="0"/><path d="M212.25668,223.2181h27.63161l0.2691,31.485c0,0 -9.71777,-1.38957 -15.2567,-4.46595c-5.53894,-3.07638 -13.31282,-9.52178 -13.31282,-9.52178c0,0 0.10657,-2.90235 0.15805,-4.27943c0.2788,-7.45856 0.51076,-13.21785 0.51076,-13.21785z" fill="#121212" stroke-width="0"/><path d="M209.34808,317.67994c-0.64364,-0.78852 -0.79476,-2.14726 -0.39524,-12.26184c0.1806,-4.57204 1.04937,-25.87529 1.04937,-25.87529c0,0 3.66999,18.32927 13.60314,20.71832c9.15208,2.2012 16.95264,-7.89571 16.95264,-7.89571c0,0 -0.22487,26.90548 -0.66972,27.28934c-1.24511,1.07441 -8.57977,1.29574 -15.70054,0.75193c-7.01249,-0.53553 -14.13425,-1.86253 -14.83966,-2.72674z" fill="#121212" stroke-width="0"/><path d="M209.34808,317.67994c-0.64364,-0.78852 -0.79476,-2.14726 -0.39524,-12.26184c0.51078,-12.9314 1.73706,-35.99757 2.00298,-45.62665c0.37562,-13.60158 1.30086,-36.57334 1.30086,-36.57334h27.63161c0,0 1.52555,95.12026 0,96.43665c-1.24511,1.07441 -8.57977,1.29573 -15.70054,0.75192c-7.01249,-0.53553 -14.13425,-1.86253 -14.83966,-2.72674z" fill="none" stroke-width="2.5"/></g><g stroke="#000000" stroke-linecap="butt"><path d="M278.32193,198.71423c0,28.94338 -16.75076,49.11653 -37.41387,49.11653c-20.66311,0 -36.49686,-19.23312 -37.41387,-48.1765c-0.91651,-28.92812 16.75076,-56.63677 37.41387,-56.63677c20.66311,0 37.41387,26.75336 37.41387,55.69674z" fill="#121212" stroke-width="0"/><path d="M272.36143,190.47211c0,24.66028 -13.97149,41.84817 -31.20618,41.84817c-17.23469,0 -30.44133,-16.38697 -31.20619,-41.04725c-0.21879,-7.05428 3.76498,-20.37838 3.76498,-20.37838c0,0 16.28192,6.59069 27.44119,6.43391c11.15928,-0.15678 27.05968,-7.22537 27.05968,-7.22537c0,0 4.14651,13.25672 4.14651,20.36892z" fill="#232323" stroke-width="0"/><path d="M278.32193,198.71423c0,28.94338 -16.75076,49.11653 -37.41387,49.11653c-20.66311,0 -36.49686,-19.23312 -37.41387,-48.1765c-0.91651,-28.92812 16.75076,-56.63677 37.41387,-56.63677c20.66311,0 37.41387,26.75336 37.41387,55.69674z" fill="none" stroke-width="2.5"/></g><g stroke-linecap="butt"><g stroke="#000000"><path d="M298.63609,111.40573c0,31.40942 -25.56758,56.87178 -57.10679,56.87178c-31.53921,0 -57.10678,-25.46236 -57.10678,-56.87178c0,-31.40942 25.56758,-56.87177 57.10679,-56.87177c31.53921,0 57.10679,25.46236 57.10679,56.87178z" fill="#121212" stroke-width="0"/><path d="M293.46594,105.53054c0,27.38589 -23.3489,49.58655 -52.15125,49.58655c-28.80233,0 -52.15124,-22.20066 -52.15124,-49.58655c0,-27.3859 23.3489,-49.58655 52.15124,-49.58655c28.80233,0 52.15125,22.20065 52.15125,49.58655z" fill="#232323" stroke-width="0"/><path d="M298.63609,111.40573c0,31.40942 -25.56758,56.87178 -57.10679,56.87178c-31.53921,0 -57.10678,-25.46236 -57.10678,-56.87178c0,-31.40942 25.56758,-56.87177 57.10679,-56.87177c31.53921,0 57.10679,25.46236 57.10679,56.87178z" fill="none" stroke-width="2.5"/></g><path d="M214.88953,126.48069c2.73739,5.86582 1.06945,12.87733 -3.72544,15.66065c-4.79489,2.78332 -10.90101,0.28448 -13.63841,-5.58134c-2.73739,-5.86582 -1.06946,-12.87733 3.72543,-15.66065c4.79489,-2.78332 10.90102,-0.28448 13.63842,5.58134z" fill="#060606" stroke="none" stroke-width="0"/><path d="M282.84131,121.36936c4.79489,2.78332 6.46283,9.79485 3.72543,15.66066c-2.73739,5.86582 -8.84351,8.36466 -13.6384,5.58134c-4.79489,-2.78332 -6.46283,-9.79484 -3.72543,-15.66065c2.73739,-5.86582 8.84351,-8.36467 13.6384,-5.58134z" data-paper-data="{&quot;index&quot;:null}" fill="#060606" stroke="none" stroke-width="0"/></g><path d="M234.39502,111.27217c-2.39429,11.08591 -12.25227,18.36292 -22.01844,16.25366c-9.76615,-2.10925 -15.74223,-12.80605 -13.34795,-23.89195c2.39429,-11.0859 12.25227,-18.36292 22.01844,-16.25366c9.76615,2.10926 15.74223,12.80605 13.34795,23.89195z" fill="#ffffff" stroke="#000000" stroke-width="2.5" stroke-linecap="butt"/><g stroke="none" stroke-linecap="butt"><g><path d="M210.94623,107.45703c0,-4.49942 3.6475,-8.14693 8.14692,-8.14693c4.49942,0 8.14693,3.64751 8.14693,8.14693c0,4.49942 -3.64751,8.14692 -8.14693,8.14692c-4.49942,0 -8.14692,-3.6475 -8.14692,-8.14692z" fill="url(#color-2)" stroke-width="0.5"/><path d="M220.40035,115.46607l-0.76008,-3.95233l1.8663,-0.62826l2.06359,3.34009c0,0 -0.84777,0.63232 -1.53736,0.84304c-0.67499,0.20626 -1.63244,0.39748 -1.63244,0.39748z" fill="#121212" stroke-width="0"/><path d="M224.68235,113.36372l-2.59819,-2.93979l1.01418,-0.95403l2.92407,2.18928c0,0 -0.34263,0.59353 -0.61266,0.937c-0.27003,0.34347 -0.72741,0.76753 -0.72741,0.76753z" fill="#121212" stroke-width="0"/></g><path d="M214.36793,107.45703c0,-2.60967 2.11555,-4.72522 4.72522,-4.72522c2.60967,0 4.72522,2.11555 4.72522,4.72522c0,2.60967 -2.11555,4.72521 -4.72522,4.72521c-2.60967,0 -4.72522,-2.11554 -4.72522,-4.72521z" fill="#000000" stroke-width="0.5"/><path d="M218.07486,105.80461c-1.20529,1.17977 -3.01243,1.28813 -4.03639,0.24203c-1.02396,-1.04609 -0.87694,-2.85051 0.32834,-4.03028c1.20529,-1.17977 3.01244,-1.28813 4.03639,-0.24203c1.02396,1.04609 0.87694,2.85051 -0.32835,4.03028z" fill="#ffffff" stroke-width="0"/><path d="M214.5795,107.07645c0.24212,0.32627 0.21661,0.73883 -0.05696,0.92146c-0.27357,0.18263 -0.69161,0.06617 -0.93373,-0.2601c-0.24212,-0.32627 -0.21661,-0.73882 0.05696,-0.92145c0.27357,-0.18263 0.69161,-0.06618 0.93373,0.2601z" fill="#ffffff" stroke-width="0"/></g><path d="M262.43314,87.22354c9.76617,-2.10926 19.62415,5.16776 22.01844,16.25366c2.39429,11.0859 -3.58179,21.7827 -13.34795,23.89195c-9.76617,2.10925 -19.62415,-5.16776 -22.01844,-16.25366c-2.39428,-11.0859 3.58179,-21.7827 13.34795,-23.89195z" data-paper-data="{&quot;index&quot;:null}" fill="#ffffff" stroke="#000000" stroke-width="2.5" stroke-linecap="butt"/><g stroke="none" stroke-linecap="butt"><g><path d="M256.22431,107.14369c0,-4.49942 3.64751,-8.14692 8.14693,-8.14692c4.49942,0 8.14692,3.6475 8.14692,8.14692c0,4.49942 -3.6475,8.14691 -8.14692,8.14691c-4.49942,0 -8.14693,-3.6475 -8.14693,-8.14691z" fill="url(#color-3)" stroke-width="0.5"/><path d="M265.67843,115.15272l-0.76009,-3.95235l1.86631,-0.62826l2.06359,3.34009c0,0 -0.84778,0.63232 -1.53737,0.84304c-0.67499,0.20626 -1.63245,0.39748 -1.63245,0.39748z" fill="#121212" stroke-width="0"/><path d="M269.96041,113.05038l-2.59819,-2.93979l1.01418,-0.95401l2.92406,2.18928c0,0 -0.34262,0.59352 -0.61266,0.93699c-0.27004,0.34347 -0.7274,0.76753 -0.7274,0.76753z" fill="#121212" stroke-width="0"/></g><path d="M259.64602,107.14369c0,-2.60967 2.11556,-4.72522 4.72522,-4.72522c2.60967,0 4.7252,2.11555 4.7252,4.72522c0,2.60967 -2.11555,4.72521 -4.7252,4.72521c-2.60967,0 -4.72522,-2.11554 -4.72522,-4.72521z" fill="#000000" stroke-width="0.5"/><path d="M263.35295,105.49127c-1.20529,1.17977 -3.01243,1.28813 -4.03638,0.24203c-1.02396,-1.0461 -0.87694,-2.85052 0.32834,-4.03028c1.20529,-1.17977 3.01244,-1.28813 4.03638,-0.24203c1.02395,1.0461 0.87694,2.85052 -0.32835,4.03028z" fill="#ffffff" stroke-width="0"/><path d="M259.85757,106.76311c0.24212,0.32627 0.2166,0.73882 -0.05697,0.92145c-0.27357,0.18263 -0.69162,0.06618 -0.93372,-0.2601c-0.2421,-0.32627 -0.2166,-0.73882 0.05696,-0.92145c0.27357,-0.18263 0.69162,-0.06618 0.93372,0.2601z" fill="#ffffff" stroke-width="0"/></g><path d="M222.83147,74.10882c0.27622,0.85389 -1.10016,1.85653 -3.07423,2.23944c-1.97407,0.38291 -6.32138,0.49052 -6.5976,-0.36337c-0.27622,-0.85389 3.62326,-2.34594 5.59733,-2.72885c1.97407,-0.38291 3.79829,-0.00111 4.07451,0.85278z" fill="#000000" stroke="none" stroke-width="0" stroke-linecap="butt"/><path d="M263.94359,72.9427c1.97407,0.38292 5.87354,1.87495 5.59732,2.72885c-0.27622,0.85389 -4.62354,0.74629 -6.5976,0.36338c-1.97407,-0.38292 -3.35046,-1.38555 -3.07423,-2.23944c0.27622,-0.85389 2.10045,-1.2357 4.07452,-0.85278z" data-paper-data="{&quot;index&quot;:null}" fill="#000000" stroke="none" stroke-width="0" stroke-linecap="butt"/><path d="" fill="#121212" stroke="#000000" stroke-width="0" stroke-linecap="butt"/><path d="M234.79239,146.55176l-2.98259,-6.66527l5.82077,0.66033z" fill="#ffffff" stroke="#000000" stroke-width="2.5" stroke-linecap="butt"/><path d="M245.80979,140.79683l5.82077,-0.66033l-2.9826,6.66527z" data-paper-data="{&quot;index&quot;:null}" fill="#ffffff" stroke="#000000" stroke-width="2.5" stroke-linecap="butt"/><path d="M253.26371,139.42468c0,0 -2.30124,0.58142 -5.11786,1.07464c-2.07466,0.36329 -6.59914,-0.32126 -6.59914,-0.32126c0,0 -4.04077,0.6809 -6.11163,0.31496c-2.78342,-0.49186 -5.04541,-1.06834 -5.04541,-1.06834" fill="none" stroke="#000000" stroke-width="2.5" stroke-linecap="round"/><path d="M252.17326,126.84037c1.04579,2.74481 -5.19615,7.14285 -10.25461,7.14285c-5.05846,0 -11.5322,-4.31035 -10.72279,-7.14285c0.84546,-2.95866 5.66433,-5.35715 10.72279,-5.35715c5.05846,0 9.12733,2.39848 10.25461,5.35715z" fill="url(#color-4)" stroke="none" stroke-width="0" stroke-linecap="butt"/><path d="M252.17326,125.98323c1.04579,2.30564 -5.19615,6 -10.25461,6c-5.05846,0 -11.5322,-3.6207 -10.72279,-6c0.84546,-2.48528 5.66433,-4.5 10.72279,-4.5c5.05846,0 9.12733,2.01472 10.25461,4.5z" fill="#3a3a3a" stroke="none" stroke-width="0" stroke-linecap="butt"/><path d="M252.17326,125.98323c1.04579,2.30564 -5.19615,6 -10.25461,6c-5.05846,0 -11.5322,-3.6207 -10.72279,-6c0.07363,-0.21644 0.17741,-0.42932 0.30885,-0.63761c2.74641,2.12384 6.19168,3.38761 9.93211,3.38761c3.86996,0 7.42395,-1.3528 10.21488,-3.61131c0.21302,0.27878 0.38795,0.56674 0.52157,0.86131z" fill="#2e2e2e" stroke="none" stroke-width="0" stroke-linecap="butt"/><path d="M237.85028,126.06084c0.56439,0.72297 1.36903,2.53325 0.9026,2.89738c-0.46643,0.36413 -2.02732,-0.85579 -2.59171,-1.57877c-0.56439,-0.72297 -0.6438,-1.60424 -0.17737,-1.96837c0.46643,-0.36413 1.30209,-0.07322 1.86648,0.64975z" fill="#000000" stroke="none" stroke-width="0" stroke-linecap="butt"/><path d="M247.58871,125.41109c0.46643,0.36413 0.38703,1.2454 -0.17737,1.96837c-0.56439,0.72297 -2.12528,1.94289 -2.59171,1.57877c-0.46643,-0.36413 0.33821,-2.17441 0.9026,-2.89738c0.56439,-0.72297 1.40005,-1.01388 1.86648,-0.64975z" data-paper-data="{&quot;index&quot;:null}" fill="#000000" stroke="none" stroke-width="0" stroke-linecap="butt"/><path d="" fill="#0a0a0a" stroke="none" stroke-width="0" stroke-linecap="butt"/><path d="" fill="#0a0a0a" stroke="none" stroke-width="0" stroke-linecap="butt"/><path d="M217.33822,318.47818l0.66667,-6.66667" fill="none" stroke="#000000" stroke-width="2.5" stroke-linecap="round"/><path d="M228.33823,313.14484v6.33333" fill="none" stroke="#000000" stroke-width="2.5" stroke-linecap="round"/><path d="M254.00489,313.14484l0.33333,6.66666" fill="none" stroke="#000000" stroke-width="2.5" stroke-linecap="round"/><path d="M264.67155,312.14484l0.66666,7" fill="none" stroke="#000000" stroke-width="2.5" stroke-linecap="round"/><g stroke-linecap="butt"><path d="M182.00489,328.76602l0.33333,-102.88277l24.33334,-37.77991l14.87727,47.09604l-6.87727,93.90397z" fill="#8e8e8e" stroke="none" stroke-width="0"/><path d="M197.93528,218.69857l23.61355,16.5008l-6.87727,93.90397l-26.33736,-0.27541z" fill="#7e7e7e" stroke="none" stroke-width="0"/><path d="M206.67157,188.10334l-8.62533,30.44485l-15.70801,7.33506z" fill="#a7a7a7" stroke="none" stroke-width="0"/><path d="M182.00489,328.76602l0.33333,-102.88277l24.33334,-37.77991l14.87727,47.09604l-6.87727,93.90397z" fill="none" stroke="#000000" stroke-width="2.5"/></g><g stroke-linecap="butt"><path d="M151.29867,322.52878l-8.94873,-79.08195l17.69497,-25.51203l14.99345,27.18903l3.25896,77.1786z" fill="#777777" stroke="none" stroke-width="0"/><path d="M142.34993,243.44682l17.69497,-25.51203l6.6827,43.00648z" fill="#939393" stroke="none" stroke-width="0"/><path d="M166.89258,260.80054l8.14242,-15.9554l3.25896,77.1786l-13.66598,0.11457z" fill="#696969" stroke="none" stroke-width="0"/><path d="M151.29867,322.52878l-8.94873,-79.08195l17.69497,-25.51203l14.99345,27.18903l3.25896,77.1786z" fill="none" stroke="#000000" stroke-width="2.5"/></g><g stroke-linecap="butt"><path d="M272.89378,327.10334l-2.22222,-88.6658l19.55555,-33.11197l13.77778,49.20806l-4.88889,72.56971z" fill="#8e8e8e" stroke="none" stroke-width="0"/><path d="M304.00489,254.53363l-4.88889,72.56971h-15.44444l13.16429,-68.98054z" fill="#7e7e7e" stroke="none" stroke-width="0"/><path d="M270.67155,238.43754l19.55555,-33.11197l6.58059,52.79779z" fill="#a7a7a7" stroke="none" stroke-width="0"/><path d="M272.89378,327.10334l-2.22222,-88.6658l19.55555,-33.11197l13.77778,49.20806l-4.88889,72.56971z" fill="none" stroke="#000000" stroke-width="2.5"/></g><g stroke-linecap="butt"><path d="M305.68981,325.87089l0.05573,-108.28984l8.2466,-33.183l15.7893,26.13976l-9.37836,115.43665z" fill="#777777" stroke="none" stroke-width="0"/><path d="M305.74555,217.58105l8.2466,-33.183l10.09091,26.7176z" fill="#939393" stroke="none" stroke-width="0"/><path d="M318.01069,326.42512l6.11995,-115.21105l5.6508,-0.67627l-9.37836,115.43665z" fill="#696969" stroke="none" stroke-width="0"/><path d="M305.7048,325.53789l0.05573,-108.28984l8.2466,-33.183l15.7893,26.13976l-9.37836,115.43665z" fill="none" stroke="#000000" stroke-width="2.5"/></g><g stroke-linecap="butt"><g stroke="none" stroke-width="0"><path d="M229.00489,333.43667l-5.66666,-105.73913l20.33333,-38.26087l21.33333,51.82609v92.17391z" fill="#acacac"/><path d="M223.33823,227.69754l20.33333,-38.26087l1.66667,56.69565z" fill="#cecece"/><path d="M245.33822,246.13233l19.66667,-4.86957v92.17391h-18.33333z" fill="#9a9a9a"/></g><g fill="none" stroke="#000000" stroke-width="2.5"><path d="M229.00489,333.43667l-5.66666,-105.73913l20.33333,-38.26087l21.33333,51.82609v92.17391z"/></g></g><g><g><path d="M239.6169,131.69927c0,0 2.92029,9.35173 6.07997,13.17189c3.18117,3.84615 14.77573,22.95256 14.77573,22.95256c0,0 -6.56936,10.26307 -5.46708,15.99123c1.10228,5.72816 9.95425,12.55369 9.95425,12.55369c0,0 -6.15577,9.43279 -5.81548,15.16503c0.3403,5.73225 7.25678,12.42588 7.25678,12.42588c0,0 -68.71469,7.57934 -71.63693,-21.74229c-0.32913,-3.30242 3.31527,-16.14899 7.03693,-28.96459c4.41233,-15.19395 9.05628,-30.40046 9.05628,-30.40046z" fill="#2e2e2e" stroke="#000000" stroke-width="0" stroke-linecap="round"/><path d="M239.61689,131.69927c0,0 2.92029,9.35173 6.07997,13.17189c0.84126,1.01711 2.27089,3.10142 3.91888,5.61735c-3.6094,1.27766 -17.94683,1.41069 -16.35571,13.89156c1.70263,13.35568 26.75034,2.68433 26.75034,2.68433l0.46223,0.75931c0,0 -0.00584,0.00912 -0.01714,0.02696c-1.82813,1.34841 -3.54966,2.90021 -5.37966,4.1971c-4.76631,3.37825 -20.34398,10.63466 -18.62383,18.71675c2.09817,9.85828 20.7718,8.37588 26.84992,7.41023c0.04547,-0.00723 0.0931,-0.01367 0.14252,-0.0196c-4.59792,2.05105 -21.09368,6.78024 -21.35798,15.35082c-0.23724,7.6936 24.31464,10.45356 24.31464,10.45356c0,0 -68.71469,7.57934 -71.63693,-21.74229c-0.32913,-3.30242 3.31527,-16.14899 7.03693,-28.96459c4.41233,-15.19395 9.05628,-30.40046 9.05628,-30.40046z" fill="#232323" stroke="#000000" stroke-width="0" stroke-linecap="butt"/><path d="M185.71373,212.48967c0,0 2.77272,-3.68362 4.96308,-5.07238c2.19035,-1.38877 4.12265,-4.44755 4.12265,-4.44755c0,0 0.03374,-1.35215 0.10452,-2.36641c0.50976,-7.30437 4.06586,-17.60122 6.8971,-27.35064c4.41233,-15.19395 9.05628,-30.40046 9.05628,-30.40046l6.77215,-3.70741c0,0 -1.71168,7.15236 -4.54828,16.65898c-1.68021,5.63107 -3.88331,12.10851 -6.01025,18.35936c-3.11846,9.1648 -7.67444,26.45709 -5.74292,31.63977c1.61991,4.34655 7.8963,8.94122 18.44395,11.68272c19.79443,5.14487 46.99026,6.4871 46.99026,6.4871c0,0 -30.86401,2.5612 -52.09455,-3.11335c-5.24154,-1.40097 -10.03517,-4.18037 -13.56221,-7.18386c-0.71599,-0.60971 -2.15295,-1.31412 -2.15295,-1.31412c0,0 -4.5723,-0.76077 -7.48565,-1.31919c-2.91335,-0.55842 -5.75317,1.44745 -5.75317,1.44745z" fill="#121212" stroke="#000000" stroke-width="0" stroke-linecap="butt"/><path d="M200.63741,210.91789l-1.76088,-6.30173c0,0 17.42063,-0.98927 26.97066,-2.20943c11.68403,-1.49282 38.88987,-5.47263 38.88987,-5.47263c0,0 -23.63948,6.17898 -34.75632,8.60419c-10.16427,2.21741 -29.34333,5.37961 -29.34333,5.37961z" fill="#121212" stroke="none" stroke-width="0" stroke-linecap="butt"/><path d="M198.80096,200.11403l0.761,-5.71262c0,0 15.45741,-6.16233 24.28948,-9.99465c10.80563,-4.68867 36.488,-16.70145 36.488,-16.70145c0,0 -21.64456,13.13136 -31.6457,18.5575c-9.14417,4.96119 -29.89279,13.8512 -29.89279,13.8512z" fill="#121212" stroke="none" stroke-width="0" stroke-linecap="butt"/><path d="M210.85735,142.85222l6.77215,-3.70741c0,0 -1.71168,7.15236 -4.54828,16.65898c-0.04686,0.15705 -0.09413,0.31477 -0.14179,0.47311c-1.36285,-1.30151 -3.29628,-1.97413 -5.30104,-1.65553c-0.1195,0.01899 -0.23766,0.04125 -0.35442,0.06668c2.08838,-6.97322 3.57338,-11.83583 3.57338,-11.83583z" fill="#0a0a0a" stroke="#000000" stroke-width="0" stroke-linecap="butt"/><path d="M266.76226,223.97274c0,0 -15.54671,1.29012 -32.16218,0.01042c1.13929,-0.72699 2.01113,-1.80638 2.48681,-3.06079c15.39591,2.34561 29.67537,3.05036 29.67537,3.05036z" fill="#0a0a0a" stroke="#000000" stroke-width="0" stroke-linecap="butt"/><path d="M264.73706,196.93409c0,0 -16.10309,4.20909 -27.97817,7.04286c0.087,-0.42799 0.10016,-0.87853 0.02758,-1.33526c-0.09622,-0.60545 -0.33233,-1.15388 -0.67014,-1.61757c12.71158,-1.76275 28.62074,-4.09003 28.62074,-4.09003z" fill="#0a0a0a" stroke="none" stroke-width="0" stroke-linecap="butt"/><path d="M260.33944,167.70532c0,0 -14.066,8.53359 -24.75905,14.68488c-0.00778,-0.10234 -0.01981,-0.20517 -0.0362,-0.30833c-0.15005,-0.94418 -0.6403,-1.74967 -1.32589,-2.31138c11.76206,-5.34879 26.12113,-12.06516 26.12113,-12.06516z" fill="#0a0a0a" stroke="none" stroke-width="0" stroke-linecap="butt"/><path d="M239.61691,131.69928c0,0 2.92029,9.35173 6.07997,13.17189c3.18117,3.84615 14.77573,22.95256 14.77573,22.95256c0,0 -6.56936,10.26307 -5.46708,15.99123c1.10228,5.72816 9.95425,12.55369 9.95425,12.55369c0,0 -6.15577,9.43279 -5.81548,15.16503c0.3403,5.73225 7.25678,12.42588 7.25678,12.42588c0,0 -50.42785,5.56228 -66.72128,-11.27717c-0.66897,-0.69139 -4.82031,-0.73857 -7.92961,-1.40051c-3.10931,-0.66194 -6.57973,0.94942 -6.57973,0.94942c0,0 3.64188,-4.17231 5.63653,-5.46843c1.99465,-1.29612 4.0511,-3.60291 3.95715,-4.5456c-0.32913,-3.30242 3.31527,-16.14899 7.03693,-28.96459c4.41233,-15.19395 9.05628,-30.40046 9.05628,-30.40046z" fill="none" stroke="#000000" stroke-width="2.5" stroke-linecap="round"/></g><g stroke-linecap="butt"><path d="M172.90084,234.14843c-5.81321,1.90599 -12.07085,-1.26144 -13.97684,-7.07463c-1.90599,-5.81321 1.26144,-12.07085 7.07463,-13.97684c5.81321,-1.90599 12.07084,1.26144 13.97683,7.07463c1.90599,5.81321 -1.26143,12.07084 -7.07463,13.97684z" fill="none" stroke="#000000" stroke-width="5"/><path d="M249.78949,201.09044l-74.4105,24.39717l-2.14109,-6.53026l74.4105,-24.39717z" fill="none" stroke="#000000" stroke-width="5"/><path d="M249.78949,201.09044l-74.4105,24.39717l-2.14109,-6.53026l74.4105,-24.39717z" fill="#373737" stroke="none" stroke-width="0"/><path d="M249.24952,199.44355l-66.67731,21.86166c0,0 -0.14056,-1.0092 -0.34249,-1.62507c-0.20193,-0.61588 -0.74214,-1.68301 -0.74214,-1.68301l66.67731,-21.86166z" fill="#4a4a4a" stroke="none" stroke-width="0"/><path d="M172.90083,234.14843c-5.81321,1.90599 -12.07085,-1.26144 -13.97684,-7.07463c-1.90599,-5.81321 1.26144,-12.07084 7.07463,-13.97683c5.81321,-1.90599 12.07084,1.26143 13.97683,7.07463c1.90599,5.81321 -1.26143,12.07085 -7.07463,13.97684z" fill="url(#color-5)" stroke="none" stroke-width="0.5"/><path d="M163.00685,219.16045c2.72956,-0.89495 5.81068,1.02803 6.88186,4.29511c1.07118,3.26708 -0.2732,6.64106 -3.00276,7.53601c-2.72956,0.89495 -5.81068,-1.02803 -6.88186,-4.29511c-1.07118,-3.26708 0.2732,-6.64106 3.00276,-7.53601z" fill="#b4b4b4" stroke="none" stroke-width="0"/></g><path d="M202.22308,215.19006c0,0 -3.96719,-2.6839 -6.06076,-3.54805c-2.15223,-0.88836 -6.68149,-1.7115 -6.68149,-1.7115l7.33958,-2.03239c0,0 2.37748,1.44018 3.29498,2.67853c0.88199,1.1904 2.10769,4.61341 2.10769,4.61341z" fill="#121212" stroke="none" stroke-width="0" stroke-linecap="butt"/><path d="M196.8204,207.89813c0,0 2.37748,1.44018 3.29498,2.67852c0.88199,1.1904 2.1077,4.61341 2.1077,4.61341c0,0 -6.08334,-3.28446 -8.8517,-4.00994c-2.39444,-0.6275 -6.80004,-0.09181 -6.80004,-0.09181" fill="none" stroke="#000000" stroke-width="2.5" stroke-linecap="butt"/></g></g></g></svg>