<svg version="1.1" xmlns="http://www.w3.org/2000/svg" xmlns:xlink="http://www.w3.org/1999/xlink" width="181.71095" height="268.78518" viewBox="0,0,181.71095,268.78518"><defs><linearGradient x1="223.96221" y1="91.63355" x2="223.96221" y2="107.9274" gradientUnits="userSpaceOnUse" id="color-1"><stop offset="0" stop-color="#a968d5"/><stop offset="1" stop-color="#7c5099"/></linearGradient><linearGradient x1="255.74028" y1="90.32022" x2="255.74028" y2="106.61405" gradientUnits="userSpaceOnUse" id="color-2"><stop offset="0" stop-color="#a968d5"/><stop offset="1" stop-color="#7c5099"/></linearGradient><radialGradient cx="173.93378" cy="70.20489" r="18.43689" gradientUnits="userSpaceOnUse" id="color-3"><stop offset="0" stop-color="#7223a6"/><stop offset="1" stop-color="#7223a6" stop-opacity="0"/></radialGradient><linearGradient x1="192.5418" y1="78.56818" x2="196.7136" y2="80.95597" gradientUnits="userSpaceOnUse" id="color-4"><stop offset="0" stop-color="#7223a6"/><stop offset="1" stop-color="#7223a6" stop-opacity="0"/></linearGradient><radialGradient cx="167.11108" cy="91.5558" r="18.30153" gradientUnits="userSpaceOnUse" id="color-5"><stop offset="0" stop-color="#7223a6"/><stop offset="1" stop-color="#7223a6" stop-opacity="0"/></radialGradient><linearGradient x1="187.32016" y1="93.11019" x2="192.00758" y2="93.94289" gradientUnits="userSpaceOnUse" id="color-6"><stop offset="0" stop-color="#7223a6"/><stop offset="1" stop-color="#7223a6" stop-opacity="0"/></linearGradient><radialGradient cx="168.92983" cy="114.79471" r="18.39741" gradientUnits="userSpaceOnUse" id="color-7"><stop offset="0" stop-color="#7223a6"/><stop offset="1" stop-color="#7223a6" stop-opacity="0"/></radialGradient><linearGradient x1="188.4872" y1="109.01289" x2="193.1751" y2="108.1149" gradientUnits="userSpaceOnUse" id="color-8"><stop offset="0" stop-color="#7223a6"/><stop offset="1" stop-color="#7223a6" stop-opacity="0"/></linearGradient><radialGradient cx="306.06621" cy="68.75185" r="18.43689" gradientUnits="userSpaceOnUse" id="color-9"><stop offset="0" stop-color="#7223a6"/><stop offset="1" stop-color="#7223a6" stop-opacity="0"/></radialGradient><linearGradient x1="287.4582" y1="77.11513" x2="283.2864" y2="79.50293" gradientUnits="userSpaceOnUse" id="color-10"><stop offset="0" stop-color="#7223a6"/><stop offset="1" stop-color="#7223a6" stop-opacity="0"/></linearGradient><radialGradient cx="312.88891" cy="90.10275" r="18.30153" gradientUnits="userSpaceOnUse" id="color-11"><stop offset="0" stop-color="#7223a6"/><stop offset="1" stop-color="#7223a6" stop-opacity="0"/></radialGradient><linearGradient x1="292.67983" y1="91.65714" x2="287.99241" y2="92.48984" gradientUnits="userSpaceOnUse" id="color-12"><stop offset="0" stop-color="#7223a6"/><stop offset="1" stop-color="#7223a6" stop-opacity="0"/></linearGradient><radialGradient cx="311.07016" cy="113.34166" r="18.39741" gradientUnits="userSpaceOnUse" id="color-13"><stop offset="0" stop-color="#7223a6"/><stop offset="1" stop-color="#7223a6" stop-opacity="0"/></radialGradient><linearGradient x1="291.51279" y1="107.55985" x2="286.8249" y2="106.66185" gradientUnits="userSpaceOnUse" id="color-14"><stop offset="0" stop-color="#7223a6"/><stop offset="1" stop-color="#7223a6" stop-opacity="0"/></linearGradient></defs><g transform="translate(-149.14455,-45.6074)"><g data-paper-data="{&quot;isPaintingLayer&quot;:true}" fill-rule="nonzero" stroke-linejoin="miter" stroke-miterlimit="10" stroke-dasharray="" stroke-dashoffset="0" style="mix-blend-mode: normal"><g stroke="#000000" stroke-width="2.5" stroke-linecap="butt"><path d="M204.99659,287.89125c-15.14774,7.35082 -27.84332,6.15491 -29.61649,3.31555c-1.12136,-1.79561 0.13938,-19.93421 12.38104,-33.67843c12.31055,-13.82156 33.33457,-16.08719 38.33476,-9.70895c5.00019,6.37824 -4.44738,31.99106 -21.09931,40.07183z" fill="#7223a6"/><path d="M178.54453,289.50406c0,0 22.96138,-29.14414 29.44694,-41.4288c5.61982,-10.64483 8.11443,-32.13546 8.11443,-32.13546l29.54687,1.32971c0,0 -11.03218,33.30522 -24.56713,47.23448c-13.53495,13.92926 -42.5411,25.00009 -42.5411,25.00009z" fill="#9c30e4"/></g><path d="M260.80993,163.20537c-0.03877,-5.13557 0.84766,-8.23451 4.04013,-8.9259c2.85441,-0.61818 4.98123,0.51025 7.61108,5.07153c5.37105,9.31566 14.41661,39.47112 16.41951,41.88881c2.00867,2.42464 5.08832,4.08686 8.73877,8.8544c3.8487,5.02644 5.75653,18.50315 4.10409,19.99982c-1.65244,1.49667 -8.7013,-7.4558 -8.7013,-7.4558c0,0 -0.90253,15.51946 -3.23894,16.42287c-2.33641,0.90341 -9.04708,-11.93648 -9.04708,-11.93648c0,0 -4.02979,12.75244 -6.10654,11.63509c-1.84766,-0.9941 -3.65335,-18.39833 -3.65335,-18.39833c0,0 -10.81991,2.96305 -11.01474,0.67657c-0.95155,-1.7738 6.8714,-11.24495 9.31016,-13.99715c2.00286,-2.26026 -8.39475,-34.95293 -8.4618,-43.83544z" data-paper-data="{&quot;index&quot;:null}" fill="#9c30e4" stroke="#000000" stroke-width="2.5" stroke-linecap="butt"/><path d="M217.40663,164.07718c-0.06705,8.8825 -10.46465,41.57518 -8.4618,43.83544c2.43877,2.7522 10.26171,12.22335 9.31016,13.99715c-0.19484,2.28648 -11.01475,-0.67656 -11.01475,-0.67656c0,0 -1.80569,17.40423 -3.65335,18.39833c-2.07675,1.11735 -6.10654,-11.63509 -6.10654,-11.63509c0,0 -6.71067,12.8399 -9.04708,11.93649c-2.33641,-0.90341 -3.23894,-16.42287 -3.23894,-16.42287c0,0 -7.04886,8.95246 -8.7013,7.4558c-1.65244,-1.49666 0.25539,-14.97338 4.10409,-19.99982c3.65045,-4.76754 6.7301,-6.42976 8.73877,-8.8544c2.00291,-2.41769 11.04847,-32.57315 16.41951,-41.88881c2.62985,-4.56128 4.75666,-5.68971 7.61108,-5.07153c3.19247,0.69139 4.0789,3.79034 4.04013,8.92591z" data-paper-data="{&quot;index&quot;:null}" fill="#9c30e4" stroke="#000000" stroke-width="2.5" stroke-linecap="butt"/><g data-paper-data="{&quot;index&quot;:null}" stroke="#000000" stroke-linecap="butt"><path d="M257.00791,313.04348c-7.12077,0.54381 -14.45542,0.32247 -15.70054,-0.75193c-1.52555,-1.31639 0,-96.43664 0,-96.43664h27.63161c0,0 0.92525,22.97176 1.30086,36.57334c0.26592,9.62908 1.49219,32.69525 2.00297,45.62665c0.39952,10.11458 0.2484,11.47332 -0.39524,12.26185c-0.70542,0.86421 -7.82717,2.19121 -14.83966,2.72674z" fill="#9c30e4" stroke-width="0"/><path d="M269.44972,229.07274c0.05147,1.37707 0.15805,4.27943 0.15805,4.27943c0,0 -7.77388,6.44541 -13.31281,9.52178c-5.53894,3.07638 -15.2567,4.46595 -15.2567,4.46595l0.2691,-31.485h27.63161c0,0 0.23196,5.75929 0.51076,13.21785z" fill="#882ac6" stroke-width="0"/><path d="M257.00791,313.04348c-7.12077,0.54381 -14.45542,0.32247 -15.70054,-0.75193c-0.44485,-0.38386 -0.66972,-27.28933 -0.66972,-27.28933c0,0 7.80055,10.09692 16.95264,7.89571c9.93315,-2.38905 13.60314,-20.71832 13.60314,-20.71832c0,0 0.86879,21.30325 1.04939,25.87529c0.39952,10.11458 0.2484,11.47332 -0.39524,12.26185c-0.70542,0.86421 -7.82717,2.19121 -14.83966,2.72674z" fill="#882ac6" stroke-width="0"/><path d="M257.00791,313.04348c-7.12077,0.54381 -14.45542,0.32247 -15.70054,-0.75193c-1.52555,-1.31639 0,-96.43664 0,-96.43664h27.63161c0,0 0.92525,22.97176 1.30086,36.57334c0.26592,9.62908 1.49219,32.69525 2.00297,45.62665c0.39952,10.11458 0.2484,11.47332 -0.39524,12.26185c-0.70542,0.86421 -7.82717,2.19121 -14.83966,2.72674z" fill="none" stroke-width="2.5"/></g><g stroke="#000000" stroke-linecap="butt"><path d="M207.71713,310.00338c-0.64364,-0.78852 -0.79476,-2.14726 -0.39524,-12.26184c0.51078,-12.9314 1.73706,-35.99757 2.00298,-45.62665c0.37562,-13.60158 1.30086,-36.57334 1.30086,-36.57334h27.63161c0,0 1.52555,95.12026 0,96.43665c-1.24511,1.07441 -8.57977,1.29573 -15.70054,0.75192c-7.01249,-0.53553 -14.13425,-1.86253 -14.83966,-2.72674z" fill="#9c30e4" stroke-width="0"/><path d="M210.62573,215.54155h27.63161l0.2691,31.485c0,0 -9.71777,-1.38957 -15.2567,-4.46595c-5.53894,-3.07638 -13.31282,-9.52178 -13.31282,-9.52178c0,0 0.10657,-2.90235 0.15805,-4.27943c0.2788,-7.45856 0.51076,-13.21785 0.51076,-13.21785z" fill="#882ac6" stroke-width="0"/><path d="M207.71713,310.00338c-0.64364,-0.78852 -0.79476,-2.14726 -0.39524,-12.26184c0.1806,-4.57204 1.04937,-25.87529 1.04937,-25.87529c0,0 3.66999,18.32927 13.60314,20.71832c9.15208,2.2012 16.95264,-7.89571 16.95264,-7.89571c0,0 -0.22487,26.90548 -0.66972,27.28934c-1.24511,1.07441 -8.57977,1.29574 -15.70054,0.75193c-7.01249,-0.53553 -14.13425,-1.86253 -14.83966,-2.72674z" fill="#882ac6" stroke-width="0"/><path d="M207.71713,310.00338c-0.64364,-0.78852 -0.79476,-2.14726 -0.39524,-12.26184c0.51078,-12.9314 1.73706,-35.99757 2.00298,-45.62665c0.37562,-13.60158 1.30086,-36.57334 1.30086,-36.57334h27.63161c0,0 1.52555,95.12026 0,96.43665c-1.24511,1.07441 -8.57977,1.29573 -15.70054,0.75192c-7.01249,-0.53553 -14.13425,-1.86253 -14.83966,-2.72674z" fill="none" stroke-width="2.5"/></g><g stroke="#000000" stroke-linecap="butt"><path d="M276.69097,191.03768c0,28.94338 -16.75076,49.11653 -37.41387,49.11653c-20.66311,0 -36.49686,-19.23312 -37.41387,-48.1765c-0.91651,-28.92812 16.75076,-56.63677 37.41387,-56.63677c20.66311,0 37.41387,26.75336 37.41387,55.69674z" fill="#882ac6" stroke-width="0"/><path d="M270.73048,182.79556c0,24.66028 -13.97149,41.84817 -31.20618,41.84817c-17.23469,0 -30.44133,-16.38697 -31.20619,-41.04725c-0.21879,-7.05428 3.76498,-20.37838 3.76498,-20.37838c0,0 16.28192,6.59069 27.44119,6.43391c11.15928,-0.15678 27.05968,-7.22537 27.05968,-7.22537c0,0 4.14651,13.25672 4.14651,20.36892z" fill="#9c30e4" stroke-width="0"/><path d="M276.69097,191.03768c0,28.94338 -16.75076,49.11653 -37.41387,49.11653c-20.66311,0 -36.49686,-19.23312 -37.41387,-48.1765c-0.91651,-28.92812 16.75076,-56.63677 37.41387,-56.63677c20.66311,0 37.41387,26.75336 37.41387,55.69674z" fill="none" stroke-width="2.5"/></g><g stroke-linecap="butt"><g stroke="#000000"><path d="M297.00515,103.72918c0,31.40942 -25.56758,56.87178 -57.10679,56.87178c-31.53921,0 -57.10678,-25.46236 -57.10678,-56.87178c0,-31.40942 25.56758,-56.87177 57.10679,-56.87177c31.53921,0 57.10679,25.46236 57.10679,56.87178z" fill="#882ac6" stroke-width="0"/><path d="M291.83499,97.85399c0,27.38589 -23.3489,49.58655 -52.15125,49.58655c-28.80233,0 -52.15124,-22.20066 -52.15124,-49.58655c0,-27.3859 23.3489,-49.58655 52.15124,-49.58655c28.80233,0 52.15125,22.20065 52.15125,49.58655z" fill="#9c30e4" stroke-width="0"/><path d="M297.00515,103.72918c0,31.40942 -25.56758,56.87178 -57.10679,56.87178c-31.53921,0 -57.10678,-25.46236 -57.10678,-56.87178c0,-31.40942 25.56758,-56.87177 57.10679,-56.87177c31.53921,0 57.10679,25.46236 57.10679,56.87178z" fill="none" stroke-width="2.5"/></g><path d="M213.25858,118.80414c2.73739,5.86582 1.06945,12.87733 -3.72544,15.66065c-4.79489,2.78332 -10.90101,0.28448 -13.63841,-5.58134c-2.73739,-5.86582 -1.06946,-12.87733 3.72543,-15.66065c4.79489,-2.78332 10.90102,-0.28448 13.63842,5.58134z" fill="#7223a6" stroke="none" stroke-width="0"/><path d="M281.21037,113.69281c4.79489,2.78332 6.46283,9.79485 3.72543,15.66066c-2.73739,5.86582 -8.84351,8.36466 -13.6384,5.58134c-4.79489,-2.78332 -6.46283,-9.79484 -3.72543,-15.66065c2.73739,-5.86582 8.84351,-8.36467 13.6384,-5.58134z" data-paper-data="{&quot;index&quot;:null}" fill="#7223a6" stroke="none" stroke-width="0"/></g><path d="M232.76407,103.59562c-2.39429,11.08591 -12.25227,18.36292 -22.01844,16.25366c-9.76615,-2.10925 -15.74223,-12.80605 -13.34795,-23.89195c2.39429,-11.0859 12.25227,-18.36292 22.01844,-16.25366c9.76615,2.10926 15.74223,12.80605 13.34795,23.89195z" fill="#ffffff" stroke="#000000" stroke-width="2.5" stroke-linecap="butt"/><g stroke="none" stroke-linecap="butt"><g><path d="M215.81528,99.78048c0,-4.49942 3.6475,-8.14693 8.14692,-8.14693c4.49942,0 8.14693,3.64751 8.14693,8.14693c0,4.49942 -3.64751,8.14692 -8.14693,8.14692c-4.49942,0 -8.14692,-3.6475 -8.14692,-8.14692z" fill="url(#color-1)" stroke-width="0.5"/><path d="M225.2694,107.78952l-0.76008,-3.95233l1.8663,-0.62826l2.06359,3.34009c0,0 -0.84777,0.63232 -1.53736,0.84304c-0.67499,0.20626 -1.63244,0.39748 -1.63244,0.39748z" fill="#6c4287" stroke-width="0"/><path d="M229.5514,105.68717l-2.59819,-2.93979l1.01418,-0.95403l2.92407,2.18928c0,0 -0.34263,0.59353 -0.61266,0.937c-0.27003,0.34347 -0.72741,0.76753 -0.72741,0.76753z" fill="#6c4287" stroke-width="0"/></g><path d="M219.23698,99.78048c0,-2.60967 2.11555,-4.72522 4.72522,-4.72522c2.60967,0 4.72522,2.11555 4.72522,4.72522c0,2.60967 -2.11555,4.72521 -4.72522,4.72521c-2.60967,0 -4.72522,-2.11554 -4.72522,-4.72521z" fill="#000000" stroke-width="0.5"/><path d="M222.94391,98.12806c-1.20529,1.17977 -3.01243,1.28813 -4.03639,0.24203c-1.02396,-1.04609 -0.87694,-2.85051 0.32834,-4.03028c1.20529,-1.17977 3.01244,-1.28813 4.03639,-0.24203c1.02396,1.04609 0.87694,2.85051 -0.32835,4.03028z" fill="#ffffff" stroke-width="0"/><path d="M219.44855,99.3999c0.24212,0.32627 0.21661,0.73883 -0.05696,0.92146c-0.27357,0.18263 -0.69161,0.06617 -0.93373,-0.2601c-0.24212,-0.32627 -0.21661,-0.73882 0.05696,-0.92145c0.27357,-0.18263 0.69161,-0.06618 0.93373,0.2601z" fill="#ffffff" stroke-width="0"/></g><path d="M260.80219,79.54699c9.76617,-2.10926 19.62415,5.16776 22.01844,16.25366c2.39429,11.0859 -3.58179,21.7827 -13.34795,23.89195c-9.76617,2.10925 -19.62415,-5.16776 -22.01844,-16.25366c-2.39428,-11.0859 3.58179,-21.7827 13.34795,-23.89195z" data-paper-data="{&quot;index&quot;:null}" fill="#ffffff" stroke="#000000" stroke-width="2.5" stroke-linecap="butt"/><g stroke="none" stroke-linecap="butt"><g><path d="M247.59335,98.46714c0,-4.49942 3.64751,-8.14692 8.14693,-8.14692c4.49942,0 8.14692,3.6475 8.14692,8.14692c0,4.49942 -3.6475,8.14691 -8.14692,8.14691c-4.49942,0 -8.14693,-3.6475 -8.14693,-8.14691z" fill="url(#color-2)" stroke-width="0.5"/><path d="M257.04747,106.47618l-0.76009,-3.95235l1.86631,-0.62826l2.06359,3.34009c0,0 -0.84778,0.63232 -1.53737,0.84304c-0.67499,0.20626 -1.63245,0.39748 -1.63245,0.39748z" fill="#6c4287" stroke-width="0"/><path d="M261.32947,104.37383l-2.59819,-2.93979l1.01418,-0.95401l2.92406,2.18928c0,0 -0.34262,0.59352 -0.61266,0.93699c-0.27004,0.34347 -0.7274,0.76753 -0.7274,0.76753z" fill="#6c4287" stroke-width="0"/></g><path d="M251.01506,98.46714c0,-2.60967 2.11556,-4.72522 4.72522,-4.72522c2.60967,0 4.7252,2.11555 4.7252,4.72522c0,2.60967 -2.11555,4.72521 -4.7252,4.72521c-2.60967,0 -4.72522,-2.11554 -4.72522,-4.72521z" fill="#000000" stroke-width="0.5"/><path d="M254.72199,96.81472c-1.20529,1.17977 -3.01243,1.28813 -4.03638,0.24203c-1.02396,-1.0461 -0.87694,-2.85052 0.32834,-4.03028c1.20529,-1.17977 3.01244,-1.28813 4.03638,-0.24203c1.02395,1.0461 0.87694,2.85052 -0.32835,4.03028z" fill="#ffffff" stroke-width="0"/><path d="M251.22661,98.08656c0.24212,0.32627 0.2166,0.73882 -0.05697,0.92145c-0.27357,0.18263 -0.69162,0.06618 -0.93372,-0.2601c-0.2421,-0.32627 -0.2166,-0.73882 0.05696,-0.92145c0.27357,-0.18263 0.69162,-0.06618 0.93372,0.2601z" fill="#ffffff" stroke-width="0"/></g><path d="M221.20052,66.43227c0.27622,0.85389 -1.10016,1.85653 -3.07423,2.23944c-1.97407,0.38291 -6.32138,0.49052 -6.5976,-0.36337c-0.27622,-0.85389 3.62326,-2.34594 5.59733,-2.72885c1.97407,-0.38291 3.79829,-0.00111 4.07451,0.85278z" fill="#000000" stroke="none" stroke-width="0" stroke-linecap="butt"/><path d="M262.31264,65.26614c1.97407,0.38292 5.87354,1.87495 5.59732,2.72885c-0.27622,0.85389 -4.62354,0.74629 -6.5976,0.36338c-1.97407,-0.38292 -3.35046,-1.38555 -3.07423,-2.23944c0.27622,-0.85389 2.10045,-1.2357 4.07452,-0.85278z" data-paper-data="{&quot;index&quot;:null}" fill="#000000" stroke="none" stroke-width="0" stroke-linecap="butt"/><path d="M228.75872,131.74812c0,0 4.4351,-0.24278 6.43295,-0.48305c1.74236,-0.20955 4.89287,-0.87905 4.89287,-0.87905c0,0 3.88389,0.74871 5.81543,0.97653c1.91777,0.2262 5.73279,0.38557 5.73279,0.38557" fill="none" stroke="#000000" stroke-width="2.5" stroke-linecap="round"/><g stroke-linecap="butt"><g><path d="M186.8202,81.10116c0.54717,0.10859 0.68633,0.50827 0.7144,0.78916c0.13072,-0.00325 0.26434,0.02389 0.39144,0.08506c0.44399,0.21368 0.64034,0.76159 0.43857,1.22381l-0.47002,1.0767l-0.90643,0.4459l-0.42907,0.40563c-0.18155,0.17969 -0.43052,0.27063 -0.68153,0.24766l-0.29814,0.50469c-0.22706,0.3972 -0.71,0.55875 -1.12386,0.35958c-0.41386,-0.19918 -0.61255,-0.68878 -0.47419,-1.12867l0.06573,-0.21969c-0.07526,-0.0134 -0.15015,-0.03727 -0.22291,-0.07228c-0.38958,-0.18749 -0.5885,-0.63232 -0.49509,-1.05079l0.13781,-0.68121c-0.27697,0.13768 -0.60103,0.39918 -0.75429,0.19825c-0.16279,-0.21342 0.02876,-0.49711 0.17374,-0.7807c-0.00533,-0.00191 -0.01065,-0.00387 -0.01596,-0.00588c-0.09406,-0.03561 -0.1768,-0.08974 -0.25186,-0.15648c-0.06204,0.09984 -0.12708,0.18872 -0.19257,0.2313c-0.56076,0.36464 -2.3514,0.76706 -2.75826,0.14296c-0.34732,-0.53278 0.02574,-1.2468 0.1873,-1.90761c-0.14603,0.08007 -0.28635,0.10895 -0.41264,0.01205c-0.33445,-0.25662 0.10421,-0.87225 0.01984,-1.29577c-0.03063,-0.15376 -0.05371,0.36735 -0.19358,0.42362c-0.48043,0.19328 -1.07856,0.54106 -1.52489,0.26771c-0.40667,-0.24905 -0.41947,-0.94306 -0.57716,-1.44379c-0.2429,-0.11121 -0.50511,-0.28825 -0.80198,-0.56817c-0.77339,0.03341 -1.8392,0.56456 -2.34347,-0.04179c-0.36288,-0.43633 0.46076,-1.1106 0.37596,-1.68036c-0.03713,-0.24947 -0.31445,0.518 -0.55401,0.48401c-0.61795,-0.08766 -1.35243,-0.26814 -1.70792,-0.80487c-0.21024,-0.31743 0.67672,-0.69548 0.49263,-1.03004c-0.18555,-0.33721 -0.91696,0.23782 -1.11119,-0.09406c-0.17067,-0.29163 0.0634,-0.63805 0.20355,-0.98321c-0.01242,-0.02303 -0.02436,-0.04641 -0.03583,-0.07012c-0.02307,0.03763 -0.04816,0.0672 -0.07426,0.07826c-0.49287,0.20885 -1.12117,0.74653 -1.54786,0.40992c-0.54501,-0.42994 -0.45518,-1.32864 -0.62973,-2.03213c-0.08315,0.02889 -0.15799,0.01361 -0.21949,-0.07266c-0.17972,-0.2521 -0.22646,-0.55391 -0.22175,-0.87495l-0.35484,0.13657c-0.21159,0.08144 -0.45346,0.07839 -0.67546,-0.02845c-0.40944,-0.19705 -0.60828,-0.67835 -0.47851,-1.11455l0.02841,-0.1012c-0.07887,-0.01504 -0.16162,-0.03203 -0.24842,-0.05108c-0.87581,-0.19216 0.33284,-1.91073 -0.50654,-0.5404l-0.34081,0.24002c0,0 -0.74991,0.48174 -1.21615,-0.30441c-0.24407,-0.41154 -0.15487,-0.73967 -0.01443,-0.95893c-0.02845,-0.01019 -0.05669,-0.02199 -0.08462,-0.03543c-0.40519,-0.19501 -0.60414,-0.66839 -0.48244,-1.10096c-0.14318,0.01031 -0.29102,-0.0158 -0.43097,-0.08315c-0.09699,-0.04668 -0.18217,-0.10931 -0.25396,-0.18352l-0.13851,0.08898c-0.24386,0.16185 -0.55974,0.19466 -0.84321,0.05823c-0.44399,-0.21368 -0.64034,-0.76159 -0.43857,-1.22381c0.05566,-0.12751 0.13581,-0.23518 0.23202,-0.31976l0.08477,-0.078c-0.09301,-0.22347 -0.10176,-0.4837 -0.00569,-0.72334c-0.18102,0.06499 -0.37289,0.13648 -0.58064,0.21846l-0.85958,0.33083c-0.21159,0.08144 -0.45346,0.07839 -0.67546,-0.02845c-0.44399,-0.21368 -0.64034,-0.76159 -0.43857,-1.22381c0.04813,-0.11025 0.11456,-0.20567 0.19386,-0.28415l0.06332,-0.0657c-0.00568,-0.14003 0.01923,-0.28333 0.07855,-0.41922c0.07677,-0.17586 0.20011,-0.31398 0.34792,-0.40584l0.74498,-0.47857c-0.69301,-0.30587 -1.40178,-0.6717 -2.21049,-1.06384l-0.04443,-0.06762l-0.0177,0.02739l-0.8073,-0.57192c-0.36134,-0.24641 -0.5068,-0.73728 -0.32342,-1.15735c0.19088,-0.43725 0.66967,-0.64117 1.09669,-0.48102l1.53539,0.55392l-0.07849,0.24118c0.59236,0.15966 1.11925,0.37852 1.67185,0.67023c0.22823,-0.39359 0.70887,-0.55296 1.121,-0.35462c0.09548,0.04595 0.1795,0.10735 0.25058,0.18004l0.7371,0.71952l-0.00485,0.00542c0.00557,0.00213 0.01115,0.00426 0.01672,0.00639l0.00816,0.01567l0.00351,-0.00364l0.96598,1.01498c0.05552,0.05568 0.10332,0.11818 0.14272,0.18556c0.04344,-0.21989 0.0895,-0.43921 0.13726,-0.65799l-0.06224,-0.00726l0.15891,-1.57626c0.00807,-0.10315 0.03304,-0.2065 0.07643,-0.3059c0.20177,-0.46221 0.72526,-0.66369 1.16925,-0.45001c0.33807,0.1627 0.53257,0.5192 0.51704,0.88409l-0.02516,1.21213c0.1727,-0.03301 0.35685,-0.01258 0.52904,0.07029c0.13502,0.06498 0.24714,0.16088 0.33213,0.27587l0.42851,0.5555l0.02179,-0.21617c0.00807,-0.10315 0.03304,-0.2065 0.07643,-0.3059c0.20177,-0.46221 0.72526,-0.66369 1.16925,-0.45001c0.21408,0.10303 0.37059,0.28377 0.45265,0.49514c0.12279,0.00055 0.24761,0.028 0.3667,0.08532c0.20796,0.10008 0.36159,0.2735 0.44543,0.47709c0.23982,-0.35227 0.69377,-0.48722 1.08575,-0.29857c0.17268,0.0831 0.3079,0.21677 0.39681,0.37628c0.25161,-0.20963 0.60543,-0.26619 0.91948,-0.11506c0.28347,0.13642 0.46599,0.4091 0.50841,0.70872l0.09102,0.58415c0.2425,-0.22562 0.5499,-0.478 0.93991,-0.73815l0.23165,2.00377c0.05582,-0.05663 0.1129,-0.11211 0.17109,-0.16653l-0.09772,-0.10268l0.96584,-1.00207c0.2521,-0.27417 0.65311,-0.36496 1.00436,-0.19591c0.29796,0.1434 0.4844,0.43734 0.51381,0.75489l0.10568,0.96559c0.03306,0.32473 0.10823,0.61018 0.08717,0.89459l0.51017,-0.5703c0.25032,-0.29336 0.66469,-0.39474 1.02632,-0.2207c0.32092,0.15445 0.51247,0.48353 0.51779,0.82865l0.02128,0.59896l0.44444,-0.46112c0.2521,-0.27417 0.65311,-0.36496 1.00436,-0.19591c0.29245,0.14075 0.47746,0.42651 0.51202,0.73727l0.09557,0.75191c0.00716,0.00173 0.01436,0.00348 0.02162,0.00524c0.02985,-0.06974 0.0635,-0.12963 0.09795,-0.16091c0.01028,-0.00934 0.02059,-0.01863 0.03094,-0.02789l-0.00388,-0.00379l1.18777,-1.32775c0.25032,-0.29336 0.66469,-0.39474 1.02632,-0.2207c0.34507,0.16607 0.54056,0.53404 0.51581,0.90676l-0.06426,1.45553c0.09976,-0.17911 0.23182,-0.34378 0.3859,-0.49528l-0.21512,-0.3127l1.04711,-0.78189c0.24984,-0.194 0.59159,-0.24264 0.89597,-0.09615c0.27638,0.13301 0.4568,0.39554 0.50496,0.68629c0.24121,-0.15148 0.5484,-0.17934 0.82478,-0.04633c0.29796,0.1434 0.4844,0.43734 0.51381,0.75489l0.08833,0.80707c0.47432,-0.11824 0.9479,-0.23154 1.37651,-0.04082c0.12402,0.05519 0.11644,0.21114 0.07428,0.3915c0.2337,-0.1924 0.5542,-0.25361 0.84916,-0.14042l0.173,-0.39631c0.20177,-0.46221 0.72526,-0.66369 1.16925,-0.45001c0.33807,0.1627 0.53257,0.5192 0.51704,0.88409l-0.02633,1.26878l-0.04406,-0.00129l0.03393,0.12192c-0.02187,0.03516 -0.04373,0.07032 -0.0656,0.10548l0.0404,0.01262l-0.318,1.13261c-0.01225,0.04637 -0.02815,0.09231 -0.04785,0.13744c-0.20177,0.46221 -0.72526,0.66369 -1.16925,0.45001c-0.03908,-0.01881 -0.07624,-0.04021 -0.11139,-0.06391c-0.17778,0.03792 -0.36866,0.01901 -0.54676,-0.0667c-0.19981,-0.09616 -0.34947,-0.26002 -0.43526,-0.4533c-0.10427,0.00942 -0.2104,0.0195 -0.31814,0.02989c-0.00415,0.00053 -0.00834,0.00093 -0.01256,0.00121c-1.61762,0.15616 -3.59195,0.37921 -5.0018,-0.49668c-0.17064,-0.10601 -0.27674,-0.288 -0.37402,-0.48034c-0.43822,-0.01588 -0.70854,-0.40635 -0.9497,-0.86188c-0.91722,-0.2495 -2.36208,-0.15928 -3.37174,-0.31571c-0.25086,0.28833 -0.66176,0.38692 -1.0207,0.21418c-0.19768,-0.09514 -0.34627,-0.25654 -0.43249,-0.44713l-0.31195,-0.67725c-0.16177,0.04675 -0.38879,0.041 -0.70242,-0.03927c-0.34802,0.17161 -0.69582,0.31616 -1.00006,0.17196c-0.44634,-0.21155 -0.32977,-1.09154 -0.77495,-1.30576c-0.18359,-0.08834 -0.38535,0.01519 -0.588,0.13286l-0.01318,0.0204c-0.23366,0.3757 -0.70284,0.52441 -1.10635,0.33022c-0.21208,-0.10207 -0.36766,-0.2804 -0.45033,-0.48923c-0.31078,-0.12641 -0.60126,-0.33357 -0.84573,-0.58854c-0.5858,-0.03961 -0.89775,-0.81724 -1.30828,-1.3292l-0.20245,0.78875c-0.01285,0.05389 -0.03059,0.1073 -0.05342,0.1596c-0.20177,0.46221 -0.72526,0.66369 -1.16925,0.45001c-0.22199,-0.10684 -0.38208,-0.29724 -0.46144,-0.5187l-0.13446,-0.37522c-0.19236,0.05406 -0.40369,0.04059 -0.59954,-0.05367c-0.07687,-0.037 -0.14632,-0.08401 -0.20756,-0.13887c-0.07956,-0.01291 -0.15881,-0.03746 -0.23568,-0.07445c-0.16759,-0.08066 -0.2999,-0.20894 -0.38883,-0.36225l-0.42508,-0.70896l-0.2166,0.72397c-0.01155,0.04067 -0.02593,0.08097 -0.04325,0.12065c-0.00322,0.00737 -0.00652,0.01468 -0.0099,0.02192c0.13966,0.0816 0.28841,0.19602 0.44701,0.34894c0.37282,0.35946 -0.44271,1.11639 -0.24642,1.5784l0.26383,-0.18823c0.24831,-0.18389 0.58208,-0.22747 0.88004,-0.08407c0.44399,0.21368 0.64034,0.76159 0.43857,1.22381l-0.00194,0.00443c0.24334,-0.15968 0.55742,-0.19145 0.83942,-0.05573c0.35349,0.17013 0.55001,0.55213 0.5136,0.93406c0.76109,0.05882 1.54895,0.2826 1.80979,1.02768c0.15512,0.44311 -0.17544,1.10028 -0.29227,1.60637c0.0923,0.07032 0.18777,0.15181 0.28633,0.24567c0.12742,0.12135 0.10054,0.29362 0.02862,0.48341c1.16506,0.4651 1.99686,0.38688 2.99776,1.51592c0.54723,0.61729 0.75102,1.36807 1.14774,1.9702c0.02352,0.00907 0.04686,0.01863 0.07002,0.02869c0.29781,0.1293 0.50736,0.38329 0.66873,0.69013c0.06713,0.03876 0.1384,0.07491 0.21429,0.10818c0.93214,0.4086 2.09758,0.04178 2.98256,0.553c0.59242,0.34222 0.72567,1.22307 1.2459,1.67598c0.3348,0.18242 0.58101,0.49705 0.80666,0.82679c0.1779,-0.00475 0.35646,0.01382 0.53081,0.0633c0.54713,-0.16299 1.20103,-0.4823 1.67259,-0.16337c0.31038,0.20992 -0.28757,0.82076 -0.18492,1.16457l0.02831,-0.0202c0.17414,-0.12896 0.39031,-0.18892 0.60669,-0.16376c0.10334,-0.07802 0.20135,-0.13089 0.28011,-0.09825c0.14471,-0.07907 0.33382,-0.11674 0.5798,-0.06792zM171.44642,72.02126c0.00088,-0.01322 0.00177,-0.02642 0.00269,-0.0396l-0.02204,0.0505c0.00638,-0.00369 0.01283,-0.00733 0.01935,-0.0109zM175.4023,76.86981c-0.02458,-0.05613 -0.04848,-0.11236 -0.07216,-0.16857c-0.01552,0.07113 -0.02284,0.1416 -0.01866,0.2109c0.00506,0.0837 0.03911,0.04332 0.09082,-0.04233zM174.13698,75.10035c-0.06642,-0.0341 -0.13544,-0.06255 -0.20643,-0.08672c-0.08413,0.12233 -0.16288,0.24609 -0.19861,0.37057c-0.03051,0.1063 0.09324,-0.25095 0.19936,-0.25922c0.06608,-0.00515 0.13495,-0.01388 0.20568,-0.02463z" fill="url(#color-3)" stroke="none" stroke-width="0.5"/><g><path d="M189.75518,83.50053l5.57323,-9.8647l4.1718,2.38779l-5.57323,9.8647z" fill="url(#color-4)" stroke="none" stroke-width="0"/><path d="M189.85406,84.63299c0,0 -7.35568,-4.28675 -11.59377,-7.73703c-4.23808,-3.45028 -13.65102,-12.81506 -13.65102,-12.81506c0,0 10.45403,4.39473 17.38866,6.39465c6.93463,1.99992 14.23196,2.72462 14.23196,2.72462" fill="#5e1d89" stroke="#000000" stroke-width="2.5"/></g></g><g><path d="M182.6659,97.45233c0.55229,-0.08397 0.80643,0.246 0.91888,0.50167c0.12302,-0.04763 0.25808,-0.06754 0.39736,-0.05311c0.48651,0.05043 0.8402,0.50088 0.79,1.00612l-0.11694,1.17691l-0.72371,0.73003l-0.28313,0.52928c-0.11734,0.23157 -0.32575,0.4023 -0.57091,0.46618l-0.12865,0.57819c-0.09405,0.45247 -0.50287,0.76964 -0.95636,0.72263c-0.45349,-0.04701 -0.79159,-0.4416 -0.79473,-0.90414l-0.00477,-0.22985c-0.07549,0.013 -0.15384,0.01599 -0.23356,0.00773c-0.42688,-0.04425 -0.75152,-0.39649 -0.79076,-0.82347l-0.0774,-0.69023c-0.2207,0.22442 -0.44825,0.58181 -0.65504,0.44432c-0.21965,-0.14603 -0.1246,-0.47921 -0.0737,-0.79642c-0.00564,0.00002 -0.01129,-0.00002 -0.01694,-0.00011c-0.10011,-0.00156 -0.19516,-0.02447 -0.28675,-0.0619c-0.02835,0.11543 -0.0629,0.22152 -0.11202,0.28405c-0.4206,0.53546 -1.99645,1.52583 -2.57313,1.07519c-0.4923,-0.3847 -0.35653,-1.18609 -0.40515,-1.86516c-0.11408,0.12539 -0.23838,0.20048 -0.3878,0.15203c-0.39571,-0.12832 -0.16765,-0.85917 -0.37709,-1.23033c-0.07604,-0.13475 0.06129,0.36519 -0.05422,0.466c-0.39674,0.34627 -0.85793,0.87855 -1.3649,0.77258c-0.46192,-0.09656 -0.68609,-0.74752 -0.98869,-1.1666c-0.26442,-0.02222 -0.56729,-0.10001 -0.93445,-0.26314c-0.72352,0.29518 -1.57238,1.16002 -2.23607,0.75935c-0.47758,-0.28833 0.0978,-1.20577 -0.15673,-1.71487c-0.11145,-0.22291 -0.14006,0.59632 -0.37772,0.64589c-0.61304,0.12787 -1.36501,0.20779 -1.86625,-0.17785c-0.29644,-0.22808 0.42952,-0.8874 0.15265,-1.14056c-0.27907,-0.25517 -0.79727,0.53712 -1.08294,0.28994c-0.25102,-0.2172 -0.1348,-0.6241 -0.1073,-0.9978c-0.01882,-0.01751 -0.03729,-0.03552 -0.05542,-0.054c-0.01039,0.0434 -0.02516,0.07987 -0.04654,0.09921c-0.40379,0.36521 -0.83558,1.0871 -1.34324,0.9147c-0.64843,-0.22021 -0.83779,-1.09945 -1.21833,-1.70423c-0.07005,0.05562 -0.14573,0.0667 -0.23043,0.00621c-0.24753,-0.1768 -0.38409,-0.44585 -0.47771,-0.7506l-0.29492,0.24992c-0.17586,0.14902 -0.40626,0.22859 -0.64951,0.20337c-0.44865,-0.04651 -0.78435,-0.4332 -0.79451,-0.88933l-0.00396,-0.10524c-0.07942,0.01268 -0.16312,0.02484 -0.25129,0.03644c-0.8896,0.11708 -0.26804,-1.91771 -0.64567,-0.33763l-0.25,0.34281c0,0 -0.56426,0.71052 -1.24679,0.1271c-0.3573,-0.30541 -0.37292,-0.64566 -0.30668,-0.90057c-0.03011,0.00007 -0.06051,-0.00144 -0.09111,-0.00461c-0.44399,-0.04602 -0.77737,-0.42522 -0.79409,-0.87516c-0.13269,0.05853 -0.28093,0.08428 -0.43427,0.06839c-0.10628,-0.01102 -0.20622,-0.04113 -0.297,-0.08673l-0.10422,0.13124c-0.18191,0.23595 -0.47157,0.37461 -0.78218,0.34241c-0.48651,-0.05043 -0.8402,-0.50088 -0.79,-1.00612c0.01385,-0.13938 0.05699,-0.26837 0.12242,-0.38103l0.05659,-0.10255c-0.15652,-0.17931 -0.24433,-0.42206 -0.22641,-0.6811c-0.15188,0.12307 -0.31207,0.25598 -0.48412,0.40421l-0.71442,0.6054c-0.17586,0.14902 -0.40626,0.22859 -0.64951,0.20337c-0.48651,-0.05043 -0.8402,-0.50088 -0.79,-1.00612c0.01197,-0.12051 0.04585,-0.23326 0.09709,-0.3344l0.04,-0.08362c-0.04818,-0.1303 -0.06833,-0.2741 -0.05357,-0.42263c0.0191,-0.19223 0.09392,-0.36469 0.20608,-0.50182l0.56055,-0.70584c-0.75093,-0.0526 -1.53512,-0.15645 -2.42217,-0.25107l-0.06281,-0.04871l-0.00843,0.03189l-0.94065,-0.26487c-0.41809,-0.10951 -0.70608,-0.52344 -0.66045,-0.98261c0.04749,-0.47795 0.43942,-0.83371 0.89348,-0.82805l1.6259,-0.00031l-0.00078,0.25449c0.61077,-0.05116 1.17751,-0.02409 1.7909,0.063c0.09627,-0.44945 0.50357,-0.76378 0.95517,-0.71697c0.10462,0.01084 0.20309,0.04019 0.29273,0.0846l0.91914,0.42817l-0.00294,0.00677c0.00594,0.00011 0.01187,0.00022 0.01781,0.00034l0.01253,0.01202l0.00221,-0.00463l1.22656,0.62915c0.06968,0.03366 0.13413,0.07638 0.1921,0.12657c-0.02597,-0.22244 -0.04929,-0.44525 -0.07082,-0.66811l-0.06127,0.01436l-0.33085,-1.54259c-0.02386,-0.10015 -0.03174,-0.20626 -0.02095,-0.3149c0.0502,-0.50524 0.48528,-0.87393 0.97179,-0.8235c0.37045,0.0384 0.66389,0.30873 0.76065,0.65858l0.34649,1.15316c0.15376,-0.09004 0.33471,-0.13352 0.52339,-0.11396c0.14795,0.01534 0.28362,0.06767 0.39938,0.14729l0.57626,0.37848l-0.04537,-0.21155c-0.02386,-0.10015 -0.03174,-0.20626 -0.02095,-0.31491c0.0502,-0.50524 0.48528,-0.87393 0.97179,-0.8235c0.23458,0.02432 0.43829,0.14164 0.58072,0.31326c0.11666,-0.04133 0.24346,-0.05796 0.37396,-0.04444c0.22787,0.02362 0.42661,0.135 0.56835,0.29867c0.11989,-0.41439 0.50933,-0.69655 0.93885,-0.65203c0.18922,0.01961 0.35834,0.09973 0.49143,0.22005c0.17466,-0.28371 0.49305,-0.45773 0.83717,-0.42206c0.31062,0.0322 0.56709,0.22746 0.69888,0.49593l0.26484,0.52058c0.16113,-0.29571 0.37566,-0.6388 0.66617,-1.0174l0.832,1.81314c0.03566,-0.0725 0.07286,-0.14435 0.11143,-0.21557l-0.12408,-0.06364l0.61013,-1.27545c0.15541,-0.34482 0.50812,-0.56724 0.893,-0.52735c0.3265,0.03384 0.59318,0.24785 0.71811,0.53768l0.39529,0.87576c0.13058,0.29537 0.28911,0.53928 0.35603,0.81503l0.30976,-0.71241c0.14784,-0.36234 0.51,-0.59932 0.90626,-0.55824c0.35166,0.03645 0.63392,0.28191 0.74442,0.60598l0.2032,0.55833l0.28076,-0.58692c0.15541,-0.34482 0.50811,-0.56724 0.893,-0.52735c0.32046,0.03322 0.58329,0.23999 0.71102,0.52166l0.3204,0.67744c0.00732,-0.0008 0.01469,-0.00161 0.02211,-0.00242c0.00701,-0.07603 0.02064,-0.14405 0.04376,-0.18534c0.0069,-0.01232 0.01384,-0.02462 0.02083,-0.03689l-0.00484,-0.00225l0.72118,-1.65863c0.14784,-0.36234 0.51,-0.59932 0.90626,-0.55824c0.37812,0.03919 0.67601,0.32003 0.76641,0.68041l0.38376,1.39632c0.03992,-0.20313 0.11489,-0.40364 0.21478,-0.59922l-0.29963,-0.22195l0.75452,-1.09525c0.17775,-0.26835 0.48711,-0.43077 0.82064,-0.3962c0.30285,0.03139 0.55423,0.21779 0.68876,0.47593c0.18256,-0.22526 0.46548,-0.35628 0.76833,-0.32489c0.3265,0.03384 0.59318,0.24785 0.71811,0.53768l0.33039,0.73199c0.41387,-0.27333 0.82855,-0.54175 1.29345,-0.50775c0.13452,0.00984 0.17498,0.15968 0.19009,0.34437c0.16294,-0.26134 0.44829,-0.42839 0.76271,-0.42204l0.04304,-0.4332c0.0502,-0.50524 0.48529,-0.87393 0.9718,-0.8235c0.37045,0.0384 0.66389,0.30874 0.76065,0.65858l0.36268,1.20706l-0.0422,0.0138l0.06944,0.10355c-0.01,0.04065 -0.02,0.08131 -0.03,0.12196l0.04218,-0.00186l0.04436,1.1779c0.00254,0.04796 0.00149,0.09676 -0.00341,0.14609c-0.0502,0.50524 -0.48528,0.87393 -0.97179,0.8235c-0.04282,-0.00444 -0.08462,-0.01198 -0.1252,-0.02238c-0.15708,0.0964 -0.34396,0.14362 -0.5391,0.12339c-0.21895,-0.0227 -0.411,-0.12642 -0.55144,-0.27968c-0.09604,0.04444 -0.19366,0.09013 -0.29269,0.13666c-0.00378,0.00191 -0.00762,0.00372 -0.01154,0.00543c-1.48695,0.69885 -3.29188,1.58246 -4.89705,1.23594c-0.19428,-0.04194 -0.35054,-0.17762 -0.5016,-0.32608c-0.4206,0.13438 -0.79636,-0.14219 -1.16433,-0.49013c-0.94642,0.07705 -2.28961,0.65475 -3.29529,0.8512c-0.1499,0.35778 -0.50961,0.59093 -0.90292,0.55017c-0.21661,-0.02245 -0.4069,-0.12421 -0.54693,-0.27479l-0.50288,-0.53318c-0.13919,0.09929 -0.35632,0.17124 -0.67839,0.20235c-0.27774,0.28068 -0.56354,0.53572 -0.89623,0.50327c-0.48809,-0.04761 -0.64636,-0.91831 -1.13417,-0.96884c-0.20116,-0.02084 -0.36095,0.1457 -0.51726,0.32589l-0.00627,0.02375c-0.10689,0.43441 -0.50657,0.73477 -0.94872,0.68894c-0.23239,-0.02409 -0.43448,-0.13946 -0.57672,-0.30846c-0.33347,-0.01344 -0.67235,-0.11003 -0.98218,-0.26746c-0.56786,0.16228 -1.10141,-0.46569 -1.64731,-0.80919l0.04893,0.81381c0.00427,0.05527 0.00376,0.11175 -0.00192,0.16892c-0.0502,0.50524 -0.48529,0.87393 -0.9718,0.8235c-0.24325,-0.02521 -0.4533,-0.15044 -0.59626,-0.33251l-0.24221,-0.30848c-0.16597,0.11662 -0.37058,0.17593 -0.58519,0.15368c-0.08423,-0.00873 -0.16448,-0.02945 -0.23935,-0.06037c-0.07942,0.01493 -0.16211,0.01876 -0.24635,0.01003c-0.18364,-0.01904 -0.34836,-0.09507 -0.47957,-0.20953l-0.6199,-0.52456l0.01572,0.75746c0.00147,0.04234 0.00014,0.0853 -0.00417,0.12867c-0.0008,0.00806 -0.0017,0.01609 -0.00269,0.02407c0.15743,0.02944 0.3335,0.08679 0.5307,0.17712c0.46353,0.21235 -0.0789,1.20509 0.24848,1.57444l0.19279,-0.26767c0.17939,-0.25828 0.48273,-0.4132 0.80923,-0.37936c0.48651,0.05043 0.8402,0.50088 0.79,1.00612l-0.00048,0.00485c0.18207,-0.23373 0.47034,-0.37079 0.77935,-0.33876c0.38735,0.04015 0.6905,0.33388 0.77265,0.70694c0.74003,-0.20389 1.55586,-0.26114 2.03097,0.35351c0.28256,0.36554 0.16973,1.09877 0.21352,1.61648c0.10906,0.03494 0.22452,0.07935 0.34671,0.13438c0.15797,0.07115 0.1851,0.24299 0.17485,0.44672c1.24742,0.04206 2.01267,-0.31535 3.3072,0.4096c0.70777,0.39636 1.13051,1.03584 1.69086,1.46919c0.02508,0.00055 0.05015,0.00162 0.07519,0.00322c0.32205,0.02058 0.59845,0.18899 0.8453,0.42373c0.07553,0.01372 0.15418,0.02356 0.23635,0.0291c1.00918,0.06809 2.00277,-0.67554 2.99857,-0.49447c0.6666,0.12121 1.06215,0.90755 1.69409,1.1579c0.37336,0.05813 0.70308,0.2713 1.01791,0.50575c0.16733,-0.06513 0.3424,-0.10845 0.52293,-0.12117c0.46927,-0.34041 0.99208,-0.86482 1.5369,-0.72439c0.3586,0.09243 -0.02204,0.87304 0.18039,1.16271l0.02068,-0.02872c0.1258,-0.18113 0.31257,-0.31143 0.52554,-0.36144c0.0742,-0.1089 0.15103,-0.19223 0.23573,-0.18825c0.11313,-0.124 0.28103,-0.22402 0.52931,-0.26177zM165.30624,94.11881c-0.00321,-0.01278 -0.00639,-0.02555 -0.00954,-0.03831l-0.00548,0.0552c0.00493,-0.00566 0.00994,-0.01129 0.01503,-0.01689zM170.54069,97.34875c-0.04047,-0.04462 -0.08032,-0.08957 -0.11997,-0.13457c0.00701,0.07246 0.02159,0.14149 0.04674,0.2055c0.03037,0.07731 0.05034,0.02757 0.07323,-0.07093zM168.79962,96.10921c-0.07343,-0.00956 -0.1476,-0.0129 -0.22234,-0.01152c-0.04244,0.14419 -0.07933,0.28789 -0.0752,0.41762c0.00353,0.11077 0.01179,-0.26874 0.10994,-0.31273c0.06112,-0.02739 0.12379,-0.05911 0.18761,-0.09337z" fill="url(#color-5)" stroke="none" stroke-width="0.5"/><g><path d="M186.18347,98.71755l2.27337,-11.21473l4.68743,0.8327l-2.27337,11.21473z" fill="url(#color-6)" stroke="none" stroke-width="0"/><path d="M186.62329,99.7532c0,0 -8.28824,-1.54057 -13.36319,-3.35395c-5.07494,-1.81339 -16.86647,-7.44776 -16.86647,-7.44776c0,0 11.26068,0.5864 18.45075,0.11109c7.19007,-0.47531 14.33459,-2.27842 14.33459,-2.27842" fill="#5e1d89" stroke="#000000" stroke-width="2.5"/></g></g><g><path d="M185.49245,114.75499c0.49387,-0.27667 0.8395,-0.05809 1.02766,0.14154c0.10072,-0.08877 0.2217,-0.15584 0.35767,-0.19219c0.475,-0.12698 0.9532,0.169 1.06811,0.66109l0.26768,1.14629l-0.44805,0.94433l-0.09703,0.59811c-0.03629,0.25934 -0.178,0.49422 -0.38869,0.642l0.06436,0.58865c0.05661,0.45828 -0.22707,0.90238 -0.66983,1.02074c-0.44276,0.11836 -0.88833,-0.13078 -1.03983,-0.5637l-0.07831,-0.21398c-0.06702,0.03925 -0.13994,0.07012 -0.21778,0.09093c-0.41678,0.11142 -0.83605,-0.1028 -1.01018,-0.48942l-0.29465,-0.61996c-0.13606,0.28967 -0.23588,0.70656 -0.47504,0.65163c-0.25404,-0.05834 -0.2714,-0.40505 -0.32527,-0.72094c-0.00531,0.00204 -0.01065,0.00402 -0.016,0.00597c-0.09491,0.0344 -0.1919,0.04695 -0.2903,0.04465c0.01033,0.11847 0.01182,0.23041 -0.01442,0.30669c-0.22469,0.65316 -1.39275,2.14709 -2.0813,1.93083c-0.5878,-0.18461 -0.71713,-0.98527 -0.98106,-1.60507c-0.06731,0.15854 -0.16042,0.27354 -0.31689,0.2816c-0.41438,0.02136 -0.43402,-0.74617 -0.75073,-1.01942c-0.11498,-0.0992 0.17507,0.32073 0.09852,0.45672c-0.26295,0.46708 -0.52694,1.13179 -1.03906,1.21398c-0.46662,0.07489 -0.88708,-0.45565 -1.30703,-0.74049c-0.2565,0.07388 -0.5671,0.10939 -0.96574,0.08787c-0.58752,0.53621 -1.1103,1.65189 -1.86486,1.51368c-0.54298,-0.09945 -0.295,-1.16651 -0.69853,-1.55305c-0.17669,-0.16925 0.05942,0.60975 -0.14879,0.74142c-0.53707,0.33963 -1.22054,0.68404 -1.81709,0.50174c-0.35281,-0.10782 0.12008,-0.9866 -0.22233,-1.12497c-0.34512,-0.13946 -0.57938,0.78967 -0.92816,0.66007c-0.30648,-0.11388 -0.32755,-0.53735 -0.42162,-0.89787c-0.02337,-0.00969 -0.04657,-0.01997 -0.06961,-0.03082c0.00414,0.04445 0.00192,0.08396 -0.01203,0.10977c-0.26351,0.48738 -0.43888,1.31949 -0.97299,1.33959c-0.68222,0.02568 -1.14316,-0.73154 -1.69625,-1.16273c-0.0482,0.0773 -0.11601,0.11481 -0.21531,0.08838c-0.29021,-0.07722 -0.5054,-0.28077 -0.69156,-0.5332l-0.19786,0.34018c-0.11799,0.20285 -0.30971,0.36006 -0.54721,0.42355c-0.43803,0.1171 -0.8788,-0.12549 -1.03487,-0.54988l-0.03754,-0.09734c-0.07082,0.04036 -0.14585,0.08175 -0.22527,0.12423c-0.80134,0.42859 -0.86863,-1.70351 -0.71733,-0.08549l-0.12567,0.41125c0,0 -0.30395,0.8689 -1.13497,0.56596c-0.43503,-0.15858 -0.55903,-0.47226 -0.57843,-0.7352c-0.02837,0.01086 -0.05752,0.02032 -0.0874,0.02831c-0.43349,0.11589 -0.86966,-0.1205 -1.02992,-0.53673c-0.10633,0.10247 -0.23786,0.17974 -0.38758,0.21976c-0.10377,0.02774 -0.20768,0.03529 -0.30794,0.02503l-0.05614,0.16049c-0.09577,0.28659 -0.32441,0.52048 -0.62768,0.60155c-0.475,0.12698 -0.9532,-0.169 -1.06811,-0.66109c-0.0317,-0.13575 -0.03245,-0.27225 -0.00692,-0.40141l0.02043,-0.1165c-0.20519,-0.11219 -0.36596,-0.30852 -0.43224,-0.55802c-0.1037,0.1699 -0.21209,0.35201 -0.32674,0.55275l-0.47931,0.82405c-0.11799,0.20285 -0.30971,0.36005 -0.54721,0.42354c-0.475,0.12698 -0.95321,-0.169 -1.06812,-0.66109c-0.02741,-0.11738 -0.03167,-0.23531 -0.01582,-0.34858l0.01087,-0.0928c-0.08727,-0.10501 -0.15246,-0.23273 -0.18624,-0.3774c-0.04372,-0.18722 -0.02855,-0.37586 0.03319,-0.54473l0.30195,-0.86318c-0.72506,0.21968 -1.49794,0.40319 -2.36486,0.63221l-0.07487,-0.02321l0.0023,0.03295l-0.97214,0.08847c-0.42945,0.04703 -0.83397,-0.23821 -0.9384,-0.68544c-0.10871,-0.46551 0.14666,-0.93978 0.57668,-1.09714l1.5332,-0.58281l0.081,0.23909c0.55956,-0.26683 1.10271,-0.44448 1.70915,-0.58252c-0.05355,-0.45625 0.2296,-0.89713 0.67052,-1.015c0.10214,-0.02731 0.20443,-0.03505 0.30323,-0.0255l1.0043,0.07249l-0.0006,0.0074c0.00564,-0.00202 0.01127,-0.00405 0.01691,-0.00607l0.01568,0.00679l0.0006,-0.00514l1.35875,0.15094c0.07652,0.00662 0.15102,0.02361 0.22181,0.04994c-0.09593,-0.19943 -0.18947,-0.40015 -0.28135,-0.60157l-0.05317,0.03543l-0.8074,-1.329c-0.05467,-0.08542 -0.09618,-0.18218 -0.12088,-0.288c-0.11491,-0.49209 0.17699,-0.99394 0.65199,-1.12092c0.36168,-0.09669 0.72523,0.05185 0.92883,0.34547l0.69708,0.95796c0.11609,-0.13958 0.27277,-0.24521 0.45699,-0.29446c0.14445,-0.03862 0.2892,-0.03812 0.42394,-0.00488l0.66499,0.1487l-0.11073,-0.18226c-0.05467,-0.08542 -0.09618,-0.18218 -0.12089,-0.288c-0.11491,-0.49209 0.17699,-0.99394 0.65199,-1.12092c0.22903,-0.06123 0.45882,-0.02412 0.64825,0.0859c0.09675,-0.08058 0.21098,-0.14162 0.33839,-0.17568c0.22248,-0.05948 0.44567,-0.02616 0.6319,0.07664c-0.02001,-0.43181 0.25663,-0.83611 0.67599,-0.94822c0.18474,-0.04939 0.36996,-0.0348 0.53411,0.03043c0.0736,-0.32881 0.31798,-0.60617 0.65395,-0.69599c0.30327,-0.08107 0.60784,0.01027 0.81834,0.21498l0.41694,0.39361c0.05699,-0.33522 0.14912,-0.73403 0.3015,-1.19338l1.3669,1.40333c0.01034,-0.08081 0.02235,-0.16156 0.03586,-0.24221l-0.13745,-0.01526l0.16578,-1.41546c0.03582,-0.37925 0.29701,-0.71433 0.67279,-0.81479c0.31877,-0.08522 0.639,0.02006 0.84989,0.24727l0.65402,0.68017c0.218,0.23038 0.44583,0.40247 0.5975,0.63726l0.06333,-0.7795c0.02306,-0.39298 0.28848,-0.74511 0.67537,-0.84853c0.34334,-0.09179 0.68836,0.03741 0.89664,0.30193l0.37093,0.45113l0.07629,-0.65135c0.03582,-0.37925 0.29701,-0.71434 0.67278,-0.8148c0.31287,-0.08364 0.62714,0.01623 0.83806,0.23478l0.51971,0.5209c0.00664,-0.00337 0.01334,-0.00677 0.02008,-0.01019c-0.01781,-0.07386 -0.0268,-0.14257 -0.01825,-0.1896c0.00255,-0.01403 0.00515,-0.02806 0.00779,-0.04207l-0.00529,-0.00038l0.14746,-1.81481c0.02306,-0.39298 0.28848,-0.74511 0.67537,-0.84853c0.36917,-0.09869 0.74028,0.0581 0.94127,0.3639l0.81033,1.17279c-0.02758,-0.20492 -0.02128,-0.41993 0.01011,-0.63925l-0.35384,-0.10092l0.35982,-1.29809c0.08145,-0.3155 0.32103,-0.57875 0.64667,-0.6658c0.29568,-0.07904 0.59262,0.00581 0.80238,0.19984c0.09982,-0.27679 0.32455,-0.5011 0.62023,-0.58015c0.31877,-0.08522 0.639,0.02006 0.84989,0.24727l0.54665,0.56851c0.30252,-0.40476 0.60738,-0.80522 1.05673,-0.93988c0.13002,-0.03897 0.21629,0.08715 0.28986,0.25505c0.06973,-0.30361 0.28518,-0.5626 0.58373,-0.6693l-0.09852,-0.42193c-0.11491,-0.49209 0.17699,-0.99394 0.65199,-1.12093c0.36168,-0.09669 0.72524,0.05185 0.92883,0.34548l0.72966,1.00274l-0.03536,0.02807l0.09874,0.07229c0.00362,0.04173 0.00725,0.08346 0.01087,0.1252l0.03918,-0.01686l0.42011,1.08943c0.0178,0.04409 0.03248,0.09026 0.0437,0.13831c0.11491,0.49209 -0.17699,0.99394 -0.65199,1.12093c-0.04181,0.01118 -0.08364,0.01908 -0.12526,0.02385c-0.11718,0.14674 -0.27825,0.258 -0.46877,0.30893c-0.21377,0.05715 -0.42819,0.02862 -0.60985,-0.06488c-0.0763,0.07611 -0.15368,0.15396 -0.23213,0.23311c-0.00295,0.00315 -0.00599,0.00623 -0.00914,0.00922c-1.17784,1.18853 -2.59622,2.66435 -4.22126,2.91428c-0.19668,0.03025 -0.38762,-0.04109 -0.57776,-0.12628c-0.35349,0.27679 -0.79667,0.15189 -1.25543,-0.04278c-0.86778,0.41138 -1.94895,1.43472 -2.83427,1.97938c-0.02647,0.38944 -0.29082,0.7371 -0.67482,0.83976c-0.21149,0.05654 -0.42361,0.02923 -0.60403,-0.06191l-0.64547,-0.32016c-0.09937,0.14304 -0.28104,0.28835 -0.57478,0.43293c-0.17178,0.36289 -0.35941,0.70461 -0.68357,0.79335c-0.47558,0.13019 -0.90446,-0.63015 -1.38072,-0.50279c-0.1964,0.05252 -0.2936,0.26604 -0.38314,0.49113l0.00171,0.02454c0.03871,0.44594 -0.24176,0.87098 -0.67344,0.98639c-0.22689,0.06066 -0.45452,0.0248 -0.64293,-0.08283c-0.31879,0.10686 -0.6694,0.13763 -1.01214,0.10091c-0.48341,0.35573 -1.18824,-0.04238 -1.81336,-0.16913l0.30749,0.74613c0.02178,0.05034 0.03944,0.10351 0.05244,0.1592c0.11491,0.49209 -0.177,0.99394 -0.65199,1.12093c-0.2375,0.06349 -0.47579,0.02124 -0.66909,-0.0984l-0.32748,-0.20269c-0.11907,0.16889 -0.29298,0.29786 -0.50251,0.35387c-0.08224,0.02199 -0.16457,0.03129 -0.24511,0.0291c-0.0701,0.04247 -0.14686,0.07568 -0.2291,0.09767c-0.1793,0.04793 -0.35904,0.0356 -0.51955,-0.0248l-0.75305,-0.27014l0.25807,0.70515c0.01499,0.0392 0.02753,0.08 0.03739,0.12224c0.00183,0.00785 0.00356,0.0157 0.00519,0.02355c0.15792,-0.02877 0.34238,-0.03805 0.55736,-0.02393c0.50533,0.03319 0.31259,1.1591 0.73995,1.3884l0.09585,-0.32025c0.08623,-0.30664 0.32255,-0.5607 0.64132,-0.64592c0.475,-0.12698 0.9532,0.169 1.06811,0.66109l0.0011,0.00473c0.09665,-0.28456 0.32448,-0.51645 0.62618,-0.59711c0.37818,-0.1011 0.7584,0.06591 0.95568,0.38656c0.63241,-0.45646 1.3834,-0.80247 2.02884,-0.39592c0.38386,0.24179 0.51293,0.97025 0.72049,1.44037c0.11407,-0.00629 0.23722,-0.00598 0.37012,0.00189c0.17182,0.01017 0.25259,0.1617 0.30835,0.35655c1.18989,-0.40746 1.79677,-1.01701 3.2504,-0.80053c0.79475,0.11835 1.39879,0.56698 2.06639,0.77287c0.02383,-0.00847 0.04781,-0.01645 0.07194,-0.02392c0.31032,-0.09607 0.62507,-0.03707 0.93324,0.09477c0.07563,-0.01419 0.15297,-0.03314 0.23224,-0.05737c0.97358,-0.29767 1.67177,-1.35146 2.66901,-1.53832c0.66756,-0.12508 1.29312,0.47109 1.96947,0.4796c0.37077,-0.07922 0.75016,0.00269 1.12235,0.1099c0.13688,-0.12106 0.28808,-0.22445 0.45424,-0.30106c0.33322,-0.48756 0.65785,-1.16696 1.21674,-1.23039c0.36786,-0.04175 0.25958,0.82714 0.54351,1.02643l0.01028,-0.03436c0.06047,-0.21504 0.19475,-0.40423 0.37953,-0.52745c0.035,-0.12877 0.0807,-0.2345 0.16184,-0.26111c0.06687,-0.15689 0.19309,-0.3109 0.41511,-0.43528zM168.05088,117.84642c-0.00713,-0.01084 -0.01423,-0.02169 -0.0213,-0.03253l0.01256,0.05377c0.00282,-0.00708 0.00574,-0.01416 0.00874,-0.02123zM174.02449,119.00196c-0.05249,-0.02737 -0.10451,-0.05527 -0.15636,-0.0833c0.02988,0.06548 0.0658,0.12503 0.11007,0.17609c0.05347,0.06167 0.05633,0.00784 0.04628,-0.09279zM171.9845,118.46259c-0.07232,0.01734 -0.14334,0.04078 -0.21338,0.06885c0.00628,0.15051 0.01764,0.29857 0.0632,0.41883c0.0389,0.10269 -0.07519,-0.25641 0.00325,-0.33285c0.04884,-0.0476 0.09776,-0.09982 0.14693,-0.15483z" fill="url(#color-7)" stroke="none" stroke-width="0.5"/><g><path d="M189.21602,114.68199l-1.45764,-11.33819l4.6879,-0.898l1.45764,11.33819z" fill="url(#color-8)" stroke="none" stroke-width="0"/><path d="M189.96338,115.49625c0,0 -8.31098,1.52384 -13.67927,1.64042c-5.36828,0.11658 -18.29774,-0.946 -18.29774,-0.946c0,0 10.80771,-3.48416 17.43567,-6.50622c6.62796,-3.02205 12.78655,-7.27377 12.78655,-7.27377" fill="#5e1d89" stroke="#000000" stroke-width="2.5"/></g></g></g><g data-paper-data="{&quot;index&quot;:null}" stroke-linecap="butt"><g><path d="M293.75959,79.71603c0.07876,-0.03265 0.17676,0.02023 0.2801,0.09825c0.21638,-0.02515 0.43256,0.0348 0.60669,0.16376l0.02831,0.0202c0.10266,-0.34381 -0.4953,-0.95465 -0.18492,-1.16457c0.47156,-0.31893 1.12547,0.00038 1.6726,0.16336c0.17435,-0.04948 0.35291,-0.06804 0.53081,-0.06329c0.22565,-0.32975 0.47186,-0.64437 0.80665,-0.82679c0.52023,-0.45292 0.65348,-1.33376 1.2459,-1.67598c0.88498,-0.51122 2.05041,-0.1444 2.98256,-0.553c0.07589,-0.03327 0.14717,-0.06941 0.21429,-0.10818c0.16136,-0.30685 0.37091,-0.56083 0.66872,-0.69013c0.02316,-0.01005 0.04651,-0.01962 0.07002,-0.02869c0.39672,-0.60214 0.60051,-1.35291 1.14774,-1.9702c1.0009,-1.12904 1.8327,-1.05082 2.99776,-1.51592c-0.07192,-0.18979 -0.0988,-0.36206 0.02862,-0.48341c0.09856,-0.09386 0.19402,-0.17535 0.28632,-0.24567c-0.11683,-0.50609 -0.4474,-1.16326 -0.29227,-1.60637c0.26083,-0.74508 1.04869,-0.96885 1.80978,-1.02767c-0.03641,-0.38193 0.16011,-0.76393 0.5136,-0.93406c0.282,-0.13572 0.59608,-0.10395 0.83942,0.05573l-0.00194,-0.00444c-0.20177,-0.46222 -0.00541,-1.01013 0.43857,-1.2238c0.29796,-0.1434 0.63174,-0.09983 0.88004,0.08406l0.26383,0.18823c0.19629,-0.46201 -0.61924,-1.21894 -0.24642,-1.5784c0.1586,-0.15292 0.30735,-0.26735 0.44701,-0.34894c-0.00338,-0.00724 -0.00668,-0.01455 -0.0099,-0.02192c-0.01732,-0.03968 -0.0317,-0.07998 -0.04325,-0.12065l-0.2166,-0.72397l-0.42507,0.70897c-0.08893,0.15332 -0.22124,0.2816 -0.38883,0.36225c-0.07687,0.037 -0.15613,0.06155 -0.23568,0.07446c-0.06124,0.05486 -0.13069,0.10187 -0.20756,0.13887c-0.19585,0.09426 -0.40719,0.10773 -0.59954,0.05367l-0.13447,0.37522c-0.07936,0.22146 -0.23945,0.41186 -0.46144,0.5187c-0.44398,0.21367 -0.96748,0.0122 -1.16925,-0.45001c-0.02283,-0.05231 -0.04057,-0.10571 -0.05342,-0.1596l-0.20245,-0.78876c-0.41053,0.51197 -0.72248,1.2896 -1.30828,1.32921c-0.24446,0.25497 -0.53494,0.46213 -0.84572,0.58854c-0.08267,0.20883 -0.23825,0.38716 -0.45033,0.48923c-0.40351,0.19419 -0.87269,0.04548 -1.10635,-0.33022l-0.01319,-0.0204c-0.20265,-0.11767 -0.40441,-0.22119 -0.588,-0.13285c-0.44519,0.21421 -0.32862,1.09421 -0.77495,1.30576c-0.30424,0.14419 -0.65204,-0.00035 -1.00006,-0.17196c-0.31363,0.08027 -0.54064,0.08603 -0.70242,0.03927l-0.31196,0.67725c-0.08621,0.1906 -0.2348,0.35199 -0.43249,0.44713c-0.35894,0.17275 -0.76984,0.07416 -1.0207,-0.21417c-1.00967,0.15643 -2.45452,0.0662 -3.37174,0.3157c-0.24116,0.45553 -0.51148,0.84601 -0.94969,0.86189c-0.09728,0.19234 -0.20338,0.37433 -0.37402,0.48034c-1.40985,0.87589 -3.38418,0.65284 -5.0018,0.49668c-0.00422,-0.00028 -0.0084,-0.00068 -0.01255,-0.00121c-0.10773,-0.01039 -0.21387,-0.02047 -0.31814,-0.02989c-0.08578,0.19328 -0.23544,0.35714 -0.43525,0.45331c-0.17809,0.08571 -0.36898,0.10462 -0.54676,0.0667c-0.03514,0.0237 -0.07231,0.0451 -0.11139,0.06391c-0.44398,0.21367 -0.96748,0.0122 -1.16925,-0.45002c-0.0197,-0.04512 -0.0356,-0.09107 -0.04785,-0.13744l-0.318,-1.13262l0.04039,-0.01261c-0.02186,-0.03516 -0.04373,-0.07031 -0.06559,-0.10547l0.03393,-0.12192l-0.04406,0.00129l-0.02633,-1.26878c-0.01553,-0.36489 0.17897,-0.72138 0.51704,-0.88409c0.44398,-0.21367 0.96748,-0.0122 1.16925,0.45001l0.17301,0.39632c0.29496,-0.1132 0.61545,-0.05197 0.84915,0.14042c-0.04216,-0.18037 -0.04974,-0.33632 0.07428,-0.39151c0.42861,-0.19073 0.9022,-0.07742 1.37651,0.04082l0.08833,-0.80707c0.02942,-0.31754 0.21585,-0.61149 0.51382,-0.75489c0.27638,-0.13301 0.58356,-0.10515 0.82478,0.04633c0.04816,-0.29075 0.22858,-0.55328 0.50496,-0.68629c0.30439,-0.14649 0.64613,-0.09786 0.89597,0.09614l1.04712,0.7819l-0.21511,0.3127c0.15408,0.1515 0.28613,0.31617 0.38589,0.49528l-0.06425,-1.45553c-0.02475,-0.37271 0.17074,-0.74069 0.51581,-0.90676c0.36163,-0.17404 0.776,-0.07266 1.02632,0.2207l1.18777,1.32775l-0.00388,0.00379c0.01034,0.00926 0.02065,0.01856 0.03093,0.0279c0.03445,0.03128 0.0681,0.09117 0.09795,0.16092c0.00725,-0.00176 0.01446,-0.00351 0.02162,-0.00525l0.09557,-0.75191c0.03456,-0.31077 0.21957,-0.59653 0.51202,-0.73727c0.35125,-0.16904 0.75225,-0.07825 1.00436,0.19591l0.44445,0.46112l0.02128,-0.59896c0.00533,-0.34512 0.19687,-0.6742 0.51779,-0.82865c0.36163,-0.17404 0.776,-0.07266 1.02632,0.2207l0.51018,0.5703c-0.02107,-0.28441 0.0541,-0.56986 0.08717,-0.89459l0.10568,-0.96559c0.02941,-0.31754 0.21584,-0.61149 0.51381,-0.75489c0.35125,-0.16904 0.75226,-0.07825 1.00437,0.19591l0.96584,1.00207l-0.09772,0.10268c0.05819,0.05442 0.11526,0.10989 0.17109,0.16652l0.23165,-2.00377c0.39001,0.26015 0.69741,0.51252 0.93991,0.73815l0.09102,-0.58415c0.04242,-0.29963 0.22494,-0.57229 0.50841,-0.70872c0.31404,-0.15114 0.66787,-0.09457 0.91948,0.11505c0.08891,-0.15951 0.22412,-0.29317 0.3968,-0.37628c0.39198,-0.18864 0.84593,-0.05371 1.08575,0.29856c0.08384,-0.20359 0.23747,-0.377 0.44543,-0.47709c0.11909,-0.05732 0.24391,-0.08476 0.3667,-0.08532c0.08207,-0.21137 0.23856,-0.39211 0.45265,-0.49514c0.44398,-0.21367 0.96748,-0.0122 1.16925,0.45002c0.04339,0.0994 0.06837,0.20275 0.07644,0.3059l0.02179,0.21617l0.4285,-0.5555c0.08498,-0.11499 0.19711,-0.21089 0.33213,-0.27587c0.17219,-0.08287 0.35633,-0.1033 0.52904,-0.07028l-0.02516,-1.21213c-0.01552,-0.36489 0.17897,-0.72138 0.51705,-0.88409c0.44398,-0.21367 0.96747,-0.0122 1.16925,0.45002c0.04339,0.0994 0.06837,0.20275 0.07644,0.3059l0.15891,1.57626l-0.06224,0.00726c0.04775,0.21878 0.09382,0.4381 0.13726,0.65799c0.0394,-0.06738 0.0872,-0.12987 0.14272,-0.18556l0.96598,-1.01498l0.0035,0.00364l0.00816,-0.01567c0.00557,-0.00213 0.01114,-0.00426 0.01672,-0.00639l-0.00484,-0.00542l0.7371,-0.71953c0.07108,-0.07269 0.1551,-0.13409 0.25058,-0.18004c0.41213,-0.19835 0.89277,-0.03897 1.121,0.35462c0.5526,-0.29171 1.07949,-0.51057 1.67185,-0.67023l-0.07849,-0.24118l1.53539,-0.55392c0.42703,-0.16015 0.90582,0.04377 1.09669,0.48103c0.18338,0.42007 0.03791,0.91094 -0.32343,1.15735l-0.8073,0.57192l-0.01771,-0.02738l-0.04442,0.06762c-0.80872,0.39214 -1.51748,0.75796 -2.21049,1.06383l0.74498,0.47857c0.14781,0.09186 0.27115,0.22998 0.34792,0.40584c0.05932,0.13589 0.08423,0.27919 0.07855,0.41922l0.06332,0.0657c0.0793,0.07849 0.14573,0.1739 0.19386,0.28415c0.20177,0.46222 0.00542,1.01014 -0.43857,1.22381c-0.22199,0.10684 -0.46386,0.10989 -0.67546,0.02845l-0.85958,-0.33083c-0.20776,-0.08199 -0.39962,-0.15347 -0.58064,-0.21846c0.09606,0.23964 0.08731,0.49987 -0.0057,0.72334l0.08477,0.07801c0.0962,0.08458 0.17635,0.19224 0.23201,0.31976c0.20177,0.46222 0.00542,1.01014 -0.43856,1.22381c-0.28347,0.13643 -0.59935,0.10362 -0.84321,-0.05823l-0.13851,-0.08898c-0.07179,0.07421 -0.15696,0.13684 -0.25396,0.18351c-0.13995,0.06735 -0.28779,0.09346 -0.43097,0.08315c0.12169,0.43257 -0.07725,0.90596 -0.48244,1.10097c-0.02793,0.01344 -0.05617,0.02523 -0.08462,0.03543c0.14043,0.21926 0.22964,0.54738 -0.01443,0.95893c-0.46624,0.78615 -1.21615,0.30441 -1.21615,0.30441l-0.34081,-0.24001c-0.83937,-1.37033 0.36927,0.34824 -0.50653,0.5404c-0.08679,0.01905 -0.16955,0.03605 -0.24842,0.05108l0.02841,0.1012c0.12977,0.4362 -0.06907,0.91749 -0.47851,1.11454c-0.22199,0.10684 -0.46386,0.10989 -0.67545,0.02846l-0.35484,-0.13657c0.00471,0.32104 -0.04204,0.62284 -0.22175,0.87494c-0.0615,0.08626 -0.13634,0.10155 -0.21949,0.07266c-0.17455,0.70349 -0.08472,1.60218 -0.62973,2.03213c-0.42669,0.33661 -1.05499,-0.20108 -1.54786,-0.40993c-0.0261,-0.01106 -0.0512,-0.04062 -0.07426,-0.07825c-0.01147,0.02371 -0.02341,0.04709 -0.03583,0.07013c0.14015,0.34516 0.37422,0.69158 0.20355,0.9832c-0.19422,0.33188 -0.92563,-0.24314 -1.11118,0.09407c-0.1841,0.33456 0.70286,0.71261 0.49262,1.03004c-0.35548,0.53673 -1.08997,0.71721 -1.70792,0.80487c-0.23957,0.03398 -0.51689,-0.73349 -0.55401,-0.48401c-0.0848,0.56975 0.73883,1.24403 0.37596,1.68036c-0.50428,0.60635 -1.57008,0.0752 -2.34347,0.04179c-0.29686,0.27992 -0.55909,0.45696 -0.80198,0.56817c-0.15769,0.50074 -0.17048,1.19474 -0.57715,1.44379c-0.44634,0.27334 -1.04446,-0.07443 -1.5249,-0.26771c-0.13987,-0.05627 -0.16295,-0.57738 -0.19358,-0.42362c-0.08437,0.42351 0.35429,1.03915 0.01983,1.29577c-0.12628,0.0969 -0.2666,0.06802 -0.41263,-0.01205c0.16156,0.66081 0.53463,1.37484 0.1873,1.90762c-0.40686,0.62409 -2.1975,0.22168 -2.75826,-0.14296c-0.06549,-0.04259 -0.13053,-0.13147 -0.19257,-0.23131c-0.07506,0.06673 -0.1578,0.12087 -0.25186,0.15648c-0.00531,0.00201 -0.01063,0.00397 -0.01596,0.00588c0.14498,0.28359 0.33653,0.56728 0.17374,0.78069c-0.15326,0.20092 -0.47731,-0.06057 -0.75429,-0.19825l0.13781,0.68121c0.0934,0.41846 -0.10551,0.8633 -0.49509,1.05079c-0.07276,0.03502 -0.14765,0.05888 -0.2229,0.07228l0.06572,0.21969c0.13837,0.43989 -0.06033,0.92948 -0.47419,1.12866c-0.41386,0.19918 -0.89681,0.03763 -1.12386,-0.35957l-0.29814,-0.50469c-0.25102,0.02297 -0.49998,-0.06797 -0.68154,-0.24766l-0.42906,-0.40563l-0.90643,-0.4459l-0.47002,-1.0767c-0.20177,-0.46222 -0.00541,-1.01013 0.43857,-1.2238c0.1271,-0.06117 0.26072,-0.08832 0.39144,-0.08507c0.02807,-0.2809 0.16723,-0.68057 0.7144,-0.78916c0.24598,-0.04882 0.43509,-0.01116 0.5798,0.06791zM308.57292,70.57911l-0.02204,-0.05049c0.00092,0.01318 0.00182,0.02638 0.0027,0.0396c0.00652,0.00357 0.01297,0.0072 0.01935,0.0109zM304.68852,75.45909c0.00419,-0.0693 -0.00315,-0.13976 -0.01866,-0.21089c-0.02369,0.05621 -0.04759,0.11245 -0.07217,0.16857c0.05171,0.08564 0.08577,0.12602 0.09082,0.04232zM306.0687,73.67194c0.10612,0.00827 0.22987,0.36552 0.19936,0.25922c-0.03573,-0.12449 -0.11448,-0.24824 -0.19861,-0.37057c-0.071,0.02416 -0.14001,0.05263 -0.20643,0.08672c0.07072,0.01075 0.1396,0.01948 0.20568,0.02463z" fill="url(#color-9)" stroke="none" stroke-width="0.5"/><g><path d="M286.07301,84.43528l-5.57323,-9.86469l4.1718,-2.38779l5.57323,9.8647z" fill="url(#color-10)" stroke="none" stroke-width="0"/><path d="M283.7701,71.74713c0,0 7.29732,-0.72469 14.23195,-2.72462c6.93464,-1.99993 17.38866,-6.39465 17.38866,-6.39465c0,0 -9.41294,9.36478 -13.65102,12.81506c-4.23808,3.45028 -11.59377,7.73703 -11.59377,7.73703" fill="#5e1d89" stroke="#000000" stroke-width="2.5"/></g></g><g><path d="M297.86341,96.26104c0.0847,-0.00398 0.16152,0.07935 0.23573,0.18825c0.21297,0.05 0.39973,0.18031 0.52553,0.36144l0.02069,0.02872c0.20243,-0.28966 -0.17822,-1.07028 0.18039,-1.16271c0.54482,-0.14042 1.06763,0.38398 1.5369,0.72439c0.18053,0.01272 0.35561,0.05604 0.52294,0.12117c0.31483,-0.23445 0.64454,-0.44763 1.0179,-0.50576c0.63193,-0.25035 1.02749,-1.03669 1.69409,-1.1579c0.99579,-0.18108 1.98938,0.56257 2.99856,0.49448c0.08217,-0.00554 0.16082,-0.01538 0.23636,-0.02911c0.24685,-0.23475 0.52325,-0.40316 0.8453,-0.42373c0.02505,-0.0016 0.05011,-0.00266 0.07519,-0.00322c0.56035,-0.43336 0.98309,-1.07283 1.69086,-1.46919c1.29453,-0.72495 2.05978,-0.36754 3.3072,-0.4096c-0.01024,-0.20373 0.01688,-0.37557 0.17485,-0.44672c0.12219,-0.05503 0.23765,-0.09944 0.34671,-0.13438c0.04379,-0.51771 -0.06903,-1.25094 0.21353,-1.61648c0.47511,-0.61465 1.29094,-0.55741 2.03097,-0.35352c0.08215,-0.37306 0.3853,-0.66679 0.77265,-0.70694c0.30901,-0.03203 0.59728,0.10502 0.77935,0.33876l-0.00048,-0.00485c-0.0502,-0.50523 0.30349,-0.95569 0.78999,-1.00612c0.32649,-0.03384 0.62984,0.12108 0.80923,0.37936l0.19279,0.26767c0.32738,-0.36935 -0.21505,-1.36209 0.24848,-1.57444c0.19719,-0.09033 0.37327,-0.14768 0.5307,-0.17712c-0.00099,-0.00799 -0.00189,-0.01602 -0.00269,-0.02408c-0.00431,-0.04336 -0.00565,-0.08633 -0.00418,-0.12867l0.01572,-0.75746l-0.61989,0.52456c-0.13121,0.11446 -0.29593,0.19049 -0.47957,0.20953c-0.08423,0.00873 -0.16693,0.0049 -0.24635,-0.01003c-0.07486,0.03092 -0.15511,0.05165 -0.23935,0.06038c-0.21461,0.02224 -0.41922,-0.03707 -0.58519,-0.15368l-0.24221,0.30848c-0.14297,0.18207 -0.353,0.30729 -0.59626,0.33251c-0.4865,0.05043 -0.9216,-0.31827 -0.97179,-0.8235c-0.00568,-0.05718 -0.00619,-0.11365 -0.00192,-0.16892l0.04893,-0.81381c-0.5459,0.3435 -1.07945,0.97147 -1.64731,0.80919c-0.30983,0.15743 -0.64871,0.25402 -0.98217,0.26746c-0.14224,0.169 -0.34433,0.28437 -0.57672,0.30846c-0.44215,0.04583 -0.84183,-0.25452 -0.94872,-0.68894l-0.00627,-0.02375c-0.15631,-0.18019 -0.3161,-0.34673 -0.51726,-0.32588c-0.48781,0.05052 -0.64608,0.92122 -1.13417,0.96883c-0.33269,0.03245 -0.61849,-0.22258 -0.89623,-0.50326c-0.32207,-0.03111 -0.53921,-0.10305 -0.67839,-0.20234l-0.50288,0.53318c-0.14003,0.15059 -0.33032,0.25234 -0.54693,0.27479c-0.39331,0.04077 -0.75302,-0.19239 -0.90292,-0.55017c-1.00568,-0.19645 -2.34887,-0.77415 -3.29529,-0.8512c-0.36798,0.34794 -0.74373,0.62451 -1.16433,0.49013c-0.15106,0.14846 -0.30733,0.28415 -0.5016,0.32609c-1.60517,0.34651 -3.4101,-0.5371 -4.89705,-1.23595c-0.00392,-0.0017 -0.00777,-0.00351 -0.01155,-0.00543c-0.09904,-0.04654 -0.19665,-0.09223 -0.29269,-0.13666c-0.14044,0.15327 -0.33249,0.25699 -0.55144,0.27969c-0.19515,0.02023 -0.38202,-0.02698 -0.5391,-0.12339c-0.04058,0.01041 -0.08238,0.01794 -0.1252,0.02238c-0.4865,0.05043 -0.92159,-0.31826 -0.97179,-0.8235c-0.0049,-0.04932 -0.00595,-0.09813 -0.00341,-0.1461l0.04436,-1.1779l0.04219,0.00186c-0.01,-0.04065 -0.02,-0.08131 -0.03,-0.12196l0.06944,-0.10355l-0.04219,-0.0138l0.36268,-1.20706c0.09676,-0.34985 0.39021,-0.62018 0.76065,-0.65858c0.4865,-0.05043 0.92159,0.31826 0.97179,0.82349l0.04305,0.43321c0.31442,-0.00635 0.59978,0.16071 0.76271,0.42204c0.01511,-0.18469 0.05557,-0.33454 0.19009,-0.34437c0.4649,-0.034 0.87958,0.23443 1.29345,0.50776l0.33039,-0.73199c0.12493,-0.28982 0.39162,-0.50383 0.71812,-0.53768c0.30285,-0.03139 0.58577,0.09963 0.76833,0.32489c0.13452,-0.25813 0.3859,-0.44453 0.68876,-0.47592c0.33353,-0.03458 0.64289,0.12784 0.82065,0.39619l0.75452,1.09526l-0.29963,0.22195c0.09989,0.19558 0.17486,0.39608 0.21479,0.59922l0.38376,-1.39633c0.0904,-0.36038 0.38829,-0.64121 0.76641,-0.68041c0.39626,-0.04108 0.75842,0.1959 0.90626,0.55824l0.72118,1.65863l-0.00484,0.00225c0.00698,0.01226 0.01393,0.02457 0.02083,0.03689c0.02313,0.04129 0.03675,0.1093 0.04376,0.18533c0.00742,0.00081 0.01479,0.00162 0.02211,0.00242l0.3204,-0.67744c0.12773,-0.28167 0.39057,-0.48844 0.71103,-0.52166c0.38488,-0.0399 0.73758,0.18253 0.89299,0.52735l0.28077,0.58692l0.2032,-0.55833c0.1105,-0.32407 0.39277,-0.56952 0.74442,-0.60598c0.39626,-0.04108 0.75841,0.1959 0.90625,0.55824l0.30977,0.71242c0.06692,-0.27575 0.22545,-0.51967 0.35603,-0.81503l0.39529,-0.87576c0.12493,-0.28982 0.39161,-0.50383 0.71811,-0.53768c0.38488,-0.0399 0.73759,0.18253 0.893,0.52735l0.61013,1.27545l-0.12408,0.06364c0.03857,0.07122 0.07578,0.14306 0.11143,0.21556l0.83201,-1.81314c0.29051,0.3786 0.50504,0.72169 0.66617,1.0174l0.26484,-0.52057c0.13178,-0.26847 0.38826,-0.46373 0.69888,-0.49593c0.34412,-0.03567 0.66251,0.13835 0.83717,0.42206c0.13309,-0.12032 0.30222,-0.20044 0.49143,-0.22006c0.42952,-0.04452 0.81895,0.23764 0.93884,0.65202c0.14174,-0.16366 0.34048,-0.27505 0.56835,-0.29866c0.1305,-0.01353 0.2573,0.00311 0.37396,0.04444c0.14244,-0.17162 0.34615,-0.28894 0.58072,-0.31326c0.48651,-0.05043 0.92159,0.31826 0.97179,0.8235c0.01079,0.10864 0.00291,0.21476 -0.02095,0.3149l-0.04537,0.21156l0.57625,-0.37848c0.11576,-0.07962 0.25143,-0.13195 0.39939,-0.14729c0.18868,-0.01956 0.36963,0.02392 0.52339,0.11396l0.34649,-1.15315c0.09676,-0.34985 0.39021,-0.62018 0.76066,-0.65858c0.4865,-0.05043 0.92159,0.31826 0.97179,0.8235c0.0108,0.10864 0.00292,0.21476 -0.02094,0.3149l-0.33085,1.54259l-0.06127,-0.01436c-0.02154,0.22286 -0.04485,0.44567 -0.07083,0.66811c0.05796,-0.05019 0.12241,-0.09292 0.1921,-0.12657l1.22656,-0.62915l0.00221,0.00463l0.01253,-0.01201c0.00594,-0.00011 0.01187,-0.00023 0.01781,-0.00034l-0.00294,-0.00677l0.91914,-0.42818c0.08964,-0.04441 0.18812,-0.07375 0.29273,-0.08459c0.4516,-0.04681 0.8589,0.26752 0.95517,0.71697c0.61339,-0.0871 1.18013,-0.11415 1.7909,-0.063l-0.00077,-0.2545l1.6259,0.00031c0.45406,-0.00566 0.84599,0.35009 0.89348,0.82805c0.04563,0.45918 -0.24235,0.8731 -0.66045,0.98261l-0.94065,0.26487l-0.00843,-0.03189l-0.06281,0.0487c-0.88705,0.09462 -1.67124,0.19848 -2.42217,0.25108l0.56055,0.70584c0.11217,0.13714 0.18698,0.3096 0.20608,0.50182c0.01476,0.14853 -0.00539,0.29234 -0.05357,0.42264l0.04,0.08362c0.05125,0.10114 0.08512,0.21389 0.0971,0.3344c0.0502,0.50523 -0.30349,0.95568 -0.79,1.00611c-0.24326,0.02522 -0.47365,-0.05434 -0.64951,-0.20337l-0.71441,-0.6054c-0.17205,-0.14823 -0.33225,-0.28114 -0.48412,-0.40421c0.01792,0.25903 -0.06988,0.50178 -0.2264,0.68109l0.05659,0.10255c0.06543,0.11266 0.10856,0.24165 0.12241,0.38103c0.0502,0.50523 -0.30349,0.95568 -0.79,1.00611c-0.31061,0.0322 -0.60028,-0.10645 -0.78218,-0.3424l-0.10422,-0.13124c-0.09078,0.0456 -0.19071,0.07571 -0.297,0.08673c-0.15335,0.0159 -0.30158,-0.00985 -0.43427,-0.06839c-0.01671,0.44994 -0.3501,0.82913 -0.79409,0.87516c-0.0306,0.00317 -0.061,0.00468 -0.09111,0.00462c0.06624,0.25491 0.05061,0.59516 -0.30669,0.90057c-0.68253,0.58342 -1.24679,-0.12709 -1.24679,-0.12709l-0.25,-0.34282c-0.37763,-1.58008 0.24393,0.45471 -0.64567,0.33763c-0.08817,-0.01161 -0.17187,-0.02376 -0.25129,-0.03645l-0.00396,0.10524c-0.01016,0.45613 -0.34586,0.84283 -0.79451,0.88933c-0.24326,0.02522 -0.47365,-0.05435 -0.64951,-0.20337l-0.29492,-0.24992c-0.09362,0.30475 -0.23019,0.57381 -0.47771,0.7506c-0.0847,0.0605 -0.16038,0.04942 -0.23043,-0.00621c-0.38054,0.60479 -0.5699,1.48403 -1.21833,1.70423c-0.50765,0.1724 -0.93945,-0.54948 -1.34324,-0.9147c-0.02138,-0.01934 -0.03616,-0.0558 -0.04654,-0.0992c-0.01813,0.01848 -0.0366,0.0365 -0.05542,0.05401c0.0275,0.37369 0.14372,0.78059 -0.1073,0.99779c-0.28566,0.24718 -0.80387,-0.54511 -1.08294,-0.28994c-0.27688,0.25316 0.44909,0.91248 0.15265,1.14056c-0.50125,0.38564 -1.25321,0.30572 -1.86626,0.17785c-0.23766,-0.04957 -0.26627,-0.86881 -0.37772,-0.64589c-0.25454,0.5091 0.32084,1.42655 -0.15674,1.71487c-0.66368,0.40067 -1.51254,-0.46417 -2.23606,-0.75935c-0.36716,0.16312 -0.67003,0.24092 -0.93445,0.26314c-0.3026,0.41908 -0.52678,1.07005 -0.9887,1.16661c-0.50696,0.10597 -0.96815,-0.42631 -1.36489,-0.77258c-0.11551,-0.10081 0.02182,-0.60076 -0.05422,-0.46601c-0.20945,0.37116 0.01861,1.10201 -0.3771,1.23033c-0.14941,0.04845 -0.27371,-0.02664 -0.38779,-0.15203c-0.04863,0.67906 0.08714,1.48046 -0.40516,1.86516c-0.57667,0.45064 -2.15253,-0.53973 -2.57313,-1.07519c-0.04912,-0.06253 -0.08366,-0.16863 -0.11202,-0.28405c-0.0916,0.03743 -0.18664,0.06034 -0.28676,0.0619c-0.00565,0.00008 -0.0113,0.00012 -0.01693,0.00011c0.0509,0.31721 0.14595,0.65039 -0.07369,0.79642c-0.20679,0.13748 -0.43433,-0.2199 -0.65504,-0.44432l-0.07739,0.69022c-0.03924,0.42699 -0.36388,0.77922 -0.79076,0.82347c-0.07972,0.00826 -0.15806,0.00527 -0.23356,-0.00773l-0.00477,0.22985c-0.00314,0.46254 -0.34124,0.85713 -0.79473,0.90414c-0.45349,0.047 -0.86231,-0.27016 -0.95636,-0.72263l-0.12865,-0.57818c-0.24516,-0.06387 -0.45357,-0.23461 -0.57091,-0.46618l-0.28313,-0.52928l-0.7237,-0.73003l-0.11694,-1.17691c-0.0502,-0.50523 0.30349,-0.95569 0.78999,-1.00612c0.13927,-0.01444 0.27433,0.00548 0.39736,0.05311c0.11246,-0.25567 0.3666,-0.58564 0.91888,-0.50167c0.24828,0.03775 0.41619,0.13777 0.52931,0.26177zM314.70877,92.68266l-0.00549,-0.0552c-0.00315,0.01276 -0.00633,0.02554 -0.00954,0.03831c0.00509,0.00559 0.0101,0.01122 0.01503,0.01689zM309.53254,95.96663c0.02515,-0.06401 0.03973,-0.13304 0.04674,-0.2055c-0.03964,0.04501 -0.0795,0.08996 -0.11997,0.13457c0.02289,0.0985 0.04286,0.14824 0.07323,0.07093zM311.38798,94.74954c0.09815,0.04399 0.1064,0.4235 0.10994,0.31273c0.00413,-0.12973 -0.03276,-0.27343 -0.0752,-0.41762c-0.07474,-0.00138 -0.14891,0.00197 -0.22234,0.01152c0.06381,0.03426 0.12649,0.06598 0.1876,0.09337z" fill="url(#color-11)" stroke="none" stroke-width="0.5"/><g><path d="M289.12908,98.09721l-2.27337,-11.21474l4.68743,-0.8327l2.27337,11.21473z" fill="url(#color-12)" stroke="none" stroke-width="0"/><path d="M290.82101,85.3311c0,0 7.14452,1.80311 14.33459,2.27842c7.19007,0.47531 18.45075,-0.11109 18.45075,-0.11109c0,0 -11.79153,5.63438 -16.86647,7.44776c-5.07494,1.81338 -13.36318,3.35395 -13.36318,3.35395" fill="#5e1d89" stroke="#000000" stroke-width="2.5"/></g></g><g><path d="M294.92265,113.73722c0.08114,0.02661 0.12684,0.13233 0.16184,0.2611c0.18478,0.12322 0.31907,0.31241 0.37954,0.52745l0.01028,0.03437c0.28393,-0.19929 0.17565,-1.06819 0.54351,-1.02643c0.55889,0.06343 0.88352,0.74283 1.21675,1.23039c0.16616,0.07661 0.31736,0.17999 0.45425,0.30105c0.37219,-0.10721 0.75158,-0.18912 1.12235,-0.1099c0.67634,-0.00851 1.30191,-0.60469 1.96947,-0.4796c0.99724,0.18685 1.69543,1.24065 2.669,1.53832c0.07927,0.02424 0.15661,0.04318 0.23224,0.05737c0.30817,-0.13184 0.62292,-0.19085 0.93324,-0.09477c0.02414,0.00747 0.04811,0.01545 0.07195,0.02392c0.6676,-0.20589 1.27163,-0.65451 2.06639,-0.77287c1.45362,-0.21648 2.06052,0.39307 3.2504,0.80052c0.05577,-0.19484 0.13653,-0.34638 0.30836,-0.35655c0.1329,-0.00786 0.25604,-0.00817 0.37011,-0.00189c0.20756,-0.47012 0.33663,-1.19858 0.72049,-1.44037c0.64544,-0.40656 1.39643,-0.06054 2.02884,0.39592c0.19728,-0.32064 0.57749,-0.48766 0.95567,-0.38655c0.3017,0.08065 0.52953,0.31255 0.62618,0.5971l0.0011,-0.00473c0.11491,-0.49209 0.59312,-0.78807 1.06812,-0.66109c0.31877,0.08522 0.55509,0.33928 0.64131,0.64592l0.09586,0.32024c0.42735,-0.2293 0.23461,-1.35521 0.73994,-1.3884c0.21498,-0.01412 0.39944,-0.00485 0.55736,0.02393c0.00163,-0.00785 0.00336,-0.01571 0.00519,-0.02356c0.00986,-0.04224 0.0224,-0.08303 0.03739,-0.12223l0.25807,-0.70515l-0.75305,0.27015c-0.1605,0.0604 -0.34025,0.07273 -0.51955,0.0248c-0.08224,-0.02199 -0.15899,-0.05521 -0.2291,-0.09767c-0.08053,0.00219 -0.16286,-0.00711 -0.24511,-0.0291c-0.20954,-0.05602 -0.38344,-0.18498 -0.50252,-0.35387l-0.32748,0.20268c-0.19329,0.11964 -0.43158,0.16189 -0.66908,0.0984c-0.47499,-0.12698 -0.76691,-0.62884 -0.65199,-1.12092c0.01301,-0.05569 0.03066,-0.10886 0.05244,-0.1592l0.30749,-0.74613c-0.62512,0.12676 -1.32995,0.52486 -1.81336,0.16913c-0.34274,0.03672 -0.69335,0.00595 -1.01214,-0.10091c-0.18842,0.10763 -0.41604,0.14349 -0.64293,0.08283c-0.43168,-0.11541 -0.71215,-0.54045 -0.67345,-0.98639l0.00172,-0.02453c-0.08954,-0.22509 -0.18675,-0.43861 -0.38315,-0.49113c-0.47626,-0.12736 -0.90513,0.63299 -1.38072,0.50279c-0.32416,-0.08874 -0.51179,-0.43046 -0.68357,-0.79335c-0.29374,-0.14458 -0.4754,-0.28989 -0.57477,-0.43293l-0.64547,0.32015c-0.18042,0.09114 -0.39254,0.11844 -0.60403,0.06191c-0.384,-0.10266 -0.64835,-0.45033 -0.67482,-0.83976c-0.88532,-0.54465 -1.9665,-1.56799 -2.83427,-1.97937c-0.45876,0.19467 -0.90194,0.31956 -1.25543,0.04278c-0.19014,0.08519 -0.38108,0.15654 -0.57775,0.12628c-1.62504,-0.24993 -3.04342,-1.72576 -4.22125,-2.91429c-0.00315,-0.003 -0.0062,-0.00608 -0.00914,-0.00923c-0.07845,-0.07914 -0.15584,-0.157 -0.23214,-0.23311c-0.18167,0.0935 -0.39608,0.12203 -0.60985,0.06489c-0.19052,-0.05093 -0.3516,-0.16219 -0.46877,-0.30894c-0.04161,-0.00477 -0.08344,-0.01267 -0.12525,-0.02385c-0.475,-0.12698 -0.7669,-0.62884 -0.65199,-1.12093c0.01122,-0.04805 0.0259,-0.09422 0.0437,-0.13831l0.42011,-1.08943l0.03918,0.01686c0.00362,-0.04173 0.00725,-0.08346 0.01087,-0.12519l0.09874,-0.07229l-0.03536,-0.02807l0.72966,-1.00274c0.2036,-0.29363 0.56715,-0.44216 0.92884,-0.34547c0.47499,0.12698 0.7669,0.62883 0.65199,1.12092l-0.09852,0.42193c0.29855,0.1067 0.514,0.36569 0.58374,0.6693c0.07356,-0.1679 0.15983,-0.29401 0.28985,-0.25504c0.44934,0.13466 0.7542,0.53512 1.05672,0.93988l0.54665,-0.56852c0.21089,-0.2272 0.53112,-0.33249 0.84989,-0.24727c0.29568,0.07904 0.52041,0.30335 0.62023,0.58015c0.20976,-0.19403 0.50669,-0.27888 0.80237,-0.19984c0.32564,0.08706 0.56523,0.3503 0.64668,0.6658l0.35982,1.29809l-0.35385,0.10093c0.0314,0.21932 0.0377,0.43433 0.01012,0.63925l0.81032,-1.1728c0.20098,-0.30579 0.5721,-0.46258 0.94127,-0.36389c0.38689,0.10342 0.6523,0.45556 0.67537,0.84854l0.14746,1.81481l-0.00529,0.00038c0.00265,0.01401 0.00523,0.02803 0.00779,0.04207c0.00856,0.04703 -0.00044,0.11575 -0.01825,0.1896c0.00674,0.00342 0.01343,0.00681 0.02008,0.01019l0.51971,-0.5209c0.21092,-0.21855 0.52519,-0.31842 0.83806,-0.23478c0.37577,0.10046 0.63697,0.43555 0.67278,0.8148l0.07629,0.65135l0.37092,-0.45113c0.20828,-0.26451 0.5533,-0.39371 0.89664,-0.30192c0.38689,0.10342 0.65231,0.45556 0.67537,0.84853l0.06334,0.7795c0.15166,-0.23478 0.37949,-0.40688 0.59749,-0.63726l0.65402,-0.68017c0.21089,-0.22721 0.53112,-0.33249 0.84989,-0.24727c0.37577,0.10046 0.63696,0.43554 0.67278,0.81479l0.16578,1.41546l-0.13745,0.01526c0.01351,0.08065 0.02551,0.1614 0.03585,0.24221l1.36691,-1.40334c0.15239,0.45935 0.24452,0.85817 0.3015,1.19338l0.41694,-0.39361c0.2105,-0.20471 0.51508,-0.29605 0.81834,-0.21498c0.33598,0.08982 0.58035,0.36719 0.65395,0.69599c0.16415,-0.06522 0.34937,-0.07981 0.53411,-0.03043c0.41935,0.1121 0.696,0.5164 0.67598,0.94822c0.18624,-0.1028 0.40942,-0.13611 0.63191,-0.07664c0.12741,0.03406 0.24165,0.0951 0.33839,0.17568c0.18944,-0.11002 0.41923,-0.14713 0.64826,-0.0859c0.475,0.12698 0.7669,0.62883 0.65199,1.12092c-0.02471,0.10582 -0.06622,0.20257 -0.12089,0.288l-0.11073,0.18225l0.66499,-0.1487c0.13474,-0.03324 0.27949,-0.03373 0.42394,0.00488c0.18421,0.04924 0.3409,0.15488 0.45698,0.29445l0.69709,-0.95796c0.2036,-0.29363 0.56714,-0.44217 0.92883,-0.34548c0.47499,0.12698 0.7669,0.62883 0.65199,1.12092c-0.02471,0.10582 -0.06622,0.20257 -0.12089,0.28799l-0.8074,1.329l-0.05316,-0.03542c-0.09188,0.20141 -0.18542,0.40213 -0.28135,0.60156c0.07079,-0.02633 0.14529,-0.04332 0.2218,-0.04994l1.35876,-0.15095l0.0006,0.00514l0.01568,-0.00678c0.00563,0.00202 0.01127,0.00405 0.01691,0.00606l-0.0006,-0.0074l1.00431,-0.07249c0.09879,-0.00955 0.20108,-0.00181 0.30323,0.0255c0.44092,0.11787 0.72407,0.55876 0.67052,1.015c0.60643,0.13804 1.14959,0.31569 1.70915,0.58252l0.08099,-0.2391l1.53321,0.58281c0.43002,0.15736 0.68538,0.63162 0.57667,1.09714c-0.10444,0.44723 -0.50894,0.73248 -0.9384,0.68545l-0.97214,-0.08846l0.0023,-0.03296l-0.07487,0.02321c-0.86692,-0.22902 -1.63981,-0.41253 -2.36487,-0.63221l0.30195,0.86318c0.06174,0.16887 0.07691,0.3575 0.03319,0.54473c-0.03378,0.14468 -0.09896,0.2724 -0.18624,0.37741l0.01087,0.0928c0.01585,0.11327 0.01158,0.2312 -0.01583,0.34858c-0.11491,0.49209 -0.59312,0.78806 -1.06811,0.66108c-0.2375,-0.06349 -0.42923,-0.2207 -0.54721,-0.42354l-0.47931,-0.82405c-0.11465,-0.20074 -0.22303,-0.38285 -0.32674,-0.55275c-0.06628,0.24949 -0.22705,0.44583 -0.43224,0.55802l0.02044,0.11651c0.02552,0.12916 0.02477,0.26566 -0.00693,0.40141c-0.11491,0.49209 -0.59312,0.78806 -1.06811,0.66108c-0.30327,-0.08107 -0.5319,-0.31496 -0.62768,-0.60154l-0.05614,-0.16049c-0.10025,0.01027 -0.20417,0.00271 -0.30794,-0.02503c-0.14972,-0.04003 -0.28125,-0.11729 -0.38759,-0.21976c-0.16026,0.41624 -0.59642,0.65262 -1.02991,0.53673c-0.02988,-0.00799 -0.05903,-0.01745 -0.0874,-0.02831c-0.0194,0.26294 -0.1434,0.57662 -0.57843,0.7352c-0.83102,0.30293 -1.13497,-0.56597 -1.13497,-0.56597l-0.12567,-0.41125c0.1513,-1.61802 0.08401,0.51409 -0.71733,0.08549c-0.07942,-0.04247 -0.15444,-0.08387 -0.22527,-0.12423l-0.03753,0.09734c-0.15607,0.42438 -0.59683,0.66697 -1.03487,0.54987c-0.2375,-0.06349 -0.42923,-0.2207 -0.54721,-0.42354l-0.19786,-0.34018c-0.18616,0.25243 -0.40135,0.45598 -0.69156,0.5332c-0.09931,0.02643 -0.16712,-0.01109 -0.21532,-0.08839c-0.55309,0.43119 -1.01403,1.18841 -1.69624,1.16273c-0.53411,-0.0201 -0.70948,-0.85221 -0.97299,-1.33958c-0.01395,-0.02581 -0.01618,-0.06532 -0.01204,-0.10977c-0.02304,0.01085 -0.04624,0.02113 -0.06961,0.03082c-0.09408,0.36052 -0.11515,0.78399 -0.42163,0.89787c-0.34877,0.12961 -0.58303,-0.79952 -0.92816,-0.66007c-0.34241,0.13837 0.13049,1.01716 -0.22233,1.12498c-0.59654,0.1823 -1.28002,-0.16212 -1.81709,-0.50174c-0.2082,-0.13166 0.0279,-0.91067 -0.14878,-0.74142c-0.40353,0.38654 -0.15555,1.45359 -0.69853,1.55304c-0.75456,0.1382 -1.27733,-0.97747 -1.86486,-1.51368c-0.39864,0.02152 -0.70925,-0.01398 -0.96574,-0.08787c-0.41995,0.28485 -0.84041,0.81538 -1.30703,0.74049c-0.51213,-0.0822 -0.77612,-0.74691 -1.03906,-1.21399c-0.07655,-0.13599 0.2135,-0.55592 0.09852,-0.45671c-0.31671,0.27325 -0.33635,1.04077 -0.75072,1.01941c-0.15647,-0.00806 -0.24957,-0.12306 -0.31689,-0.2816c-0.26393,0.6198 -0.39326,1.42046 -0.98107,1.60507c-0.68855,0.21625 -1.85662,-1.27768 -2.0813,-1.93084c-0.02624,-0.07628 -0.02476,-0.18821 -0.01443,-0.30669c-0.0984,0.00231 -0.19538,-0.01024 -0.2903,-0.04465c-0.00536,-0.00195 -0.01069,-0.00393 -0.01601,-0.00597c-0.05387,0.3159 -0.07123,0.6626 -0.32527,0.72094c-0.23917,0.05493 -0.33898,-0.36196 -0.47505,-0.65163l-0.29465,0.61996c-0.17413,0.38662 -0.5934,0.60084 -1.01018,0.48942c-0.07784,-0.02081 -0.15076,-0.05167 -0.21778,-0.09092l-0.07831,0.21397c-0.1515,0.43292 -0.59706,0.68206 -1.03982,0.5637c-0.44276,-0.11837 -0.72644,-0.56246 -0.66983,-1.02074l0.06436,-0.58865c-0.21069,-0.14778 -0.3524,-0.38265 -0.38869,-0.642l-0.09703,-0.5981l-0.44804,-0.94434l0.26767,-1.14629c0.11491,-0.49209 0.59312,-0.78806 1.06812,-0.66108c0.13597,0.03635 0.25695,0.10342 0.35767,0.19219c0.18815,-0.19962 0.5338,-0.41822 1.02766,-0.14155c0.22202,0.12437 0.34824,0.27839 0.41511,0.43528zM311.95786,116.41461l0.01256,-0.05376c-0.00707,0.01084 -0.01418,0.02169 -0.02131,0.03253c0.003,0.00707 0.00592,0.01416 0.00875,0.02124zM306.02179,117.64171c0.04427,-0.05106 0.08018,-0.11062 0.11007,-0.1761c-0.05184,0.02803 -0.10386,0.05593 -0.15635,0.0833c-0.01005,0.10063 -0.00719,0.15446 0.04628,0.0928zM308.16242,117.16437c0.07844,0.07644 -0.03566,0.43554 0.00324,0.33285c0.04556,-0.12025 0.05692,-0.26832 0.0632,-0.41883c-0.07004,-0.02807 -0.14106,-0.05151 -0.21338,-0.06885c0.04918,0.05501 0.0981,0.10723 0.14694,0.15483z" fill="url(#color-13)" stroke="none" stroke-width="0.5"/><g><path d="M286.09607,112.33095l1.45764,-11.3382l4.6879,0.898l-1.45764,11.33819z" fill="url(#color-14)" stroke="none" stroke-width="0"/><path d="M291.79139,100.95764c0,0 6.1586,4.25172 12.78656,7.27377c6.62795,3.02205 17.43567,6.50621 17.43567,6.50621c0,0 -12.92945,1.06257 -18.29774,0.94599c-5.36829,-0.11658 -13.67927,-1.64042 -13.67927,-1.64042" fill="#5e1d89" stroke="#000000" stroke-width="2.5"/></g></g></g><path d="M216.57618,305.38283l-0.29061,5.23096" fill="none" stroke="#000000" stroke-width="2.5" stroke-linecap="round"/><path d="M226.90134,306.20718l-0.02052,5.23898" fill="none" stroke="#000000" stroke-width="2.5" stroke-linecap="round"/><path d="M253.34675,311.44615l-0.02052,-5.23898" data-paper-data="{&quot;index&quot;:null}" fill="none" stroke="#000000" stroke-width="2.5" stroke-linecap="round"/><path d="M262.95986,305.34801l0.51463,5.21368" data-paper-data="{&quot;index&quot;:null}" fill="none" stroke="#000000" stroke-width="2.5" stroke-linecap="round"/></g></g></svg>