<svg version="1.1" xmlns="http://www.w3.org/2000/svg" xmlns:xlink="http://www.w3.org/1999/xlink" width="140.19917" height="285.70903" viewBox="0,0,140.19917,285.70903"><defs><linearGradient x1="211.39512" y1="87.92818" x2="211.39512" y2="128.80145" gradientUnits="userSpaceOnUse" id="color-1"><stop offset="0" stop-color="#000000"/><stop offset="1" stop-color="#1a1a1a"/></linearGradient><linearGradient x1="218.88263" y1="100.22189" x2="218.88263" y2="116.51574" gradientUnits="userSpaceOnUse" id="color-2"><stop offset="0" stop-color="#fae76b"/><stop offset="1" stop-color="#d2c25d"/></linearGradient><linearGradient x1="261.45169" y1="87.7715" x2="261.45169" y2="128.64476" gradientUnits="userSpaceOnUse" id="color-3"><stop offset="0" stop-color="#000000"/><stop offset="1" stop-color="#1a1a1a"/></linearGradient><linearGradient x1="272.40916" y1="99.90856" x2="272.40916" y2="116.20237" gradientUnits="userSpaceOnUse" id="color-4"><stop offset="0" stop-color="#fae76b"/><stop offset="1" stop-color="#d2c25d"/></linearGradient></defs><g transform="translate(-169.90042,-37.14549)"><g data-paper-data="{&quot;isPaintingLayer&quot;:true}" fill-rule="nonzero" stroke-linejoin="miter" stroke-miterlimit="10" stroke-dasharray="" stroke-dashoffset="0" style="mix-blend-mode: normal"><path d="M263.77961,161.45991c12.77677,-6.77055 26.40242,-3.73535 30.43373,6.77929c4.03131,10.51464 -3.05829,24.52705 -15.83506,31.2976c-12.77677,6.77055 -26.40242,3.73535 -30.43373,-6.77929c-4.03131,-10.51464 3.05829,-24.52705 15.83506,-31.2976z" data-paper-data="{&quot;index&quot;:null}" fill="#e6e2cc" stroke="#000000" stroke-width="2.5" stroke-linecap="butt"/><path d="M222.21334,192.7575c-4.03131,10.51464 -17.65696,13.54984 -30.43373,6.77929c-12.77677,-6.77055 -19.86637,-20.78296 -15.83506,-31.2976c4.03131,-10.51464 17.65696,-13.54984 30.43373,-6.77929c12.77677,6.77055 19.86637,20.78296 15.83506,31.2976z" fill="#e6e2cc" stroke="#000000" stroke-width="2.5" stroke-linecap="butt"/><g stroke-linecap="butt"><path d="M290.69117,285.57749l5.15468,-5.44787l9.97271,14.89623z" fill="#5d5a43" stroke="#000000" stroke-width="2.5"/><g><path d="M241.99788,218.78917c15.48435,-10.99164 39.02924,-4.41675 52.58903,14.68544c13.55978,19.10218 11.99961,43.49804 -3.48472,54.48967c-15.48435,10.99164 -39.02924,4.41675 -52.58903,-14.68544c-13.55978,-19.10218 -11.99961,-43.49804 3.48472,-54.48967z" fill="#e5dda5" stroke="none" stroke-width="0"/><path d="M241.99788,218.78917c1.36817,-0.9712 2.79925,-1.80524 4.28084,-2.50563c0.25044,1.01907 0.51087,2.03639 0.78887,3.05058c0.44463,1.62206 2.04964,4.56652 1.34227,6.27794c-0.90783,2.19636 -3.7339,3.0563 -4.87689,5.22958c-1.22866,2.33616 -1.3243,5.13632 -2.40072,7.52583c-6.23101,1.15103 -6.53418,2.14343 -8.73077,7.67371c-0.26041,0.6556 -1.49037,1.395 -3.04114,2.098c-0.72391,-11.87699 3.56869,-22.91246 12.63754,-29.35003z" fill="#5d5a43" stroke="none" stroke-width="0"/><path d="M289.24676,227.08814c-2.85614,0.36697 -5.64074,1.03294 -7.61623,2.24543c-4.72522,2.90019 -5.92309,11.92515 -7.66588,16.54851c-2.67511,3.05174 -7.7158,1.93402 -10.87361,4.86904c-3.70884,3.44717 -2.43761,10.35836 -8.20194,10.52734c-6.37912,1.96334 -5.12603,6.71542 -8.61071,11.03876c-0.75357,0.93495 -3.85588,2.20549 -6.21013,3.04288c-0.53159,-0.6762 -1.05029,-1.37003 -1.55514,-2.08124c-2.15148,-3.03087 -3.92231,-6.19498 -5.31727,-9.41771c3.31218,-0.29259 6.81784,-0.46644 8.7987,-1.81883c3.23709,-2.21001 1.43495,-7.05375 4.80646,-9.36993c1.67376,-1.21604 4.23156,-1.30553 5.54572,-3.07903c1.29485,-1.74741 1.01606,-4.9292 2.61369,-6.3972c5.52167,-5.07359 9.04262,-3.15734 10.56132,-12.00675c0.89823,-5.29334 2.43265,-10.7977 4.25088,-16.12276c6.94556,2.08837 13.73057,6.17752 19.47411,12.02149z" fill="#5d5a43" stroke="none" stroke-width="0"/><path d="M303.70027,258.03226c-1.07002,0.05293 -2.13949,0.10027 -3.2081,0.13658c-3.24506,0.11021 -5.81612,-0.29647 -7.91541,2.54605c-0.46432,2.51945 -1.5924,7.51387 -3.27985,9.46801c-1.36365,1.57918 -5.99315,0.15624 -7.62156,1.27326c-3.92339,2.69127 0.50139,6.33873 -4.52353,7.86472c-2.52096,0.76943 -7.70791,2.186 -9.1069,4.66545c-1.07009,1.89654 0.89307,3.25402 0.03003,4.56179c-1.06037,1.60679 -4.01689,2.11533 -6.94444,2.40941c-2.88575,-1.04895 -5.72713,-2.44315 -8.45979,-4.16458c2.17178,-0.64058 4.83388,-1.51162 6.07967,-2.74758c1.98296,-1.96732 0.93751,-6.75751 3.17926,-8.1981c1.69354,-1.0883 4.04977,-1.8991 5.99377,-2.49101c5.55566,-1.69158 3.08427,-5.82577 4.69195,-10.23935c0.23702,-0.65071 5.23515,-1.38525 6.08371,-1.5687c4.97256,-1.07492 7.41383,-1.6144 8.33039,-7.06157c0.41669,-1.29429 0.73123,-4.83852 1.96765,-5.6436c2.28673,-1.48897 6.74839,-1.88631 9.40976,-2.61868c0.83765,-0.2305 1.6846,-0.4753 2.53917,-0.72656c1.53106,4.1673 2.4458,8.39803 2.75426,12.53451z" fill="#5d5a43" stroke="none" stroke-width="0"/><g stroke="none" stroke-width="0"><path d="M294.5869,233.47461c13.55978,19.10218 11.99961,43.49804 -3.48472,54.48967c-13.81192,9.80446 -34.03722,5.6321 -47.86864,-8.94066c9.39722,1.78477 19.47947,-0.11034 27.89527,-6.08434c16.41004,-11.64875 20.26982,-34.39488 8.62107,-50.80492c-1.22893,-1.73123 -2.58138,-3.32278 -4.03686,-4.77118c7.07644,3.36129 13.70158,8.82501 18.87389,16.11144z" fill="#cdc693"/><path d="" fill="#5d5a43"/><path d="M289.24676,227.08814c-2.09659,0.26937 -4.15461,0.69987 -5.88234,1.38937c-0.9716,-2.18924 -2.17457,-4.31461 -3.61455,-6.34316c-1.22893,-1.73123 -2.58136,-3.3228 -4.03686,-4.77118c4.82721,2.29292 9.44444,5.56417 13.53372,9.72497z" fill="#494735"/><path d="M303.70027,258.03226c-1.07,0.05294 -2.13949,0.10027 -3.2081,0.13658c-3.24506,0.11021 -5.81612,-0.29647 -7.91541,2.54605c-0.4643,2.51944 -1.59241,7.51385 -3.27987,9.46799c-1.36365,1.57918 -5.99315,0.15624 -7.62156,1.27326c-3.9234,2.69125 0.50138,6.33871 -4.52354,7.8647c-2.52094,0.76944 -7.70791,2.186 -9.10691,4.66544c-1.07009,1.89654 0.89307,3.25402 0.03005,4.56178c-1.06039,1.6068 -4.01688,2.11535 -6.94446,2.40942c-2.88575,-1.04895 -5.72713,-2.44315 -8.45978,-4.16461c2.17178,-0.64058 4.83388,-1.51162 6.07966,-2.7476c1.33411,-1.32359 1.29742,-3.92495 1.81327,-5.9243c3.68422,-1.11192 7.2537,-2.83106 10.56515,-5.18171c4.65344,-3.30327 8.29767,-7.49892 10.86524,-12.18944c2.81182,-0.86076 4.34994,-2.18969 5.03537,-6.26325c0.4167,-1.2943 0.73123,-4.83852 1.96765,-5.6436c2.28673,-1.48897 6.74839,-1.88631 9.40976,-2.61868c0.83765,-0.2305 1.6846,-0.4753 2.53914,-0.72657c1.53106,4.1673 2.4458,8.39803 2.75426,12.53451z" fill="#494735"/></g><path d="M241.99788,218.78915c15.48435,-10.99164 39.02924,-4.41675 52.58903,14.68544c13.55978,19.10218 11.99961,43.49804 -3.48472,54.48967c-15.48435,10.99164 -39.02924,4.41675 -52.58903,-14.68544c-13.55978,-19.10218 -11.99961,-43.49804 3.48472,-54.48967z" fill="none" stroke="#000000" stroke-width="2.5"/></g></g><g data-paper-data="{&quot;index&quot;:null}" stroke-linecap="butt"><path d="M268.3368,318.59173c-0.70541,0.86421 -7.82717,2.19121 -14.83966,2.72674c-7.12077,0.54381 -14.45543,0.32249 -15.70054,-0.75192c-1.52555,-1.31639 0,-96.43665 0,-96.43665h27.63161c0,0 0.92524,22.97176 1.30086,36.57334c0.26592,9.62908 1.4922,32.69525 2.00298,45.62665c0.39952,10.11458 0.2484,11.47332 -0.39524,12.26184z" fill="#e5dda5" stroke="#000000" stroke-width="0"/><path d="M265.4282,224.12988c0,0 0.23196,5.75929 0.51076,13.21785c0.05148,1.37708 0.15805,4.27943 0.15805,4.27943c0,0 -7.77388,6.4454 -13.31282,9.52178c-5.53893,3.07638 -15.2567,4.46595 -15.2567,4.46595l0.2691,-31.485h27.63161z" fill="#cdc693" stroke="#000000" stroke-width="0"/><path d="M268.33682,317.93838c-0.70541,1.05162 -7.82717,2.66639 -14.83966,3.31805c-7.12077,0.66174 -14.45543,0.39241 -15.70054,-0.91499c-0.44485,-0.4671 -0.66972,-33.20719 -0.66972,-33.20719c0,0 8.90189,0.45745 15.28597,-0.93815c6.38408,-1.3956 15.26981,-5.74151 15.26981,-5.74151c0,0 0.86877,16.99938 1.04937,22.56289c0.39952,12.30799 0.2484,13.96138 -0.39524,14.9209z" fill="#5d5a43" stroke="#000000" stroke-width="0"/><path d="M267.35175,275.64248c0,0 -8.41645,2.89616 -14.32931,4.02558c-5.91286,1.12943 -15.33735,1.64109 -15.33735,1.64109v-7.66667c0,0 7.96642,-0.51853 14.1473,-1.90749c6.18087,-1.38896 15.51936,-4.75917 15.51936,-4.75917z" fill="#5d5a43" stroke="none" stroke-width="0"/><path d="M267.0184,260.9758c0,0 -8.47042,3.64315 -14.3293,5.02558c-5.85888,1.38243 -15.33735,1.97442 -15.33735,1.97442v-5.66666c0,0 7.80053,-0.60067 14.1473,-2.24084c6.34676,-1.64017 15.51936,-5.42582 15.51936,-5.42582z" fill="#5d5a43" stroke="none" stroke-width="0"/><path d="M268.33682,318.59174c-0.70541,0.86421 -7.82717,2.19121 -14.83966,2.72674c-7.12077,0.54381 -14.45543,0.32248 -15.70054,-0.75193c-0.44485,-0.38386 -0.66972,-27.28934 -0.66972,-27.28934c0,0 7.80056,10.09691 16.95264,7.89571c9.93315,-2.38905 13.60314,-20.71832 13.60314,-20.71832c0,0 0.86877,21.30325 1.04937,25.87529c0.39952,10.11458 0.2484,11.47332 -0.39524,12.26184z" fill="#494735" stroke="#000000" stroke-width="0"/><path d="M268.3368,318.59173c-0.70541,0.86421 -7.82717,2.19121 -14.83966,2.72674c-7.12077,0.54381 -14.45543,0.32249 -15.70054,-0.75192c-1.52555,-1.31639 0,-96.43665 0,-96.43665h27.63161c0,0 0.92524,22.97176 1.30086,36.57334c0.26592,9.62908 1.4922,32.69525 2.00298,45.62665c0.39952,10.11458 0.2484,11.47332 -0.39524,12.26184z" fill="none" stroke="#000000" stroke-width="2.5"/></g><g stroke-linecap="butt"><path d="M204.03138,318.59173c-0.64364,-0.78852 -0.79476,-2.14726 -0.39524,-12.26184c0.51078,-12.9314 1.73706,-35.99757 2.00298,-45.62665c0.37562,-13.60158 1.30086,-36.57334 1.30086,-36.57334h27.63161c0,0 1.52555,95.12026 0,96.43665c-1.24511,1.07441 -8.57977,1.29573 -15.70054,0.75192c-7.01249,-0.53553 -14.13425,-1.86253 -14.83966,-2.72674z" fill="#e5dda5" stroke="#000000" stroke-width="0"/><path d="M206.93998,224.12989h27.63161l0.2691,31.485c0,0 -9.71777,-1.38957 -15.2567,-4.46595c-5.53894,-3.07638 -13.31282,-9.52178 -13.31282,-9.52178c0,0 0.10657,-2.90235 0.15805,-4.27943c0.2788,-7.45856 0.51076,-13.21785 0.51076,-13.21785z" fill="#cdc693" stroke="#000000" stroke-width="0"/><path d="M204.03138,317.93836c-0.64364,-0.95952 -0.79476,-2.61291 -0.39524,-14.9209c0.1806,-5.56351 1.04937,-22.56289 1.04937,-22.56289c0,0 8.88573,4.34591 15.26981,5.74151c6.38408,1.3956 15.28597,0.93815 15.28597,0.93815c0,0 -0.22487,32.74009 -0.66972,33.20719c-1.24511,1.3074 -8.57977,1.57673 -15.70054,0.91499c-7.01249,-0.65166 -14.13425,-2.26643 -14.83966,-3.31805z" fill="#5d5a43" stroke="#000000" stroke-width="0"/><path d="M205.01645,266.9758c0,0 9.33848,3.37021 15.51936,4.75917c6.18088,1.38896 14.1473,1.9075 14.1473,1.9075v7.66667c0,0 -9.42449,-0.51166 -15.33736,-1.64108c-5.91287,-1.12942 -14.32931,-4.02559 -14.32931,-4.02559z" fill="#5d5a43" stroke="none" stroke-width="0"/><path d="M205.34978,254.64248c0,0 9.17259,3.78565 15.51936,5.42583c6.34677,1.64018 14.1473,2.24084 14.1473,2.24084v5.66666c0,0 -9.47848,-0.59198 -15.33736,-1.97442c-5.85888,-1.38243 -14.3293,-5.02559 -14.3293,-5.02559z" fill="#5d5a43" stroke="none" stroke-width="0"/><path d="M204.03139,318.59173c-0.64364,-0.78852 -0.79476,-2.14726 -0.39524,-12.26184c0.1806,-4.57204 1.04937,-25.87529 1.04937,-25.87529c0,0 3.66999,18.32927 13.60314,20.71832c9.15208,2.2012 16.95264,-7.89571 16.95264,-7.89571c0,0 -0.22487,26.90548 -0.66972,27.28934c-1.24511,1.07441 -8.57977,1.29574 -15.70054,0.75193c-7.01249,-0.53553 -14.13425,-1.86253 -14.83966,-2.72674z" fill="#494735" stroke="#000000" stroke-width="0"/><path d="M204.03138,318.59173c-0.64364,-0.78852 -0.79476,-2.14726 -0.39524,-12.26184c0.51078,-12.9314 1.73706,-35.99757 2.00298,-45.62665c0.37562,-13.60158 1.30086,-36.57334 1.30086,-36.57334h27.63161c0,0 1.52555,95.12026 0,96.43665c-1.24511,1.07441 -8.57977,1.29573 -15.70054,0.75192c-7.01249,-0.53553 -14.13425,-1.86253 -14.83966,-2.72674z" fill="none" stroke="#000000" stroke-width="2.5"/></g><g data-paper-data="{&quot;index&quot;:null}" stroke="#000000" stroke-linecap="butt"><path d="M256.66517,170.74558c-0.14011,-5.1338 0.68499,-8.24964 3.86319,-9.0039c2.84166,-0.67439 4.99033,0.41185 7.70968,4.92034c5.55384,9.20785 15.19275,39.17893 17.24298,41.55662c2.05613,2.38453 5.16798,3.98565 8.91181,8.68022c3.94715,4.94951 5.9154,11.53003 4.09273,14.10962c-2.73891,3.87634 -8.44149,-1.47732 -8.44149,-1.47732c0,0 0.74777,8.52385 -3.62722,9.81236c-4.34626,1.28004 -8.56787,-5.08439 -8.56787,-5.08439c0,0 -2.10108,7.66398 -7.15265,5.96523c-4.34953,-1.46266 -2.73881,-12.53454 -2.73881,-12.53454c0,0 -6.41825,2.21831 -8.43016,-1.48223c-1.89243,-3.48078 4.07905,-9.00233 6.46303,-11.80212c1.95786,-2.29934 -9.0829,-34.78046 -9.32523,-43.65991z" data-paper-data="{&quot;index&quot;:null}" fill="#e5dda5" stroke-width="0"/><path d="M263.42233,199.82946c-0.5207,-1.99068 -1.07947,-4.07714 -1.64452,-6.18755c1.56549,-0.87443 3.31024,-1.55636 4.79113,-2.29189c2.6589,-1.32063 7.50201,-2.08593 10.50674,-2.06346c0.15242,0.00114 0.45164,-0.03054 0.7979,-0.08178c0.78736,2.09029 1.55337,4.14407 2.27965,6.08527c-0.24762,0.02282 -0.49474,0.05183 -0.74009,0.08608c-5.80166,0.80982 -11.01096,0.87064 -15.9908,4.45333z" data-paper-data="{&quot;index&quot;:null}" fill="#5d5a43" stroke-width="0"/><path d="M275.50748,183.00774c-4.83158,0.45594 -11.69657,2.98094 -15.28189,4.79896c-0.2748,-1.04665 -0.54385,-2.08275 -0.80319,-3.09934c-0.21455,-0.84101 -0.62145,-2.47787 -0.62145,-2.47787c0,0 4.45735,-2.38855 7.25558,-3.26024c2.79823,-0.87169 7.33361,-1.28454 7.33361,-1.28454c0,0 0.93414,2.30828 1.40404,3.5002c0.23774,0.60306 0.47566,1.2113 0.7133,1.82283z" data-paper-data="{&quot;index&quot;:null}" fill="#5d5a43" stroke-width="0"/><path d="M266.1717,212.33415c-0.13638,-1.42608 -0.53674,-3.46975 -1.10072,-5.9042c2.08051,-1.54234 4.68475,-3.43235 5.94018,-3.82833c3.24677,-1.02408 6.06557,-1.12899 9.31936,-1.31506c0.08662,-0.00495 1.17684,0.13824 2.19438,0.27166c0.99059,2.56188 1.81787,4.58554 2.40207,5.74063c-1.11366,-0.1517 -2.25064,-0.23006 -3.40593,-0.23006c-5.78595,0 -11.11284,1.96555 -15.34933,5.26537z" data-paper-data="{&quot;index&quot;:null}" fill="#5d5a43" stroke-width="0"/><g fill="#cdc693" stroke-width="0"><path d="" data-paper-data="{&quot;index&quot;:null}"/><path d="M267.75846,229.64599c2.53199,2.76626 6.00865,4.65347 9.91918,5.15083c-0.59247,1.71312 -2.7536,6.84924 -6.98131,5.42754c-3.19413,-1.07412 -3.17397,-7.33036 -2.93787,-10.57837z" data-paper-data="{&quot;index&quot;:null}"/><path d="M286.41685,239.34351c-3.5127,1.03455 -6.94399,-2.92434 -8.13093,-4.48092c0.48175,0.04297 0.96955,0.06492 1.46247,0.06492c3.92915,0 7.5326,-1.39451 10.34242,-3.71559c-0.03246,2.55207 -0.53297,7.20653 -3.67396,8.1316z" data-paper-data="{&quot;index&quot;:null}"/><path d="M298.48557,231.00848c-2.02792,2.87007 -5.68052,0.68022 -7.44024,-0.65012c2.94744,-2.85117 4.8189,-6.80783 4.94613,-11.20172c2.843,4.53031 4.0503,9.64938 2.4941,11.85184z" data-paper-data="{&quot;index&quot;:null}"/><path d="M259.52735,226.20759c-1.3844,-2.54635 1.43965,-6.18484 3.98899,-9.05097c-0.01193,0.25546 -0.01796,0.51247 -0.01796,0.77089c0,0.12534 0.00142,0.25034 0.00424,0.375c-0.00282,0.12466 -0.00424,0.24966 -0.00424,0.375c0,3.50144 1.10743,6.74423 2.99114,9.39721c-2.01851,0.41612 -5.56017,0.71157 -6.96216,-1.86713z" data-paper-data="{&quot;index&quot;:null}"/></g><path d="M256.66517,170.74558c-0.14011,-5.1338 0.68499,-8.24964 3.86319,-9.0039c2.84166,-0.67439 4.99033,0.41185 7.70968,4.92034c5.55384,9.20785 15.19275,39.17893 17.24298,41.55662c2.05613,2.38453 5.16798,3.98565 8.91181,8.68022c3.94715,4.94951 5.9154,11.53003 4.09273,14.10962c-2.73891,3.87634 -8.44149,-1.47732 -8.44149,-1.47732c0,0 0.74777,8.52385 -3.62722,9.81236c-4.34626,1.28004 -8.56787,-5.08439 -8.56787,-5.08439c0,0 -2.10108,7.66398 -7.15265,5.96523c-4.34953,-1.46266 -2.73881,-12.53454 -2.73881,-12.53454c0,0 -6.41825,2.21831 -8.43016,-1.48223c-1.89243,-3.48078 4.07905,-9.00233 6.46303,-11.80212c1.95786,-2.29934 -9.0829,-34.78046 -9.32523,-43.65991z" data-paper-data="{&quot;index&quot;:null}" fill="none" stroke-width="2.5"/></g><g stroke="#000000" stroke-linecap="butt"><path d="M213.6557,171.74556c-0.24233,8.87945 -11.28309,41.36057 -9.32523,43.65991c2.38398,2.79979 8.35546,8.32134 6.46303,11.80212c-2.01191,3.70054 -8.43016,1.48223 -8.43016,1.48223c0,0 1.61072,11.07188 -2.73881,12.53454c-5.05157,1.69875 -7.15265,-5.96523 -7.15265,-5.96523c0,0 -4.22161,6.36443 -8.56787,5.08439c-4.37499,-1.28851 -3.62722,-9.81236 -3.62722,-9.81236c0,0 -5.70258,5.35366 -8.44149,1.47732c-1.82267,-2.57959 0.14558,-9.16011 4.09273,-14.10962c3.74383,-4.69457 6.85568,-6.29569 8.91181,-8.68022c2.05023,-2.37769 11.68914,-32.34877 17.24298,-41.55662c2.71935,-4.50849 4.86802,-5.59473 7.70968,-4.92034c3.1782,0.75426 4.0033,3.8701 3.86319,9.0039z" data-paper-data="{&quot;index&quot;:null}" fill="#e5dda5" stroke-width="0"/><path d="M206.89852,200.82946c-4.97984,-3.58269 -10.18914,-3.64351 -15.9908,-4.45333c-0.24535,-0.03425 -0.49247,-0.06326 -0.74009,-0.08608c0.72628,-1.9412 1.49229,-3.99498 2.27965,-6.08527c0.34626,0.05124 0.64548,0.08292 0.7979,0.08178c3.00473,-0.02247 7.84784,0.74283 10.50674,2.06346c1.48089,0.73553 3.22564,1.41746 4.79113,2.29189c-0.56505,2.11041 -1.12382,4.19687 -1.64452,6.18755z" data-paper-data="{&quot;index&quot;:null}" fill="#5d5a43" stroke-width="0"/><path d="M195.52668,182.18491c0.4699,-1.19192 1.40404,-3.5002 1.40404,-3.5002c0,0 4.53538,0.41285 7.33361,1.28454c2.79823,0.87169 7.25558,3.26024 7.25558,3.26024c0,0 -0.4069,1.63686 -0.62145,2.47787c-0.25934,1.01659 -0.52839,2.05269 -0.80319,3.09934c-3.58532,-1.81802 -10.45031,-4.34302 -15.28189,-4.79896c0.23764,-0.61153 0.47556,-1.21977 0.7133,-1.82283z" data-paper-data="{&quot;index&quot;:null}" fill="#5d5a43" stroke-width="0"/><path d="M204.14914,213.33416c-4.23649,-3.29982 -9.56338,-5.26537 -15.34933,-5.26537c-1.15529,0 -2.29227,0.07836 -3.40593,0.23006c0.5842,-1.15509 1.41148,-3.17875 2.40207,-5.74063c1.01754,-0.13342 2.10776,-0.27661 2.19438,-0.27166c3.25379,0.18607 6.07259,0.29098 9.31936,1.31506c1.25543,0.39598 3.85967,2.28599 5.94018,3.82833c-0.56398,2.43445 -0.96434,4.47812 -1.10072,5.9042z" data-paper-data="{&quot;index&quot;:null}" fill="#5d5a43" stroke-width="0"/><g fill="#cdc693" stroke-width="0"><path d="" data-paper-data="{&quot;index&quot;:null}"/><path d="M199.62453,241.22436c-4.22771,1.4217 -6.38884,-3.71442 -6.98131,-5.42754c3.91053,-0.49736 7.38719,-2.38457 9.91918,-5.15083c0.2361,3.24801 0.25626,9.50425 -2.93787,10.57837z" data-paper-data="{&quot;index&quot;:null}"/><path d="M183.90401,240.34352c-3.14099,-0.92507 -3.6415,-5.57953 -3.67396,-8.1316c2.80982,2.32108 6.41327,3.71559 10.34242,3.71559c0.49292,0 0.98072,-0.02195 1.46247,-0.06492c-1.18694,1.55658 -4.61823,5.51547 -8.13093,4.48092z" data-paper-data="{&quot;index&quot;:null}"/><path d="M171.83529,232.00848c-1.5562,-2.20246 -0.3489,-7.32153 2.4941,-11.85184c0.12723,4.39389 1.99869,8.35055 4.94613,11.20172c-1.75972,1.33034 -5.41232,3.52019 -7.44024,0.65012z" data-paper-data="{&quot;index&quot;:null}"/><path d="M210.7935,227.20759c-1.40199,2.5787 -4.94365,2.28325 -6.96216,1.86713c1.88371,-2.65298 2.99114,-5.89577 2.99114,-9.39721c0,-0.12534 -0.00142,-0.25034 -0.00424,-0.375c0.00282,-0.12466 0.00424,-0.24966 0.00424,-0.375c0,-0.25842 -0.00603,-0.51543 -0.01796,-0.77089c2.54934,2.86613 5.37339,6.50462 3.98899,9.05097z" data-paper-data="{&quot;index&quot;:null}"/></g><path d="M213.65571,171.74556c-0.24233,8.87945 -11.28309,41.36057 -9.32523,43.65991c2.38398,2.79979 8.35546,8.32134 6.46303,11.80212c-2.01191,3.70054 -8.43016,1.48223 -8.43016,1.48223c0,0 1.61072,11.07188 -2.73881,12.53454c-5.05157,1.69875 -7.15265,-5.96523 -7.15265,-5.96523c0,0 -4.22161,6.36443 -8.56787,5.08439c-4.37499,-1.28851 -3.62722,-9.81236 -3.62722,-9.81236c0,0 -5.70258,5.35366 -8.44149,1.47732c-1.82267,-2.57959 0.14558,-9.16011 4.09273,-14.10962c3.74383,-4.69457 6.85568,-6.29569 8.91181,-8.68022c2.05023,-2.37769 11.68914,-32.34877 17.24298,-41.55662c2.71935,-4.50849 4.86802,-5.59473 7.70968,-4.92034c3.1782,0.75426 4.0033,3.8701 3.86319,9.0039z" data-paper-data="{&quot;index&quot;:null}" fill="none" stroke-width="2.5"/></g><g stroke="#000000" stroke-linecap="butt"><path d="M273.00523,199.62602c0,28.94338 -16.75076,49.11653 -37.41387,49.11653c-20.66311,0 -36.49686,-19.23312 -37.41387,-48.1765c-0.91651,-28.92812 16.75076,-56.63677 37.41387,-56.63677c20.66311,0 37.41387,26.75336 37.41387,55.69674z" fill="#cdc693" stroke-width="0"/><path d="M267.04473,191.3839c0,24.66028 -13.97149,41.84817 -31.20618,41.84817c-17.23469,0 -30.44133,-16.38697 -31.20619,-41.04725c-0.21879,-7.05428 3.76498,-20.37838 3.76498,-20.37838c0,0 16.28192,6.59069 27.44119,6.43391c11.15928,-0.15678 27.05968,-7.22537 27.05968,-7.22537c0,0 4.14651,13.25672 4.14651,20.36892z" fill="#e5dda5" stroke-width="0"/><path d="M273.00523,199.62602c0,28.94338 -16.75076,49.11653 -37.41387,49.11653c-20.66311,0 -36.49686,-19.23312 -37.41387,-48.1765c-0.91651,-28.92812 16.75076,-56.63677 37.41387,-56.63677c20.66311,0 37.41387,26.75336 37.41387,55.69674z" fill="none" stroke-width="2.5"/></g><path d="M253.13768,216.61935c0,0 0.29251,-14.64387 0.29251,-21.30612c0,-3.55702 -0.36493,-9.0778 -0.4377,-13.72772c-0.07349,-4.69587 0.14518,-8.50357 0.14518,-8.50357h12.87075c0,0 -0.13852,4.81214 0.01145,10.54561c0.14234,5.44169 0.57358,11.04665 0.57358,14.82173c0,6.25842 -0.58503,17.29932 -0.58503,17.29932c0,0 -2.99621,-0.13063 -4.80385,-0.00834c-2.34245,0.15847 -8.0669,0.87909 -8.0669,0.87909z" fill="#494735" stroke="#000000" stroke-width="2.5" stroke-linecap="butt"/><path d="M243.49337,220.41527c0,0 0.33333,-14.40813 0.33333,-22c0,-4.05334 -0.41585,-10.34447 -0.49877,-15.64321c-0.08374,-5.35111 0.16544,-9.69012 0.16544,-9.69012h14.66667c0,0 -0.15785,5.4836 0.01305,12.01709c0.1622,6.201 0.65362,13.34774 0.65362,17.64957c0,7.13169 -0.66667,19.33334 -0.66667,19.33334z" fill="#494735" stroke="#000000" stroke-width="2.5" stroke-linecap="butt"/><g stroke="#000000" stroke-linecap="butt"><g stroke-width="0"><path d="M201.78924,175.78405c0,0 -1.29717,-2.55801 -1.61092,-5.70349c-0.16038,-1.60787 0.21721,-3.36924 0.31253,-5.02092c0.11319,-1.96142 -0.03494,-3.76813 -0.03494,-4.97939c0,-2.86166 1.33333,-7.19877 1.33333,-7.19877h67.66667c0,0 0.40438,2.14021 0.48086,4.85354c0.04464,1.58357 -0.57553,3.69633 -0.54021,5.69245c0.03525,1.99226 0.72602,3.86832 0.72602,4.98612c0,3.25447 -0.66667,7.37046 -0.66667,7.37046c0,0 -5.74753,-1.06945 -12.97795,-0.52772c-6.00122,0.44964 -13.024,2.52772 -18.62991,2.52772c-6.37811,0 -15.77554,-2.53257 -23.3778,-3.04806c-7.13004,-0.48348 -12.68101,1.04806 -12.68101,1.04806z" fill="#5d5a43"/><path d="M269.4559,152.88149c0,0 0.40438,2.14021 0.48087,4.85353c0.04464,1.58356 -0.57553,3.69633 -0.54022,5.69245c0.03525,1.99226 0.72602,3.86832 0.72602,4.98611c0,3.25447 -0.66667,7.37047 -0.66667,7.37047c0,0 -5.74753,-1.06946 -12.97795,-0.52772c-1.68115,0.12596 -3.44246,0.37971 -5.23034,0.67977c5.06582,-3.35685 8.40623,-9.10891 8.40623,-15.64116c0,-2.63319 -0.5428,-5.13961 -1.52261,-7.41346z" fill="#494735"/><path d="M201.78924,175.78405c0,0 -1.29717,-2.55802 -1.61092,-5.7035c-0.16038,-1.60787 0.21721,-3.36924 0.31253,-5.02092c0.1132,-1.96141 -0.03494,-3.76814 -0.03494,-4.97939c0,-2.86166 1.33333,-7.19877 1.33333,-7.19877h13.22056c-0.97981,2.27385 -1.52261,4.78026 -1.52261,7.41346c0,6.30309 3.11015,11.87977 7.87953,15.2791c-2.37101,-0.37414 -4.70811,-0.68967 -6.89647,-0.83805c-7.13004,-0.48347 -12.681,1.04807 -12.681,1.04807z" fill="#494735"/></g><path d="M201.78924,175.78406c0,0 -1.29717,-2.55801 -1.61092,-5.70349c-0.16038,-1.60787 0.21721,-3.36924 0.31253,-5.02092c0.11319,-1.96141 -0.03494,-3.76814 -0.03494,-4.97939c0,-2.86166 1.33333,-7.19876 1.33333,-7.19876h67.66667c0,0 0.40438,2.14021 0.48086,4.85353c0.04464,1.58356 -0.57553,3.69633 -0.54021,5.69245c0.03524,1.99226 0.72602,3.86832 0.72602,4.98611c0,3.25447 -0.66667,7.37046 -0.66667,7.37046c0,0 -5.74753,-1.06945 -12.97796,-0.52772c-6.00123,0.44964 -13.024,2.52772 -18.62991,2.52772c-6.37811,0 -15.77554,-2.53257 -23.3778,-3.04806c-7.13004,-0.48347 -12.681,1.04806 -12.681,1.04806z" fill="none" stroke-width="2.5"/></g><g stroke-linecap="butt"><g stroke="#000000"><path d="M293.31939,112.31752c0,31.40942 -25.56758,56.87178 -57.10679,56.87178c-31.53921,0 -57.10678,-25.46236 -57.10678,-56.87178c0,-31.40942 25.56758,-56.87177 57.10679,-56.87177c31.53921,0 57.10679,25.46236 57.10679,56.87178z" fill="#e5dda5" stroke-width="0"/><path d="M288.14923,106.44233c0,27.38589 -23.3489,49.58655 -52.15125,49.58655c-28.80233,0 -52.15124,-22.20066 -52.15124,-49.58655c0,-27.3859 23.3489,-49.58655 52.15124,-49.58655c28.80233,0 52.15125,22.20065 52.15125,49.58655z" fill="#f9f0b3" stroke-width="0"/><path d="M293.31939,112.31752c0,31.40942 -25.56758,56.87178 -57.10679,56.87178c-31.53921,0 -57.10678,-25.46236 -57.10678,-56.87178c0,-31.40942 25.56758,-56.87177 57.10679,-56.87177c31.53921,0 57.10679,25.46236 57.10679,56.87178z" fill="none" stroke-width="2.5"/></g><path d="M209.57283,127.39247c2.73739,5.86582 1.06945,12.87733 -3.72544,15.66065c-4.79489,2.78332 -10.90101,0.28448 -13.63841,-5.58134c-2.73739,-5.86582 -1.06946,-12.87733 3.72543,-15.66065c4.79489,-2.78332 10.90102,-0.28448 13.63842,5.58134z" fill="#d3cc98" stroke="none" stroke-width="0"/><path d="M277.52461,122.28115c4.79489,2.78332 6.46283,9.79485 3.72543,15.66066c-2.73739,5.86582 -8.84351,8.36466 -13.6384,5.58134c-4.79489,-2.78332 -6.46283,-9.79484 -3.72543,-15.66065c2.73739,-5.86582 8.84351,-8.36467 13.6384,-5.58134z" data-paper-data="{&quot;index&quot;:null}" fill="#d3cc98" stroke="none" stroke-width="0"/></g><path d="M229.07832,112.18396c-2.39429,11.08591 -12.25227,18.36292 -22.01844,16.25366c-9.76615,-2.10925 -15.74223,-12.80605 -13.34795,-23.89195c2.39429,-11.0859 12.25227,-18.36292 22.01844,-16.25366c9.76615,2.10926 15.74223,12.80605 13.34795,23.89195z" fill="url(#color-1)" stroke="#000000" stroke-width="2.5" stroke-linecap="butt"/><g stroke="none" stroke-linecap="butt"><g><path d="M210.73571,108.36882c0,-4.49942 3.6475,-8.14693 8.14692,-8.14693c4.49942,0 8.14693,3.64751 8.14693,8.14693c0,4.49942 -3.64751,8.14692 -8.14693,8.14692c-4.49942,0 -8.14692,-3.6475 -8.14692,-8.14692z" fill="url(#color-2)" stroke-width="0.5"/><path d="M220.18983,116.37786l-0.76008,-3.95233l1.8663,-0.62826l2.06359,3.34009c0,0 -0.84777,0.63232 -1.53736,0.84304c-0.67499,0.20626 -1.63244,0.39748 -1.63244,0.39748z" fill="#c6b755" stroke-width="0"/><path d="M224.47183,114.27551l-2.59819,-2.93979l1.01418,-0.95403l2.92407,2.18928c0,0 -0.34263,0.59353 -0.61266,0.937c-0.27003,0.34347 -0.72741,0.76753 -0.72741,0.76753z" fill="#c6b755" stroke-width="0"/></g><path d="M214.15741,108.36882c0,-2.60967 2.11555,-4.72522 4.72522,-4.72522c2.60967,0 4.72522,2.11555 4.72522,4.72522c0,2.60967 -2.11555,4.72521 -4.72522,4.72521c-2.60967,0 -4.72522,-2.11554 -4.72522,-4.72521z" fill="#000000" stroke-width="0.5"/><path d="M217.86434,106.7164c-1.20529,1.17977 -3.01243,1.28813 -4.03639,0.24203c-1.02396,-1.04609 -0.87694,-2.85051 0.32834,-4.03028c1.20529,-1.17977 3.01244,-1.28813 4.03639,-0.24203c1.02396,1.04609 0.87694,2.85051 -0.32835,4.03028z" fill="#ffffff" stroke-width="0"/><path d="M214.36898,107.98824c0.24212,0.32627 0.21661,0.73883 -0.05696,0.92146c-0.27357,0.18263 -0.69161,0.06617 -0.93373,-0.2601c-0.24212,-0.32627 -0.21661,-0.73882 0.05696,-0.92145c0.27357,-0.18263 0.69161,-0.06618 0.93373,0.2601z" fill="#ffffff" stroke-width="0"/></g><path d="M257.11644,88.13533c9.76617,-2.10926 19.62415,5.16776 22.01844,16.25366c2.39429,11.0859 -3.58179,21.7827 -13.34795,23.89195c-9.76617,2.10925 -19.62415,-5.16776 -22.01844,-16.25366c-2.39428,-11.0859 3.58179,-21.7827 13.34795,-23.89195z" data-paper-data="{&quot;index&quot;:null}" fill="url(#color-3)" stroke="#000000" stroke-width="2.5" stroke-linecap="butt"/><g stroke="none" stroke-linecap="butt"><g><path d="M264.26224,108.05548c0,-4.49942 3.64751,-8.14692 8.14693,-8.14692c4.49942,0 8.14692,3.6475 8.14692,8.14692c0,4.49942 -3.6475,8.14691 -8.14692,8.14691c-4.49942,0 -8.14693,-3.6475 -8.14693,-8.14691z" fill="url(#color-4)" stroke-width="0.5"/><path d="M273.71636,116.06452l-0.76009,-3.95235l1.86631,-0.62826l2.06359,3.34009c0,0 -0.84778,0.63232 -1.53737,0.84304c-0.67499,0.20626 -1.63245,0.39748 -1.63245,0.39748z" fill="#c6b755" stroke-width="0"/><path d="M277.99834,113.96217l-2.59819,-2.93979l1.01418,-0.95401l2.92406,2.18928c0,0 -0.34262,0.59352 -0.61266,0.93699c-0.27004,0.34347 -0.7274,0.76753 -0.7274,0.76753z" fill="#c6b755" stroke-width="0"/></g><path d="M267.68395,108.05548c0,-2.60967 2.11556,-4.72522 4.72522,-4.72522c2.60967,0 4.7252,2.11555 4.7252,4.72522c0,2.60967 -2.11555,4.72521 -4.7252,4.72521c-2.60967,0 -4.72522,-2.11554 -4.72522,-4.72521z" fill="#000000" stroke-width="0.5"/><path d="M271.39088,106.40306c-1.20529,1.17977 -3.01243,1.28813 -4.03638,0.24203c-1.02396,-1.0461 -0.87694,-2.85052 0.32834,-4.03028c1.20529,-1.17977 3.01244,-1.28813 4.03638,-0.24203c1.02395,1.0461 0.87694,2.85052 -0.32835,4.03028z" fill="#ffffff" stroke-width="0"/><path d="M267.8955,107.6749c0.24212,0.32627 0.2166,0.73882 -0.05697,0.92145c-0.27357,0.18263 -0.69162,0.06618 -0.93372,-0.2601c-0.2421,-0.32627 -0.2166,-0.73882 0.05696,-0.92145c0.27357,-0.18263 0.69162,-0.06618 0.93372,0.2601z" fill="#ffffff" stroke-width="0"/></g><path d="M217.51477,75.02061c0.27622,0.85389 -1.10016,1.85653 -3.07423,2.23944c-1.97407,0.38291 -6.32138,0.49052 -6.5976,-0.36337c-0.27622,-0.85389 3.62326,-2.34594 5.59733,-2.72885c1.97407,-0.38291 3.79829,-0.00111 4.07451,0.85278z" fill="#000000" stroke="none" stroke-width="0" stroke-linecap="butt"/><path d="M258.62689,73.85449c1.97407,0.38292 5.87354,1.87495 5.59732,2.72885c-0.27622,0.85389 -4.62354,0.74629 -6.5976,0.36338c-1.97407,-0.38292 -3.35046,-1.38555 -3.07423,-2.23944c0.27622,-0.85389 2.10045,-1.2357 4.07452,-0.85278z" data-paper-data="{&quot;index&quot;:null}" fill="#000000" stroke="none" stroke-width="0" stroke-linecap="butt"/><path d="M247.94701,140.33647l-5.04849,3.96189l-5.91851,-2.95851l-6.80959,2.67617l-5.09745,-3.67955" fill="none" stroke="#000000" stroke-width="2.5" stroke-linecap="round"/><path d="M278.02391,120.59448c0,0 0.91002,-1.70405 1.25149,-2.52358c0.32432,-0.77836 0.74851,-2.27642 0.74851,-2.27642c0,0 4.06547,3.46547 5.87404,5.27404c1.55205,1.55205 4.32596,4.92596 4.32596,4.92596l-1,3.8c0,0 -3.4187,-3.60822 -5.2173,-5.08564c-1.92601,-1.58208 -5.9827,-4.11436 -5.9827,-4.11436z" fill="#7d795a" stroke="none" stroke-width="0" stroke-linecap="butt"/><path d="M188.74762,125.04218c-1.89688,1.47742 -5.5024,5.08564 -5.5024,5.08564l-1.05464,-3.8c0,0 2.9255,-3.37391 4.56236,-4.92596c1.90739,-1.80856 6.19502,-5.27404 6.19502,-5.27404c0,0 0.44738,1.49806 0.78941,2.27642c0.36012,0.81952 1.31988,2.52358 1.31988,2.52358c0,0 -4.27837,2.53228 -6.30962,4.11436z" data-paper-data="{&quot;index&quot;:null}" fill="#7d795a" stroke="none" stroke-width="0" stroke-linecap="butt"/><g><path d="M181.68352,48.57796c0,0 6.68366,-11.05086 11.81058,-8.90634c7.24388,3.03001 18.97438,28.46157 18.97438,28.46157" fill="none" stroke="#000000" stroke-width="2.5" stroke-linecap="round"/><path d="M174.62368,49.7876c2.12417,-2.81777 5.57664,-3.7975 7.71132,-2.18828c2.13468,1.60922 2.1432,5.198 0.01903,8.01578c-2.12417,2.81777 -5.57664,3.7975 -7.71132,2.18828c-2.13468,-1.60922 -2.1432,-5.198 -0.01903,-8.01578z" fill="#000000" stroke="none" stroke-width="0.5" stroke-linecap="butt"/></g><g data-paper-data="{&quot;index&quot;:null}"><path d="M257.03611,67.13317c0,0 11.7305,-25.43156 18.97438,-28.46156c5.12693,-2.14451 11.81058,8.90634 11.81058,8.90634" fill="none" stroke="#000000" stroke-width="2.5" stroke-linecap="round"/><path d="M294.86188,56.80338c-2.13468,1.60922 -5.58715,0.62949 -7.71132,-2.18828c-2.12417,-2.81777 -2.11564,-6.40656 0.01903,-8.01578c2.13467,-1.60922 5.58715,-0.62949 7.71132,2.18828c2.12417,2.81777 2.11565,6.40656 -0.01902,8.01578z" fill="#000000" stroke="none" stroke-width="0.5" stroke-linecap="butt"/></g></g></g></svg>