<svg version="1.1" xmlns="http://www.w3.org/2000/svg" xmlns:xlink="http://www.w3.org/1999/xlink" width="146.92603" height="450.07152" viewBox="0,0,146.92603,450.07152"><defs><linearGradient x1="271.34155" y1="8.2407" x2="271.34155" y2="39.72274" gradientUnits="userSpaceOnUse" id="color-1"><stop offset="0" stop-color="#f58845"/><stop offset="1" stop-color="#cf7740"/></linearGradient><linearGradient x1="316.61964" y1="7.6353" x2="316.61964" y2="39.11731" gradientUnits="userSpaceOnUse" id="color-2"><stop offset="0" stop-color="#f58845"/><stop offset="1" stop-color="#d17840"/></linearGradient></defs><g transform="translate(-221.53698,79.52321)"><g data-paper-data="{&quot;isPaintingLayer&quot;:true}" fill-rule="nonzero" stroke-linejoin="miter" stroke-miterlimit="10" stroke-dasharray="" stroke-dashoffset="0" style="mix-blend-mode: normal"><g stroke="#000000"><g stroke-linecap="butt"><path d="M256.82323,363.49286c-0.5392,-0.8633 -0.51801,-2.23025 1.15222,-12.21399c2.13535,-12.76411 6.25691,-35.49215 7.73344,-45.01107c2.08567,-13.44598 5.8967,-36.11829 5.8967,-36.11829l27.4116,3.48005c0,0 -10.46644,94.55498 -12.14564,95.66875c-1.37052,0.90904 -8.67464,0.20484 -15.67022,-1.23146c-6.88921,-1.41445 -13.78713,-3.62783 -14.37808,-4.57399z" fill="#f5af82" stroke-width="0"/><path d="M271.60557,270.14953l27.41159,3.48004l-3.6984,31.26818c0,0 -9.46538,-2.60241 -14.57275,-6.35188c-5.10738,-3.74948 -12.0076,-11.12263 -12.0076,-11.12263c0,0 0.47125,-2.86582 0.69575,-4.22545c1.21593,-7.36407 2.17141,-13.04827 2.17141,-13.04827z" fill="#e4a279" stroke-width="0"/><path d="M256.82323,363.49286c-0.5392,-0.8633 -0.51801,-2.23025 1.15222,-12.21399c0.75498,-4.51289 5.81119,-37.44154 5.81119,-37.44154c0,0 4.8933,10.60247 7.66062,12.08162c2.77162,1.48145 8.95623,-3.19978 8.95623,-3.19978c0,0 2.46445,8.62228 4.13571,10.35887c2.14008,2.22373 8.18622,-2.03565 8.18622,-2.03565c0,0 -5.43453,37.97777 -5.85388,38.25592c-1.37052,0.90904 -8.67464,0.20485 -15.67022,-1.23145c-6.88921,-1.41445 -13.78712,-3.62784 -14.37808,-4.574z" fill="#ca8f6b" stroke-width="0"/><path d="M256.82323,363.49286c-0.5392,-0.8633 -0.51801,-2.23025 1.15222,-12.21399c2.13535,-12.76411 6.25691,-35.49215 7.73344,-45.01107c2.08567,-13.44598 5.8967,-36.11829 5.8967,-36.11829l27.4116,3.48005c0,0 -10.46644,94.55498 -12.14564,95.66875c-1.37052,0.90904 -8.67464,0.20484 -15.67022,-1.23146c-6.88921,-1.41445 -13.78713,-3.62783 -14.37808,-4.57399z" fill="none" stroke-width="2.5"/></g><path d="M263.96404,365.70746l1.04436,-5.57957" fill="none" stroke-width="2.5" stroke-linecap="round"/><path d="M276.2279,362.55609l-0.58772,5.64595" fill="none" stroke-width="2.5" stroke-linecap="round"/></g><g stroke="#000000" stroke-linecap="butt"><path d="M362.00584,243.33267c8.86762,7.10109 -12.88607,32.05887 -30.7408,38.96081c-17.85473,6.90194 -33.89028,8.45778 -35.8164,3.47506c-1.92612,-4.98271 10.98657,-14.61712 28.8413,-21.51907c17.85473,-6.90194 29.07569,-27.83579 37.7159,-20.91681z" fill="#f5af82" stroke-width="0"/><path d="M362.00584,243.33267c4.17379,3.34233 1.56381,10.64059 -4.23042,18.15007c-1.42358,-5.80472 -4.87435,-10.8132 -9.55903,-14.23215c5.38653,-4.44441 9.85549,-7.0682 13.78945,-3.91792z" fill="#ca8f6b" stroke-width="0"/><path d="M362.00584,243.33267c8.86762,7.10109 -12.88607,32.05887 -30.7408,38.96081c-17.85473,6.90194 -33.89028,8.45778 -35.8164,3.47506c-1.92612,-4.98271 10.98657,-14.61712 28.8413,-21.51907c17.85473,-6.90194 29.07569,-27.83579 37.7159,-20.91681z" fill="none" stroke-width="2.5"/></g><g data-paper-data="{&quot;index&quot;:null}" stroke="#000000" stroke-linecap="butt"><path d="M317.06361,219.87346c-0.14011,-5.1338 0.68499,-8.24964 3.86319,-9.0039c2.84166,-0.67439 4.99033,0.41187 7.70968,4.92035c5.55384,9.20785 15.19275,39.17893 17.24298,41.55662c2.05613,2.38452 5.16797,3.98566 8.91181,8.68022c3.94715,4.94951 5.9154,11.53003 4.09273,14.10962c-2.73891,3.87635 -8.44149,-1.47731 -8.44149,-1.47731c0,0 0.74777,8.52385 -3.62722,9.81237c-4.34625,1.28004 -8.56787,-5.08439 -8.56787,-5.08439c0,0 -2.10108,7.66398 -7.15265,5.96523c-4.34953,-1.46266 -2.73881,-12.53454 -2.73881,-12.53454c0,0 -6.41825,2.21831 -8.43016,-1.48223c-1.89243,-3.48078 4.07905,-9.00234 6.46303,-11.80212c1.95787,-2.29934 -9.0829,-34.78046 -9.32523,-43.65991z" data-paper-data="{&quot;index&quot;:null}" fill="#f5af82" stroke-width="0"/><path d="M325.48585,255.62882c1.45381,0.19168 3.45064,2.2456 4.89552,1.46653c2.01687,-1.08748 3.27443,-5.16568 3.27443,-5.16568c0,0 3.24124,4.0618 6.09899,3.84505c1.36585,-0.1036 2.38691,-3.75644 3.40688,-4.47461c1.24943,3.2058 2.21333,5.46138 2.71779,6.04642c2.05613,2.38452 5.16797,3.98566 8.91181,8.68022c3.94715,4.94951 5.9154,11.53003 4.09273,14.10962c-2.73891,3.87635 -8.44149,-1.47731 -8.44149,-1.47731c0,0 0.74777,8.52385 -3.62722,9.81237c-4.34625,1.28004 -8.56787,-5.08439 -8.56787,-5.08439c0,0 -2.10108,7.66398 -7.15265,5.96523c-4.34953,-1.46266 -2.73881,-12.53454 -2.73881,-12.53454c0,0 -6.41825,2.21831 -8.43016,-1.48223c-1.89243,-3.48078 4.07905,-9.00234 6.46303,-11.80212c0.55059,-0.64663 0.07318,-3.68021 -0.90298,-7.90456z" data-paper-data="{&quot;index&quot;:null}" fill="#ca8f6b" stroke-width="0"/><path d="M317.06362,219.87345c-0.14011,-5.1338 0.68499,-8.24964 3.86319,-9.0039c2.84166,-0.67439 4.99033,0.41187 7.70968,4.92035c5.55384,9.20785 15.19275,39.17893 17.24298,41.55662c2.05613,2.38452 5.16797,3.98566 8.91181,8.68022c3.94715,4.94951 5.9154,11.53003 4.09273,14.10962c-2.73891,3.87635 -8.44149,-1.47731 -8.44149,-1.47731c0,0 0.74777,8.52385 -3.62722,9.81237c-4.34625,1.28004 -8.56787,-5.08439 -8.56787,-5.08439c0,0 -2.10108,7.66398 -7.15265,5.96523c-4.34953,-1.46266 -2.73881,-12.53454 -2.73881,-12.53454c0,0 -6.41825,2.21831 -8.43016,-1.48223c-1.89243,-3.48078 4.07905,-9.00234 6.46303,-11.80212c1.95787,-2.29934 -9.0829,-34.78046 -9.32523,-43.65991z" data-paper-data="{&quot;index&quot;:null}" fill="none" stroke-width="2.5"/></g><g stroke="#000000" stroke-linecap="butt"><path d="M269.88748,219.87347c-0.24233,8.87945 -11.2831,41.36057 -9.32523,43.65991c2.38398,2.79978 8.35546,8.32134 6.46303,11.80212c-2.01191,3.70054 -8.43016,1.48223 -8.43016,1.48223c0,0 1.61072,11.07188 -2.73881,12.53454c-5.05157,1.69875 -7.15265,-5.96523 -7.15265,-5.96523c0,0 -4.22162,6.36443 -8.56787,5.08439c-4.37499,-1.28852 -3.62722,-9.81237 -3.62722,-9.81237c0,0 -5.70258,5.35366 -8.44149,1.47731c-1.82267,-2.57959 0.14558,-9.16011 4.09273,-14.10962c3.74384,-4.69456 6.85568,-6.2957 8.91181,-8.68022c2.05023,-2.37769 11.68914,-32.34877 17.24298,-41.55662c2.71935,-4.50848 4.86802,-5.59474 7.70968,-4.92035c3.1782,0.75426 4.0033,3.8701 3.86319,9.0039z" data-paper-data="{&quot;index&quot;:null}" fill="#f5af82" stroke-width="0"/><path d="M260.56224,263.53337c2.38398,2.79978 8.35546,8.32134 6.46303,11.80212c-2.01191,3.70054 -8.43016,1.48223 -8.43016,1.48223c0,0 1.61072,11.07188 -2.73881,12.53454c-5.05157,1.69875 -7.15265,-5.96523 -7.15265,-5.96523c0,0 -4.22162,6.36443 -8.56787,5.08439c-4.37499,-1.28852 -3.62722,-9.81237 -3.62722,-9.81237c0,0 -5.70258,5.35366 -8.44149,1.47731c-1.82267,-2.57959 0.14558,-9.16011 4.09273,-14.10962c3.74384,-4.69456 6.85568,-6.2957 8.91181,-8.68022c0.50446,-0.58504 1.46836,-2.84062 2.71779,-6.04642c1.01997,0.71817 2.04103,4.37101 3.40688,4.47461c2.85775,0.21675 6.09899,-3.84505 6.09899,-3.84505c0,0 1.25756,4.0782 3.27443,5.16568c1.44488,0.77907 3.44171,-1.27485 4.89552,-1.46653c-0.97616,4.22435 -1.45357,7.25793 -0.90298,7.90456z" data-paper-data="{&quot;index&quot;:null}" fill="#ca8f6b" stroke-width="0"/><path d="M269.88747,219.87346c-0.24233,8.87945 -11.2831,41.36057 -9.32523,43.65991c2.38398,2.79978 8.35546,8.32134 6.46303,11.80212c-2.01191,3.70054 -8.43016,1.48223 -8.43016,1.48223c0,0 1.61072,11.07188 -2.73881,12.53454c-5.05157,1.69875 -7.15265,-5.96523 -7.15265,-5.96523c0,0 -4.22162,6.36443 -8.56787,5.08439c-4.37499,-1.28852 -3.62722,-9.81237 -3.62722,-9.81237c0,0 -5.70258,5.35366 -8.44149,1.47731c-1.82267,-2.57959 0.14558,-9.16011 4.09273,-14.10962c3.74384,-4.69456 6.85568,-6.2957 8.91181,-8.68022c2.05023,-2.37769 11.68914,-32.34877 17.24298,-41.55662c2.71935,-4.50848 4.86802,-5.59474 7.70968,-4.92035c3.1782,0.75426 4.0033,3.8701 3.86319,9.0039z" data-paper-data="{&quot;index&quot;:null}" fill="none" stroke-width="2.5"/></g><g data-paper-data="{&quot;index&quot;:null}" stroke="#000000" stroke-linecap="butt"><path d="M310.88727,368.09306c-7.12077,0.54381 -14.45542,0.32248 -15.70054,-0.75193c-1.52555,-1.31639 0,-96.43665 0,-96.43665h27.63161c0,0 0.92524,22.97175 1.30086,36.57334c0.26592,9.62908 1.49219,32.69525 2.00298,45.62665c0.39952,10.11458 0.24839,11.47332 -0.39524,12.26185c-0.70542,0.86421 -7.82717,2.19121 -14.83966,2.72674z" fill="#f5af82" stroke-width="0"/><path d="M323.32908,284.12232c0.05148,1.37707 0.15805,4.27943 0.15805,4.27943c0,0 -7.77388,6.44541 -13.31282,9.52178c-5.53894,3.07638 -15.2567,4.46595 -15.2567,4.46595l0.2691,-31.485h27.63161c0,0 0.23196,5.75929 0.51076,13.21785z" fill="#e4a279" stroke-width="0"/><path d="M310.88727,368.09306c-7.12077,0.54381 -14.45542,0.32248 -15.70054,-0.75193c-0.44485,-0.38386 -1.00305,-36.62266 -1.00305,-36.62266c0,0 6.4679,1.78042 9.17719,0.43249c2.47614,-1.23193 6.44212,-8.20345 6.44212,-8.20345c0,0 5.01222,6.50433 7.56983,6.26718c2.41276,-0.22372 7.36665,-7.65217 7.36665,-7.65217c0,0 1.20211,26.96993 1.38271,31.54197c0.39952,10.11458 0.24839,11.47332 -0.39524,12.26185c-0.70542,0.86421 -7.82717,2.19121 -14.83966,2.72674z" fill="#ca8f6b" stroke-width="0"/><path d="M310.88727,368.09306c-7.12077,0.54381 -14.45542,0.32248 -15.70054,-0.75193c-1.52555,-1.31639 0,-96.43665 0,-96.43665h27.63161c0,0 0.92524,22.97175 1.30086,36.57334c0.26592,9.62908 1.49219,32.69525 2.00298,45.62665c0.39952,10.11458 0.24839,11.47332 -0.39524,12.26185c-0.70542,0.86421 -7.82717,2.19121 -14.83966,2.72674z" fill="none" stroke-width="2.5"/></g><path d="M259.98458,226.27435c0,0 0.21347,-1.39041 0.47629,-2.17887c0.31203,-0.93608 1.27371,-3.07113 1.27371,-3.07113c0,0 3.49787,3.32391 5.48461,4.78584c2.36401,1.73955 7.76539,4.96416 7.76539,4.96416c0,0 -4.56744,-0.62023 -6.97366,-1.3421c-2.58145,-0.77444 -8.02634,-3.1579 -8.02634,-3.1579z" fill="#ca8f6b" stroke="none" stroke-width="0" stroke-linecap="butt"/><path d="M318.45824,229.18225c-2.40622,0.72187 -6.97366,1.3421 -6.97366,1.3421c0,0 5.40139,-3.2246 7.76539,-4.96416c1.98674,-1.46194 5.48461,-4.78584 5.48461,-4.78584c0,0 0.96168,2.13504 1.2737,3.07112c0.26282,0.78846 0.4763,2.17888 0.4763,2.17888c0,0 -5.44489,2.38346 -8.02634,3.1579z" data-paper-data="{&quot;index&quot;:null}" fill="#ca8f6b" stroke="none" stroke-width="0" stroke-linecap="butt"/><path d="M257.10118,243.28775c0,0 0.15488,-3.03661 0.33297,-4.37227c0.15062,-1.12968 0.66703,-3.12773 0.66703,-3.12773c0,0 2.1574,2.13439 3.38856,3.06709c1.47466,1.11716 4.86144,3.18291 4.86144,3.18291c0,0 -3.29578,0.94538 -4.87715,1.15907c-1.49738,0.20235 -4.37285,0.09093 -4.37285,0.09093z" fill="#ca8f6b" stroke="none" stroke-width="0" stroke-linecap="butt"/><path d="M324.72834,242.69683c-1.58137,-0.2137 -4.87715,-1.15908 -4.87715,-1.15908c0,0 3.38678,-2.06574 4.86144,-3.18291c1.23117,-0.9327 3.38856,-3.06709 3.38856,-3.06709c0,0 0.51641,1.99805 0.66703,3.12773c0.17809,1.33566 0.33297,4.37227 0.33297,4.37227c0,0 -2.87547,0.11142 -4.37285,-0.09092z" data-paper-data="{&quot;index&quot;:null}" fill="#ca8f6b" stroke="none" stroke-width="0" stroke-linecap="butt"/><path d="" fill="#ca8f6b" stroke="#000000" stroke-width="0" stroke-linecap="butt"/><g data-paper-data="{&quot;index&quot;:null}" stroke="#000000" stroke-linecap="butt"><path d="M318.30721,-67.62808c0,0 17.61494,6.89232 25.95045,11.73166c7.7504,4.49965 22.43514,16.35957 22.43514,16.35957c0,0 -8.2696,9.97834 -11.94541,15.00651c-3.15116,4.31051 -8.77886,13.34245 -8.77886,13.34245z" fill="#f5af82" stroke-width="2.5"/><path d="M335.30721,-44.49412c0,0 7.17874,2.80887 10.57577,4.78109c3.15857,1.83378 9.14316,6.66713 9.14316,6.66713c0,0 -3.37017,4.06654 -4.8682,6.1157c-1.28422,1.75668 -6.57771,10.58992 -6.57771,10.58992z" fill="#ca8f6b" stroke-width="0"/></g><g stroke="#000000" stroke-linecap="butt"><path d="M244.03148,-13.12004c0,0 -5.6277,-9.03194 -8.77886,-13.34245c-3.67581,-5.02817 -11.94541,-15.00651 -11.94541,-15.00651c0,0 14.68474,-11.85992 22.43514,-16.35957c8.33551,-4.83934 25.95045,-11.73166 25.95045,-11.73166z" fill="#f5af82" stroke-width="2.5"/><path d="M246.41979,-18.27243c0,0 -5.2935,-8.83323 -6.57771,-10.58992c-1.49803,-2.04917 -4.8682,-6.11571 -4.8682,-6.11571c0,0 5.98458,-4.83335 9.14315,-6.66713c3.39703,-1.97222 10.57577,-4.78109 10.57577,-4.78109z" fill="#ca8f6b" stroke-width="0"/></g><g stroke="#000000" stroke-linecap="butt"><path d="M330.57034,200.30364c0,55.92274 -16.75076,94.90014 -37.41386,94.90014c-20.66311,0 -36.49686,-37.16113 -37.41386,-93.08389c-0.91651,-55.89327 16.75076,-109.43032 37.41386,-109.43032c20.66311,0 37.41386,51.69131 37.41386,107.61404z" fill="#e4a279" stroke-width="0"/><path d="M324.60983,184.37868c0,47.64718 -13.97149,80.85663 -31.20618,80.85663c-17.2347,0 -30.44133,-31.66196 -31.20618,-79.30914c-0.21879,-13.62987 3.76498,-39.37394 3.76498,-39.37394c0,0 16.28192,12.73415 27.4412,12.43123c11.15928,-0.30292 27.05968,-13.96045 27.05968,-13.96045c0,0 4.14651,25.61387 4.14651,39.35566z" fill="#f5af82" stroke-width="0"/><path d="M330.57034,200.30364c0,55.92274 -16.75076,94.90014 -37.41386,94.90014c-20.66311,0 -36.49686,-37.16113 -37.41386,-93.08389c-0.91651,-55.89327 16.75076,-109.43032 37.41386,-109.43032c20.66311,0 37.41386,51.69131 37.41386,107.61404z" fill="none" stroke-width="2.5"/></g><g stroke-linecap="butt"><g stroke="#000000"><path d="M350.8845,31.61118c0,60.68748 -25.56758,109.88439 -57.10678,109.88439c-24.69824,0 -45.73443,-30.1695 -53.6981,-72.40096c-2.20579,-11.69735 -3.40868,-24.32009 -3.40868,-37.48343c0,-60.68748 25.56758,-109.88439 57.10678,-109.88439c31.53921,0 57.10678,49.19691 57.10678,109.88439z" fill="#e4a279" stroke-width="0"/><path d="M345.71434,20.25948c0,52.91344 -23.3489,95.80829 -52.15124,95.80829c-6.67232,0 -13.05198,-2.30199 -18.91649,-6.49725c-19.45077,-13.91436 -33.23475,-48.65547 -33.23475,-89.31103c0,-52.91344 23.3489,-95.80829 52.15124,-95.80829c28.80233,0 52.15124,42.89482 52.15124,95.80829z" fill="#f5af82" stroke-width="0"/><path d="M350.8845,31.61118c0,60.68748 -25.56758,109.88439 -57.10678,109.88439c-31.53921,0 -57.10678,-49.19691 -57.10678,-109.88439c0,-60.68748 25.56758,-109.88439 57.10678,-109.88439c31.53921,0 57.10678,49.19691 57.10678,109.88439z" fill="none" stroke-width="2.5"/></g><path d="M267.13793,60.73814c2.73739,11.3336 1.06945,24.88084 -3.72544,30.25861c-4.79489,5.37777 -10.90101,0.54966 -13.63841,-10.78394c-2.73739,-11.3336 -1.06946,-24.88084 3.72543,-30.25861c4.79489,-5.37777 10.90102,-0.54966 13.63842,10.78394z" fill="#ca8f6b" stroke="none" stroke-width="0"/><path d="M335.08975,50.86234c4.79489,5.37777 6.46282,18.92503 3.72543,30.25861c-2.73739,11.3336 -8.84351,16.16172 -13.63841,10.78394c-4.79489,-5.37777 -6.46282,-18.92503 -3.72543,-30.25861c2.73739,-11.3336 8.84351,-16.16172 13.63841,-10.78394z" data-paper-data="{&quot;index&quot;:null}" fill="#ca8f6b" stroke="none" stroke-width="0"/></g><path d="M342.59601,13.62456c2.83653,27.71019 -4.90919,54.26664 -17.30055,59.31546c-12.39136,5.04882 -24.736,-13.32183 -27.57253,-41.03204c-2.83653,-27.71019 4.90919,-54.26664 17.30055,-59.31546c12.39136,-5.04882 24.736,13.32183 27.57253,41.03204z" fill="#ca8f6b" stroke="none" stroke-width="0" stroke-linecap="butt"/><path d="M286.64342,31.35313c-2.39429,21.41956 -12.25228,35.47978 -22.01844,31.40439c-9.76615,-4.07539 -15.74223,-24.74311 -13.34795,-46.16267c2.39429,-21.41956 12.25228,-35.47978 22.01844,-31.40439c9.76615,4.07539 15.74223,24.74311 13.34795,46.16267z" fill="#ffffff" stroke="#000000" stroke-width="2.5" stroke-linecap="butt"/><g stroke="none" stroke-linecap="butt"><g><path d="M263.19462,23.98173c0,-8.69352 3.6475,-15.74101 8.14692,-15.74101c4.49942,0 8.14692,7.04749 8.14692,15.74101c0,8.69352 -3.6475,15.74101 -8.14692,15.74101c-4.49942,0 -8.14692,-7.04749 -8.14692,-15.74101z" fill="url(#color-1)" stroke-width="0.5"/><path d="M272.64874,39.45634l-0.76008,-7.63647l1.86631,-1.21389l2.06359,6.45351c0,0 -0.84777,1.22173 -1.53736,1.62887c-0.675,0.39852 -1.63245,0.76799 -1.63245,0.76799z" fill="#bd6935" stroke-width="0"/><path d="M276.93075,35.3943l-2.59818,-5.68009l1.01419,-1.84332l2.92406,4.23c0,0 -0.34263,1.14678 -0.61265,1.8104c-0.27002,0.66363 -0.7274,1.48298 -0.7274,1.48298z" fill="#bd6935" stroke-width="0"/></g><path d="M266.61634,23.98173c0,-5.04224 2.11555,-9.1298 4.72522,-9.1298c2.60966,0 4.72522,4.08754 4.72522,9.1298c0,5.04224 -2.11555,9.1298 -4.72522,9.1298c-2.60966,0 -4.72522,-4.08754 -4.72522,-9.1298z" fill="#000000" stroke-width="0.5"/><path d="M270.32327,20.78902c-1.20529,2.27948 -3.01244,2.48885 -4.03639,0.46764c-1.02396,-2.0212 -0.87694,-5.50761 0.32834,-7.78708c1.20529,-2.27948 3.01244,-2.48885 4.03639,-0.46764c1.02396,2.0212 0.87694,5.50761 -0.32834,7.78708z" fill="#ffffff" stroke-width="0"/><path d="M266.8279,23.2464c0.24211,0.6304 0.21661,1.42752 -0.05697,1.78037c-0.27358,0.35287 -0.69162,0.12787 -0.93373,-0.50255c-0.24211,-0.6304 -0.21661,-1.42752 0.05697,-1.78037c0.27358,-0.35287 0.69162,-0.12787 0.93373,0.50255z" fill="#ffffff" stroke-width="0"/></g><path d="M314.68155,-15.11226c9.76616,-4.07539 19.62415,9.98485 22.01844,31.40439c2.39428,21.41956 -3.58179,42.08728 -13.34795,46.16267c-9.76616,4.07539 -19.62415,-9.98485 -22.01844,-31.40439c-2.39428,-21.41956 3.58179,-42.08728 13.34795,-46.16267z" data-paper-data="{&quot;index&quot;:null}" fill="#ffffff" stroke="#000000" stroke-width="2.5" stroke-linecap="butt"/><g stroke="none" stroke-linecap="butt"><g><path d="M308.47272,23.37631c0,-8.69352 3.6475,-15.74101 8.14692,-15.74101c4.49942,0 8.14692,7.04749 8.14692,15.74101c0,8.69352 -3.6475,15.74099 -8.14692,15.74099c-4.49942,0 -8.14692,-7.04749 -8.14692,-15.74099z" fill="url(#color-2)" stroke-width="0.5"/><path d="M317.92684,38.85092l-0.76009,-7.63648l1.86631,-1.21389l2.06359,6.45351c0,0 -0.84777,1.22173 -1.53737,1.62887c-0.67499,0.39852 -1.63245,0.76797 -1.63245,0.76797z" fill="#bd6935" stroke-width="0"/><path d="M322.20883,34.78888l-2.59819,-5.68009l1.01419,-1.8433l2.92406,4.23c0,0 -0.34263,1.14678 -0.61266,1.8104c-0.27003,0.66363 -0.7274,1.48298 -0.7274,1.48298z" fill="#bd6935" stroke-width="0"/></g><path d="M311.89443,23.37631c0,-5.04224 2.11555,-9.1298 4.72522,-9.1298c2.60966,0 4.72521,4.08754 4.72521,9.1298c0,5.04224 -2.11555,9.12978 -4.72521,9.12978c-2.60966,0 -4.72522,-4.08754 -4.72522,-9.12978z" fill="#000000" stroke-width="0.5"/><path d="M315.60136,20.1836c-1.20529,2.27948 -3.01244,2.48885 -4.03638,0.46764c-1.02396,-2.02121 -0.87694,-5.50761 0.32834,-7.78708c1.20529,-2.27948 3.01244,-2.48885 4.03638,-0.46764c1.02395,2.02121 0.87694,5.50761 -0.32834,7.78708z" fill="#ffffff" stroke-width="0"/><path d="M312.10598,22.64098c0.24211,0.6304 0.2166,1.42752 -0.05697,1.78037c-0.27357,0.35287 -0.69162,0.12787 -0.93372,-0.50255c-0.2421,-0.6304 -0.2166,-1.42752 0.05697,-1.78037c0.27357,-0.35287 0.69162,-0.12787 0.93372,0.50255z" fill="#ffffff" stroke-width="0"/></g><path d="M275.07988,-40.45177c0.27622,1.64984 -1.10016,3.58708 -3.07423,4.32692c-1.97407,0.73984 -6.32138,0.94775 -6.5976,-0.7021c-0.27622,-1.64984 3.62326,-4.53269 5.59733,-5.27253c1.97407,-0.73984 3.79829,-0.00214 4.07451,1.64771z" fill="#000000" stroke="none" stroke-width="0" stroke-linecap="butt"/><path d="M316.19201,-42.70491c1.97407,0.73986 5.87354,3.62267 5.59732,5.27255c-0.27622,1.64984 -4.62353,1.44194 -6.59761,0.7021c-1.97407,-0.73986 -3.35045,-2.67708 -3.07423,-4.32692c0.27622,-1.64984 2.10045,-2.38757 4.07452,-1.64771z" data-paper-data="{&quot;index&quot;:null}" fill="#000000" stroke="none" stroke-width="0" stroke-linecap="butt"/><path d="M305.51212,85.74777c0,0 -2.89908,4.28657 -5.3469,4.82709c-2.44782,0.54052 -5.8701,-2.40538 -5.8701,-2.40538c0,0 -3.83914,2.62974 -6.25389,2.13861c-2.41475,-0.49113 -5.40315,-4.56032 -5.40315,-4.56032" fill="none" stroke="#000000" stroke-width="2.5" stroke-linecap="round"/><g stroke="none" stroke-linecap="butt"><g fill="#996d51" stroke-width="0.5"><path d="M254.7805,66.24256c-0.19984,-1.24471 0.20067,-2.64564 0.89456,-3.12912c0.69389,-0.48346 1.4184,0.13363 1.61823,1.37833c0.19984,1.24471 -0.20067,2.64564 -0.89456,3.12912c-0.69389,0.48346 -1.4184,-0.13363 -1.61823,-1.37833z"/><path d="M252.67465,77.33223c-0.19984,-1.24471 0.20067,-2.64564 0.89456,-3.12912c0.69389,-0.48346 1.4184,0.13363 1.61823,1.37833c0.19984,1.24471 -0.20067,2.64564 -0.89456,3.12912c-0.69389,0.48346 -1.4184,-0.13363 -1.61823,-1.37833z"/><path d="M259.46173,72.73695c-0.19984,-1.24471 0.20067,-2.64564 0.89456,-3.12912c0.69389,-0.48346 1.4184,0.13363 1.61823,1.37833c0.19984,1.24471 -0.20067,2.64564 -0.89456,3.12912c-0.69389,0.48346 -1.4184,-0.13363 -1.61823,-1.37833z"/></g><path d="M237.27392,63.14039c0,0 5.34986,-3.3332 8.97867,-2.83629c3.62881,0.49691 10.45047,4.92642 9.77429,5.40426c-0.60122,0.42486 -6.5181,-1.9532 -9.7019,-2.38919c-3.06247,-0.41937 -9.05106,-0.17878 -9.05106,-0.17878z" fill="#000000" stroke-width="0"/><path d="M237.89663,93.45824c0,0 3.63366,-8.28653 6.85167,-11.56482c3.21801,-3.27829 10.22218,-6.47206 9.77836,-5.37667c-0.39462,0.97395 -6.06993,4.98757 -8.89332,7.86384c-2.71578,2.76663 -7.73672,9.07765 -7.73672,9.07765z" fill="#000000" stroke-width="0"/><path d="M242.16109,75.74238c0,0 4.97047,-5.0722 8.58902,-5.79647c3.61855,-0.72426 10.73407,1.35681 10.11091,2.0536c-0.55408,0.61954 -6.5947,0.25632 -9.7695,0.89176c-3.05381,0.61123 -8.93044,2.85111 -8.93044,2.85111z" fill="#000000" stroke-width="0"/></g><g data-paper-data="{&quot;index&quot;:null}" stroke="none" stroke-linecap="butt"><g fill="#996d51" stroke-width="0.5"><path d="M330.9011,68.58696c-0.69389,-0.48348 -1.09439,-1.88442 -0.89456,-3.12912c0.19984,-1.24469 0.92434,-1.86179 1.61823,-1.37833c0.69389,0.48348 1.09439,1.88444 0.89456,3.12912c-0.19984,1.24469 -0.92434,1.86179 -1.61823,1.37831z"/><path d="M333.00696,79.67663c-0.69389,-0.48348 -1.09439,-1.88444 -0.89456,-3.12912c0.19984,-1.24469 0.92435,-1.86179 1.61824,-1.37831c0.69389,0.48348 1.09439,1.88442 0.89455,3.12912c-0.19984,1.24469 -0.92434,1.86179 -1.61823,1.37833z"/><path d="M326.21988,75.08134c-0.69389,-0.48348 -1.09439,-1.88442 -0.89456,-3.12912c0.19984,-1.24469 0.92434,-1.86179 1.61823,-1.37833c0.69389,0.48348 1.0944,1.88442 0.89456,3.12912c-0.19984,1.24469 -0.92435,1.86179 -1.61824,1.37833z"/></g><path d="M340.97487,64.28524c-3.1838,0.43597 -9.10068,2.81407 -9.7019,2.38919c-0.67618,-0.47784 6.14548,-4.90735 9.77429,-5.40426c3.62881,-0.49691 8.97867,2.83629 8.97867,2.83629c0,0 -5.98858,-0.24059 -9.05105,0.17878z" fill="#000000" stroke-width="0"/><path d="M341.6665,85.34668c-2.82338,-2.87625 -8.49869,-6.88989 -8.89331,-7.86384c-0.44382,-1.09539 6.56035,2.09838 9.77837,5.37667c3.21801,3.27829 6.85167,11.5648 6.85167,11.5648c0,0 -5.02094,-6.311 -7.73672,-9.07763z" fill="#000000" stroke-width="0"/><path d="M336.20832,73.85735c-3.1748,-0.63544 -9.21542,-0.27222 -9.7695,-0.89176c-0.62316,-0.69677 6.49236,-2.77786 10.11091,-2.0536c3.61855,0.72426 8.58902,5.79647 8.58902,5.79647c0,0 -5.87663,-2.23987 -8.93044,-2.85111z" fill="#000000" stroke-width="0"/></g><path d="M297.83225,53.68846c0,1.34071 -3.94872,6.58911 -3.94872,6.58911c0,0 -3.94872,-5.37611 -3.94872,-6.58911c0,-1.34071 1.7679,-2.42756 3.94872,-2.42756c2.18082,0 3.94872,1.08685 3.94872,2.42756z" fill="#996d51" stroke="none" stroke-width="0" stroke-linecap="butt"/><path d="M293.88794,41.75033c4.00406,0 7.25,5.55491 7.25,5.55491c0,0 -3.24594,-2.2586 -7.25,-2.2586c-4.00406,0 -7.25,2.2586 -7.25,2.2586c0,0 3.24594,-5.55491 7.25,-5.55491z" fill="#e4a279" stroke="none" stroke-width="0" stroke-linecap="butt"/><path d="M288.73967,-74.8611c0,0 3.0592,-0.64404 4.66667,-0.64404c1.71845,0 5.33333,0.64404 5.33333,0.64404c0,0 -1.56266,9.34259 -2.28557,14.83656c-0.90326,6.86452 -2.71443,23.16225 -2.71443,23.16225c0,0 -1.73769,-15.73927 -2.63348,-22.54704c-0.74157,-5.63571 -2.36652,-15.45175 -2.36652,-15.45175z" fill="#ca8f6b" stroke="none" stroke-width="0" stroke-linecap="butt"/><path d="M305.72866,367.35473l0.12804,-5.67501" data-paper-data="{&quot;index&quot;:null}" fill="none" stroke="#000000" stroke-width="2.5" stroke-linecap="round"/><path d="M317.29269,360.68389l0.33334,5.66667" data-paper-data="{&quot;index&quot;:null}" fill="none" stroke="#000000" stroke-width="2.5" stroke-linecap="round"/></g></g></svg>