<svg version="1.1" xmlns="http://www.w3.org/2000/svg" xmlns:xlink="http://www.w3.org/1999/xlink" width="126.36811" height="180.30165" viewBox="0,0,126.36811,180.30165"><g transform="translate(-174.57196,-152.77188)"><g data-paper-data="{&quot;isPaintingLayer&quot;:true}" fill-rule="nonzero" stroke="#000000" stroke-linejoin="miter" stroke-miterlimit="10" stroke-dasharray="" stroke-dashoffset="0" style="mix-blend-mode: normal"><path d="M299.31152,260.02979c1.41422,1.41422 0,2.82843 0,2.82843l-1.0972,1.09094c-3.61175,3.15942 -7.72966,6.83474 -12.62682,7.79609c-1.58078,0.31032 -4.13329,-0.13545 -5.67721,-0.32707c-3.20106,-0.64007 -6.704,-1.18484 -9.73802,-2.44356c-2.54748,-1.05687 -4.64563,-2.45098 -6.19809,-4.22354c-6.96641,0.9776 -14.30382,-1.10715 -18.74655,-6.87276c-0.26326,-0.34166 -1.27713,-3.75068 -1.52831,-4.37778c-0.71288,-1.77974 -1.5517,-3.50652 -2.30696,-5.2687c0,0 -0.78784,-1.83829 1.05045,-2.62613c1.83829,-0.78784 2.62613,1.05045 2.62613,1.05045c0.77352,1.80497 1.63121,3.57436 2.35971,5.39796c0.46952,1.17532 0.34366,2.63719 1.13835,3.62222c3.20138,3.96819 8.19478,5.57254 13.1569,5.29098c-0.53267,-1.44938 -0.81664,-3.06465 -0.82658,-4.85666c-0.0045,-0.81127 -0.01961,-4.64339 0.11946,-5.01419c0.37597,-1.00247 1.32461,-1.68276 1.96416,-2.54142c1.81486,-2.43663 3.21859,-5.26895 6.45688,-6.05756c5.3904,-1.3127 11.50314,2.94852 11.45923,8.64648c-0.00858,1.11264 -0.5928,2.14493 -0.8892,3.21739c-1.78784,2.29857 -3.87768,5.10538 -6.3226,6.73876c-1.6026,1.07065 -3.35789,1.9303 -5.19669,2.56586c0.0505,0.03161 0.10162,0.06273 0.15334,0.09333c3.60827,2.13463 7.85076,2.89863 11.90912,3.71049c6.38887,0.80521 10.37328,-2.45583 15.02929,-6.53098l0.9028,-0.90906c0,0 1.41421,-1.41422 2.82842,0zM265.69094,260.33874c2.06072,-0.54067 4.02568,-1.40346 5.75177,-2.55086c1.90443,-1.26596 3.54243,-3.50696 5.01073,-5.26125c1.13356,-3.69896 -3.82748,-8.63515 -7.3144,-5.51479c-1.25294,1.12122 -3.75655,3.94116 -4.3612,5.44636c-0.45407,1.13036 0.1273,2.43436 0.11946,3.65248c-0.00931,1.44636 0.22936,2.91492 0.79364,4.22806z" fill="#e08670" stroke-width="2" stroke-linecap="butt"/><path d="M218.32724,183.1715c-0.24233,8.87945 -11.28309,41.36057 -9.32523,43.65991c2.38398,2.79979 8.35546,8.32134 6.46303,11.80212c-2.01191,3.70054 -8.43016,1.48223 -8.43016,1.48223c0,0 1.61072,11.07188 -2.73881,12.53454c-5.05157,1.69875 -7.15265,-5.96523 -7.15265,-5.96523c0,0 -4.22161,6.36443 -8.56787,5.08439c-4.37499,-1.28851 -3.62722,-9.81236 -3.62722,-9.81236c0,0 -5.70258,5.35366 -8.44149,1.47732c-1.82267,-2.57959 0.14558,-9.16011 4.09273,-14.10962c3.74383,-4.69457 6.85568,-6.29569 8.91181,-8.68022c2.05023,-2.37769 11.68914,-32.34877 17.24298,-41.55662c2.71935,-4.50849 4.86802,-5.59473 7.70968,-4.92034c3.1782,0.75426 4.0033,3.8701 3.86319,9.0039z" data-paper-data="{&quot;index&quot;:null}" fill="#f19078" stroke-width="2.5" stroke-linecap="butt"/><g data-paper-data="{&quot;index&quot;:null}" stroke-linecap="butt"><path d="M257.32704,331.72443c-7.12077,0.54381 -14.45542,0.32247 -15.70054,-0.75193c-1.52555,-1.31639 0,-96.43664 0,-96.43664h27.63161c0,0 0.92525,22.97176 1.30086,36.57334c0.26592,9.62908 1.49219,32.69525 2.00297,45.62665c0.39952,10.11458 0.2484,11.47332 -0.39524,12.26185c-0.70542,0.86421 -7.82717,2.19121 -14.83966,2.72674z" fill="#f19078" stroke-width="0"/><path d="M269.76884,247.75369c0.05147,1.37707 0.15805,4.27943 0.15805,4.27943c0,0 -7.77388,6.44541 -13.31281,9.52178c-5.53894,3.07638 -15.2567,4.46595 -15.2567,4.46595l0.2691,-31.485h27.63161c0,0 0.23196,5.75929 0.51076,13.21785z" fill="#e08670" stroke-width="0"/><path d="M257.32704,331.72443c-7.12077,0.54381 -14.45542,0.32247 -15.70054,-0.75193c-0.44485,-0.38386 -0.66972,-27.28933 -0.66972,-27.28933c0,0 7.80055,10.09692 16.95264,7.89571c9.93315,-2.38905 13.60314,-20.71832 13.60314,-20.71832c0,0 0.86879,21.30325 1.04939,25.87529c0.39952,10.11458 0.2484,11.47332 -0.39524,12.26185c-0.70542,0.86421 -7.82717,2.19121 -14.83966,2.72674z" fill="#e08670" stroke-width="0"/><path d="M257.32704,331.72443c-7.12077,0.54381 -14.45542,0.32247 -15.70054,-0.75193c-1.52555,-1.31639 0,-96.43664 0,-96.43664h27.63161c0,0 0.92525,22.97176 1.30086,36.57334c0.26592,9.62908 1.49219,32.69525 2.00297,45.62665c0.39952,10.11458 0.2484,11.47332 -0.39524,12.26185c-0.70542,0.86421 -7.82717,2.19121 -14.83966,2.72674z" fill="none" stroke-width="2.5"/></g><g stroke-linecap="butt"><path d="M208.03626,328.68434c-0.64364,-0.78852 -0.79476,-2.14726 -0.39524,-12.26184c0.51078,-12.9314 1.73706,-35.99757 2.00298,-45.62665c0.37562,-13.60158 1.30086,-36.57334 1.30086,-36.57334h27.63161c0,0 1.52555,95.12026 0,96.43665c-1.24511,1.07441 -8.57977,1.29573 -15.70054,0.75192c-7.01249,-0.53553 -14.13425,-1.86253 -14.83966,-2.72674z" fill="#f19078" stroke-width="0"/><path d="M210.94486,234.22249h27.63161l0.2691,31.485c0,0 -9.71777,-1.38957 -15.2567,-4.46595c-5.53894,-3.07638 -13.31282,-9.52178 -13.31282,-9.52178c0,0 0.10657,-2.90235 0.15805,-4.27943c0.2788,-7.45856 0.51076,-13.21785 0.51076,-13.21785z" fill="#e08670" stroke-width="0"/><path d="M208.03626,328.68434c-0.64364,-0.78852 -0.79476,-2.14726 -0.39524,-12.26184c0.1806,-4.57204 1.04937,-25.87529 1.04937,-25.87529c0,0 3.66999,18.32927 13.60314,20.71832c9.15208,2.2012 16.95264,-7.89571 16.95264,-7.89571c0,0 -0.22487,26.90548 -0.66972,27.28934c-1.24511,1.07441 -8.57977,1.29574 -15.70054,0.75193c-7.01249,-0.53553 -14.13425,-1.86253 -14.83966,-2.72674z" fill="#e08670" stroke-width="0"/><path d="M208.03626,328.68434c-0.64364,-0.78852 -0.79476,-2.14726 -0.39524,-12.26184c0.51078,-12.9314 1.73706,-35.99757 2.00298,-45.62665c0.37562,-13.60158 1.30086,-36.57334 1.30086,-36.57334h27.63161c0,0 1.52555,95.12026 0,96.43665c-1.24511,1.07441 -8.57977,1.29573 -15.70054,0.75192c-7.01249,-0.53553 -14.13425,-1.86253 -14.83966,-2.72674z" fill="none" stroke-width="2.5"/></g><g stroke-linecap="butt"><path d="M277.01011,209.71862c0,28.94338 -16.75076,49.11653 -37.41387,49.11653c-20.66311,0 -36.49686,-19.23312 -37.41387,-48.1765c-0.91651,-28.92812 16.75076,-56.63677 37.41387,-56.63677c20.66311,0 37.41387,26.75336 37.41387,55.69674z" fill="#e08670" stroke-width="0"/><path d="M271.04961,201.4765c0,24.66028 -13.97149,41.84817 -31.20618,41.84817c-17.23469,0 -30.44133,-16.38697 -31.20619,-41.04725c-0.21879,-7.05428 3.76498,-20.37838 3.76498,-20.37838c0,0 16.28192,6.59069 27.44119,6.43391c11.15928,-0.15678 27.05968,-7.22537 27.05968,-7.22537c0,0 4.14651,13.25672 4.14651,20.36892z" fill="#f19078" stroke-width="0"/><path d="M277.01011,209.71862c0,28.94338 -16.75076,49.11653 -37.41387,49.11653c-20.66311,0 -36.49686,-19.23312 -37.41387,-48.1765c-0.91651,-28.92812 16.75076,-56.63677 37.41387,-56.63677c20.66311,0 37.41387,26.75336 37.41387,55.69674z" fill="none" stroke-width="2.5"/></g><path d="M220.68166,325.25888l0.33334,5" fill="none" stroke-width="2.5" stroke-linecap="round"/><path d="M258.34831,330.92556l0.33333,-5.33333" fill="none" stroke-width="2.5" stroke-linecap="round"/><path d="M288.50675,181.17005c1.86312,2.24914 1.84079,4.65667 -0.99715,9.09147c-5.79603,9.05734 -28.39897,30.9727 -29.62279,33.8639c-1.22735,2.89954 -1.28479,6.39867 -3.83584,11.8344c-2.68961,5.73094 -7.71795,10.40994 -10.83797,9.91816c-4.68844,-0.73896 -2.41391,-8.2228 -2.41391,-8.2228c0,0 -7.31122,4.44539 -10.40403,1.09345c-3.0725,-3.3299 0.76417,-9.93355 0.76417,-9.93355c0,0 -7.80193,1.51033 -8.51603,-3.77117c-0.61486,-4.5475 10.02539,-8.00672 10.02539,-8.00672c0,0 -4.83133,-4.77211 -2.40449,-8.21482c2.28272,-3.23826 9.87785,-0.32962 13.4439,0.56791c2.92864,0.73711 27.16119,-23.54672 35.0151,-27.69641c4.54085,-2.39921 7.69989,-3.03935 9.78366,-0.52386z" data-paper-data="{&quot;index&quot;:null}" fill="#f19078" stroke-width="2.5" stroke-linecap="butt"/></g></g></svg>