<svg version="1.1" xmlns="http://www.w3.org/2000/svg" xmlns:xlink="http://www.w3.org/1999/xlink" width="206.58434" height="286.81345" viewBox="0,0,206.58434,286.81345"><defs><linearGradient x1="217.99505" y1="100.6477" x2="217.99505" y2="116.94155" gradientUnits="userSpaceOnUse" id="color-1"><stop offset="0" stop-color="#b3b3b3"/><stop offset="1" stop-color="#8b8b8b"/></linearGradient><linearGradient x1="263.27313" y1="100.33436" x2="263.27313" y2="116.62819" gradientUnits="userSpaceOnUse" id="color-2"><stop offset="0" stop-color="#b3b3b3"/><stop offset="1" stop-color="#8b8b8b"/></linearGradient><linearGradient x1="237.56344" y1="125.75415" x2="237.56344" y2="128.72702" gradientUnits="userSpaceOnUse" id="color-3"><stop offset="0" stop-color="#696969"/><stop offset="1" stop-color="#9a9a9a"/></linearGradient><linearGradient x1="244.13487" y1="125.98273" x2="244.13487" y2="128.95559" gradientUnits="userSpaceOnUse" id="color-4"><stop offset="0" stop-color="#696969"/><stop offset="1" stop-color="#9a9a9a"/></linearGradient></defs><g transform="translate(-136.70783,-36.59328)"><g data-paper-data="{&quot;isPaintingLayer&quot;:true}" fill-rule="nonzero" stroke-linejoin="miter" stroke-miterlimit="10" stroke-dasharray="" stroke-dashoffset="0" style="mix-blend-mode: normal"><path d="M173.80667,220.61148c1.60787,-2.29187 4.61101,-5.09604 4.9033,-1.37549c-0.00775,0.38908 -0.50664,0.71346 -0.42371,1.09001c0.6021,-0.88826 2.75256,-1.12053 3.61989,-1.57828c0.49221,-0.25977 2.03352,-2.07087 2.32162,-1.97429c0.4532,0.15192 0.47021,2.27737 0.50396,2.68081c0.0494,0.59071 -0.49746,3.91925 0.03244,4.07c1.4062,0.40005 2.87483,-0.18551 3.81085,-1.17422c0.21481,-0.2269 0.72028,-0.92368 1.19442,-0.47828c0.17693,0.16621 -0.0651,0.48113 -0.09766,0.72169c-1.00613,3.06998 0.23171,7.44147 -1.9288,10.14174c-1.3411,0.37373 0.61549,0.15247 1.11239,0.13427l0.28546,-0.32608c0.00002,-0.00003 0.00005,-0.00005 0.00007,-0.00008c0.04181,-0.04777 0.10172,-0.07973 0.17004,-0.08468c0.13771,-0.00998 0.25743,0.09357 0.26741,0.23128c0.00489,0.06751 -0.0175,0.13069 -0.05782,0.17874l-0.32071,0.38321l-0.00847,-0.00709l-0.00358,0.00409l-0.02569,-0.02249l-0.02327,0.05003c-0.09802,0.54701 -0.41265,1.19537 -0.57049,1.6743c-0.66123,2.0063 0.18762,5.30936 0.33841,7.39331c0.01078,0.14894 -0.01295,1.60225 0.27138,1.48133c0.50215,-0.21355 0.97556,-1.41345 1.65043,-1.02275c0.30786,0.17822 0.12294,1.30983 0.22213,1.61932c0.49271,1.53728 1.65882,2.84768 2.18996,4.36364c1.62699,2.08926 2.2789,-1.50068 4.63192,-1.02475c1.47109,0.29755 1.96913,2.5702 2.19175,3.81751c0.54523,0.78171 3.20081,-1.62684 3.96917,-1.74746c2.0409,-0.32039 3.09394,1.46094 4.87886,0.11834c2.78864,-2.09487 6.27264,-3.27697 9.04258,-5.30978c2.56465,-1.86933 6.18401,-3.85005 9.12139,-5.18529c1.86361,-0.83914 3.85927,-1.83712 5.74938,-2.57729l0.19043,-0.3808c0.03747,-0.07836 0.11478,-0.13495 0.20761,-0.14168c0.13771,-0.00998 0.25743,0.09357 0.26741,0.23128c0.00292,0.04031 -0.00389,0.07907 -0.01843,0.11399l-0.18026,0.46079l-0.02985,-0.01168c-0.04054,0.28584 -0.09257,0.5722 -0.15468,0.85867c0.32866,-0.75508 0.65172,-1.51237 0.96563,-2.27318c0,0 0.09535,-0.2311 0.32646,-0.13575c0.2311,0.09535 0.13575,0.32646 0.13575,0.32646c-1.14447,2.77372 -2.41012,5.50083 -3.62617,8.24392c-1.41162,3.18057 -3.34865,6.21189 -5.02449,9.26264c-1.31345,1.73814 -2.60003,3.33299 -4.00566,4.85185c-1.07974,1.7924 -2.20712,3.51995 -3.88541,4.9206c-2.27157,2.51532 -4.53271,5.42762 -6.32274,8.29949c-1.25145,1.52464 -2.34214,3.22379 -3.21984,4.98243c-0.4226,0.84676 -0.60587,1.97483 -1.37886,2.09635l0.02355,0.32592c0,0 0,0 0,0.00001c0.00995,0.13769 -0.09359,0.25739 -0.23129,0.26736c-0.06886,0.00499 -0.13321,-0.01841 -0.18161,-0.06026v0l-0.37817,-0.32708l0.09673,-0.11184c-0.52767,-0.66911 -0.35196,-1.49531 -0.91982,-2.27757c-0.20012,-0.27567 -1.47369,-0.00201 -1.75897,0.01677c-1.68629,0.11099 -3.32844,0.18601 -5.01779,0.12379c-0.60014,-0.0221 -2.12987,0.19254 -2.62615,-0.13276c-0.4392,-0.28788 -0.49106,-1.68432 -0.70274,-1.83625c-0.44792,-0.32151 -1.07898,0.38525 -1.45311,0.79024c-0.77118,0.83479 -2.41878,1.82471 -3.59076,1.95065c-0.58254,-0.78095 -0.59879,-1.62472 -1.03183,-2.31437c-0.38773,-0.61749 -2.0382,-0.5922 -2.6677,-0.70033c-1.23805,-0.21267 -3.76075,-1.29562 -4.59842,-2.21417c-1.43138,-1.60593 -8.17011,-5.97808 -3.32866,-6.40581l0.00165,0.00074l-0.00006,-0.00086l0.00213,-0.00016c-0.72588,-0.46137 -1.08846,-1.78284 -1.70371,-2.39766c-1.24597,-1.24508 -2.75291,-1.78876 -4.0134,-2.7238c-0.46432,-0.34443 -0.38559,-1.2292 -0.42007,-1.71711c0.25151,-0.34238 2.32117,-1.46876 2.31029,-1.56957c-0.21018,-1.94813 -2.94291,-4.50048 -3.8705,-6.22069c-0.39069,-0.93543 -1.95082,-5.09951 -1.4131,-5.97345c0.30403,-0.49413 1.42706,-0.37076 1.78244,-0.79697c0.2078,-0.24922 -0.02601,-1.96147 -0.05002,-2.33217c-0.08256,-1.14369 -0.36125,-4.87508 -1.2811,-5.61908c-0.29616,-0.23954 -0.95627,-0.54716 -1.04579,-1.07537c-0.2183,-1.28802 1.69942,-1.57573 2.51808,-1.59942c1.35177,-2.76189 -1.08115,-7.27222 -0.57203,-10.08606c0.55775,-0.89227 1.03324,-0.56023 1.7596,-1.0061c0.40272,-0.2472 -0.01713,-1.07777 0.17956,-1.3741c0.15488,-0.23334 0.52301,-0.42852 0.91686,-0.57316zM224.1034,254.71969c-0.24537,0.34994 -0.47952,0.70415 -0.70639,1.06058c0.69493,-0.84043 1.37682,-1.71059 2.06838,-2.6206c0.34624,-0.63439 0.70463,-1.2674 1.06772,-1.90076c-0.78002,1.13587 -1.59439,2.26948 -2.42972,3.46079z" fill="#888888" stroke="#000000" stroke-width="2.5" stroke-linecap="butt"/><g data-paper-data="{&quot;index&quot;:null}" stroke="#000000" stroke-linecap="butt"><path d="M300.32576,38.8091c12.97742,4.30147 18.87158,21.74542 13.16497,38.96214c-5.70661,17.21672 -20.85303,27.68661 -33.83045,23.38514c-12.97743,-4.30147 -18.87159,-21.74542 -13.16498,-38.96214c5.70661,-17.21672 20.85303,-27.6866 33.83046,-23.38513z" fill="#cecece" stroke-width="0"/><path d="M266.49531,62.19424c0.31838,-0.96053 0.66614,-1.90008 1.04127,-2.81723c0.08232,12.59708 9.72693,23.30862 22.53214,24.46359c11.41727,1.02979 21.72193,-5.86458 25.47671,-16.14556c-0.25964,3.29984 -0.93311,6.69241 -2.0547,10.0762c-5.70661,17.21673 -20.85303,27.6866 -33.83046,23.38513c-12.97744,-4.30147 -18.87159,-21.74541 -13.16498,-38.96214z" fill="#b7b7b7" stroke-width="0"/><path d="M300.32577,38.8091c12.97743,4.30147 18.87159,21.74542 13.16498,38.96214c-5.70662,17.21672 -20.85303,27.68661 -33.83046,23.38514c-12.97743,-4.30147 -18.87159,-21.74541 -13.16498,-38.96214c5.70661,-17.21672 20.85303,-27.68661 33.83046,-23.38514z" fill="none" stroke-width="2.5"/><path d="M271.75817,64.58127c4.42683,-13.35564 16.17644,-21.4775 26.2435,-18.1407c10.06707,3.3368 14.63937,16.8687 10.21255,30.22434c-4.42684,13.35564 -16.17645,21.4775 -26.24351,18.1407c-10.06707,-3.3368 -14.63937,-16.86869 -10.21255,-30.22433z" fill="#9a9a9a" stroke-width="0"/></g><g stroke="#000000" stroke-linecap="butt"><path d="M214.49074,62.69423c5.70661,17.21672 -0.18755,34.66067 -13.16497,38.96214c-12.97743,4.30147 -28.12384,-6.16842 -33.83045,-23.38514c-5.70661,-17.21672 0.18755,-34.66067 13.16497,-38.96214c12.97743,-4.30147 28.12384,6.16842 33.83045,23.38514z" fill="#cecece" stroke-width="0"/><path d="M214.49074,62.69424c5.70662,17.21673 -0.18754,34.66067 -13.16497,38.96214c-12.97743,4.30147 -28.12385,-6.16841 -33.83046,-23.38514c-1.12158,-3.38379 -1.79505,-6.77636 -2.05469,-10.0762c3.75479,10.28097 14.05943,17.17535 25.47671,16.14556c12.80521,-1.15498 22.44982,-11.86651 22.53214,-24.46359c0.37513,0.91715 0.72289,1.85669 1.04127,2.81723z" fill="#b7b7b7" stroke-width="0"/><path d="M214.49073,62.69424c5.70662,17.21672 -0.18754,34.66066 -13.16497,38.96213c-12.97743,4.30147 -28.12384,-6.16841 -33.83046,-23.38514c-5.70662,-17.21672 0.18754,-34.66067 13.16497,-38.96214c12.97743,-4.30147 28.12384,6.16842 33.83046,23.38514z" fill="none" stroke-width="2.5"/><path d="M209.22788,65.08128c4.42682,13.35564 -0.14548,26.88752 -10.21255,30.22433c-10.06707,3.3368 -21.81667,-4.78506 -26.24351,-18.1407c-4.42682,-13.35564 0.14548,-26.88754 10.21255,-30.22434c10.06707,-3.3368 21.81667,4.78506 26.24351,18.1407z" fill="#9a9a9a" stroke-width="0"/></g><path d="M264.23396,165.4282c2.82549,-0.73923 4.99846,0.29756 7.82026,4.74265c5.76306,9.07835 16.08526,38.82105 18.18935,41.15119c2.11016,2.33686 5.25782,3.86639 9.10809,8.47404c4.05937,4.8579 6.17767,11.39166 4.4145,14.01227c-2.64948,3.93799 -8.47309,-1.28378 -8.47309,-1.28378c0,0 0.94263,8.50452 -3.40175,9.8928c-4.31583,1.37917 -8.68196,-4.88701 -8.68196,-4.88701c0,0 -1.92516,7.71006 -7.01428,6.12734c-4.38186,-1.36276 -3.0249,-12.4686 -3.0249,-12.4686c0,0 -6.36581,2.36458 -8.46188,-1.28895c-1.97159,-3.43656 3.87199,-9.09331 6.1913,-11.94691c1.90476,-2.34354 -9.87635,-34.56351 -10.32178,-43.43511c-0.25754,-5.12925 0.49604,-8.26316 3.65614,-9.08994z" data-paper-data="{&quot;index&quot;:null}" fill="#cecece" stroke="#000000" stroke-width="2.5" stroke-linecap="butt"/><path d="M218.54096,173.50469c-0.24233,8.87945 -11.28309,41.36057 -9.32523,43.65991c2.38398,2.79979 8.35546,8.32134 6.46303,11.80212c-2.01191,3.70054 -8.43016,1.48223 -8.43016,1.48223c0,0 1.61072,11.07188 -2.73881,12.53454c-5.05157,1.69875 -7.15265,-5.96523 -7.15265,-5.96523c0,0 -4.22161,6.36443 -8.56787,5.08439c-4.37499,-1.28851 -3.62722,-9.81236 -3.62722,-9.81236c0,0 -5.70258,5.35366 -8.44149,1.47732c-1.82267,-2.57959 0.14558,-9.16011 4.09273,-14.10962c3.74383,-4.69457 6.85568,-6.29569 8.91181,-8.68022c2.05023,-2.37769 11.68914,-32.34877 17.24298,-41.55662c2.71935,-4.50849 4.86802,-5.59473 7.70968,-4.92034c3.1782,0.75426 4.0033,3.8701 3.86319,9.0039z" data-paper-data="{&quot;index&quot;:null}" fill="#cecece" stroke="#000000" stroke-width="2.5" stroke-linecap="butt"/><g data-paper-data="{&quot;index&quot;:null}" stroke="#000000" stroke-linecap="butt"><path d="M257.54076,322.05762c-7.12077,0.54381 -14.45542,0.32247 -15.70054,-0.75193c-1.52555,-1.31639 0,-96.43664 0,-96.43664h27.63161c0,0 0.92525,22.97176 1.30086,36.57334c0.26592,9.62908 1.49219,32.69525 2.00297,45.62665c0.39952,10.11458 0.2484,11.47332 -0.39524,12.26185c-0.70542,0.86421 -7.82717,2.19121 -14.83966,2.72674z" fill="#cecece" stroke-width="0"/><path d="M269.98256,238.08688c0.05147,1.37707 0.15805,4.27943 0.15805,4.27943c0,0 -7.77388,6.44541 -13.31281,9.52178c-5.53894,3.07638 -15.2567,4.46595 -15.2567,4.46595l0.2691,-31.485h27.63161c0,0 0.23196,5.75929 0.51076,13.21785z" fill="#b7b7b7" stroke-width="0"/><path d="M257.54076,322.05762c-7.12077,0.54381 -14.45542,0.32247 -15.70054,-0.75193c-0.44485,-0.38386 -0.66972,-27.28933 -0.66972,-27.28933c0,0 7.80055,10.09692 16.95264,7.89571c9.93315,-2.38905 13.60314,-20.71832 13.60314,-20.71832c0,0 0.86879,21.30325 1.04939,25.87529c0.39952,10.11458 0.2484,11.47332 -0.39524,12.26185c-0.70542,0.86421 -7.82717,2.19121 -14.83966,2.72674z" fill="#b7b7b7" stroke-width="0"/><path d="M257.54076,322.05762c-7.12077,0.54381 -14.45542,0.32247 -15.70054,-0.75193c-1.52555,-1.31639 0,-96.43664 0,-96.43664h27.63161c0,0 0.92525,22.97176 1.30086,36.57334c0.26592,9.62908 1.49219,32.69525 2.00297,45.62665c0.39952,10.11458 0.2484,11.47332 -0.39524,12.26185c-0.70542,0.86421 -7.82717,2.19121 -14.83966,2.72674z" fill="none" stroke-width="2.5"/></g><g stroke="#000000" stroke-linecap="butt"><path d="M208.24998,319.01753c-0.64364,-0.78852 -0.79476,-2.14726 -0.39524,-12.26184c0.51078,-12.9314 1.73706,-35.99757 2.00298,-45.62665c0.37562,-13.60158 1.30086,-36.57334 1.30086,-36.57334h27.63161c0,0 1.52555,95.12026 0,96.43665c-1.24511,1.07441 -8.57977,1.29573 -15.70054,0.75192c-7.01249,-0.53553 -14.13425,-1.86253 -14.83966,-2.72674z" fill="#cecece" stroke-width="0"/><path d="M211.15858,224.55569h27.63161l0.2691,31.485c0,0 -9.71777,-1.38957 -15.2567,-4.46595c-5.53894,-3.07638 -13.31282,-9.52178 -13.31282,-9.52178c0,0 0.10657,-2.90235 0.15805,-4.27943c0.2788,-7.45856 0.51076,-13.21785 0.51076,-13.21785z" fill="#b7b7b7" stroke-width="0"/><path d="M208.24998,319.01753c-0.64364,-0.78852 -0.79476,-2.14726 -0.39524,-12.26184c0.1806,-4.57204 1.04937,-25.87529 1.04937,-25.87529c0,0 3.66999,18.32927 13.60314,20.71832c9.15208,2.2012 16.95264,-7.89571 16.95264,-7.89571c0,0 -0.22487,26.90548 -0.66972,27.28934c-1.24511,1.07441 -8.57977,1.29574 -15.70054,0.75193c-7.01249,-0.53553 -14.13425,-1.86253 -14.83966,-2.72674z" fill="#b7b7b7" stroke-width="0"/><path d="M208.24998,319.01753c-0.64364,-0.78852 -0.79476,-2.14726 -0.39524,-12.26184c0.51078,-12.9314 1.73706,-35.99757 2.00298,-45.62665c0.37562,-13.60158 1.30086,-36.57334 1.30086,-36.57334h27.63161c0,0 1.52555,95.12026 0,96.43665c-1.24511,1.07441 -8.57977,1.29573 -15.70054,0.75192c-7.01249,-0.53553 -14.13425,-1.86253 -14.83966,-2.72674z" fill="none" stroke-width="2.5"/></g><g stroke="#000000" stroke-linecap="butt"><path d="M277.22383,200.05182c0,28.94338 -16.75076,49.11653 -37.41387,49.11653c-20.66311,0 -36.49686,-19.23312 -37.41387,-48.1765c-0.91651,-28.92812 16.75076,-56.63677 37.41387,-56.63677c20.66311,0 37.41387,26.75336 37.41387,55.69674z" fill="#b7b7b7" stroke-width="0"/><path d="M271.26333,191.8097c0,24.66028 -13.97149,41.84817 -31.20618,41.84817c-17.23469,0 -30.44133,-16.38697 -31.20619,-41.04725c-0.21879,-7.05428 3.76498,-20.37838 3.76498,-20.37838c0,0 16.28192,6.59069 27.44119,6.43391c11.15928,-0.15678 27.05968,-7.22537 27.05968,-7.22537c0,0 4.14651,13.25672 4.14651,20.36892z" fill="#cecece" stroke-width="0"/><path d="M277.22383,200.05182c0,28.94338 -16.75076,49.11653 -37.41387,49.11653c-20.66311,0 -36.49686,-19.23312 -37.41387,-48.1765c-0.91651,-28.92812 16.75076,-56.63677 37.41387,-56.63677c20.66311,0 37.41387,26.75336 37.41387,55.69674z" fill="none" stroke-width="2.5"/></g><g stroke-linecap="butt"><g stroke="#000000"><path d="M297.53799,112.74332c0,31.40942 -25.56758,56.87178 -57.10679,56.87178c-31.53921,0 -57.10678,-25.46236 -57.10678,-56.87178c0,-31.40942 25.56758,-56.87177 57.10679,-56.87177c31.53921,0 57.10679,25.46236 57.10679,56.87178z" fill="#b7b7b7" stroke-width="0"/><path d="M292.36784,106.86813c0,27.38589 -23.3489,49.58655 -52.15125,49.58655c-28.80233,0 -52.15124,-22.20066 -52.15124,-49.58655c0,-27.3859 23.3489,-49.58655 52.15124,-49.58655c28.80233,0 52.15125,22.20065 52.15125,49.58655z" fill="#cecece" stroke-width="0"/><path d="M297.53799,112.74332c0,31.40942 -25.56758,56.87178 -57.10679,56.87178c-31.53921,0 -57.10678,-25.46236 -57.10678,-56.87178c0,-31.40942 25.56758,-56.87177 57.10679,-56.87177c31.53921,0 57.10679,25.46236 57.10679,56.87178z" fill="none" stroke-width="2.5"/></g><path d="M213.79143,127.81828c2.73739,5.86582 1.06945,12.87733 -3.72544,15.66065c-4.79489,2.78332 -10.90101,0.28448 -13.63841,-5.58134c-2.73739,-5.86582 -1.06946,-12.87733 3.72543,-15.66065c4.79489,-2.78332 10.90102,-0.28448 13.63842,5.58134z" fill="#9a9a9a" stroke="none" stroke-width="0"/><path d="M281.74321,122.70695c4.79489,2.78332 6.46283,9.79485 3.72543,15.66066c-2.73739,5.86582 -8.84351,8.36466 -13.6384,5.58134c-4.79489,-2.78332 -6.46283,-9.79484 -3.72543,-15.66065c2.73739,-5.86582 8.84351,-8.36467 13.6384,-5.58134z" data-paper-data="{&quot;index&quot;:null}" fill="#9a9a9a" stroke="none" stroke-width="0"/></g><path d="M233.29692,112.60976c-2.39429,11.08591 -12.25227,18.36292 -22.01844,16.25366c-9.76615,-2.10925 -15.74223,-12.80605 -13.34795,-23.89195c2.39429,-11.0859 12.25227,-18.36292 22.01844,-16.25366c9.76615,2.10926 15.74223,12.80605 13.34795,23.89195z" fill="#ffffff" stroke="#000000" stroke-width="2.5" stroke-linecap="butt"/><g stroke="none" stroke-linecap="butt"><g><path d="M209.84813,108.79462c0,-4.49942 3.6475,-8.14693 8.14692,-8.14693c4.49942,0 8.14693,3.64751 8.14693,8.14693c0,4.49942 -3.64751,8.14692 -8.14693,8.14692c-4.49942,0 -8.14692,-3.6475 -8.14692,-8.14692z" fill="url(#color-1)" stroke-width="0.5"/><path d="M219.30225,116.80366l-0.76008,-3.95233l1.8663,-0.62826l2.06359,3.34009c0,0 -0.84777,0.63232 -1.53736,0.84304c-0.67499,0.20626 -1.63244,0.39748 -1.63244,0.39748z" fill="#848484" stroke-width="0"/><path d="M223.58425,114.70131l-2.59819,-2.93979l1.01418,-0.95403l2.92407,2.18928c0,0 -0.34263,0.59353 -0.61266,0.937c-0.27003,0.34347 -0.72741,0.76753 -0.72741,0.76753z" fill="#848484" stroke-width="0"/></g><path d="M213.26983,108.79462c0,-2.60967 2.11555,-4.72522 4.72522,-4.72522c2.60967,0 4.72522,2.11555 4.72522,4.72522c0,2.60967 -2.11555,4.72521 -4.72522,4.72521c-2.60967,0 -4.72522,-2.11554 -4.72522,-4.72521z" fill="#000000" stroke-width="0.5"/><path d="M216.97676,107.1422c-1.20529,1.17977 -3.01243,1.28813 -4.03639,0.24203c-1.02396,-1.04609 -0.87694,-2.85051 0.32834,-4.03028c1.20529,-1.17977 3.01244,-1.28813 4.03639,-0.24203c1.02396,1.04609 0.87694,2.85051 -0.32835,4.03028z" fill="#ffffff" stroke-width="0"/><path d="M213.4814,108.41404c0.24212,0.32627 0.21661,0.73883 -0.05696,0.92146c-0.27357,0.18263 -0.69161,0.06617 -0.93373,-0.2601c-0.24212,-0.32627 -0.21661,-0.73882 0.05696,-0.92145c0.27357,-0.18263 0.69161,-0.06618 0.93373,0.2601z" fill="#ffffff" stroke-width="0"/></g><path d="M261.33504,88.56113c9.76617,-2.10926 19.62415,5.16776 22.01844,16.25366c2.39429,11.0859 -3.58179,21.7827 -13.34795,23.89195c-9.76617,2.10925 -19.62415,-5.16776 -22.01844,-16.25366c-2.39428,-11.0859 3.58179,-21.7827 13.34795,-23.89195z" data-paper-data="{&quot;index&quot;:null}" fill="#ffffff" stroke="#000000" stroke-width="2.5" stroke-linecap="butt"/><g stroke="none" stroke-linecap="butt"><g><path d="M255.12621,108.48128c0,-4.49942 3.64751,-8.14692 8.14693,-8.14692c4.49942,0 8.14692,3.6475 8.14692,8.14692c0,4.49942 -3.6475,8.14691 -8.14692,8.14691c-4.49942,0 -8.14693,-3.6475 -8.14693,-8.14691z" fill="url(#color-2)" stroke-width="0.5"/><path d="M264.58033,116.49032l-0.76009,-3.95235l1.86631,-0.62826l2.06359,3.34009c0,0 -0.84778,0.63232 -1.53737,0.84304c-0.67499,0.20626 -1.63245,0.39748 -1.63245,0.39748z" fill="#848484" stroke-width="0"/><path d="M268.86231,114.38797l-2.59819,-2.93979l1.01418,-0.95401l2.92406,2.18928c0,0 -0.34262,0.59352 -0.61266,0.93699c-0.27004,0.34347 -0.7274,0.76753 -0.7274,0.76753z" fill="#848484" stroke-width="0"/></g><path d="M258.54792,108.48128c0,-2.60967 2.11556,-4.72522 4.72522,-4.72522c2.60967,0 4.7252,2.11555 4.7252,4.72522c0,2.60967 -2.11555,4.72521 -4.7252,4.72521c-2.60967,0 -4.72522,-2.11554 -4.72522,-4.72521z" fill="#000000" stroke-width="0.5"/><path d="M262.25485,106.82886c-1.20529,1.17977 -3.01243,1.28813 -4.03638,0.24203c-1.02396,-1.0461 -0.87694,-2.85052 0.32834,-4.03028c1.20529,-1.17977 3.01244,-1.28813 4.03638,-0.24203c1.02395,1.0461 0.87694,2.85052 -0.32835,4.03028z" fill="#ffffff" stroke-width="0"/><path d="M258.75947,108.1007c0.24212,0.32627 0.2166,0.73882 -0.05697,0.92145c-0.27357,0.18263 -0.69162,0.06618 -0.93372,-0.2601c-0.2421,-0.32627 -0.2166,-0.73882 0.05696,-0.92145c0.27357,-0.18263 0.69162,-0.06618 0.93372,0.2601z" fill="#ffffff" stroke-width="0"/></g><path d="M221.73337,75.44641c0.27622,0.85389 -1.10016,1.85653 -3.07423,2.23944c-1.97407,0.38291 -6.32138,0.49052 -6.5976,-0.36337c-0.27622,-0.85389 3.62326,-2.34594 5.59733,-2.72885c1.97407,-0.38291 3.79829,-0.00111 4.07451,0.85278z" fill="#000000" stroke="none" stroke-width="0" stroke-linecap="butt"/><path d="M262.84549,74.28029c1.97407,0.38292 5.87354,1.87495 5.59732,2.72885c-0.27622,0.85389 -4.62354,0.74629 -6.5976,0.36338c-1.97407,-0.38292 -3.35046,-1.38555 -3.07423,-2.23944c0.27622,-0.85389 2.10045,-1.2357 4.07452,-0.85278z" data-paper-data="{&quot;index&quot;:null}" fill="#000000" stroke="none" stroke-width="0" stroke-linecap="butt"/><path d="M252.16561,147.31948c0,0 -3.43687,34.35588 -5.86308,39.3471c-2.42621,4.99104 -5.10392,1.20584 -5.10392,1.20584c0,0 -3.38805,2.96998 -5.58619,-1.19504c-2.19815,-4.16502 -6.32085,-39.3579 -6.32085,-39.3579" fill="#000000" stroke="#000000" stroke-width="2.5" stroke-linecap="round"/><path d="M228.67256,60.51842c0,0 1.64957,-4.37326 3.24241,-6.63254c1.59284,-2.25928 6.09975,-6.6184 6.09975,-6.6184c0,0 0.39971,3.59163 1.29236,5.61817c0.89265,2.02654 3.64377,5.58812 3.64377,5.58812c0,0 2.9062,-4.98026 5.44038,-7.39828c2.53418,-2.41803 8.57662,-5.97624 8.57662,-5.97624c0,0 -2.3711,6.52023 -2.40855,9.00917c-0.03941,2.61913 0.46305,8.04745 0.46305,8.04745" fill="#cecece" stroke="#000000" stroke-width="2.5" stroke-linecap="round"/><path d="M204.06788,153.8854c0,0 -2.23862,0.2217 -3.24981,0.20902c-0.89221,-0.0112 -2.50517,-0.28121 -2.50517,-0.28121c0,0 -0.05873,-2.79957 -0.18022,-3.9081c-0.08941,-0.81586 -0.48243,-2.13846 -0.48243,-2.13846c0,0 -3.14904,0.22627 -4.55536,0.10328c-1.22694,-0.1073 -3.41811,-0.80059 -3.41811,-0.80059c0,0 1.1739,-4.4742 1.46182,-6.39551c0.2343,-1.56349 0.13823,-4.28168 0.13823,-4.28168" fill="#b7b7b7" stroke="#000000" stroke-width="2.5" stroke-linecap="round"/><path d="M289.96785,137.64215c0,0 -0.09607,2.71819 0.13823,4.28168c0.28792,1.92131 1.46182,6.39551 1.46182,6.39551c0,0 -2.19117,0.69329 -3.41811,0.80059c-1.40632,0.12299 -4.55536,-0.10327 -4.55536,-0.10327c0,0 -0.39302,1.32261 -0.48243,2.13846c-0.12149,1.10853 -0.18022,3.9081 -0.18022,3.9081c0,0 -1.61296,0.27002 -2.50517,0.2812c-1.01118,0.01269 -3.24981,-0.20902 -3.24981,-0.20902" data-paper-data="{&quot;index&quot;:null}" fill="#b7b7b7" stroke="#000000" stroke-width="2.5" stroke-linecap="round"/><path d="M248.31334,124.43514c0,2.24859 -3.32588,7.07143 -7.42857,7.07143c-4.10269,0 -7.42857,-4.82284 -7.42857,-7.07143c0,-2.24859 3.32588,-4.07143 7.42857,-4.07143c4.10269,0 7.42857,1.82284 7.42857,4.07143z" fill="#b7b7b7" stroke="none" stroke-width="0" stroke-linecap="butt"/><path d="M239.07051,128.6707c-0.25914,0.27387 -1.52834,-0.50627 -2.21011,-1.15137c-0.68177,-0.6451 -1.02437,-1.39007 -0.76523,-1.66394c0.25914,-0.27387 1.0219,0.02707 1.70367,0.67217c0.68177,0.6451 1.53081,1.86927 1.27167,2.14315z" fill="url(#color-3)" stroke="none" stroke-width="0" stroke-linecap="butt"/><path d="M243.89948,126.75613c0.68177,-0.6451 1.44452,-0.94604 1.70367,-0.67217c0.25914,0.27387 -0.08346,1.01884 -0.76523,1.66395c-0.68177,0.6451 -1.95096,1.42524 -2.2101,1.15137c-0.25914,-0.27387 0.5899,-1.49804 1.27167,-2.14315z" data-paper-data="{&quot;index&quot;:null}" fill="url(#color-4)" stroke="none" stroke-width="0" stroke-linecap="butt"/><path d="M217.0624,319.54862c0,0 -0.06843,-1.81567 0.01763,-2.67627c0.08019,-0.80192 0.48237,-2.32373 0.48237,-2.32373" fill="none" stroke="#000000" stroke-width="2.5" stroke-linecap="round"/><path d="M264.28661,314.79863c0,0 0.40219,1.52181 0.48238,2.32373c0.08606,0.8606 0.01762,2.67627 0.01762,2.67627" data-paper-data="{&quot;index&quot;:null}" fill="none" stroke="#000000" stroke-width="2.5" stroke-linecap="round"/><path d="M254.95348,315.79639c0,0 0.08311,1.52875 0.0721,2.33129c-0.01182,0.86127 -0.14076,2.67258 -0.14076,2.67258" data-paper-data="{&quot;index&quot;:null}" fill="none" stroke="#000000" stroke-width="2.5" stroke-linecap="round"/><path d="M227.02658,320.55026c0,0 -0.12894,-1.81131 -0.14076,-2.67257c-0.01101,-0.80254 0.07209,-2.33129 0.07209,-2.33129" data-paper-data="{&quot;index&quot;:null}" fill="none" stroke="#000000" stroke-width="2.5" stroke-linecap="round"/><g fill="#000000" stroke="none" stroke-width="0" stroke-linecap="butt"><path d="M169.11319,125.20381c17.81043,1.29178 32.09189,4.49997 32.09189,4.49997c0,0 -14.38596,-1.76753 -32.19638,-3.05931c-17.81042,-1.29178 -32.30087,-1.61865 -32.30087,-1.61865c0,0 14.59494,-1.11379 32.40536,0.17799z"/><path d="M173.85862,133.86661c17.82651,-1.04655 32.40474,0.268 32.40474,0.268c0,0 -14.49357,0.12741 -32.32008,1.17396c-17.82651,1.04656 -32.23543,2.61593 -32.23543,2.61593c0,0 14.32426,-3.01134 32.15077,-4.05789z"/><path d="M144.25634,153.59133c0,0 13.56645,-5.49583 30.92729,-9.67685c17.36084,-4.18103 31.94188,-5.46397 31.94188,-5.46397c0,0 -14.24285,2.68724 -31.60369,6.86826c-17.36084,4.18103 -31.26549,8.27256 -31.26549,8.27256z"/></g><g data-paper-data="{&quot;index&quot;:null}" fill="#000000" stroke="none" stroke-width="0" stroke-linecap="butt"><path d="M343.29217,125.85915c0,0 -14.49045,0.32687 -32.30086,1.61865c-17.81042,1.29178 -32.19637,3.05931 -32.19637,3.05931c0,0 14.28146,-3.20819 32.09188,-4.49997c17.81042,-1.29178 32.40535,-0.17799 32.40535,-0.17799z"/><path d="M338.29215,138.75783c0,0 -14.40892,-1.56938 -32.23543,-2.61593c-17.82651,-1.04655 -32.32009,-1.17397 -32.32009,-1.17397c0,0 14.57823,-1.31455 32.40474,-0.268c17.82651,1.04655 32.15078,4.05789 32.15078,4.05789z"/><path d="M335.74368,154.42466c0,0 -13.90465,-4.09153 -31.26549,-8.27255c-17.36084,-4.18103 -31.60368,-6.86826 -31.60368,-6.86826c0,0 14.58105,1.28294 31.94189,5.46397c17.36084,4.18103 30.92729,9.67685 30.92729,9.67685z"/></g></g></g></svg>