<svg version="1.1" xmlns="http://www.w3.org/2000/svg" xmlns:xlink="http://www.w3.org/1999/xlink" width="148.81203" height="269.89134" viewBox="0,0,148.81203,269.89134"><defs><linearGradient x1="256.34155" y1="131.68313" x2="256.34155" y2="147.97698" gradientUnits="userSpaceOnUse" id="color-1"><stop offset="0" stop-color="#f58845"/><stop offset="1" stop-color="#cf7740"/></linearGradient><linearGradient x1="301.61964" y1="131.3698" x2="301.61964" y2="147.66363" gradientUnits="userSpaceOnUse" id="color-2"><stop offset="0" stop-color="#f58845"/><stop offset="1" stop-color="#d17840"/></linearGradient></defs><g transform="translate(-205.59399,-85.65697)"><g data-paper-data="{&quot;isPaintingLayer&quot;:true}" fill-rule="nonzero" stroke-linejoin="miter" stroke-miterlimit="10" stroke-dasharray="" stroke-dashoffset="0" style="mix-blend-mode: normal"><g stroke="#000000"><g stroke-linecap="butt"><path d="M241.82323,348.49286c-0.53921,-0.8633 -0.51801,-2.23025 1.15221,-12.21399c2.13535,-12.76411 6.25691,-35.49215 7.73344,-45.01107c2.08567,-13.44598 5.8967,-36.11829 5.8967,-36.11829l27.4116,3.48005c0,0 -10.46644,94.55498 -12.14564,95.66875c-1.37052,0.90904 -8.67464,0.20484 -15.67022,-1.23146c-6.88921,-1.41445 -13.78713,-3.62783 -14.37808,-4.57399z" fill="#f5af82" stroke-width="0"/><path d="M256.60557,255.14953l27.41159,3.48004l-3.6984,31.26818c0,0 -9.46538,-2.60241 -14.57275,-6.35188c-5.10738,-3.74948 -12.0076,-11.12263 -12.0076,-11.12263c0,0 0.47125,-2.86582 0.69575,-4.22545c1.21593,-7.36407 2.17141,-13.04827 2.17141,-13.04827z" fill="#e4a279" stroke-width="0"/><path d="M241.82323,348.49286c-0.53921,-0.8633 -0.51801,-2.23025 1.15221,-12.21399c0.75499,-4.51289 5.81119,-37.44154 5.81119,-37.44154c0,0 4.8933,10.60247 7.66062,12.08162c2.77162,1.48145 8.95623,-3.19978 8.95623,-3.19978c0,0 2.46445,8.62228 4.13571,10.35887c2.14008,2.22373 8.18622,-2.03565 8.18622,-2.03565c0,0 -5.43453,37.97777 -5.85388,38.25592c-1.37052,0.90904 -8.67464,0.20485 -15.67022,-1.23145c-6.88921,-1.41445 -13.78712,-3.62784 -14.37808,-4.574z" fill="#ca8f6b" stroke-width="0"/><path d="M241.82323,348.49286c-0.53921,-0.8633 -0.51801,-2.23025 1.15221,-12.21399c2.13535,-12.76411 6.25691,-35.49215 7.73344,-45.01107c2.08567,-13.44598 5.8967,-36.11829 5.8967,-36.11829l27.4116,3.48005c0,0 -10.46644,94.55498 -12.14564,95.66875c-1.37052,0.90904 -8.67464,0.20484 -15.67022,-1.23146c-6.88921,-1.41445 -13.78713,-3.62783 -14.37808,-4.57399z" fill="none" stroke-width="2.5"/></g><path d="M248.96404,350.70746l1.04436,-5.57957" fill="none" stroke-width="2.5" stroke-linecap="round"/><path d="M261.2279,347.55609l-0.58772,5.64595" fill="none" stroke-width="2.5" stroke-linecap="round"/></g><g stroke="#000000" stroke-linecap="butt"><path d="M347.00584,228.33267c8.86762,7.10109 -12.88607,32.05887 -30.7408,38.96081c-17.85473,6.90194 -33.89028,8.45778 -35.8164,3.47506c-1.92612,-4.98271 10.98657,-14.61712 28.8413,-21.51907c17.85473,-6.90194 29.07569,-27.83579 37.7159,-20.91681z" fill="#f5af82" stroke-width="0"/><path d="M347.00584,228.33267c4.17379,3.34233 1.56381,10.64059 -4.23042,18.15007c-1.42358,-5.80472 -4.87435,-10.8132 -9.55903,-14.23215c5.38653,-4.44441 9.85549,-7.0682 13.78945,-3.91792z" fill="#ca8f6b" stroke-width="0"/><path d="M347.00584,228.33267c8.86762,7.10109 -12.88607,32.05887 -30.7408,38.96081c-17.85473,6.90194 -33.89028,8.45778 -35.8164,3.47506c-1.92612,-4.98271 10.98657,-14.61712 28.8413,-21.51907c17.85473,-6.90194 29.07569,-27.83579 37.7159,-20.91681z" fill="none" stroke-width="2.5"/></g><g data-paper-data="{&quot;index&quot;:null}" stroke="#000000" stroke-linecap="butt"><path d="M302.06361,204.87346c-0.14011,-5.1338 0.68499,-8.24964 3.86319,-9.0039c2.84166,-0.67439 4.99033,0.41187 7.70968,4.92035c5.55384,9.20785 15.19275,39.17893 17.24298,41.55662c2.05613,2.38452 5.16797,3.98566 8.91181,8.68022c3.94715,4.94951 5.9154,11.53003 4.09273,14.10962c-2.73891,3.87635 -8.44149,-1.47731 -8.44149,-1.47731c0,0 0.74777,8.52385 -3.62722,9.81237c-4.34625,1.28004 -8.56787,-5.08439 -8.56787,-5.08439c0,0 -2.10108,7.66398 -7.15265,5.96523c-4.34953,-1.46266 -2.73881,-12.53454 -2.73881,-12.53454c0,0 -6.41825,2.21831 -8.43016,-1.48223c-1.89243,-3.48078 4.07905,-9.00234 6.46303,-11.80212c1.95787,-2.29934 -9.0829,-34.78046 -9.32523,-43.65991z" data-paper-data="{&quot;index&quot;:null}" fill="#f5af82" stroke-width="0"/><path d="M310.48585,240.62882c1.45381,0.19168 3.45064,2.2456 4.89552,1.46653c2.01687,-1.08748 3.27443,-5.16568 3.27443,-5.16568c0,0 3.24124,4.0618 6.09899,3.84505c1.36585,-0.1036 2.38691,-3.75644 3.40688,-4.47461c1.24943,3.2058 2.21333,5.46138 2.71779,6.04642c2.05613,2.38452 5.16797,3.98566 8.91181,8.68022c3.94715,4.94951 5.9154,11.53003 4.09273,14.10962c-2.73891,3.87635 -8.44149,-1.47731 -8.44149,-1.47731c0,0 0.74777,8.52385 -3.62722,9.81237c-4.34625,1.28004 -8.56787,-5.08439 -8.56787,-5.08439c0,0 -2.10108,7.66398 -7.15265,5.96523c-4.34953,-1.46266 -2.73881,-12.53454 -2.73881,-12.53454c0,0 -6.41825,2.21831 -8.43016,-1.48223c-1.89243,-3.48078 4.07905,-9.00234 6.46303,-11.80212c0.55059,-0.64663 0.07318,-3.68021 -0.90298,-7.90456z" data-paper-data="{&quot;index&quot;:null}" fill="#ca8f6b" stroke-width="0"/><path d="M302.06362,204.87345c-0.14011,-5.1338 0.68499,-8.24964 3.86319,-9.0039c2.84166,-0.67439 4.99033,0.41187 7.70968,4.92035c5.55384,9.20785 15.19275,39.17893 17.24298,41.55662c2.05613,2.38452 5.16797,3.98566 8.91181,8.68022c3.94715,4.94951 5.9154,11.53003 4.09273,14.10962c-2.73891,3.87635 -8.44149,-1.47731 -8.44149,-1.47731c0,0 0.74777,8.52385 -3.62722,9.81237c-4.34625,1.28004 -8.56787,-5.08439 -8.56787,-5.08439c0,0 -2.10108,7.66398 -7.15265,5.96523c-4.34953,-1.46266 -2.73881,-12.53454 -2.73881,-12.53454c0,0 -6.41825,2.21831 -8.43016,-1.48223c-1.89243,-3.48078 4.07905,-9.00234 6.46303,-11.80212c1.95787,-2.29934 -9.0829,-34.78046 -9.32523,-43.65991z" data-paper-data="{&quot;index&quot;:null}" fill="none" stroke-width="2.5"/></g><g stroke="#000000" stroke-linecap="butt"><path d="M254.88748,204.87347c-0.24233,8.87945 -11.2831,41.36057 -9.32523,43.65991c2.38398,2.79978 8.35546,8.32134 6.46303,11.80212c-2.01191,3.70054 -8.43016,1.48223 -8.43016,1.48223c0,0 1.61072,11.07188 -2.73881,12.53454c-5.05157,1.69875 -7.15265,-5.96523 -7.15265,-5.96523c0,0 -4.22162,6.36443 -8.56787,5.08439c-4.37499,-1.28852 -3.62722,-9.81237 -3.62722,-9.81237c0,0 -5.70258,5.35366 -8.44149,1.47731c-1.82267,-2.57959 0.14558,-9.16011 4.09273,-14.10962c3.74384,-4.69456 6.85568,-6.2957 8.91181,-8.68022c2.05023,-2.37769 11.68914,-32.34877 17.24298,-41.55662c2.71935,-4.50848 4.86802,-5.59474 7.70968,-4.92035c3.1782,0.75426 4.0033,3.8701 3.86319,9.0039z" data-paper-data="{&quot;index&quot;:null}" fill="#f5af82" stroke-width="0"/><path d="M245.56225,248.53338c2.38398,2.79978 8.35546,8.32134 6.46303,11.80212c-2.01191,3.70054 -8.43016,1.48223 -8.43016,1.48223c0,0 1.61072,11.07188 -2.73881,12.53454c-5.05157,1.69875 -7.15265,-5.96523 -7.15265,-5.96523c0,0 -4.22162,6.36443 -8.56787,5.08439c-4.37499,-1.28852 -3.62722,-9.81237 -3.62722,-9.81237c0,0 -5.70258,5.35366 -8.44149,1.47731c-1.82267,-2.57959 0.14558,-9.16011 4.09273,-14.10962c3.74384,-4.69456 6.85568,-6.2957 8.91181,-8.68022c0.50446,-0.58504 1.46836,-2.84062 2.71779,-6.04642c1.01997,0.71817 2.04103,4.37101 3.40688,4.47461c2.85775,0.21675 6.09899,-3.84505 6.09899,-3.84505c0,0 1.25756,4.0782 3.27443,5.16568c1.44488,0.77907 3.44171,-1.27485 4.89552,-1.46653c-0.97616,4.22435 -1.45357,7.25793 -0.90298,7.90456z" data-paper-data="{&quot;index&quot;:null}" fill="#ca8f6b" stroke-width="0"/><path d="M254.88747,204.87346c-0.24233,8.87945 -11.2831,41.36057 -9.32523,43.65991c2.38398,2.79978 8.35546,8.32134 6.46303,11.80212c-2.01191,3.70054 -8.43016,1.48223 -8.43016,1.48223c0,0 1.61072,11.07188 -2.73881,12.53454c-5.05157,1.69875 -7.15265,-5.96523 -7.15265,-5.96523c0,0 -4.22162,6.36443 -8.56787,5.08439c-4.37499,-1.28852 -3.62722,-9.81237 -3.62722,-9.81237c0,0 -5.70258,5.35366 -8.44149,1.47731c-1.82267,-2.57959 0.14558,-9.16011 4.09273,-14.10962c3.74384,-4.69456 6.85568,-6.2957 8.91181,-8.68022c2.05023,-2.37769 11.68914,-32.34877 17.24298,-41.55662c2.71935,-4.50848 4.86802,-5.59474 7.70968,-4.92035c3.1782,0.75426 4.0033,3.8701 3.86319,9.0039z" data-paper-data="{&quot;index&quot;:null}" fill="none" stroke-width="2.5"/></g><g data-paper-data="{&quot;index&quot;:null}" stroke="#000000" stroke-linecap="butt"><path d="M303.30721,92.41647c0,0 17.61494,3.56719 25.95045,6.07184c7.7504,2.32884 22.43514,8.46706 22.43514,8.46706c0,0 -8.2696,5.16439 -11.94541,7.76677c-3.15116,2.23095 -8.77886,6.90552 -8.77886,6.90552z" fill="#f5af82" stroke-width="2.5"/><path d="M320.30721,104.38969c0,0 7.17874,1.45376 10.57577,2.4745c3.15857,0.94909 9.14316,3.45064 9.14316,3.45064c0,0 -3.37017,2.10468 -4.8682,3.16524c-1.28422,0.90919 -6.57771,5.48092 -6.57771,5.48092z" fill="#ca8f6b" stroke-width="0"/></g><g stroke="#000000" stroke-linecap="butt"><path d="M229.03148,120.62766c0,0 -5.6277,-4.67457 -8.77886,-6.90552c-3.67581,-2.60238 -11.94541,-7.76677 -11.94541,-7.76677c0,0 14.68474,-6.13822 22.43514,-8.46706c8.33551,-2.50465 25.95045,-6.07184 25.95045,-6.07184z" fill="#f5af82" stroke-width="2.5"/><path d="M231.41979,117.96099c0,0 -5.2935,-4.57173 -6.57771,-5.48092c-1.49803,-1.06057 -4.8682,-3.16525 -4.8682,-3.16525c0,0 5.98458,-2.50155 9.14315,-3.45064c3.39703,-1.02074 10.57577,-2.4745 10.57577,-2.4745z" fill="#ca8f6b" stroke-width="0"/></g><g data-paper-data="{&quot;index&quot;:null}" stroke="#000000" stroke-linecap="butt"><path d="M295.88727,353.09306c-7.12077,0.54381 -14.45542,0.32248 -15.70054,-0.75193c-1.52555,-1.31639 0,-96.43665 0,-96.43665h27.63161c0,0 0.92524,22.97175 1.30086,36.57334c0.26592,9.62908 1.49219,32.69525 2.00298,45.62665c0.39952,10.11458 0.24839,11.47332 -0.39524,12.26185c-0.70542,0.86421 -7.82717,2.19121 -14.83966,2.72674z" fill="#f5af82" stroke-width="0"/><path d="M308.32908,269.12232c0.05148,1.37707 0.15805,4.27943 0.15805,4.27943c0,0 -7.77388,6.44541 -13.31282,9.52178c-5.53894,3.07638 -15.2567,4.46595 -15.2567,4.46595l0.2691,-31.485h27.63161c0,0 0.23196,5.75929 0.51076,13.21785z" fill="#e4a279" stroke-width="0"/><path d="M295.88727,353.09306c-7.12077,0.54381 -14.45542,0.32248 -15.70054,-0.75193c-0.44485,-0.38386 -1.00305,-36.62266 -1.00305,-36.62266c0,0 6.4679,1.78042 9.17719,0.43249c2.47614,-1.23193 6.44212,-8.20345 6.44212,-8.20345c0,0 5.01222,6.50433 7.56983,6.26718c2.41276,-0.22372 7.36665,-7.65217 7.36665,-7.65217c0,0 1.20211,26.96993 1.38271,31.54197c0.39952,10.11458 0.24839,11.47332 -0.39524,12.26185c-0.70542,0.86421 -7.82717,2.19121 -14.83966,2.72674z" fill="#ca8f6b" stroke-width="0"/><path d="M295.88727,353.09306c-7.12077,0.54381 -14.45542,0.32248 -15.70054,-0.75193c-1.52555,-1.31639 0,-96.43665 0,-96.43665h27.63161c0,0 0.92524,22.97175 1.30086,36.57334c0.26592,9.62908 1.49219,32.69525 2.00298,45.62665c0.39952,10.11458 0.24839,11.47332 -0.39524,12.26185c-0.70542,0.86421 -7.82717,2.19121 -14.83966,2.72674z" fill="none" stroke-width="2.5"/></g><g stroke="#000000" stroke-linecap="butt"><path d="M315.57034,231.08725c0,28.94338 -16.75076,49.11653 -37.41386,49.11653c-20.66311,0 -36.49686,-19.23312 -37.41386,-48.17651c-0.91651,-28.92813 16.75076,-56.63677 37.41386,-56.63677c20.66311,0 37.41386,26.75336 37.41386,55.69674z" fill="#e4a279" stroke-width="0"/><path d="M309.60983,222.84513c0,24.66028 -13.97149,41.84817 -31.20618,41.84817c-17.2347,0 -30.44133,-16.38697 -31.20618,-41.04725c-0.21879,-7.05428 3.76498,-20.37838 3.76498,-20.37838c0,0 16.28192,6.59069 27.4412,6.43391c11.15928,-0.15678 27.05968,-7.22537 27.05968,-7.22537c0,0 4.14651,13.25672 4.14651,20.36892z" fill="#f5af82" stroke-width="0"/><path d="M315.57034,231.08725c0,28.94338 -16.75076,49.11653 -37.41386,49.11653c-20.66311,0 -36.49686,-19.23312 -37.41386,-48.17651c-0.91651,-28.92813 16.75076,-56.63677 37.41386,-56.63677c20.66311,0 37.41386,26.75336 37.41386,55.69674z" fill="none" stroke-width="2.5"/></g><g stroke-linecap="butt"><g stroke="#000000"><path d="M335.8845,143.77875c0,31.40942 -25.56758,56.87178 -57.10678,56.87178c-24.69824,0 -45.73443,-15.61453 -53.6981,-37.47185c-2.20579,-6.05408 -3.40868,-12.58711 -3.40868,-19.39993c0,-31.40942 25.56758,-56.87178 57.10678,-56.87178c31.53921,0 57.10678,25.46236 57.10678,56.87178z" fill="#e4a279" stroke-width="0"/><path d="M330.71434,137.90357c0,27.38589 -23.3489,49.58655 -52.15124,49.58655c-6.67232,0 -13.05198,-1.19142 -18.91649,-3.36272c-19.45077,-7.20152 -33.23475,-25.18213 -33.23475,-46.22383c0,-27.38589 23.3489,-49.58655 52.15124,-49.58655c28.80233,0 52.15124,22.20065 52.15124,49.58655z" fill="#f5af82" stroke-width="0"/><path d="M335.8845,143.77875c0,31.40942 -25.56758,56.87178 -57.10678,56.87178c-31.53921,0 -57.10678,-25.46236 -57.10678,-56.87178c0,-31.40942 25.56758,-56.87178 57.10678,-56.87178c31.53921,0 57.10678,25.46236 57.10678,56.87178z" fill="none" stroke-width="2.5"/></g><path d="M252.13794,158.85371c2.73739,5.86582 1.06945,12.87733 -3.72544,15.66065c-4.79489,2.78332 -10.90101,0.28448 -13.63841,-5.58134c-2.73739,-5.86582 -1.06946,-12.87733 3.72543,-15.66065c4.79489,-2.78332 10.90102,-0.28448 13.63842,5.58134z" fill="#ca8f6b" stroke="none" stroke-width="0"/><path d="M320.08975,153.74239c4.79489,2.78332 6.46282,9.79484 3.72543,15.66065c-2.73739,5.86582 -8.84351,8.36466 -13.63841,5.58134c-4.79489,-2.78332 -6.46282,-9.79484 -3.72543,-15.66065c2.73739,-5.86582 8.84351,-8.36466 13.63841,-5.58134z" data-paper-data="{&quot;index&quot;:null}" fill="#ca8f6b" stroke="none" stroke-width="0"/></g><path d="M327.59601,134.4696c2.83653,14.34169 -4.90919,28.08625 -17.30055,30.69932c-12.39136,2.61307 -24.736,-6.89485 -27.57253,-21.23655c-2.83653,-14.34169 4.90919,-28.08625 17.30055,-30.69932c12.39136,-2.61307 24.736,6.89485 27.57253,21.23655z" fill="#ca8f6b" stroke="none" stroke-width="0" stroke-linecap="butt"/><path d="M271.64342,143.6452c-2.39429,11.08591 -12.25228,18.36292 -22.01844,16.25366c-9.76615,-2.10926 -15.74223,-12.80605 -13.34795,-23.89196c2.39429,-11.08591 12.25228,-18.36292 22.01844,-16.25366c9.76615,2.10926 15.74223,12.80605 13.34795,23.89196z" fill="#ffffff" stroke="#000000" stroke-width="2.5" stroke-linecap="butt"/><g stroke="none" stroke-linecap="butt"><g><path d="M248.19463,139.83005c0,-4.49942 3.6475,-8.14692 8.14692,-8.14692c4.49942,0 8.14692,3.6475 8.14692,8.14692c0,4.49942 -3.6475,8.14692 -8.14692,8.14692c-4.49942,0 -8.14692,-3.6475 -8.14692,-8.14692z" fill="url(#color-1)" stroke-width="0.5"/><path d="M257.64874,147.83909l-0.76008,-3.95233l1.86631,-0.62826l2.06359,3.34008c0,0 -0.84777,0.63232 -1.53736,0.84304c-0.675,0.20626 -1.63245,0.39748 -1.63245,0.39748z" fill="#bd6935" stroke-width="0"/><path d="M261.93075,145.73675l-2.59818,-2.93979l1.01419,-0.95403l2.92406,2.18928c0,0 -0.34263,0.59353 -0.61265,0.93699c-0.27002,0.34347 -0.7274,0.76753 -0.7274,0.76753z" fill="#bd6935" stroke-width="0"/></g><path d="M251.61634,139.83005c0,-2.60966 2.11555,-4.72522 4.72522,-4.72522c2.60966,0 4.72522,2.11555 4.72522,4.72522c0,2.60966 -2.11555,4.72522 -4.72522,4.72522c-2.60966,0 -4.72522,-2.11555 -4.72522,-4.72522z" fill="#000000" stroke-width="0.5"/><path d="M255.32327,138.17764c-1.20529,1.17977 -3.01244,1.28813 -4.03639,0.24203c-1.02396,-1.04609 -0.87694,-2.85052 0.32834,-4.03028c1.20529,-1.17977 3.01244,-1.28813 4.03639,-0.24203c1.02396,1.04609 0.87694,2.85052 -0.32834,4.03028z" fill="#ffffff" stroke-width="0"/><path d="M251.8279,139.44948c0.24211,0.32627 0.21661,0.73883 -0.05697,0.92145c-0.27358,0.18263 -0.69162,0.06618 -0.93373,-0.2601c-0.24211,-0.32627 -0.21661,-0.73883 0.05697,-0.92145c0.27358,-0.18263 0.69162,-0.06618 0.93373,0.2601z" fill="#ffffff" stroke-width="0"/></g><path d="M299.68155,119.59657c9.76616,-2.10926 19.62415,5.16776 22.01844,16.25366c2.39428,11.08591 -3.58179,21.7827 -13.34795,23.89196c-9.76616,2.10926 -19.62415,-5.16776 -22.01844,-16.25366c-2.39428,-11.08591 3.58179,-21.7827 13.34795,-23.89196z" data-paper-data="{&quot;index&quot;:null}" fill="#ffffff" stroke="#000000" stroke-width="2.5" stroke-linecap="butt"/><g stroke="none" stroke-linecap="butt"><g><path d="M293.47272,139.51672c0,-4.49942 3.6475,-8.14692 8.14692,-8.14692c4.49942,0 8.14692,3.6475 8.14692,8.14692c0,4.49942 -3.6475,8.14691 -8.14692,8.14691c-4.49942,0 -8.14692,-3.6475 -8.14692,-8.14691z" fill="url(#color-2)" stroke-width="0.5"/><path d="M302.92684,147.52576l-0.76009,-3.95234l1.86631,-0.62826l2.06359,3.34008c0,0 -0.84777,0.63232 -1.53737,0.84304c-0.67499,0.20626 -1.63245,0.39747 -1.63245,0.39747z" fill="#bd6935" stroke-width="0"/><path d="M307.20883,145.42341l-2.59819,-2.93979l1.01419,-0.95402l2.92406,2.18928c0,0 -0.34263,0.59353 -0.61266,0.93699c-0.27003,0.34347 -0.7274,0.76753 -0.7274,0.76753z" fill="#bd6935" stroke-width="0"/></g><path d="M296.89443,139.51672c0,-2.60966 2.11555,-4.72522 4.72522,-4.72522c2.60966,0 4.72521,2.11555 4.72521,4.72522c0,2.60966 -2.11555,4.72521 -4.72521,4.72521c-2.60966,0 -4.72522,-2.11555 -4.72522,-4.72521z" fill="#000000" stroke-width="0.5"/><path d="M300.60136,137.8643c-1.20529,1.17977 -3.01244,1.28813 -4.03638,0.24203c-1.02396,-1.0461 -0.87694,-2.85052 0.32834,-4.03028c1.20529,-1.17977 3.01244,-1.28813 4.03638,-0.24203c1.02395,1.0461 0.87694,2.85052 -0.32834,4.03028z" fill="#ffffff" stroke-width="0"/><path d="M297.10598,139.13614c0.24211,0.32627 0.2166,0.73883 -0.05697,0.92145c-0.27357,0.18263 -0.69162,0.06618 -0.93372,-0.2601c-0.2421,-0.32627 -0.2166,-0.73883 0.05697,-0.92145c0.27357,-0.18263 0.69162,-0.06618 0.93372,0.2601z" fill="#ffffff" stroke-width="0"/></g><path d="M260.07988,106.48185c0.27622,0.85389 -1.10016,1.85653 -3.07423,2.23944c-1.97407,0.38291 -6.32138,0.49052 -6.5976,-0.36338c-0.27622,-0.85389 3.62326,-2.34594 5.59733,-2.72885c1.97407,-0.38291 3.79829,-0.00111 4.07451,0.85279z" fill="#000000" stroke="none" stroke-width="0" stroke-linecap="butt"/><path d="M301.19201,105.31571c1.97407,0.38292 5.87354,1.87495 5.59732,2.72886c-0.27622,0.85389 -4.62353,0.74629 -6.59761,0.36338c-1.97407,-0.38292 -3.35045,-1.38555 -3.07423,-2.23944c0.27622,-0.85389 2.10045,-1.23571 4.07452,-0.85279z" data-paper-data="{&quot;index&quot;:null}" fill="#000000" stroke="none" stroke-width="0" stroke-linecap="butt"/><path d="M290.51212,171.7977c0,0 -2.89908,2.21856 -5.3469,2.49831c-2.44782,0.27975 -5.8701,-1.24493 -5.8701,-1.24493c0,0 -3.83914,1.36105 -6.25389,1.10686c-2.41475,-0.25419 -5.40315,-2.36024 -5.40315,-2.36024" fill="none" stroke="#000000" stroke-width="2.5" stroke-linecap="round"/><path d="M244.98458,211.27435c0,0 0.21347,-1.39041 0.47629,-2.17887c0.31203,-0.93608 1.27371,-3.07113 1.27371,-3.07113c0,0 3.49787,3.32391 5.48461,4.78584c2.36401,1.73955 7.76539,4.96416 7.76539,4.96416c0,0 -4.56744,-0.62023 -6.97366,-1.3421c-2.58145,-0.77444 -8.02634,-3.1579 -8.02634,-3.1579z" fill="#ca8f6b" stroke="none" stroke-width="0" stroke-linecap="butt"/><path d="M303.45824,214.18225c-2.40622,0.72187 -6.97366,1.3421 -6.97366,1.3421c0,0 5.40139,-3.2246 7.76539,-4.96416c1.98674,-1.46194 5.48461,-4.78584 5.48461,-4.78584c0,0 0.96168,2.13504 1.2737,3.07112c0.26282,0.78846 0.4763,2.17888 0.4763,2.17888c0,0 -5.44489,2.38346 -8.02634,3.1579z" data-paper-data="{&quot;index&quot;:null}" fill="#ca8f6b" stroke="none" stroke-width="0" stroke-linecap="butt"/><path d="M242.10118,228.28775c0,0 0.15488,-3.03661 0.33297,-4.37227c0.15062,-1.12968 0.66703,-3.12773 0.66703,-3.12773c0,0 2.1574,2.13439 3.38856,3.06709c1.47466,1.11716 4.86144,3.18291 4.86144,3.18291c0,0 -3.29578,0.94538 -4.87715,1.15907c-1.49738,0.20235 -4.37285,0.09093 -4.37285,0.09093z" fill="#ca8f6b" stroke="none" stroke-width="0" stroke-linecap="butt"/><path d="M309.72834,227.69683c-1.58137,-0.2137 -4.87715,-1.15908 -4.87715,-1.15908c0,0 3.38678,-2.06574 4.86144,-3.18291c1.23117,-0.9327 3.38856,-3.06709 3.38856,-3.06709c0,0 0.51641,1.99805 0.66703,3.12773c0.17809,1.33566 0.33297,4.37227 0.33297,4.37227c0,0 -2.87547,0.11142 -4.37285,-0.09092z" data-paper-data="{&quot;index&quot;:null}" fill="#ca8f6b" stroke="none" stroke-width="0" stroke-linecap="butt"/><path d="" fill="#ca8f6b" stroke="#000000" stroke-width="0" stroke-linecap="butt"/><g stroke="none" stroke-linecap="butt"><g fill="#996d51" stroke-width="0.5"><path d="M239.7805,161.70258c-0.19984,-0.64421 0.20067,-1.36928 0.89456,-1.61951c0.69389,-0.25022 1.4184,0.06916 1.61823,0.71337c0.19984,0.64421 -0.20067,1.36928 -0.89456,1.61951c-0.69389,0.25022 -1.4184,-0.06916 -1.61823,-0.71337z"/><path d="M237.67465,167.44215c-0.19984,-0.64421 0.20067,-1.36928 0.89456,-1.61951c0.69389,-0.25022 1.4184,0.06916 1.61823,0.71337c0.19984,0.64421 -0.20067,1.36928 -0.89456,1.61951c-0.69389,0.25022 -1.4184,-0.06916 -1.61823,-0.71337z"/><path d="M244.46173,165.06382c-0.19984,-0.64421 0.20067,-1.36928 0.89456,-1.61951c0.69389,-0.25022 1.4184,0.06916 1.61823,0.71337c0.19984,0.64421 -0.20067,1.36928 -0.89456,1.61951c-0.69389,0.25022 -1.4184,-0.06916 -1.61823,-0.71337z"/></g><path d="M222.27392,160.09702c0,0 5.34986,-1.72513 8.97867,-1.46795c3.62881,0.25718 10.45047,2.54972 9.77429,2.79703c-0.60122,0.21989 -6.5181,-1.0109 -9.7019,-1.23655c-3.06247,-0.21705 -9.05106,-0.09253 -9.05106,-0.09253z" fill="#000000" stroke-width="0"/><path d="M222.89663,175.78833c0,0 3.63366,-4.28878 6.85167,-5.98549c3.21801,-1.69671 10.22218,-3.34968 9.77836,-2.78275c-0.39462,0.50408 -6.06993,2.58137 -8.89332,4.07001c-2.71578,1.4319 -7.73672,4.69823 -7.73672,4.69823z" fill="#000000" stroke-width="0"/><path d="M227.16109,166.61931c0,0 4.97047,-2.62517 8.58902,-3.00002c3.61855,-0.37485 10.73407,0.70223 10.11091,1.06286c-0.55408,0.32065 -6.5947,0.13266 -9.7695,0.46154c-3.05381,0.31635 -8.93044,1.47562 -8.93044,1.47562z" fill="#000000" stroke-width="0"/></g><g data-paper-data="{&quot;index&quot;:null}" stroke="none" stroke-linecap="butt"><g fill="#996d51" stroke-width="0.5"><path d="M315.9011,162.91595c-0.69389,-0.25023 -1.09439,-0.9753 -0.89456,-1.61951c0.19984,-0.6442 0.92434,-0.96359 1.61823,-0.71337c0.69389,0.25023 1.09439,0.97531 0.89456,1.61951c-0.19984,0.6442 -0.92434,0.96359 -1.61823,0.71336z"/><path d="M318.00696,168.65552c-0.69389,-0.25023 -1.09439,-0.97531 -0.89456,-1.61951c0.19984,-0.6442 0.92435,-0.96359 1.61824,-0.71336c0.69389,0.25023 1.09439,0.9753 0.89455,1.61951c-0.19984,0.6442 -0.92434,0.96359 -1.61823,0.71337z"/><path d="M311.21988,166.27718c-0.69389,-0.25023 -1.09439,-0.9753 -0.89456,-1.61951c0.19984,-0.6442 0.92434,-0.96359 1.61823,-0.71337c0.69389,0.25023 1.0944,0.9753 0.89456,1.61951c-0.19984,0.6442 -0.92435,0.96359 -1.61824,0.71337z"/></g><path d="M325.97487,160.68955c-3.1838,0.22564 -9.10068,1.45645 -9.7019,1.23655c-0.67618,-0.24731 6.14548,-2.53985 9.77429,-2.79703c3.62881,-0.25718 8.97867,1.46795 8.97867,1.46795c0,0 -5.98858,-0.12452 -9.05105,0.09253z" fill="#000000" stroke-width="0"/><path d="M326.6665,171.59011c-2.82338,-1.48863 -8.49869,-3.56593 -8.89331,-4.07001c-0.44382,-0.56693 6.56035,1.08604 9.77837,2.78275c3.21801,1.69671 6.85167,5.98548 6.85167,5.98548c0,0 -5.02094,-3.26632 -7.73672,-4.69822z" fill="#000000" stroke-width="0"/><path d="M321.20832,165.64369c-3.1748,-0.32888 -9.21542,-0.14089 -9.7695,-0.46154c-0.62316,-0.36062 6.49236,-1.43771 10.11091,-1.06286c3.61855,0.37485 8.58902,3.00002 8.58902,3.00002c0,0 -5.87663,-1.15927 -8.93044,-1.47562z" fill="#000000" stroke-width="0"/></g><path d="M282.83225,155.20508c0,0.6939 -3.94872,3.41026 -3.94872,3.41026c0,0 -3.94872,-2.78246 -3.94872,-3.41026c0,-0.6939 1.7679,-1.25641 3.94872,-1.25641c2.18082,0 3.94872,0.56251 3.94872,1.25641z" fill="#996d51" stroke="none" stroke-width="0" stroke-linecap="butt"/><path d="M278.88794,149.02638c4.00406,0 7.25,2.875 7.25,2.875c0,0 -3.24594,-1.16896 -7.25,-1.16896c-4.00406,0 -7.25,1.16896 -7.25,1.16896c0,0 3.24594,-2.875 7.25,-2.875z" fill="#e4a279" stroke="none" stroke-width="0" stroke-linecap="butt"/><path d="M273.73967,88.67295c0,0 3.0592,-0.33333 4.66667,-0.33333c1.71845,0 5.33333,0.33333 5.33333,0.33333c0,0 -1.56266,4.83535 -2.28557,7.67881c-0.90326,3.5528 -2.71443,11.98786 -2.71443,11.98786c0,0 -1.73769,-8.14602 -2.63348,-11.66945c-0.74157,-2.91682 -2.36652,-7.99721 -2.36652,-7.99721z" fill="#ca8f6b" stroke="none" stroke-width="0" stroke-linecap="butt"/><path d="M290.72866,352.35473l0.12804,-5.67501" data-paper-data="{&quot;index&quot;:null}" fill="none" stroke="#000000" stroke-width="2.5" stroke-linecap="round"/><path d="M302.29269,345.68389l0.33334,5.66667" data-paper-data="{&quot;index&quot;:null}" fill="none" stroke="#000000" stroke-width="2.5" stroke-linecap="round"/></g></g></svg>