<svg version="1.1" xmlns="http://www.w3.org/2000/svg" xmlns:xlink="http://www.w3.org/1999/xlink" width="122.46505" height="296.39803" viewBox="0,0,122.46505,296.39803"><defs><linearGradient x1="215.87569" y1="108.68411" x2="215.87569" y2="124.97796" gradientUnits="userSpaceOnUse" id="color-1"><stop offset="0" stop-color="#419e42"/><stop offset="1" stop-color="#38873a"/></linearGradient><linearGradient x1="261.15377" y1="108.3708" x2="261.15377" y2="124.66461" gradientUnits="userSpaceOnUse" id="color-2"><stop offset="0" stop-color="#419e42"/><stop offset="1" stop-color="#38873a"/></linearGradient></defs><g transform="translate(-178.76748,-31.80099)"><g data-paper-data="{&quot;isPaintingLayer&quot;:true}" fill-rule="nonzero" stroke-linejoin="miter" stroke-miterlimit="10" stroke-dasharray="" stroke-dashoffset="0" style="mix-blend-mode: normal"><g stroke="#000000" stroke-linecap="butt"><path d="M234.88379,323.89646c-16.75753,-6.7984 -13.86067,-26.78295 -13.86067,-26.78295c0,0 40.51171,-33.82813 54.83361,-47.80708c9.89146,-9.6546 22.83891,-28.00543 22.83891,-28.00543c0,0 3.93303,29.86239 -1.95236,56.18461c-2.57135,11.50028 -10.25715,26.69821 -20.90053,35.55772c-13.71753,11.4184 -31.52286,14.68129 -40.95895,10.85313z" fill="#7bce7e" stroke-width="0"/><path d="M284.41404,286.47566c14.8981,-20.23298 14.28158,-65.17464 14.28158,-65.17464c0,0 3.93303,29.86239 -1.95236,56.18461c-2.57135,11.50028 -10.25715,26.69821 -20.90053,35.55772c-8.00089,6.65991 -17.39243,10.54536 -25.70288,11.86758c-5.9378,0.94473 -15.25607,-1.01445 -15.25607,-1.01445c0,0 33.50794,-15.66105 49.53024,-37.42081z" fill="#8fef92" stroke-width="0"/><path d="M234.88379,323.89646c-16.75753,-6.7984 -13.86067,-26.78295 -13.86067,-26.78295c0,0 40.51171,-33.82813 54.83361,-47.80708c0.72365,-0.70632 1.46365,-1.45919 2.21375,-2.24801c2.78424,9.46675 10.97161,16.46979 20.79248,17.72234c-0.49475,4.23483 -1.18281,8.51469 -2.11969,12.70484c-2.57135,11.50028 -10.25715,26.69821 -20.90053,35.55772c-13.71753,11.4184 -31.52286,14.68129 -40.95895,10.85313z" fill="#6db56f" stroke-width="0"/><path d="M284.41404,286.47566c4.43711,-6.02601 7.49804,-14.24377 9.60892,-22.8132c1.55401,0.52765 3.17348,0.90578 4.84,1.11833c-0.49475,4.23483 -1.18281,8.51469 -2.11969,12.70484c-2.57135,11.50028 -10.25715,26.69821 -20.90053,35.55772c-8.00089,6.65991 -17.39244,10.54536 -25.70288,11.86758c-5.9378,0.94472 -15.25607,-1.01445 -15.25607,-1.01445c0,0 33.50794,-15.66105 49.53024,-37.42082z" fill="#83db86" stroke-width="0"/><path d="M234.88378,323.89646c-16.75753,-6.7984 -13.86067,-26.78295 -13.86067,-26.78295c0,0 40.51171,-33.82813 54.83361,-47.80708c9.89146,-9.6546 22.83891,-28.00543 22.83891,-28.00543c0,0 3.93303,29.86239 -1.95236,56.18461c-2.57135,11.50028 -10.25715,26.69821 -20.90053,35.55772c-13.71753,11.4184 -31.52286,14.68129 -40.95895,10.85313z" fill="none" stroke-width="2.5"/></g><g data-paper-data="{&quot;index&quot;:null}" stroke="#000000" stroke-linecap="butt"><path d="M263.80457,198.19669c0.83822,-5.06685 2.2405,-7.96906 5.50412,-8.1055c2.91803,-0.122 4.82109,1.35283 6.63394,6.29601c3.70248,10.09561 8.97873,57.28102 10.53966,60.00505c1.56543,2.73186 4.31621,4.89526 7.09952,10.21583c2.93446,5.60951 3.61609,12.44418 1.33634,14.63031c-3.42575,3.2851 -8.00682,-3.05485 -8.00682,-3.05485c0,0 -0.88597,8.51059 -5.42612,8.94407c-4.51032,0.43062 -7.4453,-6.62018 -7.4453,-6.62018c0,0 -3.51946,7.12492 -8.15606,4.497c-3.99224,-2.2627 -0.30647,-12.82661 -0.30647,-12.82661c0,0 -6.72289,0.95798 -7.99477,-3.05751c-1.19636,-3.77702 5.71575,-8.06293 8.58842,-10.35857c2.3592,-1.88529 -3.81626,-51.80144 -2.36648,-60.56509z" data-paper-data="{&quot;index&quot;:null}" fill="#7bce7e" stroke-width="0"/><path d="M265.37927,231.71138c-0.07393,-0.95777 -0.20247,-2.48942 -0.27713,-3.45345c1.61016,1.15819 3.72201,2.43025 5.54239,3.67385c2.09906,1.43398 4.02238,2.94469 4.02238,2.94469c0,0 2.20693,-1.79979 3.66605,-3.64642c1.45912,-1.84663 2.3464,-3.52151 3.23558,-5.08815c0.1821,1.21925 0.36242,2.43717 0.54046,3.64625c-0.72454,1.23922 -1.66352,2.98253 -2.64506,4.37559c-2.09647,2.97542 -4.28624,5.41678 -4.28624,5.41678c0,0 -2.74396,-2.43878 -5.65003,-4.77256c-1.44927,-1.16386 -2.92467,-2.15202 -4.14842,-3.09656z" data-paper-data="{&quot;index&quot;:null}" fill="#60a062" stroke-width="0"/><path d="M266.17624,242.53106c-0.08024,-1.19173 -0.16693,-2.42121 -0.25828,-3.67849c1.72554,1.17099 4.11806,2.41063 5.72919,3.42128c1.61113,1.01066 4.11104,2.75145 4.11104,2.75145c0,0 1.83943,-1.89986 3.81367,-4.11868c1.26666,-1.4236 2.55678,-3.31662 3.46749,-4.7615c0.26442,1.81159 0.52107,3.56805 0.76806,5.24013c-0.95959,1.44545 -2.29827,3.36316 -3.58061,4.79206c-1.86911,2.08274 -3.5332,4.0276 -3.5332,4.0276c0,0 -3.87967,-3.03099 -5.71836,-4.37257c-1.83868,-1.34158 -3.47377,-2.06728 -4.79902,-3.3013z" data-paper-data="{&quot;index&quot;:null}" fill="#60a062" stroke-width="0"/><path d="M266.39537,258.36969c0.2159,-0.64549 0.31219,-1.96517 0.31869,-3.79431c0.00427,-1.19959 -0.03008,-2.61831 -0.09463,-4.2097c2.22762,1.72249 4.94535,3.60826 7.21255,5.57299c2.45158,2.1245 4.36913,4.26474 4.36913,4.26474c0,0 2.07951,-2.4996 4.18979,-5.54833c0.98656,-1.42529 1.94634,-3.32421 2.76453,-4.49998c0.24557,1.49037 0.47102,2.7674 0.67289,3.77766c0.20765,1.03911 0.39035,1.796 0.54433,2.2125c-0.74838,1.97259 -1.60811,4.14217 -2.87432,6.16643c-2.31086,3.6943 -5.13184,6.82462 -5.13184,6.82462c0,0 -2.59452,-3.16517 -5.9994,-6.2573c-1.70555,-1.5489 -3.81783,-3.06019 -5.50131,-4.18481c-0.1587,-0.10586 -0.31506,-0.21469 -0.47042,-0.32452z" data-paper-data="{&quot;index&quot;:null}" fill="#60a062" stroke-width="0"/><path d="M281.48523,287.12757c-3.51204,0.33531 -6.0689,-3.86552 -7.0287,-5.74152c-0.24753,-0.48383 -0.4129,-0.86989 -0.4129,-0.86989c0,0 3.58421,-1.776 6.15653,-2.20218c2.57232,-0.42618 6.68965,0.07387 6.68965,0.07387c0,0 -0.10734,0.65749 -0.19762,1.09832c-0.2618,1.27831 -0.7423,3.09208 -1.55838,4.63355c-0.82903,1.56595 -2.0044,2.85085 -3.64859,3.00784z" data-paper-data="{&quot;index&quot;:null}" fill="#60a062" stroke-width="0"/><path d="M265.88387,285.00443c-2.98465,-1.69162 -1.67786,-8.02299 -0.82812,-11.11115c0.09111,-0.33112 0.54512,-1.63012 0.54512,-1.63012c0,0 1.62314,0.87357 2.24924,1.33652c2.73097,1.46958 3.99958,3.941 5.64017,6.34373l-0.00935,0.00413l0.19983,0.45203c0.04091,0.09873 0.14261,0.16368 0.25457,0.15308c0.03509,-0.00333 0.0678,-0.01376 0.09683,-0.02973c-0.18461,0.36507 -3.63786,7.03792 -8.14829,4.48151z" data-paper-data="{&quot;index&quot;:null}" fill="#60a062" stroke-width="0"/><path d="M257.58263,269.1203c-0.71273,-2.25016 1.45237,-4.68093 3.92674,-6.76388c1.46356,0.9529 2.6506,2.81588 3.22028,4.68636c0.78687,2.58357 0.64241,5.1581 0.64241,5.1581c0,0 -0.95794,0.06504 -1.4823,0.06065c-2.13435,-0.01785 -5.46733,-0.48986 -6.30714,-3.14123z" data-paper-data="{&quot;index&quot;:null}" fill="#60a062" stroke-width="0"/><path d="M294.91815,281.23834c-2.69681,2.5861 -6.96983,-1.61359 -7.43985,-2.34751c-0.28469,-0.44455 -0.50894,-0.78848 -0.50894,-0.78848c0,0 3.13171,-2.82597 4.74414,-3.78202c1.35787,-0.60053 2.82718,-0.82473 4.27826,-0.68289c0.59082,3.35439 0.28269,6.3003 -1.0736,7.6009z" data-paper-data="{&quot;index&quot;:null}" fill="#60a062" stroke-width="0"/><path d="M263.80457,198.19669c0.83822,-5.06685 2.2405,-7.96906 5.50412,-8.1055c2.91803,-0.122 4.82109,1.35283 6.63394,6.29601c3.70248,10.09561 8.97873,57.28102 10.53966,60.00505c1.56543,2.73186 4.31621,4.89526 7.09952,10.21583c2.93446,5.60951 3.61609,12.44418 1.33635,14.63031c-3.42575,3.2851 -8.00682,-3.05485 -8.00682,-3.05485c0,0 -0.88597,8.51059 -5.42612,8.94407c-4.51032,0.43062 -7.4453,-6.62018 -7.4453,-6.62018c0,0 -3.51947,7.12492 -8.15607,4.497c-3.99224,-2.2627 -0.30647,-12.82661 -0.30647,-12.82661c0,0 -6.72289,0.95798 -7.99477,-3.05751c-1.19636,-3.77702 5.71575,-8.06293 8.58842,-10.35857c2.3592,-1.88529 -3.81626,-51.80144 -2.36648,-60.56509z" data-paper-data="{&quot;index&quot;:null}" fill="none" stroke-width="2.5"/><path d="M291.65492,281.43917c0,0 1.03025,-0.91756 1.69092,-1.11222c0.66067,-0.19466 1.76229,0.09475 1.76229,0.09475l0.36763,6.1467z" fill="#000000" stroke-width="2.5"/><path d="M279.40533,286.39725c0,0 1.25423,-0.57467 1.94294,-0.5668c0.68871,0.00788 1.65682,0.60794 1.65682,0.60794l-1.4531,5.98379z" fill="#000000" stroke-width="2.5"/><path d="M265.00924,282.43119c0,0 1.36655,0.1895 1.94308,0.5663c0.57654,0.3768 1.07042,1.40316 1.07042,1.40316l-4.44148,4.26502z" fill="#000000" stroke-width="2.5"/><path d="M253.51747,269.67492l5.06915,-2.83774c0,0 0.79077,0.7276 0.97256,1.35144c0.18179,0.62385 -0.0224,1.90931 -0.0224,1.90931z" data-paper-data="{&quot;index&quot;:null}" fill="#000000" stroke-width="2.5"/></g><g stroke="#000000" stroke-linecap="butt"><path d="M212.49081,196.69664c1.44978,8.76365 -4.72567,58.67979 -2.36647,60.56508c2.87268,2.29563 9.78477,6.58155 8.58842,10.35857c-1.27188,4.01548 -7.99476,3.05751 -7.99476,3.05751c0,0 3.68577,10.56391 -0.30648,12.82661c-4.6366,2.62793 -8.15606,-4.497 -8.15606,-4.497c0,0 -2.93498,7.0508 -7.4453,6.62018c-4.54014,-0.43348 -5.42612,-8.94407 -5.42612,-8.94407c0,0 -4.58107,6.33995 -8.00682,3.05485c-2.27974,-2.18613 -1.59812,-9.0208 1.33634,-14.63031c2.7833,-5.32057 5.5341,-7.48397 7.09952,-10.21583c1.56093,-2.72403 6.83717,-49.90944 10.53965,-60.00505c1.81286,-4.94317 3.71591,-6.418 6.63394,-6.29601c3.26363,0.13644 4.6659,3.03865 5.50412,8.1055z" data-paper-data="{&quot;index&quot;:null}" fill="#7bce7e" stroke-width="0"/><path d="M210.91611,230.21139c-1.22375,0.94454 -2.69914,1.9327 -4.14842,3.09656c-2.90607,2.33378 -5.65003,4.77256 -5.65003,4.77256c0,0 -2.18977,-2.44135 -4.28624,-5.41677c-0.98153,-1.39306 -1.92053,-3.13638 -2.64506,-4.37559c0.17804,-1.20908 0.35836,-2.427 0.54046,-3.64624c0.88918,1.56664 1.77647,3.24152 3.23559,5.08815c1.45912,1.84663 3.66605,3.64642 3.66605,3.64642c0,0 1.92331,-1.51072 4.02238,-2.94469c1.82039,-1.2436 3.93224,-2.51566 5.54239,-3.67384c-0.07466,0.96403 -0.2032,2.49568 -0.27712,3.45345z" data-paper-data="{&quot;index&quot;:null}" fill="#60a062" stroke-width="0"/><path d="M210.11916,241.03105c-1.32525,1.23402 -2.96034,1.95972 -4.79903,3.3013c-1.83869,1.34158 -5.71836,4.37257 -5.71836,4.37257c0,0 -1.66409,-1.94487 -3.5332,-4.02761c-1.28234,-1.42891 -2.62102,-3.34662 -3.58061,-4.79206c0.24699,-1.67209 0.50365,-3.42855 0.76807,-5.24013c0.91071,1.44488 2.20082,3.33789 3.46749,4.76149c1.97423,2.21882 3.81367,4.11869 3.81367,4.11869c0,0 2.49991,-1.74079 4.11104,-2.75145c1.61113,-1.01065 4.00364,-2.2503 5.72918,-3.42129c-0.09134,1.25728 -0.17803,2.48676 -0.25827,3.67849z" data-paper-data="{&quot;index&quot;:null}" fill="#60a062" stroke-width="0"/><path d="M209.90001,256.86969c-0.15536,0.10982 -0.31172,0.21866 -0.47042,0.32452c-1.68347,1.12462 -3.79575,2.63591 -5.5013,4.18481c-3.40489,3.09214 -5.99941,6.25731 -5.99941,6.25731c0,0 -2.82098,-3.13033 -5.13184,-6.82462c-1.26621,-2.02425 -2.12595,-4.19384 -2.87432,-6.16643c0.15398,-0.4165 0.33669,-1.17339 0.54434,-2.2125c0.20187,-1.01026 0.42732,-2.28729 0.6729,-3.77766c0.81819,1.17576 1.77797,3.07468 2.76453,4.49997c2.11028,3.04873 4.18978,5.54833 4.18978,5.54833c0,0 1.91754,-2.14023 4.36913,-4.26473c2.2672,-1.96473 4.98493,-3.8505 7.21255,-5.57299c-0.06454,1.59139 -0.0989,3.01011 -0.09463,4.2097c0.0065,1.82914 0.10279,3.14882 0.31869,3.79431z" data-paper-data="{&quot;index&quot;:null}" fill="#60a062" stroke-width="0"/><path d="M194.81015,285.62757c-1.64419,-0.15698 -2.81955,-1.44189 -3.64858,-3.00784c-0.81608,-1.54146 -1.29658,-3.35524 -1.55838,-4.63355c-0.09028,-0.44083 -0.19762,-1.09832 -0.19762,-1.09832c0,0 4.11734,-0.50004 6.68965,-0.07387c2.57231,0.42617 6.15653,2.20218 6.15653,2.20218c0,0 -0.16537,0.38606 -0.4129,0.86988c-0.9598,1.876 -3.51666,6.07683 -7.02871,5.74152z" data-paper-data="{&quot;index&quot;:null}" fill="#60a062" stroke-width="0"/><path d="M210.41151,283.50443c-4.51043,2.55641 -7.96369,-4.11644 -8.1483,-4.48151c0.02903,0.01597 0.06174,0.0264 0.09684,0.02973c0.11196,0.01061 0.21367,-0.05434 0.25457,-0.15307l0.19983,-0.45203l-0.00935,-0.00413c1.64059,-2.40272 2.9092,-4.87414 5.64017,-6.34373c0.6261,-0.46295 2.24924,-1.33652 2.24924,-1.33652c0,0 0.45401,1.299 0.54511,1.63012c0.84975,3.08816 2.15653,9.41953 -0.82812,11.11115z" data-paper-data="{&quot;index&quot;:null}" fill="#60a062" stroke-width="0"/><path d="M218.71275,267.62029c-0.83981,2.65137 -4.17279,3.12337 -6.30713,3.14122c-0.52435,0.00439 -1.48229,-0.06064 -1.48229,-0.06064c0,0 -0.14446,-2.57453 0.6424,-5.1581c0.56969,-1.87047 1.75673,-3.73347 3.22028,-4.68636c2.47436,2.08295 4.63947,4.51373 3.92674,6.76389z" data-paper-data="{&quot;index&quot;:null}" fill="#60a062" stroke-width="0"/><path d="M181.37722,279.73834c-1.35629,-1.30059 -1.66443,-4.24651 -1.0736,-7.6009c1.45108,-0.14185 2.92039,0.08236 4.27825,0.68289c1.61243,0.95604 4.74414,3.78201 4.74414,3.78201c0,0 -0.22425,0.34393 -0.50894,0.78848c-0.47002,0.73393 -4.74303,4.93361 -7.43985,2.34751z" data-paper-data="{&quot;index&quot;:null}" fill="#60a062" stroke-width="0"/><path d="M212.49081,196.69664c1.44978,8.76365 -4.72567,58.67979 -2.36647,60.56508c2.87268,2.29563 9.78477,6.58155 8.58842,10.35857c-1.27188,4.01548 -7.99476,3.05751 -7.99476,3.05751c0,0 3.68577,10.56391 -0.30648,12.82661c-4.6366,2.62793 -8.15606,-4.497 -8.15606,-4.497c0,0 -2.93498,7.0508 -7.4453,6.62018c-4.54014,-0.43348 -5.42612,-8.94407 -5.42612,-8.94407c0,0 -4.58107,6.33995 -8.00682,3.05485c-2.27974,-2.18613 -1.59811,-9.0208 1.33635,-14.63031c2.7833,-5.32057 5.5341,-7.48397 7.09952,-10.21583c1.56093,-2.72403 6.83717,-49.90944 10.53965,-60.00505c1.81286,-4.94317 3.71591,-6.418 6.63394,-6.29601c3.26363,0.13644 4.6659,3.03865 5.50412,8.1055z" data-paper-data="{&quot;index&quot;:null}" fill="none" stroke-width="2.5"/><path d="M180.8196,285.06838l0.36763,-6.14671c0,0 1.10163,-0.28942 1.7623,-0.09475c0.66067,0.19467 1.69092,1.11222 1.69092,1.11222z" fill="#000000" stroke-width="2.5"/><path d="M194.7434,290.9222l-1.45311,-5.98378c0,0 0.96812,-0.60007 1.65682,-0.60794c0.68871,-0.00787 1.94294,0.5668 1.94294,0.5668z" fill="#000000" stroke-width="2.5"/><path d="M212.71412,287.16568l-4.44148,-4.26502c0,0 0.49388,-1.02636 1.07042,-1.40316c0.57654,-0.3768 1.94309,-0.5663 1.94309,-0.5663z" fill="#000000" stroke-width="2.5"/><path d="M216.7586,268.59792c0,0 -0.20419,-1.28547 -0.0224,-1.90931c0.18179,-0.62384 0.97256,-1.35144 0.97256,-1.35144l5.06915,2.83775z" data-paper-data="{&quot;index&quot;:null}" fill="#000000" stroke-width="2.5"/></g><g stroke-linecap="butt"><path d="M275.10446,208.08826c0,18.3067 -2.17293,75.721 -8.85519,113.14243c-1.42652,7.98867 -54.1486,7.24667 -56.37978,0.01456c-10.76833,-34.90432 -8.91175,-90.72195 -9.59277,-112.21696c-0.91651,-28.92812 16.75076,-56.63677 37.41387,-56.63677c20.66311,0 37.41387,26.75336 37.41387,55.69674z" fill="#6db56f" stroke="#000000" stroke-width="0"/><path d="M269.14396,199.84614c0,15.74398 0.3556,51.9592 -8.18508,76.12497c-4.83685,13.68581 -14.74595,23.507 -23.68777,23.55654c-8.43402,0.04673 -17.10006,-9.30771 -21.62239,-22.49508c-8.20686,-23.93169 -8.42401,-60.48633 -8.91713,-76.3855c-0.21879,-7.05428 3.76498,-20.37838 3.76498,-20.37838c0,0 16.28192,6.59069 27.44119,6.43391c11.15928,-0.15678 27.05968,-7.22537 27.05968,-7.22537c0,0 4.14651,13.25672 4.14651,20.36892z" fill="#7bce7e" stroke="#000000" stroke-width="0"/><path d="M221.44381,325.04446c0,0 -3.13316,-64.42145 -4.03534,-91.66728c-0.72583,-21.91997 -0.96466,-59.33272 -0.96466,-59.33272l22.5,1l20,-1c0,0 -0.00136,37.80136 -0.58515,59.83923c-0.72055,27.20073 -3.41485,91.16077 -3.41485,91.16077c0,0 -12.22419,1.5 -18,1.5c-5.35972,0 -15.5,-1.5 -15.5,-1.5z" fill="#8fef92" stroke="none" stroke-width="0"/><g fill="#83db86" stroke="none" stroke-width="0"><path d="M216.5108,182.39164l-0.06699,-8.34719l22.5,1l20,-1l-0.01384,7.86697c0,0 -13.38701,4.68541 -21.41139,4.72896c-8.02438,0.04355 -21.00778,-4.24874 -21.00778,-4.24874z"/><path d=""/><path d=""/><path d="M221.44381,325.04446c0,0 -0.88917,-18.28249 -1.85655,-39.48757c4.5669,4.93712 11.10075,8.02817 18.35655,8.02817c7.39066,0 14.03226,-3.20702 18.60914,-8.30536c-0.83147,21.30374 -1.60914,39.76475 -1.60914,39.76475c0,0 -12.22419,1.5 -18,1.5c-5.35972,0 -15.5,-1.5 -15.5,-1.5z"/></g><path d="M275.10446,208.08826c0,18.3067 -2.17293,75.721 -8.85519,113.14244c-1.42652,7.98867 -54.14859,7.24668 -56.37977,0.01456c-10.76833,-34.90431 -8.91174,-90.72195 -9.59277,-112.21697c-0.91651,-28.92812 16.75076,-56.63677 37.41387,-56.63677c20.66311,0 37.41387,26.75336 37.41387,55.69674z" fill="none" stroke="#000000" stroke-width="2.5"/></g><g stroke-linecap="butt"><g stroke="#000000"><path d="M295.75194,121.11309c0,31.40942 -25.90091,56.53845 -57.44012,56.53845c-31.53921,0 -57.44011,-25.12903 -57.44011,-56.53845c0,-31.40942 25.90091,-57.2051 57.44012,-57.2051c31.53921,0 57.44012,25.79569 57.44012,57.20511z" fill="#7bce7e" stroke-width="0"/><path d="M290.24847,114.90456c0,27.38589 -23.3489,49.58655 -52.15125,49.58655c-28.80233,0 -52.15124,-22.20066 -52.15124,-49.58655c0,-27.3859 23.3489,-49.58655 52.15124,-49.58655c28.80233,0 52.15125,22.20065 52.15125,49.58655z" fill="#87e18a" stroke-width="0"/><path d="M295.75194,121.11309c0,31.40942 -25.90091,56.53845 -57.44012,56.53845c-31.53921,0 -57.44011,-25.12903 -57.44011,-56.53845c0,-31.40942 25.90091,-57.2051 57.44012,-57.2051c31.53921,0 57.44012,25.79569 57.44012,57.20511z" fill="none" stroke-width="2.5"/></g><path d="M211.67206,135.8547c2.73739,5.86582 1.06945,12.87733 -3.72544,15.66065c-4.79489,2.78332 -10.90101,0.28448 -13.63841,-5.58134c-2.73739,-5.86582 -1.06946,-12.87733 3.72543,-15.66065c4.79489,-2.78332 10.90102,-0.28448 13.63842,5.58134z" fill="#75c376" stroke="none" stroke-width="0"/><path d="M279.62383,130.74337c4.79489,2.78332 6.46283,9.79485 3.72543,15.66066c-2.73739,5.86582 -8.84351,8.36466 -13.6384,5.58134c-4.79489,-2.78332 -6.46283,-9.79484 -3.72543,-15.66065c2.73739,-5.86582 8.84351,-8.36467 13.6384,-5.58134z" data-paper-data="{&quot;index&quot;:null}" fill="#75c376" stroke="none" stroke-width="0"/></g><path d="M231.17755,120.6462c-2.39429,11.08591 -12.25227,18.36292 -22.01844,16.25366c-9.76615,-2.10925 -15.74223,-12.80605 -13.34795,-23.89195c2.39429,-11.0859 12.25227,-18.36292 22.01844,-16.25366c9.76615,2.10926 15.74223,12.80605 13.34795,23.89195z" fill="#ffffff" stroke="#000000" stroke-width="2.5" stroke-linecap="butt"/><g stroke="none" stroke-linecap="butt"><g><path d="M207.72876,116.83104c0,-4.49942 3.6475,-8.14693 8.14692,-8.14693c4.49942,0 8.14693,3.64751 8.14693,8.14693c0,4.49942 -3.64751,8.14692 -8.14693,8.14692c-4.49942,0 -8.14692,-3.6475 -8.14692,-8.14692z" fill="url(#color-1)" stroke-width="0.5"/><path d="M217.18288,124.84008l-0.76008,-3.95233l1.8663,-0.62826l2.06359,3.34009c0,0 -0.84777,0.63232 -1.53736,0.84304c-0.67499,0.20626 -1.63244,0.39748 -1.63244,0.39748z" fill="#307432" stroke-width="0"/><path d="M221.46488,122.73774l-2.59819,-2.93979l1.01418,-0.95403l2.92407,2.18928c0,0 -0.34263,0.59353 -0.61266,0.937c-0.27003,0.34347 -0.72741,0.76753 -0.72741,0.76753z" fill="#307432" stroke-width="0"/></g><path d="M211.15046,116.83104c0,-2.60967 2.11555,-4.72522 4.72522,-4.72522c2.60967,0 4.72522,2.11555 4.72522,4.72522c0,2.60967 -2.11555,4.72521 -4.72522,4.72521c-2.60967,0 -4.72522,-2.11554 -4.72522,-4.72521z" fill="#000000" stroke-width="0.5"/><path d="M214.85739,115.17864c-1.20529,1.17977 -3.01243,1.28813 -4.03639,0.24203c-1.02396,-1.04609 -0.87694,-2.85051 0.32834,-4.03028c1.20529,-1.17977 3.01244,-1.28813 4.03639,-0.24203c1.02396,1.04609 0.87694,2.85051 -0.32835,4.03028z" fill="#ffffff" stroke-width="0"/><path d="M211.36203,116.45048c0.24212,0.32627 0.21661,0.73883 -0.05696,0.92146c-0.27357,0.18263 -0.69161,0.06617 -0.93373,-0.2601c-0.24212,-0.32627 -0.21661,-0.73882 0.05696,-0.92145c0.27357,-0.18263 0.69161,-0.06618 0.93373,0.2601z" fill="#ffffff" stroke-width="0"/></g><path d="M259.21567,96.59757c9.76617,-2.10926 19.62415,5.16776 22.01844,16.25366c2.39429,11.0859 -3.58179,21.7827 -13.34795,23.89195c-9.76617,2.10925 -19.62415,-5.16776 -22.01844,-16.25366c-2.39428,-11.0859 3.58179,-21.7827 13.34795,-23.89195z" data-paper-data="{&quot;index&quot;:null}" fill="#ffffff" stroke="#000000" stroke-width="2.5" stroke-linecap="butt"/><g stroke="none" stroke-linecap="butt"><g><path d="M253.00684,116.51772c0,-4.49942 3.64751,-8.14692 8.14693,-8.14692c4.49942,0 8.14692,3.6475 8.14692,8.14692c0,4.49942 -3.6475,8.14691 -8.14692,8.14691c-4.49942,0 -8.14693,-3.6475 -8.14693,-8.14691z" fill="url(#color-2)" stroke-width="0.5"/><path d="M262.46096,124.52676l-0.76009,-3.95235l1.86631,-0.62826l2.06359,3.34009c0,0 -0.84778,0.63232 -1.53737,0.84304c-0.67499,0.20626 -1.63245,0.39748 -1.63245,0.39748z" fill="#307432" stroke-width="0"/><path d="M266.74293,122.42441l-2.59819,-2.93979l1.01418,-0.95401l2.92406,2.18928c0,0 -0.34262,0.59352 -0.61266,0.93699c-0.27004,0.34347 -0.7274,0.76753 -0.7274,0.76753z" fill="#307432" stroke-width="0"/></g><path d="M256.42854,116.51772c0,-2.60967 2.11556,-4.72522 4.72522,-4.72522c2.60967,0 4.7252,2.11555 4.7252,4.72522c0,2.60967 -2.11555,4.72521 -4.7252,4.72521c-2.60967,0 -4.72522,-2.11554 -4.72522,-4.72521z" fill="#000000" stroke-width="0.5"/><path d="M260.13547,114.8653c-1.20529,1.17977 -3.01243,1.28813 -4.03638,0.24203c-1.02396,-1.0461 -0.87694,-2.85052 0.32834,-4.03028c1.20529,-1.17977 3.01244,-1.28813 4.03638,-0.24203c1.02395,1.0461 0.87694,2.85052 -0.32835,4.03028z" fill="#ffffff" stroke-width="0"/><path d="M256.6401,116.13712c0.24212,0.32627 0.2166,0.73882 -0.05697,0.92145c-0.27357,0.18263 -0.69162,0.06618 -0.93372,-0.2601c-0.2421,-0.32627 -0.2166,-0.73882 0.05696,-0.92145c0.27357,-0.18263 0.69162,-0.06618 0.93372,0.2601z" fill="#ffffff" stroke-width="0"/></g><path d="M219.63549,87.50441c0.00136,0.89745 -1.616,1.43024 -3.61246,1.19001c-1.99646,-0.24024 -6.16772,-1.46956 -6.16908,-2.36701c-0.00136,-0.89745 4.16771,-1.1232 6.16418,-0.88296c1.99646,0.24024 3.61601,1.16251 3.61737,2.05997z" fill="#000000" stroke="none" stroke-width="0" stroke-linecap="butt"/><path d="M260.43101,85.7398c2.01086,-0.00078 6.12338,0.71981 6.01517,1.61072c-0.10822,0.89091 -4.3962,1.61477 -6.40705,1.61556c-2.01086,0.00078 -3.55328,-0.72081 -3.44505,-1.61172c0.10822,-0.89091 1.82608,-1.61377 3.83695,-1.61455z" data-paper-data="{&quot;index&quot;:null}" fill="#000000" stroke="none" stroke-width="0" stroke-linecap="butt"/><path d="M230.54643,156.22653l-3.5,-8.5l7.5,1.5z" fill="#ffffff" stroke="#000000" stroke-width="2.5" stroke-linecap="butt"/><path d="M241.54643,149.47653l7.5,-1.5l-3.5,8.5z" data-paper-data="{&quot;index&quot;:null}" fill="#ffffff" stroke="#000000" stroke-width="2.5" stroke-linecap="butt"/><path d="M251.29624,146.67909c0,0 -7.25758,3.36685 -12.64508,3.36685c-5.38751,0 -13.72896,-3.36685 -13.72896,-3.36685" fill="#87e18a" stroke="#000000" stroke-width="2.5" stroke-linecap="round"/><path d="M232.68836,136.303c0.50246,0.55743 1.63524,2.35107 1.30585,2.64797c-0.32939,0.29691 -1.99622,-1.01535 -2.49867,-1.57278c-0.50246,-0.55743 -0.64275,-1.25 -0.31337,-1.54691c0.32939,-0.29691 1.00373,-0.08571 1.50619,0.47172z" fill="#000000" stroke="none" stroke-width="0" stroke-linecap="butt"/><path d="M245.4751,136.03125c0.32939,0.29691 0.18909,0.98949 -0.31337,1.54691c-0.50245,0.55742 -2.16928,1.86969 -2.49867,1.57278c-0.32939,-0.29691 0.80339,-2.09055 1.30585,-2.64798c0.50245,-0.55742 1.1768,-0.76862 1.50619,-0.47171z" data-paper-data="{&quot;index&quot;:null}" fill="#000000" stroke="none" stroke-width="0" stroke-linecap="butt"/><path d="M238.17101,126.90005c4.86011,0 8.8,5.3 8.8,5.3c0,0 -3.93989,-2.21773 -8.8,-2.21773c-4.86011,0 -8.8,2.21773 -8.8,2.21773c0,0 3.93989,-5.3 8.8,-5.3z" fill="#7bce7e" stroke="none" stroke-width="0" stroke-linecap="butt"/><path d="M228.57586,98.34557c4.19318,4.77032 4.84607,14.32517 4.84607,14.32517c0,0 -1.3754,-8.38221 -5.56858,-13.15252c-4.19318,-4.77032 -10.86627,-7.37232 -10.86627,-7.37232c0,0 7.3956,1.42936 11.58878,6.19968z" fill="#7bce7e" stroke="none" stroke-width="0" stroke-linecap="butt"/><path d="M259.92193,93.14589c0,0 -6.67309,2.60201 -10.86627,7.37233c-4.19318,4.77032 -5.56857,13.15252 -5.56857,13.15252c0,0 0.65289,-9.55485 4.84607,-14.32517c4.19318,-4.77032 11.58877,-6.19968 11.58877,-6.19968z" data-paper-data="{&quot;index&quot;:null}" fill="#7bce7e" stroke="none" stroke-width="0" stroke-linecap="butt"/><g stroke="#000000" stroke-linecap="butt"><path d="M220.19676,62.59268l-0.74524,-28.70833c0,0 10.30122,-0.83333 19.12783,-0.83333c8.8266,0 18.38259,0.83333 18.38259,0.83333l-0.74524,28.70833c0,0 -8.51334,1.45833 -17.63735,1.45833c-10.11765,0 -18.38259,-1.45833 -18.38259,-1.45833z" fill="#59945a" stroke-width="0"/><g stroke-width="0"><path d="M213.29527,69.55099v-7.33333c0,0 13.82269,-1.33333 25.66667,-1.33333c11.84398,0 24.66667,1.33333 24.66667,1.33333v7.33333c0,0 -12.42363,2.33333 -24.66667,2.33333c-13.57637,0 -25.66667,-2.33333 -25.66667,-2.33333z" fill="#4a7b4b"/><path d="M213.29527,62.21768c0,0 13.8227,-1.33333 25.66667,-1.33333c11.84398,0 24.66666,1.33333 24.66666,1.33333c0,0 -14.50076,3.33334 -25,3.33334c-13.57637,0 -25.33334,-3.33334 -25.33334,-3.33334z" fill="#59945a"/></g><path d="M220.19676,62.59269l-0.37208,-14.33341c4.53365,4.59814 10.83539,7.4484 17.80285,7.4484c7.60102,0 14.40975,-3.39218 18.99491,-8.74527l-0.40575,15.63028c0,0 -8.51334,1.45833 -17.63735,1.45833c-10.11765,0 -18.38259,-1.45833 -18.38259,-1.45833z" fill="#4a7b4b" stroke-width="0"/><path d="M220.19676,61.75932l-0.74524,-27.87499c0,0 10.30122,-0.83333 19.12783,-0.83333c8.8266,0 18.38259,0.83333 18.38259,0.83333l-0.74524,28.20833c0,0 1.99006,0.00866 3.09878,0.10634c1.28432,0.11315 4.15808,0.53299 4.15808,0.53299l0.0262,7.13358c0,0 -15.2371,2.0562 -25.25375,2.01876c-10.01665,-0.03745 -24.94273,-2.20765 -24.94273,-2.20765l-0.02979,-7.26964c0,0 2.63748,-0.41342 3.8484,-0.5267c1.08239,-0.10126 3.07487,-0.121 3.07487,-0.121z" fill="none" stroke-width="2.5"/></g></g></g></svg>