<svg version="1.1" xmlns="http://www.w3.org/2000/svg" xmlns:xlink="http://www.w3.org/1999/xlink" width="337.46429" height="373.32143" viewBox="0,0,337.46429,373.32143"><defs><linearGradient x1="245.90421" y1="181.15487" x2="274.01354" y2="213.03143" gradientUnits="userSpaceOnUse" id="color-1"><stop offset="0" stop-color="#175f20"/><stop offset="1" stop-color="#249433"/></linearGradient><linearGradient x1="237.12568" y1="180.15487" x2="209.01635" y2="212.03143" gradientUnits="userSpaceOnUse" id="color-2"><stop offset="0" stop-color="#175f20"/><stop offset="1" stop-color="#249433"/></linearGradient><linearGradient x1="240.59869" y1="159.98266" x2="240.59869" y2="305.98265" gradientUnits="userSpaceOnUse" id="color-3"><stop offset="0" stop-color="#175f20"/><stop offset="1" stop-color="#249433"/></linearGradient><radialGradient cx="239.84869" cy="199.96886" r="23.17144" gradientUnits="userSpaceOnUse" id="color-4"><stop offset="0" stop-color="#30c735"/><stop offset="1" stop-color="#37e63d"/></radialGradient><radialGradient cx="193.84869" cy="153.33061" r="23.17144" gradientUnits="userSpaceOnUse" id="color-5"><stop offset="0" stop-color="#c7306a"/><stop offset="1" stop-color="#e6377a"/></radialGradient><radialGradient cx="193.34869" cy="199.33061" r="23.14748" gradientUnits="userSpaceOnUse" id="color-6"><stop offset="0" stop-color="#8430c7"/><stop offset="1" stop-color="#9837e6"/></radialGradient><radialGradient cx="238.84869" cy="153.63051" r="23.14748" gradientUnits="userSpaceOnUse" id="color-7"><stop offset="0" stop-color="#c78530"/><stop offset="1" stop-color="#e69437"/></radialGradient><radialGradient cx="217.34869" cy="208.96886" r="24.05317" gradientUnits="userSpaceOnUse" id="color-8"><stop offset="0" stop-color="#303cc7"/><stop offset="1" stop-color="#373ce6"/></radialGradient><radialGradient cx="215.84868" cy="143.13051" r="24.05317" gradientUnits="userSpaceOnUse" id="color-9"><stop offset="0" stop-color="#c73030"/><stop offset="1" stop-color="#e63737"/></radialGradient><radialGradient cx="248.34869" cy="177.46883" r="24.0522" gradientUnits="userSpaceOnUse" id="color-10"><stop offset="0" stop-color="#c6c730"/><stop offset="1" stop-color="#dae637"/></radialGradient><radialGradient cx="183.84869" cy="176.33061" r="24.05221" gradientUnits="userSpaceOnUse" id="color-11"><stop offset="0" stop-color="#c7309d"/><stop offset="1" stop-color="#e637b5"/></radialGradient><radialGradient cx="198.47801" cy="178.15731" r="8.625" gradientUnits="userSpaceOnUse" id="color-12"><stop offset="0" stop-color="#92868b"/><stop offset="1" stop-color="#92868b" stop-opacity="0"/></radialGradient><radialGradient cx="234.72801" cy="178.40731" r="8.625" gradientUnits="userSpaceOnUse" id="color-13"><stop offset="0" stop-color="#92868b"/><stop offset="1" stop-color="#92868b" stop-opacity="0"/></radialGradient></defs><g transform="translate(-64.08334,-69.9218)"><g data-paper-data="{&quot;isPaintingLayer&quot;:true}" fill-rule="nonzero" stroke-linejoin="miter" stroke-miterlimit="10" stroke-dasharray="" stroke-dashoffset="0" style="mix-blend-mode: normal"><path d="M245.90421,181.15487c6.10995,-5.38787 17.35553,-2.61979 25.11771,6.18268c7.76218,8.80247 9.93628,33.56927 9.93628,33.56927c0,0 -24.30019,-5.25561 -32.06237,-14.05808c-7.76218,-8.80247 -9.10157,-20.306 -2.99162,-25.69387z" data-paper-data="{&quot;index&quot;:null}" fill="url(#color-1)" stroke="#000000" stroke-width="2.5" stroke-linecap="butt"/><path d="M234.13406,205.84874c-7.76218,8.80247 -32.06237,14.05808 -32.06237,14.05808c0,0 2.1741,-24.76679 9.93628,-33.56926c7.76218,-8.80247 19.00776,-11.57055 25.11771,-6.18268c6.10995,5.38787 4.77056,16.8914 -2.99162,25.69387z" fill="url(#color-2)" stroke="#000000" stroke-width="2.5" stroke-linecap="butt"/><path d="M231.84869,305.98265c0,0 30,-42.52823 30,-65.48265c0,-25.45352 -62,-31.51735 -62,-31.51735l26.5,-16c0,0 51,23.81228 51,49.51735c0,22.54622 -28,63.48265 -28,63.48265z" fill="url(#color-3)" stroke="#000000" stroke-width="2.5" stroke-linecap="butt"/><g><g fill="none" stroke="#000000" stroke-width="5" stroke-linecap="butt"><path d="M256.32113,186.71886c2.10024,1.21594 4.02282,2.70082 5.66282,4.42257c8.59084,9.01907 8.24369,23.29474 -0.77539,31.88558c-9.01907,8.59084 -23.29474,8.2437 -31.88558,-0.77538c-2.12534,-2.23128 -3.83026,-4.91723 -5.05615,-7.82641"/><path d="M176.61122,165.42149c-2.07389,-1.20858 -3.9728,-2.68003 -5.59518,-4.38327c-8.59084,-9.01907 -8.24368,-23.29474 0.77539,-31.88558c8.1672,-7.77941 20.64489,-8.22954 29.30837,-1.54793"/><path d="M207.73625,215.28117c-1.21892,2.51575 -2.80663,4.82998 -4.71992,6.78181c-8.7193,8.89495 -22.99847,9.03734 -31.89342,0.31803c-8.89495,-8.7193 -9.03734,-22.99847 -0.31804,-31.89342c1.77175,-1.80744 3.85977,-3.34195 6.13701,-4.56666"/><path d="M227.77682,132.71714c0.67771,-0.92138 1.41435,-1.79201 2.20684,-2.60047c8.7193,-8.89495 22.99847,-9.03734 31.89342,-0.31804c8.89495,8.71931 9.03735,22.99847 0.31804,31.89342c-1.33844,1.36541 -2.85737,2.57505 -4.50203,3.61304"/><path d="M237.71612,210.33124c0.86532,2.61345 1.33704,5.33567 1.33704,8.0279c0,12.45577 -10.0974,22.55317 -22.55318,22.55317c-12.45577,0 -22.55318,-10.0974 -22.55318,-22.55317c0,-2.59534 0.43839,-5.21853 1.24515,-7.74529"/><path d="M194.04491,131.70305c1.06737,-11.46285 10.71336,-20.43571 22.45508,-20.43571c12.45577,0 22.55318,10.09739 22.55318,22.55317c0,0.73512 -0.03517,1.47248 -0.10393,2.20925"/><path d="M254.7474,154.83789c1.50589,-0.24679 3.02359,-0.35947 4.52853,-0.32491c12.45249,0.28596 22.31542,10.6125 22.02947,23.06499c-0.28596,12.45249 -10.6125,22.31542 -23.06499,22.02947c-2.02981,-0.04661 -4.07052,-0.36184 -6.06338,-0.9108"/><path d="M181.12984,196.70459c-2.43054,0.67878 -4.93535,1.01878 -7.40579,0.96205c-12.45249,-0.28596 -22.31542,-10.6125 -22.02946,-23.06499c0.28596,-12.45249 10.61249,-22.31542 23.06498,-22.02947c1.81624,0.04171 3.64119,0.29848 5.43279,0.74532"/></g><g stroke="none" stroke-width="0.5" stroke-linecap="butt"><path d="M229.32298,222.25163c-8.59084,-9.01908 -10.31281,-25.467 -1.29373,-34.05785c9.01908,-8.59084 25.36386,-6.07143 33.9547,2.94765c8.59084,9.01908 8.24369,23.29474 -0.77539,31.88558c-9.01908,8.59084 -23.29474,8.2437 -31.88558,-0.77538z" fill="url(#color-4)"/><path d="M171.01604,161.03822c-8.59084,-9.01908 -8.24369,-23.29474 0.77539,-31.88558c9.01908,-8.59084 23.29474,-8.2437 31.88558,0.77538c8.59084,9.01908 10.31281,25.467 1.29373,34.05785c-9.01908,8.59084 -25.36386,6.07143 -33.9547,-2.94765z" fill="url(#color-5)"/></g><g data-paper-data="{&quot;index&quot;:null}" stroke="none" stroke-width="0.5" stroke-linecap="butt"><path d="M171.1229,222.38102c-8.89495,-8.7193 -9.03734,-22.99847 -0.31804,-31.89342c8.7193,-8.89495 25.09853,-11.17971 33.99348,-2.4604c8.89495,8.7193 6.93728,25.14084 -1.78202,34.03579c-8.7193,8.89495 -22.99847,9.03734 -31.89342,0.31803z" fill="url(#color-6)"/><path d="M228.20163,164.15244c-8.89495,-8.7193 -6.93728,-25.14084 1.78202,-34.03579c8.7193,-8.89495 22.99847,-9.03734 31.89342,-0.31803c8.89495,8.7193 9.03734,22.99847 0.31804,31.89342c-8.7193,8.89495 -25.09853,11.17971 -33.99348,2.4604z" fill="url(#color-7)"/></g><g stroke="none" stroke-width="0.5" stroke-linecap="butt"><path d="M193.94682,218.35912c0,-12.45577 10.0974,-25.55317 22.55317,-25.55317c12.45577,0 22.55317,13.0974 22.55317,25.55317c0,12.45577 -10.0974,22.55317 -22.55317,22.55317c-12.45577,0 -22.55317,-10.0974 -22.55317,-22.55317z" fill="url(#color-8)"/><path d="M193.94682,133.82052c0,-12.45577 10.0974,-22.55317 22.55317,-22.55317c12.45577,0 22.55317,10.0974 22.55317,22.55317c0,12.45577 -10.0974,25.55317 -22.55317,25.55317c-12.45577,0 -22.55317,-13.0974 -22.55317,-25.55317z" fill="url(#color-9)"/></g><g stroke="none" stroke-width="0.5" stroke-linecap="butt"><path d="M258.24039,199.60744c-12.45249,-0.28596 -25.31463,-10.68138 -25.02868,-23.13387c0.28596,-12.45249 13.61171,-22.24655 26.0642,-21.96059c12.45249,0.28596 22.31542,10.6125 22.02946,23.065c-0.28596,12.45249 -10.61249,22.31542 -23.06499,22.02946z" fill="url(#color-10)"/><path d="M173.72405,197.66667c-12.45249,-0.28596 -22.31542,-10.6125 -22.02946,-23.065c0.28596,-12.45249 10.61249,-22.31542 23.06499,-22.02946c12.45249,0.28596 25.31463,10.68138 25.02868,23.13387c-0.28596,12.45249 -13.61171,22.24655 -26.0642,21.96059z" fill="url(#color-11)"/></g><path d="M186.24999,176.0898c0,-16.70661 13.54339,-30.25 30.25,-30.25c16.70661,0 30.25,13.54339 30.25,30.25c0,16.70661 -13.54339,30.25 -30.25,30.25c-16.70661,0 -30.25,-13.54339 -30.25,-30.25z" fill="#c7b8be" stroke="none" stroke-width="0.5" stroke-linecap="butt"/><path d="M192.74999,170.0898c0,-12.28834 10.63324,-22.25 23.75,-22.25c13.11676,0 23.75,9.96166 23.75,22.25c0,12.28834 -10.63324,22.25 -23.75,22.25c-13.11676,0 -23.75,-9.96166 -23.75,-22.25z" fill="#e0ced5" stroke="none" stroke-width="0.5" stroke-linecap="butt"/><path d="M202.6958,168.38193c0.19291,-2.41729 1.73878,-4.29702 3.45282,-4.1985c1.71404,0.09852 2.94716,2.13799 2.75425,4.55528c-0.19291,2.41729 -1.73878,4.29702 -3.45282,4.1985c-1.71404,-0.09852 -2.94716,-2.13799 -2.75425,-4.55528z" fill="#000000" stroke="none" stroke-width="0.5" stroke-linecap="butt"/><path d="M227.60532,173.19044c-1.71493,0.08157 -3.24214,-1.81336 -3.41113,-4.23243c-0.16899,-2.41908 1.08424,-4.44625 2.79916,-4.52782c1.71493,-0.08157 3.24214,1.81336 3.41113,4.23243c0.16899,2.41908 -1.08424,4.44625 -2.79916,4.52782z" data-paper-data="{&quot;index&quot;:null}" fill="#000000" stroke="none" stroke-width="0.5" stroke-linecap="butt"/><path d="M189.85301,178.15731c0,-4.76345 3.86155,-8.625 8.625,-8.625c4.76345,0 8.625,3.86155 8.625,8.625c0,4.76345 -3.86155,8.625 -8.625,8.625c-4.76345,0 -8.625,-3.86155 -8.625,-8.625z" fill="url(#color-12)" stroke="none" stroke-width="0.5" stroke-linecap="butt"/><path d="M226.10301,178.40731c0,-4.76345 3.86155,-8.625 8.625,-8.625c4.76346,0 8.625,3.86155 8.625,8.625c0,4.76345 -3.86154,8.625 -8.625,8.625c-4.76345,0 -8.625,-3.86155 -8.625,-8.625z" fill="url(#color-13)" stroke="none" stroke-width="0.5" stroke-linecap="butt"/><path d="M400.29763,145.6718c0,0 -31.07095,296.32143 -38.20853,296.32143c-7.13758,0 -296.75576,-370.82143 -296.75576,-370.82143" fill="#000000" stroke="#000000" stroke-width="2.5" stroke-linecap="round"/></g></g></g></svg>