<svg version="1.1" xmlns="http://www.w3.org/2000/svg" xmlns:xlink="http://www.w3.org/1999/xlink" width="195.52089" height="376.99808" viewBox="0,0,195.52089,376.99808"><defs><linearGradient x1="201.6273" y1="56.49724" x2="201.6273" y2="72.79109" gradientUnits="userSpaceOnUse" id="color-1"><stop offset="0" stop-color="#3d1775"/><stop offset="1" stop-color="#30125e"/></linearGradient><linearGradient x1="275.51683" y1="56.49724" x2="275.51683" y2="72.79109" gradientUnits="userSpaceOnUse" id="color-2"><stop offset="0" stop-color="#3d1775"/><stop offset="1" stop-color="#30125e"/></linearGradient></defs><g transform="translate(-141.72428,55.94108)"><g data-paper-data="{&quot;isPaintingLayer&quot;:true}" fill-rule="nonzero" stroke-linejoin="miter" stroke-miterlimit="10" stroke-dasharray="" stroke-dashoffset="0" style="mix-blend-mode: normal"><path d="M285.30144,180.7218c0,21.92989 -1.47362,41.81923 -12.75939,53.86417c-7.52749,8.03385 -22.6697,12.32795 -32.71955,12.32795c-11.55247,0 -25.25091,-4.01776 -33.27286,-14.34616c-9.41933,-12.12754 -12.20607,-32.10306 -12.20607,-51.84595c0,-19.7429 -0.36525,-42.87042 9.05407,-54.99796c8.02195,-10.3284 24.8724,-11.19415 36.42487,-11.19415c12.77326,0 29.72006,2.71102 37.98105,15.05211c7.98341,11.92642 7.49789,33.1739 7.49789,51.14001z" fill="#3a166f" stroke="#000000" stroke-width="2.5" stroke-linecap="butt"/><g data-paper-data="{&quot;index&quot;:null}" stroke="#000000" stroke-linecap="butt"><path d="M257.10954,319.70789c-7.12077,0.54381 -14.45542,0.32247 -15.70054,-0.75193c-1.52555,-1.31639 0,-96.43664 0,-96.43664h27.63161c0,0 0.92525,22.97176 1.30086,36.57334c0.26592,9.62908 1.49219,32.69525 2.00297,45.62665c0.39952,10.11458 0.2484,11.47332 -0.39524,12.26185c-0.70542,0.86421 -7.82717,2.19121 -14.83966,2.72674z" fill="#702bd6" stroke-width="0"/><path d="M269.55135,235.73715c0.05147,1.37707 0.15805,4.27943 0.15805,4.27943c0,0 -7.77388,6.44541 -13.31281,9.52178c-5.53894,3.07638 -15.2567,4.46595 -15.2567,4.46595l0.2691,-31.485h27.63161c0,0 0.23196,5.75929 0.51076,13.21785z" fill="#6025b9" stroke-width="0"/><path d="M257.10954,319.70789c-7.12077,0.54381 -14.45542,0.32247 -15.70054,-0.75193c-0.44485,-0.38386 -0.66972,-27.28933 -0.66972,-27.28933c0,0 7.80055,10.09692 16.95264,7.89571c9.93315,-2.38905 13.60314,-20.71832 13.60314,-20.71832c0,0 0.86879,21.30325 1.04939,25.87529c0.39952,10.11458 0.2484,11.47332 -0.39524,12.26185c-0.70542,0.86421 -7.82717,2.19121 -14.83966,2.72674z" fill="#6025b9" stroke-width="0"/><path d="M257.10954,319.70789c-7.12077,0.54381 -14.45542,0.32247 -15.70054,-0.75193c-1.52555,-1.31639 0,-96.43664 0,-96.43664h27.63161c0,0 0.92525,22.97176 1.30086,36.57334c0.26592,9.62908 1.49219,32.69525 2.00297,45.62665c0.39952,10.11458 0.2484,11.47332 -0.39524,12.26185c-0.70542,0.86421 -7.82717,2.19121 -14.83966,2.72674z" fill="none" stroke-width="2.5"/></g><g stroke="#000000" stroke-linecap="butt"><path d="M207.81876,316.6678c-0.64364,-0.78852 -0.79476,-2.14726 -0.39524,-12.26184c0.51078,-12.9314 1.73706,-35.99757 2.00298,-45.62665c0.37562,-13.60158 1.30086,-36.57334 1.30086,-36.57334h27.63161c0,0 1.52555,95.12026 0,96.43665c-1.24511,1.07441 -8.57977,1.29573 -15.70054,0.75192c-7.01249,-0.53553 -14.13425,-1.86253 -14.83966,-2.72674z" fill="#702bd6" stroke-width="0"/><path d="M210.72736,222.20596h27.63161l0.2691,31.485c0,0 -9.71777,-1.38957 -15.2567,-4.46595c-5.53894,-3.07638 -13.31282,-9.52178 -13.31282,-9.52178c0,0 0.10657,-2.90235 0.15805,-4.27943c0.2788,-7.45856 0.51076,-13.21785 0.51076,-13.21785z" fill="#6025b9" stroke-width="0"/><path d="M207.81876,316.6678c-0.64364,-0.78852 -0.79476,-2.14726 -0.39524,-12.26184c0.1806,-4.57204 1.04937,-25.87529 1.04937,-25.87529c0,0 3.66999,18.32927 13.60314,20.71832c9.15208,2.2012 16.95264,-7.89571 16.95264,-7.89571c0,0 -0.22487,26.90548 -0.66972,27.28934c-1.24511,1.07441 -8.57977,1.29574 -15.70054,0.75193c-7.01249,-0.53553 -14.13425,-1.86253 -14.83966,-2.72674z" fill="#6025b9" stroke-width="0"/><path d="M207.81876,316.6678c-0.64364,-0.78852 -0.79476,-2.14726 -0.39524,-12.26184c0.51078,-12.9314 1.73706,-35.99757 2.00298,-45.62665c0.37562,-13.60158 1.30086,-36.57334 1.30086,-36.57334h27.63161c0,0 1.52555,95.12026 0,96.43665c-1.24511,1.07441 -8.57977,1.29573 -15.70054,0.75192c-7.01249,-0.53553 -14.13425,-1.86253 -14.83966,-2.72674z" fill="none" stroke-width="2.5"/></g><g stroke="#000000" stroke-linecap="butt"><path d="M276.79261,197.70209c0,28.94338 -16.75076,49.11653 -37.41387,49.11653c-20.66311,0 -36.49686,-19.23312 -37.41387,-48.1765c-0.91651,-28.92812 16.75076,-56.63677 37.41387,-56.63677c20.66311,0 37.41387,26.75336 37.41387,55.69674z" fill="#6025b9" stroke-width="0"/><path d="M270.83211,189.45997c0,24.66028 -13.97149,41.84817 -31.20618,41.84817c-17.23469,0 -30.44133,-16.38697 -31.20619,-41.04725c-0.21879,-7.05428 3.76498,-20.37838 3.76498,-20.37838c0,0 16.28192,6.59069 27.44119,6.43391c11.15928,-0.15678 27.05968,-7.22537 27.05968,-7.22537c0,0 4.14651,13.25672 4.14651,20.36892z" fill="#702bd6" stroke-width="0"/><path d="M276.79261,197.70209c0,28.94338 -16.75076,49.11653 -37.41387,49.11653c-20.66311,0 -36.49686,-19.23312 -37.41387,-48.1765c-0.91651,-28.92812 16.75076,-56.63677 37.41387,-56.63677c20.66311,0 37.41387,26.75336 37.41387,55.69674z" fill="none" stroke-width="2.5"/></g><g stroke-linecap="butt"><g stroke="#000000"><path d="M297.10678,110.39359c0,31.40942 -25.56758,56.87178 -57.10679,56.87178c-31.53921,0 -57.10678,-25.46236 -57.10678,-56.87178c0,-31.40942 25.56758,-56.87177 57.10679,-56.87177c31.53921,0 57.10679,25.46236 57.10679,56.87178z" fill="#6025b9" stroke-width="0"/><path d="M291.93662,104.5184c0,27.38589 -23.3489,49.58655 -52.15125,49.58655c-28.80233,0 -52.15124,-22.20066 -52.15124,-49.58655c0,-27.3859 23.3489,-49.58655 52.15124,-49.58655c28.80233,0 52.15125,22.20065 52.15125,49.58655z" fill="#702bd6" stroke-width="0"/><path d="M297.10678,110.39359c0,31.40942 -25.56758,56.87178 -57.10679,56.87178c-31.53921,0 -57.10678,-25.46236 -57.10678,-56.87178c0,-31.40942 25.56758,-56.87177 57.10679,-56.87177c31.53921,0 57.10679,25.46236 57.10679,56.87178z" fill="none" stroke-width="2.5"/></g><path d="M213.36021,125.46855c2.73739,5.86582 1.06945,12.87733 -3.72544,15.66065c-4.79489,2.78332 -10.90101,0.28448 -13.63841,-5.58134c-2.73739,-5.86582 -1.06946,-12.87733 3.72543,-15.66065c4.79489,-2.78332 10.90102,-0.28448 13.63842,5.58134z" fill="#511f9b" stroke="none" stroke-width="0"/><path d="M281.312,120.35722c4.79489,2.78332 6.46283,9.79485 3.72543,15.66066c-2.73739,5.86582 -8.84351,8.36466 -13.6384,5.58134c-4.79489,-2.78332 -6.46283,-9.79484 -3.72543,-15.66065c2.73739,-5.86582 8.84351,-8.36467 13.6384,-5.58134z" data-paper-data="{&quot;index&quot;:null}" fill="#511f9b" stroke="none" stroke-width="0"/></g><path d="M202.66687,40.05575c0.31186,0.84153 -1.02116,1.90113 -2.97739,2.36667c-1.95623,0.46554 -6.29518,0.75577 -6.60704,-0.08576c-0.31186,-0.84153 3.52146,-2.49615 5.47769,-2.96169c1.95623,-0.46554 3.79489,-0.16075 4.10675,0.68078z" fill="#000000" stroke="none" stroke-width="0" stroke-linecap="butt"/><path d="M277.52594,39.09176c1.97407,0.38292 5.87354,1.87495 5.59732,2.72885c-0.27622,0.85389 -4.62354,0.74629 -6.5976,0.36338c-1.97407,-0.38292 -3.35046,-1.38555 -3.07423,-2.23944c0.27622,-0.85389 2.10045,-1.2357 4.07452,-0.85278z" data-paper-data="{&quot;index&quot;:null}" fill="#000000" stroke="none" stroke-width="0" stroke-linecap="butt"/><path d="M251.73439,138.41254c0,0 -6.29445,1.25338 -10.967,1.25338c-4.67255,0 -11.90704,-1.25338 -11.90704,-1.25338" fill="none" stroke="#000000" stroke-width="2.5" stroke-linecap="round"/><g stroke-linecap="butt"><path d="M206.61085,95.27936c-3.62939,-7.40717 -9.49706,-25.8674 -9.49706,-25.8674l8.79069,-3.94603c0,0 5.28553,15.86753 9.88982,25.26434c2.41903,4.93696 7.84513,13.27753 7.84513,13.27753c0,0 -0.95884,2.82126 -2.89523,3.96434c-1.93639,1.14308 -5.41412,0.94079 -5.41412,0.94079c0,0 -6.55746,-9.22165 -8.71923,-13.63357z" fill="#5d24b2" stroke="none" stroke-width="0"/><path d="M215.5921,109.26863c-2.74975,-3.72341 -6.74957,-9.43466 -8.98125,-13.98927c-3.62939,-7.40717 -9.49706,-25.8674 -9.49706,-25.8674l8.79069,-3.94603c0,0 5.28553,15.86753 9.88982,25.26434c2.4431,4.98608 5.54331,9.88289 7.91544,13.38133" fill="none" stroke="#000000" stroke-width="2.5"/></g><path d="M183.41523,64.91472c0,-9.84405 7.98018,-17.82423 17.82423,-17.82423c9.84405,0 17.82422,7.98018 17.82422,17.82423c0,9.84405 -7.98017,17.82422 -17.82422,17.82422c-9.84405,0 -17.82423,-7.98017 -17.82423,-17.82422z" fill="#ffffff" stroke="#000000" stroke-width="2.5" stroke-linecap="butt"/><g stroke="none" stroke-linecap="butt"><g><path d="M193.48038,64.64417c0,-4.49942 3.6475,-8.14693 8.14692,-8.14693c4.49942,0 8.14693,3.64751 8.14693,8.14693c0,4.49942 -3.64751,8.14692 -8.14693,8.14692c-4.49942,0 -8.14692,-3.6475 -8.14692,-8.14692z" fill="url(#color-1)" stroke-width="0.5"/><path d="M202.9345,72.65321l-0.76008,-3.95233l1.8663,-0.62826l2.06359,3.34009c0,0 -0.84777,0.63232 -1.53736,0.84304c-0.67499,0.20626 -1.63244,0.39748 -1.63244,0.39748z" fill="#230d43" stroke-width="0"/><path d="M207.2165,70.55086l-2.59819,-2.93979l1.01418,-0.95403l2.92407,2.18928c0,0 -0.34263,0.59353 -0.61266,0.937c-0.27003,0.34347 -0.72741,0.76753 -0.72741,0.76753z" fill="#230d43" stroke-width="0"/></g><path d="M196.90208,64.64417c0,-2.60967 2.11555,-4.72522 4.72522,-4.72522c2.60967,0 4.72522,2.11555 4.72522,4.72522c0,2.60967 -2.11555,4.72521 -4.72522,4.72521c-2.60967,0 -4.72522,-2.11554 -4.72522,-4.72521z" fill="#000000" stroke-width="0.5"/><path d="M200.60901,62.99175c-1.20529,1.17977 -3.01243,1.28813 -4.03639,0.24203c-1.02396,-1.04609 -0.87694,-2.85051 0.32834,-4.03028c1.20529,-1.17977 3.01244,-1.28813 4.03639,-0.24203c1.02396,1.04609 0.87694,2.85051 -0.32835,4.03028z" fill="#ffffff" stroke-width="0"/><path d="M197.11365,64.26359c0.24212,0.32627 0.21661,0.73883 -0.05696,0.92146c-0.27357,0.18263 -0.69161,0.06617 -0.93373,-0.2601c-0.24212,-0.32627 -0.21661,-0.73882 0.05696,-0.92145c0.27357,-0.18263 0.69161,-0.06618 0.93373,0.2601z" fill="#ffffff" stroke-width="0"/></g><g data-paper-data="{&quot;index&quot;:null}" stroke-linecap="butt"><path d="M261.87156,109.49414c0,0 -3.47772,0.20229 -5.41411,-0.94079c-1.9364,-1.14308 -2.89524,-3.96434 -2.89524,-3.96434c0,0 5.42611,-8.34057 7.84513,-13.27753c4.60429,-9.39682 9.88982,-25.26434 9.88982,-25.26434l8.79069,3.94602c0,0 -5.86767,18.46023 -9.49707,25.86741c-2.16177,4.41192 -8.71923,13.63357 -8.71923,13.63357z" fill="#5d24b2" stroke="none" stroke-width="0"/><path d="M253.4919,104.69281c2.37213,-3.49844 5.47235,-8.39524 7.91544,-13.38132c4.60429,-9.39682 9.88982,-25.26434 9.88982,-25.26434l8.79069,3.94602c0,0 -5.86767,18.46023 -9.49707,25.86741c-2.23168,4.55461 -6.2315,10.26586 -8.98125,13.98927" fill="none" stroke="#000000" stroke-width="2.5"/></g><path d="M257.05475,64.78972c0,-9.77501 7.92422,-17.69923 17.69923,-17.69923c9.77501,0 17.69922,7.92421 17.69922,17.69923c0,9.77501 -7.9242,17.69922 -17.69922,17.69922c-9.77501,0 -17.69923,-7.92421 -17.69923,-17.69922z" fill="#ffffff" stroke="#000000" stroke-width="2.5" stroke-linecap="butt"/><g stroke="none" stroke-linecap="butt"><g><path d="M267.3699,64.64417c0,-4.49942 3.6475,-8.14693 8.14692,-8.14693c4.49942,0 8.14693,3.64751 8.14693,8.14693c0,4.49942 -3.64751,8.14692 -8.14693,8.14692c-4.49942,0 -8.14692,-3.6475 -8.14692,-8.14692z" fill="url(#color-2)" stroke-width="0.5"/><path d="M276.82402,72.65321l-0.76008,-3.95233l1.8663,-0.62826l2.06359,3.34009c0,0 -0.84777,0.63232 -1.53736,0.84304c-0.67499,0.20626 -1.63244,0.39748 -1.63244,0.39748z" fill="#230d43" stroke-width="0"/><path d="M281.10602,70.55086l-2.59819,-2.93979l1.01418,-0.95403l2.92407,2.18928c0,0 -0.34263,0.59353 -0.61266,0.937c-0.27003,0.34347 -0.72741,0.76753 -0.72741,0.76753z" fill="#230d43" stroke-width="0"/></g><path d="M270.7916,64.64417c0,-2.60967 2.11555,-4.72522 4.72522,-4.72522c2.60967,0 4.72522,2.11555 4.72522,4.72522c0,2.60967 -2.11555,4.72521 -4.72522,4.72521c-2.60967,0 -4.72522,-2.11554 -4.72522,-4.72521z" fill="#000000" stroke-width="0.5"/><path d="M274.49853,62.99175c-1.20529,1.17977 -3.01243,1.28813 -4.03639,0.24203c-1.02396,-1.04609 -0.87694,-2.85051 0.32834,-4.03028c1.20529,-1.17977 3.01244,-1.28813 4.03639,-0.24203c1.02396,1.04609 0.87694,2.85051 -0.32835,4.03028z" fill="#ffffff" stroke-width="0"/><path d="M271.00317,64.26359c0.24212,0.32627 0.21661,0.73883 -0.05696,0.92146c-0.27357,0.18263 -0.69161,0.06617 -0.93373,-0.2601c-0.24212,-0.32627 -0.21661,-0.73882 0.05696,-0.92145c0.27357,-0.18263 0.69161,-0.06618 0.93373,0.2601z" fill="#ffffff" stroke-width="0"/></g><g><path d="M212.74754,33.30892v-88h53v88z" fill="#3b2a52" stroke="#000000" stroke-width="2.5" stroke-linecap="butt"/><g><path d="M224.82457,-26.38026c0,-7.83647 6.35272,-14.18919 14.18919,-14.18919c7.83647,0 14.18919,6.35272 14.18919,14.18919c0,7.83647 -6.35272,14.18919 -14.18919,14.18919c-7.83647,0 -14.18919,-6.35272 -14.18919,-14.18919z" fill="#291c38" stroke="none" stroke-width="0.5" stroke-linecap="butt"/><path d="M224.82457,-31.00189c0,-7.83647 6.35272,-14.18919 14.18919,-14.18919c7.83647,0 14.18919,6.35272 14.18919,14.18919c0,7.83647 -6.35272,14.18919 -14.18919,14.18919c-7.83647,0 -14.18919,-6.35272 -14.18919,-14.18919z" fill="#9267ca" stroke="#000000" stroke-width="2.5" stroke-linecap="butt"/><path d="M228.01935,-39.45932c0,0 7.42633,4.99733 11.03701,7.90995c3.47902,2.80641 10.24677,9.25897 10.24677,9.25897" fill="none" stroke="#000000" stroke-width="2.5" stroke-linecap="round"/><path d="M225.4653,-32.22284c0,0 6.39,4.16936 9.44991,6.57358c2.88981,2.27057 8.42847,7.47372 8.42847,7.47372" fill="none" stroke="#000000" stroke-width="2.5" stroke-linecap="round"/><path d="M234.40449,-43.57419c0,0 5.32536,3.05946 8.18954,5.16284c3.16063,2.32109 9.97263,8.175 9.97263,8.175" fill="none" stroke="#000000" stroke-width="2.5" stroke-linecap="round"/><path d="M230.43151,-20.87148c0,0 4.94596,-7.22461 7.69458,-10.82626c2.73782,-3.58749 8.76488,-10.74131 8.76488,-10.74131" fill="none" stroke="#000000" stroke-width="2.5" stroke-linecap="round"/><path d="M226.60044,-25.55392c0,0 4.44544,-6.96178 6.83949,-10.19498c2.17218,-2.93356 6.92402,-8.39286 6.92402,-8.39286" fill="none" stroke="#000000" stroke-width="2.5" stroke-linecap="round"/><path d="M237.38421,-17.32419c0,0 4.31362,-6.50825 6.73703,-9.73946c2.40071,-3.20094 7.73595,-9.55784 7.73595,-9.55784" fill="none" stroke="#000000" stroke-width="2.5" stroke-linecap="round"/></g><g><path d="M224.82457,9.61974c0,-7.83648 6.35271,-14.18919 14.18919,-14.18919c7.83648,0 14.18919,6.35271 14.18919,14.18919c0,7.83648 -6.35271,14.18919 -14.18919,14.18919c-7.83647,0 -14.18919,-6.35271 -14.18919,-14.18919z" fill="#291c38" stroke="none" stroke-width="0.5" stroke-linecap="butt"/><path d="M224.82457,4.99812c0,-7.83648 6.35271,-14.18919 14.18919,-14.18919c7.83648,0 14.18919,6.35271 14.18919,14.18919c0,7.83648 -6.35271,14.18919 -14.18919,14.18919c-7.83647,0 -14.18919,-6.35272 -14.18919,-14.18919z" fill="#9267ca" stroke="#000000" stroke-width="2.5" stroke-linecap="butt"/><path d="M228.01935,-3.45932c0,0 7.42633,4.99733 11.03701,7.90994c3.47902,2.80641 10.24677,9.25898 10.24677,9.25898" fill="none" stroke="#000000" stroke-width="2.5" stroke-linecap="round"/><path d="M225.4653,3.77716c0,0 6.38999,4.16936 9.44991,6.57358c2.88981,2.27057 8.42847,7.47372 8.42847,7.47372" fill="none" stroke="#000000" stroke-width="2.5" stroke-linecap="round"/><path d="M234.40449,-7.57419c0,0 5.32536,3.05947 8.18954,5.16284c3.16063,2.32109 9.97263,8.175 9.97263,8.175" fill="none" stroke="#000000" stroke-width="2.5" stroke-linecap="round"/><path d="M230.43152,15.12852c0,0 4.94594,-7.22462 7.69457,-10.82626c2.73782,-3.58749 8.76488,-10.74131 8.76488,-10.74131" fill="none" stroke="#000000" stroke-width="2.5" stroke-linecap="round"/><path d="M226.60044,10.44609c0,0 4.44544,-6.96178 6.83949,-10.19498c2.17217,-2.93356 6.92402,-8.39286 6.92402,-8.39286" fill="none" stroke="#000000" stroke-width="2.5" stroke-linecap="round"/><path d="M237.38421,18.67582c0,0 4.31362,-6.50825 6.73703,-9.73946c2.40071,-3.20094 7.73595,-9.55784 7.73595,-9.55784" fill="none" stroke="#000000" stroke-width="2.5" stroke-linecap="round"/></g></g><path d="M173.70758,124.56515c-0.39704,2.2416 0.23382,6.4359 0.08514,9.67805c-0.09148,1.99493 -0.96934,4.00991 -1.10518,3.85813c-1.19504,0.10861 -10.47667,-6.59576 -10.47667,-6.59576c0,0 -3.55988,5.22909 -7.45692,2.8061c-4.52605,-2.81406 -3.77274,-7.3039 -3.77274,-7.3039c0,0 -3.97409,-1.06022 -5.75399,-5.22681c-1.79166,-4.19414 1.50244,-6.13536 1.50244,-6.13536c0,0 -4.7944,-3.28562 -3.54883,-7.8656c0.82889,-3.04785 4.19195,-3.42306 10.52173,-3.53025c6.00374,-0.10168 9.2196,1.27872 12.36747,1.34623c3.13884,0.06732 16.18798,10.58219 23.44328,20.34902c5.25424,7.07308 -2.06796,27.2834 -2.06796,27.2834c0,0 -1.80837,-0.88018 -2.35379,-1.68003c-1.67178,-2.45159 -4.51714,-6.85237 -6.15474,-9.81879c-3.4595,-6.26673 -5.23986,-10.92301 -5.23986,-10.92301z" data-paper-data="{&quot;index&quot;:null}" fill="#702bd6" stroke="#000000" stroke-width="2.5" stroke-linecap="butt"/><path d="M304.79669,149.67198c0,0 -1.92034,4.60032 -5.56776,10.75956c-1.72654,2.91555 -4.70369,7.22827 -6.44884,9.62819c-0.56936,0.78298 -2.40351,1.60808 -2.40351,1.60808c0,0 -6.70771,-20.4225 -1.24199,-27.33346c7.54731,-9.54297 20.90845,-19.65844 24.0479,-19.63081c3.14847,0.02771 6.4046,-1.25479 12.40252,-0.97163c6.32366,0.29855 9.67383,0.77529 10.41016,3.8468c1.1065,4.61555 -3.78505,7.7547 -3.78505,7.7547c0,0 3.23389,2.03995 1.31623,6.17798c-1.90509,4.11085 -5.90941,5.05043 -5.90941,5.05043c0,0 0.61719,4.51056 -3.99188,7.18647c-3.96853,2.30404 -7.36865,-3.03031 -7.36865,-3.03031c0,0 -9.48012,6.42063 -10.67133,6.27593c-0.14036,0.1476 -0.95689,-1.89299 -0.988,-3.88978c-0.05057,-3.24516 0.70683,-7.41847 0.37776,-9.67105z" data-paper-data="{&quot;index&quot;:null}" fill="#702bd6" stroke="#000000" stroke-width="2.5" stroke-linecap="butt"/></g></g></svg>