<svg version="1.1" xmlns="http://www.w3.org/2000/svg" xmlns:xlink="http://www.w3.org/1999/xlink" width="116.71358" height="114.10539" viewBox="0,0,116.71358,114.10539"><defs><linearGradient x1="227.78134" y1="138.34306" x2="227.78134" y2="150.37759" gradientUnits="userSpaceOnUse" id="color-1"><stop offset="0" stop-color="#c25f46"/><stop offset="1" stop-color="#b15b45"/></linearGradient><linearGradient x1="273.05942" y1="138.11163" x2="273.05942" y2="150.14613" gradientUnits="userSpaceOnUse" id="color-2"><stop offset="0" stop-color="#c25f46"/><stop offset="1" stop-color="#b25c45"/></linearGradient><linearGradient x1="242.56581" y1="154.28726" x2="242.56581" y2="158.96501" gradientUnits="userSpaceOnUse" id="color-3"><stop offset="0" stop-color="#000000"/><stop offset="1" stop-color="#c27461"/></linearGradient><linearGradient x1="257.5658" y1="154.28726" x2="257.5658" y2="158.96501" gradientUnits="userSpaceOnUse" id="color-4"><stop offset="0" stop-color="#000000"/><stop offset="1" stop-color="#c27461"/></linearGradient></defs><g transform="translate(-191.8607,-76.42652)"><g data-paper-data="{&quot;isPaintingLayer&quot;:true}" fill-rule="nonzero" stroke-linejoin="miter" stroke-miterlimit="10" stroke-dasharray="" stroke-dashoffset="0" style="mix-blend-mode: normal"><g><path d="M268.9079,94.71339c-0.43577,5.49366 -3.43263,9.87074 -8.66971,12.41422c-2.77487,1.34767 -6.17865,0.63425 -10.16362,0.63425c-4.20318,0 -7.62632,0.52891 -10.35968,-1.04853c-4.74904,-2.7407 -7.41583,-7.13445 -8.47365,-11.99994c-1.05401,-4.84794 1.04525,-10.24536 6.57729,-12.68514c3.60358,-1.58927 7.3348,0.42688 12.25605,0.62145c4.92124,0.19457 8.97758,-1.55794 12.72417,0.11999c4.93249,2.20904 6.48617,7.19078 6.10916,11.9437z" fill="#ee3c3c" stroke="#000000" stroke-width="2.5" stroke-linecap="butt"/><path d="M263.44124,87.72137c0,0.80827 -1.4832,2.27934 -3.88647,2.81275c-2.44817,0.54338 -5.85111,0.14162 -9.61353,0.14162c-4.08071,0 -7.73855,0.04693 -10.214,-0.57932c-2.04743,-0.51796 -3.286,-1.63643 -3.286,-2.37506c0,-0.8798 1.35728,-3.14696 4.14562,-3.68818c2.38288,-0.46252 5.91875,0.73381 9.35438,0.73381c3.20606,0 7.7511,-0.93717 10.06678,-0.52863c3.06953,0.54155 3.43322,2.55296 3.43322,3.483z" fill="#f77676" stroke="none" stroke-width="0" stroke-linecap="butt"/><path d="M239.27882,92.61662c0.28563,0.91417 -0.39895,1.81141 -1.52904,2.00402c-1.1301,0.19262 -2.27777,-0.39232 -2.5634,-1.3065c-0.28563,-0.91417 0.39895,-1.81141 1.52904,-2.00402c1.1301,-0.19262 2.27777,0.39232 2.5634,1.3065z" fill="#f77676" stroke="none" stroke-width="0" stroke-linecap="butt"/><path d="M265.16982,92.58101c-0.4754,0.69093 -1.45949,1.02633 -2.19802,0.74912c-0.73853,-0.27721 -0.95184,-1.06204 -0.47644,-1.75298c0.4754,-0.69093 1.4595,-1.02633 2.19803,-0.74912c0.73853,0.27721 0.95184,1.06205 0.47643,1.75298z" fill="#f77676" stroke="none" stroke-width="0" stroke-linecap="butt"/><path d="M250.5326,83.58526c0,0 0.01105,-2.024 0.2132,-3.01938c0.19775,-0.97372 0.9868,-2.88936 0.9868,-2.88936" fill="none" stroke="#000000" stroke-width="2.5" stroke-linecap="round"/></g><g stroke-linecap="butt"><g stroke="#000000"><path d="M307.32428,147.2768c0,23.19878 -25.56758,42.0051 -57.10679,42.0051c-31.53921,0 -57.10678,-18.80632 -57.10678,-42.0051c0,-23.19878 25.56758,-42.00509 57.10679,-42.00509c31.53921,0 57.10679,18.80632 57.10679,42.0051z" fill="#e08670" stroke-width="0"/><path d="M302.15413,142.93743c0,20.22703 -23.3489,36.62428 -52.15125,36.62428c-28.80233,0 -52.15124,-16.39725 -52.15124,-36.62428c0,-20.22704 23.3489,-36.62428 52.15124,-36.62428c28.80233,0 52.15125,16.39725 52.15125,36.62428z" fill="#f19078" stroke-width="0"/><path d="M307.32428,147.2768c0,23.19878 -25.56758,42.0051 -57.10679,42.0051c-31.53921,0 -57.10678,-18.80632 -57.10678,-42.0051c0,-23.19878 25.56758,-42.00509 57.10679,-42.00509c31.53921,0 57.10679,18.80632 57.10679,42.0051z" fill="none" stroke-width="2.5"/></g><path d="M223.57772,158.41106c2.73739,4.33245 1.06945,9.51111 -3.72544,11.56685c-4.79489,2.05574 -10.90101,0.21011 -13.63841,-4.12234c-2.73739,-4.33245 -1.06946,-9.51111 3.72543,-11.56685c4.79489,-2.05574 10.90102,-0.21011 13.63842,4.12234z" fill="#c27461" stroke="none" stroke-width="0"/><path d="M291.5295,154.63587c4.79489,2.05574 6.46283,7.23441 3.72543,11.56685c-2.73739,4.33245 -8.84351,6.17808 -13.6384,4.12234c-4.79489,-2.05574 -6.46283,-7.2344 -3.72543,-11.56685c2.73739,-4.33245 8.84351,-6.17809 13.6384,-4.12234z" data-paper-data="{&quot;index&quot;:null}" fill="#c27461" stroke="none" stroke-width="0"/></g><path d="M243.08321,147.17816c-2.39429,8.18798 -12.25227,13.56272 -22.01844,12.00484c-9.76615,-1.55788 -15.74223,-9.45846 -13.34795,-17.64643c2.39429,-8.18797 12.25227,-13.56272 22.01844,-12.00484c9.76615,1.55788 15.74223,9.45846 13.34795,17.64643z" fill="#ffffff" stroke="#000000" stroke-width="2.5" stroke-linecap="butt"/><g stroke="none" stroke-linecap="butt"><g><path d="M219.63442,144.36032c0,-3.32324 3.6475,-6.01727 8.14692,-6.01727c4.49942,0 8.14693,2.69403 8.14693,6.01727c0,3.32324 -3.64751,6.01726 -8.14693,6.01726c-4.49942,0 -8.14692,-2.69402 -8.14692,-6.01726z" fill="url(#color-1)" stroke-width="0.5"/><path d="M229.08854,150.27574l-0.76008,-2.91916l1.8663,-0.46403l2.06359,2.46697c0,0 -0.84777,0.46703 -1.53736,0.62266c-0.67499,0.15234 -1.63244,0.29358 -1.63244,0.29358z" fill="#a6513c" stroke-width="0"/><path d="M233.37054,148.72296l-2.59819,-2.17131l1.01418,-0.70464l2.92407,1.61699c0,0 -0.34263,0.43838 -0.61266,0.69206c-0.27003,0.25368 -0.72741,0.56689 -0.72741,0.56689z" fill="#a6513c" stroke-width="0"/></g><path d="M223.05612,144.36032c0,-1.92748 2.11555,-3.49001 4.72522,-3.49001c2.60967,0 4.72522,1.56253 4.72522,3.49001c0,1.92748 -2.11555,3.49001 -4.72522,3.49001c-2.60967,0 -4.72522,-1.56252 -4.72522,-3.49001z" fill="#000000" stroke-width="0.5"/><path d="M226.76305,143.13986c-1.20529,0.87137 -3.01243,0.9514 -4.03639,0.17876c-1.02396,-0.77263 -0.87694,-2.10537 0.32834,-2.97674c1.20529,-0.87137 3.01244,-0.9514 4.03639,-0.17876c1.02396,0.77263 0.87694,2.10537 -0.32835,2.97674z" fill="#ffffff" stroke-width="0"/><path d="M223.26769,144.07923c0.24212,0.24098 0.21661,0.54569 -0.05696,0.68058c-0.27357,0.13489 -0.69161,0.04887 -0.93373,-0.19211c-0.24212,-0.24098 -0.21661,-0.54569 0.05696,-0.68058c0.27357,-0.13489 0.69161,-0.04888 0.93373,0.19211z" fill="#ffffff" stroke-width="0"/></g><path d="M271.12133,129.41601c9.76617,-1.55788 19.62415,3.81687 22.01844,12.00484c2.39429,8.18797 -3.58179,16.08855 -13.34795,17.64643c-9.76617,1.55788 -19.62415,-3.81687 -22.01844,-12.00484c-2.39428,-8.18797 3.58179,-16.08855 13.34795,-17.64643z" data-paper-data="{&quot;index&quot;:null}" fill="#ffffff" stroke="#000000" stroke-width="2.5" stroke-linecap="butt"/><g stroke="none" stroke-linecap="butt"><g><path d="M264.91249,144.12889c0,-3.32324 3.64751,-6.01726 8.14693,-6.01726c4.49942,0 8.14692,2.69402 8.14692,6.01726c0,3.32324 -3.6475,6.01725 -8.14692,6.01725c-4.49942,0 -8.14693,-2.69402 -8.14693,-6.01725z" fill="url(#color-2)" stroke-width="0.5"/><path d="M274.36662,150.04431l-0.76009,-2.91918l1.86631,-0.46403l2.06359,2.46697c0,0 -0.84778,0.46703 -1.53737,0.62266c-0.67499,0.15234 -1.63245,0.29358 -1.63245,0.29358z" fill="#a6513c" stroke-width="0"/><path d="M278.6486,148.49153l-2.59819,-2.17131l1.01418,-0.70463l2.92406,1.61699c0,0 -0.34262,0.43837 -0.61266,0.69205c-0.27004,0.25368 -0.7274,0.56689 -0.7274,0.56689z" fill="#a6513c" stroke-width="0"/></g><path d="M268.33421,144.12889c0,-1.92748 2.11556,-3.49001 4.72522,-3.49001c2.60967,0 4.7252,1.56253 4.7252,3.49001c0,1.92748 -2.11555,3.49001 -4.7252,3.49001c-2.60967,0 -4.72522,-1.56252 -4.72522,-3.49001z" fill="#000000" stroke-width="0.5"/><path d="M272.04114,142.90842c-1.20529,0.87137 -3.01243,0.9514 -4.03638,0.17876c-1.02396,-0.77264 -0.87694,-2.10537 0.32834,-2.97674c1.20529,-0.87137 3.01244,-0.9514 4.03638,-0.17876c1.02395,0.77264 0.87694,2.10537 -0.32835,2.97674z" fill="#ffffff" stroke-width="0"/><path d="M268.54576,143.8478c0.24212,0.24098 0.2166,0.54569 -0.05697,0.68058c-0.27357,0.13489 -0.69162,0.04888 -0.93372,-0.19211c-0.2421,-0.24098 -0.2166,-0.54569 0.05696,-0.68058c0.27357,-0.13489 0.69162,-0.04888 0.93372,0.19211z" fill="#ffffff" stroke-width="0"/></g><path d="M231.51966,119.72957c0.27622,0.63068 -1.10016,1.37122 -3.07423,1.65403c-1.97407,0.28281 -6.32138,0.36229 -6.5976,-0.26838c-0.27622,-0.63068 3.62326,-1.73269 5.59733,-2.01551c1.97407,-0.28281 3.79829,-0.00082 4.07451,0.62986z" fill="#000000" stroke="none" stroke-width="0" stroke-linecap="butt"/><path d="M272.63176,118.86828c1.97407,0.28282 5.87354,1.38483 5.59732,2.01551c-0.27622,0.63068 -4.62354,0.5512 -6.5976,0.26839c-1.97407,-0.28282 -3.35046,-1.02336 -3.07423,-1.65403c0.27622,-0.63068 2.10045,-0.91268 4.07452,-0.62986z" data-paper-data="{&quot;index&quot;:null}" fill="#000000" stroke="none" stroke-width="0" stroke-linecap="butt"/><path d="M245.98135,108.04609c0,0 4.79963,-2.93665 7.21753,-5.0656c2.4179,-2.12895 6.48194,-6.99671 6.48194,-6.99671c0,0 1.51085,5.53122 1.27352,7.84853c-0.19378,1.8921 -2.59354,5.04009 -2.59354,5.04009" fill="#f19078" stroke="#000000" stroke-width="2.5" stroke-linecap="butt"/><path d="M199.45004,121.55452c0,0 6.14315,-5.35803 10.23895,-7.55966c4.0958,-2.20164 12.60124,-4.71774 12.60124,-4.71774c0,0 -5.38963,7.15385 -7.55175,10.47564c-1.92742,2.96123 -4.79793,8.49796 -4.79793,8.49796c0,0 -4.2204,-2.08606 -6.07734,-3.27135c-1.60218,-1.02269 -4.41317,-3.42483 -4.41317,-3.42483z" fill="#f19078" stroke="#000000" stroke-width="2.5" stroke-linecap="butt"/><path d="M296.87706,125.22555c-1.85693,1.18529 -6.07734,3.27135 -6.07734,3.27135c0,0 -2.87051,-5.53673 -4.79793,-8.49796c-2.16211,-3.32179 -7.55174,-10.47564 -7.55174,-10.47564c0,0 8.50544,2.51611 12.60124,4.71774c4.0958,2.20164 10.23895,7.55966 10.23895,7.55966c0,0 -2.81099,2.40215 -4.41317,3.42483z" data-paper-data="{&quot;index&quot;:null}" fill="#f19078" stroke="#000000" stroke-width="2.5" stroke-linecap="butt"/><path d="M266.56579,160.49841c0,4.82698 -7.46192,8.74002 -16.66667,8.74002c-9.20475,0 -16.66667,-3.91304 -16.66667,-8.74002c0,-4.82698 7.46192,-8.74002 16.66667,-8.74002c9.20475,0 16.66667,3.91304 16.66667,8.74002z" fill="#e08670" stroke="none" stroke-width="0" stroke-linecap="butt"/><path d="M266.2247,156.83293c0,4.26587 -7.38557,7.72404 -16.49612,7.72404c-9.11056,0 -16.49612,-3.45817 -16.49612,-7.72404c0,-4.26587 7.38557,-7.72404 16.49612,-7.72404c9.11056,0 16.49612,3.45817 16.49612,7.72404z" fill="#f19078" stroke="#000000" stroke-width="2.5" stroke-linecap="butt"/><path d="M244.89914,156.62613c0,1.29173 -1.04467,2.33888 -2.33333,2.33888c-1.28866,0 -2.33333,-1.04715 -2.33333,-2.33888c0,-1.29173 1.04467,-2.33888 2.33333,-2.33888c1.28866,0 2.33333,1.04715 2.33333,2.33888z" fill="url(#color-3)" stroke="none" stroke-width="0" stroke-linecap="butt"/><path d="M259.89914,156.62613c0,1.29173 -1.04467,2.33887 -2.33334,2.33887c-1.28867,0 -2.33333,-1.04716 -2.33333,-2.33887c0,-1.29173 1.04467,-2.33887 2.33333,-2.33887c1.28867,0 2.33334,1.04716 2.33334,2.33887z" fill="url(#color-4)" stroke="none" stroke-width="0" stroke-linecap="butt"/><path d="M261.28523,169.20238c0,0 -6.29445,0.92574 -10.967,0.92574c-4.67255,0 -11.90704,-0.92574 -11.90704,-0.92574" fill="none" stroke="#000000" stroke-width="2.5" stroke-linecap="round"/></g></g></svg>