<svg version="1.1" xmlns="http://www.w3.org/2000/svg" xmlns:xlink="http://www.w3.org/1999/xlink" width="116.71358" height="282.11399" viewBox="0,0,116.71358,282.11399"><defs><linearGradient x1="201.6273" y1="56.49724" x2="201.6273" y2="72.79109" gradientUnits="userSpaceOnUse" id="color-1"><stop offset="0" stop-color="#3d1775"/><stop offset="1" stop-color="#30125e"/></linearGradient><linearGradient x1="275.51683" y1="56.49724" x2="275.51683" y2="72.79109" gradientUnits="userSpaceOnUse" id="color-2"><stop offset="0" stop-color="#3d1775"/><stop offset="1" stop-color="#30125e"/></linearGradient></defs><g transform="translate(-181.64321,-38.94301)"><g data-paper-data="{&quot;isPaintingLayer&quot;:true}" fill-rule="nonzero" stroke-linejoin="miter" stroke-miterlimit="10" stroke-dasharray="" stroke-dashoffset="0" style="mix-blend-mode: normal"><path d="M285.30144,180.7218c0,21.92989 -1.47362,41.81923 -12.75939,53.86417c-7.52749,8.03385 -22.6697,12.32795 -32.71955,12.32795c-11.55247,0 -25.25091,-4.01776 -33.27286,-14.34616c-9.41933,-12.12754 -12.20607,-32.10306 -12.20607,-51.84595c0,-19.7429 -0.36525,-42.87042 9.05407,-54.99796c8.02195,-10.3284 24.8724,-11.19415 36.42487,-11.19415c12.77326,0 29.72006,2.71102 37.98105,15.05211c7.98341,11.92642 7.49789,33.1739 7.49789,51.14001z" fill="#3a166f" stroke="#000000" stroke-width="2.5" stroke-linecap="butt"/><g data-paper-data="{&quot;index&quot;:null}" stroke="#000000" stroke-linecap="butt"><path d="M257.10954,319.70789c-7.12077,0.54381 -14.45542,0.32247 -15.70054,-0.75193c-1.52555,-1.31639 0,-96.43664 0,-96.43664h27.63161c0,0 0.92525,22.97176 1.30086,36.57334c0.26592,9.62908 1.49219,32.69525 2.00297,45.62665c0.39952,10.11458 0.2484,11.47332 -0.39524,12.26185c-0.70542,0.86421 -7.82717,2.19121 -14.83966,2.72674z" fill="#702bd6" stroke-width="0"/><path d="M269.55135,235.73715c0.05147,1.37707 0.15805,4.27943 0.15805,4.27943c0,0 -7.77388,6.44541 -13.31281,9.52178c-5.53894,3.07638 -15.2567,4.46595 -15.2567,4.46595l0.2691,-31.485h27.63161c0,0 0.23196,5.75929 0.51076,13.21785z" fill="#6025b9" stroke-width="0"/><path d="M257.10954,319.70789c-7.12077,0.54381 -14.45542,0.32247 -15.70054,-0.75193c-0.44485,-0.38386 -0.66972,-27.28933 -0.66972,-27.28933c0,0 7.80055,10.09692 16.95264,7.89571c9.93315,-2.38905 13.60314,-20.71832 13.60314,-20.71832c0,0 0.86879,21.30325 1.04939,25.87529c0.39952,10.11458 0.2484,11.47332 -0.39524,12.26185c-0.70542,0.86421 -7.82717,2.19121 -14.83966,2.72674z" fill="#6025b9" stroke-width="0"/><path d="M257.10954,319.70789c-7.12077,0.54381 -14.45542,0.32247 -15.70054,-0.75193c-1.52555,-1.31639 0,-96.43664 0,-96.43664h27.63161c0,0 0.92525,22.97176 1.30086,36.57334c0.26592,9.62908 1.49219,32.69525 2.00297,45.62665c0.39952,10.11458 0.2484,11.47332 -0.39524,12.26185c-0.70542,0.86421 -7.82717,2.19121 -14.83966,2.72674z" fill="none" stroke-width="2.5"/></g><g stroke="#000000" stroke-linecap="butt"><path d="M207.81876,316.6678c-0.64364,-0.78852 -0.79476,-2.14726 -0.39524,-12.26184c0.51078,-12.9314 1.73706,-35.99757 2.00298,-45.62665c0.37562,-13.60158 1.30086,-36.57334 1.30086,-36.57334h27.63161c0,0 1.52555,95.12026 0,96.43665c-1.24511,1.07441 -8.57977,1.29573 -15.70054,0.75192c-7.01249,-0.53553 -14.13425,-1.86253 -14.83966,-2.72674z" fill="#702bd6" stroke-width="0"/><path d="M210.72736,222.20596h27.63161l0.2691,31.485c0,0 -9.71777,-1.38957 -15.2567,-4.46595c-5.53894,-3.07638 -13.31282,-9.52178 -13.31282,-9.52178c0,0 0.10657,-2.90235 0.15805,-4.27943c0.2788,-7.45856 0.51076,-13.21785 0.51076,-13.21785z" fill="#6025b9" stroke-width="0"/><path d="M207.81876,316.6678c-0.64364,-0.78852 -0.79476,-2.14726 -0.39524,-12.26184c0.1806,-4.57204 1.04937,-25.87529 1.04937,-25.87529c0,0 3.66999,18.32927 13.60314,20.71832c9.15208,2.2012 16.95264,-7.89571 16.95264,-7.89571c0,0 -0.22487,26.90548 -0.66972,27.28934c-1.24511,1.07441 -8.57977,1.29574 -15.70054,0.75193c-7.01249,-0.53553 -14.13425,-1.86253 -14.83966,-2.72674z" fill="#6025b9" stroke-width="0"/><path d="M207.81876,316.6678c-0.64364,-0.78852 -0.79476,-2.14726 -0.39524,-12.26184c0.51078,-12.9314 1.73706,-35.99757 2.00298,-45.62665c0.37562,-13.60158 1.30086,-36.57334 1.30086,-36.57334h27.63161c0,0 1.52555,95.12026 0,96.43665c-1.24511,1.07441 -8.57977,1.29573 -15.70054,0.75192c-7.01249,-0.53553 -14.13425,-1.86253 -14.83966,-2.72674z" fill="none" stroke-width="2.5"/></g><g stroke="#000000" stroke-linecap="butt"><path d="M276.79261,197.70209c0,28.94338 -16.75076,49.11653 -37.41387,49.11653c-20.66311,0 -36.49686,-19.23312 -37.41387,-48.1765c-0.91651,-28.92812 16.75076,-56.63677 37.41387,-56.63677c20.66311,0 37.41387,26.75336 37.41387,55.69674z" fill="#6025b9" stroke-width="0"/><path d="M270.83211,189.45997c0,24.66028 -13.97149,41.84817 -31.20618,41.84817c-17.23469,0 -30.44133,-16.38697 -31.20619,-41.04725c-0.21879,-7.05428 3.76498,-20.37838 3.76498,-20.37838c0,0 16.28192,6.59069 27.44119,6.43391c11.15928,-0.15678 27.05968,-7.22537 27.05968,-7.22537c0,0 4.14651,13.25672 4.14651,20.36892z" fill="#702bd6" stroke-width="0"/><path d="M276.79261,197.70209c0,28.94338 -16.75076,49.11653 -37.41387,49.11653c-20.66311,0 -36.49686,-19.23312 -37.41387,-48.1765c-0.91651,-28.92812 16.75076,-56.63677 37.41387,-56.63677c20.66311,0 37.41387,26.75336 37.41387,55.69674z" fill="none" stroke-width="2.5"/></g><g stroke-linecap="butt"><g stroke="#000000"><path d="M297.10678,110.39359c0,31.40942 -25.56758,56.87178 -57.10679,56.87178c-31.53921,0 -57.10678,-25.46236 -57.10678,-56.87178c0,-31.40942 25.56758,-56.87177 57.10679,-56.87177c31.53921,0 57.10679,25.46236 57.10679,56.87178z" fill="#6025b9" stroke-width="0"/><path d="M291.93662,104.5184c0,27.38589 -23.3489,49.58655 -52.15125,49.58655c-28.80233,0 -52.15124,-22.20066 -52.15124,-49.58655c0,-27.3859 23.3489,-49.58655 52.15124,-49.58655c28.80233,0 52.15125,22.20065 52.15125,49.58655z" fill="#702bd6" stroke-width="0"/><path d="M297.10678,110.39359c0,31.40942 -25.56758,56.87178 -57.10679,56.87178c-31.53921,0 -57.10678,-25.46236 -57.10678,-56.87178c0,-31.40942 25.56758,-56.87177 57.10679,-56.87177c31.53921,0 57.10679,25.46236 57.10679,56.87178z" fill="none" stroke-width="2.5"/></g><path d="M213.36021,125.46855c2.73739,5.86582 1.06945,12.87733 -3.72544,15.66065c-4.79489,2.78332 -10.90101,0.28448 -13.63841,-5.58134c-2.73739,-5.86582 -1.06946,-12.87733 3.72543,-15.66065c4.79489,-2.78332 10.90102,-0.28448 13.63842,5.58134z" fill="#511f9b" stroke="none" stroke-width="0"/><path d="M281.312,120.35722c4.79489,2.78332 6.46283,9.79485 3.72543,15.66066c-2.73739,5.86582 -8.84351,8.36466 -13.6384,5.58134c-4.79489,-2.78332 -6.46283,-9.79484 -3.72543,-15.66065c2.73739,-5.86582 8.84351,-8.36467 13.6384,-5.58134z" data-paper-data="{&quot;index&quot;:null}" fill="#511f9b" stroke="none" stroke-width="0"/></g><path d="M202.66687,40.05575c0.31186,0.84153 -1.02116,1.90113 -2.97739,2.36667c-1.95623,0.46554 -6.29518,0.75577 -6.60704,-0.08576c-0.31186,-0.84153 3.52146,-2.49615 5.47769,-2.96169c1.95623,-0.46554 3.79489,-0.16075 4.10675,0.68078z" fill="#000000" stroke="none" stroke-width="0" stroke-linecap="butt"/><path d="M277.52594,39.09176c1.97407,0.38292 5.87354,1.87495 5.59732,2.72885c-0.27622,0.85389 -4.62354,0.74629 -6.5976,0.36338c-1.97407,-0.38292 -3.35046,-1.38555 -3.07423,-2.23944c0.27622,-0.85389 2.10045,-1.2357 4.07452,-0.85278z" data-paper-data="{&quot;index&quot;:null}" fill="#000000" stroke="none" stroke-width="0" stroke-linecap="butt"/><path d="M251.73439,138.41254c0,0 -6.29445,1.25338 -10.967,1.25338c-4.67255,0 -11.90704,-1.25338 -11.90704,-1.25338" fill="none" stroke="#000000" stroke-width="2.5" stroke-linecap="round"/><g stroke-linecap="butt"><path d="M206.61085,95.27936c-3.62939,-7.40717 -9.49706,-25.8674 -9.49706,-25.8674l8.79069,-3.94603c0,0 5.28553,15.86753 9.88982,25.26434c2.41903,4.93696 7.84513,13.27753 7.84513,13.27753c0,0 -0.95884,2.82126 -2.89523,3.96434c-1.93639,1.14308 -5.41412,0.94079 -5.41412,0.94079c0,0 -6.55746,-9.22165 -8.71923,-13.63357z" fill="#5d24b2" stroke="none" stroke-width="0"/><path d="M215.5921,109.26863c-2.74975,-3.72341 -6.74957,-9.43466 -8.98125,-13.98927c-3.62939,-7.40717 -9.49706,-25.8674 -9.49706,-25.8674l8.79069,-3.94603c0,0 5.28553,15.86753 9.88982,25.26434c2.4431,4.98608 5.54331,9.88289 7.91544,13.38133" fill="none" stroke="#000000" stroke-width="2.5"/></g><path d="M183.41523,64.91472c0,-9.84405 7.98018,-17.82423 17.82423,-17.82423c9.84405,0 17.82422,7.98018 17.82422,17.82423c0,9.84405 -7.98017,17.82422 -17.82422,17.82422c-9.84405,0 -17.82423,-7.98017 -17.82423,-17.82422z" fill="#ffffff" stroke="#000000" stroke-width="2.5" stroke-linecap="butt"/><g stroke="none" stroke-linecap="butt"><g><path d="M193.48038,64.64417c0,-4.49942 3.6475,-8.14693 8.14692,-8.14693c4.49942,0 8.14693,3.64751 8.14693,8.14693c0,4.49942 -3.64751,8.14692 -8.14693,8.14692c-4.49942,0 -8.14692,-3.6475 -8.14692,-8.14692z" fill="url(#color-1)" stroke-width="0.5"/><path d="M202.9345,72.65321l-0.76008,-3.95233l1.8663,-0.62826l2.06359,3.34009c0,0 -0.84777,0.63232 -1.53736,0.84304c-0.67499,0.20626 -1.63244,0.39748 -1.63244,0.39748z" fill="#230d43" stroke-width="0"/><path d="M207.2165,70.55086l-2.59819,-2.93979l1.01418,-0.95403l2.92407,2.18928c0,0 -0.34263,0.59353 -0.61266,0.937c-0.27003,0.34347 -0.72741,0.76753 -0.72741,0.76753z" fill="#230d43" stroke-width="0"/></g><path d="M196.90208,64.64417c0,-2.60967 2.11555,-4.72522 4.72522,-4.72522c2.60967,0 4.72522,2.11555 4.72522,4.72522c0,2.60967 -2.11555,4.72521 -4.72522,4.72521c-2.60967,0 -4.72522,-2.11554 -4.72522,-4.72521z" fill="#000000" stroke-width="0.5"/><path d="M200.60901,62.99175c-1.20529,1.17977 -3.01243,1.28813 -4.03639,0.24203c-1.02396,-1.04609 -0.87694,-2.85051 0.32834,-4.03028c1.20529,-1.17977 3.01244,-1.28813 4.03639,-0.24203c1.02396,1.04609 0.87694,2.85051 -0.32835,4.03028z" fill="#ffffff" stroke-width="0"/><path d="M197.11365,64.26359c0.24212,0.32627 0.21661,0.73883 -0.05696,0.92146c-0.27357,0.18263 -0.69161,0.06617 -0.93373,-0.2601c-0.24212,-0.32627 -0.21661,-0.73882 0.05696,-0.92145c0.27357,-0.18263 0.69161,-0.06618 0.93373,0.2601z" fill="#ffffff" stroke-width="0"/></g><g data-paper-data="{&quot;index&quot;:null}" stroke-linecap="butt"><path d="M261.87156,109.49414c0,0 -3.47772,0.20229 -5.41411,-0.94079c-1.9364,-1.14308 -2.89524,-3.96434 -2.89524,-3.96434c0,0 5.42611,-8.34057 7.84513,-13.27753c4.60429,-9.39682 9.88982,-25.26434 9.88982,-25.26434l8.79069,3.94602c0,0 -5.86767,18.46023 -9.49707,25.86741c-2.16177,4.41192 -8.71923,13.63357 -8.71923,13.63357z" fill="#5d24b2" stroke="none" stroke-width="0"/><path d="M253.4919,104.69281c2.37213,-3.49844 5.47235,-8.39524 7.91544,-13.38132c4.60429,-9.39682 9.88982,-25.26434 9.88982,-25.26434l8.79069,3.94602c0,0 -5.86767,18.46023 -9.49707,25.86741c-2.23168,4.55461 -6.2315,10.26586 -8.98125,13.98927" fill="none" stroke="#000000" stroke-width="2.5"/></g><path d="M257.05475,64.78972c0,-9.77501 7.92422,-17.69923 17.69923,-17.69923c9.77501,0 17.69922,7.92421 17.69922,17.69923c0,9.77501 -7.9242,17.69922 -17.69922,17.69922c-9.77501,0 -17.69923,-7.92421 -17.69923,-17.69922z" fill="#ffffff" stroke="#000000" stroke-width="2.5" stroke-linecap="butt"/><g stroke="none" stroke-linecap="butt"><g><path d="M267.3699,64.64417c0,-4.49942 3.6475,-8.14693 8.14692,-8.14693c4.49942,0 8.14693,3.64751 8.14693,8.14693c0,4.49942 -3.64751,8.14692 -8.14693,8.14692c-4.49942,0 -8.14692,-3.6475 -8.14692,-8.14692z" fill="url(#color-2)" stroke-width="0.5"/><path d="M276.82402,72.65321l-0.76008,-3.95233l1.8663,-0.62826l2.06359,3.34009c0,0 -0.84777,0.63232 -1.53736,0.84304c-0.67499,0.20626 -1.63244,0.39748 -1.63244,0.39748z" fill="#230d43" stroke-width="0"/><path d="M281.10602,70.55086l-2.59819,-2.93979l1.01418,-0.95403l2.92407,2.18928c0,0 -0.34263,0.59353 -0.61266,0.937c-0.27003,0.34347 -0.72741,0.76753 -0.72741,0.76753z" fill="#230d43" stroke-width="0"/></g><path d="M270.7916,64.64417c0,-2.60967 2.11555,-4.72522 4.72522,-4.72522c2.60967,0 4.72522,2.11555 4.72522,4.72522c0,2.60967 -2.11555,4.72521 -4.72522,4.72521c-2.60967,0 -4.72522,-2.11554 -4.72522,-4.72521z" fill="#000000" stroke-width="0.5"/><path d="M274.49853,62.99175c-1.20529,1.17977 -3.01243,1.28813 -4.03639,0.24203c-1.02396,-1.04609 -0.87694,-2.85051 0.32834,-4.03028c1.20529,-1.17977 3.01244,-1.28813 4.03639,-0.24203c1.02396,1.04609 0.87694,2.85051 -0.32835,4.03028z" fill="#ffffff" stroke-width="0"/><path d="M271.00317,64.26359c0.24212,0.32627 0.21661,0.73883 -0.05696,0.92146c-0.27357,0.18263 -0.69161,0.06617 -0.93373,-0.2601c-0.24212,-0.32627 -0.21661,-0.73882 0.05696,-0.92145c0.27357,-0.18263 0.69161,-0.06618 0.93373,0.2601z" fill="#ffffff" stroke-width="0"/></g><g><path d="M212.74754,244.30892v-88h53v88z" fill="#3b2a52" stroke="#000000" stroke-width="2.5" stroke-linecap="butt"/><g><path d="M224.82457,184.61974c0,-7.83647 6.35272,-14.18919 14.18919,-14.18919c7.83647,0 14.18919,6.35272 14.18919,14.18919c0,7.83647 -6.35272,14.18919 -14.18919,14.18919c-7.83647,0 -14.18919,-6.35272 -14.18919,-14.18919z" fill="#291c38" stroke="none" stroke-width="0.5" stroke-linecap="butt"/><path d="M224.82457,179.99811c0,-7.83647 6.35272,-14.18919 14.18919,-14.18919c7.83647,0 14.18919,6.35272 14.18919,14.18919c0,7.83647 -6.35272,14.18919 -14.18919,14.18919c-7.83647,0 -14.18919,-6.35272 -14.18919,-14.18919z" fill="#9267ca" stroke="#000000" stroke-width="2.5" stroke-linecap="butt"/><path d="M228.01935,171.54068c0,0 7.42633,4.99733 11.03701,7.90995c3.47902,2.80641 10.24677,9.25897 10.24677,9.25897" fill="none" stroke="#000000" stroke-width="2.5" stroke-linecap="round"/><path d="M225.4653,178.77716c0,0 6.39,4.16936 9.44991,6.57358c2.88981,2.27057 8.42847,7.47372 8.42847,7.47372" fill="none" stroke="#000000" stroke-width="2.5" stroke-linecap="round"/><path d="M234.40449,167.42581c0,0 5.32536,3.05946 8.18954,5.16284c3.16063,2.32109 9.97263,8.175 9.97263,8.175" fill="none" stroke="#000000" stroke-width="2.5" stroke-linecap="round"/><path d="M230.43151,190.12852c0,0 4.94596,-7.22461 7.69458,-10.82626c2.73782,-3.58749 8.76488,-10.74131 8.76488,-10.74131" fill="none" stroke="#000000" stroke-width="2.5" stroke-linecap="round"/><path d="M226.60044,185.44608c0,0 4.44544,-6.96178 6.83949,-10.19498c2.17218,-2.93356 6.92402,-8.39286 6.92402,-8.39286" fill="none" stroke="#000000" stroke-width="2.5" stroke-linecap="round"/><path d="M237.38421,193.67581c0,0 4.31362,-6.50825 6.73703,-9.73946c2.40071,-3.20094 7.73595,-9.55784 7.73595,-9.55784" fill="none" stroke="#000000" stroke-width="2.5" stroke-linecap="round"/></g><g><path d="M224.82457,220.61974c0,-7.83648 6.35271,-14.18919 14.18919,-14.18919c7.83648,0 14.18919,6.35271 14.18919,14.18919c0,7.83648 -6.35271,14.18919 -14.18919,14.18919c-7.83647,0 -14.18919,-6.35271 -14.18919,-14.18919z" fill="#291c38" stroke="none" stroke-width="0.5" stroke-linecap="butt"/><path d="M224.82457,215.99812c0,-7.83648 6.35271,-14.18919 14.18919,-14.18919c7.83648,0 14.18919,6.35271 14.18919,14.18919c0,7.83648 -6.35271,14.18919 -14.18919,14.18919c-7.83647,0 -14.18919,-6.35272 -14.18919,-14.18919z" fill="#9267ca" stroke="#000000" stroke-width="2.5" stroke-linecap="butt"/><path d="M228.01935,207.54068c0,0 7.42633,4.99733 11.03701,7.90994c3.47902,2.80641 10.24677,9.25898 10.24677,9.25898" fill="none" stroke="#000000" stroke-width="2.5" stroke-linecap="round"/><path d="M225.4653,214.77716c0,0 6.38999,4.16936 9.44991,6.57358c2.88981,2.27057 8.42847,7.47372 8.42847,7.47372" fill="none" stroke="#000000" stroke-width="2.5" stroke-linecap="round"/><path d="M234.40449,203.42581c0,0 5.32536,3.05947 8.18954,5.16284c3.16063,2.32109 9.97263,8.175 9.97263,8.175" fill="none" stroke="#000000" stroke-width="2.5" stroke-linecap="round"/><path d="M230.43152,226.12852c0,0 4.94594,-7.22462 7.69457,-10.82626c2.73782,-3.58749 8.76488,-10.74131 8.76488,-10.74131" fill="none" stroke="#000000" stroke-width="2.5" stroke-linecap="round"/><path d="M226.60044,221.44609c0,0 4.44544,-6.96178 6.83949,-10.19498c2.17217,-2.93356 6.92402,-8.39286 6.92402,-8.39286" fill="none" stroke="#000000" stroke-width="2.5" stroke-linecap="round"/><path d="M237.38421,229.67582c0,0 4.31362,-6.50825 6.73703,-9.73946c2.40071,-3.20094 7.73595,-9.55784 7.73595,-9.55784" fill="none" stroke="#000000" stroke-width="2.5" stroke-linecap="round"/></g></g><path d="M202.37887,196.0932c1.68658,-1.52901 3.75632,-5.23121 5.85926,-7.70331c1.29396,-1.52111 3.22189,-2.57651 3.23633,-2.37334c1.01127,0.64595 4.24347,11.63003 4.24347,11.63003c0,0 6.01648,-1.95399 7.61359,2.34799c1.8549,4.99634 -1.49009,8.08456 -1.49009,8.08456c0,0 2.49254,3.2718 1.34817,7.65574c-1.15194,4.41292 -4.94491,3.93038 -4.94491,3.93038c0,0 1.77828,5.53347 -2.01108,8.39151c-2.52171,1.90195 -5.41021,0.13913 -10.47998,-3.65231c-4.80864,-3.59614 -6.50568,-6.65674 -8.95295,-8.63778c-2.44025,-1.97536 -6.31748,-18.27903 -6.07236,-30.44333c0.17752,-8.80931 18.34247,-20.30306 18.34247,-20.30306c0,0 0.89064,1.80324 0.83203,2.76957c-0.17963,2.9619 -0.62509,8.18345 -1.14701,11.53143c-1.1026,7.07279 -2.54648,11.84414 -2.54648,11.84414z" data-paper-data="{&quot;index&quot;:null}" fill="#702bd6" stroke="#000000" stroke-width="2.5" stroke-linecap="butt"/><path d="M269.39972,191.16543c0,0 -1.44389,-4.77135 -2.54648,-11.84414c-0.52193,-3.34798 -0.96738,-8.56952 -1.14701,-11.53143c-0.05861,-0.96633 0.83203,-2.76957 0.83203,-2.76957c0,0 18.16496,11.49375 18.34247,20.30306c0.24513,12.1643 -3.63211,28.46797 -6.07236,30.44333c-2.44727,1.98104 -4.14432,5.04163 -8.95295,8.63778c-5.06978,3.79145 -7.95828,5.55426 -10.47998,3.65231c-3.78936,-2.85804 -2.01109,-8.39151 -2.01109,-8.39151c0,0 -3.79297,0.48254 -4.94491,-3.93037c-1.14436,-4.38394 1.34817,-7.65574 1.34817,-7.65574c0,0 -3.34499,-3.08822 -1.49009,-8.08456c1.59711,-4.30198 7.61359,-2.34799 7.61359,-2.34799c0,0 3.23221,-10.98408 4.24348,-11.63003c0.01444,-0.20317 1.94236,0.85222 3.23632,2.37334c2.10294,2.4721 4.17268,6.1743 5.85926,7.70331z" data-paper-data="{&quot;index&quot;:null}" fill="#702bd6" stroke="#000000" stroke-width="2.5" stroke-linecap="butt"/></g></g></svg>