<svg version="1.1" xmlns="http://www.w3.org/2000/svg" xmlns:xlink="http://www.w3.org/1999/xlink" width="135.43589" height="337.20581" viewBox="0,0,135.43589,337.20581"><g transform="translate(-172.28206,-11.3971)"><g data-paper-data="{&quot;isPaintingLayer&quot;:true}" fill-rule="nonzero" stroke="#ff0000" stroke-linejoin="miter" stroke-miterlimit="10" stroke-dasharray="" stroke-dashoffset="0" style="mix-blend-mode: normal"><g data-paper-data="{&quot;index&quot;:null}" fill="#000000" stroke-linecap="butt"><path d="M206.28132,114.32258c-3.38983,3.42333 -11.16553,3.61844 -19.96951,0.11747c-8.80399,-3.50098 -13.91813,-21.65565 -12.44214,-22.16093c2.70875,-0.92731 14.99826,2.97284 23.80225,6.4738c8.80398,3.50097 11.92728,12.21898 8.6094,15.56965z" stroke-width="0"/><path d="M199.322,114.79776c-2.13137,2.27471 -7.4834,1.94589 -13.76823,-1.12237c-6.28483,-3.06825 -10.91039,-16.52779 -9.92277,-16.80455c1.81248,-0.50791 10.52582,3.06024 16.81065,6.1285c6.28483,3.06825 8.96649,9.57198 6.88035,11.79842z" stroke-width="0"/><path d="M206.28132,114.32258c-3.38983,3.42333 -11.16553,3.61844 -19.96951,0.11747c-8.80399,-3.50097 -13.91813,-21.65565 -12.44214,-22.16093c2.70874,-0.9273 14.99826,2.97285 23.80224,6.47381c8.80398,3.50096 11.92729,12.21897 8.60941,15.56965z" stroke-width="2.5"/></g><g data-paper-data="{&quot;index&quot;:null}" fill="#000000" stroke-linecap="butt"><path d="M281.60534,99.75293c8.80398,-3.50097 21.0935,-7.40111 23.80224,-6.47381c1.47599,0.50528 -3.63814,18.65996 -12.44213,22.16094c-8.80398,3.50097 -16.57968,3.30585 -19.96951,-0.11748c-3.31788,-3.35068 -0.19458,-12.06868 8.6094,-15.56965z" stroke-width="0"/><path d="M286.83561,103.99934c6.28483,-3.06826 14.99817,-6.6364 16.81065,-6.12849c0.98761,0.27675 -3.63794,13.73629 -9.92277,16.80454c-6.28483,3.06826 -11.63686,3.39708 -13.76823,1.12237c-2.08614,-2.22644 0.59552,-8.73016 6.88034,-11.79842z" stroke-width="0"/><path d="M281.60535,99.75293c8.80398,-3.50096 21.0935,-7.40111 23.80224,-6.47381c1.47599,0.50528 -3.63815,18.65997 -12.44213,22.16094c-8.80398,3.50096 -16.57968,3.30585 -19.96951,-0.11748c-3.31788,-3.35068 -0.19457,-12.06869 8.60941,-15.56965z" stroke-width="2.5"/></g><g data-paper-data="{&quot;index&quot;:null}" stroke-width="2.5" stroke-linecap="butt"><path d="M287.86196,34.92618c0,0 0.05855,0.08967 0.10513,0.22558c5.03062,4.78016 7.8397,10.84096 9.43453,17.15625c0,0 0.03144,0.12461 0.02109,0.28984c0.12062,0.17201 0.24053,0.34581 0.35976,0.52151c0.50898,-0.24722 1.02547,-0.50478 1.55634,-0.77447l0.30129,-0.15309c0,0 0.86765,-0.44079 1.39976,0.37406c0.53211,0.81485 -0.33556,1.25565 -0.33556,1.25565l-0.30127,0.15304c-0.69968,0.35544 -1.37972,0.69217 -2.05289,1.01321c-0.03609,0.26606 -0.19614,0.71176 -0.85995,0.75565c0.1086,0.34081 -0.04447,0.66187 -0.04447,0.66187c-3.56453,7.4151 -11.99381,7.75573 -19.68147,8.99943c-0.52365,0.04377 -1.12579,0.03018 -1.75262,-0.03489c-0.19145,0.03536 -0.38085,0.0682 -0.56806,0.0985l0.00038,0.0555c0,0 -0.86764,0.44078 -1.39975,-0.37407c-0.03737,-0.05727 -0.06786,-0.1127 -0.09222,-0.16625c-2.8808,-0.79313 -5.024,-2.56887 -0.94385,-4.72608c3.31227,-1.7512 7.50041,-0.72544 11.03237,-1.82241c0.30025,-0.09327 0.60046,-0.19216 0.90061,-0.29528c-3.22477,-3.03945 -7.89951,-4.24897 -10.37989,-8.23853c-0.05113,-3.3417 2.71134,-4.43475 5.79548,-2.1384c4.60812,3.43106 6.69211,7.51734 12.84576,6.67021c0.62126,-0.70117 1.14972,-1.42725 1.56277,-2.17314c-3.8778,-4.90635 -8.81929,-8.31968 -12.88568,-13.21647c-0.0324,-0.039 -0.06442,-0.07804 -0.09603,-0.1171c-1.48921,-1.3155 -2.91603,-2.66773 -4.13734,-4.13766c-1.26416,-1.4493 -3.92944,-4.02957 -4.20342,-5.92508c-0.40329,-2.79007 2.88232,-3.51414 5.25903,-2.47808c3.49493,1.5235 7.20531,5.59075 9.16016,8.54065z" fill="#000000"/><path d="M300.78376,33.42999c4.34588,7.24371 8.13781,19.56406 3.70098,26.71193c-4.35982,10.74427 -11.26965,18.721 -18.16143,27.97617c-5.43717,7.66671 -6.88639,14.14977 -9.19347,22.92662c0,0 -0.14108,0.52786 -0.65938,0.64831c-0.16836,0.12457 -0.41426,0.22965 -0.73498,0.16931l-0.9695,0.17429c-6.24955,-3.28281 -4.14363,-9.95916 -2.7072,-15.27247c1.63439,-3.44949 2.7133,-7.09984 4.14168,-10.60998c0.50649,-1.24464 1.71186,-2.25347 0.76485,-3.67831c-1.94522,-2.92669 -5.83454,-2.46186 -8.79962,-3.24088c-5.02365,-1.3505 -11.04214,0.57459 -15.56146,-2.58263c-6.97894,-4.87557 5.60869,-8.25551 9.24853,-7.98004c4.13355,-0.18782 9.84325,0.49387 13.92028,1.58341c3.30215,0.88247 6.14874,3.27595 8.81009,1.36739c-0.30837,-1.14983 1.22079,-1.29373 2.2093,-1.99236c8.24527,-6.51467 9.48605,-15.5974 7.93514,-25.20136c-0.81737,-3.17868 -1.00733,-6.47213 -2.05043,-9.56678c-1.08681,-1.73815 -2.21735,-3.44105 -3.62768,-5.07603c-2.15489,-4.27241 -7.09166,-9.59837 -7.63238,-14.32046c-0.68732,-6.00261 6.66804,-0.7802 8.46214,0.70765c3.54111,5.42291 9.24932,10.89894 10.90454,17.25625z" fill="#ff0000"/></g><g stroke-width="2.5" stroke-linecap="butt"><path d="M192.1381,34.92613c1.95485,-2.9499 5.66523,-7.01715 9.16016,-8.54065c2.37672,-1.03606 5.66233,-0.31198 5.25903,2.47808c-0.27398,1.89551 -2.93926,4.47578 -4.20341,5.92508c-1.22131,1.46994 -2.64813,2.82216 -4.13735,4.13766c-0.0316,0.03907 -0.06363,0.07811 -0.09602,0.11711c-4.06639,4.89679 -9.00787,8.31012 -12.88568,13.21647c0.41305,0.74589 0.94151,1.47198 1.56276,2.17314c6.15365,0.84713 8.23763,-3.23914 12.84576,-6.67021c3.08414,-2.29634 5.84661,-1.2033 5.79549,2.13841c-2.48038,3.98956 -7.15512,5.19909 -10.37989,8.23854c0.30015,0.10312 0.60035,0.20201 0.90061,0.29528c3.53195,1.09697 7.72009,0.07121 11.03237,1.82241c4.08015,2.1572 1.93695,3.93294 -0.94385,4.72608c-0.02436,0.05355 -0.05485,0.10898 -0.09222,0.16625c-0.53211,0.81485 -1.39975,0.37406 -1.39975,0.37406l0.00038,-0.0555c-0.18721,-0.0303 -0.37661,-0.06315 -0.56806,-0.09851c-0.62683,0.06507 -1.22897,0.07866 -1.75262,0.03489c-7.68766,-1.2437 -16.11694,-1.58433 -19.68147,-8.99943c0,0 -0.15308,-0.32106 -0.04447,-0.66187c-0.66381,-0.04388 -0.82386,-0.48958 -0.85995,-0.75565c-0.67317,-0.32104 -1.35321,-0.65777 -2.05289,-1.01321l-0.30127,-0.15305c0,0 -0.86767,-0.4408 -0.33556,-1.25565c0.53211,-0.81485 1.39975,-0.37406 1.39975,-0.37406l0.30129,0.15309c0.53088,0.26968 1.04736,0.52725 1.55635,0.77447c0.11923,-0.1757 0.23914,-0.34949 0.35976,-0.5215c-0.01036,-0.16523 0.02109,-0.28984 0.02109,-0.28984c1.59483,-6.31529 4.40392,-12.3761 9.43453,-17.15625c0.04658,-0.13591 0.10513,-0.22558 0.10513,-0.22558z" fill="#000000"/><path d="M190.1208,16.17376c1.7941,-1.48785 9.14945,-6.71026 8.46214,-0.70765c-0.54072,4.7221 -5.47749,10.04805 -7.63238,14.32046c-1.41033,1.63498 -2.54088,3.33788 -3.62768,5.07603c-1.0431,3.09465 -1.23305,6.3881 -2.05043,9.56678c-1.55091,9.60396 -0.31013,18.68669 7.93514,25.20136c0.98851,0.69864 2.51767,0.84254 2.2093,1.99237c2.66136,1.90855 5.50794,-0.48492 8.81009,-1.36739c4.07703,-1.08954 9.78672,-1.77124 13.92028,-1.58341c3.63984,-0.27547 16.22746,3.10447 9.24853,7.98004c-4.51932,3.15722 -10.53781,1.23214 -15.56146,2.58263c-2.96508,0.77902 -6.85439,0.31419 -8.79962,3.24088c-0.94701,1.42484 0.25836,2.43368 0.76485,3.67832c1.42837,3.51014 2.50728,7.16049 4.14167,10.60998c1.43642,5.31331 3.54234,11.98966 -2.7072,15.27247l-0.9695,-0.17429c-0.32072,0.06035 -0.56663,-0.04474 -0.73498,-0.16931c-0.5183,-0.12045 -0.65938,-0.64831 -0.65938,-0.64831c-2.30708,-8.77686 -3.75629,-15.25991 -9.19346,-22.92662c-6.89178,-9.25516 -13.80161,-17.23189 -18.16143,-27.97616c-4.43683,-7.14786 -0.64489,-19.46822 3.70098,-26.71193c1.65522,-6.35731 7.36342,-11.83335 10.90454,-17.25625z" fill="#ff0000"/></g><path d="M262.54899,190.62439c2.82549,-0.73923 4.99846,0.29756 7.82026,4.74265c5.76306,9.07835 16.08526,38.82105 18.18935,41.15119c2.11016,2.33686 5.25782,3.86639 9.10809,8.47404c4.05937,4.8579 6.17767,11.39166 4.4145,14.01227c-2.64948,3.93799 -8.47309,-1.28378 -8.47309,-1.28378c0,0 0.94263,8.50452 -3.40175,9.8928c-4.31583,1.37917 -8.68196,-4.88701 -8.68196,-4.88701c0,0 -1.92516,7.71006 -7.01428,6.12734c-4.38186,-1.36276 -3.0249,-12.4686 -3.0249,-12.4686c0,0 -6.36581,2.36458 -8.46188,-1.28895c-1.97159,-3.43656 3.87199,-9.09331 6.1913,-11.94691c1.90476,-2.34354 -9.87635,-34.56351 -10.32178,-43.43511c-0.25754,-5.12925 0.49604,-8.26316 3.65614,-9.08994z" data-paper-data="{&quot;index&quot;:null}" fill="#000000" stroke-width="2.5" stroke-linecap="butt"/><path d="M216.85599,198.70088c-0.24233,8.87945 -11.28309,41.36057 -9.32523,43.65991c2.38398,2.79979 8.35546,8.32134 6.46303,11.80212c-2.01191,3.70054 -8.43016,1.48223 -8.43016,1.48223c0,0 1.61072,11.07188 -2.73881,12.53454c-5.05157,1.69875 -7.15265,-5.96523 -7.15265,-5.96523c0,0 -4.22161,6.36443 -8.56787,5.08439c-4.37499,-1.28851 -3.62722,-9.81236 -3.62722,-9.81236c0,0 -5.70258,5.35366 -8.44149,1.47732c-1.82267,-2.57959 0.14558,-9.16011 4.09273,-14.10962c3.74383,-4.69457 6.85568,-6.29569 8.91181,-8.68022c2.05023,-2.37769 11.68914,-32.34877 17.24298,-41.55662c2.71935,-4.50849 4.86802,-5.59473 7.70968,-4.92034c3.1782,0.75426 4.0033,3.8701 3.86319,9.0039z" data-paper-data="{&quot;index&quot;:null}" fill="#000000" stroke-width="2.5" stroke-linecap="butt"/><g data-paper-data="{&quot;index&quot;:null}" fill="#000000" stroke-linecap="butt"><path d="M255.85579,347.25381c-7.12077,0.54381 -14.45542,0.32247 -15.70054,-0.75193c-1.52555,-1.31639 0,-96.43664 0,-96.43664h27.63161c0,0 0.92525,22.97176 1.30086,36.57334c0.26592,9.62908 1.49219,32.69525 2.00297,45.62665c0.39952,10.11458 0.2484,11.47332 -0.39524,12.26185c-0.70542,0.86421 -7.82717,2.19121 -14.83966,2.72674z" stroke-width="0"/><path d="M268.2976,263.28307c0.05147,1.37707 0.15805,4.27943 0.15805,4.27943c0,0 -7.77388,6.44541 -13.31281,9.52178c-5.53894,3.07638 -15.2567,4.46595 -15.2567,4.46595l0.2691,-31.485h27.63161c0,0 0.23196,5.75929 0.51076,13.21785z" stroke-width="0"/><path d="M255.85579,347.25381c-7.12077,0.54381 -14.45542,0.32247 -15.70054,-0.75193c-0.44485,-0.38386 -0.66972,-27.28933 -0.66972,-27.28933c0,0 7.80055,10.09692 16.95264,7.89571c9.93315,-2.38905 13.60314,-20.71832 13.60314,-20.71832c0,0 0.86879,21.30325 1.04939,25.87529c0.39952,10.11458 0.2484,11.47332 -0.39524,12.26185c-0.70542,0.86421 -7.82717,2.19121 -14.83966,2.72674z" stroke-width="0"/><path d="M255.85579,347.25381c-7.12077,0.54381 -14.45542,0.32247 -15.70054,-0.75193c-1.52555,-1.31639 0,-96.43664 0,-96.43664h27.63161c0,0 0.92525,22.97176 1.30086,36.57334c0.26592,9.62908 1.49219,32.69525 2.00297,45.62665c0.39952,10.11458 0.2484,11.47332 -0.39524,12.26185c-0.70542,0.86421 -7.82717,2.19121 -14.83966,2.72674z" stroke-width="2.5"/></g><g fill="#000000" stroke-linecap="butt"><path d="M206.56501,344.21372c-0.64364,-0.78852 -0.79476,-2.14726 -0.39524,-12.26184c0.51078,-12.9314 1.73706,-35.99757 2.00298,-45.62665c0.37562,-13.60158 1.30086,-36.57334 1.30086,-36.57334h27.63161c0,0 1.52555,95.12026 0,96.43665c-1.24511,1.07441 -8.57977,1.29573 -15.70054,0.75192c-7.01249,-0.53553 -14.13425,-1.86253 -14.83966,-2.72674z" stroke-width="0"/><path d="M209.47361,249.75188h27.63161l0.2691,31.485c0,0 -9.71777,-1.38957 -15.2567,-4.46595c-5.53894,-3.07638 -13.31282,-9.52178 -13.31282,-9.52178c0,0 0.10657,-2.90235 0.15805,-4.27943c0.2788,-7.45856 0.51076,-13.21785 0.51076,-13.21785z" stroke-width="0"/><path d="M206.56501,344.21372c-0.64364,-0.78852 -0.79476,-2.14726 -0.39524,-12.26184c0.1806,-4.57204 1.04937,-25.87529 1.04937,-25.87529c0,0 3.66999,18.32927 13.60314,20.71832c9.15208,2.2012 16.95264,-7.89571 16.95264,-7.89571c0,0 -0.22487,26.90548 -0.66972,27.28934c-1.24511,1.07441 -8.57977,1.29574 -15.70054,0.75193c-7.01249,-0.53553 -14.13425,-1.86253 -14.83966,-2.72674z" stroke-width="0"/><path d="M206.56501,344.21372c-0.64364,-0.78852 -0.79476,-2.14726 -0.39524,-12.26184c0.51078,-12.9314 1.73706,-35.99757 2.00298,-45.62665c0.37562,-13.60158 1.30086,-36.57334 1.30086,-36.57334h27.63161c0,0 1.52555,95.12026 0,96.43665c-1.24511,1.07441 -8.57977,1.29573 -15.70054,0.75192c-7.01249,-0.53553 -14.13425,-1.86253 -14.83966,-2.72674z" stroke-width="2.5"/></g><g fill="#000000" stroke-linecap="butt"><path d="M275.53886,225.24801c0,28.94338 -16.75076,49.11653 -37.41387,49.11653c-20.66311,0 -36.49686,-19.23312 -37.41387,-48.1765c-0.91651,-28.92812 16.75076,-56.63677 37.41387,-56.63677c20.66311,0 37.41387,26.75336 37.41387,55.69674z" stroke-width="0"/><path d="M269.57836,217.00589c0,24.66028 -13.97149,41.84817 -31.20618,41.84817c-17.23469,0 -30.44133,-16.38697 -31.20619,-41.04725c-0.21879,-7.05428 3.76498,-20.37838 3.76498,-20.37838c0,0 16.28192,6.59069 27.44119,6.43391c11.15928,-0.15678 27.05968,-7.22537 27.05968,-7.22537c0,0 4.14651,13.25672 4.14651,20.36892z" stroke-width="0"/><path d="M275.53886,225.24801c0,28.94338 -16.75076,49.11653 -37.41387,49.11653c-20.66311,0 -36.49686,-19.23312 -37.41387,-48.1765c-0.91651,-28.92812 16.75076,-56.63677 37.41387,-56.63677c20.66311,0 37.41387,26.75336 37.41387,55.69674z" stroke-width="2.5"/></g><path d="M255.67132,231.41191c0,0 0.29251,-11.5059 0.29251,-16.74052c0,-2.7948 -0.36493,-7.13256 -0.4377,-10.78607c-0.07349,-3.68961 0.14518,-6.68138 0.14518,-6.68138h12.87075c0,0 -0.13852,3.78097 0.01145,8.28584c0.14234,4.27561 0.57358,8.67951 0.57358,11.64565c0,4.91733 -0.58503,13.59232 -0.58503,13.59232c0,0 -2.99621,-0.10264 -4.80385,-0.00655c-2.34245,0.12451 -8.0669,0.69071 -8.0669,0.69071z" fill="#ff0000" stroke-width="2.5" stroke-linecap="butt"/><path d="M246.02701,234.39442c0,0 0.33333,-11.32067 0.33333,-17.28571c0,-3.18477 -0.41585,-8.1278 -0.49877,-12.29109c-0.08374,-4.20444 0.16544,-7.61367 0.16544,-7.61367h14.66667c0,0 -0.15785,4.30854 0.01305,9.442c0.1622,4.87221 0.65362,10.48751 0.65362,13.86752c0,5.60347 -0.66667,15.19048 -0.66667,15.19048z" fill="#ff0000" stroke-width="2.5" stroke-linecap="butt"/><g stroke-linecap="butt"><g fill="#000000" stroke-width="0"><path d="M204.32288,201.40606c0,0 -1.29717,-2.55801 -1.61092,-5.70349c-0.16038,-1.60787 0.21721,-3.36924 0.31253,-5.02092c0.11319,-1.96142 -0.03494,-3.76813 -0.03494,-4.97939c0,-2.86166 1.33333,-7.19877 1.33333,-7.19877h67.66667c0,0 0.40438,2.14021 0.48086,4.85354c0.04464,1.58357 -0.57553,3.69633 -0.54021,5.69245c0.03525,1.99226 0.72602,3.86832 0.72602,4.98612c0,3.25447 -0.66667,7.37046 -0.66667,7.37046c0,0 -5.74753,-1.06945 -12.97795,-0.52772c-6.00122,0.44964 -13.024,2.52772 -18.62991,2.52772c-6.37811,0 -15.77554,-2.53257 -23.3778,-3.04806c-7.13004,-0.48348 -12.68101,1.04806 -12.68101,1.04806z"/><path d="M271.98954,178.5035c0,0 0.40438,2.14021 0.48087,4.85353c0.04464,1.58356 -0.57553,3.69633 -0.54022,5.69245c0.03525,1.99226 0.72602,3.86832 0.72602,4.98611c0,3.25447 -0.66667,7.37047 -0.66667,7.37047c0,0 -5.74753,-1.06946 -12.97795,-0.52772c-1.68115,0.12596 -3.44246,0.37971 -5.23034,0.67977c5.06582,-3.35685 8.40623,-9.10891 8.40623,-15.64116c0,-2.63319 -0.5428,-5.13961 -1.52261,-7.41346z"/><path d="M204.32288,201.40606c0,0 -1.29717,-2.55802 -1.61092,-5.7035c-0.16038,-1.60787 0.21721,-3.36924 0.31253,-5.02092c0.1132,-1.96141 -0.03494,-3.76814 -0.03494,-4.97939c0,-2.86166 1.33333,-7.19877 1.33333,-7.19877h13.22056c-0.97981,2.27385 -1.52261,4.78026 -1.52261,7.41346c0,6.30309 3.11015,11.87977 7.87953,15.2791c-2.37101,-0.37414 -4.70811,-0.68967 -6.89647,-0.83805c-7.13004,-0.48347 -12.681,1.04807 -12.681,1.04807z"/></g><path d="M204.32288,201.40607c0,0 -1.29717,-2.55801 -1.61092,-5.70349c-0.16038,-1.60787 0.21721,-3.36924 0.31253,-5.02092c0.11319,-1.96141 -0.03494,-3.76814 -0.03494,-4.97939c0,-2.86166 1.33333,-7.19876 1.33333,-7.19876h67.66667c0,0 0.40438,2.14021 0.48086,4.85353c0.04464,1.58356 -0.57553,3.69633 -0.54021,5.69245c0.03524,1.99226 0.72602,3.86832 0.72602,4.98611c0,3.25447 -0.66667,7.37046 -0.66667,7.37046c0,0 -5.74753,-1.06945 -12.97796,-0.52772c-6.00123,0.44964 -13.024,2.52772 -18.62991,2.52772c-6.37811,0 -15.77554,-2.53257 -23.3778,-3.04806c-7.13004,-0.48347 -12.681,1.04806 -12.681,1.04806z" fill="#ff0000" stroke-width="2.5"/></g><g stroke-linecap="butt"><g fill="#000000"><path d="M295.85303,137.93951c0,31.40942 -25.56758,56.87178 -57.10679,56.87178c-31.53921,0 -57.10678,-25.46236 -57.10678,-56.87178c0,-31.40942 25.56758,-56.87177 57.10679,-56.87177c31.53921,0 57.10679,25.46236 57.10679,56.87178z" stroke-width="0"/><path d="M290.68287,132.06432c0,27.38589 -23.3489,49.58655 -52.15125,49.58655c-28.80233,0 -52.15124,-22.20066 -52.15124,-49.58655c0,-27.3859 23.3489,-49.58655 52.15124,-49.58655c28.80233,0 52.15125,22.20065 52.15125,49.58655z" stroke-width="0"/><path d="M295.85303,137.93951c0,31.40942 -25.56758,56.87178 -57.10679,56.87178c-31.53921,0 -57.10678,-25.46236 -57.10678,-56.87178c0,-31.40942 25.56758,-56.87177 57.10679,-56.87177c31.53921,0 57.10679,25.46236 57.10679,56.87178z" stroke-width="2.5"/></g><path d="M212.10646,153.01447c2.73739,5.86582 1.06945,12.87733 -3.72544,15.66065c-4.79489,2.78332 -10.90101,0.28448 -13.63841,-5.58134c-2.73739,-5.86582 -1.06946,-12.87733 3.72543,-15.66065c4.79489,-2.78332 10.90102,-0.28448 13.63842,5.58134z" fill="#ff0000" stroke-width="0"/><path d="M280.05825,147.90314c4.79489,2.78332 6.46283,9.79485 3.72543,15.66066c-2.73739,5.86582 -8.84351,8.36466 -13.6384,5.58134c-4.79489,-2.78332 -6.46283,-9.79484 -3.72543,-15.66065c2.73739,-5.86582 8.84351,-8.36467 13.6384,-5.58134z" data-paper-data="{&quot;index&quot;:null}" fill="#ff0000" stroke-width="0"/></g><path d="M254.88479,154.59773c0,0 -6.3598,-4.25 -17.08333,-4.25c-10.72353,0 -16.41667,5.41667 -16.41667,5.41667c0,0 5.8598,-7.91667 16.58333,-7.91667c10.72353,0 16.91667,6.75 16.91667,6.75z" fill="#000000" stroke-width="0" stroke-linecap="butt"/><path d="M231.61195,137.80595c-2.39429,11.08591 -12.25227,18.36292 -22.01844,16.25366c-9.76615,-2.10925 -15.74223,-12.80605 -13.34795,-23.89195c2.39429,-11.0859 12.25227,-18.36292 22.01844,-16.25366c9.76615,2.10926 15.74223,12.80605 13.34795,23.89195z" fill="#ff0000" stroke-width="2.5" stroke-linecap="butt"/><path d="M259.65007,113.75732c9.76617,-2.10926 19.62415,5.16776 22.01844,16.25366c2.39429,11.0859 -3.58179,21.7827 -13.34795,23.89195c-9.76617,2.10925 -19.62415,-5.16776 -22.01844,-16.25366c-2.39428,-11.0859 3.58179,-21.7827 13.34795,-23.89195z" data-paper-data="{&quot;index&quot;:null}" fill="#ff0000" stroke-width="2.5" stroke-linecap="butt"/><path d="M220.0484,99.6426c0.27622,0.85389 -1.10016,1.85653 -3.07423,2.23944c-1.97407,0.38291 -6.32138,0.49052 -6.5976,-0.36337c-0.27622,-0.85389 3.62326,-2.34594 5.59733,-2.72885c1.97407,-0.38291 3.79829,-0.00111 4.07451,0.85278z" fill="#ff0000" stroke-width="0" stroke-linecap="butt"/><path d="M261.16053,98.47648c1.97407,0.38292 5.87354,1.87495 5.59732,2.72885c-0.27622,0.85389 -4.62354,0.74629 -6.5976,0.36338c-1.97407,-0.38292 -3.35046,-1.38555 -3.07423,-2.23944c0.27622,-0.85389 2.10045,-1.2357 4.07452,-0.85278z" data-paper-data="{&quot;index&quot;:null}" fill="#ff0000" stroke-width="0" stroke-linecap="butt"/><path d="M250.48064,165.95845c0,0 -6.29445,1.25338 -10.967,1.25338c-4.67255,0 -11.90704,-1.25338 -11.90704,-1.25338" fill="#000000" stroke-width="2.5" stroke-linecap="round"/><g stroke-linecap="butt"><path d="M248.52924,150.72963c0,2.9428 -5.68598,8.40706 -9.68239,8.40706c-3.54606,0 -9.68239,-5.46426 -9.68239,-8.40706c0,-2.9428 4.33496,-5.32842 9.68239,-5.32842c5.34743,0 9.68239,2.38562 9.68239,5.32842z" fill="#ff0000" stroke-width="NaN"/><path d="M234.04009,153.64833c1.51952,1.77024 2.48564,3.29923 2.24053,3.50963c-0.24511,0.2104 -2.0613,-0.99663 -3.58082,-2.76687c-1.51952,-1.77024 -2.16698,-3.43336 -1.92186,-3.64375c0.24511,-0.2104 1.74263,1.13076 3.26215,2.901z" fill="#000000" stroke-width="0"/><path d="M246.83892,150.74731c0.24511,0.2104 -0.40234,1.87351 -1.92187,3.64375c-1.51952,1.77024 -3.52734,3.08544 -3.58082,2.76687c-0.07364,-0.43863 1.46641,-2.57065 2.75356,-4.11703c1.21357,-1.45798 2.53296,-2.47914 2.74913,-2.2936z" data-paper-data="{&quot;index&quot;:null}" fill="#000000" stroke-width="0"/></g><path d="M231.65375,101.89711c0,0 -9.11004,-1.2358 -13.0911,-3.33328c-7.12668,-3.75479 -11.1589,-9.91672 -11.1589,-9.91672c0,0 3.41936,-0.09677 5.11798,-0.48876c1.53472,-0.35417 4.63202,-1.76124 4.63202,-1.76124c0,0 -2.2912,-3.29714 -2.79912,-4.90554c-0.49155,-1.55657 -0.20088,-4.59446 -0.20088,-4.59446c0,0 5.92415,2.16217 9.09,2.8106c3.67469,0.75265 11.66,1.4394 11.66,1.4394c0,0 -2,-2.57616 -2,-4c0,-1.63121 2,-5.25 2,-5.25c0,0 3.80475,4.97874 7.21224,7.11272c2.00478,1.25551 9.17834,1.04603 12.64727,2.65052c4.35663,2.01508 4.89049,5.73676 4.89049,5.73676" fill="#000000" stroke-width="2.5" stroke-linecap="round"/></g></g></svg>