<svg version="1.1" xmlns="http://www.w3.org/2000/svg" xmlns:xlink="http://www.w3.org/1999/xlink" width="148.81203" height="269.89134" viewBox="0,0,148.81203,269.89134"><defs><linearGradient x1="308.65845" y1="136.68313" x2="308.65845" y2="152.97698" gradientUnits="userSpaceOnUse" id="color-1"><stop offset="0" stop-color="#f58845"/><stop offset="1" stop-color="#cf7740"/></linearGradient><linearGradient x1="263.38037" y1="136.3698" x2="263.38037" y2="152.66363" gradientUnits="userSpaceOnUse" id="color-2"><stop offset="0" stop-color="#f58845"/><stop offset="1" stop-color="#d17840"/></linearGradient></defs><g transform="translate(-210.59399,-90.65697)"><g data-paper-data="{&quot;isPaintingLayer&quot;:true}" fill-rule="nonzero" stroke-linejoin="miter" stroke-miterlimit="10" stroke-dasharray="" stroke-dashoffset="0" style="mix-blend-mode: normal"><g data-paper-data="{&quot;index&quot;:null}" stroke="#000000"><g stroke-linecap="butt"><path d="M323.17677,353.49286c-0.59096,0.94616 -7.48888,3.15955 -14.37808,4.57399c-6.99558,1.4363 -14.2997,2.1405 -15.67022,1.23146c-1.6792,-1.11377 -12.14564,-95.66875 -12.14564,-95.66875l27.4116,-3.48005c0,0 3.81104,22.67231 5.8967,36.11829c1.47653,9.51892 5.59809,32.24696 7.73344,45.01107c1.67023,9.98374 1.69142,11.35069 1.15222,12.21399z" fill="#f5af82" stroke-width="0"/><path d="M308.39443,260.14951c0,0 0.95548,5.68421 2.17141,13.04827c0.2245,1.35963 0.69575,4.22545 0.69575,4.22545c0,0 -6.90022,7.37315 -12.0076,11.12263c-5.10737,3.74948 -14.57275,6.35188 -14.57275,6.35188l-3.6984,-31.26818l27.41159,-3.48004z" fill="#e4a279" stroke-width="0"/><path d="M308.7987,358.06686c-6.99558,1.4363 -14.2997,2.14049 -15.67022,1.23145c-0.41935,-0.27815 -5.85388,-38.25592 -5.85388,-38.25592c0,0 6.04614,4.25938 8.18622,2.03565c1.67126,-1.73658 4.13571,-10.35887 4.13571,-10.35887c0,0 6.18461,4.68123 8.95623,3.19978c2.76732,-1.47915 7.66062,-12.08162 7.66062,-12.08162c0,0 5.05621,32.92865 5.81119,37.44154c1.67023,9.98374 1.69142,11.35069 1.15222,12.21399c-0.59096,0.94616 -7.48886,3.15956 -14.37808,4.574z" fill="#ca8f6b" stroke-width="0"/><path d="M323.17677,353.49286c-0.59096,0.94616 -7.48888,3.15955 -14.37808,4.57399c-6.99558,1.4363 -14.2997,2.1405 -15.67022,1.23146c-1.6792,-1.11377 -12.14564,-95.66875 -12.14564,-95.66875l27.4116,-3.48005c0,0 3.81104,22.67231 5.8967,36.11829c1.47653,9.51892 5.59809,32.24696 7.73344,45.01107c1.67023,9.98374 1.69142,11.35069 1.15222,12.21399z" fill="none" stroke-width="2.5"/></g><path d="M316.03596,355.70746l-1.04436,-5.57957" fill="none" stroke-width="2.5" stroke-linecap="round"/><path d="M304.35981,358.20204l-0.58772,-5.64595" fill="none" stroke-width="2.5" stroke-linecap="round"/></g><g data-paper-data="{&quot;index&quot;:null}" stroke="#000000" stroke-linecap="butt"><path d="M217.99417,233.33266c8.64021,-6.91898 19.86117,14.01487 37.7159,20.91681c17.85473,6.90195 30.76742,16.53636 28.8413,21.51907c-1.92612,4.98272 -17.96167,3.42688 -35.8164,-3.47506c-17.85473,-6.90194 -39.60842,-31.85972 -30.7408,-38.96081z" fill="#f5af82" stroke-width="0"/><path d="M231.78362,237.25059c-4.68468,3.41895 -8.13545,8.42743 -9.55903,14.23215c-5.79423,-7.50948 -8.40421,-14.80774 -4.23042,-18.15007c3.93396,-3.15028 8.40292,-0.52649 13.78945,3.91792z" fill="#ca8f6b" stroke-width="0"/><path d="M217.99417,233.33266c8.64021,-6.91898 19.86117,14.01487 37.7159,20.91681c17.85473,6.90195 30.76742,16.53636 28.8413,21.51907c-1.92612,4.98272 -17.96167,3.42688 -35.8164,-3.47506c-17.85473,-6.90194 -39.60842,-31.85972 -30.7408,-38.96081z" fill="none" stroke-width="2.5"/></g><g data-paper-data="{&quot;index&quot;:null}" stroke="#000000" stroke-linecap="butt"><path d="M262.9364,209.87347c-0.24233,8.87945 -11.2831,41.36057 -9.32523,43.65991c2.38398,2.79978 8.35546,8.32134 6.46303,11.80212c-2.01191,3.70054 -8.43016,1.48223 -8.43016,1.48223c0,0 1.61072,11.07188 -2.73881,12.53454c-5.05157,1.69875 -7.15265,-5.96523 -7.15265,-5.96523c0,0 -4.22162,6.36443 -8.56787,5.08439c-4.37499,-1.28852 -3.62722,-9.81237 -3.62722,-9.81237c0,0 -5.70258,5.35366 -8.44149,1.47731c-1.82267,-2.57959 0.14558,-9.16011 4.09273,-14.10962c3.74384,-4.69456 6.85568,-6.2957 8.91181,-8.68022c2.05023,-2.37769 11.68914,-32.34877 17.24298,-41.55662c2.71935,-4.50848 4.86802,-5.59474 7.70968,-4.92035c3.1782,0.75426 4.0033,3.8701 3.86319,9.0039z" data-paper-data="{&quot;index&quot;:null}" fill="#f5af82" stroke-width="0"/><path d="M253.61118,253.53338c2.38398,2.79978 8.35546,8.32134 6.46303,11.80212c-2.01191,3.70054 -8.43016,1.48223 -8.43016,1.48223c0,0 1.61072,11.07188 -2.73881,12.53454c-5.05157,1.69875 -7.15265,-5.96523 -7.15265,-5.96523c0,0 -4.22162,6.36443 -8.56787,5.08439c-4.37499,-1.28852 -3.62722,-9.81237 -3.62722,-9.81237c0,0 -5.70258,5.35366 -8.44149,1.47731c-1.82267,-2.57959 0.14558,-9.16011 4.09273,-14.10962c3.74384,-4.69456 6.85568,-6.2957 8.91181,-8.68022c0.50446,-0.58504 1.46836,-2.84062 2.71779,-6.04642c1.01997,0.71817 2.04103,4.37101 3.40688,4.47461c2.85775,0.21675 6.09899,-3.84505 6.09899,-3.84505c0,0 1.25756,4.0782 3.27443,5.16568c1.44488,0.77907 3.44171,-1.27485 4.89552,-1.46653c-0.97616,4.22435 -1.45357,7.25793 -0.90298,7.90456z" data-paper-data="{&quot;index&quot;:null}" fill="#ca8f6b" stroke-width="0"/><path d="M262.9364,209.87346c-0.24233,8.87945 -11.2831,41.36057 -9.32523,43.65991c2.38398,2.79978 8.35546,8.32134 6.46303,11.80212c-2.01191,3.70054 -8.43016,1.48223 -8.43016,1.48223c0,0 1.61072,11.07188 -2.73881,12.53454c-5.05157,1.69875 -7.15265,-5.96523 -7.15265,-5.96523c0,0 -4.22162,6.36443 -8.56787,5.08439c-4.37499,-1.28852 -3.62722,-9.81237 -3.62722,-9.81237c0,0 -5.70258,5.35366 -8.44149,1.47731c-1.82267,-2.57959 0.14558,-9.16011 4.09273,-14.10962c3.74384,-4.69456 6.85568,-6.2957 8.91181,-8.68022c2.05023,-2.37769 11.68914,-32.34877 17.24298,-41.55662c2.71935,-4.50848 4.86802,-5.59474 7.70968,-4.92035c3.1782,0.75426 4.0033,3.8701 3.86319,9.0039z" data-paper-data="{&quot;index&quot;:null}" fill="none" stroke-width="2.5"/></g><g data-paper-data="{&quot;index&quot;:null}" stroke="#000000" stroke-linecap="butt"><path d="M310.11253,209.87346c-0.14011,-5.1338 0.68499,-8.24964 3.86319,-9.0039c2.84166,-0.67439 4.99033,0.41187 7.70968,4.92035c5.55384,9.20785 15.19275,39.17893 17.24298,41.55662c2.05613,2.38452 5.16797,3.98566 8.91181,8.68022c3.94715,4.94951 5.9154,11.53003 4.09273,14.10962c-2.73891,3.87635 -8.44149,-1.47731 -8.44149,-1.47731c0,0 0.74777,8.52385 -3.62722,9.81237c-4.34625,1.28004 -8.56787,-5.08439 -8.56787,-5.08439c0,0 -2.10108,7.66398 -7.15265,5.96523c-4.34953,-1.46266 -2.73881,-12.53454 -2.73881,-12.53454c0,0 -6.41825,2.21831 -8.43016,-1.48223c-1.89243,-3.48078 4.07905,-9.00234 6.46303,-11.80212c1.95787,-2.29934 -9.0829,-34.78046 -9.32523,-43.65991z" data-paper-data="{&quot;index&quot;:null}" fill="#f5af82" stroke-width="0"/><path d="M318.53477,245.62882c1.45381,0.19168 3.45064,2.2456 4.89552,1.46653c2.01687,-1.08748 3.27443,-5.16568 3.27443,-5.16568c0,0 3.24124,4.0618 6.09899,3.84505c1.36585,-0.1036 2.38691,-3.75644 3.40688,-4.47461c1.24943,3.2058 2.21333,5.46138 2.71779,6.04642c2.05613,2.38452 5.16797,3.98566 8.91181,8.68022c3.94715,4.94951 5.9154,11.53003 4.09273,14.10962c-2.73891,3.87635 -8.44149,-1.47731 -8.44149,-1.47731c0,0 0.74777,8.52385 -3.62722,9.81237c-4.34625,1.28004 -8.56787,-5.08439 -8.56787,-5.08439c0,0 -2.10108,7.66398 -7.15265,5.96523c-4.34953,-1.46266 -2.73881,-12.53454 -2.73881,-12.53454c0,0 -6.41825,2.21831 -8.43016,-1.48223c-1.89243,-3.48078 4.07905,-9.00234 6.46303,-11.80212c0.55059,-0.64663 0.07318,-3.68021 -0.90298,-7.90456z" data-paper-data="{&quot;index&quot;:null}" fill="#ca8f6b" stroke-width="0"/><path d="M310.11255,209.87345c-0.14011,-5.1338 0.68499,-8.24964 3.86319,-9.0039c2.84166,-0.67439 4.99033,0.41187 7.70968,4.92035c5.55384,9.20785 15.19275,39.17893 17.24298,41.55662c2.05613,2.38452 5.16797,3.98566 8.91181,8.68022c3.94715,4.94951 5.9154,11.53003 4.09273,14.10962c-2.73891,3.87635 -8.44149,-1.47731 -8.44149,-1.47731c0,0 0.74777,8.52385 -3.62722,9.81237c-4.34625,1.28004 -8.56787,-5.08439 -8.56787,-5.08439c0,0 -2.10108,7.66398 -7.15265,5.96523c-4.34953,-1.46266 -2.73881,-12.53454 -2.73881,-12.53454c0,0 -6.41825,2.21831 -8.43016,-1.48223c-1.89243,-3.48078 4.07905,-9.00234 6.46303,-11.80212c1.95787,-2.29934 -9.0829,-34.78046 -9.32523,-43.65991z" data-paper-data="{&quot;index&quot;:null}" fill="none" stroke-width="2.5"/></g><g data-paper-data="{&quot;index&quot;:null}" stroke="#000000" stroke-linecap="butt"><path d="M234.03148,126.62766c0,0 -5.6277,-4.67457 -8.77886,-6.90552c-3.67581,-2.60238 -11.94541,-7.76677 -11.94541,-7.76677c0,0 14.68474,-6.13822 22.43514,-8.46706c8.33551,-2.50465 25.95045,-6.07184 25.95045,-6.07184z" fill="#f5af82" stroke-width="2.5"/><path d="M236.41978,123.96099c0,0 -5.29349,-4.57173 -6.57771,-5.48092c-1.49803,-1.06056 -4.8682,-3.16524 -4.8682,-3.16524c0,0 5.98459,-2.50155 9.14316,-3.45064c3.39703,-1.02074 10.57577,-2.4745 10.57577,-2.4745z" fill="#ca8f6b" stroke-width="0"/></g><g data-paper-data="{&quot;index&quot;:null}" stroke="#000000" stroke-linecap="butt"><path d="M308.30721,96.41647c0,0 17.61494,3.56719 25.95045,6.07184c7.7504,2.32884 22.43514,8.46706 22.43514,8.46706c0,0 -8.2696,5.16439 -11.94541,7.76677c-3.15116,2.23095 -8.77886,6.90552 -8.77886,6.90552z" fill="#f5af82" stroke-width="2.5"/><path d="M325.30721,108.38968c0,0 7.17874,1.45376 10.57577,2.4745c3.15857,0.94909 9.14315,3.45064 9.14315,3.45064c0,0 -3.37017,2.10468 -4.8682,3.16525c-1.28421,0.90919 -6.57771,5.48092 -6.57771,5.48092z" fill="#ca8f6b" stroke-width="0"/></g><g data-paper-data="{&quot;index&quot;:null}" stroke="#000000" stroke-linecap="butt"><path d="M269.11273,358.09306c-7.01249,-0.53553 -14.13424,-1.86253 -14.83966,-2.72674c-0.64363,-0.78853 -0.79476,-2.14727 -0.39524,-12.26185c0.51079,-12.9314 1.73706,-35.99757 2.00298,-45.62665c0.37562,-13.60159 1.30086,-36.57334 1.30086,-36.57334h27.63161c0,0 1.52555,95.12026 0,96.43665c-1.24512,1.07441 -8.57977,1.29574 -15.70054,0.75193z" fill="#f5af82" stroke-width="0"/><path d="M256.67093,274.12233c0.2788,-7.45856 0.51076,-13.21785 0.51076,-13.21785h27.63161l0.2691,31.485c0,0 -9.71776,-1.38957 -15.2567,-4.46595c-5.53894,-3.07637 -13.31282,-9.52178 -13.31282,-9.52178c0,0 0.10657,-2.90236 0.15805,-4.27943z" fill="#e4a279" stroke-width="0"/><path d="M269.11273,358.09308c-7.01249,-0.53553 -14.13424,-1.86253 -14.83966,-2.72674c-0.64363,-0.78853 -0.79476,-2.14727 -0.39524,-12.26185c0.1806,-4.57204 1.38271,-31.54197 1.38271,-31.54197c0,0 4.95389,7.42845 7.36665,7.65217c2.55761,0.23715 7.56983,-6.26718 7.56983,-6.26718c0,0 3.96598,6.97152 6.44212,8.20345c2.70929,1.34793 9.17719,-0.43249 9.17719,-0.43249c0,0 -0.5582,36.2388 -1.00305,36.62266c-1.24512,1.07441 -8.57977,1.29574 -15.70054,0.75193z" fill="#ca8f6b" stroke-width="0"/><path d="M269.11273,358.09306c-7.01249,-0.53553 -14.13424,-1.86253 -14.83966,-2.72674c-0.64363,-0.78853 -0.79476,-2.14727 -0.39524,-12.26185c0.51079,-12.9314 1.73706,-35.99757 2.00298,-45.62665c0.37562,-13.60159 1.30086,-36.57334 1.30086,-36.57334h27.63161c0,0 1.52555,95.12026 0,96.43665c-1.24512,1.07441 -8.57977,1.29574 -15.70054,0.75193z" fill="none" stroke-width="2.5"/></g><g data-paper-data="{&quot;index&quot;:null}" stroke="#000000" stroke-linecap="butt"><path d="M249.42967,236.08724c0,-28.94338 16.75075,-55.69674 37.41386,-55.69674c20.6631,0 38.33037,27.70864 37.41386,56.63677c-0.917,28.94339 -16.75075,48.17651 -37.41386,48.17651c-20.6631,0 -37.41386,-20.17315 -37.41386,-49.11653z" fill="#e4a279" stroke-width="0"/><path d="M255.39017,227.84513c0,-7.1122 4.14651,-20.36892 4.14651,-20.36892c0,0 15.9004,7.06859 27.05968,7.22537c11.15928,0.15678 27.4412,-6.43391 27.4412,-6.43391c0,0 3.98377,13.3241 3.76498,20.37838c-0.76485,24.66028 -13.97148,41.04725 -31.20618,41.04725c-17.23469,0 -31.20618,-17.18789 -31.20618,-41.84817z" fill="#f5af82" stroke-width="0"/><path d="M249.42967,236.08724c0,-28.94338 16.75075,-55.69674 37.41386,-55.69674c20.6631,0 38.33037,27.70864 37.41386,56.63677c-0.917,28.94339 -16.75075,48.17651 -37.41386,48.17651c-20.6631,0 -37.41386,-20.17315 -37.41386,-49.11653z" fill="none" stroke-width="2.5"/></g><g data-paper-data="{&quot;index&quot;:null}" stroke-linecap="butt"><g stroke="#000000"><path d="M286.22229,91.90698c31.5392,0 57.10678,25.46236 57.10678,56.87178c0,6.81282 -1.20289,13.34585 -3.40868,19.39993c-7.96367,21.85732 -28.99986,37.47185 -53.6981,37.47185c-31.5392,0 -57.10678,-25.46236 -57.10678,-56.87178c0,-31.40942 25.56757,-56.87178 57.10678,-56.87178z" fill="#e4a279" stroke-width="0"/><path d="M286.43691,93.31702c28.80234,0 52.15124,22.20066 52.15124,49.58655c0,21.0417 -13.78398,39.02231 -33.23475,46.22383c-5.86451,2.1713 -12.24417,3.36272 -18.91649,3.36272c-28.80234,0 -52.15124,-22.20066 -52.15124,-49.58655c0,-27.3859 23.34891,-49.58655 52.15124,-49.58655z" fill="#f5af82" stroke-width="0"/><path d="M286.22229,91.90698c31.5392,0 57.10678,25.46236 57.10678,56.87178c0,31.40942 -25.56757,56.87178 -57.10678,56.87178c-31.5392,0 -57.10678,-25.46236 -57.10678,-56.87178c0,-31.40942 25.56757,-56.87178 57.10678,-56.87178z" fill="none" stroke-width="2.5"/></g><path d="M326.50049,158.27237c4.79489,2.78332 6.46282,9.79483 3.72543,15.66065c-2.7374,5.86582 -8.84352,8.36466 -13.63841,5.58134c-4.79489,-2.78332 -6.46283,-9.79483 -3.72544,-15.66065c2.7374,-5.86582 8.84353,-8.36466 13.63842,-5.58134z" fill="#ca8f6b" stroke="none" stroke-width="0"/><path d="M258.54867,164.32373c2.73739,5.86581 1.06946,12.87733 -3.72543,15.66065c-4.7949,2.78332 -10.90102,0.28448 -13.63841,-5.58134c-2.73739,-5.86581 -1.06946,-12.87733 3.72543,-15.66065c4.7949,-2.78332 10.90102,-0.28448 13.63841,5.58134z" data-paper-data="{&quot;index&quot;:null}" fill="#ca8f6b" stroke="none" stroke-width="0"/></g><path d="M264.97652,118.23305c12.39136,2.61307 20.13708,16.35763 17.30055,30.69932c-2.83653,14.3417 -15.18117,23.84962 -27.57253,21.23655c-12.39136,-2.61307 -20.13708,-16.35763 -17.30055,-30.69932c2.83653,-14.3417 15.18117,-23.84962 27.57253,-21.23655z" data-paper-data="{&quot;index&quot;:null}" fill="#ca8f6b" stroke="none" stroke-width="0" stroke-linecap="butt"/><path d="M306.70453,124.75324c9.76616,-2.10926 19.62415,5.16775 22.01844,16.25366c2.39428,11.08591 -3.5818,21.7827 -13.34795,23.89196c-9.76616,2.10926 -19.62415,-5.16775 -22.01844,-16.25366c-2.39428,-11.08591 3.5818,-21.7827 13.34795,-23.89196z" data-paper-data="{&quot;index&quot;:null}" fill="#ffffff" stroke="#000000" stroke-width="2.5" stroke-linecap="butt"/><g data-paper-data="{&quot;index&quot;:null}" stroke="none" stroke-linecap="butt"><g><path d="M308.65846,152.97698c-4.49942,0 -8.14692,-3.6475 -8.14692,-8.14692c0,-4.49942 3.6475,-8.14692 8.14692,-8.14692c4.49942,0 8.14692,3.6475 8.14692,8.14692c0,4.49942 -3.6475,8.14692 -8.14692,8.14692z" fill="url(#color-1)" stroke-width="0.5"/><path d="M307.35125,152.8391c0,0 -0.95745,-0.19122 -1.63245,-0.39748c-0.68959,-0.21072 -1.53736,-0.84304 -1.53736,-0.84304l2.06359,-3.34008l1.86631,0.62826l-0.76008,3.95233z" fill="#bd6935" stroke-width="0"/><path d="M303.06922,150.73673c0,0 -0.45738,-0.42406 -0.7274,-0.76753c-0.27002,-0.34346 -0.61265,-0.93699 -0.61265,-0.93699l2.92406,-2.18928l1.01419,0.95403l-2.59818,2.93979z" fill="#bd6935" stroke-width="0"/></g><path d="M308.65845,149.55528c-2.60967,0 -4.72522,-2.11556 -4.72522,-4.72522c0,-2.60967 2.11556,-4.72522 4.72522,-4.72522c2.60967,0 4.72522,2.11556 4.72522,4.72522c0,2.60967 -2.11556,4.72522 -4.72522,4.72522z" fill="#000000" stroke-width="0.5"/><path d="M309.3484,139.14736c1.02395,-1.0461 2.8311,-0.93774 4.03639,0.24203c1.20528,1.17976 1.3523,2.98419 0.32834,4.03028c-1.02395,1.0461 -2.8311,0.93774 -4.03639,-0.24203c-1.20528,-1.17976 -1.3523,-2.98419 -0.32834,-4.03028z" fill="#ffffff" stroke-width="0"/><path d="M314.10584,144.18938c0.27358,0.18262 0.29908,0.59518 0.05697,0.92145c-0.24211,0.32628 -0.66015,0.44273 -0.93373,0.2601c-0.27358,-0.18262 -0.29908,-0.59518 -0.05697,-0.92145c0.24211,-0.32628 0.66015,-0.44273 0.93373,-0.2601z" fill="#ffffff" stroke-width="0"/></g><path d="M278.66641,148.48853c-2.39429,11.0859 -12.25228,18.36292 -22.01844,16.25366c-9.76616,-2.10926 -15.74223,-12.80605 -13.34795,-23.89196c2.39429,-11.0859 12.25228,-18.36292 22.01844,-16.25366c9.76616,2.10926 15.74223,12.80605 13.34795,23.89196z" data-paper-data="{&quot;index&quot;:null}" fill="#ffffff" stroke="#000000" stroke-width="2.5" stroke-linecap="butt"/><g data-paper-data="{&quot;index&quot;:null}" stroke="none" stroke-linecap="butt"><g><path d="M263.38037,152.66363c-4.49942,0 -8.14692,-3.64749 -8.14692,-8.14691c0,-4.49942 3.6475,-8.14692 8.14692,-8.14692c4.49942,0 8.14692,3.6475 8.14692,8.14692c0,4.49941 -3.6475,8.14691 -8.14692,8.14691z" fill="url(#color-2)" stroke-width="0.5"/><path d="M262.07318,152.52575c0,0 -0.95746,-0.19121 -1.63245,-0.39747c-0.6896,-0.21072 -1.53737,-0.84304 -1.53737,-0.84304l2.06359,-3.34008l1.86631,0.62826l-0.76009,3.95234z" fill="#bd6935" stroke-width="0"/><path d="M257.79118,150.4234c0,0 -0.45737,-0.42406 -0.7274,-0.76753c-0.27003,-0.34346 -0.61266,-0.93699 -0.61266,-0.93699l2.92406,-2.18928l1.01419,0.95402l-2.59819,2.93979z" fill="#bd6935" stroke-width="0"/></g><path d="M263.38036,149.24193c-2.60966,0 -4.72521,-2.11555 -4.72521,-4.72521c0,-2.60967 2.11555,-4.72522 4.72521,-4.72522c2.60967,0 4.72522,2.11556 4.72522,4.72522c0,2.60966 -2.11556,4.72521 -4.72522,4.72521z" fill="#000000" stroke-width="0.5"/><path d="M264.07031,138.83402c1.02394,-1.0461 2.83109,-0.93774 4.03638,0.24203c1.20528,1.17976 1.3523,2.98418 0.32834,4.03028c-1.02394,1.0461 -2.83109,0.93774 -4.03638,-0.24203c-1.20528,-1.17976 -1.35229,-2.98418 -0.32834,-4.03028z" fill="#ffffff" stroke-width="0"/><path d="M268.82775,143.87604c0.27357,0.18262 0.29907,0.59518 0.05697,0.92145c-0.2421,0.32628 -0.66015,0.44273 -0.93372,0.2601c-0.27357,-0.18262 -0.29908,-0.59518 -0.05697,-0.92145c0.2421,-0.32628 0.66015,-0.44273 0.93372,-0.2601z" fill="#ffffff" stroke-width="0"/></g><path d="M304.92012,111.48185c0.27622,-0.8539 2.10044,-1.2357 4.07451,-0.85279c1.97407,0.38291 5.87355,1.87496 5.59733,2.72885c-0.27622,0.8539 -4.62353,0.74629 -6.5976,0.36338c-1.97407,-0.38291 -3.35045,-1.38555 -3.07423,-2.23944z" data-paper-data="{&quot;index&quot;:null}" fill="#000000" stroke="none" stroke-width="0" stroke-linecap="butt"/><path d="M263.808,110.31572c1.97407,-0.38292 3.7983,-0.0011 4.07452,0.85279c0.27622,0.85389 -1.10016,1.85652 -3.07423,2.23944c-1.97408,0.38291 -6.32139,0.49051 -6.59761,-0.36338c-0.27622,-0.85391 3.62325,-2.34594 5.59732,-2.72886z" data-paper-data="{&quot;index&quot;:null}" fill="#000000" stroke="none" stroke-width="0" stroke-linecap="butt"/><path d="M297.36193,176.7977c0,0 -2.9884,2.10605 -5.40315,2.36024c-2.41475,0.25419 -6.25389,-1.10686 -6.25389,-1.10686c0,0 -3.42228,1.52468 -5.8701,1.24493c-2.44782,-0.27975 -5.3469,-2.49831 -5.3469,-2.49831" data-paper-data="{&quot;index&quot;:null}" fill="none" stroke="#000000" stroke-width="2.5" stroke-linecap="round"/><path d="M311.98909,219.43225c-2.40622,0.72187 -6.97366,1.3421 -6.97366,1.3421c0,0 5.40138,-3.22461 7.76539,-4.96416c1.98674,-1.46193 5.48461,-4.78584 5.48461,-4.78584c0,0 0.96168,2.13505 1.27371,3.07113c0.26282,0.78846 0.47629,2.17887 0.47629,2.17887c0,0 -5.44489,2.38346 -8.02634,3.1579z" data-paper-data="{&quot;index&quot;:null}" fill="#ca8f6b" stroke="none" stroke-width="0" stroke-linecap="butt"/><path d="M253.51543,216.02435c0,0 0.21348,-1.39042 0.4763,-2.17888c0.31202,-0.93608 1.2737,-3.07112 1.2737,-3.07112c0,0 3.49787,3.3239 5.48461,4.78584c2.364,1.73956 7.76539,4.96416 7.76539,4.96416c0,0 -4.56744,-0.62023 -6.97366,-1.3421c-2.58145,-0.77444 -8.02634,-3.1579 -8.02634,-3.1579z" data-paper-data="{&quot;index&quot;:null}" fill="#ca8f6b" stroke="none" stroke-width="0" stroke-linecap="butt"/><path d="M318.52598,233.19682c-1.58137,-0.21369 -4.87715,-1.15907 -4.87715,-1.15907c0,0 3.38678,-2.06575 4.86144,-3.18291c1.23116,-0.9327 3.38856,-3.06709 3.38856,-3.06709c0,0 0.51641,1.99805 0.66703,3.12773c0.17809,1.33566 0.33297,4.37227 0.33297,4.37227c0,0 -2.87547,0.11142 -4.37285,-0.09093z" data-paper-data="{&quot;index&quot;:null}" fill="#ca8f6b" stroke="none" stroke-width="0" stroke-linecap="butt"/><path d="M250.89882,232.78775c0,0 0.15488,-3.03661 0.33297,-4.37227c0.15062,-1.12968 0.66703,-3.12773 0.66703,-3.12773c0,0 2.15739,2.13439 3.38856,3.06709c1.47466,1.11717 4.86144,3.18291 4.86144,3.18291c0,0 -3.29578,0.94538 -4.87715,1.15908c-1.49738,0.20234 -4.37285,0.09092 -4.37285,0.09092z" data-paper-data="{&quot;index&quot;:null}" fill="#ca8f6b" stroke="none" stroke-width="0" stroke-linecap="butt"/><path d="" data-paper-data="{&quot;index&quot;:null}" fill="#ca8f6b" stroke="#000000" stroke-width="0" stroke-linecap="butt"/><g data-paper-data="{&quot;index&quot;:null}" stroke="none" stroke-linecap="butt"><g fill="#996d51" stroke-width="0.5"><path d="M323.60128,167.41595c-0.69389,-0.25023 -1.0944,-0.9753 -0.89456,-1.61951c0.19983,-0.64421 0.92434,-0.96359 1.61823,-0.71337c0.69389,0.25023 1.0944,0.9753 0.89456,1.61951c-0.19983,0.64421 -0.92434,0.96359 -1.61823,0.71337z"/><path d="M325.70713,173.15552c-0.69389,-0.25023 -1.0944,-0.9753 -0.89456,-1.61951c0.19983,-0.64421 0.92434,-0.96359 1.61823,-0.71337c0.69389,0.25023 1.0944,0.9753 0.89456,1.61951c-0.19983,0.64421 -0.92434,0.96359 -1.61823,0.71337z"/><path d="M318.92004,170.77719c-0.69389,-0.25023 -1.0944,-0.9753 -0.89456,-1.61951c0.19983,-0.64421 0.92434,-0.96359 1.61823,-0.71337c0.69389,0.25023 1.0944,0.9753 0.89456,1.61951c-0.19983,0.64421 -0.92434,0.96359 -1.61823,0.71337z"/></g><path d="M333.67503,165.18955c-3.1838,0.22565 -9.10068,1.45644 -9.7019,1.23655c-0.67618,-0.24731 6.14548,-2.53985 9.77429,-2.79703c3.62881,-0.25718 8.97867,1.46795 8.97867,1.46795c0,0 -5.98859,-0.12452 -9.05106,0.09253z" fill="#000000" stroke-width="0"/><path d="M342.10339,180.78833c0,0 -5.02094,-3.26633 -7.73672,-4.69823c-2.82339,-1.48864 -8.4987,-3.56593 -8.89332,-4.07001c-0.44382,-0.56693 6.56035,1.08604 9.77836,2.78275c3.21801,1.69671 6.85167,5.98549 6.85167,5.98549z" fill="#000000" stroke-width="0"/><path d="M337.83893,171.61931c0,0 -5.87663,-1.15927 -8.93044,-1.47562c-3.1748,-0.32888 -9.21542,-0.14089 -9.7695,-0.46154c-0.62316,-0.36063 6.49236,-1.43771 10.11091,-1.06286c3.61855,0.37485 8.58902,3.00002 8.58902,3.00002z" fill="#000000" stroke-width="0"/></g><g data-paper-data="{&quot;index&quot;:null}" stroke="none" stroke-linecap="butt"><g fill="#996d51" stroke-width="0.5"><path d="M249.09891,167.91594c-0.69389,0.25023 -1.41839,-0.06916 -1.61823,-0.71336c-0.19983,-0.6442 0.20067,-1.36928 0.89456,-1.61951c0.69389,-0.25022 1.41839,0.06917 1.61823,0.71337c0.19983,0.64421 -0.20067,1.36928 -0.89456,1.61951z"/><path d="M246.99305,173.65553c-0.69389,0.25022 -1.41839,-0.06917 -1.61823,-0.71337c-0.19984,-0.64421 0.20066,-1.36928 0.89455,-1.61951c0.69389,-0.25023 1.4184,0.06916 1.61824,0.71336c0.19983,0.6442 -0.20067,1.36928 -0.89456,1.61951z"/><path d="M253.78013,171.27718c-0.69389,0.25022 -1.4184,-0.06917 -1.61824,-0.71337c-0.19984,-0.64421 0.20067,-1.36928 0.89456,-1.61951c0.69389,-0.25022 1.41839,0.06917 1.61823,0.71337c0.19983,0.64421 -0.20067,1.36928 -0.89456,1.61951z"/></g><path d="M239.02513,165.68955c-3.06247,-0.21705 -9.05105,-0.09253 -9.05105,-0.09253c0,0 5.34986,-1.72513 8.97867,-1.46795c3.62881,0.25718 10.45047,2.54972 9.77429,2.79703c-0.60122,0.2199 -6.5181,-1.01091 -9.7019,-1.23655z" fill="#000000" stroke-width="0"/><path d="M238.3335,176.59011c-2.71578,1.4319 -7.73672,4.69822 -7.73672,4.69822c0,0 3.63366,-4.28877 6.85167,-5.98548c3.21802,-1.69671 10.22219,-3.34968 9.77837,-2.78275c-0.39462,0.50408 -6.06993,2.58138 -8.89331,4.07001z" fill="#000000" stroke-width="0"/><path d="M243.7917,170.64369c-3.05381,0.31635 -8.93044,1.47562 -8.93044,1.47562c0,0 4.97047,-2.62517 8.58902,-3.00002c3.61855,-0.37485 10.73407,0.70224 10.11091,1.06286c-0.55408,0.32065 -6.5947,0.13266 -9.7695,0.46154z" fill="#000000" stroke-width="0"/></g><path d="M286.11647,158.94867c2.18082,0 3.94872,0.56251 3.94872,1.25641c0,0.6278 -3.94872,3.41026 -3.94872,3.41026c0,0 -3.94872,-2.71636 -3.94872,-3.41026c0,-0.6939 1.7679,-1.25641 3.94872,-1.25641z" data-paper-data="{&quot;index&quot;:null}" fill="#996d51" stroke="none" stroke-width="0" stroke-linecap="butt"/><path d="M293.36206,156.90138c0,0 -3.24594,-1.16896 -7.25,-1.16896c-4.00406,0 -7.25,1.16896 -7.25,1.16896c0,0 3.24594,-2.875 7.25,-2.875c4.00406,0 7.25,2.875 7.25,2.875z" data-paper-data="{&quot;index&quot;:null}" fill="#e4a279" stroke="none" stroke-width="0" stroke-linecap="butt"/><path d="M291.26033,93.67296c0,0 -1.62495,5.08039 -2.36652,7.99721c-0.89579,3.52343 -2.63348,11.66945 -2.63348,11.66945c0,0 -1.81117,-8.43506 -2.71443,-11.98786c-0.72291,-2.84346 -2.28557,-7.67881 -2.28557,-7.67881c0,0 3.61488,-0.33333 5.33333,-0.33333c1.60747,0 4.66667,0.33333 4.66667,0.33333z" data-paper-data="{&quot;index&quot;:null}" fill="#ca8f6b" stroke="none" stroke-width="0" stroke-linecap="butt"/><path d="M274.27134,357.35473l-0.12804,-5.67501" data-paper-data="{&quot;index&quot;:null}" fill="none" stroke="#000000" stroke-width="2.5" stroke-linecap="round"/><path d="M262.37397,356.35056l0.33334,-5.66667" data-paper-data="{&quot;index&quot;:null}" fill="none" stroke="#000000" stroke-width="2.5" stroke-linecap="round"/></g></g></svg>