<svg version="1.1" xmlns="http://www.w3.org/2000/svg" xmlns:xlink="http://www.w3.org/1999/xlink" width="160.93287" height="270.65692" viewBox="0,0,160.93287,270.65692"><defs><linearGradient x1="222.8965" y1="107.6423" x2="222.8965" y2="123.93615" gradientUnits="userSpaceOnUse" id="color-1"><stop offset="0" stop-color="#91b35f"/><stop offset="1" stop-color="#5e8c3f"/></linearGradient><linearGradient x1="268.8154" y1="116.94114" x2="268.8154" y2="133.23497" gradientUnits="userSpaceOnUse" id="color-2"><stop offset="0" stop-color="#91b35f"/><stop offset="1" stop-color="#5e8c3f"/></linearGradient><linearGradient x1="245.49682" y1="54.9437" x2="245.49682" y2="92.61037" gradientUnits="userSpaceOnUse" id="color-3"><stop offset="0" stop-color="#3ab132" stop-opacity="0"/><stop offset="1" stop-color="#3ab132"/></linearGradient></defs><g transform="translate(-151.42844,-47.569)"><g data-paper-data="{&quot;isPaintingLayer&quot;:true}" fill-rule="nonzero" stroke-linejoin="miter" stroke-miterlimit="10" stroke-dasharray="" stroke-dashoffset="0" style="mix-blend-mode: normal"><path d="M267.21143,167.3239c-0.14011,-5.1338 0.68499,-8.24964 3.86319,-9.0039c2.84166,-0.67439 4.99033,0.41185 7.70968,4.92034c5.55384,9.20785 15.19275,39.17893 17.24298,41.55662c2.05613,2.38453 5.16798,3.98565 8.91181,8.68022c1.11461,1.39766 1.92481,3.13271 3.00873,4.96123c1.15315,1.94531 2.56337,3.99642 3.1635,5.85963c0.8334,2.58746 0.68092,4.81256 -0.07949,5.88876c-1.06103,1.50167 -2.86698,1.62796 -4.68145,0.72907c-1.18488,-0.58699 -1.97339,-1.50878 -2.96049,-2.38878c-1.40331,-1.25105 -2.79955,-2.41761 -2.79955,-2.41761c0,0 -0.03469,2.16415 -0.03021,4.72163c0.00284,1.62223 0.26049,3.40269 -0.21235,4.88948c-0.50187,1.57809 -1.7082,2.82531 -2.98466,3.20125c-1.40845,0.41481 -3.24581,-0.28821 -4.54545,-1.42813c-0.97206,-0.85261 -1.41564,-1.94963 -2.09789,-3.00616c-1.22036,-1.88984 -2.32453,-3.6501 -2.32453,-3.6501c0,0 -0.88701,1.92274 -1.83419,4.0053c-0.56668,1.24595 -0.82009,2.9491 -1.62335,3.93192c-1.01605,1.2432 -2.67184,1.57388 -4.29511,1.02801c-0.96333,-0.32395 -2.33746,-1.26642 -2.67301,-2.53754c-0.48191,-1.82552 0.32826,-4.3289 0.38433,-6.6515c0.08118,-3.36215 0.14987,-6.34549 0.14987,-6.34549c0,0 -1.75222,0.07083 -3.98674,0.64278c-1.19366,0.30553 -2.52494,1.18284 -3.80027,1.31461c-2.32398,0.2401 -4.46216,-0.00311 -5.24316,-1.43962c-0.7288,-1.3405 0.39095,-3.28029 2.17971,-5.31889c1.24152,-1.41493 2.80533,-2.27746 4.29702,-3.62024c1.9398,-1.74615 3.75765,-3.88981 4.5863,-4.86299c1.95786,-2.29934 -9.0829,-34.78046 -9.32523,-43.65991z" data-paper-data="{&quot;index&quot;:null}" fill="#40c237" stroke="#000000" stroke-width="2.5" stroke-linecap="butt"/><g data-paper-data="{&quot;index&quot;:null}" stroke="#000000" stroke-linecap="butt"><path d="M262.44221,316.87681c-7.12077,0.54381 -14.45542,0.32247 -15.70054,-0.75193c-1.52555,-1.31639 0,-96.43664 0,-96.43664h27.63161c0,0 0.92525,22.97176 1.30086,36.57334c0.26592,9.62908 1.49219,32.69525 2.00297,45.62665c0.39952,10.11458 0.2484,11.47332 -0.39524,12.26185c-0.70542,0.86421 -7.82717,2.19121 -14.83966,2.72674z" fill="#40c237" stroke-width="0"/><path d="M274.88401,232.90607c0.05147,1.37707 0.15805,4.27943 0.15805,4.27943c0,0 -7.77388,6.44541 -13.31281,9.52178c-5.53894,3.07638 -15.2567,4.46595 -15.2567,4.46595l0.2691,-31.485h27.63161c0,0 0.23196,5.75929 0.51076,13.21785z" fill="#3ab132" stroke-width="0"/><path d="M262.44221,316.87681c-7.12077,0.54381 -14.45542,0.32247 -15.70054,-0.75193c-0.44485,-0.38386 -0.66972,-27.28933 -0.66972,-27.28933c0,0 7.80055,10.09692 16.95264,7.89571c9.93315,-2.38905 13.60314,-20.71832 13.60314,-20.71832c0,0 0.86879,21.30325 1.04939,25.87529c0.39952,10.11458 0.2484,11.47332 -0.39524,12.26185c-0.70542,0.86421 -7.82717,2.19121 -14.83966,2.72674z" fill="#3ab132" stroke-width="0"/><path d="M262.44221,316.87681c-7.12077,0.54381 -14.45542,0.32247 -15.70054,-0.75193c-1.52555,-1.31639 0,-96.43664 0,-96.43664h27.63161c0,0 0.92525,22.97176 1.30086,36.57334c0.26592,9.62908 1.49219,32.69525 2.00297,45.62665c0.39952,10.11458 0.2484,11.47332 -0.39524,12.26185c-0.70542,0.86421 -7.82717,2.19121 -14.83966,2.72674z" fill="none" stroke-width="2.5"/></g><g stroke="#000000" stroke-linecap="butt"><path d="M213.15144,313.83672c-0.64364,-0.78852 -0.79476,-2.14726 -0.39524,-12.26184c0.51078,-12.9314 1.73706,-35.99757 2.00298,-45.62665c0.37562,-13.60158 1.30086,-36.57334 1.30086,-36.57334h27.63161c0,0 1.52555,95.12026 0,96.43665c-1.24511,1.07441 -8.57977,1.29573 -15.70054,0.75192c-7.01249,-0.53553 -14.13425,-1.86253 -14.83966,-2.72674z" fill="#40c237" stroke-width="0"/><path d="M216.06004,219.37488h27.63161l0.2691,31.485c0,0 -9.71777,-1.38957 -15.2567,-4.46595c-5.53894,-3.07638 -13.31282,-9.52178 -13.31282,-9.52178c0,0 0.10657,-2.90235 0.15805,-4.27943c0.2788,-7.45856 0.51076,-13.21785 0.51076,-13.21785z" fill="#3ab132" stroke-width="0"/><path d="M213.15144,313.83672c-0.64364,-0.78852 -0.79476,-2.14726 -0.39524,-12.26184c0.1806,-4.57204 1.04937,-25.87529 1.04937,-25.87529c0,0 3.66999,18.32927 13.60314,20.71832c9.15208,2.2012 16.95264,-7.89571 16.95264,-7.89571c0,0 -0.22487,26.90548 -0.66972,27.28934c-1.24511,1.07441 -8.57977,1.29574 -15.70054,0.75193c-7.01249,-0.53553 -14.13425,-1.86253 -14.83966,-2.72674z" fill="#3ab132" stroke-width="0"/><path d="M213.15144,313.83672c-0.64364,-0.78852 -0.79476,-2.14726 -0.39524,-12.26184c0.51078,-12.9314 1.73706,-35.99757 2.00298,-45.62665c0.37562,-13.60158 1.30086,-36.57334 1.30086,-36.57334h27.63161c0,0 1.52555,95.12026 0,96.43665c-1.24511,1.07441 -8.57977,1.29573 -15.70054,0.75192c-7.01249,-0.53553 -14.13425,-1.86253 -14.83966,-2.72674z" fill="none" stroke-width="2.5"/></g><g stroke-linecap="butt"><g stroke="#000000"><path d="M282.12529,194.87101c0,28.94338 -16.75076,49.11653 -37.41387,49.11653c-20.66311,0 -36.49686,-19.23312 -37.41387,-48.1765c-0.91651,-28.92812 16.75076,-56.63677 37.41387,-56.63677c20.66311,0 37.41387,26.75336 37.41387,55.69674z" fill="#3ab132" stroke-width="0"/><path d="M276.16479,186.62889c0,24.66028 -13.97149,41.84817 -31.20618,41.84817c-17.23469,0 -30.44133,-16.38697 -31.20619,-41.04725c-0.21879,-7.05428 3.76498,-20.37838 3.76498,-20.37838c0,0 16.28192,6.59069 27.44119,6.43391c11.15928,-0.15678 27.05968,-7.22537 27.05968,-7.22537c0,0 4.14651,13.25672 4.14651,20.36892z" fill="#40c237" stroke-width="0"/><path d="M282.12529,194.87101c0,28.94338 -16.75076,49.11653 -37.41387,49.11653c-20.66311,0 -36.49686,-19.23312 -37.41387,-48.1765c-0.91651,-28.92812 16.75076,-56.63677 37.41387,-56.63677c20.66311,0 37.41387,26.75336 37.41387,55.69674z" fill="none" stroke-width="2.5"/></g><path d="M265.29582,201.91536c0,13.53098 -9.17816,24.5 -20.5,24.5c-11.32184,0 -20.5,-10.96902 -20.5,-24.5c0,-13.53098 9.17816,-24.5 20.5,-24.5c11.32184,0 20.5,10.96902 20.5,24.5z" fill="#6ed267" stroke="none" stroke-width="0"/></g><g stroke-linecap="butt"><g stroke="#000000"><path d="M302.43944,107.56251c0,31.40942 -25.56758,56.87178 -57.10679,56.87178c-31.53921,0 -57.10678,-25.46236 -57.10678,-56.87178c0,-25.13857 15.37762,-45.30635 38.08652,-52.22419c5.66477,-1.72566 12.72351,-2.31425 19.02027,-2.31425c8.28086,0 16.81672,0.59443 23.91956,3.51454c19.9497,8.20168 33.18723,27.86126 33.18723,51.02391z" fill="#3ab132" stroke-width="0"/><path d="M297.2693,101.68732c0,27.38589 -23.3489,49.58655 -52.15125,49.58655c-28.80233,0 -52.15124,-22.20066 -52.15124,-49.58655c0,-27.3859 23.3489,-47.25322 52.15124,-47.25322c28.80233,0 52.15125,19.86732 52.15125,47.25322z" fill="#40c237" stroke-width="0"/><path d="M302.43944,107.56251c0,31.40942 -25.56758,56.87178 -57.10679,56.87178c-31.53921,0 -57.10678,-25.46236 -57.10678,-56.87178c0,-28.77486 18.79168,-50.55847 46.64139,-54.34586c2.54986,-0.34677 7.81996,-0.19257 10.4654,-0.19257c3.41687,0 9.76365,-0.36782 13.01542,0.20507c26.76354,4.7151 44.09137,26.32676 44.09137,54.33338z" fill="none" stroke-width="2.5"/></g><path d="M218.69289,122.63747c2.73739,5.86582 1.06945,12.87733 -3.72544,15.66065c-4.79489,2.78332 -10.90101,0.28448 -13.63841,-5.58134c-2.73739,-5.86582 -1.06946,-12.87733 3.72543,-15.66065c4.79489,-2.78332 10.90102,-0.28448 13.63842,5.58134z" fill="#6ed267" stroke="none" stroke-width="0"/><path d="M286.64466,117.52614c4.79489,2.78332 6.46283,9.79485 3.72543,15.66066c-2.73739,5.86582 -8.84351,8.36466 -13.6384,5.58134c-4.79489,-2.78332 -6.46283,-9.79484 -3.72543,-15.66065c2.73739,-5.86582 8.84351,-8.36467 13.6384,-5.58134z" data-paper-data="{&quot;index&quot;:null}" fill="#6ed267" stroke="none" stroke-width="0"/></g><path d="M238.19838,107.42895c-2.39429,11.08591 -12.25227,18.36292 -22.01844,16.25366c-9.76615,-2.10925 -15.74223,-12.80605 -13.34795,-23.89195c2.39429,-11.0859 12.25227,-18.36292 22.01844,-16.25366c9.76615,2.10926 15.74223,12.80605 13.34795,23.89195z" fill="#ffffff" stroke="#000000" stroke-width="2.5" stroke-linecap="butt"/><g stroke="none" stroke-linecap="butt"><g><path d="M214.74958,115.78923c0,-4.49942 3.6475,-8.14693 8.14692,-8.14693c4.49942,0 8.14693,3.64751 8.14693,8.14693c0,4.49942 -3.64751,8.14692 -8.14693,8.14692c-4.49942,0 -8.14692,-3.6475 -8.14692,-8.14692z" fill="url(#color-1)" stroke-width="0.5"/><path d="M224.2037,123.79827l-0.76008,-3.95233l1.8663,-0.62826l2.06359,3.34009c0,0 -0.84777,0.63232 -1.53736,0.84304c-0.67499,0.20626 -1.63244,0.39748 -1.63244,0.39748z" fill="#578039" stroke-width="0"/><path d="M228.4857,121.69592l-2.59819,-2.93979l1.01418,-0.95403l2.92407,2.18928c0,0 -0.34263,0.59353 -0.61266,0.937c-0.27003,0.34347 -0.72741,0.76753 -0.72741,0.76753z" fill="#578039" stroke-width="0"/></g><path d="M218.17128,115.78923c0,-2.60967 2.11555,-4.05855 4.72522,-4.05855c2.60967,0 4.72522,1.44888 4.72522,4.05855c0,2.60967 -2.11555,4.05854 -4.72522,4.05854c-2.60967,0 -4.72522,-1.44887 -4.72522,-4.05854z" fill="#000000" stroke-width="0.5"/><path d="M221.87821,114.13681c-1.20529,1.17977 -3.01243,1.28813 -4.03639,0.24203c-1.02396,-1.04609 -0.87694,-2.85051 0.32834,-4.03028c1.20529,-1.17977 3.01244,-1.28813 4.03639,-0.24203c1.02396,1.04609 0.87694,2.85051 -0.32835,4.03028z" fill="#ffffff" stroke-width="0"/><path d="M218.38285,115.40865c0.24212,0.32627 0.21661,0.73883 -0.05696,0.92146c-0.27357,0.18263 -0.69161,0.06617 -0.93373,-0.2601c-0.24212,-0.32627 -0.21661,-0.73882 0.05696,-0.92145c0.27357,-0.18263 0.69161,-0.06618 0.93373,0.2601z" fill="#ffffff" stroke-width="0"/></g><path d="M266.2365,83.38032c9.76617,-2.10926 19.62415,5.16776 22.01844,16.25366c2.39429,11.0859 -3.58179,21.7827 -13.34795,23.89195c-9.76617,2.10925 -19.62415,-5.16776 -22.01844,-16.25366c-2.39428,-11.0859 3.58179,-21.7827 13.34795,-23.89195z" data-paper-data="{&quot;index&quot;:null}" fill="#ffffff" stroke="#000000" stroke-width="2.5" stroke-linecap="butt"/><g stroke="none" stroke-linecap="butt"><g><path d="M260.66848,125.08806c0,-4.49942 3.64751,-8.14692 8.14693,-8.14692c4.49942,0 8.14692,3.6475 8.14692,8.14692c0,4.49942 -3.6475,8.14691 -8.14692,8.14691c-4.49942,0 -8.14693,-3.6475 -8.14693,-8.14691z" fill="url(#color-2)" stroke-width="0.5"/><path d="M270.1226,133.0971l-0.76009,-3.95235l1.86631,-0.62826l2.06359,3.34009c0,0 -0.84778,0.63232 -1.53737,0.84304c-0.67499,0.20626 -1.63245,0.39748 -1.63245,0.39748z" fill="#578039" stroke-width="0"/><path d="M274.40458,130.99475l-2.59819,-2.93979l1.01418,-0.95401l2.92406,2.18928c0,0 -0.34262,0.59352 -0.61266,0.93699c-0.27004,0.34347 -0.7274,0.76753 -0.7274,0.76753z" fill="#578039" stroke-width="0"/></g><path d="M264.09019,125.08806c0,-2.60967 2.11556,-4.05855 4.72522,-4.05855c2.60967,0 4.7252,1.44888 4.7252,4.05855c0,2.60967 -2.11555,4.05854 -4.7252,4.05854c-2.60967,0 -4.72522,-1.44887 -4.72522,-4.05854z" fill="#000000" stroke-width="0.5"/><path d="M267.79712,123.43564c-1.20529,1.17977 -3.01243,1.28813 -4.03638,0.24203c-1.02396,-1.0461 -0.87694,-2.85052 0.32834,-4.03028c1.20529,-1.17977 3.01244,-1.28813 4.03638,-0.24203c1.02395,1.0461 0.87694,2.85052 -0.32835,4.03028z" fill="#ffffff" stroke-width="0"/><path d="M264.30174,124.70748c0.24212,0.32627 0.2166,0.73882 -0.05697,0.92145c-0.27357,0.18263 -0.69162,0.06618 -0.93372,-0.2601c-0.2421,-0.32627 -0.2166,-0.73882 0.05696,-0.92145c0.27357,-0.18263 0.69162,-0.06618 0.93372,0.2601z" fill="#ffffff" stroke-width="0"/></g><path d="M226.63483,70.2656c0.27622,0.85389 -1.10016,1.85653 -3.07423,2.23944c-1.97407,0.38291 -6.32138,0.49052 -6.5976,-0.36337c-0.27622,-0.85389 3.62326,-2.34594 5.59733,-2.72885c1.97407,-0.38291 3.79829,-0.00111 4.07451,0.85278z" fill="#000000" stroke="none" stroke-width="0" stroke-linecap="butt"/><path d="M267.74695,69.09948c1.97407,0.38292 5.87354,1.87495 5.59732,2.72885c-0.27622,0.85389 -4.62354,0.74629 -6.5976,0.36338c-1.97407,-0.38292 -3.35046,-1.38555 -3.07423,-2.23944c0.27622,-0.85389 2.10045,-1.2357 4.07452,-0.85278z" data-paper-data="{&quot;index&quot;:null}" fill="#000000" stroke="none" stroke-width="0" stroke-linecap="butt"/><path d="M263.73373,135.76623c0,0 -12.43588,1.42202 -17.73709,1.42202c-5.30122,0 -18.80362,-1.42202 -18.80362,-1.42202" fill="none" stroke="#000000" stroke-width="2.5" stroke-linecap="round"/><path d="M225.56105,131.9791c0,0 2.07477,2.39041 1.8639,3.79625c-0.21087,1.40583 -2.8639,2.87042 -2.8639,2.87042" fill="#40c237" stroke="#000000" stroke-width="2.5" stroke-linecap="round"/><path d="M265.60666,138.81243c0,0 -2.65302,-1.46458 -2.86389,-2.87042c-0.21087,-1.40583 1.86389,-3.79625 1.86389,-3.79625" data-paper-data="{&quot;index&quot;:null}" fill="#40c237" stroke="#000000" stroke-width="2.5" stroke-linecap="round"/><path d="M240.30487,120.0499c0.62034,0.42535 1.70191,1.59348 1.45652,1.95137c-0.24539,0.35789 -1.72483,-0.22999 -2.34517,-0.65534c-0.62034,-0.42535 -0.92429,-1.06029 -0.6789,-1.41818c0.24539,-0.35789 0.94721,-0.3032 1.56755,0.12215z" fill="#000000" stroke="none" stroke-width="0" stroke-linecap="butt"/><path d="M251.54531,120.09442c0.2454,0.35789 -0.05856,0.99282 -0.6789,1.41817c-0.62034,0.42535 -2.09978,1.01323 -2.34517,0.65534c-0.2454,-0.35789 0.83618,-1.52602 1.45652,-1.95137c0.62034,-0.42535 1.32216,-0.48003 1.56755,-0.12214z" data-paper-data="{&quot;index&quot;:null}" fill="#000000" stroke="none" stroke-width="0" stroke-linecap="butt"/><path d="M253.45277,117.56523c0,0 -3.58172,-3.11667 -8,-3.11667c-4.41828,0 -8,3.11667 -8,3.11667c0,0 3.58172,-6.05 8,-6.05c4.41828,0 8,6.05 8,6.05z" fill="#3ab132" stroke="none" stroke-width="0" stroke-linecap="butt"/><path d="M226.16349,56.73735c0,0 12.08918,-1.79365 19.66667,-1.79365c7.57748,0 19,1.79365 19,1.79365c0,0 -5.00464,9.84092 -9.54645,19.21416c-4.12971,8.52276 -7.76127,16.65885 -9.12022,16.65885c-1.20414,0 -4.52304,-6.88072 -8.62277,-14.61522c-5.26127,-9.92585 -11.37723,-21.25779 -11.37723,-21.25779z" fill="url(#color-3)" stroke="none" stroke-width="0" stroke-linecap="butt"/><g fill="none" stroke="#000000" stroke-width="2.5" stroke-linecap="round"><g><path d="M232.03952,316.36763c0,0 -0.41752,-2.03025 -0.50103,-3.04223c-0.08316,-1.00782 0.00103,-3.01724 0.00103,-3.01724"/><path d="M220.92233,315.82405c0,0 -0.17055,-2.05023 -0.13151,-3.06303c0.03888,-1.00863 0.36531,-3.00132 0.36531,-3.00132"/></g><g data-paper-data="{&quot;index&quot;:null}"><path d="M259.03826,310.17044c0,0 0.08419,2.00942 0.00103,3.01724c-0.08351,1.01198 -0.50103,3.04222 -0.50103,3.04222"/><path d="M269.42163,309.62199c0,0 0.32643,1.99269 0.36531,3.00133c0.03904,1.0128 -0.13151,3.06303 -0.13151,3.06303"/></g></g><path d="M154.03526,103.8422c4.80476,-7.47112 31.06789,-29.54303 30.5834,-32.52388c-0.20506,-1.26162 -0.65037,-4.03679 -1.40582,-6.53502c-0.58093,-1.92112 -1.47223,-3.46872 -1.80178,-5.32204c-0.47482,-2.67022 -0.42844,-4.90953 0.88912,-5.67901c1.41194,-0.8246 3.36713,0.0744 5.23102,1.48308c1.02286,0.77304 1.70756,2.21288 2.57058,3.09231c1.61556,1.64627 3.07794,2.61409 3.07794,2.61409c0,0 1.48589,-2.58789 3.15724,-5.50633c1.15458,-2.01608 1.75761,-4.57726 3.11508,-5.88952c0.94521,-0.91374 2.60879,-1.00857 3.60068,-0.78694c1.67138,0.37346 2.91673,1.51367 3.14231,3.10333c0.17834,1.25673 -0.48669,2.84503 -0.64698,4.20437c-0.26793,2.2721 -0.5046,4.3763 -0.5046,4.3763c0,0 1.85603,-0.93424 3.87858,-1.9192c1.13071,-0.55063 2.07819,-1.25951 3.35127,-1.48564c1.70207,-0.30233 3.63799,0.04754 4.62818,1.13166c0.8974,0.98253 1.28368,2.67415 0.89597,4.28409c-0.36527,1.5168 -1.50757,2.90664 -2.34993,4.29301c-1.32799,2.18566 -2.41882,4.05512 -2.41882,4.05512c0,0 1.79853,-0.27511 3.64683,-0.61882c1.30012,-0.24178 2.45199,-0.62214 3.76959,-0.51083c2.01775,0.17045 3.49738,1.21355 3.62761,3.04762c0.09334,1.31442 -0.92828,3.29701 -2.98097,5.07913c-1.47813,1.2833 -3.74659,2.30792 -5.74035,3.37512c-1.87406,1.00313 -3.46554,2.06801 -5.14277,2.68664c-5.63361,2.07791 -9.12487,1.83651 -12.11856,2.81195c-2.9851,0.97264 -26.74931,21.62298 -36.26823,26.62496c-4.66079,2.44915 -7.06145,2.26596 -9.14339,0.2177c-2.3285,-2.29084 -1.42113,-5.38373 1.35682,-9.70327z" data-paper-data="{&quot;index&quot;:null}" fill="#40c237" stroke="#000000" stroke-width="2.5" stroke-linecap="butt"/></g></g></svg>