<svg version="1.1" xmlns="http://www.w3.org/2000/svg" xmlns:xlink="http://www.w3.org/1999/xlink" width="472.92606" height="875.63813" viewBox="0,0,472.92606,875.63813"><defs><linearGradient x1="154.03803" y1="119.65606" x2="154.03803" y2="172.78112" gradientUnits="userSpaceOnUse" id="color-1"><stop offset="0" stop-color="#f58845"/><stop offset="1" stop-color="#cf7740"/></linearGradient><linearGradient x1="301.66434" y1="118.63447" x2="301.66434" y2="171.75947" gradientUnits="userSpaceOnUse" id="color-2"><stop offset="0" stop-color="#f58845"/><stop offset="1" stop-color="#d17840"/></linearGradient></defs><g transform="translate(5.28814,27.58374)"><g data-paper-data="{&quot;isPaintingLayer&quot;:true}" fill-rule="nonzero" stroke-linejoin="miter" stroke-miterlimit="10" stroke-dasharray="" stroke-dashoffset="0" style="mix-blend-mode: normal"><g stroke="#000000"><g stroke-linecap="butt"><path d="M106.70193,826.55045c-1.75804,-2.81474 -1.68894,-7.2716 3.75672,-39.82294c6.96218,-41.61657 20.40026,-115.71991 25.21439,-146.75574c6.80018,-43.83977 19.22582,-117.76139 19.22582,-117.76139l89.37377,11.34649c0,0 -34.12515,308.29049 -39.60008,311.92189c-4.46851,2.96387 -28.28313,0.66788 -51.09177,-4.01508c-22.46183,-4.61171 -44.95205,-11.82833 -46.87884,-14.91322z" fill="#f5af82" stroke-width="0"/><path d="M154.89883,522.21043l89.37375,11.34645l-12.05838,101.94794c0,0 -30.86129,-8.485 -47.51354,-20.70992c-16.65229,-12.22494 -39.15001,-36.26463 -39.15001,-36.26463c0,0 1.53646,-9.34384 2.26845,-13.77683c3.96446,-24.01007 7.07973,-42.54306 7.07973,-42.54306z" fill="#e4a279" stroke-width="0"/><path d="M106.70193,826.55045c-1.75804,-2.81474 -1.68894,-7.2716 3.75672,-39.82294c2.46158,-14.71399 18.94701,-122.07577 18.94701,-122.07577c0,0 15.9543,34.56868 24.97695,39.39137c9.03669,4.83018 29.20122,-10.43269 29.20122,-10.43269c0,0 8.03518,28.11242 13.48422,33.77444c6.97761,7.25035 26.69065,-6.63711 26.69065,-6.63711c0,0 -17.71892,123.82411 -19.0862,124.731c-4.46851,2.96387 -28.28313,0.66791 -51.09177,-4.01506c-22.46183,-4.61171 -44.95201,-11.82835 -46.8788,-14.91324z" fill="#ca8f6b" stroke-width="0"/><path d="M106.70193,826.55045c-1.75804,-2.81474 -1.68894,-7.2716 3.75672,-39.82294c6.96218,-41.61657 20.40026,-115.71991 25.21439,-146.75574c6.80018,-43.83977 19.22582,-117.76139 19.22582,-117.76139l89.37377,11.34649c0,0 -34.12515,308.29049 -39.60008,311.92189c-4.46851,2.96387 -28.28313,0.66788 -51.09177,-4.01508c-22.46183,-4.61171 -44.95205,-11.82833 -46.87884,-14.91322z" fill="none" stroke-width="2.5"/></g><path d="M129.98409,833.77102l3.40507,-18.19182" fill="none" stroke-width="2.5" stroke-linecap="round"/><path d="M169.96965,823.49616l-1.91621,18.40826" fill="none" stroke-width="2.5" stroke-linecap="round"/></g><g stroke="#000000" stroke-linecap="butt"><path d="M449.64316,434.77576c28.91231,23.15265 -42.01421,104.52591 -100.22843,127.02925c-58.21422,22.50334 -110.49711,27.57605 -116.7771,11.33021c-6.27999,-16.24581 35.82101,-47.65819 94.03523,-70.16156c58.21422,-22.50334 94.79945,-90.75683 122.9703,-68.19794z" fill="#f5af82" stroke-width="0"/><path d="M449.64316,434.77576c13.60838,10.89745 5.0987,34.69296 -13.79302,59.17715c-4.64149,-18.92592 -15.89251,-35.25575 -31.16661,-46.40302c17.56244,-14.49072 32.1332,-23.04542 44.95963,-12.77413z" fill="#ca8f6b" stroke-width="0"/><path d="M449.64316,434.77576c28.91231,23.15265 -42.01421,104.52591 -100.22843,127.02925c-58.21422,22.50334 -110.49711,27.57605 -116.7771,11.33021c-6.27999,-16.24581 35.82101,-47.65819 94.03523,-70.16156c58.21422,-22.50334 94.79945,-90.75683 122.9703,-68.19794z" fill="none" stroke-width="2.5"/></g><g data-paper-data="{&quot;index&quot;:null}" stroke="#000000" stroke-linecap="butt"><path d="M303.11187,358.28849c-0.45682,-16.73843 2.23336,-26.89743 12.59569,-29.35664c9.26505,-2.1988 16.27065,1.34287 25.13692,16.04249c18.10794,30.02161 49.535,127.74042 56.21964,135.49273c6.70388,7.77458 16.84984,12.995 29.0564,28.30131c12.86943,16.13756 19.28679,37.59293 13.34409,46.00352c-8.93004,12.6386 -27.52294,-4.81668 -27.52294,-4.81668c0,0 2.43805,27.79147 -11.82632,31.99261c-14.17068,4.17349 -27.935,-16.57733 -27.935,-16.57733c0,0 -6.85044,24.98792 -23.32076,19.44925c-14.18136,-4.76891 -8.92971,-40.86807 -8.92971,-40.86807c0,0 -20.9263,7.23266 -27.486,-4.83272c-6.17015,-11.34886 13.29949,-29.35156 21.0723,-38.48006c6.38351,-7.49685 -29.61423,-113.39948 -30.40433,-142.35037z" data-paper-data="{&quot;index&quot;:null}" fill="#f5af82" stroke-width="0"/><path d="M330.57205,474.86657c4.74005,0.62496 11.25059,7.32164 15.96153,4.78153c6.57587,-3.54566 10.67608,-16.84238 10.67608,-16.84238c0,0 10.56786,13.24325 19.88537,12.53654c4.45326,-0.33778 7.78236,-12.24764 11.10791,-14.58918c4.07369,10.45231 7.21642,17.80649 8.86118,19.71397c6.70388,7.77458 16.84984,12.995 29.0564,28.30131c12.86943,16.13756 19.28679,37.59293 13.34409,46.00352c-8.93004,12.6386 -27.52294,-4.81668 -27.52294,-4.81668c0,0 2.43805,27.79147 -11.82632,31.99261c-14.17068,4.17349 -27.935,-16.57733 -27.935,-16.57733c0,0 -6.85044,24.98792 -23.32076,19.44925c-14.18136,-4.76891 -8.92971,-40.86807 -8.92971,-40.86807c0,0 -20.9263,7.23266 -27.486,-4.83272c-6.17015,-11.34886 13.29949,-29.35156 21.0723,-38.48006c1.79516,-2.10829 0.2386,-11.99909 -2.94411,-25.77232z" data-paper-data="{&quot;index&quot;:null}" fill="#ca8f6b" stroke-width="0"/><path d="M303.1119,358.28846c-0.45682,-16.73843 2.23336,-26.89743 12.59569,-29.35665c9.26505,-2.1988 16.27065,1.34288 25.13692,16.04249c18.10794,30.02161 49.535,127.74042 56.21965,135.49272c6.70388,7.77458 16.84983,12.99499 29.05639,28.30131c12.86943,16.13756 19.28679,37.59293 13.34409,46.00352c-8.93004,12.6386 -27.52294,-4.81667 -27.52294,-4.81667c0,0 2.43805,27.79147 -11.82632,31.99261c-14.17068,4.17349 -27.935,-16.57733 -27.935,-16.57733c0,0 -6.85044,24.98792 -23.32076,19.44925c-14.18137,-4.76891 -8.92971,-40.86807 -8.92971,-40.86807c0,0 -20.9263,7.23266 -27.486,-4.83272c-6.17015,-11.34886 13.29949,-29.35156 21.0723,-38.48007c6.38351,-7.49685 -29.61422,-113.39948 -30.40432,-142.35037z" data-paper-data="{&quot;index&quot;:null}" fill="none" stroke-width="2.5"/></g><g stroke="#000000" stroke-linecap="butt"><path d="M149.29709,358.28852c-0.7901,28.95089 -36.78783,134.85352 -30.40432,142.35037c7.77281,9.12851 27.24245,27.1312 21.0723,38.48006c-6.55971,12.06538 -27.486,4.83272 -27.486,4.83272c0,0 5.25165,36.09916 -8.92972,40.86807c-16.47033,5.53867 -23.32076,-19.44925 -23.32076,-19.44925c0,0 -13.76432,20.75082 -27.935,16.57733c-14.26437,-4.20114 -11.82632,-31.99261 -11.82632,-31.99261c0,0 -18.5929,17.45527 -27.52294,4.81668c-5.9427,-8.41059 0.47466,-29.86595 13.34409,-46.00352c12.20656,-15.30631 22.35251,-20.52673 29.05639,-28.30131c6.68464,-7.7523 38.1117,-105.47111 56.21964,-135.49272c8.86627,-14.69961 15.87187,-18.24129 25.13692,-16.04249c10.36232,2.45921 13.0525,12.61821 12.59569,29.35664z" data-paper-data="{&quot;index&quot;:null}" fill="#f5af82" stroke-width="0"/><path d="M118.89277,500.63889c7.77281,9.12851 27.24245,27.1312 21.0723,38.48006c-6.55971,12.06538 -27.486,4.83272 -27.486,4.83272c0,0 5.25165,36.09916 -8.92972,40.86807c-16.47033,5.53867 -23.32076,-19.44925 -23.32076,-19.44925c0,0 -13.76432,20.75082 -27.935,16.57733c-14.26437,-4.20114 -11.82632,-31.99261 -11.82632,-31.99261c0,0 -18.5929,17.45527 -27.52294,4.81668c-5.9427,-8.41059 0.47466,-29.86595 13.34409,-46.00352c12.20656,-15.30631 22.35251,-20.52673 29.05639,-28.30131c1.64476,-1.90749 4.7875,-9.26166 8.86118,-19.71397c3.32555,2.34155 6.65466,14.2514 11.10792,14.58918c9.31752,0.7067 19.88537,-12.53654 19.88537,-12.53654c0,0 4.10019,13.29672 10.67607,16.84238c4.71094,2.54011 11.22148,-4.15657 15.96153,-4.78153c-3.18271,13.77323 -4.73927,23.66402 -2.94411,25.77232z" data-paper-data="{&quot;index&quot;:null}" fill="#ca8f6b" stroke-width="0"/><path d="M149.29706,358.28849c-0.7901,28.95089 -36.78783,134.85352 -30.40432,142.35037c7.77281,9.12851 27.24245,27.13121 21.0723,38.48007c-6.55971,12.06538 -27.486,4.83272 -27.486,4.83272c0,0 5.25165,36.09916 -8.92972,40.86807c-16.47033,5.53867 -23.32076,-19.44925 -23.32076,-19.44925c0,0 -13.76432,20.75082 -27.93499,16.57733c-14.26437,-4.20114 -11.82632,-31.99261 -11.82632,-31.99261c0,0 -18.5929,17.45527 -27.52294,4.81667c-5.9427,-8.41059 0.47466,-29.86595 13.34409,-46.00352c12.20655,-15.30631 22.35252,-20.52673 29.0564,-28.30131c6.68465,-7.7523 38.11169,-105.47111 56.21964,-135.49272c8.86627,-14.69961 15.87187,-18.2413 25.13692,-16.04249c10.36232,2.45921 13.0525,12.61822 12.59569,29.35665z" data-paper-data="{&quot;index&quot;:null}" fill="none" stroke-width="2.5"/></g><g data-paper-data="{&quot;index&quot;:null}" stroke="#000000" stroke-linecap="butt"><path d="M307.16655,-8.3704c0,0 57.4324,11.6306 84.6098,19.79685c25.26969,7.59304 73.14835,27.60632 73.14835,27.60632c0,0 -26.96251,16.83817 -38.94725,25.32306c-10.27416,7.27387 -28.62291,22.51501 -28.62291,22.51501z" fill="#f5af82" stroke-width="2.5"/><path d="M362.59397,30.66753c0,0 23.40583,4.73989 34.48163,8.06795c10.29832,3.09445 29.81069,11.25059 29.81069,11.25059c0,0 -10.98822,6.86218 -15.87246,10.32007c-4.18712,2.96435 -21.4462,17.87019 -21.4462,17.87019z" fill="#ca8f6b" stroke-width="0"/></g><g stroke="#000000" stroke-linecap="butt"><path d="M64.99524,83.6104c0,0 -18.34876,-15.24114 -28.62291,-22.51501c-11.98475,-8.4849 -38.94725,-25.32307 -38.94725,-25.32307c0,0 47.87866,-20.01327 73.14835,-27.60631c27.1774,-8.16625 84.6098,-19.79685 84.6098,-19.79685z" fill="#f5af82" stroke-width="2.5"/><path d="M72.78217,74.91589c0,0 -17.25912,-14.90584 -21.4462,-17.87019c-4.88423,-3.45792 -15.87246,-10.3201 -15.87246,-10.3201c0,0 19.51234,-8.15614 29.81066,-11.25059c11.0758,-3.32806 34.48163,-8.06795 34.48163,-8.06795z" fill="#ca8f6b" stroke-width="0"/></g><g data-paper-data="{&quot;index&quot;:null}" stroke="#000000" stroke-linecap="butt"><path d="M282.97431,841.5491c-23.21682,1.77306 -47.13098,1.05143 -51.19062,-2.45162c-4.97396,-4.29201 0,-314.42559 0,-314.42559h90.09111c0,0 3.01669,74.89794 4.24138,119.24506c0.86701,31.395 4.86519,106.60078 6.53059,148.76279c1.30261,32.97794 0.80986,37.40803 -1.28866,39.97898c-2.29998,2.8177 -25.51999,7.1443 -48.38377,8.89036z" fill="#f5af82" stroke-width="0"/><path d="M323.54004,567.76782c0.16784,4.48985 0.51531,13.95281 0.51531,13.95281c0,0 -25.34624,21.01485 -43.4056,31.04516c-18.05937,10.03034 -49.7435,14.56095 -49.7435,14.56095l0.87739,-102.65485h90.09111c0,0 0.75629,18.77781 1.6653,43.09597z" fill="#e4a279" stroke-width="0"/><path d="M282.97431,841.5491c-23.21682,1.77306 -47.13098,1.05143 -51.19062,-2.45162c-1.4504,-1.25155 -3.27038,-119.40586 -3.27038,-119.40586c0,0 21.08818,5.80495 29.92165,1.41011c8.07329,-4.01663 21.00412,-26.74683 21.00412,-26.74683c0,0 16.34202,21.20696 24.68095,20.43375c7.86665,-0.72942 24.0185,-24.94942 24.0185,-24.94942c0,0 3.9194,87.93375 4.50824,102.8406c1.30261,32.97794 0.80986,37.40803 -1.28866,39.97898c-2.29998,2.8177 -25.51999,7.14431 -48.38377,8.89036z" fill="#ca8f6b" stroke-width="0"/><path d="M282.97431,841.5491c-23.21682,1.77306 -47.13098,1.05143 -51.19062,-2.45162c-4.97396,-4.29201 0,-314.42559 0,-314.42559h90.09111c0,0 3.01669,74.89794 4.24138,119.24506c0.86701,31.395 4.86519,106.60078 6.53059,148.76279c1.30261,32.97794 0.80986,37.40803 -1.28866,39.97898c-2.29998,2.8177 -25.51999,7.1443 -48.38377,8.89036z" fill="none" stroke-width="2.5"/></g><g stroke="#000000" stroke-linecap="butt"><path d="M347.14971,443.75689c0,94.36806 -54.61479,160.14133 -121.98551,160.14133c-67.37076,0 -118.9957,-62.70836 -121.98552,-157.07646c-2.98822,-94.31833 54.6148,-184.6606 121.98552,-184.6606c67.37076,0 121.98552,87.22763 121.98552,181.59569z" fill="#e4a279" stroke-width="0"/><path d="M327.71584,416.88398c0,80.40328 -45.55315,136.4433 -101.74577,136.4433c-56.19264,0 -99.25202,-53.42868 -101.74577,-133.83196c-0.71335,-23.00004 12.27548,-66.44241 12.27548,-66.44241c0,0 53.08616,21.48852 89.47029,20.97735c36.38413,-0.51117 88.22637,-23.55786 88.22637,-23.55786c0,0 13.51943,43.2227 13.51943,66.41158z" fill="#f5af82" stroke-width="0"/><path d="M347.14971,443.75689c0,94.36806 -54.61479,160.14133 -121.98551,160.14133c-67.37076,0 -118.9957,-62.70836 -121.98552,-157.07646c-2.98822,-94.31833 54.6148,-184.6606 121.98552,-184.6606c67.37076,0 121.98552,87.22763 121.98552,181.59569z" fill="none" stroke-width="2.5"/></g><g stroke-linecap="butt"><g stroke="#000000"><path d="M413.38274,159.09309c0,102.40842 -83.36148,185.42684 -186.19304,185.42684c-80.52705,0 -149.11421,-50.91019 -175.07925,-122.17459c-7.19184,-19.73894 -11.11378,-41.03948 -11.11378,-63.25225c0,-102.40842 83.36147,-185.42683 186.19303,-185.42683c102.8316,0 186.19304,83.01841 186.19304,185.42683z" fill="#e4a279" stroke-width="0"/><path d="M396.52576,139.93741c0,89.28996 -76.12761,161.6738 -170.03581,161.6738c-21.75467,0 -42.55515,-3.88455 -61.67602,-10.96394c-63.418,-23.4801 -108.35979,-82.10473 -108.35979,-150.70986c0,-89.28996 76.12761,-161.67381 170.03581,-161.67381c93.90817,0 170.03582,72.38382 170.03582,161.67381z" fill="#f5af82" stroke-width="0"/><path d="M413.38274,159.09309c0,102.40842 -83.36148,185.42684 -186.19304,185.42684c-102.83159,0 -186.19303,-83.01841 -186.19303,-185.42683c0,-102.40842 83.36147,-185.42683 186.19303,-185.42683c102.8316,0 186.19304,83.01841 186.19304,185.42683z" fill="none" stroke-width="2.5"/></g><path d="M140.33239,208.24401c8.92508,19.12514 3.48687,41.98572 -12.14656,51.06056c-15.63344,9.07484 -35.54206,0.92753 -44.46718,-18.19761c-8.92508,-19.12513 -3.48691,-41.98571 12.14653,-51.06055c15.63344,-9.07484 35.54209,-0.92753 44.46721,18.19761z" fill="#ca8f6b" stroke="none" stroke-width="0"/><path d="M361.88496,191.57888c15.63344,9.07484 21.07162,31.93545 12.14653,51.06055c-8.92509,19.12514 -28.8337,27.27245 -44.46717,18.19761c-15.63344,-9.07484 -21.07162,-31.93546 -12.14653,-51.06056c8.92509,-19.12513 28.83371,-27.27244 44.46717,-18.1976z" data-paper-data="{&quot;index&quot;:null}" fill="#ca8f6b" stroke="none" stroke-width="0"/></g><path d="M386.35864,128.74117c9.24833,46.76017 -16.0061,91.57344 -56.40734,100.09319c-40.40125,8.51975 -80.65016,-22.48022 -89.89849,-69.24042c-9.24832,-46.76017 16.0061,-91.57344 56.40734,-100.09319c40.40125,-8.51975 80.65016,22.48022 89.89849,69.24042z" fill="#ca8f6b" stroke="none" stroke-width="0" stroke-linecap="butt"/><path d="M203.92877,158.65763c-7.80643,36.1449 -39.94778,59.87113 -71.78973,52.99402c-31.84191,-6.87711 -51.32654,-41.75332 -43.52014,-77.89822c7.80643,-36.1449 39.94779,-59.87113 71.78973,-52.99402c31.84192,6.87711 51.32654,41.75332 43.52014,77.89822z" fill="#ffffff" stroke="#000000" stroke-width="2.5" stroke-linecap="butt"/><g stroke="none" stroke-linecap="butt"><g><path d="M127.47548,146.21861c0,-14.67007 11.89244,-26.56251 26.56252,-26.56251c14.67007,0 26.56252,11.89244 26.56252,26.56251c0,14.67007 -11.89244,26.56251 -26.56252,26.56251c-14.67007,0 -26.56252,-11.89244 -26.56252,-26.56251z" fill="url(#color-1)" stroke-width="0.5"/><path d="M158.30004,172.33158l-2.47819,-12.88632l6.08499,-2.0484l6.7282,10.89012c0,0 -2.76409,2.06163 -5.01246,2.74867c-2.20079,0.6725 -5.3225,1.29596 -5.3225,1.29596z" fill="#bd6935" stroke-width="0"/><path d="M172.26126,165.47699l-8.4712,-9.585l3.3067,-3.11056l9.53371,7.13801c0,0 -1.11712,1.93516 -1.9975,3.05499c-0.88038,1.11986 -2.37164,2.50249 -2.37164,2.50249z" fill="#bd6935" stroke-width="0"/></g><path d="M138.63175,146.21861c0,-8.50863 6.89762,-15.40628 15.40628,-15.40628c8.50863,0 15.40628,6.89762 15.40628,15.40628c0,8.50863 -6.89762,15.40628 -15.40628,15.40628c-8.50863,0 -15.40628,-6.89762 -15.40628,-15.40628z" fill="#000000" stroke-width="0.5"/><path d="M150.71795,140.831c-3.92977,3.84656 -9.82187,4.19987 -13.16039,0.78912c-3.33856,-3.41071 -2.85921,-9.29394 1.07054,-13.14047c3.92977,-3.84656 9.82187,-4.19987 13.16039,-0.78912c3.33856,3.41071 2.85921,9.29394 -1.07053,13.14047z" fill="#ffffff" stroke-width="0"/><path d="M139.32153,144.97775c0.78939,1.06378 0.70624,2.40891 -0.18575,3.00433c-0.89199,0.59545 -2.25498,0.21578 -3.04436,-0.84804c-0.78939,-1.06378 -0.70624,-2.40891 0.18574,-3.00433c0.89199,-0.59545 2.25499,-0.21578 3.04437,0.84804z" fill="#ffffff" stroke-width="0"/></g><path d="M295.34532,80.24859c31.84195,-6.87711 63.9833,16.84916 71.78972,52.99403c7.8064,36.1449 -11.6782,71.02111 -43.52015,77.89822c-31.84195,6.87711 -63.98329,-16.84915 -71.78972,-52.99403c-7.8064,-36.1449 11.6782,-71.02111 43.52015,-77.89822z" data-paper-data="{&quot;index&quot;:null}" fill="#ffffff" stroke="#000000" stroke-width="2.5" stroke-linecap="butt"/><g stroke="none" stroke-linecap="butt"><g><path d="M275.10182,145.19698c0,-14.67007 11.89244,-26.56251 26.56252,-26.56251c14.67007,0 26.56252,11.89244 26.56252,26.56251c0,14.67007 -11.89244,26.56249 -26.56252,26.56249c-14.67007,0 -26.56252,-11.89245 -26.56252,-26.56249z" fill="url(#color-2)" stroke-width="0.5"/><path d="M305.92638,171.30995l-2.47823,-12.88635l6.08499,-2.04841l6.72821,10.89012c0,0 -2.7641,2.06164 -5.0125,2.74868c-2.20076,0.6725 -5.3225,1.29592 -5.3225,1.29592z" fill="#bd6935" stroke-width="0"/><path d="M319.88754,164.45537l-8.47124,-9.585l3.3067,-3.11052l9.53371,7.138c0,0 -1.11712,1.93517 -1.99754,3.055c-0.88042,1.11986 -2.37164,2.50248 -2.37164,2.50248z" fill="#bd6935" stroke-width="0"/></g><path d="M286.25809,145.19698c0,-8.50863 6.89761,-15.40628 15.40628,-15.40628c8.50863,0 15.40625,6.89761 15.40625,15.40628c0,8.50863 -6.89762,15.40625 -15.40625,15.40625c-8.50863,0 -15.40628,-6.89762 -15.40628,-15.40625z" fill="#000000" stroke-width="0.5"/><path d="M298.3443,139.80937c-3.92977,3.84656 -9.82187,4.19987 -13.16036,0.78913c-3.33855,-3.41074 -2.85921,-9.29394 1.07053,-13.14048c3.92977,-3.84656 9.82188,-4.19987 13.16037,-0.78912c3.33853,3.41075 2.8592,9.29394 -1.07054,13.14047z" fill="#ffffff" stroke-width="0"/><path d="M286.94783,143.95612c0.78938,1.06378 0.70621,2.40891 -0.18574,3.00433c-0.89196,0.59545 -2.25498,0.21578 -3.04433,-0.84804c-0.78935,-1.06378 -0.70621,-2.40891 0.18574,-3.00433c0.89196,-0.59545 2.25498,-0.21578 3.04433,0.84804z" fill="#ffffff" stroke-width="0"/></g><path d="M166.22658,37.48888c0.9006,2.78406 -3.587,6.0531 -10.02333,7.30156c-6.43633,1.24845 -20.61046,1.5993 -21.51106,-1.18478c-0.9006,-2.78406 11.81341,-7.64879 18.24974,-8.89724c6.43633,-1.24846 12.38409,-0.00362 13.28468,2.78046z" fill="#000000" stroke="none" stroke-width="0" stroke-linecap="butt"/><path d="M300.27008,33.68676c6.43633,1.24848 19.15031,6.11315 18.24971,8.89727c-0.9006,2.78406 -15.07472,2.43324 -21.51109,1.18478c-6.43633,-1.24849 -10.92393,-4.5175 -10.02333,-7.30155c0.9006,-2.78406 6.84839,-4.02895 13.28472,-2.78046z" data-paper-data="{&quot;index&quot;:null}" fill="#000000" stroke="none" stroke-width="0" stroke-linecap="butt"/><path d="M265.44897,250.44707c0,0 -9.45227,7.23347 -17.43323,8.14558c-3.16954,0.36223 -6.84018,4.30107 -10.11401,3.48739c-4.96973,-1.23518 -9.02508,2.9641 -9.02508,2.9641c0,0 -12.51727,-6.0729 -20.39041,-6.90167c-7.87314,-0.82877 -17.61663,-7.69541 -17.61663,-7.69541" fill="#000000" stroke="#000000" stroke-width="2.5" stroke-linecap="round"/><path d="M117.00931,379.15819c0,0 0.696,-4.53334 1.55291,-7.10407c1.01735,-3.05203 4.15285,-10.01323 4.15285,-10.01323c0,0 11.40458,10.8374 17.88222,15.60393c7.70771,5.67169 25.31856,16.18533 25.31856,16.18533c0,0 -14.89185,-2.02222 -22.73718,-4.37583c-8.41665,-2.52501 -26.16937,-10.29613 -26.16937,-10.29613z" fill="#ca8f6b" stroke="none" stroke-width="0" stroke-linecap="butt"/><path d="M307.65898,388.63921c-7.84533,2.35361 -22.73718,4.37583 -22.73718,4.37583c0,0 17.6109,-10.51361 25.31857,-16.18533c6.47764,-4.76657 17.88222,-15.60393 17.88222,-15.60393c0,0 3.1355,6.96116 4.15282,10.01319c0.85691,2.57072 1.55295,7.1041 1.55295,7.1041c0,0 -17.75272,7.77112 -26.16937,10.29613z" data-paper-data="{&quot;index&quot;:null}" fill="#ca8f6b" stroke="none" stroke-width="0" stroke-linecap="butt"/><path d="M107.60817,434.6293c0,0 0.50497,-9.90068 1.08562,-14.25551c0.49108,-3.68325 2.17481,-10.19777 2.17481,-10.19777c0,0 7.03406,6.95905 11.04819,10.00006c4.80804,3.64243 15.85042,10.37767 15.85042,10.37767c0,0 -10.74568,3.08235 -15.90164,3.77908c-4.88211,0.65975 -14.2574,0.29647 -14.2574,0.29647z" fill="#ca8f6b" stroke="none" stroke-width="0" stroke-linecap="butt"/><path d="M328.10224,432.70264c-5.15596,-0.69675 -15.90163,-3.77911 -15.90163,-3.77911c0,0 11.04238,-6.73522 15.85041,-10.37768c4.01415,-3.04101 11.04818,-10.00005 11.04818,-10.00005c0,0 1.68372,6.51452 2.17481,10.19777c0.58065,4.35483 1.08563,14.25551 1.08563,14.25551c0,0 -9.37529,0.36328 -14.2574,-0.29644z" data-paper-data="{&quot;index&quot;:null}" fill="#ca8f6b" stroke="none" stroke-width="0" stroke-linecap="butt"/><path d="" fill="#ca8f6b" stroke="#000000" stroke-width="0" stroke-linecap="butt"/><g stroke="none" stroke-linecap="butt"><g fill="#996d51" stroke-width="0.5"><path d="M100.04174,217.53257c-0.65157,-2.1004 0.65427,-4.46445 2.91665,-5.28031c2.26238,-0.81582 4.6246,0.22549 5.27614,2.3259c0.65157,2.1004 -0.65427,4.46445 -2.91666,5.28031c-2.26238,0.81582 -4.6246,-0.2255 -5.27613,-2.3259z"/><path d="M93.17575,236.24608c-0.65157,-2.1004 0.65427,-4.46445 2.91666,-5.28031c2.26238,-0.81582 4.6246,0.22549 5.27613,2.3259c0.65157,2.1004 -0.65427,4.46445 -2.91665,5.2803c-2.26238,0.81582 -4.6246,-0.22549 -5.27614,-2.3259z"/><path d="M115.3046,228.49168c-0.65157,-2.1004 0.65427,-4.46445 2.91665,-5.28031c2.26238,-0.81582 4.6246,0.2255 5.27613,2.3259c0.65157,2.1004 -0.65427,4.46445 -2.91665,5.28031c-2.26238,0.81582 -4.6246,-0.22549 -5.27613,-2.3259z"/></g><path d="M42.96265,212.29775c0,0 17.44288,-5.62468 29.27439,-4.78616c11.8315,0.83852 34.07309,8.3132 31.86845,9.11954c-1.96024,0.71694 -21.25185,-3.29597 -31.63243,-4.03169c-9.98499,-0.70768 -29.5104,-0.30169 -29.5104,-0.30169z" fill="#000000" stroke-width="0"/><path d="M44.99295,263.45827c0,0 11.84732,-13.98329 22.33944,-19.51531c10.49212,-5.53202 33.32877,-10.92142 31.88173,-9.07298c-1.28664,1.64352 -19.79062,8.41639 -28.9961,13.27001c-8.85463,4.66862 -25.22509,15.31828 -25.22509,15.31828z" fill="#000000" stroke-width="0"/><path d="M58.89696,233.56326c0,0 16.2059,-8.5592 28.00396,-9.78137c11.79806,-1.22217 34.99776,2.28958 32.96598,3.46539c-1.80654,1.04546 -21.5016,0.43253 -31.85283,1.50482c-9.95676,1.03144 -29.11713,4.81116 -29.11713,4.81116z" fill="#000000" stroke-width="0"/></g><g data-paper-data="{&quot;index&quot;:null}" stroke="none" stroke-linecap="butt"><g fill="#996d51" stroke-width="0.5"><path d="M348.22813,221.48869c-2.26238,-0.81586 -3.56819,-3.17991 -2.91666,-5.28031c0.65157,-2.10038 3.01375,-3.14172 5.27614,-2.3259c2.26238,0.81586 3.56819,3.17994 2.91665,5.28031c-0.65157,2.10038 -3.01375,3.14172 -5.27613,2.32586z"/><path d="M355.09415,240.20219c-2.26238,-0.81586 -3.56819,-3.17994 -2.91665,-5.28031c0.65157,-2.10038 3.01378,-3.14172 5.27617,-2.32586c2.26238,0.81586 3.56819,3.17991 2.91663,5.28031c-0.65157,2.10038 -3.01376,3.14172 -5.27614,2.3259z"/><path d="M332.96531,232.44777c-2.26238,-0.81586 -3.5682,-3.17991 -2.91666,-5.28031c0.65157,-2.10038 3.01376,-3.14172 5.27614,-2.3259c2.26238,0.81586 3.56822,3.17991 2.91665,5.28031c-0.65157,2.10038 -3.01378,3.14172 -5.27617,2.3259z"/></g><path d="M381.07302,214.22965c-10.38058,0.73568 -29.67219,4.74867 -31.63243,4.0317c-2.20464,-0.80634 20.03695,-8.28102 31.86845,-9.11954c11.8315,-0.83852 29.27438,4.78616 29.27438,4.78616c0,0 -19.52538,-0.40599 -29.51037,0.30169z" fill="#000000" stroke-width="0"/><path d="M383.32804,249.77024c-9.20545,-4.85359 -27.70944,-11.62649 -28.99608,-13.27001c-1.44705,-1.84844 21.38961,3.54097 31.88176,9.07298c10.49212,5.53202 22.33944,19.51528 22.33944,19.51528c0,0 -16.37046,-10.64963 -25.22509,-15.31825z" fill="#000000" stroke-width="0"/><path d="M365.53199,230.38231c-10.35123,-1.07229 -30.04629,-0.45936 -31.85284,-1.50482c-2.03177,-1.17578 21.16793,-4.68756 32.96598,-3.46539c11.79805,1.22217 28.00396,9.78137 28.00396,9.78137c0,0 -19.16038,-3.77973 -29.11714,-4.81117z" fill="#000000" stroke-width="0"/></g><path d="M240.40928,196.34789c0,2.26242 -12.87456,11.11894 -12.87456,11.11894c0,0 -12.87455,-9.07204 -12.87455,-11.11894c0,-2.26242 5.76413,-4.09644 12.87455,-4.09644c7.11042,0 12.87456,1.83403 12.87456,4.09644z" fill="#996d51" stroke="none" stroke-width="0" stroke-linecap="butt"/><path d="M227.54907,176.20263c13.05498,0 23.63816,9.37375 23.63816,9.37375c0,0 -10.58318,-3.81132 -23.63816,-3.81132c-13.05498,0 -23.63817,3.81132 -23.63817,3.81132c0,0 10.58319,-9.37375 23.63817,-9.37375z" fill="#e4a279" stroke="none" stroke-width="0" stroke-linecap="butt"/><path d="M210.76349,-20.5759c0,0 9.97433,-1.08681 15.21538,-1.08681c5.60289,0 17.38899,1.08681 17.38899,1.08681c0,0 -5.09496,15.76535 -7.45196,25.03627c-2.94502,11.58368 -8.85022,39.08566 -8.85022,39.08566c0,0 -5.66563,-26.55958 -8.5863,-38.0475c-2.41784,-9.5101 -7.71589,-26.07439 -7.71589,-26.07439z" fill="#ca8f6b" stroke="none" stroke-width="0" stroke-linecap="butt"/><path d="M266.15502,839.14182l0.41747,-18.50301" data-paper-data="{&quot;index&quot;:null}" fill="none" stroke="#000000" stroke-width="2.5" stroke-linecap="round"/><path d="M303.85877,817.39197l1.08684,18.47582" data-paper-data="{&quot;index&quot;:null}" fill="none" stroke="#000000" stroke-width="2.5" stroke-linecap="round"/></g></g></svg>